<?xml version="1.0" encoding="utf-8"?>
<!-- Generator: Adobe Illustrator 15.0.0, SVG Export Plug-In . SVG Version: 6.00 Build 0)  -->
<!DOCTYPE svg PUBLIC "-//W3C//DTD SVG 1.1//EN" "http://www.w3.org/Graphics/SVG/1.1/DTD/svg11.dtd">
<svg version="1.1"
	 id="svg2" inkscape:version="0.46" sodipodi:docname="FOX.svg" inkscape:output_extension="org.inkscape.output.svg.inkscape" sodipodi:version="0.32" xmlns:dc="http://purl.org/dc/elements/1.1/" xmlns:cc="http://creativecommons.org/ns#" xmlns:rdf="http://www.w3.org/1999/02/22-rdf-syntax-ns#" xmlns:svg="http://www.w3.org/2000/svg" xmlns:sodipodi="http://sodipodi.sourceforge.net/DTD/sodipodi-0.dtd" xmlns:inkscape="http://www.inkscape.org/namespaces/inkscape"
	 xmlns="http://www.w3.org/2000/svg" xmlns:xlink="http://www.w3.org/1999/xlink" x="0px" y="0px" width="64.9px" height="28px"
	 viewBox="882.1 380.7 64.9 28" style="enable-background:new 882.1 380.7 64.9 28;" xml:space="preserve">
<style type="text/css">
<![CDATA[
	.st0{fill:#F7921C;}
]]>
</style>
<sodipodi:namedview  id="base" inkscape:current-layer="svg2" inkscape:window-y="-8" inkscape:window-x="-8" inkscape:window-height="718" inkscape:window-width="1024" inkscape:pageshadow="2" inkscape:pageopacity="0.0" inkscape:cy="397" inkscape:cx="916" bordercolor="#666666" inkscape:zoom="0.29694323" pagecolor="#ffffff" guidetolerance="10.0" gridtolerance="10.0" objecttolerance="10.0" borderopacity="1.0" showgrid="false">
	</sodipodi:namedview>
<defs>
	
	
		<inkscape:perspective  id="perspective12" inkscape:persp3d-origin="916 : 264.66667 : 1" inkscape:vp_x="0 : 397 : 1" inkscape:vp_y="0 : 1000 : 0" sodipodi:type="inkscape:persp3d" inkscape:vp_z="1832 : 397 : 1">
		</inkscape:perspective>
</defs>
<g id="g2385">
	<path id="path1371_1_" class="st0" d="M947,408.6c-3,0-6,0-8.9,0c-0.1,0-0.2-0.4-0.3-0.4c-1.2-2.2-2.4-4.4-3.7-6.6
		c-1.3,2.3-2.6,4.7-3.9,7.1c-2.9,0-5.8,0-8.7,0c0.3-0.6,0.7-1.2,1-1.8c2.4-4.2,4.8-8.4,7.2-12.6c-2.6-4.5-5.2-9-7.8-13.5
		c0,0,0,0,0,0c3,0,5.9,0,8.9,0c1.1,2,2.2,4,3.2,6c1.1-2,2.2-4,3.3-6c2.9,0,5.7,0,8.6,0c0,0,0,0.1,0,0.1c-2.5,4.4-5.1,8.9-7.6,13.3
		C941.4,398.9,944.2,403.8,947,408.6z"/>
	<path id="path1373_1_" class="st0" d="M925.5,391.5c0.2,0.9,0.4,1.9,0.4,3c0,3.3-1,5.8-2.3,7.8c-0.2,0.3-0.5,0.7-0.7,1
		c-0.7,0.9-1.6,1.8-2.6,2.5c-0.7,0.5-1.3,0.9-2.1,1.3c-1.5,0.7-3.4,1.3-5.5,1.3c-3.3,0-5.7-1-7.7-2.4c-2-1.4-3.5-3.2-4.6-5.5
		c-0.7-1.6-1.2-3.3-1.2-5.5c0-1.1,0.1-2.1,0.3-3.1c0.5-2.3,1.5-4.2,2.7-5.7c1.2-1.6,2.8-2.8,4.7-3.7c0.7-0.4,1.6-0.7,2.5-0.9
		c0.9-0.2,1.9-0.4,3-0.4c0,0,0,0,0,0c1.1,0,2.2,0.1,3.1,0.3c0.9,0.2,1.8,0.5,2.5,0.9c2.3,1.1,4.1,2.6,5.5,4.6
		C924.3,388.2,925,389.7,925.5,391.5z M914.8,400.8c0.1-0.3,0.1-0.8,0.1-1.2c0-3.4,0-6.8,0-10.3c0-0.4,0-0.8-0.2-1.1
		c-0.1-0.3-0.3-0.6-0.5-0.8c-0.4-0.4-1-0.8-1.8-0.7c-0.4,0-0.7,0.1-1,0.3c-0.5,0.3-0.9,0.8-1.1,1.5c-0.1,0.3-0.1,0.8-0.1,1.2
		c0,3.4,0,6.8,0,10.3c0,0.2,0,0.4,0,0.6c0.1,0.5,0.3,1,0.6,1.3c0.4,0.4,1,0.8,1.9,0.7C913.8,402.4,914.6,401.7,914.8,400.8z"/>
	<path id="path1377_1_" class="st0" d="M899.5,388.3c-3.1,0-6.3,0-9.4,0c0,1.2,0,2.5,0,3.6c2.5,0,5.1,0,7.7,0c0,2.5,0,5.1,0,7.6
		c-2.6,0-5.2,0-7.8,0c0,3,0,6,0,9c0,0,0,0,0,0c-2.6,0-5.2,0-7.9,0c0,0,0,0,0,0c0-9.3,0-18.7,0-28c0,0,0,0,0,0c5.6,0,11.2,0,16.8,0
		c0,0,0,0,0,0C899.2,383.2,899.3,385.8,899.5,388.3z"/>
</g>
</svg>
