<?xml version="1.0" encoding="utf-8"?>
<!-- Generator: Adobe Illustrator 15.0.0, SVG Export Plug-In . SVG Version: 6.00 Build 0)  -->
<!DOCTYPE svg PUBLIC "-//W3C//DTD SVG 1.1//EN" "http://www.w3.org/Graphics/SVG/1.1/DTD/svg11.dtd">
<svg version="1.1" id="Layer_1" xmlns="http://www.w3.org/2000/svg" xmlns:xlink="http://www.w3.org/1999/xlink" x="0px" y="0px"
	 width="57.7px" height="50px" viewBox="0 0 57.7 50" style="enable-background:new 0 0 57.7 50;" xml:space="preserve">
<style type="text/css">
<![CDATA[
	.st0{fill:#FFFFFF;}
	.st1{fill-rule:evenodd;clip-rule:evenodd;fill:url(#SVGID_1_);}
]]>
</style>
<linearGradient id="SVGID_1_" gradientUnits="userSpaceOnUse" x1="3.0205" y1="35.1787" x2="59.7526" y2="12.9079">
	<stop  offset="0" style="stop-color:#A22024"/>
	<stop  offset="0.4934" style="stop-color:#C4282A"/>
	<stop  offset="1" style="stop-color:#E7312E"/>
</linearGradient>
<path class="st1" d="M56,6.6c-2.3-1.7-5.1-2.9-8.1-3.9v0C43.2,1.3,37.8,0.5,32.1,0c-2.2,0-4.4,0-6.6,0C16.3,0.9,7.6,2.3,1.8,6.6
	C1.5,7.8,1.2,9.1,1,10.5h0c-1.2,6.8-1.4,15.1-0.2,22l0,0c0,0,0,0,0,0c0.1,0.3,0.1,0.6,0.2,1c0,0,0,0,0,0c0.1,0.3,0.1,0.6,0.2,0.9
	c0,0,0,0.1,0,0.1c0.1,0.3,0.1,0.5,0.2,0.8c0,0.1,0,0.1,0,0.2c0.1,0.3,0.2,0.6,0.2,0.9c0.3,0.2,0.5,0.4,0.8,0.5
	c0.1,0,0.1,0.1,0.2,0.1c0.3,0.2,0.5,0.3,0.8,0.5c0,0,0.1,0,0.1,0c0.3,0.2,0.6,0.3,0.8,0.5c0,0,0.1,0,0.1,0.1
	c0.3,0.2,0.6,0.3,0.9,0.5c0,0,0.1,0,0.1,0c0.7,0.3,1.3,0.6,2,0.9c0,0,0,0,0.1,0C8.3,39.7,9,40,9.8,40.2c0,0,0,0,0,0
	c2,0.6,4.2,1.1,6.5,1.6V50h6v-7.4c1.1,0.1,2.2,0.2,3.3,0.3c2.2,0,4.4,0,6.6,0c1.1-0.1,2.2-0.2,3.2-0.3V50h6v-8.3
	c4.7-0.8,9-2.1,12.5-4.2c0.1-0.1,0.2-0.1,0.3-0.2c0.2-0.1,0.4-0.2,0.5-0.3c0.1-0.1,0.3-0.2,0.4-0.3c0.2-0.2,0.4-0.3,0.7-0.5
	c0.3-1,0.5-2,0.7-3C58.1,25,58.1,14.3,56,6.6z"/>
<g>
	<path class="st0" d="M3.4,14.2h12.8v3.4h-4.3v10.5H7.7V17.7H3.4V14.2z"/>
	<path class="st0" d="M26.5,24.1h-7.6c0.1,0.6,0.2,1.1,0.5,1.4c0.4,0.4,0.8,0.7,1.4,0.7c0.4,0,0.7-0.1,1.1-0.3
		c0.2-0.1,0.4-0.3,0.7-0.6l3.7,0.4c-0.6,1-1.3,1.7-2.1,2.2c-0.8,0.4-2,0.7-3.5,0.7c-1.3,0-2.3-0.2-3.1-0.6c-0.8-0.4-1.4-1-1.9-1.8
		s-0.7-1.8-0.7-2.9c0-1.6,0.5-2.9,1.5-3.8c1-1,2.4-1.5,4.1-1.5c1.4,0,2.5,0.2,3.3,0.7s1.4,1.1,1.9,1.9c0.4,0.8,0.6,1.9,0.6,3.2V24.1
		z M22.6,22.2c-0.1-0.7-0.3-1.3-0.6-1.6s-0.7-0.5-1.3-0.5c-0.6,0-1.1,0.2-1.4,0.7c-0.2,0.3-0.4,0.8-0.4,1.4H22.6z"/>
	<path class="st0" d="M27.2,14.2H31v14h-3.8V14.2z"/>
	<path class="st0" d="M32.3,14.2h3.9v7.2l2.8-3.4h4.7l-3.5,3.5l3.7,6.6h-4.3l-2-4.1l-1.4,1.4v2.6h-3.9V14.2z"/>
	<path class="st0" d="M47.3,21.3l-3.6-0.4c0.1-0.6,0.3-1.2,0.6-1.5c0.3-0.4,0.6-0.7,1.1-1c0.3-0.2,0.8-0.3,1.4-0.5s1.3-0.2,2-0.2
		c1.1,0,2,0.1,2.7,0.2c0.7,0.1,1.3,0.4,1.7,0.8c0.3,0.3,0.6,0.7,0.8,1.2c0.2,0.5,0.3,1,0.3,1.5V26c0,0.5,0,0.8,0.1,1.1
		c0.1,0.3,0.2,0.6,0.4,1h-3.6c-0.1-0.3-0.2-0.5-0.3-0.6c0-0.1-0.1-0.4-0.1-0.6c-0.5,0.5-1,0.8-1.5,1c-0.7,0.3-1.4,0.4-2.3,0.4
		c-1.2,0-2.1-0.3-2.7-0.8s-0.9-1.2-0.9-2.1c0-0.8,0.2-1.4,0.7-1.9c0.4-0.5,1.3-0.9,2.4-1.1c1.4-0.3,2.3-0.5,2.8-0.6
		c0.4-0.1,0.9-0.3,1.3-0.5c0-0.5-0.1-0.8-0.3-1c-0.2-0.2-0.5-0.3-1-0.3c-0.6,0-1.1,0.1-1.4,0.3C47.6,20.6,47.4,20.9,47.3,21.3z
		 M50.6,23.4c-0.5,0.2-1.1,0.4-1.6,0.5c-0.8,0.2-1.3,0.4-1.5,0.6c-0.2,0.2-0.3,0.4-0.3,0.7c0,0.3,0.1,0.6,0.3,0.7
		c0.2,0.2,0.5,0.3,0.9,0.3c0.4,0,0.8-0.1,1.2-0.3c0.4-0.2,0.6-0.5,0.8-0.8c0.2-0.3,0.2-0.7,0.2-1.2V23.4z"/>
</g>
<g>
	<path d="M-34.5,57.8h2.9v1.1h-1.6v1.7h1.5v1.1h-1.5v2.8h-1.3V57.8z"/>
	<path d="M-27.3,62.1c0,2-1.1,2.5-1.9,2.5c-1.2,0-1.9-0.9-1.9-2.5c0-1.8,0.9-2.5,1.9-2.5C-28,59.6-27.3,60.5-27.3,62.1z M-29.8,62.1
		c0,0.8,0.1,1.5,0.6,1.5c0.4,0,0.5-0.8,0.5-1.5c0-0.7-0.1-1.5-0.6-1.5C-29.7,60.6-29.8,61.4-29.8,62.1z"/>
	<path d="M-26.6,61.1c0-0.5,0-1,0-1.5h1.1l0.1,0.6h0c0.3-0.4,0.7-0.6,1.2-0.6c0.9,0,1.3,0.7,1.3,1.8v3.1h-1.3v-3.1
		c0-0.4-0.1-0.8-0.5-0.8c-0.2,0-0.4,0.2-0.5,0.4c0,0.1-0.1,0.3-0.1,0.4v3h-1.3V61.1z"/>
	<path d="M-20.5,58.4v1.3h1v0.9h-1v2.2c0,0.6,0.2,0.7,0.5,0.7c0.1,0,0.2,0,0.3,0l0,1c-0.2,0-0.5,0.1-0.8,0.1c-0.4,0-0.7-0.1-0.9-0.3
		c-0.3-0.3-0.4-0.6-0.4-1.4v-2.3h-0.6v-0.9h0.6v-0.9L-20.5,58.4z"/>
	<path d="M-17.3,60.5c0-0.5,0.3-0.8,0.7-0.8c0.4,0,0.7,0.3,0.7,0.8c0,0.5-0.3,0.8-0.7,0.8C-16.9,61.3-17.3,61-17.3,60.5z
		 M-17.3,63.8c0-0.5,0.3-0.8,0.7-0.8c0.4,0,0.7,0.3,0.7,0.8c0,0.5-0.3,0.8-0.7,0.8C-16.9,64.6-17.3,64.3-17.3,63.8z"/>
	<path d="M-12,59.1v5.4h-0.7v-5.4H-12z"/>
	<path d="M-8.3,59.7v0.9h1v0.5h-1v2.1c0,0.5,0.1,0.8,0.5,0.8c0.2,0,0.3,0,0.4,0l0,0.5c-0.1,0-0.4,0.1-0.6,0.1
		c-0.3,0-0.6-0.1-0.8-0.3c-0.2-0.2-0.3-0.6-0.3-1v-2.1h-0.6v-0.5H-9v-0.7L-8.3,59.7z"/>
	<path d="M-6.5,58.9h0.7v2.4h0c0.1-0.2,0.3-0.4,0.5-0.5c0.2-0.1,0.5-0.2,0.7-0.2c0.5,0,1.4,0.3,1.4,1.6v2.3h-0.7v-2.2
		c0-0.6-0.2-1.1-0.9-1.1c-0.5,0-0.8,0.3-0.9,0.7c0,0.1,0,0.2,0,0.3v2.3h-0.7V58.9z"/>
	<path d="M-1.3,59.6c0,0.2-0.2,0.4-0.4,0.4c-0.3,0-0.4-0.2-0.4-0.4c0-0.2,0.2-0.4,0.4-0.4C-1.4,59.1-1.3,59.3-1.3,59.6z M-2,64.5
		v-3.9h0.7v3.9H-2z"/>
	<path d="M-0.2,61.7c0-0.4,0-0.7,0-1h0.6l0,0.6h0c0.2-0.4,0.6-0.7,1.3-0.7c0.5,0,1.4,0.3,1.4,1.6v2.3H2.4v-2.2
		c0-0.6-0.2-1.1-0.9-1.1c-0.5,0-0.8,0.3-0.9,0.7c0,0.1,0,0.2,0,0.3v2.3h-0.7V61.7z"/>
	<path d="M5,62.4L5,62.4c0.1-0.1,0.2-0.3,0.4-0.4l1.1-1.3h0.8l-1.5,1.6l1.7,2.3H6.7l-1.3-1.9L5,63.1v1.5H4.3v-5.7H5V62.4z"/>
	<path d="M10.6,59.7v0.9h1v0.5h-1v2.1c0,0.5,0.1,0.8,0.5,0.8c0.2,0,0.3,0,0.4,0l0,0.5c-0.1,0-0.4,0.1-0.6,0.1
		c-0.3,0-0.6-0.1-0.8-0.3c-0.2-0.2-0.3-0.6-0.3-1v-2.1H9.3v-0.5h0.6v-0.7L10.6,59.7z"/>
	<path d="M12.4,58.9h0.7v2.4h0c0.1-0.2,0.3-0.4,0.5-0.5c0.2-0.1,0.5-0.2,0.7-0.2c0.5,0,1.4,0.3,1.4,1.6v2.3H15v-2.2
		c0-0.6-0.2-1.1-0.9-1.1c-0.5,0-0.8,0.3-0.9,0.7c0,0.1,0,0.2,0,0.3v2.3h-0.7V58.9z"/>
	<path d="M19.5,63.6c0,0.3,0,0.7,0.1,0.9h-0.6L18.9,64h0c-0.2,0.3-0.6,0.6-1.2,0.6c-0.8,0-1.2-0.6-1.2-1.1c0-0.9,0.8-1.4,2.3-1.4V62
		c0-0.3-0.1-0.9-0.9-0.9c-0.4,0-0.7,0.1-1,0.3l-0.2-0.5c0.3-0.2,0.8-0.3,1.3-0.3c1.2,0,1.5,0.8,1.5,1.6V63.6z M18.8,62.6
		c-0.8,0-1.6,0.1-1.6,0.9c0,0.5,0.3,0.7,0.7,0.7c0.5,0,0.8-0.3,1-0.6c0-0.1,0-0.2,0-0.2V62.6z"/>
	<path d="M21.5,59.7v0.9h1v0.5h-1v2.1c0,0.5,0.1,0.8,0.5,0.8c0.2,0,0.3,0,0.4,0l0,0.5c-0.1,0-0.4,0.1-0.6,0.1
		c-0.3,0-0.6-0.1-0.8-0.3c-0.2-0.2-0.3-0.6-0.3-1v-2.1h-0.6v-0.5h0.6v-0.7L21.5,59.7z"/>
	<path d="M24,61c0.2-0.7,0.5-1.5,0.7-1.9l0.4,0c-0.2,0.5-0.4,1.3-0.5,1.9L24,61z M25.2,61c0.2-0.7,0.5-1.5,0.7-1.9l0.4,0
		c-0.2,0.5-0.4,1.3-0.5,1.9L25.2,61z"/>
	<path d="M27.5,62.8l-0.6,1.7h-0.7l1.8-5.4h0.8l1.8,5.4H30l-0.6-1.7H27.5z M29.3,62.3l-0.5-1.6c-0.1-0.4-0.2-0.7-0.3-1h0
		c-0.1,0.3-0.2,0.6-0.3,1l-0.5,1.6H29.3z"/>
	<path d="M31.5,61.9c0-0.5,0-0.8,0-1.2h0.6l0,0.8h0c0.2-0.5,0.6-0.8,1.1-0.8c0.1,0,0.1,0,0.2,0v0.7c-0.1,0-0.1,0-0.2,0
		c-0.5,0-0.8,0.4-0.9,0.9c0,0.1,0,0.2,0,0.3v2.1h-0.7V61.9z"/>
	<path d="M34.9,59.6c0,0.2-0.2,0.4-0.4,0.4c-0.3,0-0.4-0.2-0.4-0.4c0-0.2,0.2-0.4,0.4-0.4C34.7,59.1,34.9,59.3,34.9,59.6z
		 M34.1,64.5v-3.9h0.7v3.9H34.1z"/>
	<path d="M38.7,63.6c0,0.3,0,0.7,0.1,0.9h-0.6L38.1,64h0c-0.2,0.3-0.6,0.6-1.2,0.6c-0.8,0-1.2-0.6-1.2-1.1c0-0.9,0.8-1.4,2.3-1.4V62
		c0-0.3-0.1-0.9-0.9-0.9c-0.4,0-0.7,0.1-1,0.3L36,60.9c0.3-0.2,0.8-0.3,1.3-0.3c1.2,0,1.5,0.8,1.5,1.6V63.6z M38,62.6
		c-0.8,0-1.6,0.1-1.6,0.9c0,0.5,0.3,0.7,0.7,0.7c0.5,0,0.8-0.3,1-0.6c0-0.1,0-0.2,0-0.2V62.6z"/>
	<path d="M39.8,58.9h0.7v5.7h-0.7V58.9z"/>
	<path d="M42.7,59c-0.2,0.7-0.5,1.5-0.7,1.9l-0.4,0c0.2-0.5,0.4-1.3,0.5-1.9L42.7,59z M43.8,59c-0.2,0.7-0.5,1.5-0.7,1.9l-0.4,0
		c0.2-0.5,0.4-1.3,0.5-1.9L43.8,59z"/>
	<path d="M45.9,60.7l0.5,2c0.1,0.4,0.2,0.8,0.3,1.2h0c0.1-0.4,0.2-0.8,0.3-1.2l0.6-2h0.6l0.6,1.9c0.1,0.5,0.3,0.9,0.3,1.3h0
		c0.1-0.4,0.2-0.8,0.3-1.3l0.6-1.9h0.7l-1.2,3.9h-0.6l-0.6-1.8c-0.1-0.4-0.2-0.8-0.3-1.3h0c-0.1,0.5-0.2,0.9-0.4,1.3L47,64.5h-0.6
		l-1.2-3.9H45.9z"/>
	<path d="M52.3,59.6c0,0.2-0.2,0.4-0.4,0.4c-0.3,0-0.4-0.2-0.4-0.4c0-0.2,0.2-0.4,0.4-0.4C52.1,59.1,52.3,59.3,52.3,59.6z
		 M51.5,64.5v-3.9h0.7v3.9H51.5z"/>
	<path d="M53.4,58.9h0.7v5.7h-0.7V58.9z"/>
	<path d="M55.3,58.9H56v5.7h-0.7V58.9z"/>
	<path d="M58.9,58.9h0.7v2.4h0c0.2-0.4,0.7-0.7,1.3-0.7c1,0,1.6,0.8,1.6,2c0,1.4-0.9,2.1-1.7,2.1c-0.6,0-1-0.2-1.3-0.7h0l0,0.6h-0.6
		c0-0.3,0-0.7,0-1V58.9z M59.5,63c0,0.1,0,0.2,0,0.3c0.1,0.5,0.5,0.8,1.1,0.8c0.7,0,1.2-0.6,1.2-1.5c0-0.8-0.4-1.4-1.2-1.4
		c-0.5,0-0.9,0.3-1.1,0.9c0,0.1,0,0.2,0,0.3V63z"/>
	<path d="M63.8,62.7c0,1,0.6,1.3,1.3,1.3c0.5,0,0.8-0.1,1.1-0.2l0.1,0.5c-0.2,0.1-0.7,0.2-1.3,0.2c-1.2,0-1.9-0.8-1.9-2
		c0-1.2,0.7-2.1,1.8-2.1c1.3,0,1.6,1.1,1.6,1.8c0,0.1,0,0.2,0,0.3H63.8z M65.9,62.2c0-0.4-0.2-1.1-1-1.1c-0.7,0-1,0.6-1.1,1.1H65.9z
		"/>
	<path d="M73.7,61.8c0,1.8-1.1,2.8-2.5,2.8c-1.4,0-2.4-1.1-2.4-2.7c0-1.7,1.1-2.8,2.5-2.8C72.8,59.1,73.7,60.2,73.7,61.8z
		 M69.5,61.9c0,1.2,0.6,2.2,1.7,2.2c1.1,0,1.7-1,1.7-2.2c0-1.1-0.6-2.2-1.7-2.2S69.5,60.7,69.5,61.9z"/>
	<path d="M74.6,59.1h0.7v2.6h0c0.1-0.2,0.3-0.4,0.4-0.6l1.6-2h0.9l-2,2.3l2.1,3.1h-0.8l-1.8-2.6l-0.5,0.6v2.1h-0.7V59.1z"/>
	<path d="M78.9,64.1c0-0.3,0.2-0.5,0.5-0.5s0.5,0.2,0.5,0.5c0,0.3-0.2,0.5-0.5,0.5C79.1,64.6,78.9,64.4,78.9,64.1z"/>
	<path d="M-11.5,72.4l-0.6,1.7h-0.7l1.8-5.4h0.8l1.8,5.4H-9l-0.6-1.7H-11.5z M-9.7,71.9l-0.5-1.6c-0.1-0.4-0.2-0.7-0.3-1h0
		c-0.1,0.3-0.2,0.6-0.3,1l-0.5,1.6H-9.7z"/>
	<path d="M-7.5,71.5c0-0.5,0-0.8,0-1.2H-7l0,0.8h0c0.2-0.5,0.6-0.8,1.1-0.8c0.1,0,0.1,0,0.2,0v0.7c-0.1,0-0.1,0-0.2,0
		c-0.5,0-0.8,0.4-0.9,0.9c0,0.1,0,0.2,0,0.3v2.1h-0.7V71.5z"/>
	<path d="M-4.1,69.2c0,0.2-0.2,0.4-0.4,0.4c-0.3,0-0.4-0.2-0.4-0.4c0-0.2,0.2-0.4,0.4-0.4C-4.3,68.7-4.1,68.9-4.1,69.2z M-4.9,74.1
		v-3.9h0.7v3.9H-4.9z"/>
	<path d="M-0.3,73.2c0,0.3,0,0.7,0.1,0.9h-0.6l-0.1-0.5h0c-0.2,0.3-0.6,0.6-1.2,0.6c-0.8,0-1.2-0.6-1.2-1.1c0-0.9,0.8-1.4,2.3-1.4
		v-0.1c0-0.3-0.1-0.9-0.9-0.9c-0.4,0-0.7,0.1-1,0.3L-3,70.5c0.3-0.2,0.8-0.3,1.3-0.3c1.2,0,1.5,0.8,1.5,1.6V73.2z M-1,72.2
		c-0.8,0-1.6,0.1-1.6,0.9c0,0.5,0.3,0.7,0.7,0.7c0.5,0,0.8-0.3,1-0.6c0-0.1,0-0.2,0-0.2V72.2z"/>
	<path d="M0.8,68.5h0.7v5.7H0.8V68.5z"/>
	<path d="M5.2,69.2c0,0.2-0.2,0.4-0.4,0.4c-0.3,0-0.4-0.2-0.4-0.4c0-0.2,0.2-0.4,0.4-0.4C5,68.7,5.2,68.9,5.2,69.2z M4.4,74.1v-3.9
		h0.7v3.9H4.4z"/>
	<path d="M6.2,73.4c0.2,0.1,0.6,0.3,0.9,0.3c0.5,0,0.7-0.2,0.7-0.6c0-0.3-0.2-0.5-0.7-0.7c-0.7-0.3-1-0.6-1-1.1
		c0-0.6,0.5-1.1,1.3-1.1c0.4,0,0.7,0.1,0.9,0.2l-0.2,0.5c-0.2-0.1-0.4-0.2-0.8-0.2c-0.4,0-0.6,0.2-0.6,0.5c0,0.3,0.2,0.5,0.7,0.7
		c0.7,0.2,1,0.6,1,1.2c0,0.7-0.5,1.2-1.4,1.2c-0.4,0-0.8-0.1-1.1-0.3L6.2,73.4z"/>
	<path d="M9.5,71.3c0-0.4,0-0.7,0-1h0.6l0,0.6h0c0.2-0.4,0.6-0.7,1.3-0.7c0.5,0,1.4,0.3,1.4,1.6v2.3h-0.7v-2.2
		c0-0.6-0.2-1.1-0.9-1.1c-0.5,0-0.8,0.3-0.9,0.7c0,0.1,0,0.2,0,0.3v2.3H9.5V71.3z"/>
	<path d="M15.6,68.6l-1,1.1h-0.5l0.7-1.1H15.6z"/>
	<path d="M17.2,69.3v0.9h1v0.5h-1v2.1c0,0.5,0.1,0.8,0.5,0.8c0.2,0,0.3,0,0.4,0l0,0.5c-0.1,0-0.4,0.1-0.6,0.1
		c-0.3,0-0.6-0.1-0.8-0.3c-0.2-0.2-0.3-0.6-0.3-1v-2.1h-0.6v-0.5h0.6v-0.7L17.2,69.3z"/>
	<path d="M24.1,72.2c0,1.4-1,2.1-1.9,2.1c-1,0-1.9-0.8-1.9-2c0-1.3,0.9-2,1.9-2C23.4,70.2,24.1,71,24.1,72.2z M21.1,72.2
		c0,0.8,0.5,1.5,1.2,1.5c0.7,0,1.2-0.6,1.2-1.5c0-0.7-0.3-1.5-1.2-1.5C21.4,70.7,21.1,71.5,21.1,72.2z"/>
	<path d="M25,71.5c0-0.5,0-0.8,0-1.2h0.6l0,0.8h0c0.2-0.5,0.6-0.8,1.1-0.8c0.1,0,0.1,0,0.2,0v0.7c-0.1,0-0.1,0-0.2,0
		c-0.5,0-0.8,0.4-0.9,0.9c0,0.1,0,0.2,0,0.3v2.1H25V71.5z"/>
	<path d="M28.5,69.2c0,0.2-0.2,0.4-0.4,0.4c-0.3,0-0.4-0.2-0.4-0.4c0-0.2,0.2-0.4,0.4-0.4C28.3,68.7,28.5,68.9,28.5,69.2z
		 M27.7,74.1v-3.9h0.7v3.9H27.7z"/>
	<path d="M32.9,73.6c0,0.9-0.2,1.4-0.6,1.8c-0.4,0.3-0.9,0.5-1.4,0.5c-0.5,0-1-0.1-1.3-0.3l0.2-0.5c0.3,0.2,0.7,0.3,1.1,0.3
		c0.7,0,1.2-0.4,1.2-1.4v-0.4h0c-0.2,0.4-0.6,0.6-1.2,0.6c-1,0-1.6-0.8-1.6-1.9c0-1.3,0.9-2,1.8-2c0.7,0,1,0.3,1.2,0.7h0l0-0.6h0.6
		c0,0.3,0,0.6,0,1.1V73.6z M32.2,71.8c0-0.1,0-0.2,0-0.3c-0.1-0.4-0.5-0.8-1-0.8c-0.7,0-1.2,0.6-1.2,1.5c0,0.8,0.4,1.4,1.1,1.4
		c0.4,0,0.8-0.3,1-0.7c0-0.1,0.1-0.3,0.1-0.4V71.8z"/>
	<path d="M34.8,69.2c0,0.2-0.2,0.4-0.4,0.4c-0.3,0-0.4-0.2-0.4-0.4c0-0.2,0.2-0.4,0.4-0.4C34.6,68.7,34.8,68.9,34.8,69.2z M34,74.1
		v-3.9h0.7v3.9H34z"/>
	<path d="M35.9,71.3c0-0.4,0-0.7,0-1h0.6l0,0.6h0c0.2-0.4,0.6-0.7,1.3-0.7c0.5,0,1.4,0.3,1.4,1.6v2.3h-0.7v-2.2
		c0-0.6-0.2-1.1-0.9-1.1c-0.5,0-0.8,0.3-0.9,0.7c0,0.1,0,0.2,0,0.3v2.3h-0.7V71.3z"/>
	<path d="M43,73.2c0,0.3,0,0.7,0.1,0.9h-0.6l-0.1-0.5h0c-0.2,0.3-0.6,0.6-1.2,0.6c-0.8,0-1.2-0.6-1.2-1.1c0-0.9,0.8-1.4,2.3-1.4
		v-0.1c0-0.3-0.1-0.9-0.9-0.9c-0.4,0-0.7,0.1-1,0.3l-0.2-0.5c0.3-0.2,0.8-0.3,1.3-0.3c1.2,0,1.5,0.8,1.5,1.6V73.2z M42.3,72.2
		c-0.8,0-1.6,0.1-1.6,0.9c0,0.5,0.3,0.7,0.7,0.7c0.5,0,0.8-0.3,1-0.6c0-0.1,0-0.2,0-0.2V72.2z"/>
	<path d="M44.2,68.5h0.7v5.7h-0.7V68.5z"/>
	<path d="M47.8,74.1v-3.3h-0.5v-0.5h0.5v-0.2c0-0.5,0.1-1,0.4-1.4c0.3-0.3,0.6-0.4,0.9-0.4c0.3,0,0.5,0.1,0.6,0.1L49.7,69
		c-0.1,0-0.2-0.1-0.4-0.1c-0.6,0-0.8,0.5-0.8,1.1v0.2h0.9v0.5h-0.9v3.3H47.8z"/>
	<path d="M53.5,72.2c0,1.4-1,2.1-1.9,2.1c-1,0-1.9-0.8-1.9-2c0-1.3,0.9-2,1.9-2C52.7,70.2,53.5,71,53.5,72.2z M50.4,72.2
		c0,0.8,0.5,1.5,1.2,1.5c0.7,0,1.2-0.6,1.2-1.5c0-0.7-0.3-1.5-1.2-1.5C50.8,70.7,50.4,71.5,50.4,72.2z"/>
	<path d="M54.4,71.3c0-0.4,0-0.7,0-1H55l0,0.6h0c0.2-0.4,0.6-0.7,1.3-0.7c0.5,0,1.4,0.3,1.4,1.6v2.3h-0.7v-2.2
		c0-0.6-0.2-1.1-0.9-1.1c-0.5,0-0.8,0.3-0.9,0.7c0,0.1,0,0.2,0,0.3v2.3h-0.7V71.3z"/>
	<path d="M59.6,69.3v0.9h1v0.5h-1v2.1c0,0.5,0.1,0.8,0.5,0.8c0.2,0,0.3,0,0.4,0l0,0.5c-0.1,0-0.4,0.1-0.6,0.1
		c-0.3,0-0.6-0.1-0.8-0.3c-0.2-0.2-0.3-0.6-0.3-1v-2.1h-0.6v-0.5h0.6v-0.7L59.6,69.3z"/>
	<path d="M61.2,73.7c0-0.3,0.2-0.5,0.5-0.5s0.5,0.2,0.5,0.5c0,0.3-0.2,0.5-0.5,0.5C61.4,74.2,61.2,74,61.2,73.7z"/>
</g>
</svg>
