<?xml version="1.0" encoding="utf-8"?>
<!-- Generator: Adobe Illustrator 15.0.0, SVG Export Plug-In . SVG Version: 6.00 Build 0)  -->
<!DOCTYPE svg PUBLIC "-//W3C//DTD SVG 1.1//EN" "http://www.w3.org/Graphics/SVG/1.1/DTD/svg11.dtd">
<svg version="1.1"
	 id="svg14315" sodipodi:docname="AJAX1.svg" inkscape:version="0.48.2 r9819" xmlns:inkscape="http://www.inkscape.org/namespaces/inkscape" xmlns:sodipodi="http://sodipodi.sourceforge.net/DTD/sodipodi-0.dtd" xmlns:svg="http://www.w3.org/2000/svg" xmlns:dc="http://purl.org/dc/elements/1.1/" xmlns:cc="http://creativecommons.org/ns#" xmlns:rdf="http://www.w3.org/1999/02/22-rdf-syntax-ns#"
	 xmlns="http://www.w3.org/2000/svg" xmlns:xlink="http://www.w3.org/1999/xlink" x="0px" y="0px" width="101.536px" height="50px"
	 viewBox="131.369 64.69 101.536 50" style="enable-background:new 131.369 64.69 101.536 50;" xml:space="preserve">
<style type="text/css">
<![CDATA[
	.st0{fill:#AA0C31;}
	.st1{fill:#B3B5B7;}
	.st2{fill:url(#path5625_1_);}
	.st3{fill:#FFFFFF;}
]]>
</style>
<g id="layer1" transform="translate(-325.50437,-622.97642)" inkscape:label="Ebene 1" inkscape:groupmode="layer">
	<path id="path5601" inkscape:connector-curvature="0" class="st1" d="M553.743,708.663c1.27,0,1.65,0.403,1.571,1.13
		c-0.018,0.162-0.057,0.341-0.118,0.543l-1.365,4.833c-0.294,1.068-0.644,1.672-2.237,1.672h-2.054l2.11-7.407l-1.077-0.771H553.743
		z M554.768,706.045h-5.113l-3.817,13.418h5.477c3.853,0,4.759-1.694,5.249-3.468l1.681-5.923c0.07-0.241,0.118-0.503,0.145-0.745
		C558.568,707.634,557.67,706.045,554.768,706.045"/>
	<path id="path5607" inkscape:connector-curvature="0" class="st1" d="M542.711,714.022l-1.528,5.441h2.96l3.795-13.423h-2.959
		l-1.523,5.381h-4.295l1.523-5.381h-2.959l-3.796,13.423h2.959l1.301-4.614l-1.16-0.827H542.711"/>
	<g id="g5609" transform="matrix(15.706243,0,0,-15.706243,-377.24006,9335.4493)">
		<g id="g5611">
			<g id="g5617">
				
					<linearGradient id="path5625_1_" gradientUnits="userSpaceOnUse" x1="31.205" y1="529.2991" x2="31.4836" y2="529.2991" gradientTransform="matrix(-55.721 -113.8137 -113.8137 55.721 62035.1016 -25391.4961)">
					<stop  offset="0" style="stop-color:#2E4988"/>
					<stop  offset="1" style="stop-color:#0A0D0F"/>
				</linearGradient>
				<path id="path5625" inkscape:connector-curvature="0" class="st2" d="M53.35,549.425h2.216l-0.24-0.854h-2.219L53.35,549.425"/>
			</g>
		</g>
	</g>
	<g id="g5627" transform="matrix(15.706243,0,0,-15.706243,-377.24006,9335.4493)">
		<g id="g5629" transform="translate(53.564,550.516)">
			<path id="path5631" inkscape:connector-curvature="0" class="st3" d="M2.002-1.091h2.583L4.342-1.945h-2.58L2.002-1.091"/>
			<g id="g5633" transform="translate(-7.544,-0.545)">
				<path id="path5635" inkscape:connector-curvature="0" class="st3" d="M7.443-0.698h0.346l-0.03-0.107H7.534L7.504-0.91h0.207
					l-0.03-0.106H7.474L7.439-1.14h0.224l-0.03-0.107H7.288L7.443-0.698"/>
				<g id="g5637" transform="translate(1.195,-1.5)">
					<path id="path5639" inkscape:connector-curvature="0" class="st3" d="M6.581,0.384c0.001,0.009,0.003,0.019,0.006,0.028
						l0.11,0.39h0.121L6.712,0.429C6.709,0.419,6.708,0.411,6.707,0.403C6.704,0.37,6.719,0.352,6.777,0.352
						c0.066,0,0.093,0.026,0.106,0.072L6.99,0.802h0.121l-0.11-0.39C6.974,0.32,6.92,0.245,6.753,0.245
						C6.62,0.245,6.573,0.312,6.581,0.384"/>
					<g id="g5641" transform="translate(3.155,0.891)">
						<path id="path5643" inkscape:connector-curvature="0" class="st3" d="M4.306-0.259C4.308-0.249,4.31-0.24,4.311-0.236
							c0.003,0.028-0.013,0.04-0.055,0.04H4.155L4.108-0.362h0.104c0.054,0,0.07,0.02,0.082,0.062L4.306-0.259z M4.161-0.467H4.078
							L4.03-0.638H3.909l0.155,0.549h0.21c0.118,0,0.171-0.045,0.162-0.125C4.435-0.225,4.433-0.236,4.43-0.248L4.411-0.314
							C4.392-0.382,4.363-0.426,4.292-0.45l0.084-0.188H4.239L4.161-0.467"/>
						<g id="g5645" transform="translate(1.915,0.059)">
							<path id="path5647" inkscape:connector-curvature="0" class="st3" d="M2.924-0.301c0.004,0.034-0.016,0.054-0.075,0.054
								c-0.063,0-0.099-0.027-0.111-0.071l-0.06-0.21C2.677-0.534,2.675-0.54,2.675-0.546C2.671-0.579,2.691-0.598,2.75-0.598
								c0.063,0,0.098,0.024,0.111,0.071l0.06,0.21C2.922-0.312,2.924-0.306,2.924-0.301z M2.55-0.559
								c0.001,0.008,0.003,0.017,0.005,0.026l0.064,0.227C2.648-0.205,2.718-0.14,2.873-0.14c0.13,0,0.183-0.074,0.175-0.149
								C3.048-0.296,3.046-0.305,3.043-0.313L2.98-0.538C2.951-0.643,2.882-0.705,2.719-0.705C2.59-0.705,2.542-0.634,2.55-0.559"/>
							<g id="g5649" transform="translate(1.044,-1.32)">
								<path id="path5651" inkscape:connector-curvature="0" class="st0" d="M2.171,0.651l0.036,0.093
									c0.051-0.016,0.094-0.027,0.147-0.027c0.064,0,0.08,0.012,0.094,0.06c0.004,0.011,0.006,0.021,0.006,0.029
									c0.003,0.025-0.013,0.031-0.078,0.049C2.287,0.878,2.257,0.91,2.264,0.974C2.266,0.992,2.27,1.011,2.277,1.034
									C2.314,1.156,2.349,1.18,2.499,1.18c0.042,0,0.11-0.009,0.158-0.021L2.624,1.058C2.577,1.069,2.515,1.076,2.478,1.076
									c-0.059,0-0.072-0.008-0.084-0.052c-0.003-0.012-0.006-0.022-0.007-0.03C2.384,0.968,2.4,0.964,2.463,0.948
									c0.1-0.025,0.124-0.057,0.118-0.113C2.579,0.818,2.575,0.799,2.568,0.776C2.536,0.663,2.492,0.615,2.336,0.615
									C2.29,0.615,2.212,0.63,2.171,0.651"/>
								<g id="g5653" transform="translate(3.013,1.252)">
									<path id="path5655" inkscape:connector-curvature="0" class="st0" d="M-0.002-0.252c0.003,0.01,0.004,0.018,0.005,0.024
										C0.006-0.2-0.009-0.187-0.046-0.187h-0.102l-0.048-0.17h0.1c0.056,0,0.071,0.02,0.082,0.061L-0.002-0.252z M-0.226-0.462
										l-0.048-0.167h-0.121L-0.24-0.08h0.21c0.118,0,0.17-0.045,0.161-0.123C0.13-0.215,0.126-0.232,0.122-0.245L0.104-0.307
										C0.075-0.41,0.028-0.462-0.117-0.462H-0.226"/>
									<g id="g5657" transform="translate(1.83,0.068)">
										<path id="path5659" inkscape:connector-curvature="0" class="st0" d="M-1.322-0.301c0.004,0.034-0.016,0.054-0.075,0.054
											c-0.063,0-0.099-0.027-0.111-0.071l-0.06-0.21C-1.57-0.534-1.571-0.54-1.571-0.546c-0.004-0.033,0.016-0.052,0.075-0.052
											c0.063,0,0.098,0.024,0.112,0.071l0.06,0.21C-1.324-0.312-1.322-0.306-1.322-0.301z M-1.696-0.559
											c0.001,0.008,0.002,0.017,0.005,0.026l0.064,0.227C-1.598-0.205-1.528-0.14-1.373-0.14c0.13,0,0.183-0.074,0.175-0.149
											C-1.198-0.296-1.2-0.305-1.203-0.313l-0.064-0.224c-0.03-0.105-0.098-0.168-0.261-0.168
											C-1.656-0.705-1.704-0.634-1.696-0.559"/>
										<g id="g5661" transform="translate(1.802,-0.059)">
											<path id="path5663" inkscape:connector-curvature="0" class="st0" d="M-2.621-0.259c0.003,0.009,0.004,0.019,0.005,0.023
												c0.003,0.028-0.013,0.04-0.055,0.04h-0.101l-0.047-0.166h0.104c0.054,0,0.07,0.02,0.082,0.062L-2.621-0.259z
												 M-2.766-0.467h-0.083l-0.048-0.171h-0.121l0.155,0.549h0.21c0.118,0,0.171-0.045,0.162-0.125
												c-0.001-0.011-0.004-0.021-0.007-0.034l-0.019-0.066C-2.535-0.382-2.564-0.426-2.635-0.45l0.084-0.188h-0.136
												L-2.766-0.467"/>
											<g id="g5665" transform="translate(1.179,-1.362)">
												<path id="path5667" inkscape:connector-curvature="0" class="st0" d="M-3.472,0.724h-0.122l0.125,0.442h-0.148
													l0.03,0.107h0.419l-0.03-0.107h-0.149L-3.472,0.724"/>
												<g id="g5669" transform="translate(-10.307,3.109)">
													<path id="path5671" inkscape:connector-curvature="0" class="st1" d="M3.962-1.519L3.82-1.417L3.597-1.518l0.139,0.163
														L3.597-1.257H3.82L3.962-1.09v-0.167h0.205L3.962-1.351V-1.519"/>
													<g id="g5673" transform="translate(2.378,1.413)">
														<path id="path5675" inkscape:connector-curvature="0" class="st1" d="M2.247-2.538L2.104-2.436L1.881-2.538
															L2.02-2.375L1.881-2.276h0.223l0.143,0.168v-0.168h0.205L2.247-2.37V-2.538"/>
														<g id="g5677" transform="translate(2.642,0.653)">
															<path id="path5679" inkscape:connector-curvature="0" class="st1" d="M0.342-3.009L0.199-2.907l-0.223-0.102
																l0.139,0.163l-0.139,0.099h0.223L0.342-2.58v-0.167h0.205L0.342-2.841V-3.009"/>
															<g id="g5681" transform="translate(2.414,-0.654)">
																<path id="path5683" inkscape:connector-curvature="0" class="st1" d="M-1.4-2.537l-0.143,0.102l-0.223-0.102
																	l0.139,0.163l-0.139,0.099h0.223L-1.4-2.108v-0.168h0.205L-1.4-2.37V-2.537"/>
																<g id="g5685" transform="translate(1.655,-1.412)">
																	<path id="path5687" inkscape:connector-curvature="0" class="st1" d="M-2.593-1.519l-0.143,0.102l-0.223-0.102
																		l0.139,0.163l-0.139,0.099h0.223l0.143,0.168v-0.168h0.205l-0.205-0.094V-1.519"/>
																	<g id="g5689" transform="translate(-2.168,-5.75)">
																		<path id="path5691" inkscape:connector-curvature="0" class="st1" d="M-1.03,2.629l-0.143,0.102l-0.223-0.102
																			l0.139,0.163L-1.395,2.89h0.223l0.143,0.168V2.89h0.205L-1.03,2.796V2.629"/>
																		<g id="g5693" transform="translate(-5.055,-2.066)">
																			<path id="path5695" inkscape:connector-curvature="0" class="st1" d="M2.616,4.119L2.474,4.221L2.251,4.119
																				l0.139,0.163L2.251,4.38h0.223l0.143,0.167V4.38h0.205L2.616,4.286V4.119"/>
																			<g id="g5697" transform="translate(-4.065,2.064)">
																				<path id="path5699" inkscape:connector-curvature="0" class="st1" d="M5.548,2.63L5.406,2.732L5.183,2.63
																					l0.139,0.163L5.183,2.892h0.223l0.143,0.168V2.892h0.205L5.548,2.798V2.63"/>
																				<g id="g5701" transform="translate(6.71,-1.516)">
																					<path id="path5703" inkscape:connector-curvature="0" class="st1" d="M0.709,3.723L0.566,3.826L0.343,3.724
																						l0.139,0.163L0.343,3.985h0.223l0.143,0.168V3.985h0.205L0.709,3.891V3.723"/>
																					<g id="g5705" transform="translate(-5.083,0)">
																						<path id="path5707" inkscape:connector-curvature="0" class="st1" d="M4.375,3.723L4.232,3.826L4.009,3.724
																							l0.139,0.163L4.009,3.985h0.223l0.143,0.168V3.985H4.58L4.375,3.891V3.723"/>
																					</g>
																				</g>
																			</g>
																		</g>
																	</g>
																</g>
															</g>
														</g>
													</g>
												</g>
											</g>
										</g>
									</g>
								</g>
							</g>
						</g>
					</g>
				</g>
			</g>
		</g>
	</g>
</g>
</svg>
