<?xml version="1.0" encoding="utf-8"?>
<!-- Generator: Adobe Illustrator 15.0.0, SVG Export Plug-In . SVG Version: 6.00 Build 0)  -->
<!DOCTYPE svg PUBLIC "-//W3C//DTD SVG 1.1//EN" "http://www.w3.org/Graphics/SVG/1.1/DTD/svg11.dtd">
<svg version="1.1" id="Layer_1" xmlns="http://www.w3.org/2000/svg" xmlns:xlink="http://www.w3.org/1999/xlink" x="0px" y="0px"
	 width="44.7px" height="28px" viewBox="552.2 404.6 44.7 28" style="enable-background:new 552.2 404.6 44.7 28;"
	 xml:space="preserve">
<style type="text/css">
<![CDATA[
	.st0{fill:#E08816;}
	.st1{fill:#B0491E;}
	.st2{fill:#0E0C0D;}
]]>
</style>
<g>
	<g>
		<path class="st2" d="M557.7,416h3.3v6.9h4.6v-17.8H561v6.6h-3.3v-6.6H553v17.7h4.7"/>
		<path class="st2" d="M573.8,411.9h-2.4v-2.8h2.5c0.6,0,1.1,0.7,1.1,1.4C575,411.2,574.5,411.9,573.8,411.9 M573.9,418.7h-2.5V416
			h2.3c0.7,0,1.3,0.6,1.3,1.4C575,418,574.6,418.7,573.9,418.7 M576.8,413.9c1.7-0.4,2.9-1.9,2.9-3.6c0-3.1-1.8-5.2-4.7-5.2h-8.3
			v17.7h8.2h0.1c3,0,4.8-2.1,4.8-5.2C579.8,415.8,578.5,414.3,576.8,413.9"/>
		<path class="st2" d="M587.6,418.4c-2.5,0-4.5-2-4.5-4.5s2-4.5,4.5-4.5s4.5,2,4.5,4.5S590.1,418.4,587.6,418.4 M587.6,404.6
			c-5.1,0-9.2,4.1-9.2,9.2s4.1,9.2,9.2,9.2s9.2-4.1,9.2-9.2S592.7,404.6,587.6,404.6"/>
		<path class="st2" d="M587.6,410.3c-1.9,0-3.5,1.6-3.5,3.5s1.6,3.5,3.5,3.5c1.9,0,3.5-1.6,3.5-3.5
			C591.2,411.8,589.6,410.3,587.6,410.3"/>
	</g>
	<g>
		<path class="st0" d="M558.4,426.9c-0.9-0.5-1.6-0.7-2.4-0.7c-1.6,0-2.8,1.1-2.8,2.6c0,1.6,1.1,2.6,2.8,2.6c0.8,0,1.6-0.3,2.4-0.8
			v1.1c-0.7,0.4-1.4,0.6-2.5,0.6c-2.6,0-3.7-2-3.7-3.4c0-2.1,1.6-3.7,3.8-3.7c0.7,0,1.4,0.2,2.4,0.6"/>
		<path class="st0" d="M563.1,431.5c1.6,0,2.7-1.1,2.7-2.6c0-1.5-1.1-2.6-2.7-2.6c-1.5,0-2.7,1.1-2.7,2.6
			C560.4,430.3,561.6,431.5,563.1,431.5 M563.1,425.3c2.3,0,3.7,1.6,3.7,3.6c0,1.9-1.4,3.6-3.7,3.6c-2.3,0-3.7-1.7-3.7-3.6
			C559.4,426.9,560.9,425.3,563.1,425.3"/>
		<path class="st0" d="M574.3,432.3h-1v-5.4l-2.1,2.7H571l-2.1-2.7v5.4h-1v-6.9h0.9l2.3,2.8l2.3-2.8h0.9"/>
	</g>
	<path class="st1" d="M578.4,425.6l-2.1,2.1l1.5,1.5l2-2l0.6,0.6l-2,2l1.5,1.5l2.2-2.1l0.6,0.6l-2.9,2.8l-4.8-4.9l2.8-2.7"/>
	<g>
		<path class="st0" d="M584.2,431.4h1.6c2.3,0,2.8-1.7,2.8-2.6c0-1.4-0.9-2.6-2.8-2.6h-1.5v5.2H584.2z M583.2,425.4h2.7
			c2.6,0,3.7,1.8,3.7,3.5c0,1.8-1.4,3.5-3.7,3.5h-2.7"/>
		<path class="st0" d="M594.4,425.4h1.2l-2.6,3.3v3.7h-1v-3.7l-2.6-3.3h1.2l1.9,2.4"/>
	</g>
</g>
</svg>
