<?xml version="1.0" encoding="utf-8"?>
<!-- Generator: Adobe Illustrator 15.0.0, SVG Export Plug-In . SVG Version: 6.00 Build 0)  -->
<!DOCTYPE svg PUBLIC "-//W3C//DTD SVG 1.1//EN" "http://www.w3.org/Graphics/SVG/1.1/DTD/svg11.dtd">
<svg version="1.1" id="Layer_1" xmlns="http://www.w3.org/2000/svg" xmlns:xlink="http://www.w3.org/1999/xlink" x="0px" y="0px"
	 width="175.9px" height="50px" viewBox="0 0 175.9 50" style="enable-background:new 0 0 175.9 50;" xml:space="preserve">
<style type="text/css">
<![CDATA[
	.st0{fill:#14DC14;}
	.st1{fill-rule:evenodd;clip-rule:evenodd;fill:#14DC14;}
]]>
</style>
<g>
	<g>
		<path class="st1" d="M5.1,1.9c3,0,6,0,9.1,0c-3.3,0.8-3.1,9,0.9,8.8c0.1-0.8,0-1.9,0-2.8c-0.4-0.2-0.7-0.3-1-0.7
			c-0.6-0.9,0-3.1,1.3-2.4C16,5.2,16,6.5,16.1,7.4c0.2,1.4,0.5,2.8,1.6,3.4c1.1,0.6,2.9,0.4,3.7-0.6c0,0.5,0,0.9,0,1.4
			c-3.3,0.3-7.8-0.8-9.1,1.4c-0.9,1.6-0.2,4.1,1.2,4.7c-1,0.5-1.7,1.5-1.6,3c0.1,1.2,0.9,1.9,1.5,2.4c-0.4,0-0.8,0-1.2,0
			c0,1,0,2,0,2.9c3,0,6.3,0,9.2,0c0,0.3,0,0.6,0,0.8c-3.1,0-6.1,0-9.2,0c-0.2,0.7-0.2,1.5-0.3,2.2c3.1,0.1,6.3,0,9.5,0
			c0,1.1,0,2.2,0,3.3c-2.9-0.3-7.8,1.2-6.8-2.8c-0.9-0.1-1.9,0-2.9,0c-0.5,1.4,0.2,2.6,1.4,2.8c-0.4,0.2-1.2-0.1-1.7,0.1
			c-0.2,0.8-0.2,1.7-0.4,2.5c3.4,0.1,7,0,10.4,0c0,2.3,0,4.6,0,6.9c-1.2,0-2.8,0-4.2,0c0.3-2.3,0.3-4.7-1.2-5.7
			c-0.9-0.6-2.3-0.7-3.4-0.6c-1.6,0.1-3,0.9-3.7,2c-0.6,1-0.7,2.4-0.9,3.6c-0.2,1.3-0.4,2.7-0.6,3.9c4.6,0.1,9.4,0,14.1,0
			c0,1,0,1.9,0,2.9c-7,0-14.3,0-21.4,0c0-0.4,0-0.8,0-1.3c1.5-5.6,3-11.7,4.5-17.5c0.2-0.9,0.6-1.7,0.7-2.5c0.1-1,0-2.1,0-3.1
			C5.1,16.4,5.1,9.2,5.1,1.9z M9,26.9c-0.2,0.7-0.3,1.5-0.4,2.2c0.8,0,1.6,0,2.5,0c0.1-0.7,0.2-1.5,0.3-2.2
			C10.6,26.9,9.8,26.9,9,26.9z"/>
		<path class="st1" d="M18.6,7.9c1.6,0.6,1.9-1.8,1.1-2.6c-0.6-0.6-1.2-0.4-2.4-0.5C17.9,5.8,17.6,7.6,18.6,7.9z"/>
		<path class="st1" d="M14.7,15.1c-0.3,0.4-0.3,1.3,0.1,1.7c0.3,0.3,0.9,0.4,1.4,0.5c1.6,0.1,3.6-0.1,5.2,0c0-0.9,0-1.8,0-2.7
			C19.7,14.9,15.6,13.9,14.7,15.1z"/>
		<path class="st1" d="M16.2,20.3c-0.6,0-1.2,0.1-1.5,0.5c-0.3,0.3-0.3,1.2,0,1.6c1,1.3,4.7,0.3,6.7,0.6c0-0.9,0-1.8,0-2.7
			C20.4,20.3,17.9,20.3,16.2,20.3z"/>
		<path class="st1" d="M14.3,38.9c-0.6-0.9-2.5-0.5-3,0.2C10.8,40,11.1,41,10.8,42c1.2,0,2.4,0,3.6,0C14.4,40.9,14.9,39.6,14.3,38.9
			z"/>
		<path class="st1" d="M17.4,4.8c1.1,0.1,1.7-0.1,2.4,0.5c0.8,0.8,0.6,3.2-1.1,2.6C17.6,7.6,17.9,5.8,17.4,4.8z"/>
		<path class="st1" d="M21.4,14.5c0,0.9,0,1.8,0,2.7c-1.6-0.1-3.6,0.1-5.2,0c-0.5,0-1.2-0.2-1.4-0.5c-0.4-0.4-0.4-1.3-0.1-1.7
			C15.6,13.9,19.7,14.9,21.4,14.5z"/>
		<path class="st1" d="M21.4,20.3c0,0.9,0,1.8,0,2.7c-1.9-0.4-5.7,0.7-6.7-0.6c-0.3-0.4-0.3-1.3,0-1.6c0.3-0.3,1-0.5,1.5-0.5
			C17.9,20.3,20.4,20.3,21.4,20.3z"/>
		<path class="st1" d="M14.4,42c-1.2,0-2.4,0-3.6,0c0.3-0.9,0-2,0.5-2.8c0.5-0.7,2.4-1.1,3-0.2C14.9,39.6,14.4,40.9,14.4,42z"/>
	</g>
	<g>
		<path class="st0" d="M59.2,43.8c-2.3,3.6-5.7,6.2-12.1,6.2h-3.8c-8.7,0-14.2-5.6-14.2-13.6V13.6c0-8,5.5-13.6,14.2-13.6h3.8
			c6.4,0,9.8,2.6,12.1,6.2c0.7,1.2,1.5,2.4,1.5,2.8c0,0.2-0.2,0.4-0.5,0.5L54,12.8c-0.3,0.2-0.6,0.4-0.9,0.4c-0.2,0-0.5-0.2-0.6-0.5
			c-1.4-3.3-3.4-4.5-5.4-4.5h-3.8c-3,0-5.5,2.5-5.5,5.5v22.8c0,3,2.5,5.5,5.5,5.5h3.8c2.1,0,4.1-1.2,5.4-4.5
			c0.2-0.4,0.4-0.5,0.6-0.5c0.3,0,0.6,0.2,0.9,0.4l6.1,3.2c0.3,0.2,0.5,0.3,0.5,0.5C60.6,41.4,59.9,42.6,59.2,43.8z"/>
		<path class="st0" d="M175.2,49.2h-27c-0.5,0-0.8-0.2-0.8-0.8V1.5c0-0.5,0.2-0.8,0.8-0.8h7.3c0.5,0,0.8,0.2,0.8,0.8v38.8
			c0,0.5,0.2,0.8,0.8,0.8h18.2c0.5,0,0.8,0.2,0.8,0.8v6.5C175.9,49,175.7,49.2,175.2,49.2z"/>
		<g>
			<path class="st0" d="M78.2,41.5c-2-0.9-3.4-2.8-3.4-5.1V13.6c0-2.2,1.4-4.2,3.4-5.1V0.1C70.8,1,66.1,6.3,66.1,13.6v22.8
				c0,7.3,4.6,12.6,12.1,13.5V41.5z"/>
			<path class="st0" d="M86.3,0.1v8.4c2,0.8,3.3,2.8,3.3,5.1v22.8c0,2.3-1.3,4.3-3.3,5.1v8.4c7.4-0.9,12.1-6.2,12.1-13.5V13.6
				C98.4,6.3,93.7,1,86.3,0.1z"/>
		</g>
		<g>
			<path class="st0" d="M118.6,41.5c-2-0.9-3.4-2.8-3.4-5.1V13.6c0-2.2,1.4-4.2,3.4-5.1V0.1c-7.5,0.8-12.1,6.2-12.1,13.5v22.8
				c0,7.3,4.6,12.6,12.1,13.5V41.5z"/>
			<path class="st0" d="M126.6,0.1v8.4c2,0.8,3.3,2.8,3.3,5.1v22.8c0,2.3-1.3,4.3-3.3,5.1v8.4c7.4-0.9,12.1-6.2,12.1-13.5V13.6
				C138.7,6.3,134.1,1,126.6,0.1z"/>
		</g>
		<g>
			<path class="st0" d="M164,1.8h-1c-0.1,0-0.1,0-0.1,0.1v4.5c0,0.1,0,0.1-0.1,0.1H162c-0.1,0-0.1,0-0.1-0.1V1.9
				c0-0.1,0-0.1-0.1-0.1h-1c-0.1,0-0.1,0-0.1-0.1V1c0-0.1,0-0.1,0.1-0.1h3.1c0.1,0,0.1,0,0.1,0.1L164,1.8
				C164.1,1.8,164.1,1.8,164,1.8z"/>
			<path class="st0" d="M168.4,1.1l-1.6,5.4c0,0,0,0.1-0.1,0.1h-0.6c0,0-0.1,0-0.1-0.1l-1.6-5.4c0-0.1,0-0.1,0-0.2s0-0.1,0.1-0.1
				h0.9c0,0,0.1,0,0.1,0.1l0.9,3.2c0,0.1,0.1,0.3,0.1,0.4h0c0-0.1,0.1-0.3,0.1-0.4l0.9-3.3c0,0,0-0.1,0.1-0.1h0.9
				c0.1,0,0.1,0,0.1,0.1C168.4,1,168.4,1.1,168.4,1.1z"/>
		</g>
	</g>
</g>
</svg>
