<?xml version="1.0" encoding="UTF-8" standalone="no"?>
<!-- Created with Inkscape (http://www.inkscape.org/) -->

<svg
   xmlns:dc="http://purl.org/dc/elements/1.1/"
   xmlns:cc="http://creativecommons.org/ns#"
   xmlns:rdf="http://www.w3.org/1999/02/22-rdf-syntax-ns#"
   xmlns:svg="http://www.w3.org/2000/svg"
   xmlns="http://www.w3.org/2000/svg"
   xmlns:sodipodi="http://sodipodi.sourceforge.net/DTD/sodipodi-0.dtd"
   xmlns:inkscape="http://www.inkscape.org/namespaces/inkscape"
   width="122.96112"
   height="200"
   id="svg2934"
   version="1.1"
   inkscape:version="0.48.1 "
   sodipodi:docname="ProSieben HD onAir.svg">
  <defs
     id="defs2936">
    <inkscape:perspective
       sodipodi:type="inkscape:persp3d"
       inkscape:vp_x="0 : 526.18109 : 1"
       inkscape:vp_y="0 : 1000 : 0"
       inkscape:vp_z="744.09448 : 526.18109 : 1"
       inkscape:persp3d-origin="372.04724 : 350.78739 : 1"
       id="perspective2942" />
    <inkscape:perspective
       id="perspective2924"
       inkscape:persp3d-origin="0.5 : 0.33333333 : 1"
       inkscape:vp_z="1 : 0.5 : 1"
       inkscape:vp_y="0 : 1000 : 0"
       inkscape:vp_x="0 : 0.5 : 1"
       sodipodi:type="inkscape:persp3d" />
  </defs>
  <sodipodi:namedview
     id="base"
     pagecolor="#ffffff"
     bordercolor="#666666"
     borderopacity="1.0"
     inkscape:pageopacity="0.0"
     inkscape:pageshadow="2"
     inkscape:zoom="1.3900985"
     inkscape:cx="-61.359007"
     inkscape:cy="79.528005"
     inkscape:document-units="px"
     inkscape:current-layer="g2909"
     showgrid="false"
     inkscape:window-width="1618"
     inkscape:window-height="1028"
     inkscape:window-x="-8"
     inkscape:window-y="-8"
     inkscape:window-maximized="1"
     fit-margin-top="0"
     fit-margin-left="0"
     fit-margin-right="0"
     fit-margin-bottom="0" />
  <metadata
     id="metadata2939">
    <rdf:RDF>
      <cc:Work
         rdf:about="">
        <dc:format>image/svg+xml</dc:format>
        <dc:type
           rdf:resource="http://purl.org/dc/dcmitype/StillImage" />
        <dc:title />
      </cc:Work>
    </rdf:RDF>
  </metadata>
  <g
     inkscape:label="Ebene 1"
     inkscape:groupmode="layer"
     id="layer1"
     transform="translate(-5.8755411,-475.73683)">
    <g
       transform="matrix(0.92389673,0,0,0.92389673,-368.84295,-93.642648)"
       id="g2909">
      <path
         sodipodi:nodetypes="cccccccccccccccccccccccccccccccsscccccssssccccccc"
         id="path2885"
         d="m 405.58526,803.31874 0,-29.22211 14.91559,0.068 0,10.84135 0,11.13342 15.64243,0 15.64241,0 0,-11.03661 0,-10.93816 c 4.75471,0.0984 9.60412,0 14.33944,0 0.52163,0 0.57543,2.18796 0.57543,28.90383 l 0,29.47242 -7.45744,0 -7.45743,0 0,-12.77922 0,-12.77927 -15.64241,0 -15.64243,0 0,12.77927 0,12.77922 -7.45743,0 -7.45744,0 0,-29.22211 0,0 -3.5e-4,0 -3.7e-4,0 z m 72.02789,10.6608 0,-18.61466 7.27554,0 7.27554,0 0,13.16649 0,13.1665 11.00426,-0.006 c 19.87099,-0.0119 20.42256,-0.50319 20.43717,-18.19403 0.0113,-13.63704 -1.22265,-16.54641 -7.6401,-18.01427 -2.04123,-0.46689 -5.92616,-0.57529 -20.43639,-0.57025 l -17.91602,0.006 0,-5.44602 0,-5.44602 21.73569,0.14865 c 24.03259,0.16436 24.12721,-0.34896 29.30553,2.20584 4.84282,2.38929 7.81554,7.26622 9.1658,13.94935 0.82446,4.08075 1.14052,16.67134 0.55134,21.96373 -1.32273,11.88122 -4.5526,17.16408 -13.63493,19.74149 -2.55339,0.72458 -4.3415,0.57523 -25.02397,0.7185 l -22.09946,-0.16021 0,-18.61462 0,10e-6 0,-1.5e-4 z"
         style="fill:#f0001e;fill-opacity:1"
         inkscape:connector-curvature="0" />
      <g
         transform="matrix(0.35364523,0,0,0.35364523,298.04071,583.44812)"
         id="g2904"
         style="fill:#f0001e;fill-opacity:1">
        <path
           style="fill:#f0001e;fill-opacity:1;fill-rule:nonzero;stroke:none"
           id="path2836"
           d="m 304.10269,198.61994 376.33448,0 0,-105.780263 -376.33448,0 0,105.780263 z"
           inkscape:connector-curvature="0" />
        <g
           id="g2838"
           transform="matrix(5.5486919,0,0,-5.5486919,680.43617,218.96144)"
           style="fill:#f0001e;fill-opacity:1">
          <path
             style="fill:#f0001e;fill-opacity:1;fill-rule:evenodd;stroke:none"
             id="path2840"
             d="m 0,0 0,-46.56 -67.824,0 c 0,0 8.31,22.608 30.185,36.051 C -16.864,2.2 0,0 0,0"
             inkscape:connector-curvature="0" />
        </g>
      </g>
    </g>
  </g>
</svg>
