<?xml version="1.0" encoding="utf-8"?>
<!-- Generator: Adobe Illustrator 15.0.0, SVG Export Plug-In . SVG Version: 6.00 Build 0)  -->
<!DOCTYPE svg PUBLIC "-//W3C//DTD SVG 1.1//EN" "http://www.w3.org/Graphics/SVG/1.1/DTD/svg11.dtd">
<svg version="1.1"
	 id="svg113359" inkscape:version="0.48.4 r9939" sodipodi:docname="Neues Dokument 6" xmlns:svg="http://www.w3.org/2000/svg" xmlns:sodipodi="http://sodipodi.sourceforge.net/DTD/sodipodi-0.dtd" xmlns:inkscape="http://www.inkscape.org/namespaces/inkscape" xmlns:rdf="http://www.w3.org/1999/02/22-rdf-syntax-ns#" xmlns:dc="http://purl.org/dc/elements/1.1/" xmlns:cc="http://creativecommons.org/ns#"
	 xmlns="http://www.w3.org/2000/svg" xmlns:xlink="http://www.w3.org/1999/xlink" x="0px" y="0px" width="139.231px" height="50px"
	 viewBox="193.035 60.087 139.231 50" style="enable-background:new 193.035 60.087 139.231 50;" xml:space="preserve">
<style type="text/css">
<![CDATA[
	.st0{fill:#FFD200;}
	.st1{fill:#6D6D6C;}
]]>
</style>
<g>
	<g id="g3553" transform="matrix(14.552367,0,0,-14.552367,427.10116,348.88916)">
		<path id="path3555" inkscape:connector-curvature="0" class="st1" d="M-12.685,18.617c0.082-0.486,0.164-0.969,0.244-1.549h0.005
			c0.131,0.567,0.264,1.044,0.398,1.518h0.449c0.139-0.474,0.28-0.951,0.416-1.518h0.005c0.075,0.579,0.149,1.062,0.226,1.549
			l0.475-0.062l-0.428-2.137h-0.603c-0.118,0.403-0.239,0.805-0.354,1.301h-0.005c-0.105-0.496-0.213-0.898-0.321-1.301h-0.606
			l-0.449,2.137"/>
	</g>
	<path id="path3557" inkscape:connector-curvature="0" class="st1" d="M276.372,109.967h7.879V78.415h-7.879V109.967z"/>
	<g id="g3559" transform="matrix(14.552367,0,0,-14.552367,574.83679,350.35895)">
		<path id="path3561" inkscape:connector-curvature="0" class="st1" d="M-19.725,18.687h0.541v-1.762h0.657v-0.406h-1.198"/>
	</g>
	<g id="g3563" transform="matrix(14.552367,0,0,-14.552367,672.6287,350.35895)">
		<path id="path3565" inkscape:connector-curvature="0" class="st1" d="M-24.384,18.687c0.719,0,0.995-0.498,0.995-1.022
			c0-0.793-0.477-1.146-1.016-1.146h-0.677v2.168H-24.384z M-24.541,16.925h0.139c0.31,0,0.457,0.301,0.457,0.737
			c0,0.393-0.203,0.619-0.439,0.619h-0.157"/>
	</g>
	<g id="g3567" transform="matrix(14.552367,0,0,-14.552367,444.02556,339.954)">
		<path id="path3569" inkscape:connector-curvature="0" class="st1" d="M-13.491,18.191h-0.126c-0.165,0.239-0.33,0.477-0.492,0.746
			h-0.002v-0.746h-0.139v1.04h0.127c0.165-0.238,0.329-0.474,0.491-0.741h0.003v0.741h0.139"/>
	</g>
	<g id="g3571" transform="matrix(14.552367,0,0,-14.552367,470.96199,290.57782)">
		<path id="path3573" inkscape:connector-curvature="0" class="st1" d="M-14.775,15.839l0.324-1.04h-0.195l-0.08,0.284h-0.305
			l-0.089-0.284h-0.15l0.351,1.04H-14.775z M-14.752,15.21c-0.037,0.137-0.074,0.263-0.114,0.423h-0.002
			c-0.036-0.16-0.076-0.287-0.117-0.423"/>
	</g>
	<g id="g3575" transform="matrix(14.552367,0,0,-14.552367,494.91519,339.954)">
		<path id="path3577" inkscape:connector-curvature="0" class="st1" d="M-15.916,18.191v0.9h-0.266v0.139h0.705v-0.139h-0.266v-0.9"
			/>
	</g>
	<g id="g3579" transform="matrix(14.552367,0,0,-14.552367,567.89531,318.34374)">
		<path id="path3581" inkscape:connector-curvature="0" class="st1" d="M-19.394,17.162v-0.411
			c-0.088-0.036-0.181-0.061-0.276-0.061c-0.285,0-0.465,0.227-0.465,0.521c0,0.271,0.179,0.509,0.47,0.509
			c0.091,0,0.182-0.034,0.236-0.077l-0.053-0.118c-0.045,0.028-0.114,0.052-0.178,0.052c-0.177,0-0.298-0.144-0.298-0.37
			c0-0.236,0.139-0.375,0.282-0.375c0.045,0,0.081,0.006,0.117,0.024v0.306"/>
	</g>
	<g id="g3583" transform="matrix(14.552367,0,0,-14.552367,597.20378,299.03275)">
		<path id="path3585" inkscape:connector-curvature="0" class="st1" d="M-20.79,16.242h-0.277v-0.273h0.271v-0.134h-0.271v-0.321
			h0.327v-0.134h-0.494v0.995h0.443"/>
	</g>
	<g id="g3587" transform="matrix(14.552367,0,0,-14.552367,-1961.2479,5026.5875)">
		<g>
			<g id="g3589">
				<g id="g3595" transform="translate(176.205,323.723)">
					<path id="path3597" inkscape:connector-curvature="0" class="st1" d="M-21.064,17.034c0,0.279,0.174,0.501,0.411,0.501
						c0.237,0,0.411-0.222,0.411-0.501c0-0.297-0.158-0.529-0.411-0.529C-20.906,16.505-21.064,16.736-21.064,17.034
						 M-20.419,17.034c0,0.184-0.07,0.358-0.234,0.358c-0.165,0-0.235-0.175-0.235-0.358c0-0.19,0.061-0.387,0.235-0.387
						C-20.48,16.647-20.419,16.843-20.419,17.034"/>
				</g>
			</g>
		</g>
	</g>
	<g id="g3599" transform="matrix(14.552367,0,0,-14.552367,-1961.2479,5026.5875)">
		<g>
			<g id="g3601">
				<path id="path3607" inkscape:connector-curvature="0" class="st0" d="M148.037,341.264h2.383v-3.415h-2.383V341.264z
					 M150.075,340.92h-1.695v-2.727h1.695V340.92z"/>
			</g>
		</g>
	</g>
</g>
</svg>
