<?xml version="1.0" encoding="utf-8"?>
<!-- Generator: Adobe Illustrator 15.0.0, SVG Export Plug-In . SVG Version: 6.00 Build 0)  -->
<!DOCTYPE svg PUBLIC "-//W3C//DTD SVG 1.1//EN" "http://www.w3.org/Graphics/SVG/1.1/DTD/svg11.dtd">
<svg version="1.1"
	 id="svg2" inkscape:version="0.47 r22583" xmlns:dc="http://purl.org/dc/elements/1.1/" xmlns:cc="http://creativecommons.org/ns#" xmlns:rdf="http://www.w3.org/1999/02/22-rdf-syntax-ns#" xmlns:svg="http://www.w3.org/2000/svg" xmlns:sodipodi="http://sodipodi.sourceforge.net/DTD/sodipodi-0.dtd" xmlns:inkscape="http://www.inkscape.org/namespaces/inkscape"
	 xmlns="http://www.w3.org/2000/svg" xmlns:xlink="http://www.w3.org/1999/xlink" x="0px" y="0px" width="27.24px" height="28px"
	 viewBox="147.38 151.505 27.24 28" style="enable-background:new 147.38 151.505 27.24 28;" xml:space="preserve">
<style type="text/css">
<![CDATA[
	.st0{fill:#EC008C;}
]]>
</style>
<g id="layer1" transform="translate(-140.13698,-549.03124)" inkscape:label="Layer 1" inkscape:groupmode="layer">
	<path id="path21668" class="st0" d="M309.635,707.657l-6.573,4.819c0,0,1.174,3.718,1.235,3.913
		c-0.167-0.119-3.351-2.409-3.351-2.409s-3.16,2.281-3.333,2.405c0.069-0.201,1.325-3.905,1.325-3.905s-3.217-2.327-3.389-2.451
		c0.21,0,4.076-0.005,4.076-0.005s1.264-3.727,1.331-3.924c0.063,0.195,0.984,3.023,0.984,3.023c0.129,0.396,0.441,0.711,0.84,0.843
		c0.271,0.086,0.554,0.085,0.817,0c0.335-0.108,0.607-0.343,0.767-0.655c0.159-0.313,0.187-0.669,0.077-1.002l-2.23-6.862
		c-0.178-0.546-0.68-0.911-1.251-0.911h-0.002c-0.571,0-1.073,0.364-1.249,0.912c0,0-1.855,5.686-1.941,5.95
		c-0.051,0-6.261,0.001-6.261,0.001c-0.571,0.001-1.076,0.366-1.252,0.907c-0.042,0.137-0.064,0.271-0.064,0.408
		c0,0.413,0.196,0.81,0.542,1.064c0,0,4.838,3.521,5.063,3.686c-0.017,0.049-1.934,5.954-1.934,5.954
		c-0.045,0.134-0.066,0.272-0.066,0.407c0,0.413,0.195,0.809,0.543,1.063l0.363,0.188c0.404,0.13,0.846,0.059,1.184-0.187
		c0,0,4.844-3.512,5.069-3.675c0.042,0.031,5.068,3.68,5.068,3.68l0.36,0.186c0.403,0.133,0.847,0.063,1.188-0.186
		c0.348-0.252,0.542-0.646,0.542-1.06c0-0.136-0.021-0.275-0.064-0.409c0,0-1.845-5.692-1.93-5.957
		c0.042-0.029,5.064-3.68,5.064-3.68c0.353-0.256,0.541-0.658,0.541-1.066c0-0.268-0.081-0.541-0.25-0.774
		C311.047,707.362,310.222,707.23,309.635,707.657"/>
	<path id="path21672" class="st0" d="M314.349,725.586c-0.223,0-0.348,0.143-0.396,0.304l-0.574,1.768h-0.024l-0.576-1.737
		c-0.042-0.143-0.129-0.334-0.377-0.334c-0.29,0-0.451,0.173-0.451,0.396c0,0.073,0.025,0.179,0.08,0.315l0.655,1.725
		c0.124,0.334,0.291,0.513,0.644,0.513c0.341,0,0.525-0.186,0.655-0.513l0.687-1.72c0.043-0.117,0.087-0.259,0.087-0.34
		C314.757,725.747,314.608,725.586,314.349,725.586"/>
	<path id="path21676" class="st0" d="M310.256,725.586c-0.854,0-1.526,0.557-1.526,1.478c0,0.922,0.673,1.472,1.526,1.472
		c0.854,0,1.533-0.55,1.533-1.472C311.789,726.143,311.111,725.586,310.256,725.586 M310.256,727.85
		c-0.445,0-0.723-0.328-0.723-0.786c0-0.457,0.277-0.784,0.723-0.784c0.446,0,0.724,0.327,0.724,0.784
		C310.98,727.522,310.702,727.85,310.256,727.85"/>
	<path id="path21680" class="st0" d="M307.982,724.208c-0.217,0-0.408,0.18-0.408,0.396v1.131c-0.198-0.099-0.421-0.154-0.724-0.154
		c-0.322,0-0.718,0.086-0.989,0.377c-0.241,0.248-0.402,0.605-0.402,1.101c0,0.433,0.13,0.785,0.347,1.032
		c0.254,0.29,0.644,0.444,1.112,0.444c0.439,0,0.872-0.147,1.139-0.463c0.222-0.259,0.333-0.587,0.333-1.075v-2.393
		C308.389,724.388,308.203,724.208,307.982,724.208 M307.573,727.021c0,0.304-0.057,0.477-0.18,0.619
		c-0.124,0.136-0.297,0.186-0.47,0.186c-0.222,0-0.401-0.1-0.508-0.261c-0.092-0.136-0.147-0.309-0.147-0.53
		c0-0.278,0.074-0.477,0.191-0.6c0.117-0.131,0.29-0.198,0.507-0.198c0.266,0,0.434,0.074,0.606,0.191"/>
	<path id="path21684" class="st0" d="M303.709,725.581c-0.501,0-0.915,0.148-1.156,0.452c-0.161,0.203-0.247,0.469-0.247,0.833
		v1.274c0,0.217,0.179,0.395,0.408,0.395c0.229,0,0.407-0.178,0.407-0.395v-1.194c0-0.154,0.025-0.277,0.081-0.383
		c0.086-0.154,0.247-0.26,0.507-0.26c0.259,0,0.427,0.105,0.513,0.26c0.056,0.105,0.074,0.229,0.074,0.383v1.194
		c0,0.217,0.186,0.395,0.414,0.395c0.224,0,0.408-0.178,0.408-0.395v-1.274c0-0.364-0.087-0.63-0.253-0.833
		C304.63,725.73,304.215,725.581,303.709,725.581"/>
	<path id="path21688" class="st0" d="M300.376,725.586c-0.469,0-0.854,0.154-1.113,0.451c-0.217,0.247-0.346,0.595-0.346,1.026
		c0,0.488,0.161,0.848,0.395,1.102c0.272,0.284,0.668,0.37,0.99,0.37c0.29,0,0.568-0.074,0.766-0.211
		c0.068,0.137,0.21,0.211,0.371,0.211c0.222,0,0.408-0.167,0.408-0.396v-1.008c0-0.495-0.111-0.815-0.333-1.082
		C301.249,725.736,300.815,725.586,300.376,725.586 M301.032,727.689c-0.191,0.117-0.402,0.18-0.612,0.18
		c-0.223,0-0.371-0.056-0.495-0.187c-0.118-0.123-0.198-0.314-0.198-0.6c0-0.217,0.056-0.39,0.149-0.531
		c0.105-0.161,0.278-0.253,0.5-0.253c0.173,0,0.347,0.049,0.471,0.191c0.117,0.136,0.185,0.357,0.185,0.667"/>
	<path id="path21692" class="st0" d="M298.553,725.692c-0.142-0.068-0.333-0.111-0.568-0.111c-0.52,0-0.928,0.142-1.162,0.445
		c-0.161,0.203-0.248,0.471-0.248,0.835v1.272c0,0.224,0.179,0.396,0.408,0.396c0.229,0,0.407-0.173,0.407-0.396v-1.211
		c0-0.161,0.025-0.271,0.081-0.384c0.08-0.148,0.241-0.254,0.481-0.254c0.106,0,0.186,0.032,0.26,0.063
		c0.086,0.043,0.143,0.08,0.253,0.08c0.205,0,0.353-0.161,0.353-0.364C298.819,725.895,298.709,725.772,298.553,725.692"/>
	<path id="path21696" class="st0" d="M296.167,725.692c-0.142-0.068-0.333-0.111-0.568-0.111c-0.52,0-0.928,0.142-1.164,0.445
		c-0.161,0.203-0.247,0.471-0.247,0.835v1.272c0,0.224,0.18,0.396,0.408,0.396s0.408-0.173,0.408-0.396v-1.211
		c0-0.161,0.024-0.271,0.08-0.384c0.081-0.148,0.242-0.254,0.482-0.254c0.105,0,0.185,0.032,0.259,0.063
		c0.087,0.043,0.142,0.08,0.254,0.08c0.204,0,0.353-0.161,0.353-0.364C296.433,725.895,296.322,725.772,296.167,725.692"/>
	<path id="path21700" class="st0" d="M292.259,725.586c-0.469,0-0.854,0.154-1.113,0.451c-0.215,0.247-0.346,0.595-0.346,1.026
		c0,0.488,0.161,0.848,0.395,1.102c0.272,0.284,0.668,0.37,0.989,0.37c0.291,0,0.569-0.074,0.767-0.211
		c0.068,0.137,0.21,0.211,0.371,0.211c0.222,0,0.407-0.167,0.407-0.396v-1.008c0-0.495-0.111-0.815-0.334-1.082
		C293.132,725.736,292.698,725.586,292.259,725.586 M292.915,727.689c-0.191,0.117-0.402,0.18-0.612,0.18
		c-0.223,0-0.371-0.056-0.495-0.187c-0.117-0.123-0.198-0.314-0.198-0.6c0-0.217,0.056-0.39,0.148-0.531
		c0.106-0.161,0.279-0.253,0.501-0.253c0.173,0,0.346,0.049,0.47,0.191c0.118,0.136,0.186,0.357,0.186,0.667"/>
	<path id="path21704" class="st0" d="M289.057,725.581c-0.31,0-0.532,0.056-0.723,0.154v-1.131c0-0.217-0.191-0.396-0.408-0.396
		c-0.223,0-0.408,0.18-0.408,0.396v2.393c0,0.488,0.111,0.816,0.333,1.075c0.266,0.315,0.698,0.463,1.138,0.463
		c0.47,0,0.859-0.154,1.113-0.444c0.215-0.247,0.346-0.6,0.346-1.032c0-0.495-0.136-0.853-0.377-1.101
		C289.799,725.667,289.379,725.581,289.057,725.581 M289.49,727.567c-0.105,0.159-0.285,0.259-0.507,0.259
		c-0.173,0-0.346-0.05-0.47-0.186c-0.124-0.143-0.179-0.315-0.179-0.619v-0.593c0.173-0.117,0.339-0.191,0.605-0.191
		c0.217,0,0.39,0.067,0.508,0.198c0.117,0.123,0.192,0.321,0.192,0.6C289.638,727.256,289.582,727.429,289.49,727.567"/>
</g>
</svg>
