<?xml version="1.0" encoding="utf-8"?>
<!-- Generator: Adobe Illustrator 15.0.0, SVG Export Plug-In . SVG Version: 6.00 Build 0)  -->
<!DOCTYPE svg PUBLIC "-//W3C//DTD SVG 1.1//EN" "http://www.w3.org/Graphics/SVG/1.1/DTD/svg11.dtd">
<svg version="1.1"
	 id="svg2985" inkscape:version="0.48.1 " sodipodi:docname="jednotka_whiteOnPurple.pdf" xmlns:dc="http://purl.org/dc/elements/1.1/" xmlns:cc="http://creativecommons.org/ns#" xmlns:rdf="http://www.w3.org/1999/02/22-rdf-syntax-ns#" xmlns:svg="http://www.w3.org/2000/svg" xmlns:sodipodi="http://sodipodi.sourceforge.net/DTD/sodipodi-0.dtd" xmlns:inkscape="http://www.inkscape.org/namespaces/inkscape"
	 xmlns="http://www.w3.org/2000/svg" xmlns:xlink="http://www.w3.org/1999/xlink" x="0px" y="0px" width="29.7px" height="28px"
	 viewBox="35.2 33.2 29.7 28" style="enable-background:new 35.2 33.2 29.7 28;" xml:space="preserve">
<style type="text/css">
<![CDATA[
	.st0{fill:#ED0E58;}
	.st1{fill:#FFFFFF;}
]]>
</style>
<g id="g2993" transform="matrix(1.25,0,0,-1.25,-337.2775,192.86371)" inkscape:groupmode="layer" inkscape:label="jednotka_whiteOnPurple">
	<g id="g3017" transform="matrix(0.25028046,0,0,0.25028046,202.59071,42.25512)">
		<path id="path2995" inkscape:connector-curvature="0" class="st0" d="M475.9,252.1H381v89.5h94.9V252.1z"/>
		<g id="g2997">
			<g>
				<g id="g2999">
					<g id="g3005" transform="translate(461.1553,387.9165)">
						<path id="path3007" inkscape:connector-curvature="0" class="st1" d="M-22.9-63.8l-15.8-8.5l2.5-6.3c0.5-1.5,1.9-2.7,3.6-2.7
							c0.6,0,1.1,0.1,1.6,0.4l3.7,1.5V-117h8.8c2.1,0,3.8,1.7,3.8,3.8v49.4H-22.9z"/>
					</g>
					<g id="g3009" transform="translate(362.7539,355.0015)">
						<path id="path3011" inkscape:connector-curvature="0" class="st1" d="M46-40.7c-4,0-7.2-3.2-7.2-7.2s3.2-7.2,7.2-7.2
							s7.2,3.2,7.2,7.2S49.9-40.7,46-40.7"/>
					</g>
					<g id="g3013" transform="translate(362.7539,281.8984)">
						<path id="path3015" inkscape:connector-curvature="0" class="st1" d="M46,10.5c-4,0-7.2-3.2-7.2-7.2S42-4,46-4
							s7.2,3.2,7.2,7.2S49.9,10.5,46,10.5"/>
					</g>
				</g>
			</g>
		</g>
	</g>
</g>
</svg>
