<?xml version="1.0" encoding="utf-8"?>
<!-- Generator: Adobe Illustrator 15.0.0, SVG Export Plug-In . SVG Version: 6.00 Build 0)  -->
<!DOCTYPE svg PUBLIC "-//W3C//DTD SVG 1.1//EN" "http://www.w3.org/Graphics/SVG/1.1/DTD/svg11.dtd">
<svg version="1.1"
	 id="svg2" inkscape:version="0.47 r22583" sodipodi:docname="New document 1" xmlns:dc="http://purl.org/dc/elements/1.1/" xmlns:cc="http://creativecommons.org/ns#" xmlns:rdf="http://www.w3.org/1999/02/22-rdf-syntax-ns#" xmlns:svg="http://www.w3.org/2000/svg" xmlns:sodipodi="http://sodipodi.sourceforge.net/DTD/sodipodi-0.dtd" xmlns:inkscape="http://www.inkscape.org/namespaces/inkscape"
	 xmlns="http://www.w3.org/2000/svg" xmlns:xlink="http://www.w3.org/1999/xlink" x="0px" y="0px" width="115.1px" height="28px"
	 viewBox="73.7 17.9 115.1 28" style="enable-background:new 73.7 17.9 115.1 28;" xml:space="preserve">
<style type="text/css">
<![CDATA[
	.st0{fill:#ED1B2D;}
	.st1{fill:#FFFFFF;}
]]>
</style>
<defs>
	
	
		<inkscape:perspective  id="perspective10" inkscape:vp_y="0 : 1000 : 0" sodipodi:type="inkscape:persp3d" inkscape:vp_z="744.09448 : 526.18109 : 1" inkscape:vp_x="0 : 526.18109 : 1" inkscape:persp3d-origin="372.04724 : 350.78739 : 1">
		</inkscape:perspective>
	
		<inkscape:perspective  id="perspective2824" inkscape:vp_y="0 : 1000 : 0" sodipodi:type="inkscape:persp3d" inkscape:vp_z="1 : 0.5 : 1" inkscape:vp_x="0 : 0.5 : 1" inkscape:persp3d-origin="0.5 : 0.33333333 : 1">
		</inkscape:perspective>
</defs>
<sodipodi:namedview  id="base" inkscape:window-y="-8" inkscape:window-x="-8" inkscape:window-height="1000" inkscape:window-width="1680" inkscape:current-layer="layer1" inkscape:document-units="px" inkscape:pageshadow="2" inkscape:pageopacity="0.0" inkscape:window-maximized="1" inkscape:cy="-28.060898" inkscape:cx="182.27968" inkscape:zoom="1.979899" borderopacity="1.0" bordercolor="#666666" showgrid="false" pagecolor="#ffffff">
	</sodipodi:namedview>
<g id="layer1" transform="translate(-256.32375,-259.01036)" inkscape:groupmode="layer" inkscape:label="Layer 1">
	<g id="g2984" transform="matrix(1.25,0,0,-1.25,514.2875,263.62911)">
		<path id="path2986" class="st1" d="M-56.9-12.3c0-1.4,0-17.7,0-19.2c-1.6,0-87.3,0-88.9,0c0,1.4,0,17.7,0,19.2
			C-144.2-12.3-58.5-12.3-56.9-12.3z M-56.1-10.6h-91.3V-33h92.1v22.4H-56.1"/>
	</g>
	<g id="g2988" transform="matrix(1.25,0,0,-1.25,387.16625,279.12036)">
		<path id="path2990" class="st0" d="M0.2-5.3l6.3,6.2l-51.3,0v-20.8h27.2L-3.6-8.3"/>
	</g>
	<g id="g2992" transform="matrix(1.25,0,0,-1.25,387.16625,296.66536)">
		<path id="path2994" class="st0" d="M0.2,2.6l-8.8-8.4l54.2,0V15H15.2L3.8,5.7 M41-1.8L23.7,6.9v-8.2h-4.4v14l17.4-9.2v8.2H41V-1.8
			"/>
	</g>
	<g id="g2996" transform="matrix(1.25,0,0,-1.25,374.96875,267.20036)">
		<path id="path2998" class="st1" d="M5.7-10.7h-7.4l7.8-7.2L-6.7-28.9l8.1-0.2L10-21l4-3.9h7.4l-7.8,7l10.2,8.8h-7.4L10-14.8
			L5.7-10.7"/>
	</g>
	<g id="g3000" transform="matrix(1.25,0,0,-1.25,423.3525,263.82286)">
		<path id="path3002" class="st1" d="M-16.1-12.2c-1.4-1.2-9.8-8.4-9.8-8.4s6.1-5.5,7.4-6.6c-1.5,0-5.9,0-6.2,0
			c-0.2,0.2-4.2,4-4.2,4s-8.5-8-8.7-8.2c-0.3,0-5.3,0.1-6.9,0.2C-42.9-30-32-20.6-32-20.6s-6.2,5.6-7.4,6.8c1.5,0,5.9,0,6.2,0
			c0.2-0.2,4.4-4.3,4.4-4.3s6.4,5.7,6.6,5.9C-21.9-12.2-17.6-12.2-16.1-12.2z M-15-11.4h-7.5c0,0-5.7-5.2-6.2-5.6
			c-0.5,0.5-4.1,4-4.1,4h-8.6c0,0,7.7-7,8.3-7.6C-33.8-21.1-46.4-32-46.4-32l9.3-0.2c0,0,7.9,7.4,8.4,7.9c0.5-0.5,3.8-3.7,3.8-3.7
			h8.6c0,0-7.6,6.8-8.3,7.4c0.7,0.6,10.7,9.2,10.7,9.2H-15"/>
	</g>
	<g id="g3004" transform="matrix(1.25,0,0,-1.25,441.76375,267.81286)">
		<path id="path3006" class="st1" d="M-24.3-10.4v-14h4.4v8.2l17.2-8.8v13.5H-7v-8.2L-24.3-10.4"/>
	</g>
	<g id="g3008" transform="matrix(1.25,0,0,-1.25,442.92125,269.72911)">
		<path id="path3010" class="st1" d="M-24.8-9.5c1.1-0.6,17.4-9.2,17.4-9.2s0,7.7,0,8.5c0.6,0,2.8,0,3.4,0c0-0.7,0-11.3,0-12.5
			c-1.1,0.6-17.2,8.8-17.2,8.8s0-7.7,0-8.5c-0.6,0-3,0-3.6,0C-24.8-21.7-24.8-10.7-24.8-9.5z M-25.7-8.9v-14.4h5.2c0,0,0,6.8,0,8
			C-19.4-15.8-3.2-24-3.2-24v14.6h-5.1c0,0,0-6.8,0-7.9c-1.1,0.6-17.4,9.2-17.4,9.2V-8.9"/>
	</g>
	<g id="g3012" transform="matrix(1.25,0,0,-1.25,305.48375,267.20036)">
		<path id="path3014" class="st1" d="M36.9-10.7L24.5-24.8h4.4l2.6,2.9h10.8l2.3-2.9H49L36.9-10.7"/>
	</g>
	<g id="g3016" transform="matrix(1.25,0,0,-1.25,305.4725,268.96661)">
		<path id="path3018" class="st1" d="M36.9-9.9c0.5-0.6,10.2-12,11.2-13.1c-1.1,0-3,0-3.3,0c-0.2,0.3-2.3,2.9-2.3,2.9H31.3
			c0,0-2.4-2.6-2.6-2.9c-0.3,0-2.2,0-3.3,0C26.5-21.8,36.3-10.5,36.9-9.9z M36.6-9l-13-14.8h5.4c0,0,2.4,2.6,2.6,2.9
			c0.3,0,10.1,0,10.4,0c0.2-0.3,2.3-2.9,2.3-2.9h5.4L36.9-8.6L36.6-9"/>
	</g>
	<g id="g3020" transform="matrix(1.25,0,0,-1.25,305.235,280.06286)">
		<path id="path3022" class="st0" d="M37-4.9l-3.7-4.2h7.4L37-4.9"/>
	</g>
	<g id="g4196" transform="matrix(1.25,0,0,-1.25,514.2875,263.62911)">
		<path id="path4198" class="st1" d="M-56.9-12.3c0-1.4,0-17.7,0-19.2c-1.6,0-87.3,0-88.9,0c0,1.4,0,17.7,0,19.2
			C-144.2-12.3-58.5-12.3-56.9-12.3z M-56.1-10.6h-91.3V-33h92.1v22.4H-56.1"/>
	</g>
	<g id="g4200" transform="matrix(1.25,0,0,-1.25,387.16625,279.12036)">
		<path id="path4202" class="st0" d="M0.2-5.3l6.3,6.2l-51.3,0v-20.8h27.2L-3.6-8.3"/>
	</g>
	<g id="g4204" transform="matrix(1.25,0,0,-1.25,387.16625,296.66536)">
		<path id="path4206" class="st0" d="M0.2,2.6l-8.8-8.4l54.2,0V15H15.2L3.8,5.7 M41-1.8L23.7,6.9v-8.2h-4.4v14l17.4-9.2v8.2H41V-1.8
			"/>
	</g>
	<g id="g4208" transform="matrix(1.25,0,0,-1.25,374.96875,267.20036)">
		<path id="path4210" class="st1" d="M5.7-10.7h-7.4l7.8-7.2L-6.7-28.9l8.1-0.2L10-21l4-3.9h7.4l-7.8,7l10.2,8.8h-7.4L10-14.8
			L5.7-10.7"/>
	</g>
	<g id="g4212" transform="matrix(1.25,0,0,-1.25,423.3525,263.82286)">
		<path id="path4214" class="st1" d="M-16.1-12.2c-1.4-1.2-9.8-8.4-9.8-8.4s6.1-5.5,7.4-6.6c-1.5,0-5.9,0-6.2,0
			c-0.2,0.2-4.2,4-4.2,4s-8.5-8-8.7-8.2c-0.3,0-5.3,0.1-6.9,0.2C-42.9-30-32-20.6-32-20.6s-6.2,5.6-7.4,6.8c1.5,0,5.9,0,6.2,0
			c0.2-0.2,4.4-4.3,4.4-4.3s6.4,5.7,6.6,5.9C-21.9-12.2-17.6-12.2-16.1-12.2z M-15-11.4h-7.5c0,0-5.7-5.2-6.2-5.6
			c-0.5,0.5-4.1,4-4.1,4h-8.6c0,0,7.7-7,8.3-7.6C-33.8-21.1-46.4-32-46.4-32l9.3-0.2c0,0,7.9,7.4,8.4,7.9c0.5-0.5,3.8-3.7,3.8-3.7
			h8.6c0,0-7.6,6.8-8.3,7.4c0.7,0.6,10.7,9.2,10.7,9.2H-15"/>
	</g>
	<g id="g4216" transform="matrix(1.25,0,0,-1.25,441.76375,267.81286)">
		<path id="path4218" class="st1" d="M-24.3-10.4v-14h4.4v8.2l17.2-8.8v13.5H-7v-8.2L-24.3-10.4"/>
	</g>
	<g id="g4220" transform="matrix(1.25,0,0,-1.25,442.92125,269.72911)">
		<path id="path4222" class="st1" d="M-24.8-9.5c1.1-0.6,17.4-9.2,17.4-9.2s0,7.7,0,8.5c0.6,0,2.8,0,3.4,0c0-0.7,0-11.3,0-12.5
			c-1.1,0.6-17.2,8.8-17.2,8.8s0-7.7,0-8.5c-0.6,0-3,0-3.6,0C-24.8-21.7-24.8-10.7-24.8-9.5z M-25.7-8.9v-14.4h5.2c0,0,0,6.8,0,8
			C-19.4-15.8-3.2-24-3.2-24v14.6h-5.1c0,0,0-6.8,0-7.9c-1.1,0.6-17.4,9.2-17.4,9.2V-8.9"/>
	</g>
	<g id="g4224" transform="matrix(1.25,0,0,-1.25,305.48375,267.20036)">
		<path id="path4226" class="st1" d="M36.9-10.7L24.5-24.8h4.4l2.6,2.9h10.8l2.3-2.9H49L36.9-10.7"/>
	</g>
	<g id="g4228" transform="matrix(1.25,0,0,-1.25,305.4725,268.96661)">
		<path id="path4230" class="st1" d="M36.9-9.9c0.5-0.6,10.2-12,11.2-13.1c-1.1,0-3,0-3.3,0c-0.2,0.3-2.3,2.9-2.3,2.9H31.3
			c0,0-2.4-2.6-2.6-2.9c-0.3,0-2.2,0-3.3,0C26.5-21.8,36.3-10.5,36.9-9.9z M36.6-9l-13-14.8h5.4c0,0,2.4,2.6,2.6,2.9
			c0.3,0,10.1,0,10.4,0c0.2-0.3,2.3-2.9,2.3-2.9h5.4L36.9-8.6L36.6-9"/>
	</g>
	<g id="g4232" transform="matrix(1.25,0,0,-1.25,305.235,280.06286)">
		<path id="path4234" class="st0" d="M37-4.9l-3.7-4.2h7.4L37-4.9"/>
	</g>
</g>
</svg>
