<?xml version="1.0" encoding="utf-8"?>
<!-- Generator: Adobe Illustrator 15.0.0, SVG Export Plug-In . SVG Version: 6.00 Build 0)  -->
<!DOCTYPE svg PUBLIC "-//W3C//DTD SVG 1.1//EN" "http://www.w3.org/Graphics/SVG/1.1/DTD/svg11.dtd">
<svg version="1.1" id="Layer_1" xmlns="http://www.w3.org/2000/svg" xmlns:xlink="http://www.w3.org/1999/xlink" x="0px" y="0px"
	 width="111.7px" height="50px" viewBox="0 0 111.7 50" style="enable-background:new 0 0 111.7 50;" xml:space="preserve">
<style type="text/css">
<![CDATA[
	.st0{fill-rule:evenodd;clip-rule:evenodd;fill:#EE3A43;}
]]>
</style>
<g>
	<g>
		<path class="st0" d="M109.6,33.6c-0.4,0.2-0.9,0.1-1.4,0c-0.4-0.1-1.1-0.1-1.4-0.2c-0.3-0.1-0.2,0-0.5-0.2
			c-0.1-0.1-0.4-0.4-0.7-0.7c-0.3-0.4-0.4-0.9-0.9-1.2c-0.6-0.2-0.4,0.4-0.9,0.5c-0.3,0-0.5,0.4-0.9,0.5c-0.1,0-0.2,0-0.2,0
			c-0.2,0.1-0.3,0.4-0.5,0.5c-0.1,0-0.4-0.1-0.5,0c0,0,0,0.2,0,0.2c-0.1,0-0.4-0.1-0.5,0c0,0,0,0.2,0,0.2c-0.1,0-0.4-0.1-0.5,0
			c-0.2,0.2-1,0.4-1.4,0.5c-1.3,0.2-3.4,0.4-4.9,0c-0.7-0.2-1.1-0.2-1.6-0.5c-0.1-0.1,0-0.2-0.2-0.2c-0.3,0-0.3-0.4-0.5-0.5
			c-0.3-0.1-0.9-0.1-0.9-0.7c0-0.3-0.4-0.5-0.5-0.9c0-0.3-0.4-0.5-0.5-0.9c0-0.1-0.4-0.3-0.5-0.5c-0.1-0.1,0.1-0.4,0-0.5
			c-0.4-0.3-0.2-0.8-0.5-1.6c-0.9-2.8-0.9-7.9-1.2-11.6c0-0.2-0.3-2.8,0-3c0.5-0.4,0.2-3.9,0.5-4.9c0-0.1,0.2-0.2,0.2-0.2
			c0.1-0.8,0-1.5,0.2-2.1c0-0.1,0.2,0,0.2-0.2c0-0.8,0.9-1.8,1.6-2.3c0.2-0.1,0.4-0.1,0.7-0.2c0.9-0.2,3.3-0.1,4.2,0.9
			c0.1,0.1-0.1,0.4,0,0.5c0,0,0.2,0,0.2,0c0,0.1-0.1,0.4,0,0.5c1,0.8-0.5,3.6-0.7,4.7C95.2,10,95.2,11,95.1,12
			c-0.2,1.9-0.1,4.7-0.2,7.2c-0.1,1.2-0.3,2.3-0.2,3.3c0.1,1.3,0.4,2.6,0.7,3.7c0.3,1.1,0.2,2.4,1.4,3c0.7,0.1,1.5-0.3,2.1-0.7
			c0.1-0.1,0.2-0.2,0.2-0.2c0.2-0.1,0.5-0.1,0.7-0.2c0.2-0.1,0.3-0.6,0.5-0.7c0.2-0.2,0.5-0.1,0.7-0.2c0.5-0.4,0.9-1.1,1.4-1.6
			c0.3-0.3,0.4-0.7,0.7-1.2c0.1-0.1,0.4-0.3,0.5-0.5c0.1-0.1,0-0.3,0-0.5c0,0,0.2-0.7,0.2-0.7c0.2-0.2,0.3-0.5,0.5-0.7
			c0.3-0.3,0.8-0.7,0.9-1.4c0.3-1.3-0.2-2.5-0.2-3.7c-0.1-1.1,0.1-2.2,0-3.3c0-0.2-0.2-0.4-0.2-0.7c0-0.1,0.2-1.7,0-1.9
			c0,0-0.2,0-0.2,0c-0.2-1.8-0.7-3.7,0-5.4c1.2-0.9,2.7-0.1,4.4-0.2c0.2,0.7,0.5,1.3,1.4,1.4c0.8,4.2,1,9.5,1.4,14.2
			c0.1,0.9,0.1,2.3,0,3.5c-0.1,0.7-0.4,1.4-0.5,2.1c-0.1,1.4-0.1,2.9,0,4.4c0,0.3,0.3,0.7,0,0.9c-0.3,0.1-0.2,0.5-0.5,0.5
			c0,0.2,0,0.3,0,0.5c-0.3,0-0.4-0.1-0.5-0.2c-1,0,0,0.2,0,0.5C110.1,33.4,109.6,33.3,109.6,33.6z"/>
		<path class="st0" d="M22.3,11.5c0.1,0.2-0.8,0.4-0.9,0.2C21.3,11.7,22,11.1,22.3,11.5z"/>
		<path class="st0" d="M17.4,12.9C18.2,12.1,18.2,13.6,17.4,12.9L17.4,12.9z"/>
		<path class="st0" d="M14,14.8c0.2,0.2,0.6,0.4,0.7,0c0.5,0.3-0.4,1.6-0.2,2.6c-0.5,0.3-0.9,0.7-1.2,1.2c-0.5,0.2-0.4,1.2-1.2,1.2
			c0.3-0.4,0.3-1.2,0.9-1.4c0-0.3,0-0.7,0.2-0.7C13.1,16.3,13.6,15.6,14,14.8z"/>
		<path class="st0" d="M21.9,20.4c0.6,0.7-0.2,1.5,0,2.6c1.1-0.1,2.5-0.5,3.3,0.2c0,0.7,0.1,1.5,0,2.3c0,0.6-0.1,1.6-0.2,2.1
			c-0.1,0.5-0.2,1.5-0.9,1.4c-1.2-0.1-0.6-1.3-0.5-2.1c0-0.2,0.2-0.4,0.2-0.7c0-0.1-0.1-0.4,0-0.5c0,0,0.2,0,0.2,0
			c0.1-0.5-0.1-1,0-1.4c0.1-0.5-0.7-0.3-0.7-0.7c-0.4,0-0.9,0.1-1.2,0.2c-0.3,0.2-0.6,0.7-0.7,1.2c0,0.1-0.2,0.2-0.2,0.2
			c-0.1,0.7,0,1.9-0.2,2.6c-0.3,0.7-0.1,1.5-1.4,1.2c-0.4-0.6,0-1.4,0.2-2.1c0-0.1-0.1-0.4,0-0.5c0.4-0.3-0.1-1.1,0.2-1.4
			c0.3-0.2,0.1-0.5,0.2-0.9c0-0.2,0.2-0.2,0.2-0.5c0.2-1.1,0-2.3,0.5-3.3C21.2,20.4,21.6,20.4,21.9,20.4z"/>
		<path class="st0" d="M17.9,20.6C17.8,21,18.2,22,17.7,22c0.2,0.7,1.1,0.6,0.9,1.6c-0.3,0.2-0.6,0.3-1.2,0.2c-0.2,1-0.5,1.8-0.5,3
			c-0.1,0.9,1,0.7,0.9,1.6c-0.4,0.6-1.6,0.5-2.3,0.2c-0.7-1.7,1.2-3.8,0-5.4c0-0.7,0.5-0.9,0.9-1.2c-0.2-1,0.5-1.1,0.7-1.6
			C17.4,20.6,17.7,20.6,17.9,20.6z"/>
		<path class="st0" d="M10.7,22.7c0.2-0.7,0.3,0.4,0.2,0.7c-0.1,0.6,1.1-0.1,0.7,0.7c-0.3,0-0.6,0-0.9,0
			C10.7,23.6,10.7,23.2,10.7,22.7z"/>
		<path class="st0" d="M32.3,26.2c-1.6,0.2-3.3-0.7-4.4,0.2c0,0.7,0.5,0.9,0.7,1.4c1.8,0.4,1.8-1,3.3-0.9c-0.1,0.3,0.1,0.6,0,0.9
			c-0.1,0.3-0.3,0.3-0.5,0.5c-0.1,0.1-0.4,0.4-0.5,0.5c-0.1,0.1-0.4-0.1-0.5,0c0,0,0,0.2,0,0.2c-1.1,0.3-2.4-0.2-3.3-0.5
			c-0.2-0.9-0.7-1.3-0.5-2.8c0,0,0.2-0.1,0.2-0.2c0.1-0.4,0-0.7,0.2-1.2c0.1-0.1,0.4-0.1,0.5-0.2c0-0.1-0.1-0.4,0-0.5
			c0.1-0.1,0.4,0.1,0.5,0c0.2-0.3,0.3-0.4,0.7-0.7c1-0.6,2.9-0.1,3.5,0.7c0,0,0,0.2,0,0.2C32.3,24.1,32.9,25.3,32.3,26.2z M28.4,25
			c0.8,0.2,3.3,0.8,2.8-0.9C30.1,23.7,28.4,23.8,28.4,25z"/>
		<path class="st0" d="M84.4,24.3C85.3,25,83.7,25.1,84.4,24.3L84.4,24.3z"/>
		<path class="st0" d="M38.4,25.3c0.5,0.1,0.5,0.6,0.2,0.9C38.3,26.1,38.4,25.6,38.4,25.3z"/>
		<path class="st0" d="M22.1,49.5c0.8-0.1,1.3,0.1,1.9,0.2C23.8,50,21.9,50.3,22.1,49.5z"/>
		<path class="st0" d="M29.8,0.8c-0.5,0.7-1.3,0.1-1.6,0c-0.4-0.1-0.9,0.1-1.4,0c0,0-0.1-0.2-0.2-0.2c-0.6,0-1.7,0-2.6,0.2
			c-0.1,0,0,0.2-0.2,0.2c-0.1,0-0.2,0-0.2,0c-0.3,0.1-0.5,0-1.2,0.2c-0.1,0,0,0.2-0.2,0.2c-0.5,0-1.8,0.9-2.6,0.9
			c-0.5,0.1-1.1-0.5-1.4,0c-0.5-0.3,0.2-0.5,0.5-0.7c0.2-0.1,0.5-0.1,0.7-0.2c0.1-0.1,0.1-0.4,0.2-0.5C19.8,0.9,20,1,20.2,0.8
			c0,0,0.9-0.2,0.9-0.2c0,0,0-0.2,0-0.2c0.1,0,0.4,0.1,0.5,0c0.2-0.3,0.5-0.1,0.9-0.2c0.5-0.1,1.4-0.3,2.6,0
			C26.1,0.4,28.5,0.5,29.8,0.8z"/>
		<path class="st0" d="M25.6,1.5c0.9-0.8,1.7,0.4,2.8,0.2c0,0.2-0.7,0.4-0.9,0.2c0,0,0-0.2,0-0.2C26.8,1.7,26.1,1.8,25.6,1.5z"/>
		<path class="st0" d="M16.1,2c0,0,0.2-0.4,0.5-0.2c0,0,0,0.4,0,0.5C16.4,2.4,16.2,2,16.3,2c-0.1,0-0.4,0.3-0.5,0.2
			C15.5,2,15.8,2,16.1,2z"/>
		<path class="st0" d="M34.9,2.5c0.5-0.7,0.9,0.6,1.6,0.5C36.2,3.5,35.3,2.7,34.9,2.5z"/>
		<path class="st0" d="M8.8,8.5c0.3,0.1-0.1,0.3,0,0.7c0.2,0.6,0.6-0.6,0.9-0.7c0.1,0,0.4,0.1,0.5,0c0.5-0.4,0.9-1.1,1.2-1.4
			c0.7,0,0.9-0.5,1.4-0.7c0.5-0.1,0.5-0.6,0.7-0.9c0.2-0.1,0.8,0,0.9-0.2C14.6,5,14.8,5.2,15.1,5c0.1-0.1,0.1-0.4,0.2-0.5
			c0.1,0,0.4,0.1,0.5,0c0,0,0-0.2,0-0.2c0.1,0,0.4,0.1,0.5,0c0,0,0-0.2,0-0.2c0.1,0,0.4,0.1,0.5,0C17,3.8,17,3.8,17.4,3.6
			c0.2,0,0.2-0.2,0.2-0.2c0.5-0.1,0.9,0.1,1.4,0c0.4-0.1,0.7-0.4,1.2-0.5c0.1,0,2.1,0.2,2.3,0c0.3-0.3,0.4-0.1,0.9,0.2
			c0.4,0,0.7-0.4,1.2-0.5c0.3,0,0.7,0.2,1.2,0.2c0.6,0,1.6-0.3,2.8-0.2c0.3,0,0.8,0.1,1.2,0.2c0.6,0.1,1,0.4,1.4,0.5
			c0.5,0,0.6,0.8,1.2,0.9c1.1-0.1,1.3,0.4,2.1,0C34.8,5,35.5,5.3,35.8,6c0.8,0,1,0.7,1.9,0.7c0.3,0.6,0.9,1,1.4,1.4
			c0.5,0.4,0.9,1,1.6,1.2c0,0.7,0.6,1.4,1.2,1.9c0.1,0.1,0.4-0.1,0.5,0c0.1,0.1,0.1,0.4,0.2,0.5c0.1,0.1,0.6,0.3,0.7,0.5
			c0.1,0.2-0.2,0.2-0.2,0.2c0,0.2,0.4,0.6,0.2,0.9c0.2,0.6,0.6,0.9,0.9,1.4c0.1,0.1,0.2,0,0.2,0.2c0,0.5,0.9,1.5,1.4,1.9
			c0,0.6,0.2,1.1,0.5,1.6c0,0.1-0.1,0.4,0,0.5c0.3,0.3,0.1,0.4,0.2,1.2c0.4,1.9,1.1,4,0.9,6c0,0.4-0.2,0.4-0.2,0.7
			c0,0.9,0.1,1.9,0,2.8c-0.2,1.6-1,3-1.4,4.4c0.7,0.9,1.8,1.3,2.8,1.9c0.9,0.5,1.9,1.3,3,1.6c0,0.2,0,0.5,0,0.7
			c0.9,0.1,1.1,0.9,2.1,0.9c-0.1,0.7,0.6,0.7,0.9,0.9c0.3,0.3,0.5,0.7,0.9,0.7c-0.4,0.3-0.1,0.7,0.2,1.2c0.1,0.2,0.4,0.3,0.5,0.5
			c0.1,0.2-0.2,0.7,0.2,0.7c0,0.8,0.1,1.5,0,2.1c0,0.4-0.1,1.1-0.2,1.4c0,0.1-0.4,0.1-0.5,0.2c0,0.1,0.1,0.4,0,0.5
			c-0.1,0.1-0.7,0.7-0.9,0.9c-0.2,0.2-0.5,0.1-0.7,0.2c-0.3,0.2-0.2,0.3-0.7,0.5c-0.2,0.1-1.8,0.4-2.8,0.2c0,0,0-0.2-0.2-0.2
			c-0.5,0-0.7-0.2-1.2-0.5c-0.4-0.2-0.8-0.5-1.2-0.7c-0.4-0.2-0.6-0.7-0.9-0.9c-0.6-0.5-1.2-0.6-1.9-1.2c-0.1-0.1-0.3-0.4-0.5-0.5
			c-0.3-0.2-0.5-0.4-0.9-0.5c-0.1,0-0.3,0.1-0.5,0c-0.1-0.1-0.4-0.4-0.5-0.5c-0.3-0.1-0.7,0.1-0.9,0c-0.1-0.1-0.3-0.4-0.5-0.5
			c-0.3-0.1-0.5-0.1-0.7-0.2c-0.5,0,0.1,0.6,0.5,0.5c0.3,0.4,0.7,0.5,1.2,0.7c0.4,0.2,0.8,0.5,1.4,0.5c0,0.8,0.8,0.8,0.9,1.4
			c0.3,0,0.5,0.1,0.7,0.2c0.2,0.1,0.3,0.4,0.5,0.5c0.2,0.1,0.6,0.4,0.9,0.5c0.3,0,0.3,0.6,0.5,0.7c0.1,0.1,0.4-0.1,0.5,0
			c0.1,0.1,0.5,0.8,1.2,0.7c-0.4,0.7-1-0.4-1.6-0.2c-0.3-0.8-1.2-1-1.6-1.6c-0.3,0-0.4,0.1-0.5,0.2c-0.5-0.3-0.7-1-1.2-1.4
			c-0.3,0-0.6,0-0.9,0c-0.2-0.6-1.1-0.6-1.4-1.2c-0.7-0.3-0.5,0-1.4,0c-0.2-0.2-0.3-0.5-0.2-0.9c-0.8,0-0.9,0.7-0.9,1.4
			c-0.3,0-0.5,0.1-0.7,0.2c-0.1,0.1-0.1,0.6-0.2,0.7c-0.2,0.1-0.5,0.2-0.7,0.2c-0.2,0.1-0.4,0.1-0.7,0.2c-0.1,0.1-0.6,0.1-0.7,0.2
			c-0.1,0.1-0.1,0.4-0.2,0.5c-0.3,0.1-0.5,0.1-0.7,0.2c-0.1,0.1-0.3,0.4-0.5,0.5c-0.4,0.2-0.8,0.1-1.2,0.5c-0.3-0.1,0-0.2,0-0.5
			c-0.9,0.2-1.8,0.1-3,0.5c0,0-0.1,0.2-0.2,0.2c-0.1,0-0.3,0-0.5,0c-0.5,0.1-1.1,0.4-1.6,0.5c-0.4,0.1-0.8-0.1-1.2,0
			c-1,0.2-1.8,0.8-2.8,0.7c-0.3-0.7,0.7-0.4,0.9-0.5c0.4-0.1,1.2-0.6,1.6-0.7c0.3-0.1,0.9,0.2,0.9-0.2c0-1.1-1.6-0.3-2.1-0.2
			c-0.9,0-1.6,0-2.3,0c-0.1,0.4,0.2,0.4,0.5,0.5c-0.8,0.7-1.9,0.5-3.3,0.5c-0.2,0-0.5,0.1-0.7,0c-0.1,0-0.3-0.2-0.2-0.2
			c-0.4,0-0.5,0.3-0.9,0.2c-1.1-0.1-2.1-0.9-3.3-0.7c-0.1-0.5-0.8-0.4-0.7-1.2c-1.8-0.5-3.5-1-4.4-2.3c-0.4,0-0.8,0-1.2,0
			c-0.6-0.8-1.1-1.7-2.1-2.1c0.2-0.7,0.3,0.5,0.9,0.2c0.2-0.8-0.9-0.3-0.7-1.2c0.9,0.2,0.8,1.3,2.1,1.2c0.2,0.4,0.6,0.7,0.7,1.2
			c0.6,0,0.7,0.4,1.2,0.7c0.3,0.2,1.1,0.6,1.6,0.9c0.9,0.5,1.6,1.4,2.8,0.9c-1.4-1.6-3.8-2-5.1-3.7c-0.3,0-0.6,0-0.9,0
			c-0.2-0.8-1.3-0.7-1.2-1.9c-0.5,0.2-0.5-0.5-0.7-0.7c-0.2-0.2-0.5-0.3-0.7-0.5C7,39.9,7,39.5,6.7,39.2c-0.1-0.1-0.4-0.2-0.5-0.2
			c-0.1-0.1,0.1-0.4,0-0.5c-0.2-0.3-0.5-0.4-0.7-0.7c-0.1-0.2-0.1-0.3-0.2-0.5c-0.2-0.3-0.5-1.5-1.2-1.9c0.5,2.1,1.6,3.5,3,4.7
			c-0.1,0.4-1-0.2-1.2-0.5c-0.2-0.5-0.4-1-0.9-1.2c0,0.9,0.9,1.5,0.5,2.1c-0.8,0.1-0.5-0.8-0.7-1.4c0-0.1-0.2,0-0.2-0.2
			c0-0.4-0.1-0.4-0.2-0.7C4.2,37.8,4,37,3.7,36.4c-0.5-0.5-0.8,0.2-1.2-0.2c-0.2-1.1,0.1-1.5-0.2-2.6c-0.3-0.1,0-0.3,0,0
			C2.8,34,2.8,34.9,3.5,35c0.3-0.1-0.1-0.3,0-0.7c-0.4-0.6-1-0.9-1.2-1.9c-0.1-0.5,0.3-1.3,0.2-2.3c0-0.8-0.7-1.3-0.2-1.9
			c0.2-0.6-0.5-0.4-0.7-0.7C2,27,2.4,26.1,2.1,24.8c0-0.2-0.2-0.2-0.2-0.5c0-0.5,0.3-0.9,0.2-1.4c-0.1-0.6-0.4-1.1-0.5-1.6
			c-0.3,0.1-0.2,0.6-0.2,0.9c-0.1,0.6-0.5,1.7,0,2.6c-0.7,0.4-0.3,1.4-0.2,2.1c0.1,0.9,0.1,1.9,0.2,2.6c0.3,1,0.9,1.6,0.9,2.3
			c-0.5,0-0.4-0.7-0.7-1.2c-0.2-0.3-0.5-1.2-0.7-1.9c-0.3,0.1-0.2,0.6-0.2,0.9c-0.4-0.4-0.2-1.1-0.2-1.6c0-0.6,0-1.1,0-1.6
			c0-0.4-0.2-0.4-0.2-0.7c-0.1-1.1,0.2-2.1-0.2-3c0.5,0.1,0.2-0.7,0.5-0.9c0.3-0.3,0.5-1.7,0.7-2.6c0,0,0.2,0,0.2-0.2
			c0-0.3-0.1-0.6,0-0.9c0,0,0.2,0,0.2-0.2c0-0.7,0.1-0.8,0.2-1.6c0.5,0.2,0.5-0.5,0.7-0.7c0.2-0.2,0.5-0.5,0.7-0.7
			c0.4-0.6,0.4-1.4,1.2-1.6c0.1-0.7-0.4-0.7,0-1.2c0.4-0.1,0.4,0.2,0.7,0.2c1-1,1.2-2.8,2.3-3.7c0-0.3,0-0.6,0-0.9
			C7.9,7,7.6,9,7.7,9.5C8.4,9.4,8.5,8.9,8.8,8.5z M22.1,10.4c0.7,0.2,0.8-0.2,1.4-0.2c0-0.2,0-0.3,0-0.5c-0.2,0-0.3-0.2-0.5-0.2
			C22.8,9.9,22.2,9.8,22.1,10.4z M25.8,9.5c-0.2,0-0.5,0-0.7,0c-0.2,0.1-0.5,0-0.5,0.2C25,9.6,25.9,10,25.8,9.5z M27.2,10.6
			c0.7-0.1,1,0.4,1.9,0.2c0.1,0.7,1.3,0.5,1.9,0.7c0.1,0,0.2,0.4,0.2,0.5c0.2,0.1,0.7,0,0.9,0c0,0,0,0.2,0,0.2
			c0.1,0.1,0.8-0.1,0.7-0.2c-0.3-0.1-0.5-0.3-0.5-0.7c-1.5-0.4-3.1-1.7-4.9-1.2c0-0.4-0.6-0.8-0.5,0C27.4,10.1,27.5,10.3,27.2,10.6z
			 M18.8,10.6c0.3,0,0.6-0.1,0.5-0.5c-0.7,0.2-1.5,0.5-1.9,0.7c-0.1,0.1,0,0.2-0.2,0.2c-0.8,0.2-0.6,0.4-1.2,0.9
			c-0.2,0.2-0.3,0.2-0.5,0.5c-0.1,0.1-0.4-0.1-0.5,0c-0.1,0.1-0.2,0.6-0.2,0.7c-0.1,0.1-0.4,0.3-0.5,0.5c-0.3,0.1-0.6,0.3-0.9,0.5
			c-0.2,0.4-0.4,0.9-0.7,1.2c-0.1,0.1-0.4-0.1-0.5,0c-0.1,0.1,0.1,0.4,0,0.5c-0.2,0.1-0.5-0.1-0.7,0c0.1,0.8-0.2,1.2-0.7,1.4
			c0,0.5,0,0.9,0,1.4c-0.6,0.4-0.5,1.5-1.4,1.6c-0.1,0.8,0.2,1.1,0.2,1.6c-0.5,0.1-0.5,0.7-0.9,0.9c0.4,1.7-0.7,4,0.5,5.4
			c-0.8,0-0.1,0.3-0.5,0.9c0.5,0.3,0.4,1.2,0.7,1.6c0.2,0.2,0.6,0.2,0.7,0.5c-0.1,0.7,0.4,0.8,0.2,1.6c0.5,0.4,0.6,0.7,0.9,0.9
			c0.1,0.1-0.1,0.4,0,0.5c0.5,0.7,1.7,1.1,1.6,2.1c0.7-0.2,0.4,0.6,1.2,0.5c0.4,0.8,1.3,1.3,1.9,1.6c0.1,0.1,0.3,0.4,0.5,0.5
			c0.2,0.1,0.4,0.1,0.7,0.2c0.1,0.1,0.3,0.4,0.5,0.5c0.6,0.3,1.2,0.2,1.9,0.2c-0.1,0.6,1.1-0.1,0.7,0.7c0.8,0.1,2.8,0,2.6,0.7
			c1.6,0,3.7,0,4.7-0.2c1-0.3,1.7-0.4,2.6-0.7c0.6-0.2,1.5-0.9,1.9-0.9c0.3,0,0.1-0.2,0.2-0.2c0.3-0.2,0.6,0,0.9-0.2
			c0.1-0.1,0.1-0.4,0.2-0.5c0.2-0.1,0.6-0.1,0.7-0.2c0.1-0.1,0.2-0.6,0.2-0.7c0.1-0.1,0.4-0.3,0.5-0.5c0.1-0.2,0.2-0.5,0.2-0.7
			c0-0.1,0.2,0,0.2-0.2c0-0.2-0.1-0.5-0.2-0.5c-0.3,0.7-0.7,1.1-1.2,1.6c-0.4-0.1-0.5,0.3-0.9,0.2c-0.2,0.4-0.5,0.7-0.9,0.9
			c-0.4,0-1.2,0.8-1.4,0.2c0.6-0.2,0.9-0.6,1.6-0.7c-0.3-1.1,0.7-0.5,0.9-0.7c0.1,0,0-0.4,0-0.5c0-0.1,0.4-0.2,0.5-0.2
			c0.3-0.3,0.6-0.5,0.7-0.7c0.1-0.2-0.1-0.5,0-0.7c0,0,0.5-0.5,0.5-0.5c0.2-0.1,0.4,0.4,0.7,0.2c0-0.4,0.2-0.6,0.5-0.7
			c-0.3-0.7,0-0.5,0-1.4c0.6-0.3,0.9-0.8,0.9-1.6c0.5-0.2,0.9-0.5,1.4-0.7c0.1-1.2,0.6-1.8,0.5-3.3c-0.3,0-0.3-0.6,0-0.7
			c0.3,0.1,0.4,0.7,0.5,0.9c0.1,0.3,0.3,0.7,0.2,1.2c1.2,0.1,0.5-1.6,0.7-2.6c-0.6,0-0.7,0.4-0.9-0.2c-0.1-0.3,0.1-0.7,0-0.9
			c0-0.1-0.4-0.4-0.5-0.5c-0.4-0.8-0.2-1.6-0.7-2.3c0-0.5,0.6-0.3,0.5-0.9c-0.6-0.3-1-0.9-0.9-1.9c-0.1-0.3-0.9,0-0.9-0.5
			c0.4-0.7-0.9-1-0.2-1.2c0.7,0.8,0.2-0.6,0.5-0.5c0.2,0.1,0.3,0.3,0.5,0.5c0.1,0.1,0.4,0.3,0.5,0.5c0.1,0.2-0.1,0.5,0,0.7
			c0,0.1,0.4,0.4,0.5,0.5c0.3,0.6,0.5,1.3,0.5,2.1c0.4-0.1,0.5,0.3,0.9,0.2c0.2-1.8-0.8-2.3-0.9-3.7c-0.3-0.2-0.9-0.2-0.9-0.7
			c0-0.9-0.5-1.2-0.9-1.6c-0.1,0.3-0.5,0.3-0.7,0.5c0.2-0.6-0.5-1.3-0.7-0.7c0.5,0.5,0.5,1.2-0.2,1.4c0.4-0.9-0.3-1.4-0.5-2.3
			c-0.7-0.2-0.6,0.3-1.2,0.2c0.2-0.9-0.4-1-0.7-1.4c0.5,0.1,1,0.3,1.4,0.5c0.3-0.9-0.7-0.5-1.2-0.7c-0.1,0-0.1-0.4-0.2-0.5
			c-0.1-0.1-0.9-0.2-0.9-0.2c-0.4,0-1.1-0.2-1.2,0.2c0.1,0.1,1.1,0.3,0.5,0.5c-1-0.6-2-1.3-3.7-1.2c-0.2-0.5-0.6-0.6-1.2-0.7
			c-0.8-0.1-1.1,0.2-1.6,0.2c-0.5-0.7-1.1-0.3-1.6-0.5c-0.1,0-0.4-0.3-0.5-0.2c-0.1,0-0.2,0.5-0.5,0.5c0,0-0.1-0.8-0.5-0.5
			c-0.6,0.4-1,1-1.9,1.2c0.2-0.3,0.3-0.6,0.2-1.2C19.4,10.3,19,11.3,18.8,10.6z M34.7,13.2c0,0.7,0.5,0.7,0.7,0.9
			c0.1,0.1-0.1,0.4,0,0.5c0.3,0.4,0.8,0.8,1.4,0.9C36.4,14.4,35.4,13.9,34.7,13.2z M4.4,15.3c0.4-0.6,0.5-1.3,0.7-2.1
			c-0.1-0.2,0-0.5-0.2-0.5C4.6,13.3,3.8,14.5,4.4,15.3z M3,19c0.1-0.4,0.4-1.5,0.5-1.6c0.1-0.3,0.2-0.5,0.2-0.7c0-0.1-0.2-0.3-0.2,0
			C3.4,17.4,2.4,18.3,3,19z M1.9,21.1c0,0.2,0,0.3,0,0.5c0.6,0.4,0.7-0.8,0.2-0.7C2.1,21,2.1,21.1,1.9,21.1z M40,23.2
			c-0.1-0.4,0.2-1.2-0.5-0.9C39.5,22.8,39.6,23.1,40,23.2z M39.8,24.8c0.2,0,0.3,0,0.5,0c0-0.3,0-0.6,0-0.9c-0.2,0-0.3,0-0.5,0
			C39.8,24.2,39.8,24.5,39.8,24.8z M37.7,32c0.5,0.4,0.5-0.2,0.9,0.2c0.5-0.6,0.5-1.6,0.9-2.1c0-0.3,0-0.7-0.2-0.7
			C38.6,30.2,37.8,30.8,37.7,32z M33.5,46.2c-0.2,0.3-0.6,0.3-0.9,0.5c-0.3,0.1-0.3,0.2-0.7,0.2c-0.2,0-0.1,0.2-0.2,0.2
			c-0.8,0.3-1.7,0.1-2.3,0.7c0.2,0,0.5,0,0.7,0c0.2,0,0.2,0.2,0.2,0.2c0.5,0.1,0.4-0.3,0.7,0c0.5,0.5,1.5-0.4,1.9-0.5
			c0.7-0.1,0.9-0.1,1.2-0.2c0.4-0.2,0.8-0.6,0.7-0.9C34.1,46.5,34.2,46,33.5,46.2z M18.4,47.4c-0.4,0-1.2-0.8-1.4-0.2
			C17.2,47.3,18.1,48,18.4,47.4z M21.6,48.1c-0.2-0.2-1.7-0.5-1.9,0C20.2,48.1,21.3,48.7,21.6,48.1z"/>
		<path class="st0" d="M13.5,3.2c0-0.3,0.2-0.1,0.2,0C13.5,3.6,11.5,3.7,13.5,3.2z"/>
		<path class="st0" d="M11.6,4.1C11.8,3.8,11.9,4.1,11.6,4.1c-0.3,0.3-0.6,0.4-0.9,0.7C10.4,5,10.3,5.3,10,5.5
			C9.5,5.9,8.8,6.2,8.4,6.7C7.9,6.4,8.7,6.1,8.8,6C9.5,5.4,10.6,4.5,11.6,4.1z"/>
		<path class="st0" d="M36.1,4.1c0.5-1,1.7,1.4,1.9,0c0.7,0.1,1.3,0.4,1.4,1.2C38.1,5.8,37.3,4.2,36.1,4.1z"/>
		<path class="st0" d="M15.1,4.1c-0.2,0.2-0.4,0.4-0.7,0.5C13.8,4.5,14.8,4.1,15.1,4.1z"/>
		<path class="st0" d="M11.6,4.6c0.8,0.5-0.6,0.6-0.7,0.9C10.3,5.2,11.5,4.9,11.6,4.6z"/>
		<path class="st0" d="M5.1,10.6c0.4,0.3-0.6,1.1-0.9,1.4C3.6,11.5,5.1,11.2,5.1,10.6z"/>
		<path class="st0" d="M19.5,12.7c-0.2,0.6-1.1,0.5-1.4,0.9c-0.4-0.2,0.1-0.1,0.2-0.2C18.6,13.2,18.8,12.7,19.5,12.7z"/>
		<path class="st0" d="M12.1,17.6c0.8,0.5-0.5,0.8-0.5,1.2C11.1,18.6,12,17.9,12.1,17.6z"/>
		<path class="st0" d="M85.4,22.5c-0.2,0.4-0.4,0-0.7,0c0,1-0.4,1.8-0.9,2.3c0,0.7,0,1.4,0,2.1c-0.5-0.1-0.2,0.7-0.5,0.9
			c0,0-0.2,0-0.2,0c-0.1,0.2-0.1,0.5-0.2,0.7c-0.1,0.1-0.4,0.1-0.5,0.2c-0.1,0.2-0.1,0.5-0.2,0.7c-0.2,0.3-0.8,0.6-1.2,0.9
			c-0.4,0.4-0.6,1-1.2,1.4c-0.1,0.1-0.4-0.1-0.5,0c-0.1,0.2-0.3,0.6-0.5,0.7c-0.1,0.1-0.4-0.1-0.5,0c0,0,0,0.2,0,0.2
			c-0.1,0-0.4-0.1-0.5,0c0,0,0,0.2,0,0.2c-0.1,0-0.4-0.1-0.5,0c-0.1,0.2-0.3,0.3-0.7,0.2c0,0-0.1-0.4-0.2-0.2
			c-0.2,0.2-1.2,0.7-2.1,0.5c-0.2,0-0.2-0.2-0.5-0.2c-0.2,0-0.4,0.3-0.7,0.2c0,0-0.1-0.2-0.2-0.2c-1.1-0.1-2.6-1-4-1.4
			c-0.2-0.5-0.5-1-0.9-1.4c-0.3-0.3-0.8-0.5-1.2-0.9c-0.2-0.2-0.2-0.8-0.5-1.2c-0.1-0.1-0.4-0.1-0.5-0.2c-0.1-0.1,0.1-0.4,0-0.5
			c-0.4-0.3-0.9-1.9-1.2-2.8c-0.1-0.4-0.4-1-0.5-1.4c-0.1-0.3,0.1-0.6,0-0.9c0-0.2-0.2-0.4-0.2-0.7c0-0.3,0.2-1,0.2-1.4
			c0.1-1.4,0.1-3.3,0.5-4.7c0-0.1-0.1-0.4,0-0.5c0.2-0.2,0.2-0.3,0.2-0.7c0-0.1,0-0.4,0-0.5c0.3-0.2,0.5-1.6,0.7-2.3
			c0.8-2.4,2-4.6,3.7-6.3c0.2-0.2,0.6-0.7,0.7-0.7c0.1-0.1,0.4,0.1,0.5,0c0,0,0-0.2,0-0.2c0.1,0,0.4,0.1,0.5,0c0,0,0-0.2,0-0.2
			c0.1,0,0.4,0.1,0.5,0c0,0,0-0.2,0-0.2c0.1,0,0.4,0.1,0.5,0c0.5-0.6,4.6-0.7,6.3-0.5c0.8,0.1,1.9,0.3,2.6,0.7
			c0.3,0.2,0.3-0.1,0.5,0.2c-0.1-0.1-0.3,0.2-0.2,0.2c0.1,0.1,0.7,0.4,0.9,0.7c0.1,0.1-0.1,0.4,0,0.5c0.2,0.2,0.7,0.4,0.9,0.7
			c0.1,0.1-0.1,0.4,0,0.5c0,0,0.2,0,0.2,0C83.6,7.6,84,8.4,84.2,9c0.1,0.3,0.1,0.8,0.2,1.2c0,0.1,0.2,0,0.2,0.2c0,0.1,0,0.2,0,0.2
			c0.1,0.3,0.1,0.4,0.2,1.2c0,0.1,0,0.4,0,0.5c0.5,0.4-0.1,0.4,0,1.2c0-0.1,0.2,0.1,0.2,0.2c0.1,0.4,0.2,0.6,0.2,0.9
			c0-0.1-0.4,0.1-0.2,0.2c0.3,0.3,0.6,1.5-0.5,1.6c0.3,0.2,0.4,0.3,0.5,0.7c0.2,1-0.3,3-0.5,4C84.8,21.7,85,22.2,85.4,22.5z
			 M80.3,12.7c-0.1-0.7-0.2-0.9-0.2-1.2c-0.1-0.3-0.2-0.5-0.2-0.7c-0.1-0.2,0.1-0.5,0-0.7c0-0.1-0.4-0.2-0.5-0.2
			c-0.2-0.2-0.1-0.5-0.2-0.7c-0.3-0.4-0.7-0.6-0.9-0.9c-1.8-0.2-1.1,2.1-2.3,2.6c-0.7,0.1-0.7-0.5-1.4-0.5c-0.6,0.5-1.5,0.6-2.1,1.2
			c-0.2,1.1-0.9,2.4-1.2,4.2c-0.1,0.4,0.1,0.8,0,1.2c-0.1,0.3-0.2,0.3-0.2,0.7c0,0.5,0.1,1.1,0,1.6c-0.1,0.5-0.3,0.7-0.2,1.2
			c0,1,0.7,4,1.2,4.4c0.1,0.1,0,0.4,0,0.5c0.4,1,1.1,2.3,1.6,2.8c0.1,0.1-0.1,0.4,0,0.5c0.2,0.2,0.5,0.1,0.7,0.2
			C74.5,29,75,29,75.4,29c1.2-0.2,1.6-1.5,2.3-2.6c0.5-0.4,0.5,0.2,0.9-0.2c0.2-0.6,0.6-0.9,0.7-1.6c0.3,0,0.3,0.3,0.7,0.2
			c0-0.3,0-0.7,0.2-0.7c-0.1-0.8,0.3-1.1,0.5-1.6c0-0.3-0.1-0.9,0.2-0.9c0,0.4,0.6,0.8,0.5,0c0-0.4-0.6-0.2-0.5-0.7
			c0.4-1.3,0.2-3.2,0.2-4.9c-0.5-0.1-0.5,0.3-0.7,0.5C80.7,15.2,80.4,13.5,80.3,12.7z M82.1,20.9c-0.3-1.1,0.6-3.4-0.7-3.5
			C81.6,18.6,81,20.6,82.1,20.9z M80.7,24.6c0.8,0.2,0.3-0.8,0.7-0.9C80.8,23.6,80.8,24.1,80.7,24.6z"/>
		<path class="st0" d="M65.1,3.6c0.1,2.2-1.4,3.9-2.1,5.8c-0.4,1-0.6,2-0.9,3c-0.5,1.6-0.9,2.9-1.4,4.7c-0.1,0.5-0.1,0.5-0.2,1.2
			c0,0.2-0.2,0.2-0.2,0.2c-0.2,1-0.2,2-0.5,3c-0.3,1.2-0.7,3.9-1.2,5.4c-0.3,1-0.7,2.5-0.5,4c-0.5,0.4-0.6,1.2-1.2,1.6
			c-0.2,1.4-0.7,2.6-2.1,2.8c0-0.5,0-0.9,0-1.4c-0.4,0.4-0.7-0.1-1.2-0.2c-0.3,0.2-0.5,0.6-0.5,1.2c-0.3,0-0.2-0.4-0.2-0.7
			c0-0.5-0.6,0.3-1.2,0c0.2-0.9-0.4-1-1.2-0.9c-0.3-0.8,0.9-1.2,0.2-1.6c0.5-3.1,1.2-6.2,1.9-9.3c0.1-0.5,0.1-1.1,0.2-1.6
			c0-0.1,0.5-0.4,0.5-0.5c0-0.2-0.4-0.4-0.2-0.7c-0.1-0.8-1-0.7-1.4-1.2c-0.8-1.1-3.1-3-4.2-4.4c-0.1-0.1-0.2,0-0.2-0.2
			c0-0.4-0.7-0.8-1.2-1.2c-0.6-0.5-2.1-1.7-2.1-2.8c0-0.9,0.7-1.2,1.2-1.9c1.1,0.1,1.9-0.1,2.8,0c0.4,0,0.4,0.2,0.7,0.2
			c0.5,0.1,0.7,0,1.2,0.2c0.1,0.1,0.2,0.2,0.2,0.2c0.4,0.2,0.7,0.4,1.2,0.7c0.1,0.1,0,0.2,0.2,0.2c0.5,0,0.2,0.5,0.5,0.7
			c0.1,0.1,0.4-0.1,0.5,0c0,0,0,0.2,0,0.2c0.3,0.4,0.8,0.8,1.2,1.4c0.2,0.4,0.6,0.7,1.2,1.2c0.3,0,0.3-0.3,0.5-0.5
			c0.3-0.3,0.3-0.3,0.5-0.9c0,0,0.2-0.7,0.2-0.7c0.2-0.2,0.2-0.2,0.2-0.5c0.1-0.2,0.2-0.4,0.2-0.7c0-0.2,0.2-0.2,0.2-0.2
			c0.1-0.4,0.1-1,0.2-1.4c0,0,0.2-0.1,0.2-0.2c0.1-0.5,0.3-0.8,0.5-1.4c0.3-1,0.8-2.2,1.4-3.3c0.2,0,0.2-0.2,0.5-0.2
			c0.2,0.1,0.2-0.2,0.2-0.2C60,2.7,60,2.9,60,2.9c0.5-0.1,0.8-0.3,1.4-0.2c0.5,0,0.6,0.2,0.9,0.2c0.2,0,0.8-0.1,0.9,0
			c0.1,0.1,0.5,0.3,0.9,0.5c0.1,0,0,0.2,0.2,0.2C64.7,3.6,64.9,3.6,65.1,3.6z"/>
	</g>
</g>
</svg>
