<?xml version="1.0" encoding="utf-8"?>
<!-- Generator: Adobe Illustrator 15.0.0, SVG Export Plug-In . SVG Version: 6.00 Build 0)  -->
<!DOCTYPE svg PUBLIC "-//W3C//DTD SVG 1.1//EN" "http://www.w3.org/Graphics/SVG/1.1/DTD/svg11.dtd">
<svg version="1.1"
	 id="Layer_1" inkscape:version="0.48.1 " sodipodi:docname="AJAX.svg" xmlns:inkscape="http://www.inkscape.org/namespaces/inkscape" xmlns:cc="http://creativecommons.org/ns#" xmlns:sodipodi="http://sodipodi.sourceforge.net/DTD/sodipodi-0.dtd" xmlns:rdf="http://www.w3.org/1999/02/22-rdf-syntax-ns#" xmlns:dc="http://purl.org/dc/elements/1.1/" xmlns:svg="http://www.w3.org/2000/svg"
	 xmlns="http://www.w3.org/2000/svg" xmlns:xlink="http://www.w3.org/1999/xlink" x="0px" y="0px" width="80.8px" height="50px"
	 viewBox="496.2 271.2 80.8 50" style="enable-background:new 496.2 271.2 80.8 50;" xml:space="preserve">
<sodipodi:namedview  fit-margin-right="0" inkscape:window-width="1280" fit-margin-bottom="0" inkscape:window-x="-8" inkscape:pageshadow="2" inkscape:current-layer="g3" inkscape:window-y="-8" inkscape:pageopacity="0" inkscape:window-height="1004" id="namedview17" fit-margin-left="0" borderopacity="1" inkscape:cy="159.5122" gridtolerance="10" fit-margin-top="0" showgrid="false" inkscape:cx="259.25" guidetolerance="10" bordercolor="#666666" inkscape:zoom="2.2187081" pagecolor="#ffffff" objecttolerance="10" inkscape:window-maximized="1">
	</sodipodi:namedview>
<g id="g3" transform="translate(-12.75,-6.84)">
	<path id="path5" inkscape:connector-curvature="0" d="M509,278c9.2,0,18.4,0,27.6,0c3.1,3.3,6.3,6.7,9.5,10c3.1-3.3,6.3-6.6,9.5-10
		c9.3,0,18.5,0,27.8,0c0,6.9,0,13.7,0,20.5c0,0.3,0.1,0.7-0.1,1c-2.3,3.8-4.3,7.7-5.8,11.8c-0.2,0.4-0.4,1-0.8,1.2
		c-0.4,0.2-0.9,0.1-1.1-0.3c-0.3-0.5-0.2-1.1-0.3-1.6c-0.2-2.1-0.5-4.2-0.8-6.3c-0.2-1.1-0.4-2.2-1.2-3c-0.7-0.7-1.9-0.8-2.8-0.6
		c-0.9,0.2-1.7,0.7-2.2,1.5c-0.6,1-0.6,2.2-0.4,3.3c0.4,1.9,1,3.8,1.7,5.6c1.3,3.5,2.7,7,4,10.4c0.3,0.9,0.9,1.8,1.8,2.2
		c0.8,0.3,1.7,0.3,2.5,0.2c0.7-0.1,1.3-0.6,1.7-1.2c0.7-1.1,0.9-2.4,1.3-3.7c0.8-2.5,1.5-5.1,2.6-7.6c0,5.4,0,10.8,0,16.3
		c-5.8,0-11.6,0-17.3,0c-0.2-2-0.4-4-0.3-6.1c0-2,0.1-3.9,0.1-5.9c0.1-2.9-0.3-5.7-0.5-8.6c-0.2-2.2,0.1-4.5-0.1-6.7
		c1.6-1,3.4-1.9,5-2.9c1.1-0.7,2.3-1.3,3.2-2.2c0.5-0.5,0.9-1.3,0.6-2c-0.7-1.4-2.4-2.1-3.8-1.5c-1.2,0.5-1.8,1.7-2.9,2.4
		c-1.3,0.8-2.7,1.6-4,2.4c-1-0.5-2.3-0.7-3.4-0.4c-0.6,0.2-1.2,0.6-1.4,1.2c-0.3,0.7,0,1.4-0.2,2.1c-0.1,0.4-0.4,0.7-0.8,0.9
		c-1.5,0.9-3,1.7-4.5,2.6c-1.5,0.9-3,1.9-4.8,2.4c-1,0.3-2.3,0.7-2.8,1.7c-0.5,1,0.1,2.2,0.9,2.9c0.7,0.7,1.8,0.8,2.7,0.5
		c1.2-0.4,2.1-1.2,3.1-1.9c1.2-0.9,2.4-1.8,3.7-2.7c0.7-0.5,1.3-1,2.1-1.2c0.5-0.2,1.2,0,1.4,0.6c0.5,1.2,0.4,2.5,0.4,3.8
		c0,4.2-0.4,8.4-0.5,12.6c0,2,0,3.9,0.1,5.9c-1.5,0-3.1,0-4.6,0c0-4.7,0-9.3,0-14c-2.9,2.4-5.8,4.9-8.7,7.3
		c-2.9-2.4-5.8-4.9-8.7-7.3c0,4.7,0,9.3,0,14c-9.5,0-18.9,0-28.4,0C509,311.4,509,294.7,509,278L509,278z"/>
	<path id="path7" inkscape:connector-curvature="0" d="M539.2,278c2.8,1.2,5.6,2.5,8.4,3.7c0.4,0.2,0.7,0.6,1,0.9
		c-0.8,0.9-1.7,1.8-2.5,2.7C543.8,282.9,541.5,280.5,539.2,278z"/>
	<path id="path9" inkscape:connector-curvature="0" d="M585.2,278c1.5,0.9,3.1,1.8,4.6,2.8c0,3.4,0,6.8,0,10.2
		c-1.6,1.8-3.2,3.7-4.6,5.7C585.2,290.4,585.2,284.2,585.2,278z"/>
	<path id="path11" inkscape:connector-curvature="0" d="M585.5,307c1.3-2.3,2.7-4.6,4.2-6.8c0,9.3,0,18.5,0,27.8c-1.5,0-3.1,0-4.6,0
		c0-6.6,0-13.3,0-19.9C585.1,307.7,585.4,307.3,585.5,307L585.5,307z"/>
	<path id="path13" inkscape:connector-curvature="0" d="M539.2,318.1c1.3,1.1,2.5,2.1,3.8,3.2c0,2.3,0,4.5,0,6.8c-1.3,0-2.5,0-3.8,0
		C539.2,324.7,539.2,321.4,539.2,318.1z"/>
	<path id="path15" inkscape:connector-curvature="0" d="M548.8,321.5c1.4-1.1,2.7-2.3,4.1-3.4c0,0.9,0,1.8,0,2.7
		c-0.3,0.2-0.6,0.4-0.8,0.7C551,321.5,549.9,321.5,548.8,321.5z"/>
</g>
</svg>
