<?xml version="1.0" encoding="utf-8"?>
<!-- Generator: Adobe Illustrator 15.0.0, SVG Export Plug-In . SVG Version: 6.00 Build 0)  -->
<!DOCTYPE svg PUBLIC "-//W3C//DTD SVG 1.1//EN" "http://www.w3.org/Graphics/SVG/1.1/DTD/svg11.dtd">
<svg version="1.1" id="Layer_1" xmlns="http://www.w3.org/2000/svg" xmlns:xlink="http://www.w3.org/1999/xlink" x="0px" y="0px"
	 width="92.2px" height="50px" viewBox="0 0 92.2 50" style="enable-background:new 0 0 92.2 50;" xml:space="preserve">
<style type="text/css">
<![CDATA[
	.st0{fill-rule:evenodd;clip-rule:evenodd;fill:#E30A13;}
	.st1{fill-rule:evenodd;clip-rule:evenodd;}
	.st2{fill-rule:evenodd;clip-rule:evenodd;fill:#FFFFFF;}
]]>
</style>
<g>
	<path class="st1" d="M12,14.6c1,0,2,0,3,0c0,5,0,9.9,0,14.9c-1,0-2,0-3,0C12,27.1,12,15.6,12,14.6z"/>
	<path class="st1" d="M16.3,14.6c1,0,2,0,2.9,0c0,4.1,0,8.2,0,12.3c1.5,0,3.3,0,4.9,0c0-0.5,0-1.2,0-2c0.8,0,1.9,0,2.5,0
		c0,1,0,3.3,0,4.6c-3.4,0-6.9,0-10.3,0C16.3,26.4,16.3,17.2,16.3,14.6z"/>
	<path class="st1" d="M27.8,14.6c6.2,5.4,0,0,6.2,5.4c6.2-5.4,0,0,6.2-5.4c0,2.8,0,12.5,0,14.9c-0.8,0-1.7,0-2.5,0
		c0-2.5,0-8.2,0-9.6c-3.8,3.2,0,0-3.8,3.2c-3.6-3.2,0,0-3.6-3.2c0,3.2,0,7.8,0,9.6c-0.9,0-1.7,0-2.6,0
		C27.8,24.6,27.8,19.6,27.8,14.6z"/>
	<path class="st1" d="M10.7,14.7c0,0.9,0,1.7,0,2.6c-2,0-4,0-6,0c0,0.5,0,2.3,0,3.4c1.2,0,3.2,0,4.8,0c0,0.8,0,1.7,0,2.5
		c-1.6,0-3.2,0-4.8,0c0,1.5,0,4.2,0,6.3c-0.9,0-1.9,0-2.8,0c0-1.9,0-5,0-6.3c-0.6,0-1.3,0-2,0c0-0.8,0-1.7,0-2.5c0.6,0,1.3,0,2,0
		c0-1.5,0-5,0-6C4.8,14.7,7.8,14.7,10.7,14.7z"/>
	<path class="st0" d="M86.7,0C71.9,0,57.2,0,42.4,0c-0.1,0-0.1,0.1-0.1,0.2c0,14.7-0.1,29.6,0.1,44.1c16.5,1.9,33.6,3.9,49.9,5.7
		C90.3,33.2,88.5,16.5,86.7,0z"/>
	<g>
		<path class="st2" d="M64.7,14.5c4.1-0.4,7,1.9,8.1,4.7c2.3,5.6-2.4,10.7-7.3,10.7c-4.3,0-7.7-3.4-7.7-7.7c0-1.5,0.7-3.4,1.1-4.1
			C59.9,16.4,61.9,14.8,64.7,14.5z M61.2,23.9c1.7,4.6,9.1,3.8,9.3-1.6c0.1-3.1-2.4-5.3-5.5-4.9C62.3,17.8,59.9,20.6,61.2,23.9z"/>
		<path class="st2" d="M54.6,21.7c1.4,0.5,2.4,1.6,2.3,3.4c0,1.2-0.7,2.4-1.3,3c-1.9,2-5.7,1.5-9.4,1.5c0-2.1,0-4.3,0-6.6
			c-0.6,0-1.3,0-2,0c0-0.5,0-1.6,0-2.3c0.6,0,1.3,0,2,0c0-1.9,0-5.2,0-6c3.2,0.1,6.7-0.5,8.5,1.1C56.1,17.1,56.7,20.5,54.6,21.7z
			 M53.3,18.7C53,17.1,51,17.3,49,17.3c-0.2,1,0,2.3-0.1,3.4C51.2,20.8,53.5,20.7,53.3,18.7z M53.7,25.7c0.9-2.4-2.2-3-4.7-2.7
			c-0.2,1.2,0,2.6-0.1,3.9C51,27,53.2,27.1,53.7,25.7z"/>
		<path class="st2" d="M72.5,14.7c1.1,0,2.1,0,3.2,0c1,1.6,1.8,3.4,2.9,5.1c1-1.6,1.9-3.4,2.9-5.1c1.1,0,2.2,0,3.3,0
			c-1.5,2.5-3,4.9-4.6,7.3c1.5,2.5,3.3,5.1,4.6,7.5c-1.1,0-2.1,0-3.2,0c-1-1.8-2-3.4-2.9-5.2c-1.1,1.6-2,3.5-3.1,5.2
			c-1.1,0-2.1,0-3.2,0c1.5-2.6,3.1-5,4.7-7.5C75.6,19.5,73.9,17.2,72.5,14.7z"/>
		<path class="st2" d="M73.7,34.5c0,0.9,0,1.9,0,2.8c0.4,0,1.4,0,2,0c0-0.8,0-1.8,0-2.8c0.8,0,1.6,0,2.4,0c0,2.5,0,5.6,0,7.9
			c-0.8,0-1.6,0-2.4,0c0-0.9,0-1.9,0-2.8c-0.7,0-1.4,0-2,0c0,0.8,0,1.9,0,2.8c-0.8,0-1.6,0-2.5,0c0-2.6,0-5.6,0-7.9
			C72,34.5,73,34.5,73.7,34.5z"/>
		<path class="st2" d="M79.1,34.5c4.3-0.4,7.8,0.5,7.6,4.2c-0.2,3.6-3.5,4-7.6,3.7C79.1,39.9,79.1,36,79.1,34.5z M81.5,36.9
			c0,1.1,0,2.2,0,3.3C84.9,41.2,85.1,35.9,81.5,36.9z"/>
	</g>
</g>
</svg>
