<?xml version="1.0" encoding="utf-8"?>
<!-- Generator: Adobe Illustrator 15.0.0, SVG Export Plug-In . SVG Version: 6.00 Build 0)  -->
<!DOCTYPE svg PUBLIC "-//W3C//DTD SVG 1.1//EN" "http://www.w3.org/Graphics/SVG/1.1/DTD/svg11.dtd">
<svg version="1.1"
	 id="svg6331" inkscape:version="0.48.2 r9819" sodipodi:docname="Puls 4 HD.svg" xmlns:dc="http://purl.org/dc/elements/1.1/" xmlns:cc="http://creativecommons.org/ns#" xmlns:rdf="http://www.w3.org/1999/02/22-rdf-syntax-ns#" xmlns:svg="http://www.w3.org/2000/svg" xmlns:sodipodi="http://sodipodi.sourceforge.net/DTD/sodipodi-0.dtd" xmlns:inkscape="http://www.inkscape.org/namespaces/inkscape"
	 xmlns="http://www.w3.org/2000/svg" xmlns:xlink="http://www.w3.org/1999/xlink" x="0px" y="0px" width="122px" height="28px"
	 viewBox="156.9 36 122 28" style="enable-background:new 156.9 36 122 28;" xml:space="preserve">
<style type="text/css">
<![CDATA[
	.st0{fill:#ED008C;}
	.st1{fill:#FFFFFF;}
]]>
</style>
<sodipodi:namedview  id="namedview9" inkscape:current-layer="svg6331" inkscape:window-y="-8" inkscape:window-x="-8" fit-margin-bottom="0" fit-margin-right="0" inkscape:window-height="1004" inkscape:window-width="1280" inkscape:pageshadow="2" inkscape:pageopacity="0" inkscape:window-maximized="1" inkscape:cy="-21.741537" inkscape:cx="375.03085" bordercolor="#666666" inkscape:zoom="1.1973675" pagecolor="#ffffff" guidetolerance="10" gridtolerance="10" fit-margin-left="0" objecttolerance="10" fit-margin-top="0" borderopacity="1" showgrid="false">
	</sodipodi:namedview>
<defs>
	
	
		<inkscape:perspective  id="perspective2918" inkscape:persp3d-origin="0.5 : 0.33333333 : 1" inkscape:vp_x="0 : 0.5 : 1" inkscape:vp_y="0 : 1000 : 0" sodipodi:type="inkscape:persp3d" inkscape:vp_z="1 : 0.5 : 1">
		</inkscape:perspective>
	
		<inkscape:perspective  id="perspective2936" inkscape:persp3d-origin="372.04724 : 350.78739 : 1" inkscape:vp_x="0 : 526.18109 : 1" inkscape:vp_y="0 : 1000 : 0" sodipodi:type="inkscape:persp3d" inkscape:vp_z="744.09448 : 526.18109 : 1">
		</inkscape:perspective>
</defs>
<g id="layer1" transform="matrix(0.76883902,0,0,0.76883902,-586.26532,-215.04605)">
	<g id="g6378">
		<path id="path1093" inkscape:connector-curvature="0" class="st0" d="M1125.4,357.5c0,3-2.5,5.5-5.5,5.5h-31.7
			c-3,0-5.5-2.5-5.5-5.5V332c0-3,2.5-5.5,5.5-5.5h31.7c3,0,5.5,2.5,5.5,5.5V357.5z"/>
		<path id="path1095" inkscape:connector-curvature="0" class="st1" d="M1115.4,342.4h-18.3c-0.8,0-1.3-0.4-1.3-1.3v-5.8
			c0-0.8-0.7-1.5-1.5-1.5h-1.6c-0.8,0-1.5,0.7-1.5,1.5v10.2c0,0.8,0.7,1.5,1.5,1.5h18.3c0.8,0,1.3,0.4,1.3,1.3v5.8
			c0,0.8,0.7,1.5,1.5,1.5h1.6c0.8,0,1.5-0.7,1.5-1.5v-10.2C1116.9,343.1,1116.2,342.4,1115.4,342.4"/>
		<path id="path1099" inkscape:connector-curvature="0" d="M968.1,333.8c-0.8,0-1.5,0.7-1.5,1.5v18.8c0,0.8,0.7,1.5,1.5,1.5h1.6
			c0.8,0,1.5-0.7,1.5-1.5v-5.8h15.6c5.9,0,8.8-2.4,8.8-6.1v-2.4c0-3.6-2.9-6-8.8-6H968.1z M999.5,333.8c-0.8,0-1.5,0.7-1.5,1.5v14.2
			c0,3.7,2.9,6.1,8.8,6.1h8.4c5.9,0,8.9-2.3,8.9-6.1v-14.2c0-0.8-0.7-1.5-1.5-1.5h-1.6c-0.8,0-1.5,0.7-1.5,1.5v13.3
			c0,1.9-2,2.3-4.2,2.3h-8.3c-2.2,0-4.2-0.4-4.2-2.3v-13.3c0-0.8-0.7-1.5-1.5-1.5H999.5z M1029.5,333.8c-0.8,0-1.5,0.7-1.5,1.5v14.3
			c0,3.7,3,6,8.9,6h29.9c5.9,0,8.9-2.4,8.9-6v-1.2c0-3.6-3-6-8.9-6h-9.2c-2.5,0-3.5-0.6-3.5-2c0-1.4,1-1.9,3.5-1.9h15.7
			c0.8,0,1.5-0.7,1.5-1.5v-1.6c0-0.8-0.7-1.5-1.5-1.5h-15.1c-5.9,0-8.8,2.4-8.8,6v1.2c0,3.6,2.9,6,8.8,6h9.2c2.5,0,3.5,0.6,3.5,2
			c0,1.4-1,2-3.5,2l-30.5,0c-2.2,0-4.2-0.4-4.2-2.3v-13.3c0-0.8-0.7-1.5-1.5-1.5H1029.5z M971.3,338.5h15.5c2.4,0,4.2,0.2,4.2,2.3
			v0.6c0,2.1-1.8,2.3-4.2,2.3h-15.5C971.3,342,971.3,340.1,971.3,338.5z"/>
	</g>
</g>
<g id="layer1-1" transform="matrix(0.39960178,0,0,0.39960178,300.52582,-183.85468)" inkscape:label="Ebene 1">
	<g id="g2903" transform="matrix(0.4394352,0,0,0.4394352,30.359396,664.40966)">
	</g>
</g>
</svg>
