<?xml version="1.0" encoding="utf-8"?>
<!-- Generator: Adobe Illustrator 15.0.0, SVG Export Plug-In . SVG Version: 6.00 Build 0)  -->
<!DOCTYPE svg PUBLIC "-//W3C//DTD SVG 1.1//EN" "http://www.w3.org/Graphics/SVG/1.1/DTD/svg11.dtd">
<svg version="1.1"
	 id="svg111522" inkscape:version="0.48.4 r9939" sodipodi:docname="spiegel_geschichte.svg" xmlns:dc="http://purl.org/dc/elements/1.1/" xmlns:cc="http://creativecommons.org/ns#" xmlns:rdf="http://www.w3.org/1999/02/22-rdf-syntax-ns#" xmlns:svg="http://www.w3.org/2000/svg" xmlns:sodipodi="http://sodipodi.sourceforge.net/DTD/sodipodi-0.dtd" xmlns:inkscape="http://www.inkscape.org/namespaces/inkscape"
	 xmlns="http://www.w3.org/2000/svg" xmlns:xlink="http://www.w3.org/1999/xlink" x="0px" y="0px" width="94.289px" height="28px"
	 viewBox="185.927 57.703 94.289 28" style="enable-background:new 185.927 57.703 94.289 28;" xml:space="preserve">
<style type="text/css">
<![CDATA[
	.st0{fill:#F04924;}
	.st1{fill:#FFFFFF;}
	.st2{fill:#0D1013;}
]]>
</style>
<g id="g108215" transform="matrix(16.430062,0,0,-16.430062,908.01421,212.93547)">
</g>
<g id="g108219" transform="matrix(16.430062,0,0,-16.430062,785.46238,255.98223)">
</g>
<g>
	<g id="g108223" transform="matrix(16.430062,0,0,-16.430062,425.49616,322.90187)">
		<path id="path108225" inkscape:connector-curvature="0" class="st2" d="M-14.581,14.763v0.002c0,0.18,0.14,0.328,0.332,0.328
			c0.114,0,0.183-0.031,0.249-0.087l-0.088-0.106c-0.049,0.041-0.092,0.064-0.166,0.064c-0.101,0-0.182-0.09-0.182-0.197v-0.002
			c0-0.116,0.08-0.201,0.192-0.201c0.051,0,0.096,0.013,0.131,0.038v0.091h-0.14v0.12h0.275v-0.275
			c-0.065-0.055-0.155-0.101-0.27-0.101C-14.445,14.437-14.581,14.575-14.581,14.763"/>
	</g>
	<g id="g108227" transform="matrix(16.430062,0,0,-16.430062,480.96405,297.43528)">
		<path id="path108229" inkscape:connector-curvature="0" class="st2" d="M-17.264,13.531h0.478v-0.124h-0.34v-0.129h0.299v-0.124
			h-0.299v-0.133h0.344v-0.124h-0.482"/>
	</g>
	<g id="g108231" transform="matrix(16.430062,0,0,-16.430062,-1247.1005,3290.7132)">
		<g>
			<g id="g108233">
				<g id="g108239" transform="translate(107.82,179.548)">
					<path id="path108241" inkscape:connector-curvature="0" class="st2" d="M-19.364,15.625l0.082,0.099
						c0.057-0.047,0.117-0.077,0.189-0.077c0.057,0,0.091,0.023,0.091,0.06v0.002c0,0.035-0.022,0.053-0.128,0.081
						c-0.128,0.032-0.21,0.068-0.21,0.194v0.002c0,0.115,0.092,0.191,0.222,0.191c0.092,0,0.171-0.029,0.235-0.08l-0.073-0.105
						c-0.056,0.039-0.111,0.062-0.165,0.062c-0.053,0-0.082-0.024-0.082-0.055v-0.002c0-0.041,0.027-0.055,0.137-0.083
						c0.129-0.033,0.201-0.08,0.201-0.19V15.72c0-0.126-0.096-0.197-0.232-0.197C-19.191,15.524-19.288,15.557-19.364,15.625"/>
				</g>
			</g>
		</g>
	</g>
	<path id="path108243" inkscape:connector-curvature="0" class="st2" d="M237.422,85.521h2.294V75.114h-2.294V85.521z"/>
	<g id="g108245" transform="matrix(16.430062,0,0,-16.430062,720.84295,338.69116)">
		<path id="path108247" inkscape:connector-curvature="0" class="st2" d="M-28.865,15.526c-0.109,0-0.184,0.091-0.184,0.199v0.002
			c0,0.108,0.077,0.197,0.184,0.197c0.063,0,0.113-0.027,0.162-0.072l0.089,0.102c-0.059,0.058-0.13,0.098-0.25,0.098
			c-0.195,0-0.33-0.148-0.33-0.328v-0.002c0-0.182,0.138-0.326,0.325-0.326c0.122,0,0.195,0.044,0.26,0.113l-0.089,0.09
			C-28.748,15.555-28.792,15.526-28.865,15.526"/>
	</g>
	<g id="g108249" transform="matrix(16.430062,0,0,-16.430062,780.08975,317.47995)">
		<path id="path108251" inkscape:connector-curvature="0" class="st2" d="M-31.73,14.501h-0.257v0.251h-0.139v-0.633h0.139v0.254
			h0.257v-0.254h0.139v0.633h-0.139"/>
	</g>
	<g id="g108253" transform="matrix(16.430062,0,0,-16.430062,569.17705,322.90187)">
		<path id="path108255" inkscape:connector-curvature="0" class="st2" d="M-21.53,14.763v0.002c0,0.18,0.136,0.328,0.331,0.328
			c0.119,0,0.191-0.04,0.25-0.098l-0.089-0.102c-0.049,0.044-0.099,0.072-0.162,0.072c-0.107,0-0.184-0.089-0.184-0.197v-0.002
			c0-0.109,0.075-0.199,0.184-0.199c0.072,0,0.117,0.029,0.167,0.074l0.089-0.09c-0.065-0.069-0.138-0.113-0.26-0.113
			C-21.391,14.437-21.53,14.581-21.53,14.763"/>
	</g>
	<g id="g108257" transform="matrix(16.430062,0,0,-16.430062,621.86826,297.43528)">
		<path id="path108259" inkscape:connector-curvature="0" class="st2" d="M-24.078,13.531h0.139v-0.251h0.257v0.251h0.139v-0.633
			h-0.139v0.254h-0.257v-0.254h-0.139"/>
	</g>
	<g id="g108261" transform="matrix(16.430062,0,0,-16.430062,797.83422,307.70407)">
		<path id="path108263" inkscape:connector-curvature="0" class="st2" d="M-32.588,14.028h0.193v-0.505h0.139v0.505h0.193v0.129
			h-0.525"/>
	</g>
	<g id="g108265" transform="matrix(16.430062,0,0,-16.430062,857.04816,327.55158)">
		<path id="path108267" inkscape:connector-curvature="0" class="st2" d="M-35.452,14.988h0.299v0.124h-0.299v0.128h0.339v0.124
			h-0.478v-0.633h0.482v0.124h-0.344"/>
	</g>
	<g id="g108269" transform="matrix(16.430062,0,0,-16.430062,647.40057,268.81411)">
		<path id="path108271" inkscape:connector-curvature="0" class="st0" d="M-25.313,12.147h-0.061c-0.332,0-0.663,0-0.995,0h-0.061
			c-0.014,0-0.027,0.006-0.037,0.014v-0.014h-0.061c-0.17,0-0.339,0-0.509,0h-0.061v0.085h0.039v0.348h-0.015v-0.149
			c0-0.031-0.024-0.057-0.055-0.057h-0.162v-0.142h0.038v-0.085h-0.242v0.013c-0.01-0.008-0.022-0.013-0.036-0.013h-0.266
			c-0.031,0-0.056,0.026-0.056,0.057v0.126h0.162v-0.098h0.051v0.142h-0.213v0.237c0,0.03,0.025,0.055,0.055,0.055h0.266
			c0.014,0,0.026-0.005,0.035-0.012v0.012h0.366c0.012,0,0.022-0.003,0.031-0.009v0.009h0.061c0.17,0,0.339,0,0.509,0h0.061v-0.014
			c0.01,0.009,0.022,0.014,0.036,0.014h0.266c0.015,0,0.028-0.006,0.038-0.015v0.015h0.061c0.173,0,0.347,0,0.52,0h0.061V12.58
			h-0.043v-0.348h0.055v0.098h0.16V12.147z M-25.156,12.849h-2.899V12h2.899V12.849z"/>
	</g>
	<path id="path108273" inkscape:connector-curvature="0" class="st0" d="M198.984,64.075h0.901v-1.95h-0.901V64.075z"/>
	<path id="path108275" inkscape:connector-curvature="0" class="st0" d="M214.838,67.841h0.901v-2.339h-0.901V67.841z"/>
	<g id="g108277" transform="matrix(16.430062,0,0,-16.430062,610.69581,239.93006)">
		<path id="path108279" inkscape:connector-curvature="0" class="st0" d="M-23.538,10.75h-0.1v0.072h-0.057v-0.119h0.157v-0.087
			h-0.157v-0.142h0.057v0.098h0.161v-0.098h0.019v0.348h-0.019V10.75"/>
	</g>
	<g id="g108281" transform="matrix(16.430062,0,0,-16.430062,578.73934,239.93006)">
		<path id="path108283" inkscape:connector-curvature="0" class="st0" d="M-21.992,10.75h-0.105v0.072h-0.051v-0.119h0.218v-0.229
			h0.02v0.348h-0.021V10.75"/>
	</g>
	<g id="g108285" transform="matrix(16.430062,0,0,-16.430062,547.02933,239.93006)">
		<path id="path108287" inkscape:connector-curvature="0" class="st0" d="M-20.459,10.75h-0.061v0.072h-0.057v-0.119h0.157v-0.087
			h-0.157v-0.142h0.057v0.098h0.142v0.178h-0.042"/>
	</g>
	<path id="path108289" inkscape:connector-curvature="0" class="st0" d="M205.457,67.841h0.847v-5.713h-0.847V67.841z"/>
	<g id="g108291" transform="matrix(16.430062,0,0,-16.430062,469.47943,239.93006)">
		<path id="path108293" inkscape:connector-curvature="0" class="st0" d="M-16.708,10.75h-0.103v0.072h-0.051v-0.119h0.215v-0.229
			h0.02v0.348h-0.02V10.75"/>
	</g>
	<g id="g108295" transform="matrix(16.430062,0,0,-16.430062,484.18434,262.01206)">
		<path id="path108297" inkscape:connector-curvature="0" class="st2" d="M-17.419,11.818h0.038v-0.085h0.061v0.085h-0.038v0.142
			h-0.061"/>
	</g>
	<path id="path108299" inkscape:connector-curvature="0" class="st2" d="M210.526,65.499h1.006v-1.424h-1.006V65.499z"/>
	<g id="g108301" transform="matrix(16.430062,0,0,-16.430062,469.47943,231.61645)">
		<path id="path108303" inkscape:connector-curvature="0" class="st2" d="M-16.708,10.348v-0.104h0.061v0.072h-0.02v0.074
			c-0.01,0.008-0.022,0.013-0.036,0.013h-0.061C-16.733,10.402-16.708,10.379-16.708,10.348"/>
	</g>
	<path id="path108305" inkscape:connector-curvature="0" class="st2" d="M191.425,67.838h1.006v-1.606h-1.006V67.838z"/>
	<path id="path108307" inkscape:connector-curvature="0" class="st2" d="M191.425,64.075h1.006v-1.95h-1.006V64.075z"/>
	<g id="g108309" transform="matrix(16.430062,0,0,-16.430062,474.35916,262.01206)">
		<path id="path108311" inkscape:connector-curvature="0" class="st2" d="M-16.944,11.818v0.229h-0.061v-0.26
			c0-0.03-0.024-0.054-0.055-0.054h0.061c0.014,0,0.026,0.005,0.035,0.013v0.072"/>
	</g>
	<g id="g108313" transform="matrix(16.430062,0,0,-16.430062,504.52476,228.01827)">
		<path id="path108315" inkscape:connector-curvature="0" class="st2" d="M-18.403,10.174c-0.009,0.006-0.019,0.009-0.031,0.009
			h-0.061c0.031,0,0.055-0.024,0.055-0.055v-0.18c0-0.031-0.024-0.057-0.055-0.057h0.061c0.031,0,0.055,0.026,0.055,0.057v0.149
			h-0.024"/>
	</g>
	<path id="path108317" inkscape:connector-curvature="0" class="st2" d="M197.982,64.075h1.005v-1.95h-1.005V64.075z"/>
	<g id="g108319" transform="matrix(16.430062,0,0,-16.430062,520.57693,262.01206)">
		<path id="path108321" inkscape:connector-curvature="0" class="st2" d="M-19.179,11.818v0.348h0.014v0.087h-0.037v-0.087h-0.038
			v-0.348h0.038v-0.085h0.037v0.085"/>
	</g>
	<g id="g108323" transform="matrix(16.430062,0,0,-16.430062,553.48634,239.93006)">
		<path id="path108325" inkscape:connector-curvature="0" class="st2" d="M-20.771,10.75v0.103c0,0.017,0.007,0.032,0.019,0.042
			v0.014h-0.061V10.75"/>
	</g>
	<path id="path108327" inkscape:connector-curvature="0" class="st2" d="M207.944,64.075h1.006v-1.95h-1.006V64.075z"/>
	<path id="path108329" inkscape:connector-curvature="0" class="st2" d="M207.944,67.838h1.006v-2.339h-1.006V67.838z"/>
	<g id="g108331" transform="matrix(16.430062,0,0,-16.430062,553.48634,264.46014)">
		<path id="path108333" inkscape:connector-curvature="0" class="st2" d="M-20.771,11.936v0.129h-0.042v-0.183h0.061v0.014
			C-20.763,11.906-20.771,11.92-20.771,11.936"/>
	</g>
	<g id="g108335" transform="matrix(16.430062,0,0,-16.430062,561.37277,234.17954)">
		<path id="path108337" inkscape:connector-curvature="0" class="st2" d="M-21.152,10.472v-0.348h0.061v0.142h-0.028v0.087h0.028
			v0.119"/>
	</g>
	<g id="g108339" transform="matrix(16.430062,0,0,-16.430062,578.73934,231.73146)">
		<path id="path108341" inkscape:connector-curvature="0" class="st2" d="M-21.992,10.354v-0.103h0.061v0.072h-0.017v0.071
			c-0.01,0.01-0.023,0.016-0.038,0.016h-0.061C-22.017,10.409-21.992,10.384-21.992,10.354"/>
	</g>
	<g id="g108343" transform="matrix(16.430062,0,0,-16.430062,583.68479,262.01206)">
		<path id="path108345" inkscape:connector-curvature="0" class="st2" d="M-22.232,11.818v0.229h-0.061v-0.314h0.044v0.085"/>
	</g>
	<g id="g108347" transform="matrix(16.430062,0,0,-16.430062,615.6084,239.93006)">
		<path id="path108349" inkscape:connector-curvature="0" class="st2" d="M-23.775,10.75v0.072h-0.02v0.087h-0.041V10.75"/>
	</g>
	<path id="path108351" inkscape:connector-curvature="0" class="st2" d="M220.387,67.838h1.006v-2.339h-1.006V67.838z"/>
	<path id="path108353" inkscape:connector-curvature="0" class="st2" d="M222.969,65.499h1.006v-1.424h-1.006V65.499z"/>
	<path id="path108355" inkscape:connector-curvature="0" class="st2" d="M220.387,64.075h1.006v-1.95h-1.006V64.075z"/>
	<g id="g108357" transform="matrix(16.430062,0,0,-16.430062,615.6084,262.01206)">
		<path id="path108359" inkscape:connector-curvature="0" class="st2" d="M-23.775,11.818v0.098h-0.061v-0.183h0.041v0.085"/>
	</g>
	<path id="path108361" inkscape:connector-curvature="0" class="st2" d="M230.497,69.238h1.005v-3.007h-1.005V69.238z"/>
	<g id="g108363" transform="matrix(16.430062,0,0,-16.430062,625.28571,234.17954)">
		<path id="path108365" inkscape:connector-curvature="0" class="st2" d="M-24.243,10.472v-0.348h0.061v0.348h0.043v0.086H-24.2
			v-0.086"/>
	</g>
	<g id="g108367" transform="matrix(16.430062,0,0,-16.430062,469.47943,264.46014)">
		<path id="path108369" inkscape:connector-curvature="0" class="st1" d="M-16.708,11.936v0.26h-0.215v0.119h0.112v-0.072h0.103
			v0.104c0,0.031-0.025,0.054-0.056,0.054h-0.205c-0.03,0-0.055-0.025-0.055-0.055V12.11h0.213v-0.142h-0.112v0.098h-0.101v-0.127
			c0-0.031,0.025-0.056,0.056-0.056h0.205C-16.733,11.882-16.708,11.906-16.708,11.936"/>
	</g>
	<path id="path108371" inkscape:connector-curvature="0" class="st1" d="M197.982,62.124h1.903v1.95h-1.903V62.124z M201.549,64.568
		v-2.959c0-0.506-0.401-0.904-0.908-0.904h-5.011v1.42h0.665v5.713h-0.654v1.4h2.973v-1.4h-0.631v-2.339h2.659
		C201.148,65.499,201.549,65.074,201.549,64.568"/>
	<g id="g108373" transform="matrix(16.430062,0,0,-16.430062,515.6972,262.01206)">
		<path id="path108375" inkscape:connector-curvature="0" class="st1" d="M-18.943,11.818v0.348h0.038v0.087h-0.178v-0.087h0.039
			v-0.348h-0.039v-0.085h0.178v0.085"/>
	</g>
	<g id="g108377" transform="matrix(16.430062,0,0,-16.430062,547.02933,254.17492)">
		<path id="path108379" inkscape:connector-curvature="0" class="st1" d="M-20.459,11.439h-0.061v-0.098h-0.118v0.142h0.157v0.087
			h-0.157v0.119h0.118v-0.072h0.1v0.159h-0.356v-0.087h0.038v-0.348h-0.038v-0.085h0.356v0.183"/>
	</g>
	<g id="g108381" transform="matrix(16.430062,0,0,-16.430062,568.88131,243.67612)">
		<path id="path108383" inkscape:connector-curvature="0" class="st1" d="M-21.516,10.931h-0.061v-0.087h0.083v-0.142h-0.116v0.348
			h0.112v-0.072h0.105v0.103c0,0.031-0.024,0.056-0.055,0.056h-0.205c-0.014,0-0.026-0.005-0.036-0.014
			c-0.012-0.01-0.019-0.025-0.019-0.042v-0.409c0-0.016,0.008-0.03,0.019-0.04c0.01-0.009,0.023-0.014,0.037-0.014h0.26v0.314"/>
	</g>
	<g id="g108385" transform="matrix(16.430062,0,0,-16.430062,607.60696,254.17492)">
		<path id="path108387" inkscape:connector-curvature="0" class="st1" d="M-23.388,11.439h-0.061v-0.098h-0.118v0.142h0.157v0.087
			h-0.157v0.119h0.118v-0.072h0.1v0.159h-0.355v-0.087h0.038v-0.348h-0.038v-0.085h0.355v0.183"/>
	</g>
	<g id="g108389" transform="matrix(16.430062,0,0,-16.430062,639.46485,254.17492)">
		<path id="path108391" inkscape:connector-curvature="0" class="st1" d="M-24.929,11.439h-0.061v-0.098h-0.116v0.348h0.043v0.087
			h-0.184v-0.087h0.039v-0.348h-0.04v-0.085h0.357v0.183"/>
	</g>
</g>
</svg>
