<?xml version="1.0" encoding="utf-8"?>
<!-- Generator: Adobe Illustrator 15.0.0, SVG Export Plug-In . SVG Version: 6.00 Build 0)  -->
<!DOCTYPE svg PUBLIC "-//W3C//DTD SVG 1.1//EN" "http://www.w3.org/Graphics/SVG/1.1/DTD/svg11.dtd">
<svg version="1.1"
	 id="Layer_1" xmlns:inkscape="http://www.inkscape.org/namespaces/inkscape" xmlns:sodipodi="http://sodipodi.sourceforge.net/DTD/sodipodi-0.dtd" xmlns:svg="http://www.w3.org/2000/svg" xmlns:rdf="http://www.w3.org/1999/02/22-rdf-syntax-ns#" xmlns:cc="http://creativecommons.org/ns#" xmlns:dc="http://purl.org/dc/elements/1.1/"
	 xmlns="http://www.w3.org/2000/svg" xmlns:xlink="http://www.w3.org/1999/xlink" x="0px" y="0px" width="122.8px" height="50px"
	 viewBox="216.9 -274.9 122.8 50" style="enable-background:new 216.9 -274.9 122.8 50;" xml:space="preserve">
<style type="text/css">
<![CDATA[
	.st0{fill:#250858;}
	.st1{fill:#0094D9;}
]]>
</style>
<path class="st0" d="M288.3-224.9v-35.2h8.6v6.9h0.1c0.5-5,3.1-7.5,8-7.5h3.4c4.2,0,7.2,2.7,8.9,8.2c0.8-3.2,1.8-5.4,3.1-6.6
	c1.2-1.1,3-1.6,5.4-1.6h2.8c3.8,0,6.6,1.3,8.4,3.8c1.8,2.6,2.7,6.6,2.7,12.1v19.8h-9v-18.9c0-2.9-0.5-4.7-1.6-5.6
	c-0.8-0.6-2.2-0.9-4.5-0.9c-1.9,0-3.3,0.3-4.2,0.9c-1.3,0.9-1.9,2.6-1.9,5.1v19.4h-9v-20c0-2.5-0.7-4.2-2.1-4.9
	c-0.7-0.4-2.2-0.6-4.4-0.6c-1.9,0-3.3,0.4-4.1,1.2c-1,1.1-1.5,2.9-1.5,5.6v18.6L288.3-224.9"/>
<polygon class="st0" points="269.6,-274.9 280.6,-274.9 280.6,-224.9 269.6,-224.9 269.6,-274.9 "/>
<polygon class="st0" points="249.7,-274.9 260.7,-274.9 260.7,-264.5 249.7,-264.5 249.7,-274.9 "/>
<polygon class="st0" points="249.7,-260.1 260.7,-260.1 260.7,-224.9 249.7,-224.9 249.7,-260.1 "/>
<path class="st0" d="M222.1-224.9h11.5v-24.2h10.9v-9.8h-10.9v-1.8c0-2.1,0.5-3.2,1.6-3.9c0.8-0.5,1.1-0.4,4.1-0.6h4.6v-9.8
	c-0.9,0-2.2,0-3.9,0c-1.8,0-4.8,0-5.6,0c-4.6,0-6.2,0.3-8.3,1.9c-2.7,2-4,5.7-4,11.2v2.9h-5.3v9.8h5.3V-224.9z"/>
<rect x="233.4" y="-265.1" class="st1" width="27.4" height="6.2"/>
<rect x="243.5" y="-274.9" class="st1" width="6.2" height="25.8"/>
</svg>
