<?xml version="1.0" encoding="utf-8"?>
<!-- Generator: Adobe Illustrator 15.0.0, SVG Export Plug-In . SVG Version: 6.00 Build 0)  -->
<!DOCTYPE svg PUBLIC "-//W3C//DTD SVG 1.1//EN" "http://www.w3.org/Graphics/SVG/1.1/DTD/svg11.dtd">
<svg version="1.1"
	 id="svg111522" inkscape:version="0.48.4 r9939" sodipodi:docname="spiegel_geschichte.svg" xmlns:inkscape="http://www.inkscape.org/namespaces/inkscape" xmlns:sodipodi="http://sodipodi.sourceforge.net/DTD/sodipodi-0.dtd" xmlns:svg="http://www.w3.org/2000/svg" xmlns:rdf="http://www.w3.org/1999/02/22-rdf-syntax-ns#" xmlns:cc="http://creativecommons.org/ns#" xmlns:dc="http://purl.org/dc/elements/1.1/"
	 xmlns="http://www.w3.org/2000/svg" xmlns:xlink="http://www.w3.org/1999/xlink" x="0px" y="0px" width="110px" height="32.666px"
	 viewBox="185.927 53.038 110 32.666" style="enable-background:new 185.927 53.038 110 32.666;" xml:space="preserve">
<style type="text/css">
<![CDATA[
	.st0{fill:#F04924;}
	.st1{fill:#FFFFFF;}
	.st2{fill:#0D1013;}
]]>
</style>
<g id="g108215" transform="matrix(16.430062,0,0,-16.430062,908.01421,212.93547)">
</g>
<g id="g108219" transform="matrix(16.430062,0,0,-16.430062,785.46238,255.98223)">
</g>
<g>
	<g id="g108223" transform="matrix(16.430062,0,0,-16.430062,425.49616,322.90187)">
		<path id="path108225" inkscape:connector-curvature="0" class="st2" d="M-14.581,14.817v0.002c0,0.21,0.164,0.382,0.387,0.382
			c0.133,0,0.214-0.036,0.29-0.101l-0.102-0.124c-0.057,0.048-0.108,0.075-0.193,0.075c-0.118,0-0.212-0.104-0.212-0.23v-0.002
			c0-0.135,0.093-0.234,0.224-0.234c0.059,0,0.112,0.015,0.153,0.044v0.106h-0.164v0.14h0.321v-0.321
			c-0.076-0.065-0.18-0.117-0.316-0.117C-14.423,14.437-14.581,14.599-14.581,14.817"/>
	</g>
	<g id="g108227" transform="matrix(16.430062,0,0,-16.430062,480.96405,297.43528)">
		<path id="path108229" inkscape:connector-curvature="0" class="st2" d="M-17.148,13.639h0.558v-0.144h-0.396v-0.15h0.348v-0.145
			h-0.348v-0.155h0.401V12.9h-0.563"/>
	</g>
	<g id="g108231" transform="matrix(16.430062,0,0,-16.430062,-1247.1005,3290.7132)">
		<g>
			<g id="g108233">
				<g id="g108239" transform="translate(107.82,179.548)">
					<path id="path108241" inkscape:connector-curvature="0" class="st2" d="M-19.158,15.642l0.096,0.115
						c0.066-0.055,0.136-0.09,0.221-0.09c0.067,0,0.107,0.026,0.107,0.07v0.002c0,0.041-0.025,0.062-0.149,0.094
						c-0.149,0.038-0.245,0.079-0.245,0.226v0.002c0,0.134,0.108,0.223,0.259,0.223c0.108,0,0.199-0.034,0.275-0.094l-0.085-0.122
						c-0.065,0.045-0.13,0.073-0.192,0.073c-0.062,0-0.095-0.029-0.095-0.064v-0.002c0-0.048,0.032-0.064,0.16-0.097
						c0.15-0.039,0.234-0.093,0.234-0.222v-0.002c0-0.147-0.112-0.229-0.271-0.229C-18.956,15.524-19.069,15.563-19.158,15.642"/>
				</g>
			</g>
		</g>
	</g>
	<path id="path108243" inkscape:connector-curvature="0" class="st2" d="M246.002,85.491h2.677V73.349h-2.677V85.491z"/>
	<g id="g108245" transform="matrix(16.430062,0,0,-16.430062,720.84295,338.69116)">
		<path id="path108247" inkscape:connector-curvature="0" class="st2" d="M-28.25,15.548c-0.127,0-0.214,0.106-0.214,0.233v0.002
			c0,0.126,0.09,0.23,0.214,0.23c0.074,0,0.132-0.032,0.189-0.083l0.104,0.119c-0.069,0.068-0.152,0.114-0.291,0.114
			c-0.227,0-0.385-0.172-0.385-0.382v-0.002c0-0.212,0.161-0.38,0.379-0.38c0.143,0,0.227,0.051,0.303,0.132l-0.103,0.104
			C-28.113,15.582-28.165,15.548-28.25,15.548"/>
	</g>
	<g id="g108249" transform="matrix(16.430062,0,0,-16.430062,780.08975,317.47995)">
		<path id="path108251" inkscape:connector-curvature="0" class="st2" d="M-30.992,14.566h-0.3v0.292h-0.163V14.12h0.163v0.297h0.3
			V14.12h0.163v0.739h-0.163"/>
	</g>
	<g id="g108253" transform="matrix(16.430062,0,0,-16.430062,569.17705,322.90187)">
		<path id="path108255" inkscape:connector-curvature="0" class="st2" d="M-21.231,14.817v0.002c0,0.21,0.158,0.382,0.386,0.382
			c0.139,0,0.223-0.046,0.291-0.114l-0.104-0.119c-0.057,0.052-0.115,0.083-0.189,0.083c-0.125,0-0.214-0.104-0.214-0.23v-0.002
			c0-0.127,0.088-0.233,0.214-0.233c0.084,0,0.136,0.034,0.194,0.086l0.104-0.105c-0.076-0.081-0.161-0.132-0.303-0.132
			C-21.069,14.437-21.231,14.605-21.231,14.817"/>
	</g>
	<g id="g108257" transform="matrix(16.430062,0,0,-16.430062,621.86826,297.43528)">
		<path id="path108259" inkscape:connector-curvature="0" class="st2" d="M-23.669,13.639h0.162v-0.292h0.3v0.292h0.163V12.9h-0.163
			v0.297h-0.3V12.9h-0.162"/>
	</g>
	<g id="g108261" transform="matrix(16.430062,0,0,-16.430062,797.83422,307.70407)">
		<path id="path108263" inkscape:connector-curvature="0" class="st2" d="M-31.813,14.114h0.225v-0.589h0.162v0.589h0.225v0.15
			h-0.612"/>
	</g>
	<g id="g108265" transform="matrix(16.430062,0,0,-16.430062,857.04816,327.55158)">
		<path id="path108267" inkscape:connector-curvature="0" class="st2" d="M-34.553,15.032h0.348v0.145h-0.348v0.15h0.396v0.145
			h-0.557v-0.739h0.563v0.145h-0.401"/>
	</g>
	<g id="g108269" transform="matrix(16.430062,0,0,-16.430062,647.40057,268.81411)">
		<path id="path108271" inkscape:connector-curvature="0" class="st0" d="M-24.851,12.314h-0.071c-0.387,0-0.774,0-1.161,0h-0.071
			c-0.017,0-0.032,0.006-0.044,0.016v-0.016h-0.071c-0.198,0-0.396,0-0.594,0h-0.071v0.099h0.046v0.406h-0.017v-0.173
			c0-0.036-0.029-0.066-0.064-0.066h-0.189v-0.166h0.045v-0.099h-0.282v0.015c-0.011-0.009-0.025-0.015-0.041-0.015h-0.31
			c-0.036,0-0.065,0.03-0.065,0.066v0.147h0.189v-0.114h0.06v0.166h-0.249v0.276c0,0.035,0.029,0.064,0.064,0.064h0.31
			c0.016,0,0.03-0.005,0.041-0.014v0.014h0.427c0.013,0,0.026-0.004,0.036-0.011v0.011h0.071c0.198,0,0.396,0,0.594,0h0.071v-0.016
			c0.011,0.01,0.026,0.016,0.042,0.016h0.311c0.018,0,0.033-0.007,0.045-0.018v0.018h0.071c0.202,0,0.405,0,0.607,0h0.071v-0.101
			h-0.05v-0.406h0.064v0.114h0.187V12.314z M-24.667,13.133h-3.382v-0.99h3.382V13.133z"/>
	</g>
	<path id="path108273" inkscape:connector-curvature="0" class="st0" d="M201.16,60.471h1.051v-2.275h-1.051V60.471z"/>
	<path id="path108275" inkscape:connector-curvature="0" class="st0" d="M219.656,64.865h1.051v-2.729h-1.051V64.865z"/>
	<g id="g108277" transform="matrix(16.430062,0,0,-16.430062,610.69581,239.93006)">
		<path id="path108279" inkscape:connector-curvature="0" class="st0" d="M-23.152,10.977h-0.116v0.084h-0.066v-0.138h0.183v-0.101
			h-0.183v-0.166h0.066v0.114h0.188v-0.114h0.023v0.406h-0.023v-0.084"/>
	</g>
	<g id="g108281" transform="matrix(16.430062,0,0,-16.430062,578.73934,239.93006)">
		<path id="path108283" inkscape:connector-curvature="0" class="st0" d="M-21.673,10.977h-0.122v0.084h-0.06v-0.138h0.254v-0.267
			h0.023v0.406h-0.024v-0.084"/>
	</g>
	<g id="g108285" transform="matrix(16.430062,0,0,-16.430062,547.02933,239.93006)">
		<path id="path108287" inkscape:connector-curvature="0" class="st0" d="M-20.206,10.977h-0.071v0.084h-0.066v-0.138h0.183v-0.101
			h-0.183v-0.166h0.066v0.114h0.166v0.208h-0.049"/>
	</g>
	<path id="path108289" inkscape:connector-curvature="0" class="st0" d="M208.711,64.865h0.987V58.2h-0.987V64.865z"/>
	<g id="g108291" transform="matrix(16.430062,0,0,-16.430062,469.47943,239.93006)">
		<path id="path108293" inkscape:connector-curvature="0" class="st0" d="M-16.617,10.977h-0.12v0.084h-0.06v-0.138h0.251v-0.267
			h0.023v0.406h-0.023v-0.084"/>
	</g>
	<g id="g108295" transform="matrix(16.430062,0,0,-16.430062,484.18434,262.01206)">
		<path id="path108297" inkscape:connector-curvature="0" class="st2" d="M-17.297,11.999h0.045V11.9h0.071v0.099h-0.045v0.166
			h-0.071"/>
	</g>
	<path id="path108299" inkscape:connector-curvature="0" class="st2" d="M214.625,62.132h1.173v-1.662h-1.173V62.132z"/>
	<g id="g108301" transform="matrix(16.430062,0,0,-16.430062,469.47943,231.61645)">
		<path id="path108303" inkscape:connector-curvature="0" class="st2" d="M-16.617,10.592v-0.121h0.071v0.084h-0.024v0.086
			c-0.012,0.009-0.026,0.015-0.041,0.015h-0.071C-16.646,10.656-16.617,10.628-16.617,10.592"/>
	</g>
	<path id="path108305" inkscape:connector-curvature="0" class="st2" d="M192.341,64.861h1.173v-1.874h-1.173V64.861z"/>
	<path id="path108307" inkscape:connector-curvature="0" class="st2" d="M192.341,60.471h1.173v-2.275h-1.173V60.471z"/>
	<g id="g108309" transform="matrix(16.430062,0,0,-16.430062,474.35916,262.01206)">
		<path id="path108311" inkscape:connector-curvature="0" class="st2" d="M-16.842,11.999v0.267h-0.071v-0.303
			c0-0.035-0.028-0.064-0.064-0.064h0.071c0.016,0,0.03,0.006,0.041,0.015v0.084"/>
	</g>
	<g id="g108313" transform="matrix(16.430062,0,0,-16.430062,504.52476,228.01827)">
		<path id="path108315" inkscape:connector-curvature="0" class="st2" d="M-18.239,10.426c-0.01,0.007-0.023,0.011-0.036,0.011
			h-0.071c0.036,0,0.064-0.028,0.064-0.064v-0.21c0-0.036-0.029-0.066-0.064-0.066h0.071c0.036,0,0.064,0.03,0.064,0.066v0.173
			h-0.028"/>
	</g>
	<path id="path108317" inkscape:connector-curvature="0" class="st2" d="M199.991,60.471h1.173v-2.275h-1.173V60.471z"/>
	<g id="g108319" transform="matrix(16.430062,0,0,-16.430062,520.57693,262.01206)">
		<path id="path108321" inkscape:connector-curvature="0" class="st2" d="M-18.981,11.999v0.406h0.016v0.101h-0.043v-0.101h-0.045
			v-0.406h0.045V11.9h0.043v0.099"/>
	</g>
	<g id="g108323" transform="matrix(16.430062,0,0,-16.430062,553.48634,239.93006)">
		<path id="path108325" inkscape:connector-curvature="0" class="st2" d="M-20.504,10.977v0.12c0,0.019,0.009,0.037,0.022,0.049
			v0.016h-0.071v-0.185"/>
	</g>
	<path id="path108327" inkscape:connector-curvature="0" class="st2" d="M211.612,60.471h1.173v-2.275h-1.173V60.471z"/>
	<path id="path108329" inkscape:connector-curvature="0" class="st2" d="M211.612,64.861h1.173v-2.729h-1.173V64.861z"/>
	<g id="g108331" transform="matrix(16.430062,0,0,-16.430062,553.48634,264.46014)">
		<path id="path108333" inkscape:connector-curvature="0" class="st2" d="M-20.504,12.112v0.15h-0.049v-0.214h0.071v0.016
			C-20.496,12.077-20.504,12.094-20.504,12.112"/>
	</g>
	<g id="g108335" transform="matrix(16.430062,0,0,-16.430062,561.37277,234.17954)">
		<path id="path108337" inkscape:connector-curvature="0" class="st2" d="M-20.869,10.711v-0.406h0.071v0.166h-0.033v0.101h0.033
			v0.138"/>
	</g>
	<g id="g108339" transform="matrix(16.430062,0,0,-16.430062,578.73934,231.73146)">
		<path id="path108341" inkscape:connector-curvature="0" class="st2" d="M-21.673,10.598v-0.12h0.071v0.084h-0.02v0.083
			c-0.012,0.011-0.027,0.018-0.045,0.018h-0.071C-21.702,10.663-21.673,10.634-21.673,10.598"/>
	</g>
	<g id="g108343" transform="matrix(16.430062,0,0,-16.430062,583.68479,262.01206)">
		<path id="path108345" inkscape:connector-curvature="0" class="st2" d="M-21.902,11.999v0.267h-0.071V11.9h0.051v0.099"/>
	</g>
	<g id="g108347" transform="matrix(16.430062,0,0,-16.430062,615.6084,239.93006)">
		<path id="path108349" inkscape:connector-curvature="0" class="st2" d="M-23.379,10.977v0.084h-0.023v0.101h-0.048v-0.185"/>
	</g>
	<path id="path108351" inkscape:connector-curvature="0" class="st2" d="M226.129,64.861h1.173v-2.729h-1.173V64.861z"/>
	<path id="path108353" inkscape:connector-curvature="0" class="st2" d="M229.14,62.132h1.173v-1.662h-1.173V62.132z"/>
	<path id="path108355" inkscape:connector-curvature="0" class="st2" d="M226.129,60.471h1.173v-2.275h-1.173V60.471z"/>
	<g id="g108357" transform="matrix(16.430062,0,0,-16.430062,615.6084,262.01206)">
		<path id="path108359" inkscape:connector-curvature="0" class="st2" d="M-23.379,11.999v0.114h-0.071V11.9h0.047v0.099"/>
	</g>
	<path id="path108361" inkscape:connector-curvature="0" class="st2" d="M237.924,66.494h1.173v-3.508h-1.173V66.494z"/>
	<g id="g108363" transform="matrix(16.430062,0,0,-16.430062,625.28571,234.17954)">
		<path id="path108365" inkscape:connector-curvature="0" class="st2" d="M-23.827,10.711v-0.406h0.071v0.406h0.051v0.101h-0.071
			v-0.101"/>
	</g>
	<g id="g108367" transform="matrix(16.430062,0,0,-16.430062,469.47943,264.46014)">
		<path id="path108369" inkscape:connector-curvature="0" class="st1" d="M-16.617,12.112v0.303h-0.251v0.138h0.131V12.47h0.12
			v0.121c0,0.036-0.029,0.063-0.065,0.063h-0.239c-0.035,0-0.064-0.029-0.064-0.064v-0.276h0.249v-0.166h-0.131v0.114h-0.117v-0.148
			c0-0.036,0.029-0.066,0.065-0.066h0.239C-16.645,12.049-16.617,12.077-16.617,12.112"/>
	</g>
	<path id="path108371" inkscape:connector-curvature="0" class="st1" d="M199.991,58.196h2.22v2.275h-2.22V58.196z M204.152,61.046
		v-3.452c0-0.591-0.468-1.055-1.059-1.055h-5.846v1.657h0.775v6.665h-0.763v1.634h3.468v-1.634h-0.736v-2.729h3.102
		C203.684,62.132,204.152,61.636,204.152,61.046"/>
	<g id="g108373" transform="matrix(16.430062,0,0,-16.430062,515.6972,262.01206)">
		<path id="path108375" inkscape:connector-curvature="0" class="st1" d="M-18.756,11.999v0.406h0.045v0.101h-0.208v-0.101h0.046
			v-0.406h-0.046V11.9h0.208v0.099"/>
	</g>
	<g id="g108377" transform="matrix(16.430062,0,0,-16.430062,547.02933,254.17492)">
		<path id="path108379" inkscape:connector-curvature="0" class="st1" d="M-20.206,11.636h-0.071v-0.114h-0.138v0.166h0.183v0.101
			h-0.183v0.138h0.138v-0.084h0.117v0.185h-0.415v-0.101h0.044v-0.406h-0.044v-0.099h0.415v0.214"/>
	</g>
	<g id="g108381" transform="matrix(16.430062,0,0,-16.430062,568.88131,243.67612)">
		<path id="path108383" inkscape:connector-curvature="0" class="st1" d="M-21.217,11.151h-0.071V11.05h0.097v-0.166h-0.135v0.406
			h0.131v-0.084h0.122v0.12c0,0.036-0.029,0.065-0.064,0.065h-0.239c-0.016,0-0.031-0.006-0.042-0.016
			c-0.014-0.012-0.023-0.029-0.023-0.049v-0.478c0-0.018,0.009-0.035,0.023-0.047c0.012-0.01,0.027-0.016,0.044-0.016h0.303v0.367"
			/>
	</g>
	<g id="g108385" transform="matrix(16.430062,0,0,-16.430062,607.60696,254.17492)">
		<path id="path108387" inkscape:connector-curvature="0" class="st1" d="M-23.009,11.636h-0.071v-0.114h-0.138v0.166h0.183v0.101
			h-0.183v0.138h0.138v-0.084h0.116v0.185h-0.415v-0.101h0.044v-0.406h-0.044v-0.099h0.415v0.214"/>
	</g>
	<g id="g108389" transform="matrix(16.430062,0,0,-16.430062,639.46485,254.17492)">
		<path id="path108391" inkscape:connector-curvature="0" class="st1" d="M-24.483,11.636h-0.071v-0.114h-0.135v0.406h0.051v0.101
			h-0.215v-0.101h0.046v-0.406h-0.046v-0.099h0.416v0.214"/>
	</g>
</g>
</svg>
