<?xml version="1.0" encoding="utf-8"?>
<!-- Generator: Adobe Illustrator 15.0.0, SVG Export Plug-In . SVG Version: 6.00 Build 0)  -->
<!DOCTYPE svg PUBLIC "-//W3C//DTD SVG 1.1//EN" "http://www.w3.org/Graphics/SVG/1.1/DTD/svg11.dtd">
<svg version="1.1"
	 id="svg2" inkscape:version="0.48.2 r9819" sodipodi:docname="AJAX1.svg" xmlns:inkscape="http://www.inkscape.org/namespaces/inkscape" xmlns:sodipodi="http://sodipodi.sourceforge.net/DTD/sodipodi-0.dtd" xmlns:svg="http://www.w3.org/2000/svg" xmlns:rdf="http://www.w3.org/1999/02/22-rdf-syntax-ns#" xmlns:cc="http://creativecommons.org/ns#" xmlns:dc="http://purl.org/dc/elements/1.1/"
	 xmlns="http://www.w3.org/2000/svg" xmlns:xlink="http://www.w3.org/1999/xlink" x="0px" y="0px" width="42.23px" height="50px"
	 viewBox="69.66 60.48 42.23 50" style="enable-background:new 69.66 60.48 42.23 50;" xml:space="preserve">
<style type="text/css">
<![CDATA[
	.st0{fill:#9C1F23;}
]]>
</style>
<sodipodi:namedview  id="namedview6" inkscape:current-layer="svg2" inkscape:window-y="-8" inkscape:window-maximized="1" showgrid="false" borderopacity="1" fit-margin-top="0" objecttolerance="10" fit-margin-left="0" gridtolerance="10" guidetolerance="10" pagecolor="#ffffff" inkscape:zoom="0.94540784" bordercolor="#666666" inkscape:cx="0.28872283" inkscape:cy="96.484308" inkscape:pageopacity="0" inkscape:pageshadow="2" inkscape:window-width="1280" inkscape:window-height="1004" fit-margin-right="0" fit-margin-bottom="0" inkscape:window-x="-8">
	</sodipodi:namedview>
<path id="polygon2391" inkscape:connector-curvature="0" sodipodi:nodetypes="cccccccccccccccccccccccccccccccccccccccccccccccccscccccccscccsccccccccscccscccccccscccscccccccccccccccccccccccccccscccccccccccccccscccscccccccccccccccccccccssscscc" class="st0" d="
	M90.77,60.48c-11.66,0-21.11,9.45-21.11,21.11c0,11.66,9.45,21.11,21.11,21.11c11.66,0,21.12-9.45,21.12-21.11
	C111.89,69.93,102.43,60.49,90.77,60.48z M90.77,63.65c4.96,0,9.44,2.01,12.69,5.25c3.25,3.25,5.25,7.73,5.25,12.69
	c0,4.96-2,9.44-5.25,12.69c-3.25,3.25-7.73,5.25-12.69,5.25c-4.96,0-9.43-2-12.68-5.25c-3.25-3.25-5.25-7.73-5.25-12.69
	c0-4.96,2.01-9.44,5.25-12.69C81.34,65.66,85.81,63.65,90.77,63.65z M75.79,77.2l0.01,2.45h3.17l-0.02,8.28h2.71l0.02-8.28h3.28
	l-0.02-2.45H75.79L75.79,77.2z M86.15,77.2v10.73h2.57l0.03-6.27l3.76,6.27h2.79V77.2h-2.58l0.11,6.66l-3.85-6.66H86.15z
	 M96.61,77.2l0.02,2.45h3.17l-0.02,8.28h2.71l0.01-8.28h3.29l-0.02-2.45H96.61L96.61,77.2z M81.55,104.57
	c-0.25,0-0.5,0.04-0.75,0.11c-0.25,0.07-0.48,0.17-0.68,0.32c-0.2,0.14-0.36,0.32-0.49,0.53c-0.12,0.21-0.19,0.46-0.19,0.75
	c0,0.26,0.05,0.48,0.15,0.67c0.1,0.18,0.22,0.33,0.38,0.45c0.16,0.12,0.33,0.21,0.53,0.29c0.2,0.08,0.41,0.14,0.62,0.2
	c0.21,0.06,0.41,0.11,0.61,0.16c0.2,0.05,0.38,0.1,0.53,0.16c0.16,0.06,0.29,0.15,0.39,0.24c0.1,0.09,0.15,0.22,0.15,0.37
	c0,0.14-0.04,0.26-0.11,0.35c-0.07,0.09-0.16,0.17-0.27,0.22c-0.11,0.05-0.23,0.09-0.36,0.11c-0.13,0.02-0.25,0.02-0.36,0.02
	c-0.16,0-0.32-0.02-0.48-0.06c-0.15-0.04-0.28-0.1-0.4-0.18c-0.11-0.08-0.21-0.19-0.28-0.32c-0.07-0.13-0.1-0.29-0.1-0.48h-1.21
	c-0.01,0.35,0.06,0.64,0.19,0.9c0.13,0.25,0.31,0.46,0.53,0.62s0.48,0.28,0.77,0.36c0.29,0.08,0.6,0.12,0.91,0.12
	c0.38,0,0.73-0.05,1.02-0.14c0.29-0.09,0.54-0.21,0.74-0.37c0.2-0.16,0.34-0.35,0.45-0.57c0.1-0.22,0.15-0.46,0.15-0.72
	c0-0.32-0.07-0.58-0.2-0.78c-0.14-0.2-0.29-0.36-0.48-0.49s-0.37-0.21-0.56-0.27s-0.33-0.09-0.44-0.11
	c-0.35-0.09-0.64-0.17-0.86-0.23s-0.39-0.11-0.51-0.17c-0.12-0.06-0.21-0.13-0.25-0.19c-0.04-0.07-0.06-0.16-0.06-0.27
	c0-0.12,0.03-0.22,0.08-0.3c0.05-0.08,0.12-0.14,0.2-0.19c0.08-0.05,0.17-0.09,0.27-0.11c0.1-0.02,0.21-0.03,0.31-0.03
	c0.15,0,0.29,0.01,0.42,0.04c0.13,0.03,0.24,0.08,0.34,0.14s0.18,0.15,0.24,0.26c0.06,0.11,0.09,0.25,0.11,0.42h1.21
	c0-0.33-0.06-0.6-0.19-0.83c-0.13-0.23-0.29-0.42-0.5-0.57c-0.21-0.15-0.46-0.26-0.73-0.33C82.13,104.61,81.84,104.57,81.55,104.57
	L81.55,104.57z M84.74,104.71v5.64h4.29v-1.04h-3.04v-1.38h2.73v-0.96h-2.73v-1.21h2.98v-1.04H84.74z M89.86,104.71v5.64h1.25v-2.2
	h1.24c0.31,0,0.54,0.07,0.67,0.2c0.14,0.14,0.22,0.35,0.27,0.65c0.03,0.23,0.06,0.47,0.07,0.71c0.02,0.25,0.06,0.46,0.13,0.64h1.24
	c-0.06-0.08-0.1-0.18-0.13-0.29c-0.03-0.11-0.05-0.23-0.06-0.36c-0.01-0.13-0.02-0.25-0.02-0.37c0-0.12-0.01-0.23-0.02-0.32
	c-0.01-0.14-0.04-0.29-0.07-0.43c-0.03-0.14-0.07-0.27-0.14-0.39c-0.06-0.12-0.14-0.22-0.24-0.31c-0.1-0.09-0.23-0.15-0.38-0.19
	v-0.02c0.32-0.13,0.55-0.32,0.69-0.56s0.2-0.53,0.2-0.86c0-0.22-0.04-0.42-0.11-0.61c-0.08-0.19-0.19-0.35-0.33-0.5
	c-0.14-0.14-0.31-0.25-0.52-0.33c-0.2-0.08-0.43-0.12-0.69-0.12H89.86L89.86,104.71z M95.57,104.71v5.64h1.25v-5.64H95.57z
	 M97.91,104.71v5.64h4.28v-1.04h-3.04v-1.38h2.74v-0.96h-2.74v-1.21h2.98v-1.04H97.91z M91.11,105.67h1.36
	c0.28,0,0.5,0.06,0.64,0.19c0.14,0.12,0.21,0.32,0.21,0.59c0,0.28-0.07,0.5-0.21,0.62c-0.14,0.13-0.36,0.19-0.64,0.19h-1.36V105.67z
	"/>
</svg>
