<?xml version="1.0" encoding="utf-8"?>
<!-- Generator: Adobe Illustrator 15.0.0, SVG Export Plug-In . SVG Version: 6.00 Build 0)  -->
<!DOCTYPE svg PUBLIC "-//W3C//DTD SVG 1.1//EN" "http://www.w3.org/Graphics/SVG/1.1/DTD/svg11.dtd">
<svg version="1.1"
	 id="svg2" inkscape:version="0.47 r22583" xmlns:dc="http://purl.org/dc/elements/1.1/" xmlns:cc="http://creativecommons.org/ns#" xmlns:rdf="http://www.w3.org/1999/02/22-rdf-syntax-ns#" xmlns:svg="http://www.w3.org/2000/svg" xmlns:sodipodi="http://sodipodi.sourceforge.net/DTD/sodipodi-0.dtd" xmlns:inkscape="http://www.inkscape.org/namespaces/inkscape"
	 xmlns="http://www.w3.org/2000/svg" xmlns:xlink="http://www.w3.org/1999/xlink" x="0px" y="0px" width="51.943px" height="28px"
	 viewBox="176.028 94.889 51.943 28" style="enable-background:new 176.028 94.889 51.943 28;" xml:space="preserve">
<style type="text/css">
<![CDATA[
	.st0{fill:#3E225D;}
]]>
</style>
<path id="path8306" class="st0" d="M213.912,102.515h-4.463v-0.489c-0.004-0.296,0.012-0.615,0.063-0.904
	c0.037-0.215,0.096-0.404,0.162-0.544c0.111-0.215,0.189-0.322,0.434-0.47c0.245-0.141,0.744-0.33,1.737-0.333h3.044v-4.885h-3.044
	c-1.444,0-2.715,0.255-3.797,0.785c-0.804,0.393-1.481,0.941-1.984,1.548c-0.76,0.918-1.126,1.922-1.308,2.767
	c-0.182,0.844-0.192,1.574-0.192,2.037v13.2h4.885v-8.093h4.463V102.515z M221.397,122.889c4.296-0.007,6.566-3.148,6.574-6.1
	v-14.274h-4.589v7.107c0,0.322-0.045,0.767-0.393,1.152c-0.345,0.378-0.789,0.663-1.526,0.663c-0.763,0.003-1.307-0.282-1.581-0.667
	c-0.278-0.385-0.33-0.826-0.333-1.148v-7.107h-4.66v7.208c0.008,3.007,2.23,6.093,5.964,6.1c0.729,0,1.451-0.148,2.159-0.429
	l0.337-0.133v0.363l-0.004,1.048c0,0.218-0.004,0.522-0.233,0.926c-0.229,0.411-0.733,0.811-1.578,0.804
	c-0.767,0.003-1.255-0.333-1.519-0.682c-0.263-0.344-0.322-0.681-0.329-0.729l-4.711-0.019l0.093,0.752
	C215.616,120.297,217.961,122.893,221.397,122.889 M196.998,122.889c4.296-0.007,6.567-3.148,6.574-6.1v-14.274h-4.589v7.107
	c0,0.322-0.022,0.755-0.393,1.152c-0.348,0.374-0.789,0.663-1.522,0.663c-0.767,0.003-1.311-0.282-1.585-0.667
	c-0.278-0.385-0.33-0.826-0.33-1.148v-7.107h-4.659v7.208c0.004,3.007,2.226,6.093,5.963,6.1c0.73,0,1.452-0.148,2.156-0.429
	l0.337-0.133v0.363v1.048c0,0.214-0.003,0.522-0.237,0.926c-0.226,0.411-0.73,0.811-1.578,0.804
	c-0.763,0.003-1.255-0.333-1.515-0.682c-0.267-0.344-0.326-0.681-0.333-0.729l-4.711-0.019l0.093,0.752
	C191.216,120.297,193.564,122.893,196.998,122.889 M176.034,109.252c0,0,0.004-0.4,0.019-0.637l0.008-0.067l4.607,0.078
	l-0.015,0.281c-0.003,0.826,0.497,1.611,0.941,1.937c0.437,0.322,1.07,0.43,1.452,0.43c0.989,0,1.889-0.604,1.9-1.53v-0.085
	c-0.034-0.722-0.493-1.119-1.145-1.426c-0.589-0.277-1.597-0.704-2.689-1.244c-1.089-0.541-2.271-1.2-3.2-1.934
	c-1.344-1.063-1.952-2.437-1.878-4.344c0.063-1.622,0.771-3.022,2.089-4.178c1.322-1.159,2.948-1.622,4.67-1.622
	c2.192,0,4.022,0.885,5.233,2.322c1.23,1.511,1.463,2.938,1.519,3.993l0.007,0.2h-4.785l-0.007-0.063
	c-0.044-0.43-0.274-1.019-0.556-1.341c-0.33-0.377-0.837-0.626-1.47-0.626c-0.367,0.004-0.796,0.111-1.155,0.341
	c-0.359,0.226-0.652,0.596-0.652,1.085c-0.004,0.526,0.241,0.94,0.922,1.285c0.667,0.344,2.674,1.233,2.959,1.344
	c2.867,1.115,4.682,2.926,4.885,5.656c0.007,0.059,0.007,0.122,0.007,0.192c0.004,0.922-0.274,2.519-1.333,3.911
	c-1.059,1.396-2.896,2.615-5.3,2.615C178.312,115.808,176.045,112.356,176.034,109.252"/>
</svg>
