<?xml version="1.0" encoding="utf-8"?>
<!-- Generator: Adobe Illustrator 15.0.0, SVG Export Plug-In . SVG Version: 6.00 Build 0)  -->
<!DOCTYPE svg PUBLIC "-//W3C//DTD SVG 1.1//EN" "http://www.w3.org/Graphics/SVG/1.1/DTD/svg11.dtd">
<svg version="1.1" id="Layer_1" xmlns="http://www.w3.org/2000/svg" xmlns:xlink="http://www.w3.org/1999/xlink" x="0px" y="0px"
	 width="105.2px" height="50px" viewBox="0 0 105.2 50" style="enable-background:new 0 0 105.2 50;" xml:space="preserve">
<style type="text/css">
<![CDATA[
	.st0{fill:#9DC93E;}
	.st1{fill-rule:evenodd;clip-rule:evenodd;fill:#9DC93E;}
]]>
</style>
<g>
	<polygon class="st1" points="33.7,0 33.7,42.1 42,42.1 42,2.4 	"/>
	<path class="st1" d="M21,7.8c-7.4,0.1-10.8,0.9-15.8,2L0,8.3v39.4L8.4,50v-9c0,0,4.3,1.3,12.6,1.1c8.4-0.1,8.3-8.5,8.3-8.6
		s0-16.7,0-16.7S30.3,8.3,21,7.8z M21,33.7c0,0-5.1,0.4-12.6-1.4c0-1.4,0-14.6,0-14.6s3.9-1.3,12.6-1.4C21,17.2,21,33.7,21,33.7z"/>
	<path class="st1" d="M75.8,10.3l-8.4-2.5l0,17.7c0,0,0,0,0,0v7.3v1l0,0v0l0,0v0h-4.2h-8.4v-8.4V7.8h-8.4v26c0,4.6,3.7,8.4,8.4,8.4
		v0h12.6c4.6,0,8.4-3.7,8.4-8.4c0,0,0,0,0,0h0V10.3z"/>
	<path class="st0" d="M100.8,23.8c0,0-0.1,0-0.1-0.1c0,0,0,0,0,0c0,0,0,0,0,0c0,0,0,0,0,0c-0.2-0.1-0.4-0.2-0.7-0.3
		c-1.2-0.5-2.9-1.2-4.7-1.8c0,0,0,0,0,0L95,21.5c-3.7-1.3-7.6-2.4-7.6-2.4v-2.9c7.1,0,15.4,1.1,15.4,1.1l2.4-8.2
		c0,0-12.8-1.5-17.9-1.3c0,0,0,0-0.1,0c-2.1,0-4.1,0.9-5.7,2.4C79.8,12,79,14.2,79,16.4h0v3h0c0.2,2.8,1.7,5.1,4,6.5c0,0,0,0,0,0
		c0.2,0.4,2.9,1.4,5.9,2.4c0,0,0,0,0,0l0.3,0.1c3.6,1.2,7.5,2.4,7.5,2.4v2.9c-7.1,0-15.4-1.1-15.4-1.1L79,40.8
		c0,0,12.8,1.5,17.9,1.3c0,0,0,0,0.1,0c2.1-0.1,4.1-0.9,5.7-2.4c1.7-1.7,2.5-3.9,2.4-6.2h0v-3h0C104.9,27.6,103.2,25.1,100.8,23.8z"
		/>
</g>
</svg>
