<?xml version="1.0" encoding="UTF-8" standalone="no"?>
<!-- Created with Inkscape (http://www.inkscape.org/) -->

<svg
   xmlns:dc="http://purl.org/dc/elements/1.1/"
   xmlns:cc="http://creativecommons.org/ns#"
   xmlns:rdf="http://www.w3.org/1999/02/22-rdf-syntax-ns#"
   xmlns:svg="http://www.w3.org/2000/svg"
   xmlns="http://www.w3.org/2000/svg"
   xmlns:xlink="http://www.w3.org/1999/xlink"
   xmlns:sodipodi="http://sodipodi.sourceforge.net/DTD/sodipodi-0.dtd"
   xmlns:inkscape="http://www.inkscape.org/namespaces/inkscape"
   width="200"
   height="50.75"
   id="svg2"
   version="1.1"
   inkscape:version="0.48.2 r9819"
   sodipodi:docname="Sky_News.svg">
  <defs
     id="defs4">
    <linearGradient
       id="linearGradient3113">
      <stop
         id="stop3115"
         offset="0"
         style="stop-color:#5c0300;stop-opacity:0" />
      <stop
         style="stop-color:#5c0300;stop-opacity:0"
         offset="0.2"
         id="stop3117" />
      <stop
         style="stop-color:#5c0300;stop-opacity:0"
         offset="0.40000001"
         id="stop3119" />
      <stop
         style="stop-color:#5c0300;stop-opacity:1"
         offset="0.60000002"
         id="stop3122" />
      <stop
         style="stop-color:#5c0300;stop-opacity:1"
         offset="0.80135369"
         id="stop3124" />
      <stop
         id="stop3126"
         offset="1"
         style="stop-color:#5c0300;stop-opacity:1" />
    </linearGradient>
    <linearGradient
       id="linearGradient3095">
      <stop
         id="stop3097"
         offset="0"
         style="stop-color:#420201;stop-opacity:1" />
      <stop
         style="stop-color:#410101;stop-opacity:1"
         offset="0.58056045"
         id="stop3099" />
      <stop
         style="stop-color:#7b1910;stop-opacity:1"
         offset="0.67498553"
         id="stop3101" />
      <stop
         style="stop-color:#7b1910;stop-opacity:1"
         offset="0.75958961"
         id="stop3103" />
      <stop
         style="stop-color:#68080a;stop-opacity:1"
         offset="0.8713274"
         id="stop3105" />
      <stop
         id="stop3107"
         offset="1"
         style="stop-color:#540403;stop-opacity:1" />
    </linearGradient>
    <linearGradient
       id="linearGradient3751">
      <stop
         style="stop-color:#eb3e2e;stop-opacity:1"
         offset="0"
         id="stop3753" />
      <stop
         id="stop3755"
         offset="0.02720959"
         style="stop-color:#cb1e24;stop-opacity:1" />
      <stop
         style="stop-color:#bd1920;stop-opacity:1"
         offset="0.2"
         id="stop3757" />
      <stop
         style="stop-color:#ac171d;stop-opacity:1"
         offset="0.30000001"
         id="stop3759" />
      <stop
         style="stop-color:#991216;stop-opacity:1"
         offset="0.40000001"
         id="stop3761" />
      <stop
         style="stop-color:#890e11;stop-opacity:1"
         offset="0.5"
         id="stop3763" />
      <stop
         style="stop-color:#7b0909;stop-opacity:1"
         offset="0.60000002"
         id="stop3765" />
      <stop
         style="stop-color:#730506;stop-opacity:1"
         offset="0.69999999"
         id="stop3767" />
      <stop
         style="stop-color:#6a0000;stop-opacity:1"
         offset="0.80000001"
         id="stop3769" />
      <stop
         style="stop-color:#640000;stop-opacity:1"
         offset="0.89999998"
         id="stop3771" />
      <stop
         id="stop3773"
         offset="1"
         style="stop-color:#5b0300;stop-opacity:1" />
    </linearGradient>
    <linearGradient
       id="linearGradient3703">
      <stop
         id="stop3705"
         offset="0"
         style="stop-color:#410200;stop-opacity:1" />
      <stop
         style="stop-color:#440301;stop-opacity:1"
         offset="0.56337386"
         id="stop3707" />
      <stop
         style="stop-color:#7b1910;stop-opacity:1"
         offset="0.68480659"
         id="stop3709" />
      <stop
         style="stop-color:#79170f;stop-opacity:1"
         offset="0.79073745"
         id="stop3711" />
      <stop
         style="stop-color:#590505;stop-opacity:1"
         offset="0.91061115"
         id="stop3713" />
      <stop
         id="stop3715"
         offset="1"
         style="stop-color:#540403;stop-opacity:1" />
    </linearGradient>
    <linearGradient
       id="linearGradient3685">
      <stop
         style="stop-color:#e5382c;stop-opacity:1"
         offset="0"
         id="stop3687" />
      <stop
         id="stop3689"
         offset="0.60756803"
         style="stop-color:#e84836;stop-opacity:1" />
      <stop
         id="stop3691"
         offset="0.71917975"
         style="stop-color:#c34832;stop-opacity:1" />
      <stop
         id="stop3693"
         offset="0.81851524"
         style="stop-color:#a01f19;stop-opacity:1" />
      <stop
         id="stop3695"
         offset="0.91061115"
         style="stop-color:#940f10;stop-opacity:1" />
      <stop
         style="stop-color:#940f10;stop-opacity:1"
         offset="1"
         id="stop3697" />
    </linearGradient>
    <linearGradient
       id="linearGradient3661">
      <stop
         id="stop3663"
         offset="0"
         style="stop-color:#440301;stop-opacity:1" />
      <stop
         style="stop-color:#500a03;stop-opacity:1"
         offset="0.1"
         id="stop3665" />
      <stop
         id="stop3667"
         offset="0.2"
         style="stop-color:#611306;stop-opacity:1" />
      <stop
         id="stop3669"
         offset="0.30000001"
         style="stop-color:#7b1910;stop-opacity:1" />
      <stop
         id="stop3671"
         offset="0.40000001"
         style="stop-color:#7b1910;stop-opacity:1" />
      <stop
         id="stop3673"
         offset="0.5"
         style="stop-color:#7b1910;stop-opacity:1" />
      <stop
         id="stop3675"
         offset="0.60000002"
         style="stop-color:#68080a;stop-opacity:1" />
      <stop
         id="stop3677"
         offset="0.69999999"
         style="stop-color:#68080a;stop-opacity:1" />
      <stop
         id="stop3679"
         offset="0.80000001"
         style="stop-color:#540403;stop-opacity:1" />
      <stop
         id="stop3681"
         offset="0.89999998"
         style="stop-color:#540403;stop-opacity:1" />
      <stop
         style="stop-color:#540403;stop-opacity:1"
         offset="1"
         id="stop3683" />
    </linearGradient>
    <linearGradient
       id="linearGradient3645">
      <stop
         id="stop3655"
         offset="0"
         style="stop-color:#530503;stop-opacity:1" />
      <stop
         style="stop-color:#530503;stop-opacity:1"
         offset="1"
         id="stop3657" />
    </linearGradient>
    <linearGradient
       id="linearGradient3615">
      <stop
         id="stop3617"
         offset="0"
         style="stop-color:#690805;stop-opacity:1" />
      <stop
         style="stop-color:#802417;stop-opacity:1"
         offset="0.1"
         id="stop3619" />
      <stop
         id="stop3621"
         offset="0.2"
         style="stop-color:#7a2216;stop-opacity:1" />
      <stop
         id="stop3623"
         offset="0.30000001"
         style="stop-color:#732012;stop-opacity:1" />
      <stop
         id="stop3625"
         offset="0.40000001"
         style="stop-color:#68190a;stop-opacity:1" />
      <stop
         id="stop3627"
         offset="0.5"
         style="stop-color:#631606;stop-opacity:1" />
      <stop
         id="stop3629"
         offset="0.60000002"
         style="stop-color:#591001;stop-opacity:1" />
      <stop
         id="stop3631"
         offset="0.69999999"
         style="stop-color:#4e0401;stop-opacity:1" />
      <stop
         id="stop3633"
         offset="0.80000001"
         style="stop-color:#450102;stop-opacity:1" />
      <stop
         id="stop3635"
         offset="0.89999998"
         style="stop-color:#3e0100;stop-opacity:1" />
      <stop
         style="stop-color:#440301;stop-opacity:1"
         offset="1"
         id="stop3637" />
    </linearGradient>
    <linearGradient
       id="linearGradient3583">
      <stop
         style="stop-color:#eb3e30;stop-opacity:1"
         offset="0"
         id="stop3585" />
      <stop
         id="stop3587"
         offset="0.2"
         style="stop-color:#e4563e;stop-opacity:1" />
      <stop
         id="stop3589"
         offset="0.40000001"
         style="stop-color:#c04631;stop-opacity:1" />
      <stop
         id="stop3591"
         offset="0.60000002"
         style="stop-color:#9f1e18;stop-opacity:1" />
      <stop
         id="stop3593"
         offset="0.80135369"
         style="stop-color:#940f10;stop-opacity:1" />
      <stop
         style="stop-color:#940f10;stop-opacity:1"
         offset="1"
         id="stop3595" />
    </linearGradient>
    <linearGradient
       id="linearGradient3206">
      <stop
         style="stop-color:#dedfe1;stop-opacity:1"
         offset="0"
         id="stop3210" />
      <stop
         id="stop3212"
         offset="0.1"
         style="stop-color:#e6e6e8;stop-opacity:1" />
      <stop
         style="stop-color:#f9f9f9;stop-opacity:1"
         offset="0.2"
         id="stop3230" />
      <stop
         style="stop-color:#ffffff;stop-opacity:1"
         offset="0.30000001"
         id="stop3214" />
      <stop
         style="stop-color:#ffffff;stop-opacity:1"
         offset="0.40000001"
         id="stop3216" />
      <stop
         style="stop-color:#ffffff;stop-opacity:1"
         offset="0.5"
         id="stop3218" />
      <stop
         style="stop-color:#ffffff;stop-opacity:1"
         offset="0.60000002"
         id="stop3220" />
      <stop
         style="stop-color:#ffffff;stop-opacity:1"
         offset="0.69999999"
         id="stop3222" />
      <stop
         style="stop-color:#fefefe;stop-opacity:1"
         offset="0.80000001"
         id="stop3224" />
      <stop
         style="stop-color:#f0f1f1;stop-opacity:1"
         offset="0.89999998"
         id="stop3226" />
      <stop
         id="stop3228"
         offset="1"
         style="stop-color:#efefef;stop-opacity:1" />
    </linearGradient>
    <linearGradient
       id="linearGradient3172">
      <stop
         id="stop3174"
         offset="0"
         style="stop-color:#e6e6e8;stop-opacity:1" />
      <stop
         style="stop-color:#f4f4f4;stop-opacity:1"
         offset="0.60756803"
         id="stop3176" />
      <stop
         style="stop-color:#e3e3e5;stop-opacity:1"
         offset="0.71917975"
         id="stop3178" />
      <stop
         style="stop-color:#c3c4c6;stop-opacity:1"
         offset="0.81851524"
         id="stop3180" />
      <stop
         style="stop-color:#a8acad;stop-opacity:1"
         offset="0.91061115"
         id="stop3182" />
      <stop
         id="stop3184"
         offset="1"
         style="stop-color:#a8acad;stop-opacity:1" />
    </linearGradient>
    <linearGradient
       id="linearGradient3160">
      <stop
         style="stop-color:#f0f0f0;stop-opacity:1"
         offset="0"
         id="stop3162" />
      <stop
         id="stop3164"
         offset="0.18174845"
         style="stop-color:#dcdddf;stop-opacity:1" />
      <stop
         id="stop3166"
         offset="0.45876309"
         style="stop-color:#c4c5c7;stop-opacity:1" />
      <stop
         id="stop3168"
         offset="0.73092365"
         style="stop-color:#a9aaae;stop-opacity:1" />
      <stop
         style="stop-color:#a8acad;stop-opacity:1"
         offset="1"
         id="stop3170" />
    </linearGradient>
    <linearGradient
       id="linearGradient3138">
      <stop
         style="stop-color:#f5f7f6;stop-opacity:1"
         offset="0"
         id="stop3140" />
      <stop
         id="stop3142"
         offset="0.18174845"
         style="stop-color:#e1e1e3;stop-opacity:1" />
      <stop
         id="stop3144"
         offset="0.45876309"
         style="stop-color:#c2c3c5;stop-opacity:1" />
      <stop
         id="stop3146"
         offset="0.73092365"
         style="stop-color:#a9adae;stop-opacity:1" />
      <stop
         style="stop-color:#a8acad;stop-opacity:1"
         offset="1"
         id="stop3148" />
    </linearGradient>
    <linearGradient
       id="linearGradient3119">
      <stop
         id="stop3121"
         offset="0"
         style="stop-color:#e0e1e3;stop-opacity:1" />
      <stop
         style="stop-color:#d9dadc;stop-opacity:1"
         offset="0.18174845"
         id="stop3123" />
      <stop
         style="stop-color:#c2c3c5;stop-opacity:1"
         offset="0.45876309"
         id="stop3125" />
      <stop
         style="stop-color:#a8acad;stop-opacity:1"
         offset="0.73092365"
         id="stop3129" />
      <stop
         id="stop3131"
         offset="1"
         style="stop-color:#a8acad;stop-opacity:1" />
    </linearGradient>
    <linearGradient
       id="linearGradient3053">
      <stop
         id="stop3063"
         offset="0"
         style="stop-color:#bbbcbf;stop-opacity:0" />
      <stop
         style="stop-color:#5b0000;stop-opacity:1"
         offset="1"
         id="stop3065" />
    </linearGradient>
    <linearGradient
       id="linearGradient3029">
      <stop
         style="stop-color:#f3f3f3;stop-opacity:0"
         offset="0"
         id="stop3031" />
      <stop
         id="stop3033"
         offset="0.2"
         style="stop-color:#f4f4f4;stop-opacity:0" />
      <stop
         id="stop3035"
         offset="0.40000001"
         style="stop-color:#f5f5f5;stop-opacity:0" />
      <stop
         id="stop3037"
         offset="0.60000002"
         style="stop-color:#e9ebea;stop-opacity:1" />
      <stop
         id="stop3039"
         offset="0.80135369"
         style="stop-color:#c4c5c8;stop-opacity:1" />
      <stop
         style="stop-color:#adaeb2;stop-opacity:1"
         offset="1"
         id="stop3041" />
    </linearGradient>
    <linearGradient
       id="linearGradient3013">
      <stop
         id="stop3015"
         offset="0"
         style="stop-color:#f1f1f1;stop-opacity:0" />
      <stop
         style="stop-color:#f5f5f5;stop-opacity:0"
         offset="0.55556393"
         id="stop3017" />
      <stop
         style="stop-color:#edefee;stop-opacity:1"
         offset="0.66483384"
         id="stop3019" />
      <stop
         style="stop-color:#d3d4d5;stop-opacity:1"
         offset="0.77410376"
         id="stop3021" />
      <stop
         style="stop-color:#bcbdc0;stop-opacity:1"
         offset="0.89208382"
         id="stop3023" />
      <stop
         id="stop3025"
         offset="1"
         style="stop-color:#aaabaf;stop-opacity:1" />
    </linearGradient>
    <linearGradient
       id="linearGradient2979">
      <stop
         id="stop2981"
         offset="0"
         style="stop-color:#e3e4e6;stop-opacity:0" />
      <stop
         style="stop-color:#e3e4e6;stop-opacity:0"
         offset="0.2"
         id="stop2983" />
      <stop
         style="stop-color:#e4e5e7;stop-opacity:0"
         offset="0.40000001"
         id="stop2985" />
      <stop
         style="stop-color:#dedfe1;stop-opacity:1"
         offset="0.60000002"
         id="stop2987" />
      <stop
         style="stop-color:#cacbcd;stop-opacity:1"
         offset="0.80135369"
         id="stop2989" />
      <stop
         id="stop2991"
         offset="1"
         style="stop-color:#afb0b2;stop-opacity:1" />
    </linearGradient>
    <linearGradient
       id="linearGradient2963">
      <stop
         id="stop2965"
         offset="0"
         style="stop-color:#e6e6e8;stop-opacity:0" />
      <stop
         style="stop-color:#e6e8e7;stop-opacity:0"
         offset="0.55556393"
         id="stop2967" />
      <stop
         style="stop-color:#eceded;stop-opacity:1"
         offset="0.66483384"
         id="stop2969" />
      <stop
         style="stop-color:#d7d8d9;stop-opacity:1"
         offset="0.77410376"
         id="stop2971" />
      <stop
         style="stop-color:#bbbcbf;stop-opacity:1"
         offset="0.89208382"
         id="stop2973" />
      <stop
         id="stop2975"
         offset="1"
         style="stop-color:#aaabaf;stop-opacity:1" />
    </linearGradient>
    <linearGradient
       id="linearGradient2929">
      <stop
         style="stop-color:#f1f1f1;stop-opacity:1"
         offset="0"
         id="stop2931" />
      <stop
         id="stop2933"
         offset="0.55556393"
         style="stop-color:#ebecec;stop-opacity:1" />
      <stop
         id="stop2935"
         offset="0.66483384"
         style="stop-color:#dfe0e1;stop-opacity:1" />
      <stop
         id="stop2937"
         offset="0.77410376"
         style="stop-color:#cfd0d2;stop-opacity:1" />
      <stop
         id="stop2939"
         offset="0.89208382"
         style="stop-color:#bdbec0;stop-opacity:1" />
      <stop
         style="stop-color:#acadb1;stop-opacity:1"
         offset="1"
         id="stop2941" />
    </linearGradient>
    <linearGradient
       id="linearGradient2901">
      <stop
         style="stop-color:#d40000;stop-opacity:1;"
         offset="0"
         id="stop2903" />
      <stop
         id="stop2915"
         offset="0.0625"
         style="stop-color:#d40000;stop-opacity:0.9372549;" />
      <stop
         id="stop2913"
         offset="0.125"
         style="stop-color:#d40000;stop-opacity:0.8745098;" />
      <stop
         id="stop2911"
         offset="0.25"
         style="stop-color:#d40000;stop-opacity:0.74901961;" />
      <stop
         id="stop2909"
         offset="0.5"
         style="stop-color:#d40000;stop-opacity:0.49803922;" />
      <stop
         style="stop-color:#d40000;stop-opacity:0;"
         offset="1"
         id="stop2905" />
    </linearGradient>
    <linearGradient
       id="linearGradient2876">
      <stop
         id="stop2878"
         offset="0"
         style="stop-color:#000000;stop-opacity:0" />
      <stop
         style="stop-color:#ffffff;stop-opacity:0"
         offset="0.2"
         id="stop2880" />
      <stop
         style="stop-color:#ffffff;stop-opacity:0"
         offset="0.40000001"
         id="stop2882" />
      <stop
         style="stop-color:#e8eae9;stop-opacity:1"
         offset="0.60000002"
         id="stop2884" />
      <stop
         style="stop-color:#c3c4c6;stop-opacity:1"
         offset="0.80135369"
         id="stop2886" />
      <stop
         id="stop2888"
         offset="1"
         style="stop-color:#a9aaae;stop-opacity:1" />
    </linearGradient>
    <linearGradient
       id="linearGradient2858">
      <stop
         id="stop2860"
         offset="0"
         style="stop-color:#efefef;stop-opacity:1" />
      <stop
         style="stop-color:#eeeeee;stop-opacity:1"
         offset="0.2"
         id="stop2862" />
      <stop
         style="stop-color:#ededed;stop-opacity:1"
         offset="0.40000001"
         id="stop2864" />
      <stop
         style="stop-color:#dcdddf;stop-opacity:1"
         offset="0.60000002"
         id="stop2866" />
      <stop
         style="stop-color:#c3c4c6;stop-opacity:1"
         offset="0.80135369"
         id="stop2868" />
      <stop
         id="stop2870"
         offset="1"
         style="stop-color:#aaabaf;stop-opacity:1" />
    </linearGradient>
    <linearGradient
       id="linearGradient2838">
      <stop
         style="stop-color:#e6e6e8;stop-opacity:1"
         offset="0"
         id="stop2840" />
      <stop
         id="stop3200"
         offset="0.2"
         style="stop-color:#e6e6e8;stop-opacity:1;" />
      <stop
         id="stop3198"
         offset="0.40000001"
         style="stop-color:#e6e6e8;stop-opacity:1;" />
      <stop
         id="stop3196"
         offset="0.5"
         style="stop-color:#e6e7e9;stop-opacity:1;" />
      <stop
         id="stop2852"
         offset="0.60000002"
         style="stop-color:#e7e8ea;stop-opacity:1" />
      <stop
         id="stop2850"
         offset="0.69999999"
         style="stop-color:#dadbdd;stop-opacity:1" />
      <stop
         id="stop2848"
         offset="0.80000001"
         style="stop-color:#c3c4c6;stop-opacity:1" />
      <stop
         id="stop2846"
         offset="0.89999998"
         style="stop-color:#a8acad;stop-opacity:1" />
      <stop
         style="stop-color:#a8acad;stop-opacity:1"
         offset="1"
         id="stop2842" />
    </linearGradient>
    <inkscape:perspective
       sodipodi:type="inkscape:persp3d"
       inkscape:vp_x="0 : 526.18109 : 1"
       inkscape:vp_y="0 : 1000 : 0"
       inkscape:vp_z="744.09448 : 526.18109 : 1"
       inkscape:persp3d-origin="372.04724 : 350.78739 : 1"
       id="perspective10" />
    <inkscape:perspective
       id="perspective2824"
       inkscape:persp3d-origin="0.5 : 0.33333333 : 1"
       inkscape:vp_z="1 : 0.5 : 1"
       inkscape:vp_y="0 : 1000 : 0"
       inkscape:vp_x="0 : 0.5 : 1"
       sodipodi:type="inkscape:persp3d" />
    <radialGradient
       inkscape:collect="always"
       xlink:href="#linearGradient2901"
       id="radialGradient2907"
       cx="186.75514"
       cy="114.13615"
       fx="186.75514"
       fy="114.13615"
       r="150"
       gradientTransform="matrix(0,-0.04666667,0.04618528,2.5416009e-8,181.72859,243.07742)"
       gradientUnits="userSpaceOnUse" />
    <inkscape:perspective
       sodipodi:type="inkscape:persp3d"
       inkscape:vp_x="0 : 353.97638 : 1"
       inkscape:vp_y="0 : 1000 : 0"
       inkscape:vp_z="1133.8583 : 353.97638 : 1"
       inkscape:persp3d-origin="566.92914 : 235.98425 : 1"
       id="perspective5444" />
    <linearGradient
       x1="44.970001"
       y1="265.80499"
       x2="41.7384"
       y2="264.51999"
       id="id0"
       gradientUnits="userSpaceOnUse">
      <stop
         id="stop9"
         style="stop-color: rgb(218, 154, 34); stop-opacity: 1;"
         offset="0" />
      <stop
         id="stop11"
         style="stop-color: rgb(168, 73, 33); stop-opacity: 1;"
         offset="0.50196099" />
      <stop
         id="stop13"
         style="stop-color: rgb(83, 0, 16); stop-opacity: 1;"
         offset="1" />
    </linearGradient>
    <clipPath
       id="clipPath2626">
      <path
         d="m 0,850.38 1386.12,0 L 1386.12,0 0,0 0,850.38 z"
         id="path2628" />
    </clipPath>
    <clipPath
       id="clipPath2618">
      <path
         d="m -0.071,850.197 1386.142,0 0,-850.394 -1386.142,0 0,850.394 z"
         id="path2620" />
    </clipPath>
    <clipPath
       id="clipPath2610">
      <path
         d="m 707.104,789.871 258.548,0 0,-131.844 -258.548,0 0,131.844 z"
         id="path2612" />
    </clipPath>
    <clipPath
       id="clipPath2602">
      <path
         d="m 0,850.38 1386.12,0 L 1386.12,0 0,0 0,850.38 z"
         id="path2604" />
    </clipPath>
    <clipPath
       id="clipPath2594">
      <path
         d="m -0.071,850.197 1386.142,0 0,-850.394 -1386.142,0 0,850.394 z"
         id="path2596" />
    </clipPath>
    <clipPath
       id="clipPath3592">
      <path
         d="m 0,841.02 594.96,0 0,-840.96 L 0,0.06 0,841.02 z"
         id="path3594" />
    </clipPath>
    <clipPath
       id="clipPath3584">
      <path
         d="m -1,842 597,0 0,-844 -597,0 0,844 z"
         id="path3586" />
    </clipPath>
    <clipPath
       id="clipPath3576">
      <path
         d="m 203.09,192.6 205.26,0 0,-113.95 -205.26,0 0,113.95 z"
         id="path3578" />
    </clipPath>
    <clipPath
       id="clipPath3568">
      <path
         d="m 210.85,13.34 191.619,0 0,144.646 -191.619,0 0,-144.646 z"
         id="path3570" />
    </clipPath>
    <clipPath
       id="clipPath3560">
      <path
         d="m 210.85,157.986 191.4,0 0,-144.65 -191.4,0 0,144.65 z"
         id="path3562" />
    </clipPath>
    <clipPath
       id="clipPath5671">
      <path
         d="m 0.06,841.02 651,0 0,-840.96 -651,0 0,840.96 z"
         id="path5673" />
    </clipPath>
    <clipPath
       id="clipPath5663">
      <path
         d="M 0,841 651,841 651,0 0,0 0,841 z"
         id="path5665" />
    </clipPath>
    <clipPath
       id="clipPath5625">
      <path
         d="m 0.06,841.02 651,0 0,-840.96 -651,0 0,840.96 z"
         id="path5627" />
    </clipPath>
    <clipPath
       id="clipPath5617">
      <path
         d="M 0,841 651,841 651,0 0,0 0,841 z"
         id="path5619" />
    </clipPath>
    <clipPath
       id="clipPath5609">
      <path
         d="m 0.16,849.38 660.22,0 0,-858.65 -660.22,0 0,858.65 z"
         id="path5611" />
    </clipPath>
    <clipPath
       id="clipPath5601">
      <path
         d="m 0.28,-9.75 660.473,0 0,858.899 -660.473,0 0,-858.899 z"
         id="path5603" />
    </clipPath>
    <clipPath
       id="clipPath5591">
      <path
         d="m 0.06,841.02 651,0 0,-840.96 -651,0 0,840.96 z"
         id="path5593" />
    </clipPath>
    <clipPath
       id="clipPath5583">
      <path
         d="M 0,841 651,841 651,0 0,0 0,841 z"
         id="path5585" />
    </clipPath>
    <inkscape:perspective
       sodipodi:type="inkscape:persp3d"
       inkscape:vp_x="0 : 526.18109 : 1"
       inkscape:vp_y="0 : 1000 : 0"
       inkscape:vp_z="744.09448 : 526.18109 : 1"
       inkscape:persp3d-origin="372.04724 : 350.78739 : 1"
       id="perspective2447" />
    <inkscape:perspective
       id="perspective10-1"
       inkscape:persp3d-origin="372.04724 : 350.78739 : 1"
       inkscape:vp_z="744.09448 : 526.18109 : 1"
       inkscape:vp_y="0 : 1000 : 0"
       inkscape:vp_x="0 : 526.18109 : 1"
       sodipodi:type="inkscape:persp3d" />
    <radialGradient
       inkscape:collect="always"
       xlink:href="#linearGradient3703"
       id="radialGradient3701"
       gradientUnits="userSpaceOnUse"
       gradientTransform="matrix(1.9999795,2.9680547e-6,-2.5430038e-6,1.9999771,102.04755,-265.71735)"
       cx="195.33118"
       cy="200.53656"
       fx="195.33118"
       fy="200.53656"
       r="4.500051" />
    <linearGradient
       inkscape:collect="always"
       xlink:href="#linearGradient3053"
       id="linearGradient3739"
       x1="482"
       y1="163.86218"
       x2="485"
       y2="163.86218"
       gradientUnits="userSpaceOnUse"
       gradientTransform="matrix(1,0,0,5.4285714,0,-711.17539)" />
    <linearGradient
       inkscape:collect="always"
       xlink:href="#linearGradient3583"
       id="linearGradient3184"
       gradientUnits="userSpaceOnUse"
       gradientTransform="matrix(13.153846,0,0,0.8,-3785.8462,41.472437)"
       x1="314"
       y1="202.36218"
       x2="314"
       y2="207.36218" />
    <radialGradient
       inkscape:collect="always"
       xlink:href="#linearGradient3685"
       id="radialGradient3186"
       gradientUnits="userSpaceOnUse"
       gradientTransform="matrix(-4.2504731e-7,1.9999795,-1.9999746,0,877.06811,-192.29618)"
       cx="195.33118"
       cy="200.53656"
       fx="195.33118"
       fy="200.53656"
       r="4.500051" />
    <linearGradient
       inkscape:collect="always"
       xlink:href="#linearGradient3751"
       id="linearGradient3188"
       gradientUnits="userSpaceOnUse"
       gradientTransform="matrix(3.2377418,0,0,2.1512906,-810.0968,-210.46483)"
       x1="396.7287"
       y1="192.3622"
       x2="396.7287"
       y2="168.6555" />
    <linearGradient
       inkscape:collect="always"
       xlink:href="#linearGradient3615"
       id="linearGradient3190"
       gradientUnits="userSpaceOnUse"
       x1="307"
       y1="159.36218"
       x2="307"
       y2="136.36218" />
    <linearGradient
       inkscape:collect="always"
       xlink:href="#linearGradient3661"
       id="linearGradient3192"
       gradientUnits="userSpaceOnUse"
       gradientTransform="matrix(1.1772281,0,0,1,-80.828898,0)"
       x1="328"
       y1="136.36218"
       x2="328"
       y2="132.36218" />
    <linearGradient
       inkscape:collect="always"
       xlink:href="#linearGradient3206"
       id="linearGradient3195"
       gradientUnits="userSpaceOnUse"
       gradientTransform="matrix(1.5733333,0,0,2.3,-173.86667,-249.57084)"
       x1="304.36441"
       y1="197.36218"
       x2="304.36441"
       y2="167.36218" />
    <linearGradient
       inkscape:collect="always"
       xlink:href="#linearGradient3138"
       id="linearGradient3197"
       gradientUnits="userSpaceOnUse"
       gradientTransform="matrix(0,7.3193064,-1,0,392.36218,-1277.1181)"
       x1="193.93645"
       y1="204.36218"
       x2="193.93645"
       y2="207.36218" />
    <linearGradient
       inkscape:collect="always"
       xlink:href="#linearGradient3119"
       id="linearGradient3199"
       gradientUnits="userSpaceOnUse"
       gradientTransform="matrix(15.719298,0,0,1,-2855.5439,0)"
       x1="194.2475"
       y1="204.36021"
       x2="194.2475"
       y2="207.36021" />
    <radialGradient
       inkscape:collect="always"
       xlink:href="#linearGradient2838"
       id="radialGradient3201"
       gradientUnits="userSpaceOnUse"
       gradientTransform="matrix(-1.9999795,-2.9680547e-6,2.5430038e-6,-1.9999771,584.65785,599.4313)"
       cx="195.33118"
       cy="200.53656"
       fx="195.33118"
       fy="200.53656"
       r="4.500051" />
    <linearGradient
       inkscape:collect="always"
       xlink:href="#linearGradient3160"
       id="linearGradient3203"
       gradientUnits="userSpaceOnUse"
       gradientTransform="matrix(-15.719298,0,0,-1,3355.5439,339.72436)"
       x1="194.2475"
       y1="204.36021"
       x2="194.2475"
       y2="207.36021" />
    <radialGradient
       inkscape:collect="always"
       xlink:href="#linearGradient3172"
       id="radialGradient3205"
       gradientUnits="userSpaceOnUse"
       gradientTransform="matrix(2.9680547e-6,-1.9999795,1.9999771,2.5430038e-6,-207.06912,532.02003)"
       cx="195.33118"
       cy="200.53656"
       fx="195.33118"
       fy="200.53656"
       r="4.500051" />
    <radialGradient
       inkscape:collect="always"
       xlink:href="#linearGradient3095"
       id="radialGradient3207"
       gradientUnits="userSpaceOnUse"
       gradientTransform="matrix(1.9999795,4.2504731e-7,0,1.9999746,85.341639,-259.70593)"
       cx="195.33118"
       cy="200.53656"
       fx="195.33118"
       fy="200.53656"
       r="4.500051" />
    <linearGradient
       inkscape:collect="always"
       xlink:href="#linearGradient3113"
       id="linearGradient3209"
       gradientUnits="userSpaceOnUse"
       x1="476"
       y1="132.36218"
       x2="485"
       y2="141.36218" />
    <clipPath
       clipPathUnits="userSpaceOnUse"
       id="clipPath67725">
      <path
         inkscape:connector-curvature="0"
         d="m 224.666,414.126 43.059,0 0,10.807 -43.059,0 0,-10.807 z"
         id="path67727" />
    </clipPath>
  </defs>
  <sodipodi:namedview
     id="base"
     pagecolor="#ffffff"
     bordercolor="#666666"
     borderopacity="1.0"
     inkscape:pageopacity="0.0"
     inkscape:pageshadow="2"
     inkscape:zoom="2.8284271"
     inkscape:cx="104.94454"
     inkscape:cy="8.0866179"
     inkscape:document-units="px"
     inkscape:current-layer="layer1"
     showgrid="false"
     showguides="true"
     inkscape:guide-bbox="true"
     inkscape:window-width="1492"
     inkscape:window-height="1037"
     inkscape:window-x="394"
     inkscape:window-y="14"
     inkscape:window-maximized="0">
    <inkscape:grid
       type="xygrid"
       id="grid2830"
       empspacing="5"
       visible="true"
       enabled="true"
       snapvisiblegridlinesonly="true" />
  </sodipodi:namedview>
  <metadata
     id="metadata7">
    <rdf:RDF>
      <cc:Work
         rdf:about="">
        <dc:format>image/svg+xml</dc:format>
        <dc:type
           rdf:resource="http://purl.org/dc/dcmitype/StillImage" />
        <dc:title />
      </cc:Work>
    </rdf:RDF>
  </metadata>
  <g
     inkscape:label="Layer 1"
     inkscape:groupmode="layer"
     id="layer1"
     transform="translate(-193,-259.61228)">
    <g
       id="g3154"
       transform="matrix(0.66333288,0,0,0.66333288,70.783485,172.31206)">
      <path
         sodipodi:nodetypes="cccccc"
         id="rect3579"
         d="m 305,203.36218 171,0 0.57452,1.95237 -0.57452,2.04763 -171,0 0,-4 z"
         style="fill:url(#linearGradient3184);fill-opacity:1;fill-rule:nonzero;stroke:none" />
      <path
         sodipodi:nodetypes="csccc"
         id="path3597"
         d="m 476,207.36217 c 0,-1 0,-3.99999 0,-3.99999 3,0 5,-2 5,-5 0,0 4,0 4,0 0,5 -4.03042,9.00359 -8.95758,9.0001"
         style="fill:url(#radialGradient3186);fill-opacity:1;fill-rule:nonzero;stroke:none" />
      <path
         sodipodi:nodetypes="cccccc"
         id="rect3086"
         d="m 482.31311,195.48134 2.68688,0 0,2.88084 -0.99999,1 -1.68689,-1 0,-2.88084 z"
         style="fill:#940f10;fill-opacity:1;fill-rule:nonzero;stroke:none" />
      <path
         sodipodi:nodetypes="cccccc"
         id="rect3741"
         d="m 305,152.36218 180,-1 0,45 c 0,5 -5.71274,7.37565 -9.71274,7.37565 L 305,204.36218 l 0,-52 z"
         style="fill:url(#linearGradient3188);stroke:none" />
      <path
         sodipodi:nodetypes="cccccc"
         id="rect3089"
         d="m 481,141.36218 3,-1 1,1 0,11 -4,0 0,-11 z"
         style="fill:#5c0300;fill-opacity:1;fill-rule:nonzero;stroke:none" />
      <path
         sodipodi:nodetypes="ccccccc"
         id="path3601"
         d="m 305,158.86218 c 83.34549,0 128.81669,-1.97724 177,-6.5 l 0,-13 -1,-3 -4,-1 -172,0 0,23.5 z"
         style="fill:url(#linearGradient3190);stroke:none" />
      <path
         sodipodi:nodetypes="cccccc"
         id="rect3639"
         d="m 305,132.36218 171,0 1,1 -1,3.00001 -171,0 0,-4.00001 z"
         style="fill:url(#linearGradient3192);fill-opacity:1;fill-rule:nonzero;stroke:none" />
      <path
         sodipodi:nodetypes="cccccccc"
         id="rect3158"
         d="m 188,135.36218 5,-2 113,1 0,71 -111.0595,1.03293 -6.9405,-2.03293 -2,-64 2,-5 z"
         style="fill:url(#linearGradient3195);fill-opacity:1;fill-rule:nonzero;stroke:none" />
      <path
         style="fill:url(#linearGradient3197);fill-opacity:1;fill-rule:nonzero;stroke:none"
         d="m 188,141.36218 0,57 -2,1 -1,-1 0,-57 1,-1 2,1 z"
         id="path3134"
         sodipodi:nodetypes="ccccccc" />
      <path
         sodipodi:nodetypes="cccccc"
         id="rect3105"
         d="m 194,204.36218 112,0 0,3 -112,0 -1,-1 1,-2 z"
         style="fill:url(#linearGradient3199);fill-opacity:1;fill-rule:nonzero;stroke:none" />
      <path
         sodipodi:nodetypes="csccc"
         id="path3049"
         d="m 185.00001,198.36218 c 1,0 2.99999,0 2.99999,0 0,3 3,6 6,6 0,0 0,3 0,3 -5,0 -9.00359,-4.03042 -9.0001,-8.95758"
         style="fill:url(#radialGradient3201);fill-opacity:1;fill-rule:nonzero;stroke:none" />
      <path
         style="fill:url(#linearGradient3203);fill-opacity:1;fill-rule:nonzero;stroke:none"
         d="m 306,135.36218 -112,0 -1,-2 1,-1 112,0 0,3 z"
         id="path3154"
         sodipodi:nodetypes="cccccc" />
      <path
         style="fill:url(#radialGradient3205);fill-opacity:1;fill-rule:nonzero;stroke:none"
         d="m 194,132.36219 c 0,1 0,2.99999 0,2.99999 -3,0 -6,3 -6,6 0,0 -3,0 -3,0 0,-5 4.03042,-9.00359 8.95758,-9.0001"
         id="path3150"
         sodipodi:nodetypes="csccc" />
      <g
         style="fill:#000000;fill-opacity:1"
         inkscape:label="Layer 1"
         id="layer1-0"
         transform="matrix(1.0457107,0,0,1.0457107,86.921161,-169.96909)">
        <g
           style="fill:#000000;fill-opacity:1"
           id="g3397"
           transform="matrix(0.2088608,0,0,0.2088608,79.384397,188.51135)">
          <path
             style="fill:#000000;fill-opacity:1;fill-rule:evenodd;stroke:none"
             d="m 119,736.36218 c 0,0 -1,-5 -1,-10 0,-19 7,-29 27,-29 15,0 29,2 46,2 14,0 22,-3 22,-11 0,-25.01999 -99,0 -99,-66 0,-23.85299 11.782,-37.78858 29.65829,-45.30517 0,0 48.69785,-1.75697 48.69785,-1.75697 0,0 55.54607,10.9183 55.54607,10.9183 -1.06604,20.61165 -10.76274,25.14384 -24.90221,25.14384 -18,0 -25,-1 -39,-1 -9,0 -26,1 -26,10 0,22 100,1 100,67 0,35 -23,53 -80,53 -37,0 -59,-4 -59,-4 z"
             id="path3237"
             sodipodi:nodetypes="ccccccscccccccc" />
          <path
             style="fill:#000000;fill-opacity:1;fill-rule:evenodd;stroke:none"
             d="m 287,740.36217 c -8,0 -12,-0.99999 -12,-0.99999 l 0,-151.12189 23.75142,-19.55593 21.24858,22.7216 0,126.95622 c 0,22 -20,22.00399 -29.99209,22.00399 0,0 -3.00791,-0.004 -3.00791,-0.004 z"
             id="path3239"
             sodipodi:nodetypes="ccccccsc" />
          <path
             style="fill:#000000;fill-opacity:1;fill-rule:evenodd;stroke:none"
             d="m 433,736.36218 c 0,0 -10,5 -25,5 -17.81036,0.12226 -28,-6 -37,-19 l -45.4,-71.5 50.81304,-56.03122 c 0,0 47.72847,-22.321 47.72847,-22.321 L 461.0922,598.9002 502,666.36218 530.24323,601.31716 559.32375,577.19874 575.38726,602.32957 496,778.36218 c -4,9 -10,20 -31,20 -16,0 -22.4,-4.4 -22.4,-4.4 l 38.4,-81.6 -63.5,-99.3 -38.5,41.3 54,82 z"
             id="path3241"
             sodipodi:nodetypes="cccccccccccccccccc" />
        </g>
      </g>
      <path
         sodipodi:nodetypes="cccccc"
         id="path3558"
         d="m 229.99646,155.63403 0,-9.36334 c 0,-5.6828 2.18408,-7.42587 7.64428,-7.42587 1.52886,0 2.18408,0.21841 2.18408,0.21841 l 0,17.26548 c -3.44095,-0.23595 -6.06792,-0.40155 -9.82836,-0.69468 z"
         style="fill:#37373f;fill-opacity:1;fill-rule:evenodd;stroke:none" />
      <path
         sodipodi:nodetypes="cccscc"
         id="path3571"
         d="m 270.63953,157.96108 c -7.74231,-0.27343 -13.76587,-0.60941 -18.49255,-0.88188 l 1.78842,-2.06828 c 2.18408,-2.40249 5.02338,-3.49453 8.73632,-3.49453 3.05771,0 4.45019,0.65132 4.45019,0.65132 l 3.51762,5.79337 z"
         style="fill:#37373f;fill-opacity:1;fill-rule:evenodd;stroke:none" />
      <path
         sodipodi:nodetypes="cccscc"
         id="path3560"
         d="m 295.60056,158.71834 c -3.11396,-0.078 -5.97793,-0.12185 -9.85752,-0.22731 l 1.03949,-2.39198 c 1.09204,-2.62089 3.49453,-4.36816 7.20747,-4.36816 2.62089,0 4.36816,0.87363 4.36816,0.87363 l -2.7576,6.11382 z"
         style="fill:#37373f;fill-opacity:1;fill-rule:evenodd;stroke:none" />
      <path
         sodipodi:nodetypes="cccccc"
         id="path3556"
         d="m 201.30527,153.19795 c 0.85074,-0.42203 4.67161,-1.77385 10.78174,-1.68547 4.14975,0 11.79403,0.87364 11.79403,0.87364 0,0 0.21841,0.65522 0.21841,1.96567 0.001,0.30659 -0.0194,0.72864 -0.019,0.84605 l -22.77518,-1.99989 z"
         style="fill:#37373f;fill-opacity:1;fill-rule:evenodd;stroke:none" />
      <path
         style="fill:url(#radialGradient3207);fill-opacity:1;fill-rule:nonzero;stroke:none"
         d="m 484.99999,141.36218 c -1,0 -2.99999,0 -2.99999,0 0,-3 -3,-5 -6,-5 0,0 0,-4 0,-4 5,0 9.00359,4.03042 9.0001,8.95758"
         id="path3091"
         sodipodi:nodetypes="csccc" />
      <path
         sodipodi:nodetypes="csccc"
         id="path3109"
         d="m 484.99999,141.36218 c -1,0 -2.99999,0 -2.99999,0 0,-3 -3,-5 -6,-5 0,0 0,-4 0,-4 5,0 9.00359,4.03042 9.0001,8.95758"
         style="fill:url(#linearGradient3209);fill-opacity:1;fill-rule:nonzero;stroke:none" />
      <g
         id="g3270" />
    </g>
    <g
       id="g67721"
       transform="matrix(4.6321733,0,0,-4.6321733,-847.39788,2228.4103)"
       style="fill:#ffffff">
      <g
         id="g67723"
         clip-path="url(#clipPath67725)"
         style="fill:#ffffff">
        <g
           id="g67729"
           transform="translate(264.8551,419.969)"
           style="fill:#ffffff">
          <path
             d="m 0,0 -0.811,0.267 c -0.544,0.182 -0.768,0.389 -0.768,0.786 0,0.405 0.328,0.638 1.113,0.638 0.457,0 0.949,-0.112 1.303,-0.25 C 0.958,1.389 1.01,1.415 1.027,1.519 L 1.165,2.321 C 1.182,2.407 1.156,2.442 1.087,2.468 0.63,2.649 0.017,2.77 -0.509,2.77 -1.89,2.77 -2.77,2.174 -2.77,1.035 c 0,-0.88 0.423,-1.415 1.338,-1.743 l 0.819,-0.293 c 0.743,-0.268 0.889,-0.431 0.889,-0.82 0,-0.543 -0.319,-0.768 -1.122,-0.768 -0.492,0 -1.121,0.164 -1.605,0.38 -0.094,0.043 -0.155,0.052 -0.172,-0.051 L -2.77,-3.063 c -0.017,-0.112 -0.017,-0.138 0.104,-0.19 0.509,-0.216 1.294,-0.363 1.889,-0.363 1.338,0 2.226,0.648 2.226,1.89 C 1.449,-0.803 1.078,-0.354 0,0 m -3.326,2.658 -0.799,0 c -0.127,0 -0.186,-0.026 -0.203,-0.13 -0.21,-1.432 -0.499,-3.097 -0.913,-4.625 l -0.084,0 c -0.287,1.286 -0.553,2.873 -0.84,4.461 -0.017,0.086 -0.051,0.112 -0.144,0.112 l -1.257,0 c -0.085,0 -0.127,-0.026 -0.144,-0.112 -0.278,-1.57 -0.544,-3.132 -0.857,-4.461 l -0.092,0 c -0.363,1.45 -0.593,3.218 -0.808,4.625 -0.016,0.104 -0.068,0.13 -0.203,0.13 l -0.852,0 c -0.118,0 -0.175,-0.026 -0.152,-0.156 0.296,-1.663 0.631,-3.624 1.255,-5.824 0.042,-0.13 0.118,-0.181 0.245,-0.181 l 1.066,0 c 0.135,0 0.194,0.051 0.228,0.19 0.346,1.51 0.66,3.063 0.913,4.288 l 0.067,0 c 0.254,-1.217 0.568,-2.727 0.889,-4.288 0.025,-0.147 0.092,-0.19 0.227,-0.19 l 1.066,0 c 0.127,0 0.203,0.051 0.245,0.181 0.608,2.14 1.039,4.179 1.299,5.824 0.02,0.131 -0.034,0.156 -0.152,0.156 m -8.051,-5.117 -2.773,0 0,1.596 2.266,0 c 0.078,0 0.112,0.035 0.112,0.121 l 0,0.802 c 0,0.087 -0.034,0.121 -0.112,0.121 l -2.266,0 0,1.433 2.72,0 c 0.078,0 0.112,0.034 0.112,0.12 l 0,0.803 c 0,0.086 -0.034,0.121 -0.112,0.121 l -3.79,0 c -0.094,0 -0.138,-0.043 -0.138,-0.121 l 0,-5.911 c 0,-0.103 0.026,-0.129 0.138,-0.129 l 3.843,0 c 0.078,0 0.112,0.034 0.112,0.12 l 0,0.803 c 0,0.086 -0.034,0.121 -0.112,0.121 m -4.996,5.117 -0.854,0 c -0.121,0 -0.147,-0.035 -0.147,-0.147 l 0,-3.753 -0.052,0 -2.97,3.831 c -0.034,0.051 -0.06,0.069 -0.155,0.069 l -0.707,0 c -0.095,0 -0.138,-0.052 -0.138,-0.121 l 0,-5.894 c 0,-0.112 0.025,-0.146 0.146,-0.146 l 0.854,0 c 0.121,0 0.147,0.034 0.147,0.146 l 0,3.754 0.052,0 2.961,-3.745 c 0.078,-0.112 0.138,-0.155 0.251,-0.155 l 0.612,0 c 0.121,0 0.147,0.034 0.147,0.146 l 0,5.868 c 0,0.112 -0.026,0.147 -0.147,0.147"
             style="fill:#ffffff;fill-opacity:1;fill-rule:nonzero;stroke:none"
             id="path67731"
             inkscape:connector-curvature="0" />
        </g>
      </g>
    </g>
  </g>
</svg>
