<?xml version="1.0" encoding="UTF-8" standalone="no"?>

<svg
   xmlns="http://www.w3.org/2000/svg"
   version="1.1"
   width="100%"
   height="100%"
   viewBox="0 0 44 22"
   id="svg3419">
  <g
     id="g3033"
     style="fill:#0d6ab3">
    <path
       d="m 19.608536,15.477849 c 0,1.753267 1.59898,3.331208 3.310169,3.331208 1.199235,0 1.977685,-0.315589 2.917436,-1.178196 l -4.242906,-5.336945 c -1.227287,0.890659 -1.984699,1.66911 -1.984699,3.183933 z"
       id="path3025" />
    <path
       d="m 23.255332,6.4309901 c 0.638189,-0.4558495 1.16417,-0.9958558 1.16417,-1.7182019 0,-0.9467643 -0.61715,-1.7111888 -1.655085,-1.7111888 -1.087025,0 -1.655084,0.7574115 -1.655084,1.7111888 0,0.7433853 0.610137,1.4657314 1.311444,2.3002866 0.27351,-0.1753267 0.834555,-0.5820847 0.834555,-0.5820847 z"
       id="path3029" />
    <path
       d="m 43.319722,21.333761 c 0,-0.119222 -0.07714,-0.175326 -0.217405,-0.175326 l -0.238444,0 0,0.61715 0.09818,0 0,-0.27351 0.105197,0 0.1613,0.27351 0.105196,0 -0.175327,-0.27351 c 0.09117,-0.01403 0.161301,-0.05611 0.161301,-0.168314 z m -0.357667,0.09117 0,-0.189353 0.126236,0 c 0.105196,0 0.133248,0.03507 0.133248,0.09117 0,0.07013 -0.03507,0.09818 -0.147274,0.09818 l -0.11221,0 z"
       id="path3033" />
    <path
       d="m 43.074265,20.934016 c -0.294549,0 -0.540007,0.224419 -0.540007,0.532994 0,0.308575 0.245458,0.532993 0.540007,0.532993 0.287535,0 0.532993,-0.224418 0.532993,-0.532993 0,-0.308575 -0.245458,-0.532994 -0.532993,-0.532994 z m 0,0.974817 c -0.245458,0 -0.434811,-0.18234 -0.434811,-0.441823 0,-0.259484 0.189353,-0.448837 0.434811,-0.448837 0.238444,0 0.427797,0.189353 0.427797,0.448837 0,0.259483 -0.189353,0.441823 -0.427797,0.441823 z"
       id="path3037" />
    <path
       d="m 31.425557,17.92541 3.345234,4.06758 7.195409,0 0,-5.294867 -9.432578,-0.007 c -0.743385,0.862607 -0.841568,0.925725 -1.108065,1.2343 z"
       id="path3041" />
    <path
       d="m 30.541911,8.5489368 0,-3.569652 11.431302,0 0,-4.9792788192 -16.207202,0 C 27.463173,0.88365265 28.445003,2.5738022 28.445003,4.6426575 c 0,1.7392411 -0.89066,2.9104236 -2.237169,3.9203055 0,0 -1.009882,0.7854637 -1.556901,1.1711825 l 4.235893,5.0914875 1.676124,-1.781319 10.715969,0 0,-4.4953772 -10.737008,0 0,0 z"
       id="path3045" />
    <path
       d="m 19.790876,5.9808e-6 -11.0806485,0 L -3.9952e-6,21.99299 l 7.3637221952,0 1.423653,-4.081606 6.8938468,0 c -0.245458,-0.750399 -0.378706,-1.591967 -0.378706,-2.524705 0,-2.875358 2.026777,-4.740835 3.927319,-6.0382523 -0.89066,-1.0379342 -2.181065,-2.6158747 -2.181065,-4.7618737 0,-2.0618423 0.988843,-3.72393956 2.74211,-4.5865470192 z M 10.126867,12.812883 l 2.342365,-7.0341083 2.279248,7.0341083 -4.621613,0 z"
       id="path3049" />
  </g>
</svg>
