<?xml version="1.0" encoding="UTF-8" standalone="no"?>
<!-- Created with Inkscape (http://www.inkscape.org/) -->

<svg
   xmlns="http://www.w3.org/2000/svg"
   version="1.0"
   width="100%"
   height="100%"
   viewBox="0 0 48 22"
   id="svg2">
  <path
     d="M 6.4084065,3.7736427 0.4943237,15.716613 c -0.69317514,1.399305 -0.12006704,3.095879 1.2792273,3.789059 1.3997406,0.693181 3.0963013,0.120068 3.7894765,-1.279237 0,0 1.720217,-3.810931 3.3739284,-7.149624 1.6447841,3.336908 3.3551821,7.143822 3.3551821,7.143822 0.690497,1.40109 2.386165,1.976881 3.786798,1.286378 1.40108,-0.690502 1.976866,-2.386183 1.286369,-3.786828 L 11.479342,3.7785526 C 11.003537,2.8135452 10.021576,2.2016003 8.9454365,2.2007076 7.8692966,2.1999934 6.8859966,2.8095281 6.4084065,3.7736427"
     id="path2982"
     style="fill:#dc181d" />
  <path
     d="m 45.653368,2.4944055 c -1.399295,-0.6931806 -3.095855,-0.1205144 -3.789031,1.2792372 0,0 -1.720663,3.8109309 -3.374374,7.1500703 -1.644339,-3.3369077 -3.355182,-7.1442677 -3.355182,-7.1442677 -0.5008,-1.0163375 -1.53052,-1.5952527 -2.59327,-1.5747206 -0.0058,0 -0.01161,-7.141e-4 -0.01696,-7.141e-4 l -15.373491,0 c -1.549713,0 -2.806176,1.2564734 -2.806176,2.8061984 0,1.549725 1.256463,2.8061984 2.806176,2.8061984 l 4.304113,0 0,9.1332006 c 0,1.561777 1.266284,2.82807 2.828048,2.82807 1.561764,0 2.828047,-1.266293 2.828047,-2.82807 l 0,-9.1332006 3.707795,0 5.128515,10.4052966 c 0.475358,0.965453 1.457765,1.576952 2.533905,1.577845 1.07614,7.14e-4 2.05944,-0.608821 2.53703,-1.572935 L 46.932595,6.2840901 C 47.62577,4.8843385 47.053108,3.1882109 45.653368,2.494584"
     id="path2984"
     style="fill:#000000" />
</svg>
