<?xml version="1.0" encoding="UTF-8" standalone="no"?>
<!-- Created with Inkscape (http://www.inkscape.org/) -->

<svg
   xmlns="http://www.w3.org/2000/svg"
   version="1.0"
   width="100%"
   height="100%"
   viewBox="0 0 65 22"
   id="svg2">
  <path
     d="M 8.9462078,2.20016 C 7.8700728,2.19928 6.8869128,2.80942 6.4093248,3.77353 L 0.494296,15.71711 c -0.6931723,1.39929 -0.1199308,3.09542 1.279358,3.78859 1.3997348,0.69318 3.0968708,0.11993 3.7900428,-1.27936 0,0 1.720074,-3.81061 3.373779,-7.14927 1.6447782,3.33687 3.3548572,7.14345 3.3548572,7.14345 0.690494,1.40108 2.386505,1.97713 3.787132,1.28664 1.401075,-0.6905 1.97713,-2.38651 1.286635,-3.78714 L 11.480181,3.77935 C 11.004379,2.81436 10.022344,2.20106 8.9462078,2.20016 z m 35.4843542,0 c -1.051979,-0.0114 -2.06778,0.56731 -2.565997,1.57337 0,0 -1.720072,3.81162 -3.373778,7.15072 C 36.846455,7.58738 35.134475,3.77935 35.134475,3.77935 34.633678,2.76303 33.605028,2.184 32.542282,2.20453 c -0.0058,0 -0.01211,0 -0.01747,0 l -15.374126,0 c -1.549706,0 -2.806145,1.25644 -2.806145,2.80615 0,1.5497 1.256439,2.80614 2.806145,2.80614 l 4.30528,0 0,9.13307 c 0,1.56176 1.266219,2.82798 2.827978,2.82798 1.561757,0 2.827977,-1.26622 2.827977,-2.82798 l 0,-9.13307 3.707081,0 5.129074,10.40515 c 0.475358,0.96545 1.457839,1.57684 2.533974,1.57774 1.076137,8.8e-4 2.059294,-0.60926 2.536886,-1.57337 L 46.932509,6.28421 C 47.625685,4.88448 47.052885,3.18779 45.653152,2.49417 45.259603,2.29922 44.842197,2.20463 44.43056,2.20016 z"
     id="path2982"
     style="fill:#000000" />
  <path
     d="m 53.039662,2.23073 c -1.048374,-0.0139 -2.059345,0.56104 -2.558718,1.56609 l -5.926668,11.92757 c -0.694782,1.39834 -0.129166,3.08362 1.269167,3.7784 1.398337,0.69478 3.083621,0.12771 3.778403,-1.27063 L 55.528513,6.30605 C 56.223291,4.90771 55.656223,3.22242 54.257886,2.52765 53.864609,2.33224 53.449896,2.23616 53.039662,2.23073 z m 8.383504,0 c -1.048374,-0.0139 -2.05934,0.56104 -2.558714,1.56609 L 52.93778,15.72439 c -0.694777,1.39834 -0.129166,3.08362 1.269171,3.7784 1.398333,0.69478 3.083621,0.12771 3.778399,-1.27063 L 63.912022,6.30605 C 64.606799,4.90771 64.039727,3.22242 62.64139,2.52765 62.248113,2.33224 61.8334,2.23616 61.423166,2.23073 z"
     id="rect2991"
     style="fill:#ff0000" />
</svg>
