<?xml version="1.0" encoding="UTF-8" standalone="no"?>
<!-- Created with Inkscape (http://www.inkscape.org/) -->

<svg
   xmlns="http://www.w3.org/2000/svg"
   xmlns:xlink="http://www.w3.org/1999/xlink"
   version="1.0"
   width="100%"
   height="100%"
   viewBox="0 0 71 22"
   id="svg2">
  <defs
     id="defs4">
    <linearGradient
       id="linearGradient3775">
      <stop
         id="stop3777"
         style="stop-color:#c9c9c9;stop-opacity:1"
         offset="0" />
      <stop
         id="stop3779"
         style="stop-color:#ffffff;stop-opacity:1"
         offset="1" />
    </linearGradient>
    <linearGradient
       id="linearGradient3765">
      <stop
         id="stop3767"
         style="stop-color:#000000;stop-opacity:1"
         offset="0" />
      <stop
         id="stop3769"
         style="stop-color:#dbdbdb;stop-opacity:1"
         offset="1" />
    </linearGradient>
    <linearGradient
       x1="1445"
       y1="562"
       x2="1445"
       y2="366"
       id="linearGradient3771"
       xlink:href="#linearGradient3765"
       gradientUnits="userSpaceOnUse"
       gradientTransform="matrix(0.04657588,0,0,0.04657558,7.2978565,343.75419)" />
    <linearGradient
       x1="1385"
       y1="318"
       x2="1385"
       y2="225"
       id="linearGradient3781"
       xlink:href="#linearGradient3775"
       gradientUnits="userSpaceOnUse"
       gradientTransform="matrix(0.04657588,0,0,0.04657558,5.4348212,357.72686)" />
    <filter
       color-interpolation-filters="sRGB"
       id="filter3789">
      <feGaussianBlur
         id="feGaussianBlur3791"
         stdDeviation="1.4425" />
    </filter>
  </defs>
  <g
     transform="translate(-7.4445972,-355.75385)"
     id="layer1">
    <path
       d="m 57.879271,360.75428 19.841326,0 0,13.22746 -26.455106,0 6.61378,-13.22746 z"
       id="rect2970"
       style="fill:url(#linearGradient3771)" />
    <path
       d="m 58.903937,362.38443 0,10.15347 2.002765,0 0,-4.28495 3.726067,0 0,4.28495 2.04934,0 0,-10.15347 -2.04934,0 0,3.81919 -3.726067,0 0,-3.81919 -2.002765,0 z m 8.989148,0 0,10.15347 3.819225,0 c 2.167454,0 3.912373,-1.74491 3.912373,-3.91235 l 0,-2.32878 c 0,-2.16744 -1.744919,-3.91234 -3.912373,-3.91234 l -3.819225,0 z m 2.049339,1.90959 1.210972,0 c 1.393366,0 2.515095,1.12173 2.515095,2.51509 l 0,1.30411 c 0,1.39335 -1.121729,2.51509 -2.515095,2.51509 l -1.210972,0 0,-6.33429 z"
       id="rect2975"
       style="fill:url(#linearGradient3781);fill-opacity:1;stroke:#000000;stroke-width:0.18630293;stroke-miterlimit:4;stroke-opacity:1;stroke-dasharray:none" />
    <g
       transform="matrix(0.3570818,0,0,0.35707948,-176.41128,318.89776)"
       id="g3761">
      <path
         d="m 532.83134,113.78344 -16.5625,33.44625 c -1.94125,3.91875 -0.33625,8.67 3.5825,10.61125 3.92,1.94125 8.67125,0.33625 10.6125,-3.5825 0,0 4.8175,-10.6725 9.44875,-20.0225 4.60625,9.345 9.39625,20.00625 9.39625,20.00625 1.93375,3.92375 6.6825,5.53625 10.605,3.6025 3.92375,-1.93375 5.53625,-6.6825 3.6025,-10.605 l -16.48375,-33.4425 c -1.3325,-2.7025 -4.0825,-4.41625 -7.09625,-4.41875 -3.01375,-0.002 -5.7675,1.705 -7.105,4.405"
         id="path2982"
         style="fill:#dc181d" />
      <path
         d="m 642.73759,110.20094 c -3.91875,-1.94125 -8.67,-0.3375 -10.61125,3.5825 0,0 -4.81875,10.6725 -9.45,20.02375 -4.605,-9.345 -9.39625,-20.0075 -9.39625,-20.0075 -1.4025,-2.84625 -4.28625,-4.4675 -7.2625,-4.41 -0.0163,0 -0.0325,-0.002 -0.0475,-0.002 l -43.05375,0 c -4.34,0 -7.85875,3.51875 -7.85875,7.85875 0,4.34 3.51875,7.85875 7.85875,7.85875 l 12.05375,0 0,25.5775 c 0,4.37375 3.54625,7.92 7.92,7.92 4.37375,0 7.92,-3.54625 7.92,-7.92 l 0,-25.5775 10.38375,0 14.3625,29.14 c 1.33125,2.70375 4.0825,4.41625 7.09625,4.41875 3.01375,0.002 5.7675,-1.705 7.105,-4.405 l 16.5625,-33.445 c 1.94125,-3.92 0.3375,-8.67 -3.5825,-10.6125"
         id="path2984"
         style="fill:#000000" />
    </g>
    <path
       d="m 1110,102 0,218 43,0 0,-92 80,0 0,92 44,0 0,-218 -44,0 0,82 -80,0 0,-82 -43,0 z m 193,0 0,218 82,0 c 46.536,0 84,-37.464 84,-84 l 0,-50 c 0,-46.536 -37.464,-84 -84,-84 l -82,0 z m 44,41 26,0 c 29.916,0 54,24.084 54,54 l 0,28 c 0,29.916 -24.084,54 -54,54 l -26,0 0,-136 z"
       transform="matrix(0.04657588,0,0,0.04657558,7.2978565,357.72687)"
       id="path3783"
       style="fill:none;stroke:#000000;stroke-width:5;stroke-miterlimit:4;stroke-opacity:1;stroke-dasharray:none;filter:url(#filter3789)" />
  </g>
</svg>
