<?xml version="1.0" encoding="UTF-8" standalone="no"?>
<!-- Created with Inkscape (http://www.inkscape.org/) -->

<svg
   xmlns="http://www.w3.org/2000/svg"
   version="1.1"
   width="100%"
   height="100%"
   viewBox="0 0 78 22"
   id="svg2">
  <g
     id="g3026">
    <path
       d="M 36.76472,7.4929519 41.89836,2.2407102 -3.7333203e-8,2.2000004 l 0,17.5074696 22.1930980373332,0 11.451955,-9.690182"
       id="path5870"
       style="fill:#ec1b2c" />
    <path
       d="m 70.054376,16.328122 -14.058265,-7.3694271 0,6.9215661 -3.593544,0 0,-11.7259464 14.176735,7.6951474 0,-6.9215559 3.475074,0 z m -33.289656,-3.664358 -7.187084,7.043706 44.267732,3.4e-5 0,-17.466804 -24.838901,1.02e-5 -9.31952,7.7765778"
       id="path5872"
       style="fill:#ec1b2c" />
    <path
       d="m 33.289651,3.9507447 -6.041892,0 6.397294,6.0665433 -10.425226,9.28303 6.594746,0.162862 6.950147,-6.799416 3.277637,3.216497 6.041894,0 -6.397304,-5.862973 8.332287,-7.4101377 -6.002401,0 -5.252113,4.8858016 -3.475069,-3.5422072"
       id="path5874"
       style="fill:#ffffff" />
    <path
       d="m 33.289651,3.9507447 -6.041892,0 6.397294,6.0665433 -10.425226,9.28303 6.594746,0.162862 6.950147,-6.799416 3.277637,3.216497 6.041894,0 -6.397304,-5.862973 8.332287,-7.4101377 -6.002401,0 -5.252113,4.8858016 -3.475069,-3.5422072 z"
       id="path5882"
       style="fill:none;stroke:#ffffff;stroke-width:0.67363966" />
    <path
       d="m 52.402567,4.1543146 0,11.7259464 3.593544,0 0,-6.9215661 14.058265,7.3694271 0,-11.4002159 -3.475074,0 0,6.9215559 -14.176735,-7.6951474"
       id="path5884"
       style="fill:#ffffff" />
    <path
       d="m 52.402567,4.1543146 0,11.7259464 3.593544,0 0,-6.9215661 14.058265,7.3694271 0,-11.4002159 -3.475074,0 0,6.9215559 -14.176735,-7.6951474 z"
       id="path5886"
       style="fill:none;stroke:#ffffff;stroke-width:0.67363966" />
    <path
       d="M 13.386937,3.9507447 3.277626,15.839541 l 3.5540586,0 2.1719188,-2.361475 8.8061606,0 1.895498,2.402195 3.514565,0 -9.83289,-11.9295163"
       id="path5888"
       style="fill:#ffffff" />
    <path
       d="M 13.386937,3.9507447 3.277626,15.839541 l 3.5540586,0 2.1719188,-2.361475 8.8061606,0 1.895498,2.402195 3.514565,0 -9.83289,-11.9295163 z"
       id="path5890"
       style="fill:none;stroke:#ffffff;stroke-width:0.67363966" />
    <path
       d="m 13.347453,7.7372433 -3.080184,3.5422077 6.081378,0 -3.001194,-3.5422077"
       id="path5898"
       style="fill:#ec1b2c" />
  </g>
  <g
     id="g3007">
    <path
       d="m 77.537674,18.531146 0,1.268845 -0.163721,0 0,-1.105123 c 0,0.04094 0,0.04094 0,0.04094 l 0,0 -0.04093,0.04093 -0.409302,1.023262 -0.163722,0 -0.450232,-1.023262 0,0 -0.04093,-0.04093 c 0,0 0,0 0,0 l 0,1.064189 -0.16372,0 0,-1.268845 0.286511,0 0.327442,0.818607 0.08187,0.122794 0,0.08187 0,0.04093 c 0.04093,-0.04093 0.04093,-0.04093 0.04093,-0.04093 l 0.04093,-0.08187 0.04093,-0.122794 0.327441,-0.818607 0.286512,0 z m -1.964652,0.163722 0,1.105123 -0.163719,0 0,-1.105123 -0.409303,0 0,-0.163722 0.982325,0 0,0.163722 -0.409303,0"
       id="path5900"
       style="fill:#000000" />
  </g>
</svg>
