<?xml version="1.0" encoding="UTF-8" standalone="no"?>
<!-- Created with Inkscape (http://www.inkscape.org/) -->

<svg
   xmlns="http://www.w3.org/2000/svg"
   version="1.1"
   width="100%"
   height="100%"
   viewBox="0 0 105 22"
   id="svg2">
  <g
     id="g3009">
    <g
       id="g2993">
      <path
         style="fill:#ec1b2c"
         id="path5870"
         d="M 36.76472,7.4929519 41.89836,2.2407102 -3.7333203e-8,2.2000004 l 0,17.5074696 22.1930980373332,0 11.451955,-9.690182" />
      <path
         style="fill:#ec1b2c"
         id="path5872"
         d="m 70.054376,16.328122 -14.058265,-7.3694271 0,6.9215661 -3.593544,0 0,-11.7259464 14.176735,7.6951474 0,-6.9215559 3.475074,0 z m -33.289656,-3.664358 -7.187084,7.043706 44.267732,3.4e-5 0,-17.466804 -24.838901,1.02e-5 -9.31952,7.7765778" />
      <path
         style="fill:#ffffff"
         id="path5874"
         d="m 33.289651,3.9507447 -6.041892,0 6.397294,6.0665433 -10.425226,9.28303 6.594746,0.162862 6.950147,-6.799416 3.277637,3.216497 6.041894,0 -6.397304,-5.862973 8.332287,-7.4101377 -6.002401,0 -5.252113,4.8858016 -3.475069,-3.5422072" />
      <path
         style="fill:none;stroke:#ffffff;stroke-width:0.67363966;stroke-linecap:butt;stroke-linejoin:miter;stroke-miterlimit:4;stroke-dasharray:none"
         id="path5882"
         d="m 33.289651,3.9507447 -6.041892,0 6.397294,6.0665433 -10.425226,9.28303 6.594746,0.162862 6.950147,-6.799416 3.277637,3.216497 6.041894,0 -6.397304,-5.862973 8.332287,-7.4101377 -6.002401,0 -5.252113,4.8858016 -3.475069,-3.5422072 z" />
      <path
         style="fill:#ffffff"
         id="path5884"
         d="m 52.402567,4.1543146 0,11.7259464 3.593544,0 0,-6.9215661 14.058265,7.3694271 0,-11.4002159 -3.475074,0 0,6.9215559 -14.176735,-7.6951474" />
      <path
         style="fill:none;stroke:#ffffff;stroke-width:0.67363966;stroke-linecap:butt;stroke-linejoin:miter;stroke-miterlimit:4;stroke-dasharray:none"
         id="path5886"
         d="m 52.402567,4.1543146 0,11.7259464 3.593544,0 0,-6.9215661 14.058265,7.3694271 0,-11.4002159 -3.475074,0 0,6.9215559 -14.176735,-7.6951474 z" />
      <path
         style="fill:#ffffff"
         id="path5888"
         d="M 13.386937,3.9507447 3.277626,15.839541 l 3.5540586,0 2.1719188,-2.361475 8.8061606,0 1.895498,2.402195 3.514565,0 -9.83289,-11.9295163" />
      <path
         style="fill:none;stroke:#ffffff;stroke-width:0.67363966;stroke-linecap:butt;stroke-linejoin:miter;stroke-miterlimit:4;stroke-dasharray:none"
         id="path5890"
         d="M 13.386937,3.9507447 3.277626,15.839541 l 3.5540586,0 2.1719188,-2.361475 8.8061606,0 1.895498,2.402195 3.514565,0 -9.83289,-11.9295163 z" />
      <path
         style="fill:#ec1b2c"
         id="path5898"
         d="m 13.347453,7.7372433 -3.080184,3.5422077 6.081378,0 -3.001194,-3.5422077" />
    </g>
    <g
       id="g3004">
      <path
         style="fill:#000000"
         id="rect3074"
         d="m 76.722742,2.2407021 27.698608,0 0,17.4668029 -27.698608,0 z" />
      <g
         id="text3019"
         transform="matrix(0.13795971,0,0,0.13795971,-4.292319,-1.2594737)">
        <path
           style="fill:#ffffff"
           id="path3024"
           d="m 602.9375,39.625 0,92.125 19.09375,0 0,-39.5 36.28125,0 0,39.5 19.0625,0 0,-92.125 -19.0625,0 0,36.96875 -36.28125,0 0,-36.96875 -19.09375,0 z m 92.90625,0 0,92.125 37.75,0 c 6.66831,0 12.71623,-1.08771 18.15625,-3.28125 5.43991,-2.19353 8.03955,-5.30764 11.8125,-9.34375 3.86055,-4.03609 4.79437,-6.81602 6.8125,-12.34375 2.10571,-5.61542 3.15617,-13.806369 3.15625,-20.5625 l 0,-1.1875 c -8e-5,-6.75604 -1.05054,-14.909728 -3.15625,-20.4375 -2.01813,-5.615383 -2.95195,-8.395308 -6.8125,-12.34375 -3.77295,-4.036023 -6.37259,-7.150126 -11.8125,-9.34375 -5.44002,-2.193445 -11.48794,-3.281157 -18.15625,-3.28125 l -37.75,0 z m 19.0625,17.25 18.53125,0 c 7.28249,7.5e-5 11.18139,2.4303 15.65625,7.34375 4.47476,4.913584 4.71875,12.005952 4.71875,21.21875 l 0,0.65625 c 0,9.212891 -0.24399,16.27401 -4.71875,21.1875 -4.47486,4.8258 -8.37376,7.21875 -15.65625,7.21875 l -18.53125,0 0,-57.625 z" />
      </g>
    </g>
  </g>
</svg>
