<?xml version="1.0" encoding="UTF-8" standalone="no"?>
<!-- Generator: Adobe Illustrator 13.0.0, SVG Export Plug-In . SVG Version: 6.00 Build 14948)  -->

<svg
   xmlns="http://www.w3.org/2000/svg"
   version="1.1"
   width="100%"
   height="100%"
   viewBox="0 0 90 22"
   xml:space="preserve"
   id="svg2">
<g
   id="Layer_2"
   transform="translate(-29.628,-101.813)">
	<rect
   width="561.974"
   height="158.16701"
   id="rect5"
   x="0"
   y="0"
   style="fill:#ffffff" />
</g>
<g
   id="Layer_1"
   transform="matrix(0.17744618,0,0,0.17744618,-5.2573754,-3.0573759)">
	<path
   d="m 67.299,83.372 v -21.85 c 0,-8.957 -4.603,-13.311 -14.983,-13.311 -5.274,0 -11.47,1.424 -11.47,1.424 V 29.628 H 29.628 v 65.046 c 0,0 5.944,2.678 13.478,2.678 h 8.54 c 10.213,0 15.653,-4.936 15.653,-13.98 l 0,0 z M 56.166,81.196 c 0,4.938 -2.429,6.11 -7.033,6.11 H 40.846 V 59.514 c 0,0 4.187,-1.171 8.122,-1.171 4.52,0 7.199,2.008 7.199,6.445 v 16.408 l -0.001,0 z"
   id="path8"
   style="fill:#e2001a;fill-rule:evenodd" />
	<path
   d="m 111.911,65.54 v -3.012 c 0,-9.459 -4.521,-14.316 -15.487,-14.316 h -5.357 c -10.213,0 -15.487,4.772 -15.487,15.236 V 81.53 c 0,11.638 7.87,15.905 19.674,15.905 9.292,0 16.407,-2.176 16.407,-2.176 l -1.842,-9.543 c 0,0 -7.117,1.674 -13.144,1.674 -5.609,0 -10.13,-0.754 -10.13,-6.698 v -3.6 l 10.884,0.085 c 10.213,10e-4 14.482,-3.85 14.482,-11.637 l 0,0 z m -10.296,-1.673 c 0,4.354 -2.428,5.105 -6.865,5.105 h -8.205 v -6.278 c 0,-4.352 3.266,-5.356 7.618,-5.356 4.27,0 7.452,1.171 7.452,5.441 v 1.088 l 0,0 z"
   id="path10"
   style="fill:#c90031;fill-rule:evenodd" />
	<path
   d="M 154.339,82.2 V 64.034 c 0,-11.636 -7.787,-15.822 -19.674,-15.822 -9.209,0 -16.324,2.177 -16.324,2.177 l 1.841,9.46 c 0,0 7.117,-1.674 13.144,-1.674 5.609,0 10.13,0.754 10.13,6.696 v 3.517 h -10.967 c -10.214,0 -14.398,3.766 -14.398,11.637 v 3.096 c 0,9.462 4.521,14.231 15.487,14.231 h 5.357 c 10.128,0 15.404,-4.688 15.404,-15.152 l 0,0 z m -10.799,0.754 c 0,4.353 -3.349,5.274 -7.785,5.274 -4.27,0 -7.368,-1.09 -7.368,-5.358 v -1.256 c 0,-4.27 2.428,-5.023 6.782,-5.023 h 8.288 l 0.083,6.363 0,0 z"
   id="path12"
   style="fill:#c90031;fill-rule:evenodd" />
	<path
   d="m 188.729,95.68 -1.841,-9.377 c 0,0 -3.433,1.088 -6.111,1.088 -2.428,0 -3.683,-0.502 -3.683,-2.931 V 58.761 h 9.457 v -9.963 h -9.457 V 35.571 h -11.303 v 13.311 h -5.943 v 9.879 h 5.943 v 28.294 c 0,7.369 4.521,10.381 11.47,10.381 5.524,0 11.468,-1.756 11.468,-1.756 l 0,0 z"
   id="path14"
   style="fill:#e2001a" />
	<path
   d="m 229.986,65.54 v -3.012 c 0,-9.459 -4.52,-14.316 -15.486,-14.316 h -5.358 c -10.213,0 -15.487,4.772 -15.487,15.236 V 81.53 c 0,11.638 7.87,15.905 19.673,15.905 9.292,0 16.407,-2.176 16.407,-2.176 l -1.842,-9.543 c 0,0 -7.116,1.674 -13.143,1.674 -5.609,0 -10.128,-0.754 -10.128,-6.698 v -3.6 l 10.882,0.085 c 10.213,10e-4 14.482,-3.85 14.482,-11.637 l 0,0 z M 219.69,63.867 c 0,4.354 -2.427,5.105 -6.865,5.105 h -8.203 v -6.278 c 0,-4.352 3.263,-5.356 7.617,-5.356 4.27,0 7.451,1.171 7.451,5.441 v 1.088 l 0,0 z"
   id="path16"
   style="fill:#e2001a;fill-rule:evenodd" />
	<path
   d="M 304.638,95.094 V 48.798 h -11.049 v 38.427 c 0,0 -2.683,0.418 -7.453,0.418 -4.602,0 -7.7,-1.926 -7.7,-6.446 V 48.798 h -11.14 v 33.736 c 0,10.634 7.787,14.817 16.833,14.817 h 2.008 c 9.457,0.001 18.501,-2.257 18.501,-2.257 l 0,0 z"
   id="path18"
   style="fill:#e2001a" />
	<path
   d="M 352.005,96.852 V 62.444 c 0,-9.963 -5.36,-14.232 -14.318,-14.232 -6.861,0 -12.305,1.172 -12.305,1.172 V 29.628 h -11.218 v 67.224 h 11.218 V 59.095 c 0,0 4.939,-0.92 8.122,-0.92 4.435,0 7.535,1.339 7.535,6.613 v 32.063 h 10.966 l 0,0.001 z"
   id="path20"
   style="fill:#e2001a" />
	<path
   d="m 394.18,85.299 v -5.274 c 0,-8.205 -4.687,-12.307 -15.569,-12.307 -6.531,0 -7.534,-1.674 -7.534,-5.023 v -1.003 c 0,-3.852 2.595,-4.187 6.864,-4.187 6.279,0 13.476,2.261 13.476,2.261 l 1.76,-9.461 c 0,0 -6.195,-2.093 -15.57,-2.093 -10.465,0 -17.496,2.847 -17.496,12.726 v 3.934 c 0,8.204 4.771,12.56 15.152,12.56 7.365,0 8.035,2.006 8.035,5.355 v 1.172 c 0,3.517 -3.517,3.767 -8.621,3.767 -5.108,0 -12.975,-2.344 -12.975,-2.344 l -1.843,9.797 c 0,0 7.199,2.174 15.904,2.174 11.217,-10e-4 18.417,-2.511 18.417,-12.054 l 0,0 z"
   id="path22"
   style="fill:#e2001a" />
	<path
   d="m 437.918,65.54 v -3.012 c 0,-9.459 -4.519,-14.316 -15.484,-14.316 h -5.357 c -10.216,0 -15.489,4.772 -15.489,15.236 V 81.53 c 0,11.638 7.868,15.905 19.673,15.905 9.292,0 16.409,-2.176 16.409,-2.176 l -1.843,-9.543 c 0,0 -7.114,1.674 -13.145,1.674 -5.605,0 -10.126,-0.754 -10.126,-6.698 v -3.6 l 10.879,0.085 c 10.216,10e-4 14.483,-3.85 14.483,-11.637 l 0,0 z m -10.296,-1.673 c 0,4.354 -2.427,5.105 -6.862,5.105 h -8.204 v -6.278 c 0,-4.352 3.265,-5.356 7.618,-5.356 4.269,0 7.448,1.171 7.448,5.441 v 1.088 l 0,0 z"
   id="path24"
   style="fill:#e2001a;fill-rule:evenodd" />
	<path
   d="m 487.329,95.68 -1.843,-9.377 c 0,0 -3.435,1.088 -6.109,1.088 -2.431,0 -3.687,-0.502 -3.687,-2.931 V 58.761 h 9.461 V 48.798 H 475.69 V 35.571 h -11.3 v 13.311 h -5.944 v 9.879 h 5.944 v 28.294 c 0,7.369 4.521,10.381 11.47,10.381 5.526,0 11.469,-1.756 11.469,-1.756 l 0,0 z"
   id="path26"
   style="fill:#e2001a" />
	<polygon
   points="520.223,48.872 532.346,48.872 517.448,96.852 505.313,96.852 490.18,48.872 502.657,48.872 511.484,82.552 "
   id="polygon28"
   style="fill:#e2001a" />
	<path
   d="m 487.272,95.68 -1.843,-9.377 c 0,0 -3.435,1.088 -6.109,1.088 -2.431,0 -3.687,-0.502 -3.687,-2.931 V 58.761 h 9.461 v -9.963 h -9.461 V 35.571 h -11.301 v 13.311 h -5.944 v 9.879 h 5.944 v 28.294 c 0,7.369 4.521,10.381 11.47,10.381 5.527,0 11.47,-1.756 11.47,-1.756 l 0,0 z"
   id="path30"
   style="fill:#e2001a" />
	<rect
   x="239.589"
   y="69.403999"
   width="17.24"
   height="9.8800001"
   id="rect32"
   style="fill:#e2001a" />
	<rect
   x="446.19"
   y="86.971001"
   width="9.8789997"
   height="9.8789997"
   id="rect34"
   style="fill:#e2001a" />
	<g
   id="g36">
		<path
   d="m 83.771,121.482 c -2.47,-0.861 -4.46,-1.555 -4.46,-4.053 0,-1.197 0.604,-2.373 1.764,-3.087 1.311,-0.798 3.075,-0.882 4.184,-0.882 2.545,0 4.183,0.609 4.939,2.121 0.428,0.84 0.378,1.596 0.353,2.016 h -2.243 c -0.025,-0.378 -0.025,-0.84 -0.202,-1.303 -0.504,-1.238 -1.839,-1.574 -2.973,-1.574 -2.016,0 -3.453,0.924 -3.453,2.395 0,1.553 1.437,2.037 3.402,2.709 l 1.185,0.377 c 2.117,0.715 4.662,1.555 4.662,4.285 0,0.84 -0.252,1.512 -0.555,2.037 -1.436,2.268 -4.763,2.268 -5.67,2.268 -2.948,0 -4.208,-0.861 -4.586,-1.176 -1.411,-1.072 -1.436,-2.625 -1.436,-3.445 H 81.1 c 0.025,0.652 0.025,1.701 0.882,2.479 0.479,0.42 1.386,0.883 2.873,0.883 2.621,0 3.629,-1.344 3.629,-2.752 0,-1.742 -1.512,-2.246 -3.402,-2.877 l -1.311,-0.421 z"
   id="path38" />
		<path
   d="m 108.064,123.961 c -0.101,0.609 -0.227,1.533 -0.857,2.414 -1.437,2.08 -4.334,2.438 -6.199,2.438 -6.375,0 -6.879,-4.242 -6.879,-7.184 0,-1.994 0.252,-4.682 1.839,-6.32 1.865,-1.891 4.738,-1.891 5.544,-1.891 4.133,0 6.401,1.617 6.401,4.873 h -2.394 c 0.025,-2.94 -2.344,-3.612 -4.107,-3.612 -4.032,0 -4.738,3.297 -4.738,7.099 0,1.994 0.202,5.773 4.511,5.773 1.185,0 2.293,-0.314 3.024,-0.84 1.159,-0.84 1.336,-2.016 1.437,-2.75 h 2.418 z"
   id="path40" />
		<path
   d="m 124.544,128.539 h -2.419 v -7.141 h -8.089 v 7.141 h -2.444 v -14.826 h 2.444 v 6.258 h 8.089 v -6.258 h 2.419 v 14.826 z"
   id="path42" />
		<path
   d="m 143.772,128.539 h -2.545 l -2.369,-5.797 h -6.375 l -2.697,5.797 h -2.243 l 7.132,-14.826 h 2.873 l 6.224,14.826 z m -8.619,-16.317 h -2.243 v -1.933 h 2.243 v 1.933 z m 3.125,9.155 -1.663,-4.115 c -0.328,-0.799 -0.454,-1.135 -0.731,-1.953 h -0.05 c -0.353,0.861 -0.429,1.029 -0.832,1.953 l -1.89,4.115 h 5.166 z m 1.008,-9.155 h -2.218 v -1.933 h 2.218 v 1.933 z"
   id="path44" />
		<path
   d="m 158.539,125.367 c 0.731,2.227 0.807,2.479 1.487,3.172 h -2.57 c -0.227,-0.211 -0.428,-0.379 -0.655,-0.924 -0.126,-0.336 -0.252,-0.693 -0.529,-1.701 l -0.202,-0.715 c -0.252,-0.861 -0.58,-1.869 -1.361,-2.457 -0.983,-0.713 -2.369,-0.713 -3.352,-0.693 h -2.243 v 6.49 h -2.369 v -14.848 h 6.477 c 1.285,0.021 2.948,0.021 4.158,0.924 0.706,0.525 1.386,1.512 1.386,2.898 0,0.588 -0.126,1.154 -0.378,1.68 -0.756,1.596 -2.293,1.996 -2.898,2.164 0.454,0.146 1.058,0.314 1.613,0.859 0.58,0.588 0.882,1.408 1.159,2.27 l 0.277,0.881 z m -9.425,-4.746 h 2.217 c 1.764,0.021 2.948,-0.02 3.729,-0.461 0.933,-0.504 1.26,-1.387 1.26,-2.311 0,-0.378 0,-1.785 -1.512,-2.415 -0.68,-0.272 -1.487,-0.294 -3.175,-0.315 h -2.52 v 5.502 z"
   id="path46" />
		<path
   d="m 165.998,128.539 h -2.444 v -14.848 h 9.777 v 1.428 h -7.333 v 5.377 h 6.879 v 1.428 h -6.879 v 6.615 z"
   id="path48" />
		<path
   d="M 187.694,128.539 H 177.16 v -14.826 h 9.854 v 1.428 h -7.409 v 4.977 h 6.778 v 1.428 h -6.778 v 5.566 h 8.089 v 1.427 z"
   id="path50" />
		<path
   d="m 203.117,125.367 c 0.731,2.227 0.807,2.479 1.487,3.172 h -2.57 c -0.227,-0.211 -0.429,-0.379 -0.655,-0.924 -0.126,-0.336 -0.252,-0.693 -0.529,-1.701 l -0.202,-0.715 c -0.252,-0.861 -0.58,-1.869 -1.361,-2.457 -0.982,-0.713 -2.369,-0.713 -3.352,-0.693 h -2.243 v 6.49 h -2.369 v -14.848 h 6.476 c 1.286,0.021 2.949,0.021 4.158,0.924 0.706,0.525 1.386,1.512 1.386,2.898 0,0.588 -0.126,1.154 -0.378,1.68 -0.756,1.596 -2.293,1.996 -2.898,2.164 0.454,0.146 1.059,0.314 1.613,0.859 0.58,0.588 0.882,1.408 1.159,2.27 l 0.278,0.881 z m -9.425,-4.746 h 2.218 c 1.764,0.021 2.948,-0.02 3.729,-0.461 0.932,-0.504 1.26,-1.387 1.26,-2.311 0,-0.378 0,-1.785 -1.512,-2.415 -0.681,-0.272 -1.487,-0.294 -3.175,-0.315 h -2.52 v 5.502 z"
   id="path52" />
		<path
   d="m 216.851,128.539 h -2.445 v -14.848 h 9.778 v 1.428 h -7.333 v 5.377 h 6.879 v 1.428 h -6.879 v 6.615 z"
   id="path54" />
		<path
   d="m 238.547,128.539 h -10.534 v -14.826 h 9.853 v 1.428 h -7.409 v 4.977 h 6.779 v 1.428 h -6.779 v 5.566 h 8.089 v 1.427 z"
   id="path56" />
		<path
   d="m 253.97,125.367 c 0.73,2.227 0.806,2.479 1.487,3.172 h -2.571 c -0.227,-0.211 -0.428,-0.379 -0.655,-0.924 -0.126,-0.336 -0.252,-0.693 -0.529,-1.701 l -0.202,-0.715 c -0.252,-0.861 -0.58,-1.869 -1.361,-2.457 -0.983,-0.713 -2.369,-0.713 -3.352,-0.693 h -2.243 v 6.49 h -2.369 v -14.848 h 6.477 c 1.285,0.021 2.948,0.021 4.158,0.924 0.706,0.525 1.386,1.512 1.386,2.898 0,0.588 -0.126,1.154 -0.378,1.68 -0.756,1.596 -2.293,1.996 -2.898,2.164 0.454,0.146 1.058,0.314 1.613,0.859 0.58,0.588 0.882,1.408 1.159,2.27 l 0.278,0.881 z m -9.425,-4.746 h 2.217 c 1.764,0.021 2.949,-0.02 3.73,-0.461 0.932,-0.504 1.26,-1.387 1.26,-2.311 0,-0.378 0,-1.785 -1.512,-2.415 -0.68,-0.272 -1.487,-0.294 -3.175,-0.315 h -2.52 v 5.502 z"
   id="path58" />
		<path
   d="m 272.466,128.539 h -2.671 l -7.812,-10.354 c -0.554,-0.777 -0.933,-1.281 -1.512,-2.121 0.101,0.967 0.101,1.344 0.126,2.247 v 10.228 h -2.117 v -14.826 h 2.747 l 6.905,9.197 c 1.083,1.471 1.335,1.848 2.343,3.465 -0.025,-1.826 -0.05,-2.037 -0.101,-3.863 v -8.799 h 2.091 v 14.826 z"
   id="path60" />
		<path
   d="m 281.009,121.482 c -2.47,-0.861 -4.46,-1.555 -4.46,-4.053 0,-1.197 0.605,-2.373 1.764,-3.087 1.311,-0.798 3.074,-0.882 4.184,-0.882 2.545,0 4.183,0.609 4.938,2.121 0.429,0.84 0.378,1.596 0.353,2.016 h -2.242 c -0.025,-0.378 -0.025,-0.84 -0.202,-1.303 -0.504,-1.238 -1.839,-1.574 -2.973,-1.574 -2.017,0 -3.453,0.924 -3.453,2.395 0,1.553 1.437,2.037 3.402,2.709 l 1.185,0.377 c 2.116,0.715 4.661,1.555 4.661,4.285 0,0.84 -0.252,1.512 -0.554,2.037 -1.437,2.268 -4.763,2.268 -5.67,2.268 -2.948,0 -4.208,-0.861 -4.587,-1.176 -1.411,-1.072 -1.436,-2.625 -1.436,-3.445 h 2.419 c 0.025,0.652 0.025,1.701 0.882,2.479 0.479,0.42 1.386,0.883 2.873,0.883 2.62,0 3.628,-1.344 3.628,-2.752 0,-1.742 -1.512,-2.246 -3.401,-2.877 l -1.311,-0.421 z"
   id="path62" />
		<path
   d="m 302.63,128.539 h -10.533 v -14.826 h 9.853 v 1.428 h -7.408 v 4.977 h 6.778 v 1.428 h -6.778 v 5.566 h 8.089 v 1.427 z"
   id="path64" />
		<path
   d="m 319.212,128.539 h -2.42 v -7.141 h -8.089 v 7.141 h -2.444 v -14.826 h 2.444 v 6.258 h 8.089 v -6.258 h 2.42 v 14.826 z"
   id="path66" />
		<path
   d="M 334.685,128.539 H 324.15 v -14.826 h 9.854 v 1.428 h -7.409 v 4.977 h 6.779 v 1.428 h -6.779 v 5.566 h 8.09 v 1.427 z"
   id="path68" />
		<path
   d="m 352.324,128.539 h -2.671 l -7.813,-10.354 c -0.555,-0.777 -0.933,-1.281 -1.512,-2.121 0.101,0.967 0.101,1.344 0.126,2.247 v 10.228 h -2.117 v -14.826 h 2.747 l 6.904,9.197 c 1.084,1.471 1.336,1.848 2.344,3.465 -0.025,-1.826 -0.05,-2.037 -0.101,-3.863 v -8.799 h 2.092 v 14.826 z"
   id="path70" />
	</g>
</g>
</svg>