<?xml version="1.0" encoding="UTF-8" standalone="no"?>
<!-- Created with Inkscape (http://www.inkscape.org/) -->

<svg
   xmlns="http://www.w3.org/2000/svg"
   xmlns:xlink="http://www.w3.org/1999/xlink"
   version="1.1"
   width="100%"
   height="100%"
   viewBox="0 0 54 22"
   id="svg10286">
  <defs
     id="defs3">
    <linearGradient
       x1="0"
       y1="0"
       x2="1"
       y2="0"
       id="linearGradient4479"
       gradientUnits="userSpaceOnUse"
       gradientTransform="matrix(8.8302,0,0,-8.8302,442.273,155.223)"
       spreadMethod="pad">
      <stop
         id="stop4481"
         style="stop-color:#760c04;stop-opacity:1"
         offset="0" />
      <stop
         id="stop4483"
         style="stop-color:#d60c12;stop-opacity:1"
         offset="1" />
    </linearGradient>
    <linearGradient
       x1="0"
       y1="0"
       x2="1"
       y2="0"
       id="linearGradient4461"
       gradientUnits="userSpaceOnUse"
       gradientTransform="matrix(19.781,0,0,-19.781,421.73,155.156)"
       spreadMethod="pad">
      <stop
         id="stop4463"
         style="stop-color:#252058;stop-opacity:1"
         offset="0" />
      <stop
         id="stop4465"
         style="stop-color:#2a2372;stop-opacity:1"
         offset="1" />
    </linearGradient>
    <linearGradient
       x1="0"
       y1="0"
       x2="1"
       y2="0"
       id="linearGradient4443"
       gradientUnits="userSpaceOnUse"
       gradientTransform="matrix(9.529499,0,0,-9.529499,411.56415,155.21872)"
       spreadMethod="pad">
      <stop
         id="stop4445"
         style="stop-color:#760c04;stop-opacity:1"
         offset="0" />
      <stop
         id="stop4447"
         style="stop-color:#d60c12;stop-opacity:1"
         offset="1" />
    </linearGradient>
    <linearGradient
       x1="0"
       y1="0"
       x2="1"
       y2="0"
       id="linearGradient3150"
       xlink:href="#linearGradient4479"
       gradientUnits="userSpaceOnUse"
       gradientTransform="matrix(12.021821,0,0,12.021821,41.808594,10.909679)"
       spreadMethod="pad" />
    <linearGradient
       x1="0"
       y1="0"
       x2="1"
       y2="0"
       id="linearGradient3156"
       xlink:href="#linearGradient4461"
       gradientUnits="userSpaceOnUse"
       gradientTransform="matrix(26.93072,0,0,26.93072,13.840454,11.000896)"
       spreadMethod="pad" />
    <linearGradient
       x1="0"
       y1="0"
       x2="1"
       y2="0"
       id="linearGradient3183"
       xlink:href="#linearGradient4443"
       gradientUnits="userSpaceOnUse"
       gradientTransform="matrix(12.973877,0,0,12.973877,567.61065,-211.32113)"
       spreadMethod="pad" />
  </defs>
  <path
     d="m 7.2891862,4.298632e-4 5.6527148,0 L 12.974576,21.831181 6.7391629,21.818928 C 7.0168974,21.135483 7.2769332,20.428894 7.475704,19.771317 8.6547143,15.885756 5.9154894,14.629143 8.4382448,10.062861 10.624724,9.6408134 11.485156,7.6231537 11.173385,6.0888065 l 0.01089,-0.4901197 C 11.04541,5.5006628 10.944663,5.4543737 10.831663,5.3372896 9.5777732,4.0575324 8.1305585,2.9574858 7.2891862,4.298632e-4 m -6.38789431,0 5.06865531,0 C 6.1265132,2.4877877 7.147596,4.1582792 8.0774622,5.3372896 8.1795704,5.4666267 8.2884859,5.5033857 8.4287147,5.5986868 l -0.00953,0.4901197 C 8.7309552,7.6231537 7.874607,9.6421749 5.6881283,10.065584 c -1.3042632,3.72491 1.1245526,4.816788 1.0101913,7.941302 -0.063988,1.734479 -0.3185779,2.577213 -0.6521316,3.812042 l -6.0461719052,0 0,-21.8184981368 0.9012757952,0"
     id="path4449"
     style="fill:url(#linearGradient3183)" />
  <path
     d="m 40.771174,20.06675 0,1.752178 -4.032597,0 0,-8.800373 3.889645,0 0,1.752179 -1.55613,0 0,1.671853 1.45266,0 0,1.670491 -1.45266,0 0,1.953672 1.699082,0 z m -6.955617,-7.048195 2.334468,0 0,8.800509 -2.334468,0 0,-8.800509 z m -2.969309,0 2.454683,0 -1.191263,8.800373 -3.509802,0 -1.355998,-8.800373 2.456045,0 c 0.277734,2.42337 0.479228,4.477789 0.603119,6.167341 0.12253,-1.707251 0.255952,-3.21573 0.397542,-4.532247 l 0.145674,-1.635094 z m -6.178232,6.302124 c 0,0.51871 -0.02042,0.845456 -0.06399,0.982962 -0.04493,0.137506 -0.142951,0.20694 -0.299517,0.20694 -0.15112,0 -0.247783,-0.0599 -0.289988,-0.178349 -0.04084,-0.121169 -0.06126,-0.435662 -0.06126,-0.947565 l 0,-4.103392 c 0,-0.450638 0.03131,-0.722927 0.09394,-0.814143 0.06399,-0.09258 0.155205,-0.138868 0.275012,-0.138868 0.138867,0 0.234168,0.05582 0.279096,0.170181 0.04493,0.114361 0.06671,0.375758 0.06671,0.78283 l 0,4.039404 z m 1.852925,-5.558775 c -0.231445,-0.309048 -0.540493,-0.539132 -0.920336,-0.692975 -0.381204,-0.153843 -0.810059,-0.231446 -1.287926,-0.231446 -0.507818,0 -0.950287,0.08169 -1.328769,0.24506 -0.378481,0.163374 -0.67936,0.394819 -0.902637,0.701144 -0.223277,0.303602 -0.355337,0.639878 -0.397541,1.006107 -0.04357,0.36759 -0.06535,0.993854 -0.06535,1.877431 l 0,1.503034 c 0,0.90536 0.02451,1.541154 0.06671,1.901937 0.04357,0.362144 0.183795,0.697059 0.416602,1.004745 0.231445,0.307687 0.536409,0.539132 0.918974,0.692975 C 23.401874,21.923759 23.83209,22 24.312679,22 c 0.502373,0 0.946204,-0.08169 1.323324,-0.243698 0.381204,-0.163373 0.682083,-0.397542 0.90536,-0.701144 0.221915,-0.303602 0.355337,-0.639878 0.39618,-1.007468 0.04357,-0.36759 0.06535,-0.993854 0.06535,-1.877431 l 0,-1.503034 c 0,-0.90536 -0.02178,-1.539793 -0.06807,-1.901937 -0.04493,-0.362144 -0.17971,-0.698421 -0.413879,-1.003384 z m -8.540337,-0.743349 3.023767,0 0,8.800373 -2.025828,0 -0.0095,-5.941341 -0.810059,5.941341 -1.430878,0 -0.850902,-5.820172 -0.0095,5.820172 -2.02719,0 0,-8.800373 3.004706,0 c 0.0776,0.529602 0.170181,1.151782 0.276373,1.867901 l 0.332193,2.240937 0.526878,-4.108838 z m 22.644895,-0.886299 -5.400847,0 0,-12.1318261368 5.195269,0 0,2.4097555368 -2.138828,0 0,2.2845027 1.998599,0 0,2.325346 -1.998599,0 0,2.665707 2.344406,0 0,2.4465149 z m -6.679243,-0.939397 c -0.300879,0.393458 -0.695698,0.691614 -1.188541,0.89583 -0.491481,0.202855 -1.070094,0.303602 -1.73584,0.303602 -0.739264,0 -1.391396,-0.119807 -1.955034,-0.360782 -0.56636,-0.239614 -0.988408,-0.554108 -1.268865,-0.939396 C 27.517518,10.706824 27.352783,10.298391 27.30241,9.8708974 27.250675,9.4420426 27.226169,8.5407668 27.226169,7.16707 l 0,-7.1666401368 3.218453,0 0,9.0862759368 c 0,0.5323245 0.02859,0.871324 0.08713,1.0197212 0.05718,0.148398 0.175626,0.220554 0.352614,0.220554 0.201493,0 0.330831,-0.08033 0.390734,-0.242337 0.05718,-0.1633732 0.08577,-0.5486618 0.08577,-1.1545043 l 0,-8.9297098368 3.217092,0 0,8.0978677368 c 0,0.9230589 -0.02859,1.5711061 -0.08986,1.9455034 -0.0599,0.373035 -0.242337,0.755601 -0.541854,1.149058 z m -6.988291,0.939397 -5.154426,0 0,-12.1318261368 3.218453,0 0,9.6853112368 1.935973,0 0,2.4465149 z M 17.991496,4.5000016 c -0.08441,0.1511203 -0.28318,0.2273611 -0.594951,0.2273611 -0.07488,0 -0.179711,0.00272 -0.315855,0.00681 l 0,-2.6847672 c 0.326747,0.00408 0.545939,0.027229 0.658939,0.066711 0.111638,0.040843 0.204216,0.1361444 0.275011,0.2886261 0.0708,0.1497588 0.104832,0.4152404 0.104832,0.7937217 0,0.7161195 -0.0422,1.1490586 -0.127976,1.3015403 z m 0.127976,4.4110779 c 0,0.4914812 -0.06126,0.800529 -0.185157,0.9257818 -0.12253,0.1252528 -0.407071,0.1946867 -0.853625,0.2110237 l 0,-3.4090552 c 0.472421,0.016337 0.76377,0.078964 0.872685,0.1892407 0.110277,0.110277 0.166097,0.4261319 0.166097,0.9462035 l 0,1.1368055 z m 1.309709,-3.3641276 c 0.668468,-0.1497588 1.116383,-0.3648669 1.345106,-0.6439629 0.226,-0.2804574 0.340361,-0.7746615 0.340361,-1.4839738 0,-1.0483117 -0.16065,-1.8093588 -0.481951,-2.2817798 C 20.311396,0.66481444 19.89071,0.3870799 19.370638,0.23323675 18.847844,0.07803216 18.081351,4.298632e-4 17.068437,4.298632e-4 l -3.2062,0 0,12.1318261368 3.71538,0 c 1.290649,0 2.145635,-0.07352 2.562237,-0.219193 0.417963,-0.145674 0.721565,-0.416602 0.912168,-0.812782 0.190602,-0.397541 0.285903,-1.007468 0.285903,-1.8311417 l 0,-1.1313598 c 0,-0.7937218 -0.130699,-1.3818655 -0.397542,-1.7657927 C 20.676263,5.9894211 20.172529,5.713048 19.429181,5.5469519"
     id="path4467"
     style="fill:url(#linearGradient3156)" />
  <path
     d="m 46.73702,3.6627137 c -0.910806,0.7705772 -0.735179,3.7153801 -0.735179,3.7153801 l -4.137428,0 c 0,0 -0.420686,-3.3995252 1.087794,-5.2578959 1.507118,-1.85837083 3.679982,-2.20826188 5.643184,-2.10343071 1.961841,0.10483117 3.786175,0.91216734 4.696981,2.90940541 0.910806,1.9985995 0.420686,5.1884623 0.280458,5.8188108 -0.140229,0.6317099 -0.805975,2.5241166 -2.87537,4.5921496 -2.066671,2.068033 -3.434922,3.96044 -3.575151,4.485958 0.701143,-0.03404 6.707834,0 6.707834,0 l 0,3.997199 -12.018826,0 c 0,0 -0.104832,-2.860394 1.000661,-5.22386 1.787576,-3.820212 5.327329,-6.411039 6.097907,-8.131904 0.31177,-0.6943364 0.407071,-1.5438773 0.359421,-2.7092732 0.06126,-2.4083941 -1.449938,-2.9693089 -2.532286,-2.0925391"
     id="path4485"
     style="fill:url(#linearGradient3150)" />
</svg>
