<?xml version="1.0" encoding="UTF-8" standalone="no"?>
<!-- Created with Inkscape (http://www.inkscape.org/) -->

<svg
   xmlns="http://www.w3.org/2000/svg"
   xmlns:xlink="http://www.w3.org/1999/xlink"
   version="1.1"
   width="100%"
   height="100%"
   viewBox="0 0 54 22"
   id="svg10286">
  <defs
     id="defs3">
    <linearGradient
       x1="0"
       y1="0"
       x2="1"
       y2="0"
       id="linearGradient4643"
       gradientUnits="userSpaceOnUse"
       gradientTransform="matrix(8.7029,0,0,-8.7029,441.989,110.084)"
       spreadMethod="pad">
      <stop
         id="stop4645"
         style="stop-color:#760c04;stop-opacity:1"
         offset="0" />
      <stop
         id="stop4647"
         style="stop-color:#d60c12;stop-opacity:1"
         offset="1" />
    </linearGradient>
    <linearGradient
       x1="0"
       y1="0"
       x2="1"
       y2="0"
       id="linearGradient4625"
       gradientUnits="userSpaceOnUse"
       gradientTransform="matrix(19.577,0,0,-19.577,421.62,110.036)"
       spreadMethod="pad">
      <stop
         id="stop4627"
         style="stop-color:#252058;stop-opacity:1"
         offset="0" />
      <stop
         id="stop4629"
         style="stop-color:#2a2372;stop-opacity:1"
         offset="1" />
    </linearGradient>
    <linearGradient
       x1="0"
       y1="0"
       x2="1"
       y2="0"
       id="linearGradient4607"
       gradientUnits="userSpaceOnUse"
       gradientTransform="matrix(9.431172,0,0,-9.431172,411.55862,110.09756)"
       spreadMethod="pad">
      <stop
         id="stop4609"
         style="stop-color:#760c04;stop-opacity:1"
         offset="0" />
      <stop
         id="stop4611"
         style="stop-color:#d60c12;stop-opacity:1"
         offset="1" />
    </linearGradient>
    <linearGradient
       x1="0"
       y1="0"
       x2="1"
       y2="0"
       id="linearGradient3172"
       xlink:href="#linearGradient4643"
       gradientUnits="userSpaceOnUse"
       gradientTransform="matrix(11.972069,0,0,11.972069,41.860783,10.934333)"
       spreadMethod="pad" />
    <linearGradient
       x1="0"
       y1="0"
       x2="1"
       y2="0"
       id="linearGradient3177"
       xlink:href="#linearGradient4625"
       gradientUnits="userSpaceOnUse"
       gradientTransform="matrix(26.93093,0,0,26.93093,13.840345,11.000364)"
       spreadMethod="pad" />
    <linearGradient
       x1="0"
       y1="0"
       x2="1"
       y2="0"
       id="linearGradient3204"
       xlink:href="#linearGradient4607"
       gradientUnits="userSpaceOnUse"
       gradientTransform="matrix(12.97391,0,0,12.97391,573.4452,-151.45401)"
       spreadMethod="pad" />
  </defs>
  <path
     d="m 7.2881654,7.360784e-4 5.6525106,0 L 12.973691,21.832164 6.7392845,21.819783 C 7.0157884,21.136089 7.2757846,20.429009 7.4752526,19.772828 8.6528016,15.885266 5.9152754,14.629306 8.4368259,10.063552 10.624096,9.6412303 11.483871,7.6231645 11.172976,6.0893245 l 0.0096,-0.491104 C 11.043666,5.50055 10.943244,5.4537782 10.830442,5.3382243 9.5772325,4.0575023 8.1286822,2.9583649 7.2881654,7.360784e-4 m -6.38710256,0 5.06786256,0 C 6.1257485,2.4878955 7.1464743,4.1579241 8.0764079,5.3382243 8.1782053,5.4675346 8.286881,5.5033013 8.4271964,5.5982205 l -0.00963,0.491104 c 0.3122706,1.53384 -0.5433783,3.5532815 -2.730648,3.9769785 -1.3041079,3.723861 1.123899,4.816121 1.0097207,7.941578 -0.06328,1.733308 -0.3177731,2.576576 -0.6520539,3.811902 l -6.0445679074,0 0,-21.8190469216 0.9010450474,0"
     id="path4613"
     style="fill:url(#linearGradient3204)" />
  <path
     d="m 40.771275,20.067216 0,1.751191 -4.033381,0 0,-8.799977 3.888938,0 0,1.751191 -1.55585,0 0,1.67278 1.454053,0 0,1.671404 -1.454053,0 0,1.953411 1.700293,0 z m -6.956618,-7.048786 2.334325,0 0,8.80039 -2.334325,0 0,-8.80039 z m -2.97001,0 2.45552,0 -1.18993,8.799977 -3.512012,0 -1.355007,-8.799977 2.45552,0 c 0.277879,2.42388 0.480099,4.479088 0.603906,6.168375 0.122432,-1.707171 0.254494,-3.217625 0.397561,-4.532738 l 0.144442,-1.635637 z m -6.176629,6.303188 c 0,0.517241 -0.02063,0.84602 -0.06466,0.982208 -0.0454,0.137564 -0.141691,0.206346 -0.299889,0.206346 -0.151321,0 -0.247616,-0.05915 -0.290261,-0.178833 -0.04127,-0.119681 -0.06053,-0.434703 -0.06053,-0.946441 l 0,-4.103538 c 0,-0.449835 0.03164,-0.723588 0.09492,-0.81438 0.0619,-0.09354 0.154072,-0.13894 0.273753,-0.13894 0.140315,0 0.233859,0.0564 0.279255,0.17058 0.04402,0.114178 0.06741,0.37555 0.06741,0.78274 l 0,4.040258 z m 1.852988,-5.560342 C 26.288523,13.453132 25.980379,13.2234 25.600702,13.069328 25.218274,12.915257 24.79045,12.838221 24.311726,12.838221 c -0.506236,0 -0.949192,0.08116 -1.328869,0.244864 -0.378301,0.162326 -0.678191,0.394809 -0.902421,0.700201 -0.222854,0.304017 -0.356291,0.639673 -0.39756,1.00697 -0.04265,0.368672 -0.06466,0.994588 -0.06466,1.876374 l 0,1.503576 c 0,0.906548 0.02339,1.540719 0.06741,1.902512 0.04265,0.361794 0.182961,0.69745 0.415444,1.004218 0.231108,0.308144 0.5365,0.539252 0.918928,0.693324 0.381053,0.154071 0.811629,0.229732 1.291727,0.229732 0.503485,0 0.946442,-0.08116 1.323367,-0.243489 0.382429,-0.163701 0.682318,-0.39756 0.905172,-0.700201 0.221479,-0.305393 0.356291,-0.639673 0.396185,-1.008345 0.04402,-0.367296 0.06603,-0.993213 0.06603,-1.877751 l 0,-1.503576 c 0,-0.905172 -0.02201,-1.537967 -0.06741,-1.901136 -0.0454,-0.361794 -0.181584,-0.69745 -0.414068,-1.004218 z m -8.541356,-0.742846 3.023659,0 0,8.799977 -2.024944,0 -0.0096,-5.940019 -0.810253,5.940019 -1.432043,0 -0.84877,-5.818963 -0.01101,5.818963 -2.02632,0 0,-8.799977 3.004401,0 c 0.07841,0.529622 0.170579,1.152787 0.276503,1.868121 l 0.33153,2.240919 0.526871,-4.10904 z m 22.644431,-0.885913 -5.399392,0 0,-12.1317809216 5.194421,0 0,2.4101235216 -2.137746,0 0,2.2835646 1.997431,0 0,2.3262094 -1.997431,0 0,2.6659929 2.342717,0 0,2.4458905 z m -6.678738,-0.938188 c -0.301266,0.392058 -0.696075,0.690572 -1.187179,0.894167 -0.49248,0.203595 -1.070249,0.304017 -1.737435,0.304017 -0.738719,0 -1.390773,-0.119681 -1.954786,-0.360418 -0.566764,-0.240737 -0.987711,-0.554384 -1.269717,-0.939563 -0.279255,-0.38518 -0.444332,-0.793745 -0.493855,-1.2215696 -0.05228,-0.4292001 -0.07704,-1.3302451 -0.07704,-2.7031351 l 0,-7.1670912216 3.219,0 0,9.0861108216 c 0,0.5323731 0.02751,0.8721565 0.08667,1.0193501 0.05778,0.148569 0.174706,0.221478 0.352164,0.221478 0.202219,0 0.33153,-0.08116 0.390682,-0.243488 0.05778,-0.1637015 0.08667,-0.5475054 0.08667,-1.1541632 l 0,-8.9292877216 3.217625,0 0,8.0984003216 c 0,0.9230553 -0.03026,1.5696067 -0.09079,1.9437816 -0.06053,0.374174 -0.242113,0.756602 -0.542002,1.151411 z m -6.988258,0.938188 -5.154528,0 0,-12.1317809216 3.219,0 0,9.6858904216 1.935528,0 0,2.4458905 z m -8.96643,-7.6320582 c -0.08391,0.1513205 -0.283382,0.2269808 -0.595653,0.2269808 -0.07429,0 -0.178833,0.00275 -0.315022,0.00688 l 0,-2.6852518 c 0.326027,0.0055 0.54613,0.027513 0.658932,0.067406 0.111427,0.039894 0.203595,0.1361885 0.275129,0.287509 0.07016,0.1513206 0.104548,0.4168193 0.104548,0.7951207 0,0.7153335 -0.04127,1.1486605 -0.127934,1.3013567 z m 0.127934,4.410306 c 0,0.4924796 -0.0619,0.8006232 -0.184336,0.9258066 -0.123807,0.126559 -0.407189,0.1953406 -0.854273,0.2104726 l 0,-3.407463 c 0.471845,0.015132 0.763481,0.078412 0.872157,0.1884629 0.111427,0.1100513 0.166452,0.4264488 0.166452,0.9464412 l 0,1.1362797 z m 1.310987,-3.363443 C 20.096762,5.3973769 20.545221,5.1827769 20.773577,4.902146 20.999182,4.6228908 21.11336,4.1290356 21.11336,3.4192047 21.11336,2.370966 20.95241,1.6088608 20.631886,1.1370158 20.311362,0.66517083 19.890415,0.38729128 19.369047,0.23321946 18.847679,0.07914763 18.080071,7.360784e-4 17.067599,7.360784e-4 l -3.206619,0 0,12.1317809216 3.715607,0 c 1.290351,0 2.146,-0.07291 2.562819,-0.218727 0.41682,-0.145818 0.720836,-0.41682 0.912051,-0.81438 0.191214,-0.396185 0.286133,-1.005594 0.286133,-1.8296028 l 0,-1.1307772 c 0,-0.7951207 -0.130686,-1.3825195 -0.39756,-1.7663234 C 20.675907,5.9889027 20.172422,5.7123988 19.429576,5.5473218"
     id="path4631"
     style="fill:url(#linearGradient3177)" />
  <path
     d="m 45.969823,6.3273104 -3.913699,0 c 0,0 0,-2.511921 0.671313,-3.6812161 0.671313,-1.1679195 2.045578,-2.83382108 5.550712,-2.62885053 3.505134,0.20497056 4.732206,1.81034393 5.111883,4.76247023 0.381053,2.9493749 -0.993213,4.966065 -2.599962,5.49156 0.906548,0.204971 3.360692,0.759354 3.009903,6.047319 -0.350788,5.287965 -4.81612,5.550713 -5.854729,5.550713 -1.039985,0 -6.444879,0.262747 -6.065202,-6.806673 2.045578,0 4.265863,0.05778 4.265863,0.05778 0,0 -0.20497,3.447357 1.518708,3.447357 1.723679,0 1.723679,-1.430667 1.752567,-3.213498 0.02889,-1.781456 -0.262747,-2.454144 -0.584647,-2.774669 -0.320525,-0.3219 -1.079879,-0.584647 -2.803557,-0.52687 0,-0.962949 0,-3.2712755 0,-3.2712755 0,0 1.05099,0.145818 1.635637,0.028888 0.584648,-0.1169295 1.518708,-0.5543835 1.48982,-3.037416 -0.02889,-2.4844082 -0.876284,-2.5132967 -1.460931,-2.5421851 -0.583272,-0.028888 -1.606749,0.028888 -1.723679,3.0965685"
     id="path4649"
     style="fill:url(#linearGradient3172)" />
</svg>
