<?xml version="1.0" encoding="UTF-8" standalone="no"?>
<!-- Created with Inkscape (http://www.inkscape.org/) -->

<svg
   xmlns="http://www.w3.org/2000/svg"
   xmlns:xlink="http://www.w3.org/1999/xlink"
   version="1.1"
   width="100%"
   height="100%"
   viewBox="0 0 41 22"
   id="svg10286">
  <defs
     id="defs3">
    <linearGradient
       x1="0"
       y1="0"
       x2="1"
       y2="0"
       id="linearGradient4625"
       gradientUnits="userSpaceOnUse"
       gradientTransform="matrix(19.577,0,0,-19.577,421.62,110.036)"
       spreadMethod="pad">
      <stop
         id="stop4627"
         style="stop-color:#252058;stop-opacity:1"
         offset="0" />
      <stop
         id="stop4629"
         style="stop-color:#2a2372;stop-opacity:1"
         offset="1" />
    </linearGradient>
    <linearGradient
       x1="0"
       y1="0"
       x2="1"
       y2="0"
       id="linearGradient4607"
       gradientUnits="userSpaceOnUse"
       gradientTransform="matrix(9.431172,0,0,-9.431172,411.55862,110.09756)"
       spreadMethod="pad">
      <stop
         id="stop4609"
         style="stop-color:#760c04;stop-opacity:1"
         offset="0" />
      <stop
         id="stop4611"
         style="stop-color:#d60c12;stop-opacity:1"
         offset="1" />
    </linearGradient>
    <linearGradient
       x1="0"
       y1="0"
       x2="1"
       y2="0"
       id="linearGradient3111"
       xlink:href="#linearGradient4625"
       gradientUnits="userSpaceOnUse"
       gradientTransform="matrix(26.931842,0,0,26.931842,13.840782,11.000006)"
       spreadMethod="pad" />
    <linearGradient
       x1="0"
       y1="0"
       x2="1"
       y2="0"
       id="linearGradient3120"
       xlink:href="#linearGradient4607"
       gradientUnits="userSpaceOnUse"
       gradientTransform="matrix(12.974349,0,0,12.974349,573.46459,-151.45988)"
       spreadMethod="pad" />
  </defs>
  <path
     d="m 7.2883809,5.7872e-6 5.6527011,0 L 12.974099,21.832173 6.7394814,21.819792 C 7.0159947,21.136075 7.2759997,20.428971 7.4754745,19.772768 8.6530633,15.885074 5.9154444,14.629071 8.4370803,10.063163 10.624424,9.6408266 11.484229,7.6226924 11.173324,6.0888004 l 0.0096,-0.4911205 C 11.044009,5.500006 10.943584,5.4532326 10.830777,5.3376748 9.5775256,4.0569094 8.1289262,2.9577348 7.2883809,5.7872e-6 m -6.38731892,0 5.06803422,0 C 6.1259246,2.4872495 7.146685,4.1573346 8.0766501,5.3376748 8.178451,5.4669895 8.2871303,5.5027574 8.4274505,5.5976799 l -0.00963,0.4911205 C 8.7301016,7.6226924 7.8744237,9.6422023 5.68708,10.065914 4.3829279,13.789901 6.811017,14.882197 6.6968349,18.00776 6.6335529,19.741127 6.379051,20.584424 6.0447588,21.819792 l -6.0447725942,0 0,-21.8197862128 0.9010755742,0"
     id="path4613"
     style="fill:url(#linearGradient3120)" />
  <path
     d="m 40.772624,20.067165 0,1.751251 -4.033517,0 0,-8.800276 3.88907,0 0,1.751251 -1.555903,0 0,1.672837 1.454102,0 0,1.67146 -1.454102,0 0,1.953477 1.70035,0 z m -6.956853,-7.049025 2.334405,0 0,8.800689 -2.334405,0 0,-8.800689 z m -2.97011,0 2.455602,0 -1.18997,8.800276 -3.512131,0 -1.355052,-8.800276 2.455603,0 c 0.277888,2.423962 0.480115,4.47924 0.603926,6.168585 0.122437,-1.707229 0.254503,-3.217734 0.397574,-4.532892 l 0.144448,-1.635693 z m -6.176839,6.303402 c 0,0.517259 -0.02063,0.846048 -0.06466,0.982242 -0.0454,0.137568 -0.141696,0.206353 -0.2999,0.206353 -0.151326,0 -0.247624,-0.05916 -0.290271,-0.17884 -0.04127,-0.119685 -0.06053,-0.434717 -0.06053,-0.946473 l 0,-4.103677 c 0,-0.44985 0.03164,-0.723612 0.09492,-0.814407 0.06191,-0.09355 0.154077,-0.138945 0.273762,-0.138945 0.14032,0 0.233866,0.0564 0.279264,0.170586 0.04402,0.114182 0.06741,0.375562 0.06741,0.782766 l 0,4.040395 z m 1.853051,-5.56053 c -0.232491,-0.308154 -0.540645,-0.537894 -0.920335,-0.691971 -0.382441,-0.154077 -0.81028,-0.231116 -1.289019,-0.231116 -0.506253,0 -0.949225,0.08117 -1.328915,0.244873 -0.378314,0.162331 -0.678214,0.394822 -0.902451,0.700225 -0.222862,0.304027 -0.356303,0.639695 -0.397574,1.007003 -0.04265,0.368685 -0.06466,0.994623 -0.06466,1.876439 l 0,1.503627 c 0,0.906578 0.02339,1.54077 0.06741,1.902576 0.04265,0.361806 0.182967,0.697474 0.415458,1.004252 0.231116,0.308154 0.536519,0.53927 0.91896,0.693347 0.381065,0.154077 0.811656,0.22974 1.291771,0.22974 0.503501,0 0.946473,-0.08117 1.323411,-0.243497 0.382442,-0.163707 0.682342,-0.397574 0.905203,-0.700225 0.221486,-0.305403 0.356303,-0.639695 0.396198,-1.008379 0.04402,-0.367309 0.06603,-0.993247 0.06603,-1.877814 l 0,-1.503627 c 0,-0.905203 -0.02201,-1.538019 -0.06741,-1.901201 -0.0454,-0.361806 -0.181591,-0.697474 -0.414083,-1.004252 z m -8.541646,-0.742872 3.023762,0 0,8.800276 -2.025012,0 -0.0096,-5.94022 -0.81028,5.94022 -1.432091,0 -0.8488,-5.81916 -0.011,5.81916 -2.026389,0 0,-8.800276 3.004503,0 c 0.07841,0.52964 0.170585,1.152827 0.276513,1.868185 l 0.331541,2.240995 0.526888,-4.10918 z m 22.645199,-0.885943 -5.399575,0 0,-12.1321912128 5.194597,0 0,2.4102052128 -2.137819,0 0,2.2836419 1.997499,0 0,2.3262882 -1.997499,0 0,2.6660832 2.342797,0 0,2.4459727 z m -6.678965,-0.938219 c -0.301276,0.392071 -0.696098,0.690596 -1.187219,0.894197 -0.492496,0.203602 -1.070285,0.304027 -1.737493,0.304027 -0.738745,0 -1.390821,-0.119684 -1.954853,-0.36043 -0.566783,-0.240745 -0.987744,-0.554402 -1.26976,-0.939595 -0.279265,-0.385192 -0.444347,-0.793772 -0.493872,-1.2216105 -0.05228,-0.4292147 -0.07704,-1.3302902 -0.07704,-2.7032268 l 0,-7.1673339128 3.219109,0 0,9.0864186128 c 0,0.5323912 0.02751,0.8721861 0.08667,1.0193846 0.05778,0.148574 0.174712,0.221486 0.352176,0.221486 0.202226,0 0.331541,-0.08117 0.390695,-0.243497 0.05778,-0.1637068 0.08667,-0.5475237 0.08667,-1.1542021 l 0,-8.9295901128 3.217734,0 0,8.0986747128 c 0,0.9230865 -0.03026,1.5696598 -0.09079,1.9438465 -0.06053,0.374188 -0.242121,0.756629 -0.542021,1.151451 z m -6.988494,0.938219 -5.154703,0 0,-12.1321912128 3.21911,0 0,9.6862185128 1.935593,0 0,2.4459727 z M 17.991233,4.4998809 c -0.08392,0.1513257 -0.283392,0.2269885 -0.595673,0.2269885 -0.07429,0 -0.178839,0.00275 -0.315033,0.00688 l 0,-2.6853428 c 0.326038,0.0055 0.546148,0.027514 0.658955,0.067409 0.111431,0.039895 0.203602,0.1361931 0.275137,0.2875187 0.07016,0.1513257 0.104553,0.4168335 0.104553,0.7951477 0,0.7153577 -0.04127,1.1486994 -0.127939,1.3014007 z m 0.127939,4.4104554 c 0,0.4924963 -0.06191,0.8006504 -0.184342,0.925838 -0.123812,0.1265633 -0.407204,0.1953477 -0.854303,0.2104807 l 0,-3.4075794 c 0.471861,0.015133 0.763507,0.078414 0.872187,0.1884692 0.11143,0.1100551 0.166458,0.4264633 0.166458,0.9464733 l 0,1.1363182 z m 1.31103,-3.3635569 c 0.667209,-0.14995 1.115683,-0.3645573 1.344047,-0.6451976 0.225613,-0.2792647 0.339795,-0.7731366 0.339795,-1.4829916 0,-1.0482742 -0.160955,-1.8104053 -0.48149,-2.2822662 C 20.312018,0.66446304 19.891058,0.38657409 19.369672,0.23249704 18.848286,0.07842 18.080653,5.7872e-6 17.068146,5.7872e-6 l -3.206728,0 0,12.1321912128 3.715733,0 c 1.290395,0 2.146073,-0.07291 2.562906,-0.218734 0.416834,-0.145823 0.720861,-0.416833 0.912081,-0.814407 0.191221,-0.396198 0.286143,-1.005628 0.286143,-1.8296651 l 0,-1.1308155 c 0,-0.7951476 -0.13069,-1.3825663 -0.397573,-1.7663833 C 20.676576,5.9883752 20.173074,5.7118619 19.430202,5.5467794"
     id="path4631"
     style="fill:url(#linearGradient3111)" />
</svg>
