<?xml version="1.0" encoding="UTF-8" standalone="no"?>
<!-- Created with Inkscape (http://www.inkscape.org/) -->

<svg
   xmlns="http://www.w3.org/2000/svg"
   xmlns:xlink="http://www.w3.org/1999/xlink"
   version="1.1"
   width="100%"
   height="100%"
   viewBox="0 0 57 22"
   id="svg10863">
  <defs
     id="defs3">
    <linearGradient
       x1="0"
       y1="0"
       x2="1"
       y2="0"
       id="linearGradient3995"
       gradientUnits="userSpaceOnUse"
       gradientTransform="matrix(-4.5188,3.6593,3.6593,4.5188,278.571,58.01)"
       spreadMethod="pad">
      <stop
         id="stop3997"
         style="stop-color:#fed892;stop-opacity:1"
         offset="0" />
      <stop
         id="stop3999"
         style="stop-color:#fbb979;stop-opacity:1"
         offset="1" />
    </linearGradient>
    <linearGradient
       x1="0"
       y1="0"
       x2="1"
       y2="0"
       id="linearGradient3977"
       gradientUnits="userSpaceOnUse"
       gradientTransform="matrix(-5.1625,4.1805,4.1805,5.1625,274.581,57.803)"
       spreadMethod="pad">
      <stop
         id="stop3979"
         style="stop-color:#fed892;stop-opacity:1"
         offset="0" />
      <stop
         id="stop3981"
         style="stop-color:#fbb979;stop-opacity:1"
         offset="1" />
    </linearGradient>
    <linearGradient
       x1="0"
       y1="0"
       x2="1"
       y2="0"
       id="linearGradient3959"
       gradientUnits="userSpaceOnUse"
       gradientTransform="matrix(-18.972479,38.843208,38.843208,18.972479,256.48981,41.296272)"
       spreadMethod="pad">
      <stop
         id="stop3961"
         style="stop-color:#d37327;stop-opacity:1"
         offset="0" />
      <stop
         id="stop3963"
         style="stop-color:#fbb979;stop-opacity:1"
         offset="1" />
    </linearGradient>
    <linearGradient
       x1="0"
       y1="0"
       x2="1"
       y2="0"
       id="linearGradient3949"
       gradientUnits="userSpaceOnUse"
       gradientTransform="matrix(17.899,0,0,-17.899,250.483,63.997)"
       spreadMethod="pad">
      <stop
         id="stop3951"
         style="stop-color:#252058;stop-opacity:1"
         offset="0" />
      <stop
         id="stop3953"
         style="stop-color:#2a2372;stop-opacity:1"
         offset="1" />
    </linearGradient>
    <linearGradient
       x1="0"
       y1="0"
       x2="1"
       y2="0"
       id="linearGradient3931"
       gradientUnits="userSpaceOnUse"
       gradientTransform="matrix(10.534,0,0,-10.534,269.207,64.066)"
       spreadMethod="pad">
      <stop
         id="stop3933"
         style="stop-color:#252058;stop-opacity:1"
         offset="0" />
      <stop
         id="stop3935"
         style="stop-color:#2a2372;stop-opacity:1"
         offset="1" />
    </linearGradient>
    <linearGradient
       x1="0"
       y1="0"
       x2="1"
       y2="0"
       id="linearGradient11007"
       xlink:href="#linearGradient3931"
       gradientUnits="userSpaceOnUse"
       gradientTransform="matrix(10.534,0,0,-10.534,269.207,64.066)"
       spreadMethod="pad" />
    <linearGradient
       x1="0"
       y1="0"
       x2="1"
       y2="0"
       id="linearGradient11009"
       xlink:href="#linearGradient3949"
       gradientUnits="userSpaceOnUse"
       gradientTransform="matrix(17.899,0,0,-17.899,250.483,63.997)"
       spreadMethod="pad" />
    <linearGradient
       x1="0"
       y1="0"
       x2="1"
       y2="0"
       id="linearGradient11011"
       xlink:href="#linearGradient3959"
       gradientUnits="userSpaceOnUse"
       gradientTransform="matrix(-18.972479,38.843208,38.843208,18.972479,256.48981,41.296272)"
       spreadMethod="pad" />
    <linearGradient
       x1="0"
       y1="0"
       x2="1"
       y2="0"
       id="linearGradient11013"
       xlink:href="#linearGradient3977"
       gradientUnits="userSpaceOnUse"
       gradientTransform="matrix(-5.1625,4.1805,4.1805,5.1625,274.581,57.803)"
       spreadMethod="pad" />
    <linearGradient
       x1="0"
       y1="0"
       x2="1"
       y2="0"
       id="linearGradient11015"
       xlink:href="#linearGradient3995"
       gradientUnits="userSpaceOnUse"
       gradientTransform="matrix(-4.5188,3.6593,3.6593,4.5188,278.571,58.01)"
       spreadMethod="pad" />
  </defs>
  <g
     transform="matrix(0.28222222,0,0,0.28222222,-51.926465,-114.64606)"
     id="layer1">
    <g
       transform="matrix(0.3964283,0,0,0.3964283,111.05201,292.23672)"
       id="g10942">
      <g
         transform="matrix(13.112675,0,0,-13.112675,-2976.4649,1225.032)"
         id="g3921">
        <g
           id="g3923">
          <g
             id="g3929">
            <path
               d="m 279.741,56.637 -10.534,0 0,14.858 10.534,0 0,-14.858 z"
               id="path3937"
               style="fill:url(#linearGradient11007);stroke:none" />
          </g>
        </g>
      </g>
      <g
         transform="matrix(13.112675,0,0,-13.112675,-2976.4649,1225.032)"
         id="g3939">
        <g
           id="g3941">
          <g
             id="g3947">
            <path
               d="m 268.383,57.816 0,-1.194 -2.681,0 0,5.999 2.585,0 0,-1.194 -1.035,0 0,-1.139 0.967,0 0,-1.14 -0.967,0 0,-1.332 1.131,0 z m -4.624,4.805 1.5513,0 0,-5.999 -1.5513,0 0,5.999 z m -1.974,0 1.632,0 -0.791,-5.999 -2.334,0 -0.901,5.999 1.632,0 c 0.185,-1.652 0.319,-3.052 0.401,-4.205 0.082,1.165 0.17,2.194 0.265,3.091 l 0.096,1.114 z m -4.105,-4.296 c 0,-0.353 -0.014,-0.576 -0.043,-0.67 -0.03,-0.094 -0.095,-0.141 -0.199,-0.141 -0.101,0 -0.165,0.041 -0.194,0.122 -0.026,0.082 -0.04,0.297 -0.04,0.645 l 0,2.797 c 0,0.308 0.021,0.494 0.063,0.556 0.042,0.063 0.103,0.095 0.182,0.095 0.093,0 0.156,-0.039 0.186,-0.117 0.03,-0.078 0.045,-0.256 0.045,-0.534 l 0,-2.753 z m 1.231,3.79 c -0.154,0.21 -0.359,0.367 -0.611,0.472 -0.254,0.105 -0.539,0.157 -0.857,0.157 -0.337,0 -0.631,-0.055 -0.883,-0.166 -0.252,-0.112 -0.451,-0.27 -0.6,-0.478 -0.148,-0.207 -0.236,-0.436 -0.264,-0.686 -0.029,-0.251 -0.043,-0.678 -0.043,-1.28 l 0,-1.025 c 0,-0.617 0.015,-1.05 0.044,-1.296 0.029,-0.247 0.122,-0.475 0.276,-0.685 0.155,-0.21 0.357,-0.368 0.612,-0.472 0.252,-0.105 0.539,-0.157 0.858,-0.157 0.334,0 0.629,0.056 0.88,0.167 0.253,0.11 0.453,0.269 0.602,0.477 0.147,0.207 0.235,0.436 0.262,0.686 0.03,0.251 0.044,0.678 0.044,1.28 l 0,1.025 c 0,0.617 -0.015,1.049 -0.045,1.296 -0.03,0.247 -0.12,0.476 -0.275,0.685 z m -5.676,0.506 2.01,0 0,-5.999 -1.347,0 -0.006,4.05 -0.538,-4.05 -0.952,0 -0.565,3.967 -0.007,-3.967 -1.347,0 0,5.999 1.997,0 c 0.052,-0.36 0.113,-0.785 0.184,-1.273 l 0.221,-1.528 0.35,2.801 z m 15.05,0.605 -3.59,0 0,8.269 3.453,0 0,-1.642 -1.421,0 0,-1.558 1.327,0 0,-1.585 -1.327,0 0,-1.817 1.558,0 0,-1.667 z m -4.439,0.639 c -0.201,-0.267 -0.463,-0.471 -0.79,-0.609 -0.327,-0.139 -0.711,-0.208 -1.154,-0.208 -0.491,0 -0.924,0.082 -1.3,0.246 -0.376,0.164 -0.656,0.378 -0.843,0.64 -0.186,0.263 -0.296,0.542 -0.329,0.833 -0.034,0.293 -0.051,0.907 -0.051,1.842 l 0,4.886 2.14,0 0,-6.194 c 0,-0.362 0.018,-0.594 0.057,-0.694 0.038,-0.101 0.117,-0.151 0.234,-0.151 0.135,0 0.22,0.055 0.26,0.166 0.039,0.111 0.057,0.373 0.057,0.786 l 0,6.087 2.139,0 0,-5.52 c 0,-0.629 -0.019,-1.071 -0.06,-1.326 -0.04,-0.254 -0.161,-0.515 -0.36,-0.784 z m -4.645,-0.639 -3.426,0 0,8.269 2.14,0 0,-6.602 1.286,0 0,-1.667 z m -5.96,5.202 c -0.055,-0.103 -0.187,-0.155 -0.395,-0.155 -0.05,0 -0.119,-0.002 -0.209,-0.005 l 0,1.831 c 0.216,-0.004 0.362,-0.019 0.437,-0.046 0.075,-0.027 0.136,-0.093 0.183,-0.196 0.047,-0.103 0.071,-0.284 0.071,-0.542 0,-0.488 -0.029,-0.783 -0.087,-0.887 z m 0.087,-3.007 c 0,-0.335 -0.042,-0.545 -0.124,-0.631 -0.082,-0.086 -0.271,-0.133 -0.567,-0.144 l 0,2.324 c 0.314,-0.01 0.507,-0.054 0.579,-0.129 0.074,-0.075 0.112,-0.29 0.112,-0.645 l 0,-0.775 z m 0.87,2.293 c 0.443,0.102 0.741,0.249 0.893,0.44 0.15,0.19 0.226,0.527 0.226,1.011 0,0.714 -0.106,1.234 -0.319,1.555 -0.214,0.323 -0.493,0.511 -0.84,0.616 -0.347,0.106 -0.856,0.159 -1.529,0.159 l -2.132,0 0,-8.269 2.469,0 c 0.858,0 1.427,0.049 1.704,0.149 0.277,0.099 0.479,0.283 0.607,0.554 0.126,0.271 0.189,0.686 0.189,1.248 l 0,0.771 c 0,0.541 -0.087,0.942 -0.264,1.204 -0.175,0.261 -0.511,0.45 -1.004,0.562"
               id="path3955"
               style="fill:url(#linearGradient11009);stroke:none" />
          </g>
        </g>
      </g>
      <g
         transform="matrix(13.112675,0,0,-13.112675,248.11239,287.54126)"
         id="g3957">
        <path
           d="m 0,0 3.792,0 0,-14.873 -4.161,0.031 c 0.186,0.465 0.36,0.946 0.494,1.393 0.791,2.643 -1.047,3.498 0.646,6.604 1.467,0.288 2.044,1.66 1.835,2.704 l 0.007,0.333 C 2.52,-3.741 2.453,-3.71 2.377,-3.631 1.535,-2.759 0.564,-2.011 0,0 m -4.285,0 3.4,0 c 0.105,-1.691 0.79,-2.828 1.414,-3.631 0.068,-0.087 0.141,-0.111 0.235,-0.177 L 0.758,-4.141 c 0.209,-1.044 -0.365,-2.417 -1.832,-2.706 -0.875,-2.533 0.754,-3.277 0.677,-5.402 -0.043,-1.18 -0.213,-1.752 -0.437,-2.593 l -4.056,0 0,14.842 0.605,0"
           id="path3965"
           style="fill:url(#linearGradient11011);fill-opacity:1;fill-rule:evenodd;stroke:none" />
      </g>
      <g
         transform="matrix(13.112675,0,0,-13.112675,-2976.4649,1225.032)"
         id="g3967">
        <g
           id="g3969">
          <g
             id="g3975">
            <path
               d="m 271.032,62.529 0,-2.033 1.936,0 0,2.033 1.171,0 0,-5.271 -1.171,0 0,2.197 -1.936,0 0,-2.197 -1.172,0 0,5.271 1.172,0"
               id="path3983"
               style="fill:url(#linearGradient11013);stroke:none" />
          </g>
        </g>
      </g>
      <g
         transform="matrix(13.112675,0,0,-13.112675,-2976.4649,1225.032)"
         id="g3985">
        <g
           id="g3987">
          <g
             id="g3993">
            <path
               d="m 275.858,58.157 c 0.099,-0.023 0.268,-0.023 0.408,-0.023 1.072,-0.008 1.773,0.587 1.773,1.845 0,1.134 -0.632,1.674 -1.65,1.674 -0.254,0 -0.432,-0.022 -0.531,-0.047 l 0,-3.449 z m -1.173,4.294 c 0.431,0.078 0.994,0.117 1.581,0.117 0.995,0 1.643,-0.165 2.135,-0.547 0.541,-0.407 0.88,-1.064 0.88,-2.003 0,-1.008 -0.363,-1.704 -0.856,-2.134 -0.548,-0.461 -1.389,-0.68 -2.406,-0.68 -0.61,0 -1.049,0.038 -1.334,0.078 l 0,5.169"
               id="path4001"
               style="fill:url(#linearGradient11015);stroke:none" />
          </g>
        </g>
      </g>
    </g>
  </g>
</svg>
