<?xml version="1.0" encoding="UTF-8" standalone="no"?>
<!-- Created with Inkscape (http://www.inkscape.org/) -->

<svg
   xmlns="http://www.w3.org/2000/svg"
   xmlns:xlink="http://www.w3.org/1999/xlink"
   version="1.1"
   width="100%"
   height="100%"
   viewBox="0 0 50 22"
   id="svg10286">
  <defs
     id="defs3">
    <linearGradient
       x1="0"
       y1="0"
       x2="1"
       y2="0"
       id="linearGradient4561"
       gradientUnits="userSpaceOnUse"
       gradientTransform="matrix(19.591,0,0,-19.591,421.628,200.37)"
       spreadMethod="pad">
      <stop
         id="stop4563"
         style="stop-color:#252058;stop-opacity:1"
         offset="0" />
      <stop
         id="stop4565"
         style="stop-color:#2a2372;stop-opacity:1"
         offset="1" />
    </linearGradient>
    <linearGradient
       x1="0"
       y1="0"
       x2="1"
       y2="0"
       id="linearGradient4543"
       gradientUnits="userSpaceOnUse"
       gradientTransform="matrix(5.8739,0,0,-5.8739,441.665,200.433)"
       spreadMethod="pad">
      <stop
         id="stop4545"
         style="stop-color:#760c04;stop-opacity:1"
         offset="0" />
      <stop
         id="stop4547"
         style="stop-color:#d60c12;stop-opacity:1"
         offset="1" />
    </linearGradient>
    <linearGradient
       x1="0"
       y1="0"
       x2="1"
       y2="0"
       id="linearGradient4525"
       gradientUnits="userSpaceOnUse"
       gradientTransform="matrix(9.438077,0,0,-9.438077,411.55899,200.43176)"
       spreadMethod="pad">
      <stop
         id="stop4527"
         style="stop-color:#760c04;stop-opacity:1"
         offset="0" />
      <stop
         id="stop4529"
         style="stop-color:#d60c12;stop-opacity:1"
         offset="1" />
    </linearGradient>
    <linearGradient
       x1="0"
       y1="0"
       x2="1"
       y2="0"
       id="linearGradient3099"
       xlink:href="#linearGradient4561"
       gradientUnits="userSpaceOnUse"
       gradientTransform="matrix(26.930894,0,0,26.930894,13.841419,10.999997)"
       spreadMethod="pad" />
    <linearGradient
       x1="0"
       y1="0"
       x2="1"
       y2="0"
       id="linearGradient3104"
       xlink:href="#linearGradient4543"
       gradientUnits="userSpaceOnUse"
       gradientTransform="matrix(8.0745942,0,0,8.0745942,41.385409,10.913394)"
       spreadMethod="pad" />
    <linearGradient
       x1="0"
       y1="0"
       x2="1"
       y2="0"
       id="linearGradient3141"
       xlink:href="#linearGradient4525"
       gradientUnits="userSpaceOnUse"
       gradientTransform="matrix(12.974113,0,0,12.974113,573.04063,-275.52481)"
       spreadMethod="pad" />
  </defs>
  <path
     d="m 7.2884316,-3.3808e-6 5.6525874,0 0.03299,21.8309183808 -6.2340663,-0.011 C 7.0162496,21.135339 7.2760597,20.428765 7.4753849,19.77168 8.6534654,15.885526 5.9151499,14.62909 8.4376444,10.062481 10.624723,9.640462 11.483883,7.6224664 11.173211,6.0883498 l 0.0096,-0.4907523 C 11.043993,5.4999969 10.945018,5.4532586 10.830921,5.3377874 9.5772345,4.0566077 8.1297213,2.9568825 7.2884316,-3.3808e-6 m -6.38802829,0 5.06835819,0 C 6.1254723,2.48675 7.146842,4.1583322 8.0761097,5.3377874 8.1792089,5.4670051 8.2878068,5.5027462 8.4280218,5.5975975 l -0.00962,0.4907523 c 0.312047,1.5341166 -0.544364,3.5534868 -2.7314423,3.9768812 -1.3031743,3.725319 1.1244689,4.816796 1.0103724,7.94139 -0.063234,1.734816 -0.3175456,2.577481 -0.6515871,3.813297 l -6.0457388328,0 0,-21.8199213808 0.9003999428,0"
     id="path4531"
     style="fill:url(#linearGradient3141)" />
  <path
     d="m 49.458766,21.826791 -4.438766,0 0,-15.1473389 -3.634591,0 0,-3.2538117 0.400025,0 c 3.000875,0 3.975506,-1.1134717 4.584479,-3.4256437807999 l 3.088853,0 0,21.8267943807999"
     id="path4549"
     style="fill:url(#linearGradient3104)" />
  <path
     d="m 40.772312,20.067231 0,1.751312 -4.033242,0 0,-8.80055 3.888903,0 0,1.751312 -1.556111,0 0,1.672957 1.454387,0 0,1.670207 -1.454387,0 0,1.954762 1.70045,0 z m -6.957136,-7.049238 2.334442,0 0,8.800687 -2.334442,0 0,-8.800687 z m -2.969258,0 2.455137,0 -1.190453,8.80055 -3.510872,0 -1.355411,-8.80055 2.455136,0 c 0.279055,2.423519 0.48113,4.47863 0.603474,6.168083 0.122344,-1.707323 0.255686,-3.216696 0.39865,-4.532242 l 0.144339,-1.635841 z m -6.176331,6.302799 c 0,0.518246 -0.02199,0.845414 -0.06461,0.98288 -0.04536,0.137465 -0.142964,0.206198 -0.299675,0.206198 -0.151212,0 -0.248813,-0.05911 -0.291427,-0.178705 -0.04124,-0.119595 -0.06048,-0.434392 -0.06048,-0.947138 l 0,-4.10335 c 0,-0.449512 0.03162,-0.723069 0.09485,-0.815171 0.06324,-0.0921 0.153962,-0.13884 0.273557,-0.13884 0.140215,0 0.235066,0.05774 0.28043,0.171832 0.04399,0.114096 0.06736,0.375281 0.06736,0.782179 l 0,4.040115 z m 1.851662,-5.560485 c -0.232317,-0.307923 -0.54024,-0.53749 -0.919645,-0.691452 -0.382154,-0.153962 -0.811047,-0.230942 -1.289428,-0.230942 -0.507248,0 -0.949887,0.0811 -1.327918,0.243314 -0.379405,0.163584 -0.67908,0.395901 -0.903149,0.701075 -0.222694,0.303799 -0.356036,0.64059 -0.397276,1.007623 -0.04261,0.368408 -0.06461,0.993876 -0.06461,1.876406 l 0,1.503874 c 0,0.905898 0.02337,1.54099 0.06598,1.90115 0.04399,0.362909 0.184204,0.698325 0.416521,1.004874 0.232317,0.307923 0.536116,0.54024 0.919645,0.692826 0.38078,0.153962 0.811047,0.230943 1.290802,0.230943 0.503125,0 0.947139,-0.08111 1.323795,-0.244689 0.382154,-0.16221 0.681829,-0.395901 0.905898,-0.6997 0.22132,-0.305174 0.354661,-0.639216 0.395901,-1.007623 0.04399,-0.368408 0.06598,-0.993877 0.06598,-1.877781 l 0,-1.503874 c 0,-0.905899 -0.02337,-1.538241 -0.06873,-1.90115 -0.04536,-0.361535 -0.18008,-0.698325 -0.413772,-1.004874 z m -8.54074,-0.742314 3.024244,0 0,8.80055 -2.024869,0 -0.011,-5.941265 -0.809673,5.941265 -1.431017,0 -0.850912,-5.820295 -0.0096,5.820295 -2.026243,0 0,-8.80055 3.003624,0 c 0.07835,0.529242 0.170457,1.151962 0.27768,1.868158 l 0.331293,2.24069 0.526493,-4.108848 z m 22.644715,-0.886654 -5.39965,0 0,-12.1313423807999 5.194826,0 0,2.4097726807999 -2.137591,0 0,2.2833043 1.997376,0 0,2.3259186 -1.997376,0 0,2.6668334 2.342415,0 0,2.4455134 z m -6.679456,-0.93889 c -0.301049,0.393152 -0.695576,0.691452 -1.187703,0.894901 -0.490752,0.203449 -1.069482,0.305174 -1.736191,0.305174 -0.73819,0 -1.391152,-0.12097 -1.954761,-0.361535 -0.566359,-0.23919 -0.988378,-0.553986 -1.268808,-0.93889 -0.28043,-0.386278 -0.445389,-0.794551 -0.494876,-1.2220694 -0.05224,-0.4288928 -0.07698,-1.3306674 -0.07698,-2.7025745 l 0,-7.1674584807999 3.218071,0 0,9.0864787807999 c 0,0.5319921 0.02887,0.8715322 0.0866,1.0186206 0.05774,0.148463 0.175956,0.221319 0.353287,0.221319 0.202074,0 0.331292,-0.07973 0.390402,-0.243314 0.05774,-0.1622091 0.0866,-0.5471129 0.0866,-1.1533364 l 0,-8.9297679807999 3.218071,0 0,8.0981008807999 c 0,0.9223944 -0.03024,1.5712322 -0.09073,1.9451385 -0.06048,0.372532 -0.24194,0.756061 -0.54299,1.149213 z m -6.987378,0.93889 -5.154962,0 0,-12.1313423807999 3.219446,0 0,9.6858289807999 1.935516,0 0,2.4455134 z M 17.991506,4.499247 c -0.08385,0.1512122 -0.283179,0.2268183 -0.595226,0.2268183 -0.07561,0 -0.18008,0.00412 -0.314796,0.00825 l 0,-2.6860786 c 0.325793,0.0055 0.545738,0.027493 0.65846,0.067358 0.111347,0.039865 0.203449,0.136091 0.274931,0.2873032 0.07011,0.1512122 0.104474,0.4165209 0.104474,0.7945514 0,0.7175706 -0.04124,1.1492128 -0.127843,1.3017996 z m 0.127843,4.4112724 c 0,0.492127 -0.06186,0.80005 -0.184204,0.9251438 -0.123719,0.1264684 -0.408273,0.1965758 -0.853661,0.2116968 l 0,-3.4091476 c 0.471507,0.016496 0.762934,0.078355 0.871532,0.1897026 0.111347,0.1099725 0.166333,0.4247688 0.166333,0.9457636 l 0,1.1368408 z m 1.310048,-3.3637842 c 0.668083,-0.1498376 1.116221,-0.3656586 1.344414,-0.6447139 0.226818,-0.2804299 0.340915,-0.7739315 0.340915,-1.4832542 0,-1.0488628 -0.160835,-1.8104225 -0.48113,-2.2819296 C 20.311926,0.66395566 19.891281,0.38627507 19.370287,0.23231355 18.847917,0.07835203 18.080859,-3.3807999e-6 17.069112,-3.3807999e-6 l -3.207074,0 0,12.1313423807999 3.715697,0 c 1.289427,0 2.145838,-0.07286 2.562359,-0.21857 0.417896,-0.145714 0.721695,-0.416521 0.912772,-0.813797 0.189703,-0.397275 0.285929,-1.006248 0.285929,-1.8296673 l 0,-1.1313422 c 0,-0.7945514 -0.131967,-1.3829043 -0.397276,-1.7664335 C 20.677585,5.9879999 20.173086,5.711694 19.429397,5.5467352"
     id="path4567"
     style="fill:url(#linearGradient3099)" />
</svg>
