<?xml version="1.0" encoding="UTF-8" standalone="no"?>

<svg
   xmlns="http://www.w3.org/2000/svg"
   version="1.1"
   width="100%"
   height="100%"
   viewBox="0 0 109 22"
   id="svg21005">
  <g
     id="g3069"
     style="fill:#00adef" >
    <path
       id="path3001"
       d="m 27.855063,15.400713 0.0056,0 -0.0018,-0.0075 -0.0037,0.0075" />
    <path
       id="path3005"
       d="m 34.964292,2.2255891 -0.892153,0 -5.601154,11.8723559 0.58046,1.280371 5.453706,-11.4169477 7.238013,15.8329187 1.181449,0 -7.960321,-17.5686979" />
    <path
       id="path3009"
       d="M 47.930376,4.3383876 C 48.615355,3.7000688 49.585898,3.3585122 50.737484,3.352913 l 0.02798,0 c 1.125458,0 2.250916,0.3564879 3.340911,1.0601318 l 0.0224,0.013064 -0.731641,-1.700317 C 52.566586,2.3898355 51.706161,2.2237233 50.791612,2.2237233 l -0.03731,0 c -2.913495,0.014931 -5.018829,1.9429528 -5.005761,4.5820838 0.01307,2.3778309 2.170656,3.4734249 4.259191,4.5335559 1.956016,0.992941 3.805648,1.929888 3.814981,3.835513 0.0035,0.942547 -0.356488,1.80857 -1.017205,2.43569 -0.724174,0.686846 -1.754443,1.052666 -2.982554,1.058265 l -0.03172,0 c -1.825366,0 -3.536883,-0.795099 -4.4477,-1.474479 l -0.09892,-0.07466 -0.0035,0.04853 0.765239,1.776841 c 1.134787,0.535665 2.493546,0.854824 3.738456,0.854824 l 0.03546,0 c 1.584598,-0.0093 2.934026,-0.515134 3.900838,-1.465147 0.886551,-0.873488 1.371823,-2.047473 1.364356,-3.307312 -0.01307,-2.506615 -2.232248,-3.61714 -4.380508,-4.690337 -1.905622,-0.9537454 -3.706727,-1.8533641 -3.71606,-3.6544681 -0.0056,-0.916417 0.343425,-1.7488443 0.981741,-2.3442353" />
    <path
       id="path3013"
       d="M 8.5673832,18.696828 C 4.5769575,18.584842 1.2939085,15.382049 1.0867349,11.395357 0.85529763,6.9756519 4.3735167,3.2969201 8.7484269,3.2745229 11.389424,3.261458 13.729927,4.5828896 15.131615,6.606099 L 15.652349,5.5030392 C 13.994959,3.431303 11.42302,2.1266689 8.5524518,2.2031926 3.8565158,2.3263769 0.05086665,6.1936183 4.7306161e-4,10.891421 -0.04992053,15.809462 3.9330394,19.799887 8.8324163,19.773757 c 2.4748847,-0.0112 4.7052677,-1.048933 6.2935987,-2.702589 l 0,-1.698451 c -1.431551,2.064271 -3.841111,3.400634 -6.5586318,3.324111" />
    <path
       id="path3017"
       d="m 30.968268,19.799888 -0.509535,-1.106793 -9.740895,0 0,-15.9393053 -1.106792,-0.5226002 0,17.5686985 11.357222,0" />
    <path
       id="path3021"
       d="m 72.864002,19.799888 1.11426,0 0,-17.0311669 -1.11426,-0.5319323 0,17.5630992" />
    <path
       id="path3025"
       d="M 60.805005,4.3383876 C 61.489984,3.7000688 62.460527,3.3585122 63.612113,3.352913 l 0.02798,0 c 1.125458,0 2.250916,0.3564879 3.340911,1.0601318 l 0.0224,0.013064 -0.731641,-1.700317 C 65.441215,2.3898355 64.58079,2.2237233 63.666241,2.2237233 l -0.03731,0 c -2.913495,0.014931 -5.018829,1.9429528 -5.005761,4.5820838 0.01307,2.3778309 2.172522,3.4734249 4.259191,4.5335559 1.956016,0.992941 3.805649,1.929888 3.814981,3.835513 0.0035,0.942547 -0.356488,1.80857 -1.017205,2.43569 -0.724174,0.686846 -1.754443,1.052666 -2.982554,1.058265 l -0.03172,0 c -1.825366,0 -3.536882,-0.795099 -4.4477,-1.474479 l -0.09892,-0.07466 -0.0035,0.04853 0.765239,1.776841 c 1.134787,0.535665 2.493546,0.854824 3.738456,0.854824 l 0.03546,0 c 1.584598,-0.0093 2.934026,-0.515134 3.900838,-1.465147 0.886551,-0.873488 1.371823,-2.047473 1.364356,-3.307312 -0.01307,-2.506615 -2.232248,-3.61714 -4.380508,-4.690337 -1.905622,-0.9537454 -3.706727,-1.8533641 -3.71606,-3.6544681 -0.0056,-0.916417 0.343425,-1.7488443 0.981742,-2.3442353" />
    <path
       id="path3029"
       d="m 107.34442,19.799888 1.18331,0 -7.96218,-17.5705649 -0.892159,0 -4.128537,8.7479539 0.587923,1.304634 3.973623,-8.3168087 7.23802,15.8347857" />
    <path
       id="path3033"
       d="m 87.140321,18.724824 c -4.25359,0.02053 -7.730752,-3.421164 -7.751282,-7.674757 -0.0224,-4.2517254 3.421167,-7.728883 7.672892,-7.7512802 2.640999,-0.013065 4.981499,1.3102335 6.38319,3.331576 L 93.965852,5.5273034 C 92.345794,3.504094 89.850378,2.2106586 87.056334,2.2237236 c -4.852716,0.02613 -8.766622,3.9792271 -8.742356,8.8319434 0.02424,4.854582 3.979228,8.768484 8.831944,8.74422 2.752984,-0.01493 5.201738,-1.293435 6.803131,-3.281182 l -0.505802,-1.125457 c -1.386757,2.000812 -3.689928,3.318511 -6.30293,3.331576" />
  </g>
</svg>
