<?xml version="1.0" encoding="UTF-8" standalone="no"?>
<!-- Generator: Adobe Illustrator 17.1.0, SVG Export Plug-In . SVG Version: 6.00 Build 0)  -->

<svg
   xmlns="http://www.w3.org/2000/svg"
   version="1.1"
   id="svg2"
   width="100%"
   height="100%"
   viewBox="82.2 40 36 22">
<g
   id="layer1"
   transform="translate(-200,-324.6)">
	
		<linearGradient
   id="rect3035_1_"
   gradientUnits="userSpaceOnUse"
   x1="496.46579"
   y1="75.628197"
   x2="489.35159"
   y2="83.216202"
   gradientTransform="matrix(1,0,0,-1,-200,450.6479)">
		<stop
   offset="0"
   style="stop-color:#8F1719"
   id="stop5" />
		<stop
   offset="1"
   style="stop-color:#BC151F"
   id="stop7" />
	</linearGradient>
	<path
   id="rect3035"
   d="m 282.2,370.5 10.1,-5.9 10.1,5.9 0,0.1 -10.1,6 -10.1,-6 0,-0.1 z"
   style="fill:url(#rect3035_1_)" />
	
		<linearGradient
   id="rect3033_1_"
   gradientUnits="userSpaceOnUse"
   x1="-580.3194"
   y1="-220.6221"
   x2="-591.59991"
   y2="-219.4192"
   gradientTransform="matrix(-0.8644,0.5027,0,-1,-209.3222,453.1616)">
		<stop
   offset="0"
   style="stop-color:#8F1719"
   id="stop11" />
		<stop
   offset="1"
   style="stop-color:#BC151F"
   id="stop13" />
	</linearGradient>
	<path
   id="rect3033"
   d="m 302.4,370.5 -10.1,5.9 -0.6,0.3 0.6,9.8 0.1,0.1 10.1,-5.9 v -10.2 z"
   style="fill:url(#rect3033_1_)" />
	
		<linearGradient
   id="rect3031_1_"
   gradientUnits="userSpaceOnUse"
   x1="558.55408"
   y1="358.1748"
   x2="569.91278"
   y2="358.5079"
   gradientTransform="matrix(0.8644,0.5027,0,-1,-200.6778,453.1616)">
		<stop
   offset="0"
   style="stop-color:#8F1719"
   id="stop17" />
		<stop
   offset="1"
   style="stop-color:#BC151F"
   id="stop19" />
	</linearGradient>
	<polygon
   id="rect3031"
   points="292.3,386.6 282.2,380.7 282.2,370.5 292.3,376.4 "
   style="fill:url(#rect3031_1_)" />
	
		<linearGradient
   id="rect3847_1_"
   gradientUnits="userSpaceOnUse"
   x1="310.8345"
   y1="396.54251"
   x2="316.20001"
   y2="402.27811"
   gradientTransform="matrix(1,0,0,-1,0,775.2958)">
		<stop
   offset="0"
   style="stop-color:#8F1719"
   id="stop23" />
		<stop
   offset="1"
   style="stop-color:#BC151F"
   id="stop25" />
	</linearGradient>
	<path
   id="rect3847"
   d="m 311,372.4 v 7.2 h 3.2 c 2,0 3.6,-1.6 3.6,-3.6 0,-2 -1.6,-3.6 -3.6,-3.6 H 311 z m 1.7,1.5 h 1.4 c 1.2,0 2.1,0.9 2.1,2.1 0,1.2 -0.9,2.1 -2.1,2.1 h -1.4 v -4.2 z"
   style="fill:url(#rect3847_1_)" />
	
		<linearGradient
   id="path3843_1_"
   gradientUnits="userSpaceOnUse"
   x1="310.0701"
   y1="399.28391"
   x2="303.96451"
   y2="399.28391"
   gradientTransform="matrix(1,0,0,-1,0,775.2958)">
		<stop
   offset="0"
   style="stop-color:#8F1719"
   id="stop29" />
		<stop
   offset="1"
   style="stop-color:#BC151F"
   id="stop31" />
	</linearGradient>
	<path
   id="path3843"
   d="m 304,372.4 v 7.2 h 1.7 v -2.8 h 2.8 v 2.8 h 1.7 v -7.2 h -1.7 v 2.8 h -2.8 v -2.8 H 304 z"
   style="fill:url(#path3843_1_)" />
	<path
   id="rect3888"
   d="m 283.6,372.2 v 3.1 h 1.4 c 0.9,0 1.6,-0.7 1.6,-1.6 0,-0.9 -0.7,-1.6 -1.6,-1.6 h -1.4 z m 0.8,0.8 h 0.6 c 0.5,0 0.8,0.4 0.8,0.8 0,0.4 -0.4,0.8 -0.8,0.8 h -0.6 V 373 z"
   style="fill:#ffffff" />
	<path
   id="rect3895"
   d="m 286.9,372.2 v 3.1 h 2.2 v -0.7 h -1.5 v -0.5 h 1.2 v -0.7 h -1.2 V 373 h 1.5 v -0.7 h -2.2 z"
   style="fill:#ffffff" />
	<path
   id="rect3905"
   d="m 289.9,372.2 v 3.1 h 2.2 v -0.7 h -1.5 v -2.4 h -0.7 z"
   style="fill:#ffffff" />
	<path
   id="rect3910"
   d="m 292.4,372.2 v 1.8 c 0,0.8 0.6,1.4 1.4,1.4 0.8,0 1.4,-0.6 1.4,-1.4 v -1.8 h -0.7 v 1.8 c 0,0.4 -0.3,0.6 -0.6,0.6 -0.4,0 -0.6,-0.3 -0.6,-0.6 v -1.8 h -0.9 z"
   style="fill:#ffffff" />
	<path
   id="rect3917"
   d="m 295.5,372.2 1,1.6 -1,1.6 h 0.9 l 0.6,-0.9 0.6,0.9 h 0.9 l -1,-1.6 1,-1.6 h -0.9 l -0.6,0.9 -0.6,-0.9 h -0.9 z"
   style="fill:#ffffff" />
	<path
   id="path3924"
   d="m 298.8,372.2 v 3.1 h 2.2 v -0.7 h -1.5 v -0.5 h 1.2 v -0.7 h -1.2 V 373 h 1.5 v -0.7 h -2.2 z"
   style="fill:#ffffff" />
	<path
   id="rect3926"
   d="m 283.6,375.8 v 3.9 h 0.9 v -2.2 l 0.8,1.3 h 0.4 l 0.8,-1.3 v 2.2 h 0.9 v -3.9 h -0.9 l -1,1.6 -1,-1.6 h -0.9 z"
   style="fill:#ffffff" />
	<path
   id="rect3930"
   d="m 288.2,375.8 v 2.3 c 0,0.9 0.7,1.7 1.7,1.7 0.9,0 1.7,-0.7 1.7,-1.7 v -2.3 h -0.9 v 2.3 c 0,0.4 -0.3,0.7 -0.7,0.7 -0.4,0 -0.7,-0.3 -0.7,-0.7 v -2.3 h -1.1 z"
   style="fill:#ffffff" />
	<rect
   id="rect3941"
   x="295.70001"
   y="375.79999"
   width="0.89999998"
   height="3.9000001"
   style="fill:#ffffff" />
	<path
   id="path3943"
   d="m 299.2,375.7 c -0.7,0 -1.4,0.5 -1.7,1.1 -0.5,1 -0.1,2.2 0.9,2.7 1,0.5 2.2,0.1 2.7,-0.9 l -0.8,-0.4 c -0.2,0.4 -0.6,0.6 -1,0.6 -0.6,0 -1.1,-0.5 -1.1,-1.1 0,-0.6 0.5,-1.1 1.1,-1.1 0.4,0 0.8,0.3 1,0.6 l 0.8,-0.4 c -0.2,-0.4 -0.5,-0.7 -0.9,-0.9 -0.4,-0.1 -0.7,-0.2 -1,-0.2 z"
   style="fill:#ffffff" />
	<path
   id="path3969"
   d="m 294.3,377.1 0.9,-0.3 c -0.2,-0.4 -0.5,-1.1 -1.5,-1.1 -0.9,0 -1.5,0.4 -1.5,1.2 0,1.3 2,1.1 2,1.7 0,0.2 -0.3,0.4 -0.5,0.4 -0.3,0 -0.5,-0.1 -0.9,-0.6 l -0.8,0.3 c 0.3,0.6 0.7,1.1 1.6,1.1 1.1,0 1.5,-0.5 1.5,-1.2 0,-1.4 -2,-1.2 -2,-1.8 0,-0.2 0.1,-0.3 0.5,-0.2 0.4,0 0.6,0.3 0.7,0.5 z"
   style="fill:#ffffff" />
</g>
</svg>