<?xml version="1.0" encoding="UTF-8" standalone="no"?>
<!-- Created with Inkscape (http://www.inkscape.org/) -->

<svg
   xmlns="http://www.w3.org/2000/svg"
   version="1.1"
   width="100%"
   height="100%"
   viewBox="0 0 39 22"
   id="svg4532">
  <g
     id="g3094">
    <path
       d="M 38.723079,8.9087604 C 38.666658,8.773057 38.586403,8.6534046 38.49107,8.5556398 L 35.539643,5.6046991 C 35.437501,5.501584 35.312498,5.4154926 35.171444,5.3571256 c -0.133271,-0.054962 -0.273352,-0.0822 -0.408569,-0.084632 l -15.35102,0 C 18.057253,3.9174051 17.089333,2.9489985 17.089333,2.9489985 l -4.86e-4,0 c -0.0428,-0.043289 -0.325883,-0.3258827 -0.641065,-0.3253963 -0.202339,0 -0.406138,0.093387 -0.407597,0.093874 -0.04621,-0.05934 -0.107492,-0.1245164 -0.20088,-0.1823971 -0.0929,-0.057881 -0.444562,-0.2286042 -0.814706,0.05934 -0.04378,0.034047 -0.07977,0.069554 -0.117221,0.1074926 -0.05837,-0.042316 -0.122084,-0.081714 -0.194557,-0.1177069 -0.143485,-0.070527 -0.321505,-0.1254891 -0.527735,-0.1254891 -0.03988,0 -1.157613,0.070527 -1.447503,0.1838562 -0.06031,-0.081227 -0.193584,-0.2495191 -0.43678,-0.3881409 -0.09144,-0.05253 -0.446994,-0.1926112 -0.775795,0.030643 -0.100683,0.069554 -0.174129,0.1575911 -0.21839,0.2339546 -0.02529,0.045721 -0.04426,0.087064 -0.05788,0.1245164 C 11.217608,2.6372212 11.027915,2.6017146 10.861569,2.663 10.618859,2.5263238 10.432571,2.437314 9.6509392,2.4450963 9.784697,2.2398389 9.9573662,1.8589939 9.8104758,1.3867072 9.7798331,1.2879696 9.6314835,0.92463474 9.1202854,0.77725794 9.0565681,0.72861873 8.9826365,0.67997953 8.8970315,0.63620424 8.7292262,0.54962646 8.2690993,0.34874654 7.4816306,0.64252734 7.1251052,0.77531237 6.8391067,1.0355321 6.650873,1.2510038 6.5691591,1.3439047 6.5049553,1.4465334 6.449993,1.5525669 5.9796519,1.1790178 5.4300289,0.8472984 4.8337122,0.5836739 4.0335973,0.23103966 3.1507957,4.898211e-4 2.2631302,-4.8296302e-4 c -0.044748,0 -0.090955,4.8639206e-4 -0.1366762,0.001945573 C 1.786466,0.01070405 1.4566921,0.03502366 1.2100914,0.08025812 0.97662318,0.12354701 0.52038743,0.17559096 0.15413421,0.71791811 0.11668202,0.77482598 0.07728426,0.84486644 0.0505327,0.92803948 -0.03993622,1.2135516 0.01308051,1.3901119 0.04129125,1.4752305 0.06609725,1.5501349 0.10354944,1.6211482 0.14829751,1.6824336 0.22709302,1.790899 0.32291226,1.862885 0.4060853,1.9081195 0.53254723,1.9762144 0.632744,1.9995612 0.71494426,2.0102618 1.243166,2.0768975 1.4805254,1.8857454 1.5865588,1.7690114 1.6089329,1.743719 1.6303341,1.7150218 1.6502762,1.6843791 1.9917234,1.6702738 2.4426089,1.7203721 2.7835697,1.7904126 2.7646004,1.8200825 2.6571078,2.022908 2.6196556,2.2203832 2.5943632,2.354141 2.57053,2.4859532 2.5559382,2.6153335 2.5019487,2.6294389 1.916819,2.7738973 1.5306237,3.0380082 1.4051346,3.1240996 1.2888869,3.2233236 1.1740984,3.3575678 0.84043341,3.7500862 0.99997,4.2136178 1.0374222,4.3011684 1.1993907,4.6761767 1.4790662,4.9441787 1.5831541,5.0429163 l 8.5926019,8.5935747 -2.3852664,2.385753 c -0.1031152,0.10117 -0.1887202,0.227145 -0.2470872,0.367713 -0.055449,0.134244 -0.083173,0.274325 -0.085605,0.410028 l 0,4.287546 c 0,0.231036 0.091442,0.468882 0.268002,0.644956 0.1760739,0.177047 0.4129469,0.268002 0.6439831,0.268002 l 4.2860865,0 c 0.13619,-0.0019 0.277244,-0.02967 0.412461,-0.08512 0.141053,-0.05837 0.266543,-0.144458 0.367226,-0.247087 l 2.385753,-2.385753 2.388185,2.387699 -0.0019,-0.0019 c 0.101656,0.102629 0.226659,0.18872 0.367713,0.247087 0.13473,0.05545 0.27627,0.08317 0.412947,0.08512 l 15.774667,0 c 0.135217,-0.0024 0.274811,-0.02967 0.408569,-0.08512 0.141054,-0.05837 0.266057,-0.144458 0.368199,-0.247087 l 2.948022,-2.948508 0.0034,-0.0029 c 0.09533,-0.09776 0.175588,-0.217417 0.231523,-0.352634 0.04523,-0.108952 0.07247,-0.223254 0.08171,-0.33561 l 0.0044,-0.01702 0,-8.672857 c 0,-0.1439721 -0.0287,-0.2908625 -0.08561,-0.4299706"
       id="path3148"
       style="fill:#243f65" />
    <g
       id="g3081">
      <path
         style="fill:#b5dc17"
         id="path3152"
         d="M 1.7743044,3.9762571 C 1.773818,3.740357 2.4917327,3.6503744 3.1561442,3.6158406 3.1512803,3.9869577 3.1469028,4.5190706 3.1473892,4.875596 2.3307369,4.5871655 1.7747908,4.1289842 1.7743044,3.9762571 M 2.1449351,0.6006962 C 1.5087343,0.61771993 0.9965635,0.69700183 0.88177497,0.82005902 0.7820646,0.92949724 0.65414349,1.0204526 0.65073874,1.1688021 c -0.003891,0.1444585 0.1653733,0.1571047 0.26702924,0.1556455 0.10165592,0 0.19552962,-0.00827 0.19407042,-0.068581 0,-0.084146 -0.13521698,-0.066636 -0.13521698,-0.1517543 0,-0.097765 0.52481708,-0.12013885 0.78746878,-0.12062525 C 4.0170582,0.97667727 6.610987,2.5360502 6.6148782,3.859523 6.6177965,4.8887286 5.2792456,5.1192784 4.5409024,5.1202512 4.2792235,5.121224 4.0243541,5.0939861 3.78359,5.046806 3.7719166,4.7194642 3.7529473,4.033165 3.7437059,3.5983305 c 0.085605,-9.728e-4 0.1648869,-0.00146 0.2329817,-0.00146 0.5471911,-0.00243 1.2646194,0.1906657 1.2651058,0.3185868 0,0.1084654 -0.1901793,0.184829 -0.1901793,0.2889169 9.728e-4,0.078309 0.1770467,0.063231 0.3283146,0.074418 0.027724,0.00292 0.3370697,-0.1707237 0.336097,-0.441644 C 5.7150529,3.4762461 5.2646538,3.0491938 3.7976954,3.0545441 c -0.020428,0 -0.042316,0 -0.064204,4.864e-4 C 3.7198726,2.6508387 3.6605328,2.012206 3.4294966,2.012206 3.2388309,2.0136651 3.1833822,2.7165017 3.1678177,3.1031834 2.3443559,3.2281861 1.6128222,3.5623375 1.6142814,3.8916249 c 0,0.270434 0.588048,0.9494373 1.5404037,1.3633569 0.016051,0.3049678 0.074904,0.5141164 0.3453383,0.5131436 0.1969888,0 0.2636245,-0.1449448 0.2845394,-0.2971855 0.3078862,0.079282 0.6410647,0.1250028 0.9961309,0.12403 C 6.1615608,5.5905923 7.2710211,4.8527356 7.2671299,3.8415265 7.2637252,2.4840063 4.5272835,0.53454688 2.1449351,0.6006962" />
      <path
         style="fill:#b5dc17"
         id="path3156"
         d="M 7.7617907,3.0881052 C 7.5283225,3.0900508 7.5219994,4.0302466 7.5156763,4.3741258 7.4981662,5.1581898 7.6149003,5.2510907 7.8230761,5.2501179 8.010337,5.2496315 8.0740544,5.2272575 8.0580035,4.5720874 8.0283335,3.3278965 7.9437013,3.0881052 7.7617907,3.0881052" />
      <path
         style="fill:#b5dc17"
         id="path3160"
         d="M 7.9748304,1.5141405 C 7.7277432,1.6595717 7.4753058,1.86337 7.3040957,2.0657091 c -0.00827,-0.026752 -0.012646,-0.052044 -0.012646,-0.07685 0,-0.1561319 0.2290906,-0.3998143 0.6833808,-0.4747187 m -0.037939,0.8677234 c -0.1196524,0 -0.2193628,-0.016051 -0.303995,-0.04183 0.2290906,-0.2577878 0.7806592,-0.7446662 1.052066,-0.745639 0.1775331,0 0.2081758,0.1410537 0.2081758,0.1955296 C 8.893625,2.1143483 8.2253223,2.3808912 7.9368918,2.3818639 M 7.8833887,2.7753551 C 8.4004235,2.7729232 9.2233988,2.1868207 9.2204805,1.6994559 9.2204805,1.4796067 9.1081239,1.3672501 8.8255301,1.3278523 8.7068505,1.2140366 8.5317493,1.0866019 8.2725023,1.0875747 7.4665507,1.0895202 6.944652,1.730585 6.9451384,2.0798145 c 4.864e-4,0.1293803 0.04183,0.2859985 0.1566183,0.4182971 0.00486,0.2782163 0.071986,0.3516615 0.1629413,0.3516615 0.1016559,0 0.1629413,-0.058367 0.2003935,-0.1288939 0.1147885,0.03502 0.2524375,0.055449 0.4182972,0.054476" />
      <path
         style="fill:#b5dc17"
         id="path3164"
         d="M 10.560491,3.2578561 C 10.559518,3.0404388 10.001627,3.0438436 9.6864445,3.04433 9.4500579,3.0453028 8.2530471,3.0725407 8.2545062,3.740357 c 0.00195,0.4518582 0.6717075,0.3409609 1.1157834,0.3866817 0.3623621,0.035993 0.8020604,0.1546727 0.8035194,0.2733523 0,0.2650837 -0.9591648,0.37209 -1.15664,0.37209 -0.4071102,0.00146 -0.4158652,-0.1172205 -0.4158652,-0.1770467 -4.864e-4,-0.058853 0.068095,-0.1609958 0.2193628,-0.1609958 0.1527271,-9.728e-4 0.4674228,0.193584 0.6838672,0.1926112 0.2159581,-0.00146 0.3959232,-0.096792 0.3949504,-0.1945568 0,-0.1770467 -0.7174283,-0.2626517 -0.9387367,-0.2621653 -0.2334682,9.728e-4 -0.5685923,0.097278 -0.5666467,0.4465079 0,0.1819106 0.2971855,0.6104221 1.1308615,0.6070173 C 10.347938,5.2209345 10.554654,4.7544845 10.554168,4.5137204 10.552709,3.9290771 9.9982218,3.861955 9.5142617,3.8210981 9.152386,3.7909418 8.7622996,3.7724589 8.7632723,3.6926906 8.7661907,3.4246886 10.560977,3.6221638 10.560491,3.2578561" />
      <path
         style="fill:#b5dc17"
         id="path3168"
         d="m 11.927739,2.7627089 c -0.06761,0 -0.08026,0.0715 -0.08026,0.1473768 4.87e-4,0.2305498 0.317614,1.0258008 0.318587,1.3312551 0,0.063231 -0.0063,0.1770467 -0.05545,0.1901793 -0.07588,0.02286 -0.73737,-1.1843647 -1.012181,-1.2052796 -0.283081,-0.020428 -0.432889,1.1843647 -0.432403,1.4815502 9.73e-4,0.2966992 0.05302,0.4956336 0.272866,0.4951472 0.326855,-9.728e-4 0.157591,-1.2052796 0.288917,-1.2052796 0.09776,0 0.63085,1.1007053 0.927063,1.0992461 0.322478,-4.864e-4 0.511198,-0.4713139 0.510712,-0.7777409 -0.0015,-0.700891 -0.466937,-1.5579138 -0.737857,-1.5564546" />
      <path
         style="fill:#b5dc17"
         id="path3172"
         d="m 14.146659,4.6255905 c -0.114789,0 -0.75488,0.1420265 -0.797197,0.1045743 -0.0428,-0.039398 0.03794,-0.4080829 0.117707,-0.4338617 0.08025,-0.025292 0.580752,-0.018483 0.661007,-0.023347 0.233468,-0.012646 0.189693,-0.3268555 0.04621,-0.3395017 -0.07296,-0.00584 -0.526276,-0.00681 -0.552055,-0.048153 -0.02432,-0.04183 0.0083,-0.2509783 0.05837,-0.2723796 0.104088,-0.042803 0.792333,-0.061285 0.843891,-0.073445 0.08463,-0.022374 0.148349,-0.067609 0.168291,-0.1415401 0.02092,-0.072472 -0.238332,-0.3716035 -0.559837,-0.3370697 -0.552055,0.059826 -1.266565,0.056421 -1.266565,0.2359002 0,0.1702372 0.335611,0.2373593 0.343393,0.2845393 0.0092,0.046207 -0.04329,0.220822 -0.06177,0.2757843 -0.02092,0.05934 -0.259247,0.076364 -0.275298,0.2417369 -0.0039,0.037939 0.05983,0.096792 0.04767,0.143972 -0.03794,0.1395946 -0.152241,0.4246203 -0.151268,0.5428136 0,0.1853154 0.135703,0.5919391 0.510225,0.5792929 0.591453,-0.018969 1.122106,-0.4314297 1.130375,-0.5034158 0.01265,-0.1084654 -0.148836,-0.2359001 -0.263138,-0.2359001" />
      <path
         style="fill:#b5dc17"
         id="path3176"
         d="m 15.66323,4.7549708 c 0.270434,-0.4703411 0.665384,-1.0934094 0.811302,-1.090491 0.102142,4.864e-4 0.140567,0.1031151 0.140567,0.2553558 0.0015,0.4596405 -0.554,0.8419447 -0.951869,0.8351352 m 0.776768,-1.5316486 c -0.322478,0.017996 -0.943114,0.7023501 -1.304503,1.164909 -0.02286,-0.046694 -0.03648,-0.092901 -0.03648,-0.1342442 -4.86e-4,-0.196016 0.367226,-0.7806593 0.435321,-0.9265769 0.07199,-0.1517543 -0.0097,-0.3540934 -0.09825,-0.281621 -0.173642,0.1415401 -0.725211,0.7845504 -0.723265,1.3837854 0,0.1361898 0.03648,0.3035087 0.112843,0.4572085 -0.123057,0.4012735 -0.42462,1.2942893 -0.414406,1.8361301 0.0049,0.279189 0.28843,0.5544869 0.457695,0.5180075 0.06518,-0.014105 0.07879,-0.3813314 0.1644,-0.6293913 0.11868,-0.3589573 0.310318,-1.0121819 0.375981,-1.2918573 0.03113,0.00292 0.06177,0.00535 0.09533,0.00438 0.673653,-0.00146 1.422211,-0.7203466 1.419292,-1.3390373 -0.0015,-0.6191771 -0.368199,-0.7689859 -0.48396,-0.76169" />
    </g>
    <g
       id="g3090">
      <path
         style="fill:#b5dc17"
         id="path3180"
         d="m 23.50922,21.086071 0,-4.273927 c -9.73e-4,-0.05545 -0.01167,-0.109925 -0.03356,-0.163428 -0.02383,-0.05691 -0.05788,-0.10652 -0.09874,-0.147377 L 20.68085,13.805755 c -0.09339,-0.09436 -0.09339,-0.245628 0,-0.338529 l 2.696071,-2.696071 c 0.04086,-0.04086 0.07491,-0.08998 0.09874,-0.146891 0.02189,-0.05399 0.03308,-0.109438 0.03356,-0.164887 l 0,-4.2724676 c 0,-0.061772 -0.02286,-0.1225708 -0.06955,-0.168778 -0.04669,-0.046207 -0.107493,-0.07004 -0.168778,-0.07004 l -4.107095,0 c -0.05496,9.728e-4 -0.109924,0.011673 -0.162941,0.034047 -0.05691,0.023347 -0.107006,0.056908 -0.147377,0.098251 l -2.86339,2.8638764 c -0.09339,0.092901 -0.244655,0.092901 -0.337556,-9.728e-4 l -2.86339,-2.8629036 c -0.04086,-0.041343 -0.08998,-0.074904 -0.14689,-0.098251 -0.0535,-0.022374 -0.108952,-0.033075 -0.163428,-0.034047 l -4.1066083,0 c -0.061285,0 -0.1220844,0.023833 -0.168778,0.07004 -0.046694,0.046207 -0.070041,0.1070062 -0.070041,0.1682916 l 0,4.272954 c 9.728e-4,0.05545 0.01216,0.110898 0.034047,0.164887 0.023347,0.05691 0.057881,0.106034 0.098251,0.146891 l 2.6965572,2.696071 0,4.86e-4 c 0.09339,0.09241 0.09339,0.243683 0,0.338043 l -2.6965572,2.695584 c -0.04037,0.04134 -0.074904,0.09047 -0.098251,0.147377 -0.021888,0.0535 -0.033075,0.108952 -0.034047,0.163428 l 0,4.273927 c 4.864e-4,0.06128 0.023833,0.122084 0.070041,0.169264 0.046694,0.04621 0.1074926,0.06956 0.168778,0.06956 l 4.2729543,0 c 0.05448,-9.73e-4 0.110411,-0.01216 0.163914,-0.03405 0.05691,-0.02335 0.10652,-0.05739 0.147377,-0.09825 l 2.696071,-2.696558 c 0.0929,-0.09339 0.244169,-0.09339 0.338043,-4.86e-4 l 2.696071,2.697044 c 0.04086,0.04086 0.09047,0.0749 0.14689,0.09825 0.05399,0.02189 0.109925,0.03308 0.164401,0.03405 l 4.272954,0 c 0.06129,0 0.122084,-0.02335 0.168778,-0.06956 0.04669,-0.04718 0.06955,-0.107979 0.06955,-0.169264" />
      <path
         style="fill:#b5dc17"
         id="path3184"
         d="m 34.750227,21.324403 c 0.05448,-9.73e-4 0.109438,-0.01167 0.162455,-0.03356 0.05691,-0.02335 0.10652,-0.05788 0.147377,-0.09874 l 2.94559,-2.946076 c 0.03794,-0.0394 0.06955,-0.08658 0.09242,-0.140081 0.02335,-0.05691 0.03453,-0.115275 0.03453,-0.172669 l 0,-8.5940618 c 0,-0.057394 -0.01119,-0.1162477 -0.03453,-0.1726691 -0.02286,-0.05399 -0.05448,-0.1006832 -0.09242,-0.1400809 l -2.94559,-2.9460768 c -0.04086,-0.041343 -0.09047,-0.075391 -0.147377,-0.098737 -0.05302,-0.022374 -0.107979,-0.032588 -0.162455,-0.033561 l -10.326103,0 c -0.06129,0 -0.122085,0.023347 -0.168292,0.069554 -0.04669,0.046207 -0.07004,0.1074926 -0.07053,0.1682916 l 0,14.8996475 c 4.86e-4,0.06129 0.02383,0.122085 0.07053,0.169265 0.04621,0.04621 0.107006,0.06955 0.168292,0.06955" />
    </g>
    <path
       d="m 37.240554,20.950854 c 0,-0.138135 0.09728,-0.209149 0.168292,-0.209149 l 0.0058,0 0.151755,0.04475 0.0073,0.01313 -0.01702,0.05642 -0.01313,0.0068 -0.139594,-0.0428 c -0.03453,0.0058 -0.07539,0.04523 -0.08269,0.106519 l 0.197962,0.08706 c 0.05545,0.02481 0.08414,0.07685 0.08414,0.129866 0,0.107979 -0.08269,0.167806 -0.182397,0.167806 -0.09144,0 -0.157591,-0.04426 -0.196988,-0.111871 l 0.0024,-0.01508 0.04767,-0.03356 0.01459,0.0029 c 0.03356,0.05594 0.07296,0.0788 0.131326,0.0788 0.06372,0 0.104574,-0.03745 0.104574,-0.08804 0,-0.02286 -0.01265,-0.04718 -0.03891,-0.05885 l -0.245142,-0.109439"
       id="path3188"
       style="fill:#243f65" />
    <path
       d="m 38.053802,20.756297 0.0088,-0.0068 0.05837,0 0.0097,0.0107 0,0.532113 -0.0097,0.0107 -0.05885,0 -0.0097,-0.0107 0,-0.371603 -0.139108,0.271893 -0.0107,0.0063 -0.0097,-0.0063 -0.138135,-0.271893 0,0.371603 -0.0107,0.0107 -0.05691,0 -0.0107,-0.0107 0,-0.512171 0.0063,-0.0092 0.05642,-0.02773 0.01411,0.0049 0.150295,0.304968"
       id="path3192"
       style="fill:#243f65" />
  </g>
</svg>
