<?xml version="1.0" encoding="UTF-8" standalone="no"?>
<svg
   xmlns="http://www.w3.org/2000/svg"
   width="100%"
   height="100%"
   viewBox="0 0 44.799999 17.6"
   version="1.1"
   id="svg2">
  <g
     id="#fefefeff"
     transform="matrix(0.02120794,0,0,0.02120794,0.14749966,-0.01337029)">
    <path
       d="m 165.62,227.84 c 6.79,-1.29 13.73,-1.13 20.6,-1.43 0.36,5.54 -0.16,11.08 -0.27,16.62 -1,23.05 -1.72,46.11 -2.91,69.15 -4.87,-1.17 -9.43,-3.25 -13.99,-5.24 -23.29,-10.4 -44.63,-25.27 -61.99,-43.98 -3.14,-3.4 -7.6,-6.82 -7.27,-11.96 -0.03,-3.29 2.98,-5.19 5.41,-6.76 8.09,-5.33 17.34,-8.82 26.92,-10.2 11.18,-1.99 22.34,-4.13 33.5,-6.2 z"
       id="path5"
       style="fill:#fefefe" />
  </g>
  <g
     id="#000000ff"
     transform="matrix(0.02120794,0,0,0.02120794,0.14749966,-0.01337029)"
     style="fill:#000000">
    <path
       d="M 21.55,14.53 C 48.71,4.21 78,0.18 106.97,0.67 c 10.53,-0.15 21.07,0.31 31.58,1.03 13.71,1.75 27.43,3.47 41.08,5.64 13.65,3.02 27.42,5.6 40.92,9.3 18.86,6.42 37.81,12.55 56.58,19.23 12.24,5.49 24.69,10.52 36.8,16.31 7.54,3.58 14.62,8.04 21.97,11.97 11.46,6.39 23.22,12.36 33.93,20 8.72,5.94 17.6,11.66 26.05,17.99 12.09,9.84 24.54,19.34 35.27,30.71 23.65,21.4 42.1,48.29 54.18,77.76 3.99,13.42 7.95,27.33 6.49,41.48 -1.26,15.44 -7.78,29.69 -13.98,43.65 -4.52,9.31 -11.76,16.86 -18.87,24.22 -2.54,2.47 -4.84,5.3 -7.99,7.01 -2.31,1.28 -4.78,2.28 -6.96,3.76 -10.81,7.95 -22.45,14.63 -34.28,20.92 -18.42,7.72 -37.98,12.4 -57.7,15.35 -4.66,0.72 -9.33,1.48 -14.05,1.44 -17.33,-0.02 -34.66,-0.07 -52,0.02 -3.09,0.01 -6.3,-0.16 -9.08,-1.66 -1.59,-0.76 -3.16,-1.7 -4.97,-1.75 -9.52,-0.95 -19.12,-1.27 -28.55,-2.97 -0.94,7.4 -2.65,15.66 -8.74,20.6 -7.48,4.2 -16.47,2.59 -24.58,1.57 -6.51,-0.39 -14.1,-1.45 -18.11,-7.25 -5.94,-10.03 -7.79,-21.76 -9.59,-33.09 -0.03,-1.51 -1.74,-1.86 -2.76,-2.49 -27.34,-13.1 -52.67,-30.47 -74.41,-51.61 -10.7,-9.67 -20.11,-20.65 -29.1,-31.9 -6.85,-8.6 -6.83,-22.66 1.55,-30.27 17.43,-17.33 41,-26.68 64.48,-32.48 15.09,-3.36 30.25,-6.52 45.64,-8.2 0.41,-12.69 2.37,-25.25 3.38,-37.89 1.14,-14.42 4.06,-28.62 6.36,-42.88 0.43,-2.84 2.39,-5.9 5.5,-6.15 3.19,0.1 5.97,1.93 8.85,3.13 3.76,1.82 7.96,3 11.11,5.86 4.32,4.56 7.34,10.37 8.57,16.54 1.94,8.95 4.19,17.86 5.1,26.99 0.96,9.97 2.08,19.93 2.98,29.91 17.82,0.15 35.76,0.91 53.26,4.56 13.38,2.78 27.08,4.4 40,9.05 12.89,4.98 26.35,9.79 36.7,19.32 7.17,6.72 13.31,15.46 14.23,25.5 0.89,8.14 -3.34,15.65 -7.92,22.01 -5.96,7.62 -14.75,14.39 -24.9,13.94 -5.93,0.12 -11.52,-2.01 -17.08,-3.76 -6.04,-1.25 -12.28,-2.91 -16.91,-7.22 7.6,-4.31 15.96,-8.6 20.43,-16.48 1.47,-2.86 2.88,-5.99 2.69,-9.27 -0.12,-1.95 -2.16,-2.39 -3.68,-2.76 -10.64,-2.45 -21.38,-4.43 -32.04,-6.77 -11.61,-2.63 -23.53,-3.37 -35.23,-5.48 -9.22,-0.94 -18.49,-1.48 -27.76,-1.3 2.01,35.1 0.51,70.26 0.65,105.4 18.08,3.42 36.59,3.72 54.94,3.65 12.71,0.15 25.31,-1.87 37.76,-4.24 27.42,-5.6 54.28,-16.08 76.51,-33.34 12.87,-10.05 22.57,-24.44 25.49,-40.64 1.86,-9.67 2.31,-19.89 -0.87,-29.34 -3.71,-11.06 -8.03,-21.9 -12.52,-32.66 -0.86,-2.03 -2.08,-3.88 -3.4,-5.63 -6.48,-8.47 -12.37,-17.44 -19.82,-25.12 -15.34,-18.03 -33.2,-33.75 -52.19,-47.82 C 328.2,100.84 308.02,87.84 285.69,79.35 273.64,74.74 262.03,68.95 249.58,65.45 237.3,61.74 225.09,57.77 212.75,54.24 196.36,50.44 179.92,46.91 163.46,43.45 146.39,41.15 129.18,40.18 112.07,38.24 101.11,37.01 90.06,37.02 79.05,37.49 c -9.11,0.46 -18.46,0.37 -27.2,3.31 -2.81,1.17 -6.09,2.3 -7.55,5.18 3.41,3.82 8.34,5.56 12.61,8.16 1.52,0.83 2.67,3.47 0.94,4.66 C 51.97,63.4 44.04,62.83 37,63.15 26.68,63.75 17.44,58.51 8.11,54.94 5.45,53.78 2.21,52.64 0.97,49.77 -0.58,43.31 2.94,37.18 5.49,31.48 9.11,24.6 13.69,17 21.55,14.53 m 144.07,213.31 c -11.16,2.07 -22.32,4.21 -33.5,6.2 -9.58,1.38 -18.83,4.87 -26.92,10.2 -2.43,1.57 -5.44,3.47 -5.41,6.76 -0.33,5.14 4.13,8.56 7.27,11.96 17.36,18.71 38.7,33.58 61.99,43.98 4.56,1.99 9.12,4.07 13.99,5.24 1.19,-23.04 1.91,-46.1 2.91,-69.15 0.11,-5.54 0.63,-11.08 0.27,-16.62 -6.87,0.3 -13.81,0.14 -20.6,1.43 z"
       id="path8" />
    <path
       d="m 525.94,41.07 c 15.15,-4.57 31.76,-8.57 47.29,-3.4 5.6,1.53 9.35,6.23 14.09,9.23 7.62,1.72 15.62,2.49 22.68,6.11 5.31,2.78 9.2,7.45 13.44,11.55 4.74,4.5 7.87,10.84 7.81,17.44 -1.43,13.47 -6.16,26.86 -14.9,37.36 -12.66,15.67 -30.38,26.22 -48.54,34.35 -18.23,7.69 -38.68,7.98 -57.91,4.54 -3.06,2.48 -4.81,6.28 -8.06,8.58 -2.76,2.1 -6.69,4.13 -10.06,2.22 -4.95,-2.74 -10.67,-5.06 -13.76,-10.09 -3.79,-6.32 -2.92,-14.01 -2.59,-21.03 -7.18,-8.32 -13.78,-18.53 -13.06,-29.98 0.99,-17.26 9.91,-33.45 22.78,-44.77 11.6,-10.48 25.97,-17.45 40.79,-22.11 m -33.7,63.13 c 2.59,-1.39 3.99,-4.06 5.65,-6.35 3.9,-5.65 8.41,-10.85 13.21,-15.75 2.99,-3.08 6.33,-5.85 8.91,-9.3 -13.14,5.71 -24.23,17.31 -27.77,31.4 m 79.57,-23.48 c -12.25,5.16 -22.37,14.15 -31.33,23.77 -6.87,7.41 -14.28,14.88 -17.71,24.62 3.39,0.14 6.82,0.19 10.19,-0.39 16.69,-2.69 33.54,-6.73 48.16,-15.53 9.16,-5.58 17.44,-13.55 21.08,-23.85 0.97,-3.88 2.19,-9.29 -1.47,-12.12 -9.69,-1.39 -19.89,-0.47 -28.92,3.5 z"
       id="path10" />
    <path
       d="m 814.85,158.04 c 0.24,-2.93 3.64,-3.27 5.91,-2.7 4.51,1.17 7.88,4.68 10.69,8.21 7.41,9.59 13.24,20.25 19.23,30.74 5.11,8.38 8.89,17.48 12.44,26.59 5.08,13.44 8.43,27.66 8.44,42.08 -0.14,12.42 1.55,25.09 -1.55,37.28 -2.64,11.27 -8.13,22.17 -16.93,29.87 -5.35,4.67 -13.7,6.51 -20.07,2.88 -6.75,-3.97 -12.95,-9.06 -17.61,-15.39 -15.78,-21.38 -27.14,-45.52 -40.52,-68.38 -1,-1.49 -1.58,-3.58 -3.48,-4.12 -0.7,2.56 -1.26,5.16 -1.4,7.82 -1,22.39 -2.43,44.76 -3.53,67.14 -0.52,6.42 -1.26,13.15 -4.64,18.78 -2.5,3.84 -7.73,3.21 -11.65,2.74 -6.47,-1.72 -13.09,-5.17 -16.29,-11.33 -4.14,-7.73 -3.78,-16.74 -3.74,-25.23 -0.23,-10.1 1.73,-20.06 2.4,-30.1 1.19,-13.73 4.71,-27.1 7.01,-40.66 1.83,-10.59 4.93,-20.93 8.8,-30.95 1.56,-4.26 3.67,-8.74 7.83,-11.02 3.51,-2.18 8.09,-1.16 11.08,1.45 8.45,7 14.78,16.08 20.94,25.06 13.7,19.62 27.37,39.26 41.12,58.85 2.57,3.4 4.54,7.28 7.7,10.21 3.86,-4.32 1.68,-10.64 1.45,-15.83 -3.12,-24.53 -9.12,-48.6 -16.54,-72.16 -2.46,-8 -3.64,-16.31 -5.31,-24.49 -1.03,-5.71 -2.56,-11.5 -1.78,-17.34 z"
       id="path12" />
    <path
       d="m 1247.07,168.92 c 14.59,-3.54 30.68,1.18 41.38,11.63 9,8.6 14.47,20.97 14.16,33.47 0.28,9.12 -3.53,17.62 -7.36,25.67 18.86,-4.81 39.43,-1.94 56.16,8.03 0.02,-8.98 0.63,-18.28 4.9,-26.39 3.22,-7.31 9.15,-12.83 15.19,-17.83 8.41,-7.2 19.34,-11.66 30.51,-11.37 16.63,-0.24 32.64,9.9 40.18,24.62 7.8,14.5 6.65,33.24 -2.74,46.75 -6.52,10.11 -17.58,16.08 -28.5,20.33 -9.72,3.68 -20.32,2.51 -30.16,0.01 2.42,9.85 4.42,20.06 3.06,30.23 -1.7,19.83 -12.7,38.35 -28.6,50.15 -16.77,12.28 -39.07,16.79 -59.22,11.58 -13.42,-3.68 -26.13,-10.97 -35.17,-21.66 -14.75,-16.42 -20.69,-40.31 -15.56,-61.77 2.35,-10.86 7.97,-20.58 14.13,-29.68 -10.31,0.14 -21.01,-1.59 -29.71,-7.46 -11.46,-7.22 -19.16,-19.87 -20.64,-33.29 -1.62,-12.59 3.32,-25.13 10.77,-35.09 6.4,-9.12 16.3,-15.67 27.22,-17.93 z"
       id="path14" />
    <path
       d="m 1058.57,194.57 c 5.85,-7.36 11.93,-15.05 20.51,-19.36 0.99,0.84 2.6,1.41 2.66,2.94 0.57,6.92 -0.18,14.1 -3.35,20.37 -10.16,20.04 -19.35,40.55 -28.98,60.84 -3.61,9.67 -8.24,20.75 -3.27,30.8 1.96,-0.65 2.75,-2.69 3.87,-4.24 5.96,-8.95 12.31,-17.64 18.43,-26.47 9.68,-13.46 20.96,-25.64 32.49,-37.51 7.35,-7.32 14.56,-14.82 22.48,-21.54 7.4,-6.17 17.22,-10.99 27.05,-8.59 7.79,1.69 12.67,8.64 16.77,14.91 6.47,10.97 11.54,23.32 11.38,36.27 0.43,17.29 -5.4,34.35 -14.98,48.63 -10.11,15.54 -23.88,28.28 -38.49,39.52 -15.16,11.43 -34.29,16.89 -53.18,16.42 -6.82,10.46 -11.86,22.06 -15.47,34 -3.43,10.07 -6.87,20.17 -9.02,30.6 -1.5,7.18 -3.35,14.27 -5,21.41 -2.25,9.16 -3.02,18.61 -5.27,27.78 -1.35,5.42 -2.01,11 -3.52,16.38 -0.75,2.83 -4.01,3.93 -6.65,3.84 -5.79,-0.22 -11.05,-3.51 -14.97,-7.6 -6.85,-7.25 -10.19,-16.89 -12.65,-26.35 -1.75,-5.71 -2.21,-11.71 -2.02,-17.65 -0.18,-9.53 3.08,-18.62 5.86,-27.59 1.88,-5.53 2.85,-11.3 4.5,-16.89 6.09,-19.57 12.7,-39.01 21.1,-57.72 1.39,-2.88 2.42,-6.38 0.81,-9.39 -7.44,-15.9 -9.68,-34.16 -6.34,-51.38 4.83,-26.76 17.55,-51.89 35.25,-72.43 m 87.53,29.41 c -11.76,15.28 -23.58,30.53 -35.38,45.78 -9.47,12.55 -19.67,24.73 -27.41,38.43 15.46,1.69 29.94,-5.94 41.97,-14.87 8.96,-6.57 17.49,-14.1 23.61,-23.46 6.82,-13.17 8.95,-29.86 1.62,-43.3 -0.75,-1.79 -2.83,-1.99 -4.41,-2.58 z"
       id="path16" />
    <path
       d="m 628.93,181.62 c 20.71,-2.9 41.85,-3.43 62.62,-0.81 12.21,2.02 25.35,4.23 35.01,12.58 3.87,3.27 0.9,8.57 -1.16,12.01 -3.48,5.91 -10.92,6.81 -17.07,7.72 -27.75,2.81 -55.5,5.6 -83.25,8.39 -11.48,0.87 -23.17,2.76 -33.47,8.16 -0.79,0.35 -1.35,0.92 -1.7,1.7 30.06,3.81 60.03,8.27 90.13,11.77 5.6,0.6 11.4,1.48 16.25,4.57 6.73,4.35 14.23,8.42 18.25,15.7 5.35,6.77 8.29,15.12 9.68,23.55 0.73,11.74 -1.92,24.41 -9.82,33.46 -9.78,9.76 -22.84,15.71 -36.18,18.79 -24.37,5.53 -49.96,2.08 -73.38,-5.9 -11.53,-4.05 -22.83,-9.88 -31.07,-19.11 -5.48,-6.09 -9.3,-13.97 -9.56,-22.25 -0.11,-4.4 2.44,-8.31 5.42,-11.32 5.36,-5.17 11.41,-9.89 18.57,-12.27 9.53,-3.55 19.87,-3.58 29.89,-2.98 16.96,2.03 33.59,6.12 50.13,10.29 4,0.97 7.71,2.84 11.29,4.84 2.04,1.08 3.67,3.9 2.02,5.99 -3.07,5.02 -9.26,6.36 -14.21,8.83 -9.62,4.24 -20.57,2.77 -30.22,-0.57 -9.71,-2.8 -18.91,-7.05 -28.46,-10.26 -5.29,-0.46 -10.9,-0.03 -15.76,2.26 -4.39,2.12 -8.26,7.33 -5.98,12.31 1.13,4.15 5.73,5.49 9.19,7.14 14.97,3.32 30.61,3.07 45.54,-0.34 12.23,-2.51 24.24,-6.03 35.98,-10.28 6.8,-2.46 13.34,-6.71 16.92,-13.16 1.66,-2.82 1.48,-6.69 -0.78,-9.14 -3.99,-4.82 -10.47,-5.88 -15.97,-8.11 -3.71,-1.59 -7.8,-1.56 -11.73,-2.01 -17.62,-1.8 -35.36,-1.34 -53.03,-1.81 -13.97,0.28 -28.07,-2.62 -40.61,-8.85 -5.51,-2.81 -11.81,-5.15 -15.29,-10.61 -2.97,-4.31 -1.4,-9.73 -0.67,-14.47 1.79,-10.22 6.09,-20.97 15.22,-26.72 17.44,-10.39 37.29,-16.12 57.26,-19.09 z"
       id="path18" />
    <path
       d="m 961,183.05 c 7.61,-1.05 15.28,-1.73 22.97,-1.7 5.72,-0.08 12.28,-1.31 17.17,2.48 4.9,4.13 8.53,9.49 12.84,14.19 3.94,4.28 6.66,9.82 6.97,15.68 -2.51,3.38 -6,6.02 -10.11,7.08 -7.47,1.87 -15.25,0.84 -22.85,1.1 -12.99,0.64 -26.01,0.43 -38.99,1.2 -1.83,0.01 -3.48,1.01 -4.31,2.62 -3.29,6.07 -4.54,12.93 -6.29,19.54 15.68,1.69 31.84,-1.36 47.44,2.04 1.34,0.32 3.07,0.74 3.54,2.25 1.89,5.59 2.76,11.56 2.38,17.46 -0.21,3.58 -4.33,4.61 -7.22,5.15 -17.35,2.7 -34.95,0.76 -52.4,1.82 -1.72,1.49 -2.58,3.67 -3.68,5.6 -2.97,5.75 -6.13,11.45 -8.39,17.54 -1.25,3.12 -0.71,6.54 -0.76,9.81 9.52,0.1 18.59,-3.09 27.87,-4.74 13.98,-2.86 28.01,-7.38 42.46,-5.8 5.58,4.93 7.76,12.61 8.86,19.74 0.55,4.19 -3.39,6.96 -6.49,8.91 -11.94,7.42 -24.26,14.3 -37.18,19.85 -11.03,4.67 -22.71,8.57 -34.82,8.47 -6.81,0.01 -13.79,-1.88 -19.16,-6.19 -6.73,-5.26 -12.94,-11.61 -16.37,-19.55 -4.87,-11.04 -5.68,-24.05 -1.24,-35.36 3.43,-9.04 7.95,-17.61 11.43,-26.63 2.42,-4.91 -1.39,-10.11 -0.24,-15.18 3.24,-3.91 9.61,-3.14 12.5,-7.49 4.23,-6.83 5.76,-14.86 8.76,-22.23 -8.33,-2.96 -18.53,-2.5 -24.97,-9.43 -3.64,-3.91 -7.25,-9.26 -6.28,-14.81 3.31,-4.01 8.98,-4.3 13.72,-5.28 20.79,-3.92 41.93,-5.12 62.84,-8.14 z"
       id="path20" />
    <path
       d="m 507.49,182.33 c 1.41,-1.55 3.32,-0.41 4.83,0.31 4.36,2.19 8.78,4.39 12.65,7.4 5.08,3.98 8.35,9.91 9.83,16.12 1.3,4.96 0.8,10.12 1.4,15.17 1.4,19.21 1.71,38.48 3.03,57.69 0.34,17.98 -0.18,35.98 0.32,53.95 -0.24,2.92 0.25,6.37 -1.99,8.66 -3.32,3.79 -8.72,5.08 -13.59,4.59 -5.96,-0.67 -11.72,-2.47 -17.51,-3.92 -2.27,-0.71 -5,-1.23 -6.25,-3.5 -2.83,-4.48 -4.24,-9.71 -5,-14.91 -1.97,-13.54 -1.48,-27.25 -1.49,-40.89 -0.42,-14.96 1.97,-29.79 3.04,-44.68 1.53,-15.08 4.74,-29.92 6.96,-44.9 0.97,-3.73 1.17,-8.1 3.77,-11.09 z"
       id="path22" />
    <path
       d="m 1236.77,402.03 c 54.62,-0.01 109.24,-0.13 163.87,0.06 -0.05,27.97 -0.02,55.94 -0.02,83.91 -0.04,1.78 -0.22,3.55 -0.35,5.33 -54.48,0.24 -108.96,-0.01 -163.43,0.15 -1.15,-9.82 0.8,-19.69 -0.08,-29.52 0.19,-13.64 1.09,-27.31 0.24,-40.95 0.27,-6.34 -0.56,-12.65 -0.23,-18.98 z"
       id="path24" />
  </g>
  <g
     id="#e73435ff"
     transform="matrix(0.02120794,0,0,0.02120794,0.14749966,-0.01337029)"
     style="fill:#e73435">
    <path
       d="m 409.74,351.65 c 11.83,-6.29 23.47,-12.97 34.28,-20.92 0.29,2.09 0.58,4.19 0.62,6.31 0,87.32 0,174.64 0.01,261.96 -0.16,7.38 0.15,14.89 -1.55,22.13 -2.34,8.7 -4.88,17.37 -8.29,25.72 -3.17,8.13 -7.54,15.71 -11.52,23.46 -8.67,14.45 -19.63,27.66 -33.05,37.94 -8.68,6.55 -17.5,13.24 -27.66,17.34 -3.9,1.47 -7.14,5.02 -11.54,4.76 -54.36,-0.04 -108.72,-0.02 -163.08,0 -4.18,0.07 -7.86,-2.18 -11.64,-3.64 -24.64,-10.77 -48.58,-24.44 -67.4,-43.91 5.3,-10.77 11.61,-21.02 17.28,-31.6 9.11,-16.15 17.92,-32.5 27.34,-48.45 2.76,-6.12 6.36,-11.8 9.59,-17.67 7.65,-13.73 15.14,-27.55 23.15,-41.07 4.4,5.62 6.78,12.69 11.84,17.87 4.77,4.78 10.45,9.03 17.09,10.72 6.77,1.87 13.86,2.63 20.87,2.28 5.88,-0.21 11.4,-2.38 17.04,-3.8 5.43,-1.7 11.61,-2.89 15.26,-7.7 5.25,-6.49 8.49,-14.97 7.91,-23.38 -0.46,-21.33 -0.23,-42.66 -0.3,-64 0.73,-36.39 -0.35,-72.82 0.92,-109.2 2.78,1.5 5.99,1.67 9.08,1.66 17.34,-0.09 34.67,-0.04 52,-0.02 4.72,0.04 9.39,-0.72 14.05,-1.44 19.72,-2.95 39.28,-7.63 57.7,-15.35 z"
       id="path27" />
    <path
       d="m 1598.37,391.41 c 40.32,-2.02 81.25,7.64 116.05,28.19 28.37,16.61 52.59,40.52 68.78,69.21 18.35,32.2 25.78,70.49 20.48,107.2 -4.82,34.65 -20.91,67.39 -44.54,93.09 -14.44,15.63 -31.35,29.25 -50.27,39.03 -22.93,0.48 -45.92,0.06 -68.87,0.2 -43.01,0.01 -86.03,-0.02 -129.04,0.02 -1.52,-0.01 -3.05,-0.16 -4.33,-0.98 -31.47,-17.6 -58.24,-43.98 -75.03,-76 -17.34,-32.68 -23.57,-71.14 -17.15,-107.59 5.67,-33.39 21.84,-64.69 44.94,-89.36 35.57,-38.35 86.92,-60.72 138.98,-63.01 m 2.1,130.33 c -10.8,1.71 -20.8,7.55 -27.73,15.98 -12.07,14.2 -14.51,35.43 -6.73,52.25 5.85,13.04 17.94,23.16 31.98,26.12 16.49,3.77 34.7,-2.7 45.09,-16.06 13.83,-16.77 14.34,-42.94 1.14,-60.22 -9.71,-13.6 -27.25,-20.84 -43.75,-18.07 z"
       id="path29" />
    <path
       d="m 1062.05,405.09 c 14.39,-6.58 30.2,-9.78 45.99,-10.19 21.79,-0.77 44.21,2.86 63.4,13.65 15.75,8.57 28.53,22.04 37.38,37.54 11.32,20.13 16.59,43.09 18.74,65.92 -0.35,72.73 0.11,145.49 -0.24,218.23 -31.44,0.22 -62.89,0.03 -94.32,0.09 -22.59,-0.13 -45.2,0.27 -67.77,-0.19 0.02,-48.39 0.01,-96.77 0.06,-145.15 -0.2,-7.91 1.43,-16.82 -3.59,-23.64 -9.71,-13.5 -31.55,-14.06 -43.24,-2.89 -3.28,3.32 -5.77,7.72 -5.68,12.5 0.01,53.06 0.02,106.12 0,159.18 -24.92,0.45 -49.86,0.06 -74.78,0.19 -29.35,-0.07 -58.7,0.14 -88.05,-0.1 -0.19,-107.76 -0.02,-215.53 -0.08,-323.29 -0.45,-2.49 1.28,-5.39 4.09,-4.93 43.68,-0.09 87.36,0.1 131.04,-0.02 6.08,-0.09 12.16,0.33 18.25,0.39 -2.78,8.97 -6.04,18.06 -5.86,27.59 -0.19,5.94 0.27,11.94 2.02,17.65 2.46,9.46 5.8,19.1 12.65,26.35 3.92,4.09 9.18,7.38 14.97,7.6 2.64,0.09 5.9,-1.01 6.65,-3.84 1.51,-5.38 2.17,-10.96 3.52,-16.38 2.25,-9.17 3.02,-18.62 5.27,-27.78 1.65,-7.14 3.5,-14.23 5,-21.41 5.23,-1.54 9.64,-4.87 14.58,-7.07 z"
       id="path31" />
    <path
       d="m 2025.67,402.63 c 8.06,-3.62 17.03,-3.84 25.66,-4.94 12.18,-1.39 24.44,-1.16 36.67,-0.84 l 0,151.59 c -8.05,-2.5 -16.03,-5.27 -24.25,-7.14 -7.45,-1.78 -15.13,-2.19 -22.75,-2.26 -8.09,0.14 -16.37,0.87 -23.87,4.12 -9.08,3.89 -17.82,9.09 -24.41,16.57 -10.73,12.02 -16.06,28.29 -16.03,44.28 -0.01,31.33 0,62.66 0,93.99 -0.12,10.74 0.6,21.47 0.26,32.21 -23.65,0.29 -47.3,0.04 -70.95,0.12 -29.31,-0.08 -58.63,0.17 -87.94,-0.12 -0.11,-108.71 -0.08,-217.43 -0.01,-326.14 22.64,-0.8 45.3,-0.24 67.95,-0.4 28.28,0.12 56.57,-0.24 84.84,0.16 2.98,3.58 3.81,8.55 3.89,13.11 -0.02,9.41 0.94,18.82 0.38,28.24 5.52,-9.86 14.74,-16.63 22.42,-24.65 7.86,-8 17.9,-13.53 28.14,-17.9 z"
       id="path33" />
    <path
       d="m 469.31,403.97 c 2.21,-0.29 4.44,-0.39 6.69,-0.34 48.65,0.15 97.31,-0.12 145.96,0.14 0.07,53.74 0.06,107.5 0.01,161.24 -0.7,7.17 -0.03,14.81 4.04,20.96 5.63,9.05 16.4,14.6 27.05,13.72 15.22,-0.32 28.61,-14.35 27.82,-29.63 -0.48,-4.34 -0.68,-8.7 -0.56,-13.06 0.01,-51.01 0.04,-102.02 -0.02,-153.02 3.88,-0.56 7.8,-0.28 11.7,-0.31 48.69,0 97.38,0 146.07,0 1.15,0.05 2.3,0.19 3.46,0.43 0.36,59.96 0.04,119.93 0.14,179.9 0.3,17.3 -0.89,35.08 -7.5,51.26 -2.8,7.48 -4.52,15.43 -8.49,22.43 -2.8,4.84 -5.09,10.01 -8.57,14.43 -6.59,9.01 -15.35,16.02 -23.56,23.45 -10.49,9.22 -22.11,17.11 -34.58,23.39 -8.41,4.2 -16.43,10.05 -25.94,11.35 -55.02,0.06 -110.04,-0.01 -165.06,0.04 -4.21,0.02 -7.97,-2.12 -11.83,-3.49 -11.81,-5 -23.13,-11.2 -33.9,-18.16 -23.17,-15.47 -42.24,-37.73 -52,-63.98 -1.48,-3.74 -0.79,-7.83 -0.91,-11.72 -0.01,-76.35 0.03,-152.69 -0.02,-229.03 z"
       id="path35" />
    <path
       d="m 1236.84,491.48 c 54.47,-0.16 108.95,0.09 163.43,-0.15 0.09,79.64 0.16,159.27 -0.04,238.9 -52.07,0.26 -104.16,0 -156.23,0.13 -2.31,0.01 -4.61,-0.07 -6.89,-0.14 0.02,-30.74 0.02,-61.48 0.03,-92.22 0.12,-17.66 -0.27,-35.34 0.33,-53 -0.92,-31.16 0.27,-62.37 -0.63,-93.52 m 47.59,21.05 c -8.15,1.26 -14.35,9.29 -13.72,17.49 0.15,8.85 8.35,16.7 17.28,15.94 8.96,-0.37 16.15,-9.14 15.27,-17.97 -0.27,-9.31 -9.57,-17.23 -18.83,-15.46 m 67,0 c -8.52,1.29 -14.8,9.99 -13.64,18.48 0.66,8.48 8.63,15.68 17.21,14.95 8.95,-0.38 16.15,-9.14 15.26,-17.97 -0.26,-9.32 -9.57,-17.23 -18.83,-15.46 z"
       id="path37" />
  </g>
  <g
     id="#f6e551ff"
     transform="matrix(0.02120794,0,0,0.02120794,0.14749966,-0.01337029)"
     style="fill:#f6e551">
    <path
       d="m 1284.43,512.53 c 9.26,-1.77 18.56,6.15 18.83,15.46 0.88,8.83 -6.31,17.6 -15.27,17.97 -8.93,0.76 -17.13,-7.09 -17.28,-15.94 -0.63,-8.2 5.57,-16.23 13.72,-17.49 z"
       id="path40" />
    <path
       d="m 1351.43,512.53 c 9.26,-1.77 18.57,6.14 18.83,15.46 0.89,8.83 -6.31,17.59 -15.26,17.97 -8.58,0.73 -16.55,-6.47 -17.21,-14.95 -1.16,-8.49 5.12,-17.19 13.64,-18.48 z"
       id="path42" />
  </g>
</svg>
