<?xml version="1.0" encoding="UTF-8" standalone="no"?>
<!-- Generator: Adobe Illustrator 17.1.0, SVG Export Plug-In . SVG Version: 6.00 Build 0)  -->

<svg
   xmlns="http://www.w3.org/2000/svg"
   version="1.1"
   id="svg1968"
   viewBox="83.8 13 105 22"
   xml:space="preserve"
   width="100%"
   height="100%">
<g
   id="g8"
   transform="matrix(0.79994531,0,0,0.79994531,16.764581,4.8019142)">
	<path
   id="path2084"
   d="m 168,23.5 c 7.3,-11.1 -0.9,1.3 7,-10.5 h -20.7 c 7.9,11.9 -0.6,-0.8 7,10.5 -8,12.1 1.5,-2.3 -7.6,11.5 h 22 c -8.2,-12.1 0.9,1.5 -7.7,-11.5 l 0,0 z m -37.3,11.5 22.2,0 -8.1,-22 -5.8,0 -8.3,22 0,0 0,0 z m -25.3,0 H 130 V 13 l -8.5,0 -3.9,12 -3.6,-12 h -8.5 v 22 l -0.1,0 0,0 z m -12.5,0 c 8.1,0 11,-4.2 11,-11.4 C 104,17.8 100,12.9 93.7,13 h -9.9 v 22 h 9.1 c 0,0 0,0 0,0 z" />
	<path
   id="path2897"
   d="m 177.2,13 v 22 h 2.2 V 24.7 h 13.2 V 35 h 2.2 V 13 h -2.2 v 9.6 H 179.4 V 13 h -2.2 l 0,0 z m 19.4,0 v 22 h 6.7 c 3.3,0 5,-0.5 6.9,-1.6 3.3,-2 4.2,-5.2 4.2,-9.3 0,-4.1 -0.9,-7.4 -4.2,-9.3 -2.1,-1.2 -3.8,-1.7 -7.7,-1.7 0.1,-0.1 -5.9,-0.1 -5.9,-0.1 z m 2.2,2 h 3.9 c 3.3,0 4.8,0.4 6.4,1.4 2.5,1.5 3.1,4.3 3.1,7.5 0,2.9 -0.3,5.4 -2.3,7 -1.7,1.4 -3.4,2 -7.3,2 h -3.9 C 198.8,33 198.8,15 198.8,15 z"
   style="fill:#999999" />
</g>
</svg>