<?xml version="1.0" encoding="UTF-8" standalone="no"?>
<!-- Created with Inkscape (http://www.inkscape.org/) -->

<svg
   xmlns="http://www.w3.org/2000/svg"
   xmlns:xlink="http://www.w3.org/1999/xlink"
   version="1.1"
   width="100%"
   height="100%"
   viewBox="0 0 45 22"
   id="svg193031">
  <defs
     id="defs193033">
    <linearGradient
       x1="0"
       y1="0"
       x2="1"
       y2="0"
       id="linearGradient137527"
       gradientUnits="userSpaceOnUse"
       gradientTransform="matrix(-10.643,10.643,10.643,10.643,973.833,99.445)"
       spreadMethod="pad">
      <stop
         id="stop137529"
         style="stop-color:#a21332;stop-opacity:1"
         offset="0" />
      <stop
         id="stop137531"
         style="stop-color:#000000;stop-opacity:1"
         offset="1" />
    </linearGradient>
    <linearGradient
       x1="0"
       y1="0"
       x2="1"
       y2="0"
       id="linearGradient137455"
       gradientUnits="userSpaceOnUse"
       gradientTransform="matrix(-6.1763,-12.616,-12.616,6.1763,959.417,115.387)"
       spreadMethod="pad">
      <stop
         id="stop137457"
         style="stop-color:#284985;stop-opacity:1"
         offset="0" />
      <stop
         id="stop137459"
         style="stop-color:#00030b;stop-opacity:1"
         offset="1" />
    </linearGradient>
    <linearGradient
       x1="0"
       y1="0"
       x2="1"
       y2="0"
       id="linearGradient3352"
       xlink:href="#linearGradient137455"
       gradientUnits="userSpaceOnUse"
       gradientTransform="matrix(-37.940335,77.498708,-77.498708,-37.940335,67.736371,22.432562)"
       spreadMethod="pad" />
    <linearGradient
       x1="0"
       y1="0"
       x2="1"
       y2="0"
       id="linearGradient3357"
       xlink:href="#linearGradient137527"
       gradientUnits="userSpaceOnUse"
       gradientTransform="matrix(-65.378785,-65.378785,65.378785,-65.378785,156.29228,120.36252)"
       spreadMethod="pad" />
  </defs>
  <g
     transform="matrix(0.18057325,0,0,0.18057325,-0.18057457,-0.1731708)"
     id="euro">
    <path
       d="m 10.306487,45.904547 85.029891,0 -9.208193,32.778465 -85.1281777,0 9.3064797,-32.778465"
       id="path137461"
       style="fill:url(#linearGradient3352);stroke:none" />
    <g
       id="g3377">
      <path
         d="m 14.662285,51.728007 13.256358,0 -1.167149,4.115737 -8.60619,0 -1.130292,4.01745 7.942758,0 -1.16715,4.07888 -7.942757,0 -1.363722,4.748454 8.612333,0 -1.136435,4.115737 -13.2625008,0 5.9647468,-21.076258"
         id="path137469"
         style="fill:#ffffff" />
      <path
         d="m 27.433109,67.773238 0.208858,-1.075006 4.232452,-14.970224 4.650168,0 -4.066593,14.337506 -0.202716,0.97672 c -0.135143,1.265435 0.454574,1.965725 2.672158,1.965725 2.53087,0 3.556733,-1.013577 4.06045,-2.752015 l 4.12188,-14.527936 4.650168,0 -4.232452,14.970224 c -1.013577,3.544448 -3.089874,6.425464 -9.515337,6.425464 -5.098599,0 -6.880038,-2.567729 -6.579036,-5.350458"
         id="path137473"
         style="fill:#ffffff" />
      <path
         d="m 61.176253,58.245614 0.19043,-0.884576 c 0.116715,-1.075006 -0.503717,-1.517294 -2.113155,-1.517294 l -3.863878,0 -1.787581,6.357892 3.986736,0 c 2.057868,0 2.672157,-0.755576 3.132874,-2.371156 l 0.454574,-1.584866 z m -5.540887,7.979615 -3.194303,0 -1.842868,6.579036 -4.650168,0 5.958604,-21.076258 8.071758,0 c 4.527311,0 6.554465,1.707724 6.222749,4.809883 l -0.264145,1.29615 -0.712575,2.530871 c -0.724861,2.629157 -1.855153,4.306167 -4.582596,5.221457 l 3.212731,7.217897 -5.221457,0 -2.99773,-6.579036"
         id="path137477"
         style="fill:#ffffff" />
      <path
         d="m 81.65665,57.612897 c 0.141286,-1.29615 -0.632718,-2.088583 -2.881016,-2.088583 -2.40187,0 -3.777877,1.044292 -4.275452,2.721301 l -2.285155,8.041044 -0.141286,0.724861 c -0.135144,1.265435 0.608146,1.996439 2.887158,1.996439 2.40187,0 3.765592,-0.915291 4.275452,-2.7213 l 2.291298,-8.041044 0.129001,-0.632718 z m -14.355935,9.908483 0.202715,-0.982863 2.451013,-8.704476 c 1.118006,-3.919164 3.790164,-6.419321 9.742625,-6.419321 5.000313,0 7.03361,2.844159 6.726465,5.725174 l -0.196572,0.952148 -2.444871,8.60619 c -1.124149,4.017451 -3.759449,6.425464 -9.994483,6.425464 -4.963455,0 -6.794037,-2.758158 -6.486892,-5.602316"
         id="path137481"
         style="fill:#ffffff" />
    </g>
  </g>
  <g
     transform="matrix(0.18057325,0,0,0.18057325,-0.18057457,-0.1731708)"
     id="sport">
    <path
       d="m 95.330725,45.904547 99.090965,0 -9.31262,32.778464 -98.986538,0 9.208193,-32.778464"
       id="path137465"
       style="fill:#ffffff" />
    <g
       id="g3395">
      <path
         d="m 92.818037,71.729259 1.394436,-3.575162 c 1.959582,0.602003 3.587448,1.044291 5.614602,1.044291 2.469445,0 3.089875,-0.473003 3.605875,-2.309727 l 0.24572,-1.10572 c 0.0983,-0.952148 -0.50372,-1.204007 -2.99773,-1.873582 -3.41545,-0.884576 -4.582599,-2.119297 -4.318455,-4.588739 0.06757,-0.663432 0.245716,-1.419008 0.497574,-2.27287 1.419008,-4.687025 2.788872,-5.63303 8.514051,-5.63303 1.61558,0 4.23859,0.344002 6.05074,0.823147 l -1.24086,3.88845 c -1.8183,-0.442288 -4.18945,-0.724861 -5.6146,-0.724861 -2.27902,0 -2.75816,0.313287 -3.21888,1.990296 l -0.25186,1.142578 c -0.11057,1.013577 0.50986,1.167149 2.90559,1.799867 3.82088,0.982862 4.76688,2.186869 4.5396,4.336881 -0.0737,0.663432 -0.24572,1.394436 -0.49758,2.248298 -1.22243,4.33688 -2.94244,6.204319 -8.925617,6.204319 -1.738438,0 -4.742312,-0.602003 -6.302606,-1.394436"
         id="path137485"
         style="fill:#a7012d" />
      <path
         d="m 125.04364,58.343901 0.19043,-0.915291 c 0.11671,-1.081148 -0.46072,-1.584865 -1.88587,-1.584865 l -3.91916,0 -1.84287,6.517606 3.83316,0 c 2.15002,0 2.70288,-0.761718 3.15745,-2.340441 l 0.46686,-1.677009 z m -8.61233,8.034901 -1.83058,6.425463 -4.65017,0 5.9586,-21.076257 8.04105,0 c 4.52731,0 6.52375,1.738438 6.19817,4.748454 l -0.36243,1.61558 -0.66343,2.371156 c -1.11801,3.925307 -2.94859,5.915604 -8.51405,5.915604 l -4.17716,0"
         id="path137489"
         style="fill:#a7012d" />
      <path
         d="m 144.61489,57.612897 c 0.14129,-1.29615 -0.62657,-2.088583 -2.87487,-2.088583 -2.40802,0 -3.78402,1.044292 -4.2816,2.721301 l -2.28515,8.041044 -0.14129,0.724861 c -0.13514,1.265435 0.60815,1.996439 2.88716,1.996439 2.40187,0 3.77173,-0.915291 4.28159,-2.7213 l 2.28516,-8.041044 0.129,-0.632718 z m -14.35594,9.908483 0.20272,-0.982863 2.45101,-8.704476 c 1.11801,-3.919164 3.79017,-6.419321 9.74263,-6.419321 5.00031,0 7.03361,2.844159 6.72646,5.725174 l -0.19657,0.952148 -2.44487,8.60619 c -1.12415,4.017451 -3.75945,6.425464 -9.98834,6.425464 -4.9696,0 -6.79404,-2.758158 -6.49304,-5.602316"
         id="path137493"
         style="fill:#a7012d" />
      <path
         d="m 163.88489,58.245614 0.19043,-0.884576 c 0.11671,-1.075006 -0.50372,-1.517294 -2.1193,-1.517294 l -3.85773,0 -1.79373,6.357892 3.98674,0 c 2.05787,0 2.6783,-0.755576 3.13902,-2.371156 l 0.45457,-1.584866 z m -5.54089,7.979615 -3.1943,0 -1.84901,6.579036 -4.65017,0 5.96475,-21.076258 8.06561,0 c 4.52731,0 6.56061,1.707724 6.22889,4.809883 l -0.27028,1.29615 -0.71258,2.530871 c -0.72486,2.629157 -1.85515,4.306167 -4.57645,5.221457 l 3.21273,7.217897 -5.22146,0 -2.99773,-6.579036"
         id="path137497"
         style="fill:#a7012d" />
      <path
         d="m 176.49649,72.804265 -4.68088,0 4.79759,-16.960521 -5.7006,0 1.17329,-4.115737 16.07595,0 -1.17329,4.115737 -5.69446,0 -4.7976,16.960521"
         id="path137501"
         style="fill:#a7012d" />
    </g>
  </g>
  <g
     transform="matrix(0.44,0,0,0.44,-115.98284,-388.32994)"
     id="sterne">
    <path
       d="m 290.45585,898.3573 -2.24103,-1.60316 -3.49974,1.59891 2.17299,-2.55571 -2.17299,-1.55213 3.49974,0 2.24103,-2.628 0,2.628 3.21908,0 -3.21908,1.47984 0,2.63225"
       id="path4269-1"
       style="fill:#b3b5b7" />
    <path
       d="m 300.86153,892.17002 -2.24103,-1.60316 -3.49974,1.59891 2.17724,-2.55571 -2.17724,-1.55213 3.49974,0 2.24103,-2.628 0,2.628 3.21908,0 -3.21908,1.47984 0,2.63225"
       id="path4273-3"
       style="fill:#b3b5b7" />
    <path
       d="m 312.42812,889.30814 -2.24103,-1.60316 -3.49974,1.59891 2.17299,-2.55571 -2.17299,-1.55213 3.49974,0 2.24103,-2.628 0,2.628 3.21908,0 -3.21908,1.47984 0,2.63225"
       id="path4277-0"
       style="fill:#b3b5b7" />
    <path
       d="m 322.99114,892.17427 -2.24103,-1.60316 -3.49974,1.59891 2.17724,-2.55571 -2.17724,-1.55213 3.49974,0 2.24103,-2.628 0,2.628 3.21908,0 -3.21908,1.47984 0,2.63225"
       id="path4281-9"
       style="fill:#b3b5b7" />
    <path
       d="m 330.24152,898.35304 -2.24103,-1.60316 -3.49974,1.59891 2.17724,-2.55571 -2.17724,-1.55213 3.49974,0 2.24103,-2.628 0,2.628 3.21908,0 -3.21908,1.47984 0,2.63225"
       id="path4285-1"
       style="fill:#b3b5b7" />
    <path
       d="m 280.82836,923.53165 -2.24103,-1.60316 -3.49974,1.59891 2.17724,-2.55571 -2.17724,-1.55213 3.49974,0 2.24103,-2.628 0,2.628 3.21908,0 -3.21908,1.47984 0,2.63225"
       id="path4297-2"
       style="fill:#b3b5b7" />
    <path
       d="m 287.95117,930.16968 -2.24103,-1.60316 -3.49974,1.59891 2.17299,-2.55571 -2.17299,-1.55213 3.49974,0 2.24103,-2.628 0,2.628 3.21908,0 -3.21908,1.47984 0,2.63225"
       id="path4305-2"
       style="fill:#b3b5b7" />
  </g>
  <g
     transform="matrix(0.18057325,0,0,0.18057325,-0.18057457,-0.1731708)"
     id="360">
    <path
       d="m 86.128185,78.689154 98.986535,0 -9.31262,32.778466 -98.900536,0 9.226621,-32.778466"
       id="path137533"
       style="fill:url(#linearGradient3357);stroke:none" />
    <g
       id="g3359">
      <path
         d="m 115.46712,93.997238 c 2.01487,0 2.73973,-0.565146 3.12059,-1.953439 l 0.35629,-1.290007 c 0.36243,-1.326865 -0.129,-1.609438 -2.11316,-1.609438 -1.38829,0 -2.81344,0.159716 -4.46588,0.442289 l 0.50372,-3.562877 c 1.89815,-0.374716 3.52602,-0.565146 5.38117,-0.565146 5.26446,0 6.24732,1.578723 5.38117,4.723883 l -0.40543,1.480437 c -0.50986,1.861295 -1.52958,3.280303 -3.25573,4.189451 1.54186,0.792433 1.96572,1.89201 1.42515,3.876164 l -0.44229,1.609435 c -0.84772,3.08373 -2.8503,5.0986 -8.58162,5.0986 -1.92272,0 -3.48916,-0.15357 -4.97574,-0.69415 l 1.4313,-3.4953 c 1.462,0.28257 2.59844,0.41157 4.42288,0.41157 2.20529,0 2.92401,-0.44228 3.26187,-1.67086 l 0.39929,-1.449725 c 0.31943,-1.161006 -0.27029,-1.664723 -1.84287,-1.664723 l -4.15873,0 1.06272,-3.876164 3.4953,0"
         id="path137537"
         style="fill:#430308" />
      <path
         d="m 133.09722,100.57627 0.38086,-1.38215 c 0.35014,-1.290007 -0.29486,-1.57258 -1.11186,-1.57258 -1.03815,0 -2.01487,0.215001 -2.86873,0.565146 l -0.65115,2.389584 c -0.39929,1.44972 -0.0676,1.95344 1.57258,1.95344 1.64015,0 2.30358,-0.59586 2.6783,-1.95344 z m -8.72905,-0.215 2.10701,-7.6909 c 1.56644,-5.700603 5.85418,-7.211754 11.65307,-7.211754 0.91529,0 2.05172,0.09829 3.01616,0.251859 l -1.33301,3.716449 c -0.63886,-0.09214 -1.62787,-0.153573 -2.10087,-0.153573 -4.22017,0 -5.97089,0.755576 -6.68961,3.366304 l -0.42386,1.548009 c 1.22858,-0.350145 2.30359,-0.473003 3.59359,-0.473003 3.53217,0 4.90817,1.511151 3.87617,5.289029 l -0.37472,1.35758 c -0.86615,3.14516 -2.89944,6.07532 -8.34819,6.07532 -5.44874,0 -5.88489,-2.77045 -4.97574,-6.07532"
         id="path137541"
         style="fill:#430308" />
      <path
         d="m 145.41347,100.23227 c -0.43615,1.57258 -0.17814,2.23601 1.80601,2.23601 1.9903,0 2.61073,-0.66343 3.04073,-2.23601 l 2.35273,-8.569332 c 0.43,-1.57258 0.172,-2.236013 -1.81215,-2.236013 -1.98416,0 -2.60459,0.663433 -3.04074,2.236013 l -2.34658,8.569332 z m 9.20819,0.63272 c -0.86,3.14516 -3.16359,5.5716 -8.48947,5.5716 -5.31975,0 -6.29646,-2.42644 -5.43032,-5.5716 l 2.69673,-9.828627 c 0.86615,-3.151303 3.16973,-5.577745 8.48948,-5.577745 5.32588,0 6.29646,2.426442 5.43031,5.577745 l -2.69673,9.828627"
         id="path137545"
         style="fill:#430308" />
      <path
         d="m 113.99872,93.505807 c 2.01487,0 2.73973,-0.565146 3.12059,-1.953439 l 0.35629,-1.290007 c 0.36243,-1.320722 -0.129,-1.603295 -2.11316,-1.603295 -1.38215,0 -2.81344,0.153573 -4.46588,0.436146 l 0.50372,-3.556734 c 1.89815,-0.380859 3.52602,-0.571289 5.38731,-0.571289 5.25832,0 6.24118,1.578723 5.37503,4.730026 l -0.40543,1.480436 c -0.50986,1.855153 -1.52958,3.274161 -3.25573,4.189452 1.54801,0.78629 1.96572,1.885867 1.42515,3.870021 l -0.44229,1.609436 c -0.84772,3.08373 -2.8503,5.10474 -8.58162,5.10474 -1.92272,0 -3.48916,-0.15971 -4.97574,-0.69414 l 1.4313,-3.49531 c 1.46815,0.28257 2.59844,0.40543 4.42288,0.40543 2.20529,0 2.92401,-0.44229 3.26187,-1.67086 l 0.39929,-1.443583 c 0.31943,-1.167149 -0.27029,-1.670866 -1.84287,-1.670866 l -4.15873,0 1.06272,-3.876164 3.4953,0"
         id="path137549"
         style="fill:#ffffff" />
      <path
         d="m 131.62882,100.09099 0.38086,-1.388293 c 0.35629,-1.290007 -0.29486,-1.57258 -1.11186,-1.57258 -1.03815,0 -2.01487,0.221144 -2.86259,0.565146 l -0.65729,2.395727 c -0.39929,1.44972 -0.0676,1.95344 1.57258,1.95344 1.64015,0 2.30358,-0.602 2.6783,-1.95344 z m -8.72905,-0.221144 2.10701,-7.684756 c 1.56644,-5.700603 5.85418,-7.217897 11.65307,-7.217897 0.91529,0 2.05172,0.09829 3.01616,0.251859 l -1.33301,3.722592 c -0.63886,-0.09829 -1.62787,-0.159716 -2.10087,-0.159716 -4.22017,0 -5.97089,0.755576 -6.68961,3.372447 l -0.42386,1.541866 c 1.22858,-0.344002 2.30359,-0.473003 3.59359,-0.473003 3.53217,0 4.91432,1.511151 3.87617,5.289029 l -0.37472,1.357579 c -0.86615,3.151304 -2.8933,6.081464 -8.34204,6.081464 -5.45489,0 -5.89104,-2.77659 -4.98189,-6.081464"
         id="path137553"
         style="fill:#ffffff" />
      <path
         d="m 143.94556,99.746983 c -0.43615,1.572577 -0.17814,2.236017 1.81215,2.236017 1.98416,0 2.60459,-0.66344 3.03459,-2.236017 l 2.35273,-8.569332 c 0.43,-1.578723 0.172,-2.236013 -1.81215,-2.236013 -1.98416,0 -2.60459,0.65729 -3.04074,2.236013 l -2.34658,8.569332 z m 9.21434,0.626577 c -0.86615,3.1513 -3.16974,5.57774 -8.49562,5.57774 -5.31975,0 -6.29646,-2.42644 -5.43032,-5.57774 l 2.69673,-9.828627 c 0.86615,-3.151303 3.16973,-5.577745 8.48948,-5.577745 5.32588,0 6.29646,2.426442 5.43645,5.577745 l -2.69672,9.828627"
         id="path137557"
         style="fill:#ffffff" />
    </g>
  </g>
  <g
     transform="matrix(0.18057325,0,0,0.18057325,-0.18057457,-0.1731708)"
     id="hd">
    <path
       d="m 237.63644,52.299296 c 3.10216,0 4.02974,0.982862 3.83931,2.758158 l -0.28872,1.326864 -3.33559,11.812779 c -0.71872,2.604585 -1.57258,4.085022 -5.46103,4.085022 l -5.01874,0 5.15389,-18.103098 -2.63531,-1.879725 7.74619,0 z m 2.5063,-6.400892 -12.50078,0 -9.32491,32.778464 13.3915,0 c 9.39862,0 11.61621,-4.134165 12.81407,-8.45876 l 4.11574,-14.47265 c 0.15971,-0.595861 0.27643,-1.228578 0.33786,-1.824439 0.44843,-4.134165 -1.74458,-8.022615 -8.83348,-8.022615"
       id="path137433"
       style="fill:#bdc0c2" />
    <path
       d="m 210.68782,65.389796 -3.74102,13.287072 7.23632,0 9.27577,-32.778464 -7.23633,0 -3.72259,13.139643 -10.47977,0 3.72259,-13.139643 -7.23632,0 -9.27577,32.778464 7.23633,0 3.16973,-11.266061 -2.83802,-2.021011 13.88908,0"
       id="path137437"
       style="fill:#bdc0c2" />
  </g>
  <g
     id="nummer_source_sance_pro">
    <path
       style="fill:#bdc0c2"
       d="m 36.793187,18.360851 c 0.328395,0.463272 0.756482,0.668519 1.219753,0.668519 0.768209,0 1.501235,-0.562964 1.501235,-1.477778 0,-0.650925 -0.428087,-0.985185 -0.99105,-0.985185 -0.129012,0 -0.240432,0.02346 -0.357716,0.07623 l 0.205247,-0.733025 1.307716,0 0.134877,-0.674383 -2.005556,0 -0.457407,1.853087 0.299074,0.246296 c 0.25216,-0.140741 0.351852,-0.170062 0.54537,-0.170062 0.316666,0 0.510185,0.170062 0.510185,0.51605 0,0.439814 -0.316667,0.703703 -0.674383,0.703703 -0.304937,0 -0.539506,-0.170062 -0.733024,-0.43395 l -0.504321,0.410493"
       id="path3447" />
  </g>
</svg>
