<?xml version="1.0" encoding="UTF-8" standalone="no"?>
<!-- Created with Inkscape (http://www.inkscape.org/) -->

<svg
   xmlns="http://www.w3.org/2000/svg"
   xmlns:xlink="http://www.w3.org/1999/xlink"
   version="1.1"
   width="100%"
   height="100%"
   viewBox="0 0 45 22"
   id="svg193031">
  <defs
     id="defs193033">
    <linearGradient
       x1="0"
       y1="0"
       x2="1"
       y2="0"
       id="linearGradient137527"
       gradientUnits="userSpaceOnUse"
       gradientTransform="matrix(-10.643,10.643,10.643,10.643,973.833,99.445)"
       spreadMethod="pad">
      <stop
         id="stop137529"
         style="stop-color:#a21332;stop-opacity:1"
         offset="0" />
      <stop
         id="stop137531"
         style="stop-color:#000000;stop-opacity:1"
         offset="1" />
    </linearGradient>
    <linearGradient
       x1="0"
       y1="0"
       x2="1"
       y2="0"
       id="linearGradient137455"
       gradientUnits="userSpaceOnUse"
       gradientTransform="matrix(-6.1763,-12.616,-12.616,6.1763,959.417,115.387)"
       spreadMethod="pad">
      <stop
         id="stop137457"
         style="stop-color:#284985;stop-opacity:1"
         offset="0" />
      <stop
         id="stop137459"
         style="stop-color:#00030b;stop-opacity:1"
         offset="1" />
    </linearGradient>
    <linearGradient
       xlink:href="#linearGradient137455"
       id="linearGradient3352"
       gradientUnits="userSpaceOnUse"
       gradientTransform="matrix(-37.940335,77.498708,-77.498708,-37.940335,67.736371,22.432562)"
       spreadMethod="pad"
       x1="0"
       y1="0"
       x2="1"
       y2="0" />
    <linearGradient
       xlink:href="#linearGradient137527"
       id="linearGradient3357"
       gradientUnits="userSpaceOnUse"
       gradientTransform="matrix(-65.378785,-65.378785,65.378785,-65.378785,156.29228,120.36252)"
       spreadMethod="pad"
       x1="0"
       y1="0"
       x2="1"
       y2="0" />
  </defs>
  <g
     id="euro"
     transform="matrix(0.18057325,0,0,0.18057325,-0.18057457,-0.1731708)">
    <path
       style="fill:url(#linearGradient3352);stroke:none"
       id="path137461"
       d="m 10.306487,45.904547 85.029891,0 -9.208193,32.778465 -85.1281777,0 9.3064797,-32.778465" />
    <g
       id="g3377">
      <path
         style="fill:#ffffff"
         id="path137469"
         d="m 14.662285,51.728007 13.256358,0 -1.167149,4.115737 -8.60619,0 -1.130292,4.01745 7.942758,0 -1.16715,4.07888 -7.942757,0 -1.363722,4.748454 8.612333,0 -1.136435,4.115737 -13.2625008,0 5.9647468,-21.076258" />
      <path
         style="fill:#ffffff"
         id="path137473"
         d="m 27.433109,67.773238 0.208858,-1.075006 4.232452,-14.970224 4.650168,0 -4.066593,14.337506 -0.202716,0.97672 c -0.135143,1.265435 0.454574,1.965725 2.672158,1.965725 2.53087,0 3.556733,-1.013577 4.06045,-2.752015 l 4.12188,-14.527936 4.650168,0 -4.232452,14.970224 c -1.013577,3.544448 -3.089874,6.425464 -9.515337,6.425464 -5.098599,0 -6.880038,-2.567729 -6.579036,-5.350458" />
      <path
         style="fill:#ffffff"
         id="path137477"
         d="m 61.176253,58.245614 0.19043,-0.884576 c 0.116715,-1.075006 -0.503717,-1.517294 -2.113155,-1.517294 l -3.863878,0 -1.787581,6.357892 3.986736,0 c 2.057868,0 2.672157,-0.755576 3.132874,-2.371156 l 0.454574,-1.584866 z m -5.540887,7.979615 -3.194303,0 -1.842868,6.579036 -4.650168,0 5.958604,-21.076258 8.071758,0 c 4.527311,0 6.554465,1.707724 6.222749,4.809883 l -0.264145,1.29615 -0.712575,2.530871 c -0.724861,2.629157 -1.855153,4.306167 -4.582596,5.221457 l 3.212731,7.217897 -5.221457,0 -2.99773,-6.579036" />
      <path
         style="fill:#ffffff"
         id="path137481"
         d="m 81.65665,57.612897 c 0.141286,-1.29615 -0.632718,-2.088583 -2.881016,-2.088583 -2.40187,0 -3.777877,1.044292 -4.275452,2.721301 l -2.285155,8.041044 -0.141286,0.724861 c -0.135144,1.265435 0.608146,1.996439 2.887158,1.996439 2.40187,0 3.765592,-0.915291 4.275452,-2.7213 l 2.291298,-8.041044 0.129001,-0.632718 z m -14.355935,9.908483 0.202715,-0.982863 2.451013,-8.704476 c 1.118006,-3.919164 3.790164,-6.419321 9.742625,-6.419321 5.000313,0 7.03361,2.844159 6.726465,5.725174 l -0.196572,0.952148 -2.444871,8.60619 c -1.124149,4.017451 -3.759449,6.425464 -9.994483,6.425464 -4.963455,0 -6.794037,-2.758158 -6.486892,-5.602316" />
    </g>
  </g>
  <g
     id="sport"
     transform="matrix(0.18057325,0,0,0.18057325,-0.18057457,-0.1731708)">
    <path
       d="m 95.330725,45.904547 99.090965,0 -9.31262,32.778464 -98.986538,0 9.208193,-32.778464"
       id="path137465"
       style="fill:#ffffff" />
    <g
       id="g3395">
      <path
         style="fill:#a7012d"
         id="path137485"
         d="m 92.818037,71.729259 1.394436,-3.575162 c 1.959582,0.602003 3.587448,1.044291 5.614602,1.044291 2.469445,0 3.089875,-0.473003 3.605875,-2.309727 l 0.24572,-1.10572 c 0.0983,-0.952148 -0.50372,-1.204007 -2.99773,-1.873582 -3.41545,-0.884576 -4.582599,-2.119297 -4.318455,-4.588739 0.06757,-0.663432 0.245716,-1.419008 0.497574,-2.27287 1.419008,-4.687025 2.788872,-5.63303 8.514051,-5.63303 1.61558,0 4.23859,0.344002 6.05074,0.823147 l -1.24086,3.88845 c -1.8183,-0.442288 -4.18945,-0.724861 -5.6146,-0.724861 -2.27902,0 -2.75816,0.313287 -3.21888,1.990296 l -0.25186,1.142578 c -0.11057,1.013577 0.50986,1.167149 2.90559,1.799867 3.82088,0.982862 4.76688,2.186869 4.5396,4.336881 -0.0737,0.663432 -0.24572,1.394436 -0.49758,2.248298 -1.22243,4.33688 -2.94244,6.204319 -8.925617,6.204319 -1.738438,0 -4.742312,-0.602003 -6.302606,-1.394436" />
      <path
         style="fill:#a7012d"
         id="path137489"
         d="m 125.04364,58.343901 0.19043,-0.915291 c 0.11671,-1.081148 -0.46072,-1.584865 -1.88587,-1.584865 l -3.91916,0 -1.84287,6.517606 3.83316,0 c 2.15002,0 2.70288,-0.761718 3.15745,-2.340441 l 0.46686,-1.677009 z m -8.61233,8.034901 -1.83058,6.425463 -4.65017,0 5.9586,-21.076257 8.04105,0 c 4.52731,0 6.52375,1.738438 6.19817,4.748454 l -0.36243,1.61558 -0.66343,2.371156 c -1.11801,3.925307 -2.94859,5.915604 -8.51405,5.915604 l -4.17716,0" />
      <path
         style="fill:#a7012d"
         id="path137493"
         d="m 144.61489,57.612897 c 0.14129,-1.29615 -0.62657,-2.088583 -2.87487,-2.088583 -2.40802,0 -3.78402,1.044292 -4.2816,2.721301 l -2.28515,8.041044 -0.14129,0.724861 c -0.13514,1.265435 0.60815,1.996439 2.88716,1.996439 2.40187,0 3.77173,-0.915291 4.28159,-2.7213 l 2.28516,-8.041044 0.129,-0.632718 z m -14.35594,9.908483 0.20272,-0.982863 2.45101,-8.704476 c 1.11801,-3.919164 3.79017,-6.419321 9.74263,-6.419321 5.00031,0 7.03361,2.844159 6.72646,5.725174 l -0.19657,0.952148 -2.44487,8.60619 c -1.12415,4.017451 -3.75945,6.425464 -9.98834,6.425464 -4.9696,0 -6.79404,-2.758158 -6.49304,-5.602316" />
      <path
         style="fill:#a7012d"
         id="path137497"
         d="m 163.88489,58.245614 0.19043,-0.884576 c 0.11671,-1.075006 -0.50372,-1.517294 -2.1193,-1.517294 l -3.85773,0 -1.79373,6.357892 3.98674,0 c 2.05787,0 2.6783,-0.755576 3.13902,-2.371156 l 0.45457,-1.584866 z m -5.54089,7.979615 -3.1943,0 -1.84901,6.579036 -4.65017,0 5.96475,-21.076258 8.06561,0 c 4.52731,0 6.56061,1.707724 6.22889,4.809883 l -0.27028,1.29615 -0.71258,2.530871 c -0.72486,2.629157 -1.85515,4.306167 -4.57645,5.221457 l 3.21273,7.217897 -5.22146,0 -2.99773,-6.579036" />
      <path
         style="fill:#a7012d"
         id="path137501"
         d="m 176.49649,72.804265 -4.68088,0 4.79759,-16.960521 -5.7006,0 1.17329,-4.115737 16.07595,0 -1.17329,4.115737 -5.69446,0 -4.7976,16.960521" />
    </g>
  </g>
  <g
     id="sterne"
     transform="matrix(0.44,0,0,0.44,-115.98284,-388.32994)">
    <path
       id="path4269-1"
       d="m 290.45585,898.3573 -2.24103,-1.60316 -3.49974,1.59891 2.17299,-2.55571 -2.17299,-1.55213 3.49974,0 2.24103,-2.628 0,2.628 3.21908,0 -3.21908,1.47984 0,2.63225"
       style="fill:#b3b5b7" />
    <path
       d="m 300.86153,892.17002 -2.24103,-1.60316 -3.49974,1.59891 2.17724,-2.55571 -2.17724,-1.55213 3.49974,0 2.24103,-2.628 0,2.628 3.21908,0 -3.21908,1.47984 0,2.63225"
       id="path4273-3"
       style="fill:#b3b5b7" />
    <path
       id="path4277-0"
       d="m 312.42812,889.30814 -2.24103,-1.60316 -3.49974,1.59891 2.17299,-2.55571 -2.17299,-1.55213 3.49974,0 2.24103,-2.628 0,2.628 3.21908,0 -3.21908,1.47984 0,2.63225"
       style="fill:#b3b5b7" />
    <path
       d="m 322.99114,892.17427 -2.24103,-1.60316 -3.49974,1.59891 2.17724,-2.55571 -2.17724,-1.55213 3.49974,0 2.24103,-2.628 0,2.628 3.21908,0 -3.21908,1.47984 0,2.63225"
       id="path4281-9"
       style="fill:#b3b5b7" />
    <path
       id="path4285-1"
       d="m 330.24152,898.35304 -2.24103,-1.60316 -3.49974,1.59891 2.17724,-2.55571 -2.17724,-1.55213 3.49974,0 2.24103,-2.628 0,2.628 3.21908,0 -3.21908,1.47984 0,2.63225"
       style="fill:#b3b5b7" />
    <path
       d="m 320.75011,923.52314 -2.24103,-1.60316 -3.49974,1.59891 2.17724,-2.55571 -2.17724,-1.55213 3.49974,0 2.24103,-2.628 0,2.628 3.21908,0 -3.21908,1.47984 0,2.63225"
       id="path4289-9"
       style="fill:#b3b5b7" />
    <path
       id="path4293-4"
       d="m 298.6205,932.56805 -2.24103,-1.60316 -3.49974,1.59891 2.17724,-2.55571 -2.17724,-1.55213 3.49974,0 2.24103,-2.628 0,2.628 3.21908,0 -3.21908,1.47984 0,2.63225"
       style="fill:#b3b5b7" />
    <path
       d="m 280.82836,923.53165 -2.24103,-1.60316 -3.49974,1.59891 2.17724,-2.55571 -2.17724,-1.55213 3.49974,0 2.24103,-2.628 0,2.628 3.21908,0 -3.21908,1.47984 0,2.63225"
       id="path4297-2"
       style="fill:#b3b5b7" />
    <path
       id="path4301-5"
       d="m 310.1956,930.16968 -2.24103,-1.60316 -3.49974,1.59891 2.17299,-2.55571 -2.17299,-1.55213 3.49974,0 2.24103,-2.628 0,2.628 3.21908,0 -3.21908,1.47984 0,2.63225"
       style="fill:#b3b5b7" />
    <path
       d="m 287.95117,930.16968 -2.24103,-1.60316 -3.49974,1.59891 2.17299,-2.55571 -2.17299,-1.55213 3.49974,0 2.24103,-2.628 0,2.628 3.21908,0 -3.21908,1.47984 0,2.63225"
       id="path4305-2"
       style="fill:#b3b5b7" />
  </g>
  <g
     id="hd"
     transform="matrix(0.18057325,0,0,0.18057325,-0.18057457,-0.1731708)">
    <path
       d="m 237.63644,52.299296 c 3.10216,0 4.02974,0.982862 3.83931,2.758158 l -0.28872,1.326864 -3.33559,11.812779 c -0.71872,2.604585 -1.57258,4.085022 -5.46103,4.085022 l -5.01874,0 5.15389,-18.103098 -2.63531,-1.879725 7.74619,0 z m 2.5063,-6.400892 -12.50078,0 -9.32491,32.778464 13.3915,0 c 9.39862,0 11.61621,-4.134165 12.81407,-8.45876 l 4.11574,-14.47265 c 0.15971,-0.595861 0.27643,-1.228578 0.33786,-1.824439 0.44843,-4.134165 -1.74458,-8.022615 -8.83348,-8.022615"
       id="path137433"
       style="fill:#bdc0c2" />
    <path
       d="m 210.68782,65.389796 -3.74102,13.287072 7.23632,0 9.27577,-32.778464 -7.23633,0 -3.72259,13.139643 -10.47977,0 3.72259,-13.139643 -7.23632,0 -9.27577,32.778464 7.23633,0 3.16973,-11.266061 -2.83802,-2.021011 13.88908,0"
       id="path137437"
       style="fill:#bdc0c2" />
  </g>
</svg>
