<?xml version="1.0" encoding="UTF-8" standalone="no"?>
<!-- Created with Inkscape (http://www.inkscape.org/) -->

<svg
   xmlns="http://www.w3.org/2000/svg"
   xmlns:xlink="http://www.w3.org/1999/xlink"
   version="1.0"
   width="100%"
   height="100%"
   viewBox="0 0 26 22"
   id="svg3707">
  <defs
     id="defs3709">
    <linearGradient
       x1="432.09375"
       y1="414.89679"
       x2="1052.0938"
       y2="414.89679"
       id="linearGradient3533"
       xlink:href="#linearGradient3447"
       gradientUnits="userSpaceOnUse" />
    <linearGradient
       x1="432.09375"
       y1="414.89679"
       x2="1052.0938"
       y2="414.89679"
       id="linearGradient3531"
       xlink:href="#linearGradient3447"
       gradientUnits="userSpaceOnUse" />
    <linearGradient
       x1="432.09375"
       y1="414.89679"
       x2="1052.0938"
       y2="414.89679"
       id="linearGradient3529"
       xlink:href="#linearGradient3447"
       gradientUnits="userSpaceOnUse" />
    <linearGradient
       x1="432.09375"
       y1="414.89679"
       x2="1052.0938"
       y2="414.89679"
       id="linearGradient3527"
       xlink:href="#linearGradient3447"
       gradientUnits="userSpaceOnUse" />
    <linearGradient
       x1="432.09375"
       y1="414.89679"
       x2="1052.0938"
       y2="414.89679"
       id="linearGradient3525"
       xlink:href="#linearGradient3447"
       gradientUnits="userSpaceOnUse" />
    <linearGradient
       x1="432.09375"
       y1="414.89679"
       x2="1052.0938"
       y2="414.89679"
       id="linearGradient3523"
       xlink:href="#linearGradient3447"
       gradientUnits="userSpaceOnUse" />
    <linearGradient
       x1="432.09375"
       y1="414.89679"
       x2="1052.0938"
       y2="414.89679"
       id="linearGradient3521"
       xlink:href="#linearGradient3447"
       gradientUnits="userSpaceOnUse" />
    <linearGradient
       x1="432.09375"
       y1="414.89679"
       x2="1052.0938"
       y2="414.89679"
       id="linearGradient3519"
       xlink:href="#linearGradient3447"
       gradientUnits="userSpaceOnUse" />
    <linearGradient
       x1="432.09375"
       y1="414.89679"
       x2="1052.0938"
       y2="414.89679"
       id="linearGradient3517"
       xlink:href="#linearGradient3447"
       gradientUnits="userSpaceOnUse" />
    <linearGradient
       x1="432.09375"
       y1="414.89679"
       x2="1052.0938"
       y2="414.89679"
       id="linearGradient3515"
       xlink:href="#linearGradient3447"
       gradientUnits="userSpaceOnUse" />
    <linearGradient
       x1="432.09375"
       y1="414.89679"
       x2="1052.0938"
       y2="414.89679"
       id="linearGradient3513"
       xlink:href="#linearGradient3447"
       gradientUnits="userSpaceOnUse" />
    <linearGradient
       x1="432.09375"
       y1="414.89679"
       x2="1052.0938"
       y2="414.89679"
       id="linearGradient3511"
       xlink:href="#linearGradient3447"
       gradientUnits="userSpaceOnUse" />
    <linearGradient
       id="linearGradient3447">
      <stop
         id="stop3449"
         style="stop-color:#e3bb30;stop-opacity:1"
         offset="0" />
      <stop
         id="stop3455"
         style="stop-color:#fefddf;stop-opacity:1"
         offset="0.5" />
      <stop
         id="stop3451"
         style="stop-color:#e3bb30;stop-opacity:1"
         offset="1" />
    </linearGradient>
    <linearGradient
       x1="432.09375"
       y1="414.89679"
       x2="1052.0938"
       y2="414.89679"
       id="linearGradient3535"
       xlink:href="#linearGradient3447"
       gradientUnits="userSpaceOnUse" />
    <linearGradient
       id="linearGradient3318">
      <stop
         id="stop3320"
         style="stop-color:#1d3517;stop-opacity:1"
         offset="0" />
      <stop
         id="stop3322"
         style="stop-color:#2e4323;stop-opacity:1"
         offset="1" />
    </linearGradient>
    <linearGradient
       x1="1028.7125"
       y1="889.54401"
       x2="1052.8588"
       y2="887.18726"
       id="linearGradient3359"
       xlink:href="#linearGradient3318"
       gradientUnits="userSpaceOnUse" />
    <linearGradient
       id="linearGradient3304">
      <stop
         id="stop3306"
         style="stop-color:#2c5113;stop-opacity:1"
         offset="0" />
      <stop
         id="stop3308"
         style="stop-color:#2f3521;stop-opacity:1"
         offset="1" />
    </linearGradient>
    <linearGradient
       x1="482.49744"
       y1="894.71649"
       x2="466.71268"
       y2="892.21686"
       id="linearGradient3357"
       xlink:href="#linearGradient3304"
       gradientUnits="userSpaceOnUse" />
    <linearGradient
       id="linearGradient3288">
      <stop
         id="stop3290"
         style="stop-color:#3d5c20;stop-opacity:1"
         offset="0" />
      <stop
         id="stop3292"
         style="stop-color:#152b16;stop-opacity:1"
         offset="1" />
    </linearGradient>
    <linearGradient
       x1="1001.9419"
       y1="779.06366"
       x2="971.64124"
       y2="772.62262"
       id="linearGradient3355"
       xlink:href="#linearGradient3288"
       gradientUnits="userSpaceOnUse"
       gradientTransform="translate(22.499395,100.07998)" />
    <linearGradient
       id="linearGradient2454">
      <stop
         id="stop2456"
         style="stop-color:#112d17;stop-opacity:1"
         offset="0" />
      <stop
         id="stop3232"
         style="stop-color:#3f6220;stop-opacity:1"
         offset="0.5" />
      <stop
         id="stop2458"
         style="stop-color:#112d17;stop-opacity:1"
         offset="1" />
    </linearGradient>
    <linearGradient
       x1="472.69034"
       y1="777.71698"
       x2="509.72446"
       y2="765.59674"
       id="linearGradient3353"
       xlink:href="#linearGradient2454"
       gradientUnits="userSpaceOnUse"
       gradientTransform="translate(21.547137,102.93675)" />
    <linearGradient
       id="linearGradient3293">
      <stop
         id="stop3301"
         style="stop-color:#b1d92a;stop-opacity:1"
         offset="0" />
      <stop
         id="stop3582"
         style="stop-color:#77a521;stop-opacity:1"
         offset="0.25" />
      <stop
         id="stop3307"
         style="stop-color:#3d7219;stop-opacity:1"
         offset="0.5" />
      <stop
         id="stop3305"
         style="stop-color:#090b08;stop-opacity:1"
         offset="1" />
    </linearGradient>
    <radialGradient
       cx="-69.505356"
       cy="500.74188"
       r="362.05609"
       fx="-69.505356"
       fy="500.74188"
       id="radialGradient3351"
       xlink:href="#linearGradient3293"
       gradientUnits="userSpaceOnUse"
       gradientTransform="matrix(0.8724913,0.7815133,-0.597412,0.6669574,358.58822,-38.466218)" />
    <linearGradient
       id="linearGradient3584">
      <stop
         id="stop3586"
         style="stop-color:#222612;stop-opacity:1"
         offset="0" />
      <stop
         id="stop3588"
         style="stop-color:#383f2b;stop-opacity:1"
         offset="0.24596775" />
      <stop
         id="stop3590"
         style="stop-color:#52aa17;stop-opacity:1"
         offset="0.58856738" />
      <stop
         id="stop3594"
         style="stop-color:#77b34f;stop-opacity:1"
         offset="0.71600229" />
      <stop
         id="stop3592"
         style="stop-color:#2e4323;stop-opacity:1"
         offset="1" />
    </linearGradient>
    <linearGradient
       x1="-329.27789"
       y1="316.04929"
       x2="125.03961"
       y2="291.80878"
       id="linearGradient3349"
       xlink:href="#linearGradient3584"
       gradientUnits="userSpaceOnUse" />
    <linearGradient
       id="linearGradient2478">
      <stop
         id="stop2480"
         style="stop-color:#658f23;stop-opacity:1"
         offset="0" />
      <stop
         id="stop2482"
         style="stop-color:#183217;stop-opacity:1"
         offset="1" />
    </linearGradient>
    <linearGradient
       x1="1362.9824"
       y1="702.49445"
       x2="1319.8295"
       y2="640.90076"
       id="linearGradient3347"
       xlink:href="#linearGradient2478"
       gradientUnits="userSpaceOnUse" />
    <linearGradient
       id="linearGradient3260">
      <stop
         id="stop3262"
         style="stop-color:#324c1c;stop-opacity:1"
         offset="0" />
      <stop
         id="stop3264"
         style="stop-color:#193116;stop-opacity:1"
         offset="1" />
    </linearGradient>
    <linearGradient
       x1="1367.4424"
       y1="722.49182"
       x2="1236.0309"
       y2="599.65057"
       id="linearGradient3345"
       xlink:href="#linearGradient3260"
       gradientUnits="userSpaceOnUse" />
    <linearGradient
       id="linearGradient3642">
      <stop
         id="stop3644"
         style="stop-color:#b1d92a;stop-opacity:1"
         offset="0" />
      <stop
         id="stop3646"
         style="stop-color:#77a521;stop-opacity:1"
         offset="0.25" />
      <stop
         id="stop3648"
         style="stop-color:#3d7219;stop-opacity:1"
         offset="0.48742032" />
      <stop
         id="stop3650"
         style="stop-color:#090b08;stop-opacity:1"
         offset="1" />
    </linearGradient>
    <linearGradient
       x1="307.12741"
       y1="739.05048"
       x2="431.37341"
       y2="550.8465"
       id="linearGradient3343"
       xlink:href="#linearGradient3642"
       gradientUnits="userSpaceOnUse"
       gradientTransform="translate(-138.7097,-100.32885)" />
    <linearGradient
       id="linearGradient3614">
      <stop
         id="stop3616"
         style="stop-color:#b1d92a;stop-opacity:1"
         offset="0" />
      <stop
         id="stop3618"
         style="stop-color:#77a521;stop-opacity:1"
         offset="0.15031765" />
      <stop
         id="stop3620"
         style="stop-color:#3d7219;stop-opacity:1"
         offset="0.15031765" />
      <stop
         id="stop3622"
         style="stop-color:#090b08;stop-opacity:1"
         offset="1" />
    </linearGradient>
    <linearGradient
       x1="-78.47139"
       y1="1110.1821"
       x2="169.2851"
       y2="763.04083"
       id="linearGradient3341"
       xlink:href="#linearGradient3614"
       gradientUnits="userSpaceOnUse"
       gradientTransform="translate(238.9887,-444.03932)" />
    <linearGradient
       x1="752.28375"
       y1="604.9931"
       x2="756.09277"
       y2="526.80286"
       id="linearGradient3651"
       xlink:href="#linearGradient3577"
       gradientUnits="userSpaceOnUse" />
    <linearGradient
       x1="752.28375"
       y1="604.9931"
       x2="756.09277"
       y2="526.80286"
       id="linearGradient3649"
       xlink:href="#linearGradient3577"
       gradientUnits="userSpaceOnUse" />
    <linearGradient
       id="linearGradient3577">
      <stop
         id="stop3579"
         style="stop-color:#d0cee6;stop-opacity:1"
         offset="0" />
      <stop
         id="stop3581"
         style="stop-color:#ffffff;stop-opacity:1"
         offset="1" />
    </linearGradient>
    <linearGradient
       x1="752.28375"
       y1="604.9931"
       x2="756.09277"
       y2="526.80286"
       id="linearGradient3583"
       xlink:href="#linearGradient3577"
       gradientUnits="userSpaceOnUse" />
    <linearGradient
       id="linearGradient3547">
      <stop
         id="stop3549"
         style="stop-color:#343273;stop-opacity:1"
         offset="0" />
      <stop
         id="stop3551"
         style="stop-color:#c9c9e3;stop-opacity:1"
         offset="1" />
    </linearGradient>
    <linearGradient
       x1="802.22821"
       y1="192.96378"
       x2="790.12775"
       y2="-80.583725"
       id="linearGradient3565"
       xlink:href="#linearGradient3547"
       gradientUnits="userSpaceOnUse"
       gradientTransform="translate(5.161562,493.21753)" />
    <radialGradient
       cx="758.83038"
       cy="659.32422"
       r="367.39066"
       fx="758.83038"
       fy="659.32422"
       id="radialGradient3637"
       xlink:href="#linearGradient3629"
       gradientUnits="userSpaceOnUse"
       gradientTransform="matrix(0.5990326,-2.5823104e-7,2.2436387e-7,0.5210371,322.10582,255.45394)" />
    <radialGradient
       cx="758.83051"
       cy="633.47778"
       r="367.39066"
       fx="758.83051"
       fy="633.47778"
       id="radialGradient3641"
       xlink:href="#linearGradient3629"
       gradientUnits="userSpaceOnUse"
       gradientTransform="matrix(0.6261119,0.00733118,-0.00714522,0.6102302,306.08367,193.3888)" />
    <linearGradient
       id="linearGradient3629">
      <stop
         id="stop3631"
         style="stop-color:#b2241e;stop-opacity:1"
         offset="0" />
      <stop
         id="stop3633"
         style="stop-color:#b2241e;stop-opacity:0"
         offset="1" />
    </linearGradient>
    <radialGradient
       cx="758.83051"
       cy="633.47778"
       r="367.39066"
       fx="758.83051"
       fy="633.47778"
       id="radialGradient3645"
       xlink:href="#linearGradient3629"
       gradientUnits="userSpaceOnUse"
       gradientTransform="matrix(0.7067544,-5.3455798e-8,5.4475724e-8,0.7202391,240.36328,129.26375)" />
  </defs>
  <g
     transform="matrix(0.02860824,0,0,0.02860824,-8.7386276,-7.0231852)"
     id="g3653">
    <path
       d="m 776.68574,245.49508 c -202.8005,0 -367.4063,164.60573 -367.4063,367.40625 0,75.84905 23.0339,146.35863 62.4688,204.90625 l 178.625,-72.78125 251.8437,-4.03125 180.34376,75.375 c 38.8499,-58.26437 61.5,-128.23561 61.5,-203.46875 0,-202.80052 -164.57446,-367.40626 -367.37496,-367.40625 z"
       id="path3612"
       style="fill:#f4e11a" />
    <path
       d="m 776.68574,245.49508 c -202.8005,0 -367.4063,164.60573 -367.4063,367.40625 0,75.84905 23.0339,146.35863 62.4688,204.90625 l 178.625,-72.78125 251.8437,-4.03125 180.34376,75.375 c 38.8499,-58.26437 61.5,-128.23561 61.5,-203.46875 0,-202.80052 -164.57446,-367.40626 -367.37496,-367.40625 z"
       id="path3643"
       style="fill:url(#radialGradient3645)" />
    <path
       d="m 776.68574,245.49508 c -202.8005,0 -367.4063,164.60573 -367.4063,367.40625 0,75.84905 23.0339,146.35863 62.4688,204.90625 l 178.625,-72.78125 251.8437,-4.03125 180.34376,75.375 c 38.8499,-58.26437 61.5,-128.23561 61.5,-203.46875 0,-202.80052 -164.57446,-367.40626 -367.37496,-367.40625 z"
       id="path3639"
       style="fill:url(#radialGradient3641)" />
    <path
       d="m 776.68574,245.49508 c -202.8005,0 -367.4063,164.60573 -367.4063,367.40625 0,75.84905 23.0339,146.35863 62.4688,204.90625 l 178.625,-72.78125 251.8437,-4.03125 180.34376,75.375 c 38.8499,-58.26437 61.5,-128.23561 61.5,-203.46875 0,-202.80052 -164.57446,-367.40626 -367.37496,-367.40625 z"
       id="path3627"
       style="fill:url(#radialGradient3637)" />
    <g
       transform="translate(-800.95157,1168.9322)"
       id="g2526">
      <path
         d="m 1587.3253,-155.08908 c -3.3423,-1.33093 -2.9078,-5.60276 1.6899,-16.61731 4.5058,-10.79451 3.8984,-11.70066 -3.4834,-5.19643 -3.5259,3.10662 -5.8872,6.50718 -8.7187,12.55531 -3.576,7.63879 -4.1173,8.29463 -6.8451,8.29463 -1.8803,0 -2.962,-0.51733 -2.962,-1.41654 0,-0.7791 1.861,-6.22344 4.1356,-12.09847 2.2746,-5.87497 3.8673,-10.95042 3.5393,-11.2787 -0.8716,-0.87254 -7.1727,4.19144 -9.7852,7.86403 -1.2377,1.73979 -3.4486,6.12449 -4.9132,9.74371 -2.2005,5.43784 -3.168,6.7157 -5.5722,7.35931 -1.6001,0.42837 -3.1951,0.45161 -3.5445,0.0516 -0.3494,-0.39993 1.5899,-7.08066 4.3096,-14.84607 4.5863,-13.09535 5.1732,-14.2052 8.0949,-15.30914 3.7514,-1.41743 5.3921,-0.28733 3.8287,2.637 -1.8223,3.40831 -1.312,3.36887 4.0333,-0.3117 7.899,-5.43892 14.7204,-4.3442 12.2984,1.97374 -0.4783,1.24754 0.8832,0.69549 4.6052,-1.86737 6.1102,-4.20722 11.5368,-4.93472 12.5673,-1.68473 0.374,1.17963 -1.0452,6.12366 -3.5817,12.47702 -2.3107,5.78774 -3.9278,11.23638 -3.5937,12.10813 0.4144,1.08094 1.8939,1.5849 4.6528,1.5849 6.0143,0 5.4646,2.69715 -0.7211,3.53841 -2.6214,0.35646 -5.4435,0.80332 -6.2714,0.99291 -0.8278,0.1896 -2.5211,-0.0598 -3.7628,-0.55427 z m 44.9032,-0.22322 c -3.6534,-1.87661 -3.6704,-6.17186 -0.061,-15.46001 1.6842,-4.33404 3.0642,-8.21905 3.0667,-8.63338 0,-0.41433 -1.35,-0.7533 -3.0056,-0.7533 -3.4819,0 -3.5687,-0.22195 -1.3898,-3.55083 1.0714,-1.63677 2.5546,-2.47573 4.3768,-2.47573 2.4868,0 2.9969,-0.65802 5.2202,-6.73354 2.1912,-5.9882 2.8297,-6.82838 5.7675,-7.59045 1.8169,-0.4713 3.5659,-0.59425 3.8866,-0.27322 0.3207,0.32102 -0.4362,3.39774 -1.6819,6.83715 -3.053,8.42905 -3.0682,8.2203 0.6279,8.57705 1.7936,0.17308 3.2468,0.62506 3.2292,1.00438 -0.091,1.96126 -2.9656,4.08614 -5.923,4.37792 -3.1594,0.31166 -3.4919,0.73608 -6.1594,7.86267 -4.4956,12.01028 -4.0807,13.05746 5.1724,13.05746 6.4448,0 6.9357,2.53979 0.6705,3.4696 -9.9719,1.48001 -11.4113,1.50967 -13.797,0.28423 z m 85.4201,0.18731 c -12.6195,-2.21588 -25.248,-9.21328 -36.4276,-20.18448 -7.8618,-7.71508 -9.5772,-10.87608 -5.9022,-10.87608 1.0724,0 2.5467,-0.85285 3.2761,-1.8953 1.2659,-1.80912 1.85,-1.83321 12.8505,-0.52972 16.8992,2.00234 60.0039,4.03367 61.0678,2.87782 1.8999,-2.06394 10.4565,-29.98437 9.3068,-30.36799 -1.8288,-0.61025 -1.3722,-2.16319 1.8245,-6.20327 2.9936,-3.78363 12.5257,-8.77682 13.5593,-7.10281 0.2871,0.46508 -0.8215,3.84296 -2.4634,7.5064 -2.5525,5.69459 -13.0705,34.95873 -13.0705,36.3658 0,0.2644 1.4285,0.33914 3.1745,0.16606 2.9375,-0.29131 3.3385,-0.80217 5.3703,-6.84351 7.477,-22.23154 19.015,-37.56545 28.2662,-37.56545 5.8562,0 7.7097,3.21186 7.0371,12.19374 -1.194,15.94277 -9.9405,27.65244 -24.7512,33.13651 l -5.4869,2.03176 -1.765,6.90366 c -3.5483,13.87981 -2.7232,14.93912 11.6388,14.93912 12.9498,0 16.1925,-1.23318 17.0301,-6.47644 0.842,-5.2707 6.1967,-12.84031 12.032,-17.00876 3.7091,-2.64962 6.1741,-3.59557 10.2513,-3.934 4.9836,-0.41372 5.4517,-0.26152 6.5384,2.12583 0.9831,2.16005 0.8144,3.26404 -1.0554,6.9014 -2.5531,4.96671 -7.8192,10.71656 -13.2921,14.51308 -2.078,1.44157 -3.5113,3.05367 -3.1847,3.58247 0.3275,0.53051 4.4477,0.82812 9.1921,0.66403 10.6488,-0.36845 11.9208,1.22616 2.8061,3.518 -9.3769,2.35771 -15.5978,2.14505 -19.7535,-0.6753 l -3.4094,-2.31399 -7.5257,2.38483 c -9.57,3.03271 -23.01,3.51067 -27.7235,0.98588 -5.0585,-2.70959 -5.5292,-6.07088 -2.4793,-17.69979 l 1.9069,-7.27026 -3.0671,0.30727 c -2.6072,0.26117 -3.5517,1.21109 -6.2976,6.33379 -8.4043,15.67903 -22.2677,22.53095 -39.4737,19.5097 z m 23.5732,-7.19635 c 3.3128,-2.91161 9.4077,-13.56173 9.4097,-16.44247 6e-4,-0.7736 -8.232,-1.32283 -26.8407,-1.79059 -14.7628,-0.37114 -29.0992,-0.90568 -31.8587,-1.18791 l -5.0171,-0.51315 6.0953,5.81926 c 11.3621,10.84746 25.406,17.29658 37.7696,17.34412 6.1849,0.0239 7.0422,-0.24133 10.4419,-3.22926 z m 75.8527,-7.60949 c 3.6652,-4.06098 6.4285,-10.41332 5.3146,-12.21741 -2.9997,-4.85845 -12.5549,6.5955 -12.5549,15.04984 0,2.678 0.2409,2.95178 1.8425,2.09377 1.0134,-0.54293 3.4423,-2.75964 5.3978,-4.9262 z m -31.8389,-20.13877 c 3.8762,-2.24586 9.1585,-9.20861 10.5982,-13.96981 1.5452,-5.1095 2.2786,-18.48753 1.108,-20.20947 -2.3942,-3.52186 -7.1762,2.77202 -13.2755,17.47269 -2.0627,4.97188 -4.4586,11.45906 -5.3243,14.41601 l -1.5737,5.37616 2.7358,-0.675 c 1.5048,-0.37122 4.084,-1.45599 5.7315,-2.41058 z m -177.892,33.8159 c -1.9672,-1.9692 -1.467,-4.72765 3.0405,-16.76831 3.9109,-10.44695 4.5803,-11.56954 7.6776,-12.87513 1.9743,-0.83212 3.7654,-1.05763 4.2834,-0.5392 0.5179,0.51843 -0.546,4.01235 -2.5441,8.3552 -7.037,15.29444 -6.8761,19.40345 0.738,18.85314 2.392,-0.1729 4.1702,0.18096 4.4016,0.87597 0.8833,2.6526 -15.1351,4.56265 -17.597,2.09833 z m 231.5988,-0.0203 c -5.4531,-2.91425 -3.921,-7.83452 5.2305,-16.79762 6.7413,-6.6025 7.0498,-7.08732 4.5104,-7.08732 -1.4992,0 -2.7259,0.41968 -2.7259,0.93264 0,1.60896 -3.0695,4.08943 -5.0605,4.08943 -1.5996,0 -1.8479,-0.60704 -1.5414,-3.76655 0.6317,-6.50718 3.2295,-11.07404 7.557,-13.28393 4.6306,-2.36472 5.8181,-1.3819 3.5755,2.95911 l -1.5718,3.04274 5.3773,0 c 2.9575,0 5.6677,0.29064 6.0224,0.64576 0.3549,0.35519 -1.9641,3.63213 -5.1532,7.28209 -8.5599,9.79686 -10.2087,12.18266 -10.2087,14.77181 0,3.39677 3.3217,4.77777 9.69,4.02856 4.2294,-0.4976 5.3613,-0.33346 5.3613,0.77719 0,2.00942 -2.4721,2.74291 -11.0377,3.27472 -5.1423,0.31935 -8.3171,0.0443 -10.0252,-0.86863 z m 34.2431,-0.32032 c -3.9118,-1.69996 -7.7737,-1.90633 -8.6648,-0.46288 -0.9232,1.49525 -3.512,1.21433 -3.512,-0.38106 0,-0.76202 2.2578,-3.44218 5.0171,-5.95586 2.7594,-2.51373 5.0172,-4.8282 5.0172,-5.14328 0,-0.31509 -1.1288,-0.57289 -2.5085,-0.57289 -1.3798,0 -2.5087,-0.38197 -2.5087,-0.84876 0,-2.04148 3.9335,-4.17337 7.7001,-4.17337 2.7598,0 4.6042,-0.63508 5.8517,-2.015 1.002,-1.10825 1.6363,-2.19429 1.4098,-2.41336 -1.2481,-1.20707 -5.7793,-0.81382 -7.9204,0.68726 -2.6496,1.85782 -6.0377,2.31639 -6.0377,0.81724 0,-0.5033 0.9504,-3.40086 2.1119,-6.4391 1.4426,-3.77388 2.7937,-5.70722 4.2645,-6.10222 3.9118,-1.05061 4.7287,-0.72412 4.1403,1.65435 -0.5249,2.12127 -0.2111,2.27701 5.1142,2.53746 3.3019,0.16156 6.2719,-0.21949 7.1049,-0.91163 1.0898,-0.90537 1.7104,-0.90976 2.601,-0.0184 0.8905,0.89138 -0.1291,2.48708 -4.2728,6.68705 l -5.4425,5.51631 4.418,0 4.4181,0 -2.9422,3.07401 c -2.48,2.59114 -3.5956,3.03379 -7.1021,2.8179 -2.468,-0.15189 -5.108,0.37409 -6.4911,1.29333 -2.3071,1.53344 -2.2696,1.57247 3.6481,3.78872 5.6601,2.11982 7.9981,2.21745 13.2644,0.55366 1.7217,-0.54394 2.2576,-0.31682 2.2576,0.95671 0,2.19505 -9.4237,6.58945 -14.0478,6.5506 -1.9316,-0.0162 -5.0313,-0.68977 -6.8883,-1.49683 z m 27.7093,0.46104 c -3.8929,-2.26962 -0.4902,-7.95572 3.486,-5.82556 2.0487,1.09756 2.3371,3.9442 0.5778,5.70519 -1.4378,1.43924 -1.7841,1.4495 -4.0638,0.12037 z m -281.1374,-38.66153 c -1.8491,-1.85091 -1.9493,-2.87913 -0.5381,-5.51866 2.0121,-3.76331 7.9921,-1.83505 7.9921,2.57709 0,4.22982 -4.4233,5.97529 -7.454,2.94157 z m -200.8171,-11.18056 c 4.6881,-12.22914 10.5954,-28.50845 11.1337,-30.68239 l 0.6841,-2.76217 -6.6757,0 c -3.6716,0 -9.6069,0.73704 -13.1894,1.63784 -3.5826,0.90082 -6.808,1.34333 -7.1676,0.98337 -0.3596,-0.35996 1.331,-2.67895 3.757,-5.15332 3.8671,-3.94417 4.9419,-4.49884 8.7174,-4.49884 5.8139,0 5.4244,-1.41411 -0.9615,-3.49063 -23.7602,-7.7262 -37.4472,-24.52982 -26.3301,-32.32547 1.4509,-1.01737 4.6429,-3.52469 7.0934,-5.5718 2.4505,-2.04712 6.1362,-4.18658 8.1905,-4.75437 6.6707,-1.84369 23.4905,-2.34038 39.3929,-1.16328 14.8115,1.09637 33.8553,3.51923 34.7572,4.42202 0.2319,0.23212 -0.9455,1.88698 -2.6164,3.67746 l -3.038,3.25542 -8.5358,-1.27118 c -4.6947,-0.69915 -8.7109,-1.08507 -8.925,-0.85762 -0.7445,0.79118 -12.6454,34.23305 -12.6454,35.534 0,1.52533 5.3425,2.32191 22.9652,3.4242 6.6645,0.41685 12.4239,1.06488 12.7987,1.44006 0.3748,0.37516 -0.1383,1.5889 -1.1403,2.69714 -1.6965,1.87654 -3.0774,2.015 -20.0943,2.015 l -18.2726,0 -5.0297,13.81081 c -2.7663,7.59596 -5.3152,14.74629 -5.6642,15.8896 -0.349,1.14337 -2.2256,2.8383 -4.1704,3.76661 -4.4932,2.14482 -5.8621,2.13869 -5.0337,-0.0225 z m 16.8184,-48.25981 c 0.9216,-2.62404 3.5378,-10.23004 5.8138,-16.90219 3.5816,-10.49975 4.5012,-12.26693 6.8381,-13.14049 2.1676,-0.81025 0.1275,-1.16865 -10.3444,-1.81736 -24.0069,-1.48718 -42.3541,0.66763 -44.0829,5.17733 -0.3239,0.84489 -0.1013,3.34902 0.4948,5.56472 2.1123,7.85241 13.9285,16.68608 31.2373,23.35272 3.4816,1.34096 6.7887,2.4602 7.349,2.4872 0.5603,0.027 1.7728,-2.09787 2.6943,-4.72193 z m 45.3112,32.90332 c -2.8786,-1.1628 -5.3776,-4.89635 -5.3656,-8.01621 0.027,-6.99251 9.4593,-19.3269 17.267,-22.5796 5.4664,-2.27732 10.4895,-2.03848 11.8814,0.56492 2.436,4.55627 -4.6774,15.33968 -14.3577,21.76519 -2.0696,1.37371 -3.7628,2.83827 -3.7628,3.25456 0,1.02398 8.2393,2.19981 11.1828,1.59592 1.2999,-0.26669 3.6417,-0.75701 5.204,-1.08964 2.3174,-0.49337 2.7794,-0.28769 2.5085,1.11674 -0.623,3.23042 -18.7552,5.73204 -24.5576,3.38812 z m 9.0715,-12.40802 c 6.4934,-6.49991 8.5704,-14.71985 3.7193,-14.71985 -3.9393,0 -10.1388,10.35851 -10.1388,16.94062 0,3.17918 1.5662,2.63738 6.4195,-2.22077 z m 21.6763,11.39514 c -3.7937,-3.79751 -1.8748,-8.27285 6.9906,-16.30355 3.3297,-3.01618 6.0539,-5.77964 6.0539,-6.14106 0,-1.5952 -3.6211,-0.44003 -5.4811,1.74856 -1.1245,1.3231 -3.3099,2.69364 -4.8565,3.04561 -2.5884,0.58906 -2.7248,0.47669 -1.7147,-1.4126 0.6036,-1.12891 0.9716,-2.61244 0.8177,-3.29674 -0.6377,-2.8367 3.4369,-10.85343 6.2588,-12.31421 4.0096,-2.07551 6.388,-1.95705 5.4711,0.2725 -1.9859,4.82857 -1.8514,5.26916 1.6454,5.3889 1.858,0.0636 4.1284,0.042 5.0453,-0.0481 3.7464,-0.36794 2.644,2.36472 -3.7301,9.24584 -12.1151,13.07888 -12.4422,17.30376 -1.3397,17.30376 3.5271,0 6.7296,0.44315 7.1167,0.98473 0.863,1.20739 2.7022,-2.99239 6.9501,-15.87032 2.7364,-8.29548 3.717,-10.10335 6.1687,-11.37243 1.6032,-0.82993 3.5674,-1.25837 4.3647,-0.95211 1.2535,0.48148 1.2412,0.96033 -0.091,3.53827 -2.2664,4.38722 -2.0017,4.42499 3.1932,0.45569 2.6033,-1.98915 5.8642,-4.04703 7.2463,-4.57305 3.057,-1.16339 7.0853,0.39565 7.0853,2.74213 0,0.88724 -1.8061,5.94011 -4.0137,11.22863 -2.2075,5.2885 -4.0136,10.39978 -4.0136,11.3584 0,2.27953 2.4634,3.156 6.6569,2.3685 2.6086,-0.48987 3.3773,-0.29299 3.3773,0.86496 0,3.18216 -14.6603,4.99885 -17.4891,2.16723 -1.9219,-1.92375 -1.4634,-4.11802 3.0988,-14.8316 3.9791,-9.34452 4.2436,-11.25651 1.3418,-9.70198 -4.2036,2.25192 -9.393,8.60201 -12.2381,14.97522 -1.6248,3.63977 -3.3094,7.29574 -3.7435,8.12439 -0.806,1.53856 -8.0966,3.3003 -8.0966,1.95649 0,-0.40728 -1.6932,-0.34692 -3.7628,0.13415 -2.0696,0.48108 -6.585,0.88546 -10.0342,0.89864 -4.9545,0.0189 -6.6928,-0.39786 -8.2783,-1.98488 z m 61.2088,0.66345 c 0,-0.73997 1.1289,-1.86027 2.5086,-2.48953 1.3797,-0.62925 2.5085,-1.66177 2.5085,-2.29444 0,-0.78027 1.7755,-1.00295 5.5189,-0.69222 3.0353,0.25196 5.5188,0.3507 5.5188,0.21941 0,-0.13129 -1.5804,-2.1322 -3.512,-4.44647 -5.0457,-6.04531 -4.855,-9.96857 0.7574,-15.58661 5.0828,-5.08782 11.4367,-7.44982 15.3003,-5.68768 1.4777,0.67393 2.5056,1.98178 2.5056,3.1879 0,2.72758 -6.3215,9.5997 -7.9205,8.61046 -0.9308,-0.57582 -0.8502,-1.31814 0.3403,-3.13702 2.0959,-3.20182 2.005,-3.45781 -1.2273,-3.45781 -3.3135,0 -7.2472,2.51695 -7.2472,4.63709 0,0.83048 1.5873,3.59089 3.5274,6.13425 4.1952,5.49985 3.9812,7.2273 -1.5591,12.58148 -3.6948,3.57071 -4.2387,3.7666 -10.4586,3.7666 -4.8137,0 -6.5611,-0.35832 -6.5611,-1.34541 z m 34.1164,0.70218 c -6.6919,-2.74274 -7.8652,-9.66427 -3.0599,-18.05073 4.6697,-8.14969 13.5927,-14.37895 20.67,-14.42996 10.8035,-0.0779 5.1628,13.77704 -10.0826,24.7653 -1.6546,1.19259 -2.6791,2.49804 -2.2765,2.90101 0.8665,0.8674 8.6795,1.10378 14.2356,0.43071 5.2727,-0.63873 5.9193,1.53327 0.8949,3.00606 -4.5388,1.33045 -18.2375,2.25637 -20.3815,1.37761 z m 8.855,-13.71269 c 3.4533,-3.59407 6.3508,-10.1875 5.4777,-12.46498 -2.1564,-5.62514 -12.3259,6.13269 -12.3259,14.25106 0,3.12432 0.2324,3.47405 1.756,2.64338 0.9658,-0.52652 3.2573,-2.51977 5.0922,-4.42946 z m 36.5499,13.75142 c -2.2317,-1.00945 -1.3373,-7.20659 2.3145,-16.03724 1.9628,-4.74642 3.4216,-9.07199 3.2416,-9.61236 -0.5845,-1.75533 -8.8344,5.11852 -11.8435,9.86805 -1.6113,2.54332 -3.6421,6.77132 -4.5128,9.39555 -1.1015,3.31941 -2.2563,4.95195 -3.7952,5.36496 -3.2154,0.86301 -4.7205,0.75264 -4.7205,-0.34618 0,-1.21945 18.7841,-55.27785 19.8786,-57.20843 0.9938,-1.75273 7.98,-4.29093 8.6818,-3.15422 0.2798,0.45312 -2.6453,8.79544 -6.5002,18.53844 -3.8549,9.74305 -7.0089,17.95475 -7.0089,18.24824 0,0.29349 2.0677,-0.89038 4.5948,-2.6308 5.7788,-3.9799 11.045,-5.5582 13.0336,-3.9062 2.1421,1.77955 1.7927,3.59257 -2.5925,13.4541 -2.1991,4.94507 -3.9982,10.02998 -3.9982,11.29977 0,2.06662 0.4734,2.3087 4.5154,2.3087 3.1906,0 4.5154,0.41051 4.5154,1.39918 0,0.76954 -0.7529,1.68836 -1.673,2.04181 -2.4324,0.93429 -12.6615,1.64128 -14.1309,0.97663 z m 24.8347,-0.0387 c -3.653,-1.49719 -6.0202,-4.78085 -5.9985,-8.32055 0.067,-10.97127 13.2915,-24.09589 24.3433,-24.16014 4.6167,-0.0268 5.9983,2.501 4.3514,7.96157 -1.0705,3.54958 -10.6814,14.17783 -15.6722,17.33123 -1.3798,0.87175 -2.1784,1.92726 -1.7748,2.34557 0.8595,0.89101 8.6079,1.14062 14.2374,0.45865 5.2727,-0.63873 5.9193,1.53327 0.8949,3.00606 -4.5387,1.33045 -18.2375,2.25637 -20.3815,1.37761 z m 10.5026,-15.40646 c 4.8213,-7.01768 5.5574,-12.07416 1.7577,-12.07416 -4.1105,0 -10.2535,9.64284 -10.2535,16.0953 l 0,3.10232 3.0331,-1.79347 c 1.6682,-0.9864 4.1264,-3.38491 5.4627,-5.32999 z m 14.9665,14.64414 c 2.2861,-5.22987 6.8715,-17.66284 8.1951,-22.22042 1.3628,-4.69274 2.1942,-5.88735 5.0431,-7.24727 4.1353,-1.97393 5.2191,-1.16369 3.7292,2.78772 -1.3562,3.59634 -1.0635,3.65252 3.0353,0.58247 6.0189,-4.50824 9.7573,-5.94677 12.3641,-4.75782 1.3032,0.59439 2.3695,1.80661 2.3695,2.69386 0,0.88724 -1.8062,5.94011 -4.0137,11.22863 -2.2076,5.2885 -4.0137,10.39978 -4.0137,11.3584 0,2.27953 2.4634,3.156 6.657,2.3685 2.6181,-0.49166 3.3772,-0.29459 3.3772,0.87675 0,1.96338 -2.1277,2.72339 -9.5727,3.41931 -4.9098,0.45894 -6.4148,0.23925 -7.7898,-1.13716 -2.0616,-2.06362 -1.6617,-4.07651 2.9721,-14.95831 3.7573,-8.82329 3.936,-9.70411 1.9686,-9.70411 -2.7518,0 -9.8642,8.26264 -12.8318,14.90701 -1.643,3.67845 -3.3423,7.36608 -3.7765,8.19473 -0.928,1.77144 -8.4719,3.34393 -7.713,1.60771 z"
         id="path2518" />
      <path
         d="m 1584.9919,-156.04134 c -3.3423,-1.33093 -2.9078,-5.60276 1.6899,-16.61731 4.5058,-10.79451 3.8984,-11.70066 -3.4834,-5.19643 -3.5259,3.10662 -5.8872,6.50718 -8.7187,12.55531 -3.576,7.63879 -4.1173,8.29463 -6.8451,8.29463 -1.8803,0 -2.962,-0.51733 -2.962,-1.41654 0,-0.7791 1.861,-6.22344 4.1356,-12.09847 2.2746,-5.87497 3.8673,-10.95042 3.5393,-11.2787 -0.8716,-0.87254 -7.1727,4.19144 -9.7852,7.86403 -1.2377,1.73979 -3.4486,6.12449 -4.9132,9.74371 -2.2005,5.43784 -3.168,6.7157 -5.5722,7.35931 -1.6001,0.42837 -3.1951,0.45161 -3.5445,0.0516 -0.3494,-0.39993 1.5899,-7.08066 4.3096,-14.84607 4.5863,-13.09535 5.1732,-14.2052 8.0949,-15.30914 3.7514,-1.41743 5.3921,-0.28733 3.8287,2.637 -1.8223,3.40831 -1.312,3.36887 4.0333,-0.3117 7.899,-5.43892 14.7204,-4.3442 12.2984,1.97374 -0.4783,1.24754 0.8832,0.69549 4.6052,-1.86737 6.1102,-4.20722 11.5368,-4.93472 12.5673,-1.68473 0.374,1.17963 -1.0452,6.12366 -3.5817,12.47702 -2.3107,5.78774 -3.9278,11.23638 -3.5937,12.10813 0.4144,1.08094 1.8939,1.5849 4.6528,1.5849 6.0143,0 5.4646,2.69715 -0.7211,3.53841 -2.6214,0.35646 -5.4435,0.80332 -6.2714,0.99291 -0.8278,0.1896 -2.5211,-0.0598 -3.7628,-0.55427 z m 44.9032,-0.22322 c -3.6534,-1.87661 -3.6704,-6.17186 -0.061,-15.46001 1.6842,-4.33404 3.0642,-8.21905 3.0667,-8.63338 0,-0.41433 -1.35,-0.7533 -3.0056,-0.7533 -3.4819,0 -3.5687,-0.22195 -1.3898,-3.55083 1.0714,-1.63677 2.5546,-2.47573 4.3768,-2.47573 2.4868,0 2.9969,-0.65802 5.2202,-6.73354 2.1912,-5.9882 2.8297,-6.82838 5.7675,-7.59045 1.8169,-0.4713 3.5659,-0.59425 3.8866,-0.27322 0.3207,0.32102 -0.4362,3.39774 -1.6819,6.83715 -3.053,8.42905 -3.0682,8.2203 0.6279,8.57705 1.7936,0.17308 3.2468,0.62506 3.2292,1.00438 -0.091,1.96126 -2.9656,4.08614 -5.923,4.37792 -3.1594,0.31166 -3.4919,0.73608 -6.1594,7.86267 -4.4956,12.01028 -4.0807,13.05746 5.1724,13.05746 6.4448,0 6.9357,2.53979 0.6705,3.4696 -9.9719,1.48001 -11.4113,1.50967 -13.797,0.28423 z m 85.4201,0.18731 c -12.6195,-2.21588 -25.248,-9.21328 -36.4276,-20.18448 -7.8618,-7.71508 -9.5772,-10.87608 -5.9022,-10.87608 1.0724,0 2.5467,-0.85285 3.2761,-1.8953 1.2659,-1.80912 1.85,-1.83321 12.8505,-0.52972 16.8992,2.00234 60.0039,4.03367 61.0678,2.87782 1.8999,-2.06394 10.4565,-29.98437 9.3068,-30.36799 -1.8288,-0.61025 -1.3722,-2.16319 1.8245,-6.20327 2.9936,-3.78363 12.5257,-8.77682 13.5593,-7.10281 0.2871,0.46508 -0.8215,3.84296 -2.4634,7.5064 -2.5525,5.69459 -13.0705,34.95873 -13.0705,36.3658 0,0.2644 1.4285,0.33914 3.1745,0.16606 2.9375,-0.29131 3.3385,-0.80217 5.3703,-6.84351 7.477,-22.23154 19.015,-37.56545 28.2662,-37.56545 5.8562,0 7.7097,3.21186 7.0371,12.19374 -1.194,15.94277 -9.9405,27.65244 -24.7512,33.13651 l -5.4869,2.03176 -1.765,6.90366 c -3.5483,13.87981 -2.7232,14.93912 11.6388,14.93912 12.9498,0 16.1925,-1.23318 17.0301,-6.47644 0.842,-5.2707 6.1967,-12.84031 12.032,-17.00876 3.7091,-2.64962 6.1741,-3.59557 10.2513,-3.934 4.9836,-0.41372 5.4517,-0.26152 6.5384,2.12583 0.9831,2.16005 0.8144,3.26404 -1.0554,6.9014 -2.5531,4.96671 -7.8192,10.71656 -13.2921,14.51308 -2.078,1.44157 -3.5113,3.05367 -3.1847,3.58247 0.3275,0.53051 4.4477,0.82812 9.1921,0.66403 10.6488,-0.36845 11.9208,1.22616 2.8061,3.518 -9.3769,2.35771 -15.5978,2.14505 -19.7535,-0.6753 l -3.4094,-2.31399 -7.5257,2.38483 c -9.57,3.03271 -23.01,3.51067 -27.7235,0.98588 -5.0585,-2.70959 -5.5292,-6.07088 -2.4793,-17.69979 l 1.9069,-7.27026 -3.0671,0.30727 c -2.6072,0.26117 -3.5517,1.21109 -6.2976,6.33379 -8.4043,15.67903 -22.2677,22.53095 -39.4737,19.5097 z m 23.5732,-7.19635 c 3.3128,-2.91161 9.4077,-13.56173 9.4097,-16.44247 6e-4,-0.7736 -8.232,-1.32283 -26.8407,-1.79059 -14.7628,-0.37114 -29.0992,-0.90568 -31.8587,-1.18791 l -5.0171,-0.51315 6.0953,5.81926 c 11.3621,10.84746 25.406,17.29658 37.7696,17.34412 6.1849,0.0239 7.0422,-0.24133 10.4419,-3.22926 z m 75.8527,-7.60949 c 3.6652,-4.06098 6.4285,-10.41332 5.3146,-12.21741 -2.9997,-4.85845 -12.5549,6.5955 -12.5549,15.04984 0,2.678 0.2409,2.95178 1.8425,2.09377 1.0134,-0.54293 3.4423,-2.75964 5.3978,-4.9262 z m -31.8389,-20.13877 c 3.8762,-2.24586 9.1585,-9.20861 10.5982,-13.96981 1.5452,-5.1095 2.2786,-18.48753 1.108,-20.20947 -2.3942,-3.52186 -7.1762,2.77202 -13.2755,17.47269 -2.0627,4.97188 -4.4586,11.45906 -5.3243,14.41601 l -1.5737,5.37616 2.7358,-0.675 c 1.5048,-0.37122 4.084,-1.45599 5.7315,-2.41058 z m -177.892,33.8159 c -1.9672,-1.9692 -1.467,-4.72765 3.0405,-16.76831 3.9109,-10.44695 4.5803,-11.56954 7.6776,-12.87513 1.9743,-0.83212 3.7654,-1.05763 4.2834,-0.5392 0.5179,0.51843 -0.546,4.01235 -2.5441,8.3552 -7.037,15.29444 -6.8761,19.40345 0.738,18.85314 2.392,-0.1729 4.1702,0.18096 4.4016,0.87597 0.8833,2.6526 -15.1351,4.56265 -17.597,2.09833 z m 231.5988,-0.0204 c -5.4531,-2.91425 -3.921,-7.83452 5.2305,-16.79762 6.7413,-6.6025 7.0498,-7.08732 4.5104,-7.08732 -1.4992,0 -2.7259,0.41968 -2.7259,0.93264 0,1.60896 -3.0695,4.08943 -5.0605,4.08943 -1.5996,0 -1.8479,-0.60704 -1.5414,-3.76655 0.6317,-6.50718 3.2295,-11.07404 7.557,-13.28393 4.6306,-2.36472 5.8181,-1.3819 3.5755,2.95911 l -1.5718,3.04274 5.3773,0 c 2.9575,0 5.6677,0.29064 6.0224,0.64576 0.3549,0.35519 -1.9641,3.63213 -5.1532,7.28209 -8.5599,9.79686 -10.2087,12.18266 -10.2087,14.77181 0,3.39677 3.3217,4.77777 9.69,4.02856 4.2294,-0.4976 5.3613,-0.33346 5.3613,0.77719 0,2.00942 -2.4721,2.74291 -11.0377,3.27472 -5.1423,0.31935 -8.3171,0.0442 -10.0252,-0.86863 z m 34.2431,-0.32032 c -3.9118,-1.69996 -7.7737,-1.90633 -8.6648,-0.46288 -0.9232,1.49525 -3.512,1.21433 -3.512,-0.38106 0,-0.76202 2.2578,-3.44218 5.0171,-5.95586 2.7594,-2.51373 5.0172,-4.8282 5.0172,-5.14328 0,-0.31509 -1.1288,-0.57289 -2.5085,-0.57289 -1.3798,0 -2.5087,-0.38197 -2.5087,-0.84876 0,-2.04148 3.9335,-4.17337 7.7001,-4.17337 2.7598,0 4.6042,-0.63508 5.8517,-2.015 1.002,-1.10825 1.6363,-2.19429 1.4098,-2.41336 -1.2481,-1.20707 -5.7793,-0.81382 -7.9204,0.68726 -2.6496,1.85782 -6.0377,2.31639 -6.0377,0.81724 0,-0.5033 0.9504,-3.40086 2.1119,-6.4391 1.4426,-3.77388 2.7937,-5.70722 4.2645,-6.10222 3.9118,-1.05061 4.7287,-0.72412 4.1403,1.65435 -0.5249,2.12127 -0.2111,2.27701 5.1142,2.53746 3.3019,0.16156 6.2719,-0.21949 7.1049,-0.91163 1.0898,-0.90537 1.7104,-0.90976 2.601,-0.0184 0.8905,0.89138 -0.1291,2.48708 -4.2728,6.68705 l -5.4425,5.51631 4.418,0 4.4181,0 -2.9422,3.07401 c -2.48,2.59114 -3.5956,3.03379 -7.1021,2.8179 -2.468,-0.15189 -5.108,0.37409 -6.4911,1.29333 -2.3071,1.53344 -2.2696,1.57247 3.6481,3.78872 5.6601,2.11982 7.9981,2.21745 13.2644,0.55366 1.7217,-0.54394 2.2576,-0.31682 2.2576,0.95671 0,2.19505 -9.4237,6.58945 -14.0478,6.5506 -1.9316,-0.0162 -5.0313,-0.68977 -6.8883,-1.49683 z m 27.7093,0.46104 c -3.8929,-2.26962 -0.4902,-7.95572 3.486,-5.82556 2.0487,1.09756 2.3371,3.9442 0.5778,5.70519 -1.4378,1.43924 -1.7841,1.4495 -4.0638,0.12037 z m -281.1374,-38.66153 c -1.8491,-1.85091 -1.9493,-2.87913 -0.5381,-5.51866 2.0121,-3.76331 7.9921,-1.83505 7.9921,2.57709 0,4.22982 -4.4233,5.97529 -7.454,2.94157 z m -200.8171,-11.18056 c 4.6881,-12.22914 10.5954,-28.50845 11.1337,-30.68239 l 0.6841,-2.76217 -6.6757,0 c -3.6716,0 -9.6069,0.73704 -13.1894,1.63784 -3.5826,0.90082 -6.808,1.34333 -7.1676,0.98337 -0.3596,-0.35996 1.331,-2.67895 3.757,-5.15332 3.8671,-3.94417 4.9419,-4.49884 8.7174,-4.49884 5.8139,0 5.4244,-1.41411 -0.9615,-3.49063 -23.7602,-7.7262 -37.4472,-24.52982 -26.3301,-32.32547 1.4509,-1.01737 4.6429,-3.52469 7.0934,-5.5718 2.4505,-2.04712 6.1362,-4.18658 8.1905,-4.75437 6.6707,-1.84369 23.4905,-2.34038 39.3929,-1.16328 14.8115,1.09637 33.8553,3.51923 34.7572,4.42202 0.2319,0.23212 -0.9455,1.88698 -2.6164,3.67746 l -3.038,3.25542 -8.5358,-1.27118 c -4.6947,-0.69915 -8.7109,-1.08507 -8.925,-0.85762 -0.7445,0.79118 -12.6454,34.23305 -12.6454,35.534 0,1.52533 5.3425,2.32191 22.9652,3.4242 6.6645,0.41685 12.4239,1.06488 12.7987,1.44006 0.3748,0.37516 -0.1383,1.5889 -1.1403,2.69714 -1.6965,1.87654 -3.0774,2.015 -20.0943,2.015 l -18.2726,0 -5.0297,13.81081 c -2.7663,7.59596 -5.3152,14.74629 -5.6642,15.8896 -0.349,1.14337 -2.2256,2.8383 -4.1704,3.76661 -4.4932,2.14482 -5.8621,2.13869 -5.0337,-0.0225 z m 16.8184,-48.25981 c 0.9216,-2.62404 3.5378,-10.23004 5.8138,-16.90219 3.5816,-10.49975 4.5012,-12.26693 6.8381,-13.14049 2.1676,-0.81025 0.1275,-1.16865 -10.3444,-1.81736 -24.0069,-1.48718 -42.3541,0.66763 -44.0829,5.17733 -0.3239,0.84489 -0.1013,3.34902 0.4948,5.56472 2.1123,7.85241 13.9285,16.68608 31.2373,23.35272 3.4816,1.34096 6.7887,2.4602 7.349,2.4872 0.5603,0.027 1.7728,-2.09787 2.6943,-4.72193 z m 45.3112,32.90332 c -2.8786,-1.1628 -5.3776,-4.89635 -5.3656,-8.01621 0.027,-6.99251 9.4593,-19.3269 17.267,-22.5796 5.4664,-2.27732 10.4895,-2.03848 11.8814,0.56492 2.436,4.55627 -4.6774,15.33968 -14.3577,21.76519 -2.0696,1.37371 -3.7628,2.83827 -3.7628,3.25456 0,1.02398 8.2393,2.19981 11.1828,1.59592 1.2999,-0.26669 3.6417,-0.75701 5.204,-1.08964 2.3174,-0.49337 2.7794,-0.28769 2.5085,1.11674 -0.623,3.23042 -18.7552,5.73204 -24.5576,3.38812 z m 9.0715,-12.40802 c 6.4934,-6.49991 8.5704,-14.71985 3.7193,-14.71985 -3.9393,0 -10.1388,10.35851 -10.1388,16.94062 0,3.17918 1.5662,2.63738 6.4195,-2.22077 z m 21.6763,11.39514 c -3.7937,-3.79751 -1.8748,-8.27285 6.9906,-16.30355 3.3297,-3.01618 6.0539,-5.77964 6.0539,-6.14106 0,-1.5952 -3.6211,-0.44003 -5.4811,1.74856 -1.1245,1.3231 -3.3099,2.69364 -4.8565,3.04561 -2.5884,0.58906 -2.7248,0.47669 -1.7147,-1.4126 0.6036,-1.12891 0.9716,-2.61244 0.8177,-3.29674 -0.6377,-2.8367 3.4369,-10.85343 6.2588,-12.31421 4.0096,-2.07551 6.388,-1.95705 5.4711,0.2725 -1.9859,4.82857 -1.8514,5.26916 1.6454,5.3889 1.858,0.0636 4.1284,0.042 5.0453,-0.0481 3.7464,-0.36794 2.644,2.36472 -3.7301,9.24584 -12.1151,13.07888 -12.4422,17.30376 -1.3397,17.30376 3.5271,0 6.7296,0.44315 7.1167,0.98473 0.863,1.20739 2.7022,-2.99239 6.9501,-15.87032 2.7364,-8.29548 3.717,-10.10335 6.1687,-11.37243 1.6032,-0.82993 3.5674,-1.25837 4.3647,-0.95211 1.2535,0.48148 1.2412,0.96033 -0.091,3.53827 -2.2664,4.38722 -2.0017,4.42499 3.1932,0.45569 2.6033,-1.98915 5.8642,-4.04703 7.2463,-4.57305 3.057,-1.16339 7.0853,0.39565 7.0853,2.74213 0,0.88724 -1.8061,5.94011 -4.0137,11.22863 -2.2075,5.2885 -4.0136,10.39978 -4.0136,11.3584 0,2.27953 2.4634,3.156 6.6569,2.3685 2.6086,-0.48987 3.3773,-0.29299 3.3773,0.86496 0,3.18216 -14.6603,4.99885 -17.4891,2.16723 -1.9219,-1.92375 -1.4634,-4.11802 3.0988,-14.8316 3.9791,-9.34452 4.2436,-11.25651 1.3418,-9.70198 -4.2036,2.25192 -9.393,8.60201 -12.2381,14.97522 -1.6248,3.63977 -3.3094,7.29574 -3.7435,8.12439 -0.806,1.53856 -8.0966,3.3003 -8.0966,1.95649 0,-0.40728 -1.6932,-0.34692 -3.7628,0.13415 -2.0696,0.48108 -6.585,0.88546 -10.0342,0.89864 -4.9545,0.0189 -6.6928,-0.39786 -8.2783,-1.98488 z m 61.2088,0.66345 c 0,-0.73997 1.1289,-1.86027 2.5086,-2.48953 1.3797,-0.62925 2.5085,-1.66177 2.5085,-2.29444 0,-0.78027 1.7755,-1.00295 5.5189,-0.69222 3.0353,0.25196 5.5188,0.3507 5.5188,0.21941 0,-0.13129 -1.5804,-2.1322 -3.512,-4.44647 -5.0457,-6.04531 -4.855,-9.96857 0.7574,-15.58661 5.0828,-5.08782 11.4367,-7.44982 15.3003,-5.68768 1.4777,0.67393 2.5056,1.98178 2.5056,3.1879 0,2.72758 -6.3215,9.5997 -7.9205,8.61046 -0.9308,-0.57582 -0.8502,-1.31814 0.3403,-3.13702 2.0959,-3.20182 2.005,-3.45781 -1.2273,-3.45781 -3.3135,0 -7.2472,2.51695 -7.2472,4.63709 0,0.83048 1.5873,3.59089 3.5274,6.13425 4.1952,5.49985 3.9812,7.2273 -1.5591,12.58148 -3.6948,3.57071 -4.2387,3.7666 -10.4586,3.7666 -4.8137,0 -6.5611,-0.35832 -6.5611,-1.34541 z m 34.1164,0.70218 c -6.6919,-2.74274 -7.8652,-9.66427 -3.0599,-18.05073 4.6697,-8.14969 13.5927,-14.37895 20.67,-14.42996 10.8035,-0.0779 5.1628,13.77704 -10.0826,24.7653 -1.6546,1.19259 -2.6791,2.49804 -2.2765,2.90101 0.8665,0.8674 8.6795,1.10378 14.2356,0.43071 5.2727,-0.63873 5.9193,1.53327 0.8949,3.00606 -4.5388,1.33045 -18.2375,2.25637 -20.3815,1.37761 z m 8.855,-13.71269 c 3.4533,-3.59407 6.3508,-10.1875 5.4777,-12.46498 -2.1564,-5.62514 -12.3259,6.13269 -12.3259,14.25106 0,3.12432 0.2324,3.47405 1.756,2.64338 0.9658,-0.52652 3.2573,-2.51977 5.0922,-4.42946 z m 36.5499,13.75142 c -2.2317,-1.00945 -1.3373,-7.20659 2.3145,-16.03724 1.9628,-4.74642 3.4216,-9.07199 3.2416,-9.61236 -0.5845,-1.75533 -8.8344,5.11852 -11.8435,9.86805 -1.6113,2.54332 -3.6421,6.77132 -4.5128,9.39555 -1.1015,3.31941 -2.2563,4.95195 -3.7952,5.36496 -3.2154,0.86301 -4.7205,0.75264 -4.7205,-0.34618 0,-1.21945 18.7841,-55.27785 19.8786,-57.20843 0.9938,-1.75273 7.98,-4.29093 8.6818,-3.15422 0.2798,0.45312 -2.6453,8.79544 -6.5002,18.53844 -3.8549,9.74305 -7.0089,17.95475 -7.0089,18.24824 0,0.29349 2.0677,-0.89038 4.5948,-2.6308 5.7788,-3.9799 11.045,-5.5582 13.0336,-3.9062 2.1421,1.77955 1.7927,3.59257 -2.5925,13.4541 -2.1991,4.94507 -3.9982,10.02998 -3.9982,11.29977 0,2.06662 0.4734,2.3087 4.5154,2.3087 3.1906,0 4.5154,0.41051 4.5154,1.39918 0,0.76954 -0.7529,1.68836 -1.673,2.04181 -2.4324,0.93429 -12.6615,1.64128 -14.1309,0.97663 z m 24.8347,-0.0387 c -3.653,-1.49719 -6.0202,-4.78085 -5.9985,-8.32055 0.067,-10.97127 13.2915,-24.09589 24.3433,-24.16014 4.6167,-0.0268 5.9983,2.501 4.3514,7.96157 -1.0705,3.54958 -10.6814,14.17783 -15.6722,17.33123 -1.3798,0.87175 -2.1784,1.92726 -1.7748,2.34557 0.8595,0.89101 8.6079,1.14062 14.2374,0.45865 5.2727,-0.63873 5.9193,1.53327 0.8949,3.00606 -4.5387,1.33045 -18.2375,2.25637 -20.3815,1.37761 z m 10.5026,-15.40646 c 4.8213,-7.01768 5.5574,-12.07416 1.7577,-12.07416 -4.1105,0 -10.2535,9.64284 -10.2535,16.0953 l 0,3.10232 3.0331,-1.79347 c 1.6682,-0.9864 4.1264,-3.38491 5.4627,-5.32999 z m 14.9665,14.64414 c 2.2861,-5.22987 6.8715,-17.66284 8.1951,-22.22042 1.3628,-4.69274 2.1942,-5.88735 5.0431,-7.24727 4.1353,-1.97393 5.2191,-1.16369 3.7292,2.78772 -1.3562,3.59634 -1.0635,3.65252 3.0353,0.58247 6.0189,-4.50824 9.7573,-5.94677 12.3641,-4.75782 1.3032,0.59439 2.3695,1.80661 2.3695,2.69386 0,0.88724 -1.8062,5.94011 -4.0137,11.22863 -2.2076,5.2885 -4.0137,10.39978 -4.0137,11.3584 0,2.27953 2.4634,3.156 6.657,2.3685 2.6181,-0.49166 3.3772,-0.29459 3.3772,0.87675 0,1.96338 -2.1277,2.72339 -9.5727,3.41931 -4.9098,0.45894 -6.4148,0.23925 -7.7898,-1.13716 -2.0616,-2.06362 -1.6617,-4.07651 2.9721,-14.95831 3.7573,-8.82329 3.936,-9.70411 1.9686,-9.70411 -2.7518,0 -9.8642,8.26264 -12.8318,14.90701 -1.643,3.67845 -3.3423,7.36608 -3.7765,8.19473 -0.928,1.77144 -8.4719,3.34393 -7.713,1.60771 z"
         id="path2516"
         style="fill:#e6bb18" />
    </g>
    <path
       d="m 458.99815,732.92943 c 0,0 21.97886,-47.03173 31.6882,-59.49269 17.06876,-21.90603 15.26229,-7.66928 25.58722,-14.1403 10.0713,-6.31207 31.4641,-54.74571 47.13436,-76.76169 10.90393,-15.31948 29.23888,-32.87432 39.72753,-48.48105 7.56281,-11.25318 14.54796,-39.86333 20.83296,-39.48947 6.38788,0.37998 18.86974,42.18196 34.18436,60.75769 12.4566,15.10911 15.41012,28.23607 43.25065,48.99804 3.21429,2.39704 8.75354,10.10022 8.75354,10.10022 0,0 42.38121,-58.08797 60.26464,-83.49516 5.82082,-8.26969 14.58366,-18.77684 18.85375,-27.94394 1.5524,-3.33272 2.13056,-8.81018 4.0401,-11.95193 1.29882,-2.13695 3.98827,-3.48204 5.38677,-5.55512 1.39507,-2.06801 0.91722,-6.41733 3.03007,-7.74351 1.11538,-0.7001 3.34726,-0.48453 4.37676,0.33668 2.39755,1.91247 1.71993,7.42441 3.70341,9.76354 7.12679,8.40472 15.15033,21.54714 15.15033,21.54714 0,0 9.15271,-19.54127 12.12028,-28.61729 1.51514,-4.63397 2.24598,-11.17123 3.7034,-15.82368 1.72127,-5.49472 5.36656,-12.3435 7.07016,-17.84372 0.6742,-2.1767 0.13674,-6.65425 1.34671,-8.58519 1.71701,-2.74013 4.69454,-4.55686 7.91183,-4.88177 6.27573,-0.63379 19.534,49.43768 28.28062,66.66145 2.03082,3.99912 10.22593,-0.19982 13.97196,2.35672 5.15353,3.5171 4.7952,12.47891 11.11025,17.84372 5.48202,4.65716 12.39032,12.08107 14.81365,18.85375 6.58619,18.40686 16.49702,36.69747 16.49702,36.69747 0,0 5.23691,-5.01271 8.08019,-6.06013 1.51937,-0.55972 4.77747,-1.83685 5.38679,-0.33668 5.82558,14.34292 13.89162,27.60571 20.53711,39.05419 7.63784,13.15805 17.50765,29.66042 27.27063,42.7576 2.2196,2.97757 8.3568,2.65339 11.4469,4.71344 2.2581,1.50542 4.8866,4.14183 6.3968,6.3968 3.6531,5.4549 3.9661,15.37424 8.4168,20.20044 2.5419,2.75623 9.2835,2.44917 11.1102,5.72346 7.1456,12.80834 16.4562,37.70749 16.4562,37.70749 l -597.89215,6.73348 z"
       id="path3537"
       style="fill:url(#linearGradient3565)" />
    <g
       transform="translate(17.839647,-26.933922)"
       id="g3571"
       style="fill:url(#linearGradient3583)">
      <path
         d="m 476.1726,724.84925 c -0.67771,-2.67816 3.9828,-16.89906 10.10021,-18.51707 2.41165,-0.63786 4.58733,4.61844 7.07015,4.37676 1.92057,-0.18695 3.46887,-2.90212 4.71344,-4.37676 8.5644,-10.14756 16.92157,-25.95468 24.24053,-37.03414 5.62028,-8.50797 13.48733,-19.61029 18.85374,-28.28062 5.02405,-8.11717 11.8715,-18.91763 15.82368,-27.60727 0.57249,-5.22896 4.81446,-8.97653 4.37619,-12.4488 -1.38524,-10.97441 3.98921,-16.04585 13.89508,-26.82315 2.05031,-2.23069 -1.01962,6.98583 8.16664,-1.95843 3.70369,-2.78991 8.29996,-6.25183 10.86014,-10.0497 2.67966,-3.97511 3.30561,-8.27003 6.46958,-10.33126 1.71407,-0.42852 3.87005,1.71512 5.05012,3.03006 4.82939,5.38138 7.09821,15.30579 10.10021,21.88381 3.77241,8.26615 8.07689,19.57048 12.93307,27.25018 2.75519,4.35716 5.82313,10.94269 9.96077,9.3656 3.30864,-1.26112 -3.63669,-7.30422 -0.15989,-7.97456 2.88347,-0.55594 17.48434,22.20593 25.3731,32.0383 4.73843,5.90588 15.53091,15.1727 16.19769,18.77555 0.3468,1.87389 -1.46114,5.3664 -3.36675,5.38679 -3.50153,0.0375 -3.27104,-8.18501 -6.3968,-9.76355 -1.62533,-0.82081 -4.63424,1.46907 -6.06012,0.33668 -8.94458,-7.10342 -18.78779,-28.22043 -20.87379,-27.60727 -3.10694,0.91325 -3.30349,8.06863 -2.69691,11.24969 1.73496,9.09858 14.69105,20.12139 15.15383,27.46782 0.11449,1.81724 -0.20444,5.58527 -2.02004,5.72346 -2.77026,0.21085 -11.43958,-22.32872 -18.85374,-27.94395 -4.85966,-3.68055 -7.23003,4.47538 -7.23003,2.79201 0,-1.68337 -9.08521,-31.1756 -16.06175,-43.48872 -1.09652,-1.93529 -1.59945,-7.31806 -3.64214,-6.43765 -4.56861,1.9691 0.47298,22.84566 0.75154,26.33876 0.16879,2.11673 -6.54576,-1.19043 -6.475,0.93184 0.21986,6.59318 10.34234,54.43083 8.08018,56.22456 -3.58329,2.8413 -10.10023,-12.45694 -10.4369,-11.11025 -0.13265,0.53058 -2.83227,5.7035 -3.64438,11.84453 -1.24916,9.44587 -1.28433,20.85702 -5.98322,18.65335 -11.30675,-5.3026 -3.22304,-37.8392 -7.2061,-39.2514 -5.88175,-2.08538 -9.55122,7.9151 -13.77265,17.61461 -4.19702,9.64344 -8.96157,18.98388 -9.45786,17.73616 -1.07129,-2.69339 -3.0381,-19.68212 -4.37676,-20.20044 -4.85846,-1.88116 -14.9249,25.5089 -24.57721,33.33073 -17.14164,7.7699 -23.22211,2.41213 -54.87785,18.85374 z"
         id="path3539"
         style="fill:url(#linearGradient3649)" />
      <path
         d="m 676.28053,683.66788 c -5.53948,-5.6329 28.3044,-36.83603 38.09032,-55.70709 14.24803,-24.92412 25.48721,-42.43168 37.27598,-59.83529 0.90131,-1.33062 0.0573,-4.2108 0.59172,-6.08461 0.31234,-0.59192 -1.13197,-1.88179 -0.75979,-2.49345 2.03949,-3.35182 5.21258,-7.17091 9.6001,-12.99389 -4.6e-4,-0.64206 1.59973,3.79519 1.94835,3.34041 3.7795,-4.93048 8.49548,-8.44577 12.53246,-13.17553 3.52283,-4.15798 6.08647,-9.44471 9.89386,-8.48974 3.46367,0.86876 3.53598,6.83789 5.35294,9.91206 2.36319,3.99839 9.0782,9.7863 9.24653,10.79633 0.16833,1.01002 2.5729,9.09972 5.89179,9.42687 2.34655,0.2313 4.55612,-3.5167 5.3868,-5.72346 1.0147,-2.69568 -1.39211,-6.91521 -0.33668,-9.59521 0.62806,-1.59485 3.25313,-2.51735 4.04008,-4.04009 1.10541,-2.13893 0.62711,-5.6142 1.34671,-7.91184 2.97966,-9.5139 8.80744,-21.80666 13.96008,-32.24601 2.71721,-5.50511 2.33007,-13.77597 7.58704,-13.70999 3.14302,0.0394 3.54515,6.52273 4.20843,9.59521 0.89523,4.14686 -0.81926,10.01447 0.16835,14.14031 1.59589,6.66701 6.55674,15.24487 9.98516,22.81047 2.56925,5.66961 2.94948,11.06593 7.69021,13.04531 1.76844,0.73837 4.166,-2.31122 6.06014,-2.02004 2.78059,0.42745 4.89677,4.70389 7.59488,5.50057 1.30322,0.38481 3.28917,-0.80689 4.52323,-0.23806 5.9675,2.75072 9.75628,15.91266 13.3316,21.4258 10.11977,15.60468 28.56773,48.80322 29.51999,50.46967 0.95227,1.66646 7.11252,5.75273 10.23677,4.52323 2.53066,-0.9959 0.87205,-8.66661 3.57097,-8.33226 2.13754,0.26481 3.51958,4.66307 5.33761,8.73836 2.5462,5.70753 6.46037,11.67876 8.94627,16.02035 4.85445,8.47823 10.03682,19.21187 15.7525,27.13507 7.19658,9.97607 17.00075,23.3739 27.77558,31.64736 3.2984,2.53268 6.8671,8.627 5.72351,12.62528 -0.5508,1.9257 -3.55411,3.79185 -5.55511,3.70341 -4.9167,-0.21731 -9.35649,-6.74623 -12.79364,-10.26856 -3.37194,-3.45548 -6.14379,-6.55579 -9.59522,-9.93188 -2.63564,-2.57813 -7.76079,-7.25057 -10.10021,-10.10022 -8.15769,-9.93686 -11.40565,-27.85661 -18.01206,-38.88585 -2.50163,-4.1764 -6.50255,-9.34721 -9.76356,-12.96195 -0.64628,-0.71638 -1.40296,-2.33412 -2.35672,-2.18838 -1.20744,0.18451 -1.71859,2.3514 -2.02003,3.53508 -0.61083,2.39851 -0.0323,5.78159 0.16833,8.24851 0.26052,3.20329 4.48765,9.38356 1.51503,10.60523 -3.37253,1.38602 -5.199,-6.74103 -7.23848,-9.76354 -3.57262,-5.2946 -7.73816,-12.73745 -11.11411,-18.15956 -1.55673,-2.50026 -4.68905,-5.1158 -6.32758,-8.30419 -1.18331,-2.30255 -0.62103,-5.62876 -2.71888,-5.97968 -0.90207,-0.1509 -1.91404,1.11787 -2.38063,1.90452 -1.25793,2.12077 0.9607,7.48407 -1.4284,8.09419 -1.77234,0.45262 -2.90113,-3.17327 -3.80903,-4.76129 -3.18629,-5.57327 -4.64095,-14.30965 -7.61806,-19.99742 -3.69297,-7.05544 -8.78306,-16.92288 -14.99807,-21.90193 -0.60032,-0.48093 -1.71028,-1.32949 -2.38064,-0.95226 -1.13579,0.63916 -0.7899,2.98408 -0.7142,4.28516 0.55278,9.49988 5.71628,21.47271 8.8084,30.47226 2.12455,6.18348 7.85613,19.28322 8.09418,20.23548 0.23808,0.95226 5.49101,7.83746 5.23742,11.66516 -0.11659,1.76007 -1.39238,4.53771 -3.09483,4.99935 -3.9777,1.0786 -8.58354,-4.3474 -12.1413,-6.42774 -2.05222,-1.2 -4.38095,-4.9417 -6.6658,-4.28516 -1.28966,0.37058 -1.72603,2.71718 -1.90452,4.0471 -0.99336,7.40131 8.35514,18.25953 4.28516,24.52064 -0.48146,0.74067 -1.99527,0.90972 -2.85677,0.71419 -2.62176,-0.59504 -5.34291,-3.52467 -6.90387,-5.71354 -6.60056,-9.25578 -7.38253,-25.78422 -13.3316,-35.47161 -0.60842,-0.99072 -1.51152,-3.21151 -2.61872,-2.85678 -3.35757,1.07571 0.82951,10.34181 -2.43841,11.66516 -2.21241,0.89593 -3.77454,-3.0698 -5.17965,-4.99935 -5.69491,-7.82052 -7.45016,-21.34868 -11.58386,-30.09541 -1.48811,-3.14881 -4.49626,-6.84084 -5.72346,-10.10021 -0.96322,-2.55828 -0.12719,-6.80087 -1.8517,-8.92187 -0.79903,-0.98272 -2.63074,-1.93642 -3.87175,-1.68337 -1.2951,0.26408 -2.53725,1.97197 -3.03007,3.19841 -1.39338,3.46761 -0.34969,7.88484 -0.33053,12.28824 0.0256,5.89119 -0.58587,11.8906 0.1622,16.83406 1.37887,9.11198 10.65654,20.18157 9.25853,29.29064 -0.18702,1.21862 -1.51504,3.70341 -2.35672,3.36674 -0.84169,-0.33667 -2.36014,-5.54077 -4.54509,-5.72346 -0.67706,-0.0566 -1.47388,0.86871 -1.68337,1.51503 -0.89179,2.75135 1.27768,6.63151 2.02004,9.42688 0.89775,3.38055 2.33105,7.82628 3.53508,11.11024 1.35596,3.69834 2.36227,9.24068 5.0501,12.12026 0.92465,0.99061 2.88738,2.73246 4.0401,2.02005 3.65149,-2.25675 -3.89616,-12.50691 0,-14.30865 1.20317,-0.5564 2.59057,1.78712 3.36673,2.86173 2.59995,3.59969 3.45972,9.80453 5.55512,13.71947 1.62935,3.04416 7.15433,7.91184 6.48098,9.51104 -0.67335,1.5992 -2.86172,6.31264 -3.1984,5.97596 -0.33668,-0.33667 -12.81618,-4.02494 -16.58119,-8.08017 -3.38436,-3.64522 -4.25697,-10.7976 -6.13855,-15.40207 -1.71345,-4.19305 -3.56525,-10.00544 -5.83258,-13.92677 -0.85443,-1.47774 -1.76017,-4.75066 -3.45192,-4.52323 -1.60359,0.21557 -1.71433,3.41118 -2.02355,4.99936 -1.05102,5.39792 1.61062,13.07282 0,18.33096 -0.89634,2.92622 -2.70533,7.88843 -5.71356,8.45129 -2.6484,0.49554 -5.28454,-3.42467 -7.38,-5.11838 -0.60909,-0.49231 -1.12221,-1.82265 -1.9045,-1.78549 -6.03996,0.28688 -7.65499,17.20017 -13.33162,15.1171 -2.81903,-1.03446 -0.56661,-4.57258 -0.47763,-8.33057 0.13006,-5.49454 -0.84367,-12.00079 10e-4,-16.30911 0.48652,-2.48005 3.36818,-5.21001 3.3329,-7.73709 -0.0308,-2.20455 -3.39402,-4.48144 -3.09484,-6.66581 0.30591,-2.23339 4.79499,-3.46093 4.88032,-5.71355 0.33281,-8.78571 5.04599,-29.42608 2.26162,-29.87709 -3.99309,-0.6468 -6.05829,6.67686 -7.95225,10.25122 -2.75346,5.1964 -5.37936,17.95942 -5.73645,18.79265 -0.35711,0.83322 -6.67545,13.24707 -11.18903,11.54613 -4.78417,-1.8029 4.22268,-16.26241 -0.83324,-17.02161 -4.19675,-0.63019 -12.27617,20.38207 -16.38673,29.68756 -2.21985,5.02526 -3.04712,15.57187 -7.08212,16.14839 -3.31807,0.47408 -2.9538,-5.44853 -4.53314,-8.40489 -1.05375,-1.97253 -2.52504,-7.23849 -3.1984,-6.73348 -0.67335,0.50501 -7.67107,4.37844 -9.25854,2.02004 -1.84593,-2.74241 5.30145,-5.91704 6.22847,-9.0902 0.43925,-1.5035 -1.17836,-3.87175 -0.16833,-5.21844 1.01002,-1.3467 4.37676,-4.37677 4.20843,-5.05011 -0.16835,-0.67335 -0.84684,-4.82047 -2.52507,-5.05011 -2.20953,-0.30234 -2.28345,2.54891 -4.03503,4.06755 -5.57772,4.83597 -10.90565,12.93938 -16.50208,17.31125 -1.9407,1.51606 -5.69749,3.96167 -7.57517,5.55512 -2.08709,1.77116 -3.30248,5.68329 -5.55512,7.23849 -4.09107,2.82445 -13.78599,6.89221 -15.86844,4.77463 z"
         id="path3541"
         style="fill:url(#linearGradient3651)" />
    </g>
    <g
       transform="translate(1.679294,-9.4268726)"
       id="g3326">
      <g
         transform="translate(182.68831,349.20858)"
         id="g3666">
        <path
           d="m 363.15943,494.19781 c 0,0 3.32341,16.52427 7.57516,25.75556 4.28524,9.30398 13.59235,16.58761 13.6353,28.11229 0.0429,11.52472 -16.67986,20.93332 -27.7756,21.88382 -51.73179,4.4109 -61.41487,5.2008 -88.58117,11.1102 -23.73107,5.1622 -65.76695,34.8747 -65.76695,34.8747 0,0 -7.65177,-20.5146 -1.02695,-49.2122 3.07443,-13.31792 22.89384,-39.86699 22.89384,-39.86699 0,0 -11.20206,1.68772 -15.33063,0.63251 -13.24924,-3.38633 -27.24636,-11.31303 -40.22059,-13.08945 -7.5319,-1.03126 -24.5734,4.46832 -35.0646,5.38241 -9.18639,0.8004 -12.40643,-3.02569 -12.40643,-3.02569 0,0 12.80122,-18.5361 28.13004,-28.24267 5.32793,-3.37378 14.52584,-9.79494 24.61591,-15.10528 14.49283,-7.62749 30.82626,-14.22867 40.17608,-16.9167 36.1233,-10.3853 120.86597,-32.99405 120.86597,-32.99405 l 28.28062,70.70154 z"
           id="path3604"
           style="fill:url(#linearGradient3341)" />
        <path
           d="m 237.0185,459.22337 c -13.32237,2.59071 -31.25379,6.19322 -43.76762,11.44692 -12.69718,5.33068 -28.23863,15.48866 -39.39086,23.56718 -7.36394,5.33434 -22.89383,19.86377 -22.89383,19.86377 0,0 19.35102,-6.04732 27.94394,-6.39681 7.74975,-0.3152 18.05376,1.8582 25.58723,3.70342 8.315,2.03664 18.50475,7.93145 26.93392,9.42687 6.86272,1.21752 21.49291,-2.75863 21.56406,0.57473 0.23562,11.03818 -16.97562,22.51634 -21.94158,37.86387 -5.16804,15.97205 -4.81205,47.03576 -4.81205,47.03576 0,0 32.09357,-23.23715 49.84468,-28.81451 23.28932,-7.31747 58.32099,-9.41341 82.60767,-11.88221 15.88216,-1.61446 40.66897,-6.8091 38.00332,-19.78207 -3.18595,-15.50508 -36.02862,-8.69639 -52.52115,-5.05011 -10.90774,2.41155 -35.30993,7.99848 -35.30993,7.99848 l -30.97401,-92.24868 c 0,0 -14.67584,1.48812 -20.87379,2.69339 z"
           id="path3624"
           style="fill:url(#linearGradient3343)" />
      </g>
      <g
         transform="translate(-219.37412,246.7277)"
         id="g3268">
        <path
           d="m 1279.5938,559.50578 c 17.6979,-3.80466 42.8392,-1.8736 60.2646,3.03006 16.2716,4.57898 34.0899,19.96718 49.4911,26.93392 12.8391,5.80775 29.1324,14.70877 44.1043,16.16036 1.6085,0.15595 1.4434,4.65995 0,5.38678 -17.4504,8.78745 -27.3725,14.19534 -40.0642,17.50705 -16.8914,4.40757 -58.7496,5.21845 -58.7496,5.21845 0,0 18.6088,6.79875 23.3988,13.29862 12.8118,17.38527 10.1075,30.65776 9.7636,44.44097 -0.2337,9.368 -1.6959,22.10221 4.0401,30.97401 1.2409,1.91922 -3.1232,5.07165 -5.3868,5.38679 -5.9562,0.82925 -12.2387,-6.86376 -17.5071,-9.76355 -27.2165,-14.98042 -40.4104,-22.58757 -92.5853,-33.6674 -22.9801,-4.88004 -67.6401,-11.15606 -70.1966,-34.50909 -0.6065,-5.54005 4.2087,-9.79658 6.9019,-13.97197 13.9257,-21.58927 10.3806,-32.30882 20.2004,-42.42093 15.5774,-16.04112 44.4642,-29.30451 66.3248,-34.00407 z"
           id="path2462"
           style="fill:url(#linearGradient3345)" />
        <path
           d="m 1298.1226,563.5453 c -29.6114,1.21287 -18.2732,25.16549 -16.8928,51.83665 0.711,13.73755 -4.0119,19.91303 -8.0296,26.10162 -3.0008,4.62221 -4.2399,11.56747 -9.9278,9.15279 -6.7931,-2.88381 -18.9252,-5.90017 -29.5373,-7.46535 -6.1665,-0.90949 -12.3161,-0.59088 -20.5125,-0.88809 -6.2263,-0.22577 -17.3771,1.36621 -16.8051,7.48821 1.0692,11.4435 14.2531,14.89563 23.7423,18.64416 29.5472,9.67167 58.4596,12.10139 87.625,23.4615 20.3373,7.16195 38.1905,13.92024 55.6473,26.38343 -9.0349,-21.20857 4.6395,-42.48712 -7.9445,-62.76533 -6.8221,-12.22618 -21.2822,-13.90315 -32.1462,-20.98084 -7.8577,-3.6027 -8.2414,-5.70665 0.9374,-5.6875 30.3183,-3.29616 59.9054,-1.37943 90.4899,-15.1648 1.4129,-1.36595 8.4867,-3.45339 4.6988,-4.49147 -24.4957,-6.95016 -44.3187,-20.73402 -65.8761,-33.90623 -16.7983,-10.06654 -36.1459,-11.81964 -55.4688,-11.71875 z"
           id="path2464"
           style="fill:url(#linearGradient3347)" />
      </g>
      <g
         transform="translate(714.12138,473.71747)"
         id="g3596">
        <path
           d="m 29.409838,206.77589 c -108.991343,1.73255 -219.449468,18.45839 -319.264578,63.67555 -13.44255,6.74253 -28.79254,16.49605 -31.23543,32.57445 -1.33468,14.16251 10.01411,24.63667 19.5625,33.25 18.61725,18.808 28.47992,44.20435 39.20265,67.98325 2.88161,6.75841 8.04447,19.99606 12.31802,16.33733 19.12208,-16.37107 53.80255,-30.51774 85.51058,-40.03933 63.32078,-17.48019 128.525205,-28.48065 194.187178,-31.55688 75.471502,-2.29799 151.183812,7.72261 223.850662,27.60955 24.32583,6.39703 49.44932,14.75734 67.68007,32.89348 5.29983,4.87614 14.29189,14.52823 16.65536,11.07381 18.10876,-26.46756 37.17885,-58.05487 62.7599,-84.70473 7.31984,-9.06857 16.11608,-18.78196 17.11684,-30.78398 C 414.9789,290.66733 399.78011,284.31213 388.47234,277.49464 312.72994,237.18638 227.12432,218.80073 142.132,211.03705 104.65776,207.74153 67.019588,206.61006 29.409838,206.77589 z"
           id="path2449"
           style="fill:url(#linearGradient3349)" />
        <path
           d="m -252.11845,411.14293 c 0,0 -10.58829,-27.19171 -26.42516,-55.7071 -16.38491,-29.50216 -39.4305,-34.96129 -35.23355,-53.32644 4.61158,-20.17955 55.57152,-35.88308 59.27807,-37.37612 93.105,-37.50375 216.841027,-51.38583 312.816727,-49.27935 95.975703,2.10648 191.138483,12.23117 284.486983,50.46967 12.2111,5.00202 71.7734,29.65885 65.5784,43.17632 -8.8991,19.41769 -30.4001,37.99616 -42.6474,54.70698 -12.5566,17.1329 -31.9774,48.76442 -31.9774,48.76442 0,0 -18.124,-21.68456 -45.7858,-32.5113 -29.0794,-11.38161 -122.09194,-36.89751 -228.092293,-38.85787 -106.00333,-1.96041 -233.191317,30.73314 -267.718587,45.18208 -34.77949,14.55449 -44.28014,24.7588 -44.27999,24.75871 z"
           id="path3291"
           style="fill:url(#radialGradient3351)" />
      </g>
      <path
         d="m 540.24207,857.08956 c 0,0 5.39636,11.1576 6.78381,14.5966 1.57814,3.9116 5.28322,9.5923 5.28322,9.5923 0,0 -14.36688,-3.9711 -31.9584,-0.1683 -10.60515,2.2925 -24.56345,4.81372 -37.19582,9.65182 -3.26875,1.2519 -13.65695,2.68793 -14.18351,0.70573 -0.77966,-2.935 5.43183,-5.78091 7.98887,-7.41915 9.73088,-6.23437 22.94761,-12.6955 33.11985,-16.7631 9.14653,-3.6575 30.16198,-10.1959 30.16198,-10.1959 z"
         id="path2522"
         style="fill:url(#linearGradient3353)" />
      <path
         d="m 1038.1164,886.03416 c 0,0 -11.7888,-12.1464 -20.7117,-17.0216 -8.9891,-4.9113 -23.09225,-10.2367 -23.09225,-10.2367 0,0 -2.49791,8.2005 -3.80902,11.4271 -1.56427,3.8495 -6.66581,12.1412 -6.66581,12.1412 0,0 16.16728,-1.5973 23.09228,-1.1903 9.33,0.5484 31.1865,4.8803 31.1865,4.8803 z"
         id="path3280"
         style="fill:url(#linearGradient3355)" />
      <path
         d="m 486.32913,894.64994 c 0,0 -7.58762,3.25044 -14.9855,2.75466 -6.92937,-0.46438 -10.44085,-3.28288 -10.54571,-3.44668 l 2.97055,-5.81185 c 0,0 5.22722,3.07169 13.63529,3.1984 3.92156,0.0603 7.15009,-1.0389 7.15009,-1.0389 l 1.77528,4.34437 z"
         id="path3298"
         style="fill:url(#linearGradient3357)" />
      <path
         d="m 1054.7997,890.16611 c -2.0548,4.41669 -4.1003,7.4994 -9.0902,7.32266 -2.7492,-0.27426 -7.1196,-2.14399 -9.7635,-2.9459 -1.2547,-0.38055 -4.2085,-1.17836 -4.2085,-1.17836 l 1.9359,-7.65933 c 0,0 3.3698,1.16058 5.8918,1.26253 1.726,0.0698 5.978,1.13908 7.4068,0.16833 1.0443,-0.70951 2.3567,-3.36674 3.0301,-3.36674 0.6733,0 6.6493,2.86173 6.6493,2.86173 0,0 -1.241,2.50532 -1.8517,3.53508 z"
         id="path3312"
         style="fill:url(#linearGradient3359)" />
    </g>
    <g
       transform="translate(1009.008,-10.160353)"
       id="g3483">
      <g
         transform="translate(-976.92115,364.71479)"
         id="g3457">
        <path
           d="m 555.84375,357.4375 c -7.42228,0.37352 -12.80606,13.31495 -15.8125,22 -4.29083,12.39542 -5.06252,43.43749 -5.0625,43.4375 l -4.78125,2.6875 c 0.11933,-6.44912 -0.16547,-13.8021 -0.1875,-21.125 -0.0573,-19.0453 -0.0625,-37.625 -0.0625,-37.625 l -11.1875,6.90625 -0.25,10 -6.4375,11.4375 2.625,2.125 3.8125,-5.46875 0.25,37.625 c 0,0 -25.72928,8.21107 -36.125,11.125 -13.16004,3.68876 -42.43751,10.53124 -42.4375,10.53125 0,0 -1.12105,2.80162 -3.34375,5.71875 -2.21423,2.90603 -4.75,4.53126 -4.75,4.53125 0,0 21.46483,18.02562 41.65625,19.5 13.75613,1.01292 31.79765,-5.76717 41.84375,-15.21875 6.58665,-6.19686 11.47401,-18.3898 13.625,-28.8125 0.31843,-1.54298 0.53035,-3.2349 0.6875,-5.0625 l 5.75,-2.65625 c 0,0 -2.02638,28.54287 11.78125,29.625 9.81709,0.76938 31.01617,-15.48051 30.36149,-15.0044 l -2.29318,-4.33778 c 0,0 -17.86406,8.85782 -23.53706,5.02968 -5.96863,-4.02763 -4.53124,-23.56251 -4.53125,-23.5625 0,0 16.48076,-11.09031 18.1875,-32.65625 0.75094,-9.48882 1.07205,-28.70116 -8.25,-30.625 -0.5127,-0.10581 -1.03643,-0.1499 -1.53125,-0.125 z M 551.8125,368 c 3.72779,-0.0797 4.9864,14.26975 5.3125,21.625 0.83025,18.72632 -10.18749,25.84374 -10.1875,25.84375 0,0 -0.50984,-15.93981 -0.1875,-22.75 0.39677,-8.55112 0.16307,-24.61401 5.0625,-24.71875 z m -32.84375,68.65625 c 3e-5,0 2.12319,18.79247 -10.59375,28.96875 -6.67097,5.33819 -23.54879,4.61769 -35.9375,1.25 -11.37849,-3.09309 -19.28125,-7.65625 -19.28125,-7.65625 -10e-6,0 24.35901,-5.93266 34.53125,-9.4375 9.59359,-3.30545 31.28125,-13.125 31.28125,-13.125 z"
           id="path3459" />
        <path
           d="m 602.84375,396.96875 c -10.47337,0.42214 -27.19356,17.5127 -28.46875,29.09375 -0.87124,7.91231 -1.35735,21.57765 13.28125,22.375 11.63265,0.64278 28.76334,-12.30417 28.76334,-12.30417 l -0.18249,-4.4221 c 0,0 -7.96922,5.33795 -14.08085,5.97627 -5.64591,0.58967 -10.78125,-2.18751 -10.78125,-2.1875 0,0 9.50296,-7.89321 14.8125,-13.46875 1.84043,-1.93263 16.37839,-21.41056 -1.34375,-24.9375 -0.63632,-0.12664 -1.30178,-0.15314 -2,-0.125 z m -7.5,7.5625 c 0.29456,-0.0224 0.57465,-0.0128 0.875,0.0312 3.51991,0.51611 2.76979,7.39856 2.40625,10.9375 -0.64337,6.26269 -9.90624,17.49999 -9.90625,17.5 0,0 -2.8507,-8.29357 -2,-15.9375 0.52512,-4.71833 4.20654,-12.19581 8.625,-12.53125 z"
           id="path3461" />
        <path
           d="m 633.1155,393.40359 -12.96195,7.23849 c 0,0 -2.72414,18.51677 -3.61925,26.34474 -0.76644,6.70274 -2.70806,15.88924 8.58519,15.31867 6.38829,-0.32036 18.09623,-10.6894 18.09623,-10.6894 l 0.96793,-4.67134 c 0,0 -8.71848,6.16738 -11.99401,4.58717 -4.24789,-2.0493 -3.10008,-11.49027 -2.44089,-16.16035 1.01445,-7.18687 3.36675,-21.96798 3.36675,-21.96798 z"
           id="path3463" />
        <path
           d="m 637.65572,377.53641 c 0,4.799 -3.41072,8.68935 -7.61806,8.68935 -4.20734,0 -7.61806,-3.89035 -7.61806,-8.68935 0,-4.799 3.41072,-8.68936 7.61806,-8.68936 4.20734,0 7.61806,3.89036 7.61806,8.68936 z"
           transform="translate(-1.7854836,-2.0235481)"
           id="path3465" />
        <path
           d="m 664.31894,388.72543 -12.49839,4.76129 -10.11774,42.8516 11.90323,-3.57096 c 0,0 4.15662,-17.74112 8.21322,-24.40161 2.21916,-3.64361 5.55117,-9.8672 9.64162,-9.76065 1.31646,0.0343 2.14039,1.56117 1.90451,2.85678 -2.47715,13.60617 -7.85613,33.09096 -7.85613,33.09096 l 12.85548,-4.76129 c 0,0 3.41149,-13.08716 6.48727,-21.84242 1.42053,-4.04359 9.78794,-13.60246 12.93789,-10.61605 3.55127,3.36689 -10.92901,30.73522 0.69129,34.83911 4.62404,1.37255 15.1171,-5.47548 15.1171,-5.47548 l 6.90387,-5.23742 0.71543,-4.9092 c 0,0 -7.92029,6.34219 -11.19027,5.14727 -2.91551,-1.06539 -4.02655,-6.21406 -3.57096,-9.28452 0.91274,-6.15156 4.42202,-14.36887 5.83257,-22.97322 0.32102,-1.95824 -1.0809,-4.17214 -2.9758,-4.76129 -4.4847,-1.39436 -10.78475,2.86922 -14.52194,5.71355 -3.44582,2.62257 -9.40354,10.95096 -9.40354,10.95096 0,0 2.70083,-12.12096 -1.38506,-14.19124 -4.51766,-2.28905 -11.66917,3.90147 -15.63655,7.04931 -3.09211,2.45337 -8.68936,9.87968 -8.68936,9.87968 l 2.49968,-8.21323 2.14258,-7.14193 z"
           id="path3467" />
        <path
           d="m 762.65625,385.21875 c -4.79808,-0.0153 -10.25108,0.88112 -13.5625,2.125 -10.76931,4.04535 -24.04318,15.26779 -27.46875,26.25 -1.64581,5.27632 -3.18583,15.15262 3.28125,17.78125 6.49358,2.6394 20,-10.5 20,-10.5 -2e-5,10e-6 -1.07762,8.36069 3.53125,11.0625 3.15158,1.84751 22.375,-7.0625 22.375,-7.0625 l 0.15625,-3.34375 c -10e-6,0 -5.52985,2.43739 -7.5625,1.34375 -2.13143,-1.14681 -2.40702,-4.76734 -2.375,-7.1875 0.0938,-6.97025 12.87166,-21.79372 11.28125,-27.15625 -0.70631,-2.38159 -4.85817,-3.29723 -9.65625,-3.3125 z m -10.125,8.34375 c 1.40985,0.0404 2.48541,0.41407 2.96875,1 1.20173,1.45677 -3.40467,11.31491 -6.1875,15.46875 -2.88139,4.30093 -9.40961,13.33825 -12.375,12.03125 -3.75468,-1.65488 -2.04308,-12.57896 0.125,-17.28125 3.94043,-8.54638 11.23919,-11.33999 15.46875,-11.21875 z"
           id="path3469" />
        <path
           d="m 804.77699,369.08511 -13.09355,1.19032 -7.48459,18.77223 -7.57722,-0.1046 -3.50722,6.68624 7.96071,0.14791 c 0,0 -7.73821,15.49857 -10.29205,24.76469 -1.12921,4.09714 -1.26041,10.56318 5.95161,12.85548 3.50339,1.11354 18.40069,-4.32002 18.40069,-4.32002 l 1.19033,-3.33291 c 0,0 -8.47451,0.19583 -10.4604,-2.45037 -1.48037,-1.97259 -0.86835,-5.79769 -0.0637,-8.12905 1.9344,-5.60498 7.24054,-18.59792 7.24054,-18.59792 l 7.68779,0.0144 3.3329,-7.03136 -7.92585,-0.10459 8.64005,-20.36049 z"
           id="path3471" />
        <path
           d="m 840.96279,348.84963 -14.99807,3.45193 -32.92906,79.98788 12.96195,-1.68337 7.07015,-15.65534 c 0,0 -0.25054,17.16657 5.14872,21.07101 5.00609,3.62012 20.77518,-1.03891 20.77518,-1.03891 l -0.2525,-4.20842 c 0,0 -8.42477,0.93564 -13.71947,-9.42687 -2.59579,-5.08035 -3.39232,-16.97477 1.54742,-19.30945 7.70336,-3.64086 8.74414,4.42401 6.36442,10.55592 l 2.18838,1.85171 c 0,0 13.77064,-12.60185 10.9419,-17.84372 -2.32516,-4.3087 -8.72,-4.8333 -12.87778,-4.04009 -5.99643,1.14398 -16.41286,12.62527 -16.41286,12.62527 l 24.19162,-56.33755 z"
           id="path3473" />
        <path
           d="m 885.80748,399.61043 c -4.74657,-0.70139 -10.27171,-0.59418 -13.727,0.16327 -11.23719,2.46338 -25.97977,11.67182 -30.94094,22.05114 -2.38357,4.98666 -5.3204,14.54114 0.70421,18.06775 6.04928,3.54106 21.2962,-7.53137 21.2962,-7.53137 -2e-5,10e-6 -2.26239,8.12059 1.91264,11.45384 2.85492,2.2793 23.15511,-3.78951 23.15511,-3.78951 l 1.22208,-3.28703 c -1e-5,0 -6.41079,1.62139 -8.26611,0.24825 -1.94548,-1.43988 -1.70039,-5.06261 -1.32254,-7.4533 1.08983,-6.88517 15.85655,-19.72855 15.04951,-25.26343 -0.3584,-2.45813 -4.33661,-3.95821 -9.08316,-4.65961 z m -11.21433,6.80974 c 1.38957,0.24166 2.40062,0.76531 2.79519,1.41436 0.981,1.61367 -4.98808,10.71158 -8.33643,14.42467 -3.46693,3.84458 -11.22067,11.85522 -13.96863,10.13751 -3.47937,-2.1749 -0.22286,-12.74185 2.59551,-17.08568 5.12234,-7.89489 12.74563,-9.61581 16.91436,-8.89086 z"
           id="path3475" />
        <path
           d="m 903.2964,408.8906 -20.03211,38.04416 12.12027,0 c 0,0 6.98281,-12.24915 11.27858,-18.34874 2.99172,-4.24796 13.84037,-11.2165 15.99201,-8.41684 4.3067,5.60377 -20.46513,25.95538 -9.76354,33.49906 4.71986,3.32709 24.5772,-1.34669 24.5772,-1.34669 l 1.0942,-4.46093 c 0,0 -12.06472,2.38924 -12.37278,-1.76754 -1.91484,-10.07479 22.16947,-29.92884 13.29862,-35.51911 -2.91109,-1.83453 -11.23752,0.3147 -15.65534,2.02004 -5.11017,1.9726 -14.98199,10.4369 -14.98199,10.4369 l 7.40683,-14.982 -12.96195,0.84169 z"
           id="path3477" />
        <path
           d="m 987.83684,423.45992 c -4.64472,-1.20353 -10.14979,-1.68608 -13.66614,-1.3014 -11.4358,1.25109 -27.07625,8.835 -33.1159,18.62612 -2.90171,4.70407 -6.84062,13.89091 -1.2264,18.03983 5.6372,4.16591 21.97787,-5.21757 21.97787,-5.21757 -3e-5,1e-5 -3.11541,7.83305 0.68039,11.59249 2.59558,2.57072 26.24681,-1.50926 26.24681,-1.50926 l 0.89227,-3.26423 c -10e-6,0 -8.69343,1.26523 -10.39175,-0.29792 -1.78085,-1.63912 -1.15085,-5.21506 -0.52024,-7.55183 1.8178,-6.72971 17.86984,-17.92525 17.6576,-23.51463 -0.0942,-2.48233 -3.88982,-4.39806 -8.53451,-5.6016 z m -11.87653,5.57511 c 1.35587,0.38845 2.30532,1.01693 2.62844,1.70435 0.80333,1.70907 -6.10184,10.11862 -9.82703,13.45349 -3.85712,3.45298 -12.42085,10.59115 -14.96998,8.59021 -3.22762,-2.53351 1.13711,-12.69297 4.4026,-16.71149 5.93497,-7.30368 13.69831,-8.2019 17.76597,-7.03656 z"
           id="path3479" />
        <path
           d="m 1037.625,404 c 0,0 -26.8771,25.40182 -37.1875,38.375 -25.51979,32.11052 -11.04169,37.28848 20.1875,36.71875 l 0.5,-2.1875 c 0,10e-6 -7.8595,-1.69126 -10.9688,-3.125 -2.688,-1.23953 -8.2187,-5.46875 -8.2187,-5.46875 0,-10e-6 22.1862,-9.27233 31.8125,-22.71875 7.8024,-10.89873 18.3438,-40.75 18.3438,-40.75 L 1037.625,404 z m 1.5312,11.125 c 0,0 -8.4584,21.88121 -14.3124,29.4375 -5.7821,7.46333 -23.4063,19.375 -23.4063,19.375 0,0 7.6432,-15.31593 16,-23.90625 7.1853,-7.38601 21.7187,-24.90626 21.7187,-24.90625 z"
           id="path3481" />
      </g>
      <g
         transform="translate(-980.82567,363.76253)"
         id="g3403"
         style="fill:url(#linearGradient3535)">
        <path
           d="m 555.84375,357.4375 c -7.42228,0.37352 -12.80606,13.31495 -15.8125,22 -4.29083,12.39542 -5.06252,43.43749 -5.0625,43.4375 l -4.78125,2.6875 c 0.11933,-6.44912 -0.16547,-13.8021 -0.1875,-21.125 -0.0573,-19.0453 -0.0625,-37.625 -0.0625,-37.625 l -11.1875,6.90625 -0.25,10 -6.4375,11.4375 2.625,2.125 3.8125,-5.46875 0.25,37.625 c 0,0 -25.72928,8.21107 -36.125,11.125 -13.16004,3.68876 -42.43751,10.53124 -42.4375,10.53125 0,0 -1.12105,2.80162 -3.34375,5.71875 -2.21423,2.90603 -4.75,4.53126 -4.75,4.53125 0,0 21.46483,18.02562 41.65625,19.5 13.75613,1.01292 31.79765,-5.76717 41.84375,-15.21875 6.58665,-6.19686 11.47401,-18.3898 13.625,-28.8125 0.31843,-1.54298 0.53035,-3.2349 0.6875,-5.0625 l 5.75,-2.65625 c 0,0 -2.02638,28.54287 11.78125,29.625 9.81709,0.76938 31.01617,-15.48051 30.36149,-15.0044 l -2.29318,-4.33778 c 0,0 -17.86406,8.85782 -23.53706,5.02968 -5.96863,-4.02763 -4.53124,-23.56251 -4.53125,-23.5625 0,0 16.48076,-11.09031 18.1875,-32.65625 0.75094,-9.48882 1.07205,-28.70116 -8.25,-30.625 -0.5127,-0.10581 -1.03643,-0.1499 -1.53125,-0.125 z M 551.8125,368 c 3.72779,-0.0797 4.9864,14.26975 5.3125,21.625 0.83025,18.72632 -10.18749,25.84374 -10.1875,25.84375 0,0 -0.50984,-15.93981 -0.1875,-22.75 0.39677,-8.55112 0.16307,-24.61401 5.0625,-24.71875 z m -32.84375,68.65625 c 3e-5,0 2.12319,18.79247 -10.59375,28.96875 -6.67097,5.33819 -23.54879,4.61769 -35.9375,1.25 -11.37849,-3.09309 -19.28125,-7.65625 -19.28125,-7.65625 -10e-6,0 24.35901,-5.93266 34.53125,-9.4375 9.59359,-3.30545 31.28125,-13.125 31.28125,-13.125 z"
           id="path3361"
           style="fill:url(#linearGradient3511)" />
        <path
           d="m 602.84375,396.96875 c -10.47337,0.42214 -27.19356,17.5127 -28.46875,29.09375 -0.87124,7.91231 -1.35735,21.57765 13.28125,22.375 11.63265,0.64278 28.76334,-12.30417 28.76334,-12.30417 l -0.18249,-4.4221 c 0,0 -7.96922,5.33795 -14.08085,5.97627 -5.64591,0.58967 -10.78125,-2.18751 -10.78125,-2.1875 0,0 9.50296,-7.89321 14.8125,-13.46875 1.84043,-1.93263 16.37839,-21.41056 -1.34375,-24.9375 -0.63632,-0.12664 -1.30178,-0.15314 -2,-0.125 z m -7.5,7.5625 c 0.29456,-0.0224 0.57465,-0.0128 0.875,0.0312 3.51991,0.51611 2.76979,7.39856 2.40625,10.9375 -0.64337,6.26269 -9.90624,17.49999 -9.90625,17.5 0,0 -2.8507,-8.29357 -2,-15.9375 0.52512,-4.71833 4.20654,-12.19581 8.625,-12.53125 z"
           id="path3372"
           style="fill:url(#linearGradient3513)" />
        <path
           d="m 633.1155,393.40359 -12.96195,7.23849 c 0,0 -2.72414,18.51677 -3.61925,26.34474 -0.76644,6.70274 -2.70806,15.88924 8.58519,15.31867 6.38829,-0.32036 18.09623,-10.6894 18.09623,-10.6894 l 0.96793,-4.67134 c 0,0 -8.71848,6.16738 -11.99401,4.58717 -4.24789,-2.0493 -3.10008,-11.49027 -2.44089,-16.16035 1.01445,-7.18687 3.36675,-21.96798 3.36675,-21.96798 z"
           id="path3377"
           style="fill:url(#linearGradient3515)" />
        <path
           d="m 637.65572,377.53641 c 0,4.799 -3.41072,8.68935 -7.61806,8.68935 -4.20734,0 -7.61806,-3.89035 -7.61806,-8.68935 0,-4.799 3.41072,-8.68936 7.61806,-8.68936 4.20734,0 7.61806,3.89036 7.61806,8.68936 z"
           transform="translate(-1.7854836,-2.0235481)"
           id="path3379"
           style="fill:url(#linearGradient3517)" />
        <path
           d="m 664.31894,388.72543 -12.49839,4.76129 -10.11774,42.8516 11.90323,-3.57096 c 0,0 4.15662,-17.74112 8.21322,-24.40161 2.21916,-3.64361 5.55117,-9.8672 9.64162,-9.76065 1.31646,0.0343 2.14039,1.56117 1.90451,2.85678 -2.47715,13.60617 -7.85613,33.09096 -7.85613,33.09096 l 12.85548,-4.76129 c 0,0 3.41149,-13.08716 6.48727,-21.84242 1.42053,-4.04359 9.78794,-13.60246 12.93789,-10.61605 3.55127,3.36689 -10.92901,30.73522 0.69129,34.83911 4.62404,1.37255 15.1171,-5.47548 15.1171,-5.47548 l 6.90387,-5.23742 0.71543,-4.9092 c 0,0 -7.92029,6.34219 -11.19027,5.14727 -2.91551,-1.06539 -4.02655,-6.21406 -3.57096,-9.28452 0.91274,-6.15156 4.42202,-14.36887 5.83257,-22.97322 0.32102,-1.95824 -1.0809,-4.17214 -2.9758,-4.76129 -4.4847,-1.39436 -10.78475,2.86922 -14.52194,5.71355 -3.44582,2.62257 -9.40354,10.95096 -9.40354,10.95096 0,0 2.70083,-12.12096 -1.38506,-14.19124 -4.51766,-2.28905 -11.66917,3.90147 -15.63655,7.04931 -3.09211,2.45337 -8.68936,9.87968 -8.68936,9.87968 l 2.49968,-8.21323 2.14258,-7.14193 z"
           id="path3381"
           style="fill:url(#linearGradient3519)" />
        <path
           d="m 762.65625,385.21875 c -4.79808,-0.0153 -10.25108,0.88112 -13.5625,2.125 -10.76931,4.04535 -24.04318,15.26779 -27.46875,26.25 -1.64581,5.27632 -3.18583,15.15262 3.28125,17.78125 6.49358,2.6394 20,-10.5 20,-10.5 -2e-5,10e-6 -1.07762,8.36069 3.53125,11.0625 3.15158,1.84751 22.375,-7.0625 22.375,-7.0625 l 0.15625,-3.34375 c -10e-6,0 -5.52985,2.43739 -7.5625,1.34375 -2.13143,-1.14681 -2.40702,-4.76734 -2.375,-7.1875 0.0938,-6.97025 12.87166,-21.79372 11.28125,-27.15625 -0.70631,-2.38159 -4.85817,-3.29723 -9.65625,-3.3125 z m -10.125,8.34375 c 1.40985,0.0404 2.48541,0.41407 2.96875,1 1.20173,1.45677 -3.40467,11.31491 -6.1875,15.46875 -2.88139,4.30093 -9.40961,13.33825 -12.375,12.03125 -3.75468,-1.65488 -2.04308,-12.57896 0.125,-17.28125 3.94043,-8.54638 11.23919,-11.33999 15.46875,-11.21875 z"
           id="path3383"
           style="fill:url(#linearGradient3521)" />
        <path
           d="m 804.77699,369.08511 -13.09355,1.19032 -7.48459,18.77223 -7.57722,-0.1046 -3.50722,6.68624 7.96071,0.14791 c 0,0 -7.73821,15.49857 -10.29205,24.76469 -1.12921,4.09714 -1.26041,10.56318 5.95161,12.85548 3.50339,1.11354 18.40069,-4.32002 18.40069,-4.32002 l 1.19033,-3.33291 c 0,0 -8.47451,0.19583 -10.4604,-2.45037 -1.48037,-1.97259 -0.86835,-5.79769 -0.0637,-8.12905 1.9344,-5.60498 7.24054,-18.59792 7.24054,-18.59792 l 7.68779,0.0144 3.3329,-7.03136 -7.92585,-0.10459 8.64005,-20.36049 z"
           id="path3388"
           style="fill:url(#linearGradient3523)" />
        <path
           d="m 840.96279,348.84963 -14.99807,3.45193 -32.92906,79.98788 12.96195,-1.68337 7.07015,-15.65534 c 0,0 -0.25054,17.16657 5.14872,21.07101 5.00609,3.62012 20.77518,-1.03891 20.77518,-1.03891 l -0.2525,-4.20842 c 0,0 -8.42477,0.93564 -13.71947,-9.42687 -2.59579,-5.08035 -3.39232,-16.97477 1.54742,-19.30945 7.70336,-3.64086 8.74414,4.42401 6.36442,10.55592 l 2.18838,1.85171 c 0,0 13.77064,-12.60185 10.9419,-17.84372 -2.32516,-4.3087 -8.72,-4.8333 -12.87778,-4.04009 -5.99643,1.14398 -16.41286,12.62527 -16.41286,12.62527 l 24.19162,-56.33755 z"
           id="path3390"
           style="fill:url(#linearGradient3525)" />
        <path
           d="m 885.80748,399.61043 c -4.74657,-0.70139 -10.27171,-0.59418 -13.727,0.16327 -11.23719,2.46338 -25.97977,11.67182 -30.94094,22.05114 -2.38357,4.98666 -5.3204,14.54114 0.70421,18.06775 6.04928,3.54106 21.2962,-7.53137 21.2962,-7.53137 -2e-5,10e-6 -2.26239,8.12059 1.91264,11.45384 2.85492,2.2793 23.15511,-3.78951 23.15511,-3.78951 l 1.22208,-3.28703 c -1e-5,0 -6.41079,1.62139 -8.26611,0.24825 -1.94548,-1.43988 -1.70039,-5.06261 -1.32254,-7.4533 1.08983,-6.88517 15.85655,-19.72855 15.04951,-25.26343 -0.3584,-2.45813 -4.33661,-3.95821 -9.08316,-4.65961 z m -11.21433,6.80974 c 1.38957,0.24166 2.40062,0.76531 2.79519,1.41436 0.981,1.61367 -4.98808,10.71158 -8.33643,14.42467 -3.46693,3.84458 -11.22067,11.85522 -13.96863,10.13751 -3.47937,-2.1749 -0.22286,-12.74185 2.59551,-17.08568 5.12234,-7.89489 12.74563,-9.61581 16.91436,-8.89086 z"
           id="path3392"
           style="fill:url(#linearGradient3527)" />
        <path
           d="m 903.2964,408.8906 -20.03211,38.04416 12.12027,0 c 0,0 6.98281,-12.24915 11.27858,-18.34874 2.99172,-4.24796 13.84037,-11.2165 15.99201,-8.41684 4.3067,5.60377 -20.46513,25.95538 -9.76354,33.49906 4.71986,3.32709 24.5772,-1.34669 24.5772,-1.34669 l 1.0942,-4.46093 c 0,0 -12.06472,2.38924 -12.37278,-1.76754 -1.91484,-10.07479 22.16947,-29.92884 13.29862,-35.51911 -2.91109,-1.83453 -11.23752,0.3147 -15.65534,2.02004 -5.11017,1.9726 -14.98199,10.4369 -14.98199,10.4369 l 7.40683,-14.982 -12.96195,0.84169 z"
           id="path3394"
           style="fill:url(#linearGradient3529)" />
        <path
           d="m 987.83684,423.45992 c -4.64472,-1.20353 -10.14979,-1.68608 -13.66614,-1.3014 -11.4358,1.25109 -27.07625,8.835 -33.1159,18.62612 -2.90171,4.70407 -6.84062,13.89091 -1.2264,18.03983 5.6372,4.16591 21.97787,-5.21757 21.97787,-5.21757 -3e-5,1e-5 -3.11541,7.83305 0.68039,11.59249 2.59558,2.57072 26.24681,-1.50926 26.24681,-1.50926 l 0.89227,-3.26423 c -10e-6,0 -8.69343,1.26523 -10.39175,-0.29792 -1.78085,-1.63912 -1.15085,-5.21506 -0.52024,-7.55183 1.8178,-6.72971 17.86984,-17.92525 17.6576,-23.51463 -0.0942,-2.48233 -3.88982,-4.39806 -8.53451,-5.6016 z m -11.87653,5.57511 c 1.35587,0.38845 2.30532,1.01693 2.62844,1.70435 0.80333,1.70907 -6.10184,10.11862 -9.82703,13.45349 -3.85712,3.45298 -12.42085,10.59115 -14.96998,8.59021 -3.22762,-2.53351 1.13711,-12.69297 4.4026,-16.71149 5.93497,-7.30368 13.69831,-8.2019 17.76597,-7.03656 z"
           id="path3396"
           style="fill:url(#linearGradient3531)" />
        <path
           d="m 1037.625,404 c 0,0 -26.8771,25.40182 -37.1875,38.375 -25.51979,32.11052 -11.04169,37.28848 20.1875,36.71875 l 0.5,-2.1875 c 0,10e-6 -7.8595,-1.69126 -10.9688,-3.125 -2.688,-1.23953 -8.2187,-5.46875 -8.2187,-5.46875 0,-10e-6 22.1862,-9.27233 31.8125,-22.71875 7.8024,-10.89873 18.3438,-40.75 18.3438,-40.75 L 1037.625,404 z m 1.5312,11.125 c 0,0 -8.4584,21.88121 -14.3124,29.4375 -5.7821,7.46333 -23.4063,19.375 -23.4063,19.375 0,0 7.6432,-15.31593 16,-23.90625 7.1853,-7.38601 21.7187,-24.90626 21.7187,-24.90625 z"
           id="path3398"
           style="fill:url(#linearGradient3533)" />
      </g>
    </g>
  </g>
</svg>
