<?xml version="1.0" encoding="UTF-8" standalone="no"?>
<!-- Created with Inkscape (http://www.inkscape.org/) -->

<svg
   xmlns="http://www.w3.org/2000/svg"
   version="1.1"
   width="100%"
   height="100%"
   viewBox="0 0 50 22"
   id="svg2">
  <path
     d="M 1.5128877,19.644748 C 0.50263078,19.284138 0.00378528,18.552178 3.5075011e-5,17.424948 -0.00374492,16.290438 0.29712318,15.736328 1.3283079,14.978618 c 0.662704,-0.48695 2.0436239,-1.21417 3.2825429,-1.72865 0.4260112,-0.1769 0.8171352,-0.40119 0.8691652,-0.4984 0.162791,-0.30418 0.300453,-2.23751 0.367551,-5.1619194 0.06409,-2.79334 0.06294,-2.81652 -0.139619,-2.81652 -0.112333,0 -0.8132401,0.29566 -1.5575724,0.65703 -1.6418929,0.79712 -1.9907212,0.8671 -2.4395363,0.48945 -0.5716256,-0.48099 -1.12788252,-1.63234 -0.88202162,-1.82561 0.063897,-0.0502 0.63212142,-0.1197 1.26272192,-0.15436 1.9680512,-0.10818 3.6799564,-0.56797 4.1862504,-1.12435 0.538627,-0.59191 1.152406,-0.76592 1.700984,-0.48224 0.221413,0.1145 0.294148,0.22242 0.294148,0.43644 0,0.15638 -0.06975,0.34222 -0.154993,0.41297 -0.341787,0.28365 -0.376923,0.54239 -0.398761,2.93637 -0.01201,1.31617 -0.07765,3.0968696 -0.145882,3.9571094 -0.06823,0.86024 -0.09672,1.6353 -0.06332,1.72235 0.05219,0.136 0.148733,0.11405 0.686019,-0.15598 1.012909,-0.50906 1.143614,-0.63321 1.325542,-1.25902 0.350323,-1.2050698 0.805811,-1.8215698 1.345829,-1.8215698 0.56876,0 0.645914,0.55114 0.239421,1.7102698 -0.377206,1.07562 -0.436055,1.35844 -0.438686,2.1082 -0.003,0.86557 0.184185,1.26622 0.591705,1.26622 0.220433,0 0.372504,-0.1015 0.63487,-0.42373 0.612608,-0.75238 0.944494,-1.53338 1.054109,-2.48054 0.227805,-1.9683998 0.981971,-2.9846794 1.793216,-2.4164698 0.209504,0.14675 0.228314,0.22274 0.191239,0.77268 -0.02585,0.38343 -0.146343,0.84214 -0.324486,1.2352698 -0.264083,0.58279 -0.279444,0.68593 -0.225691,1.51563 0.09072,1.40024 0.50447,2.09888 1.065268,1.79875 0.275553,-0.14747 0.923418,-0.98044 1.388046,-1.78463 0.36442,-0.63075 0.386143,-0.71939 0.496486,-2.0260598 0.350853,-4.1547596 1.272762,-6.5575196 2.516714,-6.5592996 0.316446,-3.7e-4 0.737658,0.31462 0.93766,0.70138 0.34066,0.65876 0.07606,2.2752 -0.636919,3.8908796 -0.349691,0.79244 -0.921945,1.86301 -1.233054,2.3067898 -0.23733,0.33854 0.05142,0.3194 0.303827,-0.0201 0.4456,-0.5994298 1.278917,-1.3733898 1.722208,-1.5995398 0.331676,-0.16921 0.544558,-0.20696 0.968717,-0.17178 0.677573,0.0562 0.911579,0.30708 0.914855,0.98088 0.0037,0.7640698 -0.247857,1.3077098 -0.912914,1.9727598 -0.568825,0.56883 -0.600216,0.62474 -0.537731,0.95782 0.08912,0.47504 0.730851,1.14995 1.093428,1.14995 0.679115,0 1.304939,-0.6598 1.712113,-1.80507 0.501551,-1.41071 1.295935,-2.5473898 2.054382,-2.9395998 0.702585,-0.36332 1.797603,-0.25024 2.170778,0.22418 0.292396,0.37172 0.259889,0.8888 -0.101314,1.6116298 -0.392832,0.78613 -1.119551,1.42891 -2.010861,1.7786 -0.641899,0.25184 -0.674072,0.2801 -0.674072,0.5921 0,0.20275 0.0918,0.43427 0.240826,0.60737 0.208826,0.24257 0.307222,0.27777 0.740521,0.26494 0.782902,-0.0232 1.633285,-0.6702 2.69327,-2.04917 0.07173,-0.0933 0.216802,-0.86818 0.322371,-1.72189 0.532521,-4.3063994 1.469734,-6.7324594 2.600814,-6.7324594 0.397982,0 0.917802,0.51909 1.087707,1.08618 0.162482,0.54232 -9.26e-4,1.8034 -0.375898,2.90181 -0.340383,0.9969596 -1.112315,2.6153896 -1.56214,3.2751794 -0.418646,0.61406 -0.463557,1.03794 -0.203,1.91603 0.275418,0.92817 0.646762,1.28378 1.1965,1.14581 0.269757,-0.0677 0.836209,-0.86825 0.836209,-1.18178 0,-0.10423 -0.174871,-0.38817 -0.388604,-0.63099 -0.531401,-0.6037 -0.708093,-1.01799 -0.708093,-1.66026 0,-0.5183898 0.02219,-0.5659598 0.446421,-0.9569998 0.947432,-0.87331 1.597672,-0.29456 1.804876,1.6064498 0.08529,0.78249 0.182992,0.97304 0.498904,0.97304 0.47706,0 0.819323,-0.28029 1.248371,-1.02233 0.601571,-1.0404198 1.104635,-1.4943698 1.891722,-1.7069998 0.352021,-0.0951 0.763416,-0.22076 0.914212,-0.27923 0.739984,-0.28695 1.325306,0.51661 1.447839,1.9876598 0.07082,0.85017 0.07909,0.87211 0.340136,0.90226 0.458884,0.053 1.379001,-0.5292 1.376205,-0.87081 -7.41e-4,-0.0864 -0.09044,-0.4415 -0.199399,-0.7890998 -0.261218,-0.83331 -0.25025,-1.13518 0.0544,-1.49723 0.342474,-0.40701 0.847562,-0.57019 1.215228,-0.39261 0.275397,0.13302 0.277006,0.13957 0.277229,1.12842 1.85e-4,0.76369 0.04128,1.0698598 0.177035,1.3186498 0.09725,0.17821 0.212702,0.32403 0.256571,0.32403 0.133896,0 0.441067,-0.39637 1.260525,-1.6265498 0.841993,-1.26401 1.225214,-1.6635396 1.595635,-1.6635396 0.268835,0 1.081687,0.5837596 1.124837,0.8078196 0.01643,0.0853 -0.349725,0.48726 -0.846993,0.92972 -1.485717,1.3219698 -2.321587,2.3059398 -2.321587,2.7329198 0,0.26507 0.749583,1.08417 1.204566,1.31629 0.99595,0.50809 1.661864,0.0205 2.687916,-1.96799 0.249064,-0.48269 0.495821,-0.87762 0.548348,-0.87762 0.202432,0 0.148578,0.73463 -0.102814,1.40252 -0.764585,2.03132 -1.88144,3.23351 -3.003972,3.23351 -0.543633,0 -1.32108,-0.4084 -1.819034,-0.95555 -0.226438,-0.24881 -0.457981,-0.42378 -0.514541,-0.38883 -0.05656,0.035 -0.303902,0.46391 -0.54965,0.95322 -0.245749,0.48931 -0.49123,0.88966 -0.545515,0.88966 -0.175061,0 -0.497497,-0.39257 -0.497497,-0.60571 0,-0.1138 0.179459,-0.66591 0.398799,-1.22691 0.456242,-1.16692 0.477895,-1.36546 0.192611,-1.7661 -0.245709,-0.34507 -0.395814,-0.36262 -0.650733,-0.0761 -0.257132,0.28902 -0.914533,0.57926 -1.318103,0.58193 -0.502973,0.003 -0.68368,0.15172 -0.870793,0.71507 -0.329196,0.99112 -1.191769,1.58301 -2.299686,1.57803 -1.16588,-0.005 -1.929886,-0.82246 -1.93202,-2.06658 -5.56e-4,-0.36755 -0.06172,-0.38412 -0.778931,-0.21127 -0.584731,0.14093 -0.652718,0.20952 -0.868608,0.87638 -0.390823,1.20722 -1.380681,1.78276 -2.597709,1.5104 -0.704351,-0.15762 -1.327117,-0.72666 -1.589852,-1.45269 -0.09922,-0.27418 -0.210038,-0.53331 -0.246264,-0.57586 -0.03623,-0.0425 -0.450531,0.30558 -0.920679,0.77362 -1.0297,1.02507 -1.698491,1.38014 -2.617888,1.38985 -0.823466,0.009 -1.312902,-0.25437 -1.669745,-0.89747 -0.149763,-0.26991 -0.316235,-0.48012 -0.369938,-0.46713 -0.0537,0.013 -0.29703,0.22301 -0.54073,0.46671 -1.254915,1.25491 -2.257079,1.12551 -3.029482,-0.39118 -0.111859,-0.21965 -0.25445,-0.58902 -0.316871,-0.82083 -0.06242,-0.23181 -0.201695,-0.46867 -0.309502,-0.52637 -0.110438,-0.0591 -0.196013,-0.20831 -0.196013,-0.34175 0,-0.18057 0.102243,-0.28634 0.430276,-0.44514 0.236652,-0.11456 0.479421,-0.2083 0.539486,-0.2083 0.288582,0 1.00495,-1.24182 0.889668,-1.5422398 -0.08038,-0.20948 -0.308902,-0.28778 -0.615375,-0.21086 -0.316046,0.0793 -1.054753,1.0650098 -1.500627,2.0023498 -0.27059,0.56886 -0.344849,0.86999 -0.401595,1.6286 l -0.06962,0.9307 -0.360561,0.2386 c -0.778978,0.51551 -1.294859,0.38306 -1.314383,-0.33745 -0.0055,-0.20171 -0.04076,-0.4773 -0.07842,-0.61242 -0.06813,-0.24437 -0.07003,-0.24364 -0.363935,0.14047 -0.923379,1.20678 -1.588854,1.69402 -2.160757,1.58204 -0.413539,-0.081 -0.934986,-0.61251 -1.277631,-1.30237 -0.170226,-0.34272 -0.339075,-0.62312 -0.375221,-0.62312 -0.03615,0 -0.316792,0.26385 -0.623656,0.58633 -0.67306,0.70732 -1.091101,0.94051 -1.704934,0.95106 -0.795087,0.0137 -1.173039,-0.5309 -1.2739,-1.83548 -0.04561,-0.58987 -0.09276,-0.7534 -0.224477,-0.77849 -0.09171,-0.0175 -0.529754,0.17916 -0.973429,0.43695 -0.795947,0.46248 -0.808682,0.47616 -0.956909,1.02775 -0.807765,3.00587 -1.492655,4.41721 -2.5775344,5.31146 -0.8514092,0.7018 -2.0689216,0.94183 -3.0325649,0.59786 z m 1.7053378,-1.14818 c 0.5826327,-0.24344 1.3174796,-1.44505 1.7081312,-2.7931 0.3182053,-1.09806 0.3360953,-1.55856 0.06055,-1.55856 -0.2826595,0 -1.7535666,0.77999 -2.4169153,1.28164 -0.736114,0.55668 -1.0273493,1.11953 -0.94389,1.82421 0.093871,0.79259 0.5391211,1.3529 1.091763,1.37389 0.097722,0.004 0.3228841,-0.0539 0.5003608,-0.12808 z m 35.4656755,-5.33589 c 0.343037,-0.34303 0.462581,-0.7457 0.309364,-1.04204 -0.0617,-0.11934 -0.245881,-0.46373 -0.409296,-0.76533 -0.184561,-0.34061 -0.298515,-0.69942 -0.300801,-0.94714 -0.0069,-0.7497098 -0.274516,-0.8350898 -0.725491,-0.2315 -0.444248,0.59458 -0.685959,1.87488 -0.474775,2.51478 0.251647,0.76249 1.069123,1.00311 1.600999,0.47123 z m -12.260223,-1.79034 c 0.538872,-0.34293 0.673052,-0.49891 0.79503,-0.92422 0.118673,-0.41379 -0.0931,-0.7876998 -0.446136,-0.7876998 -0.520927,0 -1.251598,0.9787398 -1.251598,1.6765198 0,0.26498 0.03799,0.31747 0.22973,0.31747 0.126351,0 0.429189,-0.12693 0.672974,-0.28207 z m 5.349804,-3.1038998 c 0.515374,-1.0206796 0.891025,-2.5121496 0.735652,-2.9208196 -0.2485,-0.6536 -0.716407,-0.12852 -1.044616,1.17226 -0.141722,0.56168 -0.360359,2.0622496 -0.360359,2.4732596 0,0.36951 0.257718,0.0905 0.669323,-0.7247 z M 19.702627,7.2437086 c 0.413859,-1.22326 0.478681,-2.27118 0.140491,-2.27118 -0.152047,0 -0.369031,0.48699 -0.488647,1.0967 -0.182279,0.92911 -0.317636,2.1068196 -0.253981,2.2098096 0.09514,0.15395 0.34529,-0.27615 0.602137,-1.0353296 z M 42.585724,18.732398 c -1.925268,-0.58976 -5.35726,-1.12115 -9.138622,-1.41496 -2.277646,-0.17697 -12.055793,-0.17861 -14.705709,-0.002 -4.009042,0.26649 -7.677249,0.68749 -9.766061,1.12085 -1.094566,0.22708 -1.299869,0.23705 -1.644867,0.0799 -0.306905,-0.13984 -0.326729,-0.33683 -0.04886,-0.48554 0.487931,-0.26113 3.636362,-0.76244 7.4718,-1.18969 9.323536,-1.0386 18.777978,-1.2854 24.725531,-0.64543 3.081329,0.33156 4.37695,0.65653 4.722972,1.18463 0.378857,0.5782 0.271167,1.23846 -0.245576,1.50568 -0.345627,0.17873 -0.254764,0.18887 -1.370607,-0.15294 z"
     id="path2997"
     style="fill:#3bb7cd" />
</svg>
