<?xml version="1.0" encoding="UTF-8" standalone="no"?>
<!-- Created with Inkscape (http://www.inkscape.org/) -->

<svg
   xmlns="http://www.w3.org/2000/svg"
   width="100%"
   height="100%"
   viewBox="0 0 66 22"
   id="svg2"
   version="1.1">
  <g
     id="layer1"
     transform="translate(43.065008,-2227.6203)">
    <g
       transform="matrix(1.1455648,0,0,-1.1455648,-506.77509,2667.4263)"
       id="g3545">
      <g
         id="g3547"
         clip-path="url(#clipPath3549)">
        <g
           id="g3553"
           transform="translate(447.981,369.1597)">
          <path
             d="M 0,0 C 0,-0.085 -0.026,-0.159 -0.076,-0.222 -0.126,-0.275 -0.192,-0.3 -0.271,-0.3 l -1.721,0 c -0.071,0 -0.136,0.025 -0.196,0.078 -0.051,0.063 -0.076,0.137 -0.076,0.222 l 0,4.437 C -2.404,4.384 -2.596,4.336 -2.836,4.295 -3.068,4.252 -3.356,4.232 -3.697,4.232 l -2.822,0 C -7.183,4.232 -7.726,4.227 -8.148,4.215 -8.561,4.205 -8.893,4.156 -9.145,4.073 -9.326,4.02 -9.461,3.935 -9.552,3.82 -9.632,3.713 -9.683,3.54 -9.702,3.296 l 0,-3.296 c 0,-0.085 -0.027,-0.159 -0.076,-0.222 C -9.829,-0.275 -9.894,-0.3 -9.975,-0.3 l -1.705,0 c -0.07,0 -0.135,0.025 -0.196,0.078 -0.051,0.063 -0.075,0.137 -0.075,0.222 l 0,10.506 c 0,0.085 0.024,0.153 0.075,0.206 0.061,0.053 0.126,0.08 0.196,0.08 l 1.705,0 c 0.081,0 0.146,-0.027 0.197,-0.08 0.049,-0.053 0.076,-0.121 0.076,-0.206 l 0,-4.436 c 0.15,0.052 0.341,0.1 0.573,0.141 0.241,0.044 0.533,0.064 0.875,0.064 l 2.822,0 c 0.664,0 1.201,0.005 1.614,0.016 0.422,0.01 0.755,0.059 0.996,0.142 0.201,0.053 0.342,0.143 0.423,0.27 0.08,0.127 0.12,0.333 0.12,0.618 l 0,3.185 c 0,0.085 0.025,0.153 0.076,0.206 0.06,0.053 0.125,0.08 0.197,0.08 l 1.735,0 c 0.069,0 0.13,-0.027 0.181,-0.08 C -0.031,10.659 0,10.591 0,10.506 L 0,0 z"
             style="fill:#f1511b"
             id="path3555" />
        </g>
        <g
           id="g3557"
           transform="translate(449.8661,377.9075)">
          <path
             d="m 0,0 0.006,1.758 c 0,0.085 0.025,0.154 0.074,0.206 0.059,0.054 0.126,0.08 0.195,0.08 l 6.798,0 c 1.068,0 1.947,-0.053 2.635,-0.159 0.699,-0.095 1.252,-0.264 1.662,-0.507 0.409,-0.243 0.694,-0.566 0.854,-0.966 0.16,-0.391 0.239,-0.877 0.239,-1.459 l -0.015,-4.896 c 0,-0.592 -0.08,-1.088 -0.239,-1.49 -0.16,-0.39 -0.444,-0.706 -0.854,-0.95 -0.41,-0.243 -0.963,-0.418 -1.662,-0.523 -0.689,-0.095 -1.562,-0.141 -2.62,-0.141 l -6.798,0 c -0.08,0 -0.15,0.025 -0.209,0.078 -0.05,0.063 -0.075,0.137 -0.075,0.221 l 0.009,6.63 2.236,0 0,-4.872 4.837,0 c 0.659,0 1.192,0.007 1.601,0.017 0.42,0.01 0.75,0.059 0.989,0.144 0.2,0.063 0.339,0.158 0.42,0.284 0.089,0.127 0.134,0.327 0.134,0.602 l 0,4.88 c 0,0.286 -0.045,0.492 -0.134,0.619 -0.081,0.127 -0.22,0.222 -0.42,0.285 C 9.424,-0.085 9.094,-0.043 8.674,-0.033 8.265,-0.011 7.732,0 7.073,0 L 2.236,0 0,0 z"
             style="fill:#f1511b"
             id="path3559" />
        </g>
        <g
           id="g3561"
           transform="translate(404.7957,372.5515)">
          <path
             d="m 0,0 -0.008,0.032 0,-6.874 c 0,-0.547 0.355,-0.993 0.794,-0.993 l 1.344,0 L 0.634,-2.333 0,0 z"
             style="fill:#f1511b"
             id="path3563" />
        </g>
        <g
           id="g3565"
           transform="translate(432.6943,383.9207)">
          <path
             d="m 0,0 -27.113,0 c -0.439,0 -0.794,-0.444 -0.794,-0.995 l 0,-4.423 c 0.087,-4.383 1.643,-7.193 4.754,-8.436 2.815,-1.127 5.862,-0.757 8.012,0.963 -0.279,1.02 -0.911,3.253 -0.927,3.311 0.035,0.389 0.093,3.08 0.093,3.449 2.635,0.57 4.666,2.184 4.951,4.322 1.408,0.16 4.498,0.756 5.808,1.186 0.26,-0.606 0.513,-1.295 0.723,-2.015 -0.003,0.008 -0.004,0.017 -0.007,0.026 1.009,-2.229 4.517,-11.289 5.293,-13.317 l 0,14.934 C 0.793,-0.444 0.439,0 0,0"
             style="fill:#f1511b"
             id="path3567" />
        </g>
        <g
           id="g3569"
           transform="translate(420.0862,375.016)">
          <path
             d="m 0,0 c -1.105,-0.32 -2.374,-0.513 -3.46,-0.675 0.016,-0.058 0.648,-2.291 0.927,-3.311 C -1.362,-3.05 -0.455,-1.715 0,0"
             style="fill:#b5181e"
             id="path3571" />
        </g>
        <g
           id="g3573"
           transform="translate(428.2014,381.2822)">
          <path
             d="m 0,0 c 0.313,-1.069 0.53,-2.207 0.53,-3.248 0,-6.868 -5.3,-12.723 -12.979,-12.723 -2.28,0 -4.57,0.945 -6.408,2.015 -2.199,1.47 -3.607,2.98 -4.557,5.338 l 0,-0.081 0.008,-0.032 0.635,-2.333 1.495,-5.502 0.186,0 25.583,0 c 0.439,0 0.793,0.447 0.793,0.994 l 0,2.282 C 4.509,-11.263 1.002,-2.203 -0.007,0.026 -0.004,0.018 -0.003,0.008 0,0"
             style="fill:#b5181e"
             id="path3575" />
        </g>
        <g
           id="g3577"
           transform="translate(409.3445,367.3261)">
          <path
             d="m 0,0 c 1.838,-1.07 4.128,-2.015 6.407,-2.015 7.68,0 12.98,5.855 12.98,12.723 0,1.041 -0.218,2.179 -0.53,3.248 -0.21,0.72 -0.463,1.41 -0.723,2.015 -1.31,-0.429 -4.4,-1.025 -5.808,-1.186 C 12.04,12.648 10.01,11.034 7.374,10.464 7.375,10.095 7.317,7.404 7.282,7.015 8.368,7.177 9.637,7.37 10.742,7.69 10.286,5.975 9.379,4.64 8.208,3.704 6.058,1.984 3.012,1.614 0.197,2.74 -2.914,3.984 -4.47,6.793 -4.557,11.176 l 0,-5.678 0,-0.121 0,-0.039 C -3.607,2.98 -2.199,1.47 0,0"
             style="fill:#ffffff"
             id="path3579" />
        </g>
      </g>
    </g>
  </g>
</svg>
