<?xml version="1.0" encoding="UTF-8" standalone="no"?>
<!-- Created with Inkscape (http://www.inkscape.org/) -->

<svg
   xmlns="http://www.w3.org/2000/svg"
   width="100%"
   height="100%"
   viewBox="0 0 136 22"
   id="svg13526"
   version="1.1">
  <defs
     id="defs13528" />
   <g
     id="layer1"
     transform="translate(241.25938,-433.84022)">
    <path
       d="m -215.08624,437.09893 c 0,-0.58508 -0.47364,-1.05871 -1.05871,-1.05871 l -24.05572,0 c -0.58508,0 -1.05871,0.47363 -1.05871,1.05871 l 0,15.33532 c 0,0.5811 0.47363,1.05472 1.05871,1.05472 l 24.05572,0 c 0.58507,0 1.05871,-0.47362 1.05871,-1.05472 l 0,-15.33532"
       style="fill:#f25323"
       id="path4427" />
    <path
       d="m -241.23948,445.79544 c 0.79204,2.15722 2.3204,3.84478 4.33035,5.17413 1.67562,0.96319 3.53433,1.66368 5.60796,1.65572 6.98109,-0.036 11.41094,-5.12636 11.37911,-11.36716 -0.006,-1.58408 -0.46966,-3.08856 -1.06667,-4.45373 -1.19005,0.39801 -3.68159,0.91144 -4.95921,1.06269 -0.2509,1.94626 -1.99005,3.31542 -4.38607,3.84477 0,0.33831 -0.0837,2.4995 -0.11558,2.85373 0.98707,-0.15124 2.18507,-0.37015 3.19204,-0.66866 -1.15423,4.42986 -5.64776,6.36816 -9.61194,4.82389 -2.62686,-1.02687 -4.35025,-3.20399 -4.37015,-7.39105 l 0,4.46567"
       style="fill:#ffffff"
       id="path4431" />
    <path
       d="m -112.27232,453.64022 c -2.6189,0 -4.60497,-0.55722 -6.30049,-2.27662 l 2.18109,-2.18109 c 1.09055,1.09055 2.56717,1.45273 4.16717,1.45273 1.98607,0 3.05273,-0.75223 3.05273,-2.13333 0,-0.60497 -0.16716,-1.11442 -0.5333,-1.45274 -0.33834,-0.31427 -0.72441,-0.48557 -1.52441,-0.60497 l -2.08557,-0.29071 c -1.47662,-0.21906 -2.56717,-0.68059 -3.34328,-1.43283 -0.82389,-0.82388 -1.23782,-1.93831 -1.23782,-3.39105 0,-3.07661 2.2806,-5.23383 6.00995,-5.23383 2.37612,0 4.09951,0.5811 5.57612,2.00995 l -2.13333,2.10946 c -1.09055,-1.04279 -2.4,-1.19005 -3.53831,-1.19005 -1.79104,0 -2.66666,0.99502 -2.66666,2.18109 0,0.43781 0.14742,0.8995 0.50945,1.23781 0.33831,0.31459 0.8995,0.5811 1.6,0.67662 l 2.03781,0.29452 c 1.57214,0.21493 2.56716,0.65274 3.29552,1.32936 0.9194,0.87562 1.32935,2.13333 1.32935,3.66169 0,3.34328 -2.78607,5.23383 -6.39602,5.23383 z m -13.90646,0 c -1.83881,0 -3.39105,-0.62886 -4.65274,-1.89055 -0.74826,-0.75224 -1.20995,-1.62388 -1.40498,-2.59104 -0.19104,-0.97115 -0.29038,-2.4 -0.29038,-4.29055 0,-1.89055 0.0993,-3.3194 0.29038,-4.29054 0.19519,-0.99503 0.65672,-1.8428 1.40498,-2.59105 1.26169,-1.26169 2.81393,-1.89055 4.65274,-1.89055 3.32338,0 5.77114,1.93831 6.35224,5.45274 l -3.41891,0 c -0.36219,-1.4806 -1.28159,-2.44776 -2.90547,-2.44776 -0.92339,0 -1.65174,0.2907 -2.15722,0.89552 -0.70447,0.75224 -0.84776,1.52836 -0.84776,4.87164 0,3.34328 0.14329,4.1194 0.84776,4.87164 0.50548,0.60498 1.23383,0.89552 2.15722,0.89552 1.62388,0 2.54328,-0.97114 2.90547,-2.44776 l 3.41891,0 c -0.5811,3.51443 -3.05274,5.45274 -6.35224,5.45274 z m -9.20199,-0.14711 -3.36869,0 0,-17.25493 3.36869,0 0,17.25493 z m -3.36717,0 z m -8.82786,0.14711 c -2.6189,0 -4.60497,-0.55722 -6.3005,-2.27662 l 2.1811,-2.18109 c 1.09055,1.09055 2.56716,1.45273 4.16716,1.45273 1.98607,0 3.05274,-0.75223 3.05274,-2.13333 0,-0.60497 -0.16716,-1.11442 -0.53333,-1.45274 -0.33831,-0.31427 -0.72438,-0.48557 -1.52438,-0.60497 l -2.08557,-0.29071 c -1.47662,-0.21906 -2.56717,-0.68059 -3.34329,-1.43283 -0.82388,-0.82388 -1.23781,-1.93831 -1.23781,-3.39105 0,-3.07661 2.2806,-5.23383 6.00995,-5.23383 2.37612,0 4.09552,0.5811 5.57612,2.00995 l -2.13333,2.10946 c -1.09055,-1.04279 -2.4,-1.19005 -3.53831,-1.19005 -1.79503,0 -2.66667,0.99502 -2.66667,2.18109 0,0.43781 0.14743,0.8995 0.50946,1.23781 0.3383,0.31459 0.89552,0.5811 1.6,0.67662 l 2.03383,0.29452 c 1.57612,0.21493 2.57114,0.65274 3.29552,1.32936 0.92338,0.87562 1.33333,2.13333 1.33333,3.66169 0,3.34328 -2.78607,5.23383 -6.39602,5.23383 z m -14.08557,0 c -2.6189,0 -4.60497,-0.55722 -6.30448,-2.27662 l 2.18508,-2.18109 c 1.09054,1.09055 2.56716,1.45273 4.16716,1.45273 1.98607,0 3.05274,-0.75223 3.05274,-2.13333 0,-0.60497 -0.17131,-1.11442 -0.53334,-1.45274 -0.3383,-0.31427 -0.72835,-0.48557 -1.52835,-0.60497 l -2.0816,-0.29071 c -1.48059,-0.21906 -2.57114,-0.68059 -3.34726,-1.43283 -0.82388,-0.82388 -1.23383,-1.93831 -1.23383,-3.39105 0,-3.07661 2.27662,-5.23383 6.00995,-5.23383 2.37612,0 4.09552,0.5811 5.57214,2.00995 l -2.12935,2.10946 c -1.09055,-1.04279 -2.4,-1.19005 -3.53831,-1.19005 -1.79503,0 -2.66667,0.99502 -2.66667,2.18109 0,0.43781 0.14328,0.8995 0.50945,1.23781 0.33831,0.31459 0.89552,0.5811 1.6,0.67662 l 2.03383,0.29452 c 1.57612,0.21493 2.57115,0.65274 3.29553,1.32936 0.92338,0.87562 1.33333,2.13333 1.33333,3.66169 0,3.34328 -2.78607,5.23383 -6.39602,5.23383 z m -14.77015,-12.31045 -2.18109,6.27662 4.28656,0 -2.10547,-6.27662 z m 4.02388,12.16319 -1.0189,-3.05274 -6.13334,0 -1.04279,3.05274 -3.51044,0 6.27661,-17.25374 2.63881,0 6.3005,17.25374 -3.51045,0 z m -24.29055,0 0,-17.25374 3.37115,0 0,14.24876 7.82886,0 0,3.00498 -11.20001,0 z m -8.67263,0.1471 c -1.84279,0 -3.39503,-0.62886 -4.65274,-1.89055 -0.75224,-0.75223 -1.21393,-1.62388 -1.40497,-2.59104 -0.19519,-0.97114 -0.29071,-2.4 -0.29071,-4.29055 0,-1.89055 0.0955,-3.3194 0.29071,-4.29054 0.19104,-0.99503 0.65273,-1.84279 1.40497,-2.59105 1.25771,-1.26169 2.80995,-1.89055 4.65274,-1.89055 3.3194,0 5.76716,1.93831 6.34825,5.45274 l -3.41492,0 c -0.36617,-1.4806 -1.28557,-2.44776 -2.90945,-2.44776 -0.91941,0 -1.64776,0.2907 -2.15722,0.89552 -0.70447,0.75224 -0.84776,1.52836 -0.84776,4.87164 0,3.34329 0.14329,4.11941 0.84776,4.87164 0.50946,0.60498 1.23781,0.89553 2.15722,0.89553 1.62388,0 2.54328,-0.97115 2.90945,-2.44776 l 3.41492,0 c -0.58109,3.51442 -3.05273,5.45273 -6.34825,5.45273"
       style="fill:#231f20"
       id="path4435" />
  </g>
</svg>
