<?xml version="1.0" encoding="UTF-8" standalone="no"?>
<!-- Created with Inkscape (http://www.inkscape.org/) -->

<svg
   xmlns="http://www.w3.org/2000/svg"
   xmlns:xlink="http://www.w3.org/1999/xlink"
   version="1.1"
   width="100%"
   height="100%"
   viewBox="0 0 72 22"
   id="svg2">
  <defs
     id="defs4">
    <linearGradient
       id="linearGradient4119">
      <stop
         id="stop4121"
         style="stop-color:#ffffff;stop-opacity:0"
         offset="0" />
      <stop
         id="stop4123"
         style="stop-color:#000000;stop-opacity:0.66666669"
         offset="1" />
    </linearGradient>
    <linearGradient
       id="linearGradient3803">
      <stop
         id="stop3805"
         style="stop-color:#c79333;stop-opacity:1"
         offset="0" />
      <stop
         id="stop3807"
         style="stop-color:#fce119;stop-opacity:1"
         offset="1" />
    </linearGradient>
    <radialGradient
       cx="127.73074"
       cy="447.36218"
       r="111.48074"
       fx="127.73074"
       fy="447.36218"
       id="radialGradient4125"
       xlink:href="#linearGradient4119"
       gradientUnits="userSpaceOnUse"
       gradientTransform="matrix(0.71535379,-0.01248403,0.00760932,0.43602598,32.953947,253.89524)" />
    <filter
       color-interpolation-filters="sRGB"
       id="filter4155">
      <feGaussianBlur
         id="feGaussianBlur4157"
         stdDeviation="3.2264243" />
    </filter>
    <linearGradient
       x1="-15.884295"
       y1="594.87506"
       x2="233.2403"
       y2="322.01791"
       id="linearGradient4159"
       xlink:href="#linearGradient3803"
       gradientUnits="userSpaceOnUse" />
  </defs>
  <g
     transform="translate(-8.0440285,-529.45833)"
     id="layer1">
    <path
       d="m 231,370.61218 7.5,18.5 c 1.03736,3.32032 -1.93249,6.78796 -4.75,10.25 l -37.75,38.25 c -3.28298,1.73146 -6.64823,3.90166 -9.25,2 -10.31382,-16.4849 -7.33333,-17.83333 -11,-26.75 -0.51975,-2.01397 -0.59752,-4.41467 -4.75,-3.25 -3.55975,1.94705 -6.77454,3.92673 -9,6 l -25.25,24.75 c -4.62454,1.94821 -7.73747,1.04115 -10.25,-1 l -7.25,-32.75 c -3.59249,1.83546 -6.70704,4.49087 -10.11872,7.23483 L 76,442.86218 l 3,27.25 12.75,-16.25 c 5.138641,-14.70808 16.75996,-2.43376 16.5,0.75 l 10.75,42.75 30.5,-48 c 2.42362,-4.90678 16.70502,3.74625 17.25,15.75 l 0.5,34.75 -65,30.75 -60.5,-47 -25,-34 14.75,-50.75 68.75,-33 88.5,-1.75 z"
       transform="matrix(0.07174473,0,0,0.07174473,7.4671424,509.30858)"
       id="path4117"
       style="fill:url(#radialGradient4125);filter:url(#filter4155)" />
    <g
       transform="matrix(0.07174473,0,0,0.07174473,7.4671424,509.30858)"
       id="g3991">
      <path
         d="m 209.62095,399.18365 27.67476,-27.42632 C 209.84347,325.91573 155.5659,302.79844 103.51905,314.77747 37.597639,329.94986 -3.5066109,395.53359 11.710146,461.26282 c 15.216756,65.72922 80.992245,106.71364 146.913664,91.54124 65.92142,-15.17238 107.02566,-80.7561 91.58139,-146.64162 l -94.44627,92.18188 c -1.65569,1.12832 -7.66735,2.96092 -8.21877,-3.32972 l -0.68234,-53.76346 -18.41266,18.19077 c -0.83921,0.76186 -2.11166,1.07024 -5.76659,1.13456 l -29.107141,0 c -3.964644,-0.13308 -5.012007,-5.06025 -5,-6.96429 L 88.44516,439.38156 68.571429,458.07647 c -1.736328,1.62051 -3.814537,2.36831 -5.178572,2.5 l -29.821428,-0.28411 c -2.926885,-0.30074 -4.338118,-2.55989 -4.437671,-3.83882 -0.06879,-1.50817 1.44665,-3.07665 2.830528,-4.4485 L 69.564947,413.79377 C 122.73211,337.68173 167.55977,327.55238 209.62095,399.18365 z"
         id="path3790"
         style="fill:url(#linearGradient4159);fill-opacity:1;stroke:#e6c535;stroke-width:1px;stroke-linecap:butt;stroke-linejoin:round;stroke-opacity:1" />
      <path
         d="m 94.699327,332.84322 c 1.67623,-1.81299 5.559923,-0.046 5.592413,3.2583 l 0.3418,34.86776 34.57703,-38.16497 c 1.67471,-1.75429 5.51878,-1.33146 5.91221,2.69282 l 0.49438,40.71847 19.71217,-22.42174 c 11.80956,-17.60816 7.2082,-37.83785 -11.01641,-51.01907 -23.33865,-16.88002 -60.994252,-16.74577 -84.106145,0.29987 -23.111893,17.04563 -23.92503,45.83241 0.434801,61.81804 z"
         transform="matrix(1.4777092,0,0,1.320591,-29.051557,-68.045309)"
         id="path3773"
         style="fill:#fdfba3;fill-opacity:1;stroke:#e6c535;stroke-width:0.71584886;stroke-linejoin:round;stroke-miterlimit:4;stroke-opacity:1;stroke-dasharray:none;marker-start:none" />
    </g>
    <path
       d="m 28.701768,542.88432 1.042918,-3.89433 1.085979,-0.0227 0.52543,1.54348 1.358871,-1.53099 1.17316,0 -1.039116,3.86775 -1.039957,0 0.543155,-2.19281 -1.412833,1.4867 -0.570726,-1.4857 -0.597352,2.22934 z"
       id="path3997" />
    <path
       d="m 36.310766,538.86068 c -0.108984,-8.8e-4 -0.21997,0.009 -0.331819,0.0291 -1.26118,0.22346 -1.944349,0.95775 -2.042483,2.06042 -0.107081,1.20321 0.670802,2.01833 1.831733,2.00213 1.128416,-0.0158 2.043867,-0.8838 2.255475,-2.00213 0.214686,-1.1346 -0.659387,-2.07982 -1.712906,-2.08957 z m -0.197298,1.00443 c 0.519848,-0.004 0.922881,0.41838 0.872147,1.09186 -0.04502,0.59763 -0.673126,1.0403 -1.212934,1.0403 -0.539809,0 -0.812573,-0.53706 -0.74211,-1.0403 0.08311,-0.59353 0.44124,-1.02353 0.977522,-1.08514 0.0356,-0.004 0.07072,-0.006 0.105375,-0.007 z"
       id="path4002" />
    <path
       d="m 44.145622,538.87169 c -0.108985,-8.8e-4 -0.21997,0.009 -0.331819,0.0291 -1.261181,0.22347 -1.94435,0.95776 -2.042484,2.06043 -0.107081,1.2032 0.670802,2.01833 1.831733,2.00212 1.128416,-0.0157 2.043868,-0.8838 2.255475,-2.00212 0.214687,-1.13461 -0.659386,-2.07982 -1.712905,-2.08957 z m -0.197298,1.00442 c 0.519848,-0.004 0.92288,0.41839 0.872147,1.09187 -0.04502,0.59763 -0.673126,1.0403 -1.212935,1.0403 -0.539808,0 -0.812573,-0.53707 -0.742109,-1.0403 0.08311,-0.59354 0.441239,-1.02354 0.977522,-1.08514 0.0356,-0.004 0.07072,-0.006 0.105375,-0.007 z"
       id="path4002-9" />
    <path
       d="m 63.952293,538.87169 c -0.108984,-8.8e-4 -0.21997,0.009 -0.331822,0.0291 -1.261181,0.22347 -1.944347,0.95776 -2.04248,2.06043 -0.107083,1.2032 0.670802,2.01833 1.831733,2.00212 1.128415,-0.0157 2.043866,-0.8838 2.255475,-2.00212 0.214685,-1.13461 -0.659388,-2.07982 -1.712906,-2.08957 z m -0.197301,1.00442 c 0.519851,-0.004 0.922883,0.41839 0.872151,1.09187 -0.04502,0.59763 -0.67313,1.0403 -1.212935,1.0403 -0.53981,0 -0.812575,-0.53707 -0.742109,-1.0403 0.0831,-0.59354 0.441237,-1.02354 0.977522,-1.08514 0.0356,-0.004 0.07072,-0.006 0.105371,-0.007 z"
       id="path4002-4" />
    <path
       d="m 38.727347,542.84576 0.768693,-2.94666 -1.191475,0 0.263159,-0.92618 3.420165,-0.006 -0.259807,0.92008 -1.175088,0 -0.789056,2.9448 z"
       id="path4035" />
    <path
       d="m 46.955891,539.00193 -1.00891,3.86973 1.040298,0.004 0.311641,-1.18379 0.522391,-0.007 0.538086,1.19276 1.123254,-0.007 -0.589653,-1.30038 c 0.549006,-0.28307 1.250511,-0.70422 1.186029,-1.35866 -0.108231,-0.62571 -0.280848,-1.12401 -1.307099,-1.2107 l -1.816037,0 z m 0.840758,0.87663 0.773499,0 c 0.254307,0.0448 0.408883,0.18018 0.403564,0.45962 -0.01932,0.40931 -0.450732,0.52856 -0.535844,0.52463 l -0.905777,0 0.264558,-0.98425 z"
       id="path4037" />
    <path
       d="m 50.50712,538.9685 0.4961,3.93425 0.982872,0 2.63168,-3.9344 -1.20267,0 -1.556134,2.51067 -0.217193,-2.51052 z"
       id="path4042" />
    <path
       d="m 53.993979,542.85533 1.01783,-3.87287 1.066952,-0.004 -1.054856,3.88043 z"
       id="path4044" />
    <path
       d="m 59.44411,542.85732 1.017825,-3.87287 1.066952,-0.004 -1.054856,3.88043 z"
       id="path4044-9" />
    <path
       d="m 72.614529,538.94819 -0.265488,0.964 1.190513,0 -0.76901,2.94826 1.035813,-0.0157 0.789192,-2.94378 1.18305,0.002 0.404303,2.96665 0.982005,0 2.632133,-3.93475 -1.203963,0 -1.555968,2.51107 -0.217474,-2.51107 c -1.402526,0.0325 -2.802307,2.2e-4 -4.205106,0.0135 z"
       id="path4035-9" />
    <path
       d="m 55.733409,542.24297 0.683818,-0.68381 c 0.575445,0.44009 0.612418,0.53402 1.239427,0.48914 0.107105,-0.009 0.444651,-0.13424 0.412944,-0.27615 -0.06306,-0.21632 -0.352594,-0.35017 -0.807127,-0.51118 -0.525122,-0.2363 -0.901107,-0.54067 -0.878874,-1.02685 0.05278,-0.50507 0.369627,-1.23995 1.407992,-1.28243 l 0.556019,-0.004 c 0.655987,0.0252 0.985138,0.30962 1.268986,0.5336 l -0.703995,0.704 c -0.453513,-0.36536 -0.715634,-0.37395 -0.834034,-0.37218 l -0.313882,0.009 c -0.25641,0.0195 -0.258338,0.14254 -0.295949,0.25111 -0.04586,0.28838 0.436625,0.30635 1.044785,0.62776 0.330294,0.1487 0.605726,0.35395 0.623282,0.82507 l 0.009,0.20178 c -0.08999,0.98793 -1.18676,1.24178 -1.591837,1.20172 -1.010284,0.0784 -1.725117,-0.55725 -1.820522,-0.68606 z"
       id="path4101" />
    <path
       d="m 65.768705,542.85729 1.047807,-3.91048 0.98795,0 1.013395,2.23345 0.588944,-2.21015 1.060061,-10e-4 -1.045083,3.88432 -0.943589,0 -1.068325,-2.29633 -0.579097,2.32232 z"
       id="path4103" />
    <path
       d="m 70.405209,542.86626 0.249168,-0.92992 0.831486,0 -0.249221,0.9301 z"
       id="path4105" />
  </g>
</svg>
