<?xml version="1.0" encoding="UTF-8" standalone="no"?>
<!-- Created with Inkscape (http://www.inkscape.org/) -->

<svg
   xmlns="http://www.w3.org/2000/svg"
   version="1.1"
   width="100%"
   height="100%"
   viewBox="0 0 23.5 22"
   id="svg2">
  <g
     transform="translate(811.78232,-1078.9245)"
     id="layer1">
    <path
       d="m -811.75322,1086.0861 0,-7.1593 3.93507,0 3.93506,0 1.37257,1.4381 1.37257,1.4382 1.13196,-1.1589 c 0.62258,-0.6373 1.23106,-1.285 1.35219,-1.4392 l 0.22022,-0.2805 3.97755,0.026 3.97755,0.026 0.0269,3.0172 0.0269,3.0171 -0.30782,0.5003 c -0.37196,0.6045 -1.28011,2.5122 -1.37401,2.8863 -0.0371,0.1479 -0.13381,0.3239 -0.21491,0.3912 -0.26438,0.2194 -0.40387,-0.1121 -0.53942,-1.2819 -0.2016,-1.7399 -0.47584,-2.1873 -1.25138,-2.0418 -0.67678,0.127 -0.92484,0.6835 -0.72899,1.6356 0.1786,0.8683 1.61929,4.6133 1.87188,4.8659 0.30289,0.3029 1.06924,0.2964 1.31829,-0.011 0.0992,-0.1225 0.3937,-0.888 0.6544,-1.701 0.2607,-0.8129 0.49536,-1.4781 0.52148,-1.4781 0.0261,0 0.0475,1.0053 0.0475,2.2341 l 0,2.2341 -2.48067,0 -2.48066,0 -0.0541,-0.5332 c -0.0297,-0.2932 -0.081,-2.0491 -0.11383,-3.9021 l -0.0598,-3.3691 1.05144,-0.6145 c 1.25705,-0.7348 1.5487,-1.0096 1.45743,-1.3732 -0.0821,-0.327 -0.59928,-0.6061 -0.95692,-0.5163 -0.1452,0.037 -0.43162,0.2177 -0.63648,0.4028 -0.20486,0.185 -0.5939,0.4662 -0.86454,0.6249 -0.41175,0.2413 -0.58688,0.2836 -1.07294,0.2595 -0.70262,-0.035 -0.99905,0.1831 -0.99905,0.7344 0,0.3329 -0.0422,0.37 -1.19482,1.0503 -0.65715,0.3878 -1.43049,0.7834 -1.71854,0.8791 -0.28804,0.096 -0.57864,0.2401 -0.64577,0.321 -0.19291,0.2325 -0.14285,0.6428 0.11143,0.9134 0.347,0.3694 0.87736,0.3379 1.43431,-0.085 1.77183,-1.3459 2.24853,-1.5526 2.37923,-1.0318 0.0358,0.1425 0.0314,1.6049 -0.01,3.2496 l -0.0747,2.9904 -0.6463,0 -0.6463,0 -0.0276,-1.9749 -0.0275,-1.9749 -1.20113,1.0112 c -0.66062,0.5562 -1.24203,0.986 -1.29202,0.9551 -0.05,-0.031 -0.60623,-0.491 -1.23607,-1.0226 l -1.14518,-0.9664 -0.0276,1.9862 -0.0275,1.9863 -4.05986,0 -4.05985,0 0,-7.1593 0,0 z m 8.63175,5.7884 c 0,-0.754 0.0279,-1.371 0.0621,-1.371 0.0341,0 0.28547,0.1871 0.55852,0.4157 l 0.49645,0.4157 0,0.9553 0,0.9552 -0.55852,0 -0.55853,0 0,-1.3709 z m 13.20151,-1.5585 0,-2.9295 0.56595,-0.9041 c 0.31127,-0.4972 0.60831,-0.9474 0.66007,-1.0005 0.0579,-0.059 0.0941,1.4185 0.0941,3.8335 l 0,3.93 -0.66008,0 -0.66007,0 0,-2.9294 z m -9.90113,0.6463 c 0.27927,-0.248 0.6568,-0.5517 0.6556,-0.5098 -0.007,0.2326 0.0649,0.9648 -0.0648,0.965 -0.19513,3e-4 -0.38236,0 -0.63649,0 l -0.46205,0 0.50775,-0.451 0,0 z m 9.90113,-9.3241 c 0,-1.4354 0.0283,-2.6098 0.0629,-2.6098 0.0346,0 0.33161,0.1633 0.66007,0.3628 l 0.5972,0.3627 0,1.4285 0,1.4284 -0.57843,0.7222 c -0.31815,0.3972 -0.61518,0.7655 -0.66008,0.8186 -0.0449,0.053 -0.0816,-1.0779 -0.0816,-2.5134 z m -12.186,-1.6451 c -0.5284,-0.5306 -0.93241,-0.9647 -0.89781,-0.9647 0.10901,0 2.47117,1.0995 2.563,1.1905 0.0785,0.078 -0.521,0.7389 -0.6517,0.739 -0.029,0 -0.4851,-0.4342 -1.01349,-0.9648 z"
       id="path2848" />
  </g>
</svg>
