<?xml version="1.0" encoding="UTF-8" standalone="no"?>
<!-- Created with Inkscape (http://www.inkscape.org/) -->

<svg
   xmlns="http://www.w3.org/2000/svg"
   version="1.1"
   width="100%"
   height="100%"
   viewBox="0 0 23.5 22"
   id="svg2999">
  <path
     d="m 0.0291,7.1616 0,-7.1593 3.93507,0 3.93506,0 1.37257,1.4381 1.37257,1.4382 1.13196,-1.1589 c 0.62258,-0.6373 1.23106,-1.285 1.35219,-1.4392 L 13.34874,0 l 3.97755,0.026 3.97755,0.026 0.0269,3.0172 0.0269,3.0171 -0.30782,0.5003 C 20.67786,7.1911 19.76971,9.0988 19.67581,9.4729 19.63871,9.6208 19.542,9.7968 19.4609,9.8641 19.19652,10.0835 19.05703,9.752 18.92148,8.5822 18.71988,6.8423 18.44564,6.3949 17.6701,6.5404 c -0.67678,0.127 -0.92484,0.6835 -0.72899,1.6356 0.1786,0.8683 1.61929,4.6133 1.87188,4.8659 0.30289,0.3029 1.06924,0.2964 1.31829,-0.011 0.0992,-0.1225 0.3937,-0.888 0.6544,-1.701 0.2607,-0.8129 0.49536,-1.4781 0.52148,-1.4781 0.0261,0 0.0475,1.0053 0.0475,2.2341 l 0,2.2341 -2.48067,0 -2.48066,0 -0.0541,-0.5332 c -0.0297,-0.2932 -0.081,-2.0491 -0.11383,-3.9021 L 16.1656,6.5156 17.21704,5.9011 c 1.25705,-0.7348 1.5487,-1.0096 1.45743,-1.3732 -0.0821,-0.327 -0.59928,-0.6061 -0.95692,-0.5163 -0.1452,0.037 -0.43162,0.2177 -0.63648,0.4028 -0.20486,0.185 -0.5939,0.4662 -0.86454,0.6249 -0.41175,0.2413 -0.58688,0.2836 -1.07294,0.2595 -0.70262,-0.035 -0.99905,0.1831 -0.99905,0.7344 0,0.3329 -0.0422,0.37 -1.19482,1.0503 -0.65715,0.3878 -1.43049,0.7834 -1.71854,0.8791 -0.28804,0.096 -0.57864,0.2401 -0.64577,0.321 -0.19291,0.2325 -0.14285,0.6428 0.11143,0.9134 0.347,0.3694 0.87736,0.3379 1.43431,-0.085 1.77183,-1.3459 2.24853,-1.5526 2.37923,-1.0318 0.0358,0.1425 0.0314,1.6049 -0.01,3.2496 l -0.0747,2.9904 -0.6463,0 -0.6463,0 -0.0276,-1.9749 -0.0275,-1.9749 -1.20113,1.0112 c -0.66062,0.5562 -1.24203,0.986 -1.29202,0.9551 -0.05,-0.031 -0.60623,-0.491 -1.23607,-1.0226 l -1.14518,-0.9664 -0.0276,1.9862 -0.0275,1.9863 -4.05986,0 -4.05985,0 0,-7.1593 0,0 z M 8.66085,12.95 c 0,-0.754 0.0279,-1.371 0.0621,-1.371 0.0341,0 0.28547,0.1871 0.55852,0.4157 l 0.49645,0.4157 0,0.9553 0,0.9552 -0.55852,0 -0.55853,0 0,-1.3709 z m 13.20151,-1.5585 0,-2.9295 0.56595,-0.9041 c 0.31127,-0.4972 0.60831,-0.9474 0.66007,-1.0005 0.0579,-0.059 0.0941,1.4185 0.0941,3.8335 l 0,3.93 -0.66008,0 -0.66007,0 0,-2.9294 z m -9.90113,0.6463 c 0.27927,-0.248 0.6568,-0.5517 0.6556,-0.5098 -0.007,0.2326 0.0649,0.9648 -0.0648,0.965 -0.19513,3e-4 -0.38236,0 -0.63649,0 l -0.46205,0 0.50775,-0.451 0,0 z m 9.90113,-9.3241 c 0,-1.4354 0.0283,-2.6098 0.0629,-2.6098 0.0346,0 0.33161,0.1633 0.66007,0.3628 l 0.5972,0.3627 0,1.4285 0,1.4284 -0.57843,0.7222 c -0.31815,0.3972 -0.61518,0.7655 -0.66008,0.8186 -0.0449,0.053 -0.0816,-1.0779 -0.0816,-2.5134 z M 9.67636,1.0686 C 9.14796,0.538 8.74395,0.1039 8.77855,0.1039 c 0.10901,0 2.47117,1.0995 2.563,1.1905 0.0785,0.078 -0.521,0.7389 -0.6517,0.739 -0.029,0 -0.4851,-0.4342 -1.01349,-0.9648 z"
     id="path2848" />
  <g
     transform="matrix(0.0305696,0,0,0.03056972,-5.1139378e-5,-2.6264903e-4)"
     id="g3003">
    <path
       d="m 4.22,619.185 c 4.12,-5.689 11.21,-9.02 18.19,-8.84 90.57,-0.031 181.13,0.029 271.7,-0.02 0.07,18 -0.06,36 0.06,54 0.27,4.97 5.79,7.56 10.27,6.8 4.32,0.39 8.48,-3.33 8.18,-7.74 0.06,-13.71 -0.021,-27.42 0.03,-41.13 -0.17,-3.01 2.76,-5.48 5.68,-5.17 6.7,0.04 13.39,-0.07 20.08,0.05 2.65,0.08 4.82,2.6 4.46,5.25 -0.01,13.7 -0.01,27.4 -0.01,41.09 -0.04,4.83 4.9,8.38 9.51,7.66 4.61,0.66 9.38,-3 9.23,-7.8 0.1,-17.67 0,-35.36 0.05,-53.031 13.15,0.051 26.31,0.111 39.46,-0.02 0.029,17.69 -0.021,35.391 0.02,53.08 -0.19,4.311 3.91,8.061 8.16,7.73 10.28,-0.09 20.56,0.15 30.84,-0.12 16.32,-0.8 30.68,-14.36 32.86,-30.46 0.979,-10.03 0.55,-20.11 0.659,-30.16 90.591,-0.041 181.181,-0.01 271.771,-0.01 2.67,0.1 5.33,0.6 7.91,1.33 6.62,2.55 11.2,8.39 13.75,14.85 1.04,5.87 0.6,11.86 0.609,17.801 0.051,18.34 0.061,36.68 0.011,55.02 -0.32,9.66 -7.91,18.54 -17.41,20.32 -244.26,-0.04 -488.52,0.069 -732.77,-0.04 -7.02,-0.84 -13.1,-6.011 -16.01,-12.33 -2.14,-4.33 -1.29,-9.3 -1.45,-13.95 -0.1,-21.01 0.11,-42.01 -0.04,-63.02 0.13,-1.61 -0.35,-3.381 0.5,-4.83 1.25,-2.1 2.24,-4.36 3.7,-6.31 m 415.759,-8.83 c 11.601,-0.1 23.2,0.061 34.801,-0.041 0.1,8.631 0.229,17.291 -0.08,25.932 0.029,6.29 -3.28,12.55 -8.801,15.689 -6.25,3.58 -13.699,1.66 -20.52,2.16 -2.8,0.39 -5.87,-1.75 -5.48,-4.79 0.051,-12.979 -0.119,-25.97 0.08,-38.95 l 0,0 z"
       id="path3005"
       style="fill:#080000" />
    <path
       d="m 0.39,516.294 c 2.5,-9.141 11.52,-16.16 21.05,-15.949 241.66,0.01 483.32,-0.02 724.97,0.02 11.569,0 21.5,10.58 21.41,22.02 -0.011,32.311 0.04,64.631 -0.08,96.941 0.02,2.409 -0.15,4.819 -0.66,7.199 -2.55,-6.46 -7.13,-12.3 -13.75,-14.85 -2.58,-0.73 -5.24,-1.23 -7.91,-1.33 -90.59,0 -181.18,-0.031 -271.771,0.01 0.04,-10.029 0.211,-20.08 -0.619,-30.09 -1.7,-11.961 -9.87,-22.91 -20.98,-27.73 -5.45,-2.73 -11.689,-2.959 -17.65,-3.209 -8.699,0.059 -17.409,-0.121 -26.1,0.17 -4.04,0.139 -7.32,3.859 -7.22,7.859 0.02,17.641 0,35.289 0.03,52.93 -13.15,0.131 -26.311,0.07 -39.46,0.02 0.01,-17.639 0.06,-35.279 -0.03,-52.91 0.24,-9.42 -15.1,-11.148 -18.2,-2.979 -0.53,1.59 -0.47,3.289 -0.49,4.949 0.09,12.01 -0.05,24.02 0.08,36.029 0.25,2.74 -1.93,5.461 -4.73,5.58 -6.65,0.281 -13.31,-0.049 -19.97,0.102 -3.03,0.229 -6.02,-2.57 -5.65,-5.66 0.03,-12.691 -0.04,-25.381 0.02,-38.061 0.21,-3.27 -1.92,-6.15 -4.76,-7.51 -3.76,-0.701 -8.27,-1.1 -11.35,1.619 -2.12,1.611 -2.61,4.4 -2.52,6.9 0.09,17.32 0.01,34.641 0.06,51.961 -90.57,0.049 -181.13,-0.012 -271.7,0.02 -6.98,-0.18 -14.07,3.15 -18.19,8.84 -1.46,1.95 -2.45,4.21 -3.7,6.311 -0.26,-36.391 0,-72.842 -0.13,-109.202 m 419.57,54.1 c -0.04,-2.209 2.28,-3.85 4.32,-3.959 4.369,-0.24 8.75,-0.061 13.13,-0.07 6.399,-0.119 12.68,3.801 15.34,9.641 1.79,3.148 1.89,6.889 2.02,10.43 0.011,7.949 0.07,15.91 0.011,23.879 -11.601,0.102 -23.2,-0.059 -34.801,0.041 -0.02,-13.321 0.01,-26.642 -0.02,-39.962 l 0,0 z"
       id="path3007"
       style="fill:#61596e" />
    <path
       d="m 296.57,551.464 c 3.08,-2.719 7.59,-2.32 11.35,-1.619 2.84,1.359 4.97,4.24 4.76,7.51 -0.06,12.68 0.01,25.369 -0.02,38.061 -0.37,3.09 2.62,5.889 5.65,5.66 6.66,-0.15 13.32,0.18 19.97,-0.102 2.8,-0.119 4.98,-2.84 4.73,-5.58 -0.13,-12.01 0.01,-24.02 -0.08,-36.029 0.02,-1.66 -0.04,-3.359 0.49,-4.949 3.1,-8.17 18.44,-6.441 18.2,2.979 0.09,17.631 0.04,35.271 0.03,52.91 -0.05,17.671 0.05,35.361 -0.05,53.031 0.15,4.8 -4.62,8.46 -9.23,7.8 -4.61,0.72 -9.55,-2.83 -9.51,-7.66 0,-13.689 0,-27.39 0.01,-41.09 0.36,-2.65 -1.81,-5.17 -4.46,-5.25 -6.69,-0.12 -13.38,-0.01 -20.08,-0.05 -2.92,-0.311 -5.85,2.16 -5.68,5.17 -0.05,13.71 0.03,27.42 -0.03,41.13 0.3,4.41 -3.86,8.13 -8.18,7.74 -4.48,0.76 -10,-1.83 -10.27,-6.8 -0.12,-18 0.01,-36 -0.06,-54 -0.05,-17.32 0.03,-34.641 -0.06,-51.961 -0.09,-2.5 0.4,-5.289 2.52,-6.901 m 104.51,5.891 c -0.101,-4 3.18,-7.721 7.22,-7.859 8.69,-0.291 17.4,-0.111 26.1,-0.17 5.961,0.25 12.2,0.479 17.65,3.209 11.11,4.82 19.28,15.77 20.98,27.73 0.83,10.01 0.659,20.061 0.619,30.09 -0.109,10.05 0.32,20.13 -0.659,30.16 -2.181,16.1 -16.54,29.66 -32.86,30.46 -10.28,0.271 -20.56,0.03 -30.84,0.12 -4.25,0.33 -8.351,-3.42 -8.16,-7.73 -0.04,-17.689 0.01,-35.39 -0.02,-53.08 -0.03,-17.641 -0.01,-35.289 -0.03,-52.93 m 18.88,13.039 c 0.03,13.32 0,26.641 0.02,39.961 -0.199,12.98 -0.029,25.971 -0.08,38.95 -0.39,3.04 2.681,5.18 5.48,4.79 6.82,-0.5 14.27,1.42 20.52,-2.16 5.521,-3.14 8.83,-9.399 8.801,-15.689 0.31,-8.641 0.18,-17.301 0.08,-25.932 0.06,-7.969 0,-15.93 -0.011,-23.879 -0.13,-3.541 -0.229,-7.281 -2.02,-10.43 -2.66,-5.84 -8.94,-9.76 -15.34,-9.641 -4.38,0.01 -8.761,-0.17 -13.13,0.07 -2.04,0.11 -4.36,1.751 -4.32,3.96 l 0,0 z"
       id="path3009"
       style="fill:#00adef" />
  </g>
</svg>
