<?xml version="1.0" encoding="UTF-8" standalone="no"?>
<!-- Created with Inkscape (http://www.inkscape.org/) -->

<svg
   xmlns="http://www.w3.org/2000/svg"
   version="1.1"
   width="100%"
   height="100%"
   viewBox="0 0 24 22"
   id="svg2">
  <defs
     id="defs3038" />
  <path
       d="m 0.0291,7.1616 0,-7.1593 3.93507,0 3.93506,0 1.37257,1.4381 1.37257,1.4382 1.13196,-1.1589 c 0.62258,-0.6373 1.23106,-1.285 1.35219,-1.4392 L 13.34874,0 l 3.97755,0.026 3.97755,0.026 0.0269,3.0172 0.0269,3.0171 -0.30782,0.5003 C 20.67786,7.1911 19.76971,9.0988 19.67581,9.4729 19.63871,9.6208 19.542,9.7968 19.4609,9.8641 19.19652,10.0835 19.05703,9.752 18.92148,8.5822 18.71988,6.8423 18.44564,6.3949 17.6701,6.5404 c -0.67678,0.127 -0.92484,0.6835 -0.72899,1.6356 0.1786,0.8683 1.61929,4.6133 1.87188,4.8659 0.30289,0.3029 1.06924,0.2964 1.31829,-0.011 0.0992,-0.1225 0.3937,-0.888 0.6544,-1.701 0.2607,-0.8129 0.49536,-1.4781 0.52148,-1.4781 0.0261,0 0.0475,1.0053 0.0475,2.2341 l 0,2.2341 -2.48067,0 -2.48066,0 -0.0541,-0.5332 c -0.0297,-0.2932 -0.081,-2.0491 -0.11383,-3.9021 L 16.1656,6.5156 17.21704,5.9011 c 1.25705,-0.7348 1.5487,-1.0096 1.45743,-1.3732 -0.0821,-0.327 -0.59928,-0.6061 -0.95692,-0.5163 -0.1452,0.037 -0.43162,0.2177 -0.63648,0.4028 -0.20486,0.185 -0.5939,0.4662 -0.86454,0.6249 -0.41175,0.2413 -0.58688,0.2836 -1.07294,0.2595 -0.70262,-0.035 -0.99905,0.1831 -0.99905,0.7344 0,0.3329 -0.0422,0.37 -1.19482,1.0503 -0.65715,0.3878 -1.43049,0.7834 -1.71854,0.8791 -0.28804,0.096 -0.57864,0.2401 -0.64577,0.321 -0.19291,0.2325 -0.14285,0.6428 0.11143,0.9134 0.347,0.3694 0.87736,0.3379 1.43431,-0.085 1.77183,-1.3459 2.24853,-1.5526 2.37923,-1.0318 0.0358,0.1425 0.0314,1.6049 -0.01,3.2496 l -0.0747,2.9904 -0.6463,0 -0.6463,0 -0.0276,-1.9749 -0.0275,-1.9749 -1.20113,1.0112 c -0.66062,0.5562 -1.24203,0.986 -1.29202,0.9551 -0.05,-0.031 -0.60623,-0.491 -1.23607,-1.0226 l -1.14518,-0.9664 -0.0276,1.9862 -0.0275,1.9863 -4.05986,0 -4.05985,0 0,-7.1593 0,0 z M 8.66085,12.95 c 0,-0.754 0.0279,-1.371 0.0621,-1.371 0.0341,0 0.28547,0.1871 0.55852,0.4157 l 0.49645,0.4157 0,0.9553 0,0.9552 -0.55852,0 -0.55853,0 0,-1.3709 z m 13.20151,-1.5585 0,-2.9295 0.56595,-0.9041 c 0.31127,-0.4972 0.60831,-0.9474 0.66007,-1.0005 0.0579,-0.059 0.0941,1.4185 0.0941,3.8335 l 0,3.93 -0.66008,0 -0.66007,0 0,-2.9294 z m -9.90113,0.6463 c 0.27927,-0.248 0.6568,-0.5517 0.6556,-0.5098 -0.007,0.2326 0.0649,0.9648 -0.0648,0.965 -0.19513,3e-4 -0.38236,0 -0.63649,0 l -0.46205,0 0.50775,-0.451 0,0 z m 9.90113,-9.3241 c 0,-1.4354 0.0283,-2.6098 0.0629,-2.6098 0.0346,0 0.33161,0.1633 0.66007,0.3628 l 0.5972,0.3627 0,1.4285 0,1.4284 -0.57843,0.7222 c -0.31815,0.3972 -0.61518,0.7655 -0.66008,0.8186 -0.0449,0.053 -0.0816,-1.0779 -0.0816,-2.5134 z M 9.67636,1.0686 C 9.14796,0.538 8.74395,0.1039 8.77855,0.1039 c 0.10901,0 2.47117,1.0995 2.563,1.1905 0.0785,0.078 -0.521,0.7389 -0.6517,0.739 -0.029,0 -0.4851,-0.4342 -1.01349,-0.9648 z"
       id="path2848" />
  <g
     id="g2989">
    <path
       d="m 0,21.369 0,-5.4456 c 0,-0.3959 0.35776,-0.5542 0.5672,-0.5542 l 22.15768,0 c 0.25928,0 0.52016,0.2172 0.52016,0.5153 l 0,5.5273 C 23.24504,21.7052 22.98721,22 22.67141,22 L 0.50401,22 C 0.28038,22 0,21.6817 0,21.369 z"
       id="path3790"
       style="fill:#61bc47" />
    <path
       d="m 16.89027,20.291 c -0.16772,-0.1016 -0.1488,-0.3546 -4.4e-4,-0.4639 0.12393,-0.1223 0.26968,0 0.37427,0.077 0.19404,0.1337 0.46066,0.2451 0.68452,0.1141 0.18422,-0.082 0.30836,-0.2812 0.27336,-0.4838 -0.0116,-0.2556 -0.22207,-0.4404 -0.44055,-0.5384 -0.32884,-0.1505 -0.64864,-0.3432 -0.89277,-0.6138 -0.12061,-0.1342 -0.2003,-0.3127 -0.17637,-0.4957 -0.0177,-0.4783 0.30317,-0.9653 0.77657,-1.0833 0.177,-0.043 0.35895,0.01 0.53644,0.022 0.2406,0.037 0.477,0.1535 0.63048,0.3455 0.1186,0.1769 -0.0614,0.4592 -0.27492,0.3913 -0.1753,-0.065 -0.28846,-0.2575 -0.49002,-0.2648 -0.21567,-0.033 -0.4779,0.03 -0.57405,0.2472 -0.0606,0.1381 -0.0812,0.308 -0.0217,0.4489 0.14008,0.2056 0.37668,0.313 0.58638,0.4337 0.28529,0.1443 0.59967,0.288 0.76536,0.5778 0.17033,0.278 0.12478,0.6287 0.022,0.9216 -0.12714,0.3571 -0.4761,0.6352 -0.86259,0.6302 -0.32273,0.013 -0.65261,-0.076 -0.91577,-0.2657 z"
       id="path3768" />
    <path
       d="m 10.8178,19.5752 0,-1.9202 c 0.12375,-0.6491 0.71345,-0.8994 0.89933,-0.8994 0.1086,-0.01 0.21747,-0.014 0.33057,0.01 0.48179,0.074 0.66489,0.2385 0.82813,0.4312 0.0824,0.097 -0.13283,0.4697 -0.39828,0.3285 -0.25265,-0.1556 -0.33819,-0.2629 -0.60122,-0.2555 -0.28091,-0.039 -0.48477,0.2807 -0.48976,0.4291 l 0,1.8862 c 0.0287,0.2108 0.0703,0.4166 0.48612,0.4813 0.37507,0.03 0.49726,-0.275 0.71461,-0.2868 0.19417,0 0.28735,0.2055 0.29168,0.3063 0,0.2978 -0.70651,0.4958 -0.93823,0.4958 -0.0995,0 -0.20397,0.01 -0.28195,-0.014 -0.74472,-0.1267 -0.841,-0.9525 -0.841,-0.9917 z"
       id="path3773" />
    <path
       d="m 4.68241,16.8448 c -0.16409,0 -0.22109,0.1072 -0.22109,0.2211 l 0,3.2083 c 0,0.3138 0.54885,0.3114 0.54885,0 l 0,-0.8411 c 0,-0.059 0.012,-0.1167 0.13158,-0.1167 l 0.23353,0 c 0.0922,0 0.10237,0.033 0.13099,0.082 l 0.55893,1.0551 c 0.12473,0.216 0.58803,-0.035 0.44275,-0.2869 L 6.02667,19.2918 c -0.0258,-0.045 -0.0502,-0.097 0,-0.097 0.14384,0 0.61227,-0.4798 0.61227,-0.831 l 0,-0.5791 c 0,-0.3023 -0.38946,-0.9353 -1.05502,-0.9353 l -0.90151,0 z m 0.46883,0.4979 0.45461,0 c 0.29794,0 0.46171,0.3585 0.46171,0.591 l 0,0.2939 c 0,0.3727 -0.27292,0.5738 -0.51269,0.5738 l -0.30169,0 c -0.17428,0 -0.25486,-0.043 -0.25486,-0.1826 l 0,-1.157 c 0,-0.1167 0.12667,-0.1191 0.15292,-0.1191 z"
       id="path3778" />
    <path
       d="m 8.61444,16.763 c -0.58377,0 -0.97619,0.6411 -0.97619,1.0313 l -0.004,1.7355 c 0,0.4148 0.41677,1.0384 0.92463,1.0384 l 0.29576,0 c 0.52836,0 0.95901,-0.5554 0.95901,-1.0277 l 0,-1.8184 C 9.77965,17.2048 9.23469,16.763 8.82323,16.763 l -0.20923,0 z m 0.10966,0.5222 c 0.25314,0 0.53284,0.1344 0.53284,0.5329 l 0,1.736 c 4.4e-4,0.2731 -0.2333,0.5257 -0.54292,0.5257 -0.27123,0 -0.52723,-0.1974 -0.53285,-0.5944 l 0,-1.6021 c 0.006,-0.4802 0.27664,-0.5981 0.54293,-0.5981 z"
       id="path3782" />
    <path
       d="m 13.90444,20.2794 0,-3.2347 c 0,-0.2477 0.56718,-0.2525 0.56718,0 l 0,1.21 c 0,0.064 0.0442,0.1212 0.12461,0.1212 l 0.0988,0 c 0.0538,0 0.0941,-0.063 0.11687,-0.11 l 0.65999,-1.4093 c 0.10361,-0.1795 0.54163,0.018 0.41937,0.2303 l -0.65655,1.4815 c -0.0215,0.05 -0.033,0.095 -0.0103,0.1513 l 0.70124,1.4884 c 0.1098,0.2317 -0.33831,0.4588 -0.43307,0.2736 l -0.71847,-1.5008 c -0.0297,-0.056 -0.0797,-0.069 -0.14438,-0.069 -0.16214,0 -0.15812,0.048 -0.15812,0.1 l 0,1.3131 c 0,0.2458 -0.56718,0.2898 -0.56718,-0.045 z"
       id="path3786" />
  </g>
</svg>
