<?xml version="1.0" encoding="UTF-8" standalone="no"?>
<!-- Created with Inkscape (http://www.inkscape.org/) -->

<svg
   xmlns="http://www.w3.org/2000/svg"
   version="1.1"
   width="100%"
   height="100%"
   viewBox="0 0 24 22"
   id="svg2">
  <path
       d="m 0.0291,7.1616 0,-7.1593 3.93507,0 3.93506,0 1.37257,1.4381 1.37257,1.4382 1.13196,-1.1589 c 0.62258,-0.6373 1.23106,-1.285 1.35219,-1.4392 L 13.34874,0 l 3.97755,0.026 3.97755,0.026 0.0269,3.0172 0.0269,3.0171 -0.30782,0.5003 C 20.67786,7.1911 19.76971,9.0988 19.67581,9.4729 19.63871,9.6208 19.542,9.7968 19.4609,9.8641 19.19652,10.0835 19.05703,9.752 18.92148,8.5822 18.71988,6.8423 18.44564,6.3949 17.6701,6.5404 c -0.67678,0.127 -0.92484,0.6835 -0.72899,1.6356 0.1786,0.8683 1.61929,4.6133 1.87188,4.8659 0.30289,0.3029 1.06924,0.2964 1.31829,-0.011 0.0992,-0.1225 0.3937,-0.888 0.6544,-1.701 0.2607,-0.8129 0.49536,-1.4781 0.52148,-1.4781 0.0261,0 0.0475,1.0053 0.0475,2.2341 l 0,2.2341 -2.48067,0 -2.48066,0 -0.0541,-0.5332 c -0.0297,-0.2932 -0.081,-2.0491 -0.11383,-3.9021 L 16.1656,6.5156 17.21704,5.9011 c 1.25705,-0.7348 1.5487,-1.0096 1.45743,-1.3732 -0.0821,-0.327 -0.59928,-0.6061 -0.95692,-0.5163 -0.1452,0.037 -0.43162,0.2177 -0.63648,0.4028 -0.20486,0.185 -0.5939,0.4662 -0.86454,0.6249 -0.41175,0.2413 -0.58688,0.2836 -1.07294,0.2595 -0.70262,-0.035 -0.99905,0.1831 -0.99905,0.7344 0,0.3329 -0.0422,0.37 -1.19482,1.0503 -0.65715,0.3878 -1.43049,0.7834 -1.71854,0.8791 -0.28804,0.096 -0.57864,0.2401 -0.64577,0.321 -0.19291,0.2325 -0.14285,0.6428 0.11143,0.9134 0.347,0.3694 0.87736,0.3379 1.43431,-0.085 1.77183,-1.3459 2.24853,-1.5526 2.37923,-1.0318 0.0358,0.1425 0.0314,1.6049 -0.01,3.2496 l -0.0747,2.9904 -0.6463,0 -0.6463,0 -0.0276,-1.9749 -0.0275,-1.9749 -1.20113,1.0112 c -0.66062,0.5562 -1.24203,0.986 -1.29202,0.9551 -0.05,-0.031 -0.60623,-0.491 -1.23607,-1.0226 l -1.14518,-0.9664 -0.0276,1.9862 -0.0275,1.9863 -4.05986,0 -4.05985,0 0,-7.1593 0,0 z M 8.66085,12.95 c 0,-0.754 0.0279,-1.371 0.0621,-1.371 0.0341,0 0.28547,0.1871 0.55852,0.4157 l 0.49645,0.4157 0,0.9553 0,0.9552 -0.55852,0 -0.55853,0 0,-1.3709 z m 13.20151,-1.5585 0,-2.9295 0.56595,-0.9041 c 0.31127,-0.4972 0.60831,-0.9474 0.66007,-1.0005 0.0579,-0.059 0.0941,1.4185 0.0941,3.8335 l 0,3.93 -0.66008,0 -0.66007,0 0,-2.9294 z m -9.90113,0.6463 c 0.27927,-0.248 0.6568,-0.5517 0.6556,-0.5098 -0.007,0.2326 0.0649,0.9648 -0.0648,0.965 -0.19513,3e-4 -0.38236,0 -0.63649,0 l -0.46205,0 0.50775,-0.451 0,0 z m 9.90113,-9.3241 c 0,-1.4354 0.0283,-2.6098 0.0629,-2.6098 0.0346,0 0.33161,0.1633 0.66007,0.3628 l 0.5972,0.3627 0,1.4285 0,1.4284 -0.57843,0.7222 c -0.31815,0.3972 -0.61518,0.7655 -0.66008,0.8186 -0.0449,0.053 -0.0816,-1.0779 -0.0816,-2.5134 z M 9.67636,1.0686 C 9.14796,0.538 8.74395,0.1039 8.77855,0.1039 c 0.10901,0 2.47117,1.0995 2.563,1.1905 0.0785,0.078 -0.521,0.7389 -0.6517,0.739 -0.029,0 -0.4851,-0.4342 -1.01349,-0.9648 z"
       id="path2848" />
  <path
       d="M 0.21350189,18.869586 C 0.3397744,18.736063 0.5264644,18.679875 0.70620638,18.67806 c 0.76035382,-0.005 21.04914562,-0.0039 21.81252062,0 0.16494,0.0016 0.332297,0.05319 0.45585,0.165846 0.150138,0.121438 0.219014,0.312362 0.23744,0.499654 l 0,2.037881 c -0.02416,0.348613 -0.346191,0.635591 -0.695102,0.617771 -7.270035,5.5e-4 -14.5400696,3.03e-4 -21.80980238,0 -0.2600972,0.01112 -0.51747563,-0.136241 -0.63226884,-0.370358 -0.10240762,-0.195152 -0.06343835,-0.422022 -0.07068844,-0.633177 0.00634382,-0.601156 -0.01298976,-1.202911 0.01057305,-1.803763 0.04833399,-0.116913 0.10573059,-0.234119 0.1987735,-0.322328 z"
       id="path30" />
  <path
       d="M 0.07846883,15.716398 C 0.19598081,15.486811 0.4497342,15.342716 0.70711262,15.353893 7.9665742,15.353343 15.226337,15.354195 22.4858,15.35359 c 0.162825,-0.0023 0.332296,0.03234 0.460985,0.137754 0.15044,0.110862 0.241972,0.286076 0.265232,0.470046 l 0,3.38217 c -0.01843,-0.187292 -0.0873,-0.378214 -0.23744,-0.499654 -0.12355,-0.112675 -0.29091,-0.164333 -0.45585,-0.165846 -0.763375,-0.0039 -21.0521668,-0.005 -21.81252062,0 -0.17974198,0.0016 -0.36643198,0.058 -0.49270449,0.191526 -0.0930429,0.08821 -0.15043951,0.205419 -0.1987735,0.322328 C 0.0026449,19.058088 0.00173864,18.923959 0.00415534,18.789836 0.00385325,17.933718 0.00445743,17.077604 0.00385325,16.22149 0.0026449,16.051414 -0.0070219,15.870161 0.07846883,15.716398 z"
       id="path37"
       style="fill:#61596e" />
  <g
     id="g3074"
     style="fill:#fffdfe">
    <path
       d="m 7.2781172,16.901488 c 0.072803,-0.09666 0.2144819,-0.116 0.3247436,-0.08397 0.096667,0.02837 0.1504399,0.124162 0.1673568,0.217502 0.11147,0.550099 0.2187113,1.101106 0.3286711,1.65181 0.093949,0.455851 0.1800436,0.913511 0.2761077,1.36906 -3.02e-4,0.08731 0.1289915,0.08397 0.1271787,-0.0011 0.095761,-0.455549 0.1815544,-0.913215 0.2764102,-1.36906 0.10422,-0.541344 0.2187107,-1.080871 0.3211186,-1.622516 0.01722,-0.100888 0.065855,-0.211459 0.1700754,-0.246803 0.1075437,-0.02717 0.2398571,-0.0154 0.3187019,0.07069 0.057396,0.07704 0.042592,0.179141 0.025982,0.26735 -0.1030113,0.506599 -0.2057215,1.013501 -0.306619,1.520404 -0.1048238,0.510228 -0.2057214,1.021057 -0.3105459,1.53098 -0.035342,0.173095 -0.1601061,0.351631 -0.3470984,0.373679 -0.1398661,0.0127 -0.2812431,0.01175 -0.4208072,0.0011 C 8.0414941,20.559757 7.9182423,20.380018 7.8798771,20.208126 7.7753551,19.696698 7.6735518,19.184961 7.5693317,18.673528 7.4768927,18.20831 7.3817356,17.7434 7.2877862,17.278485 c -0.02145,-0.12295 -0.074011,-0.25889 -0.00968,-0.377002 z"
       id="path5" />
    <path
       d="m 3.0093205,16.980028 c 0.097273,-0.23442 0.5479865,-0.188804 0.543153,0.08851 0.00271,0.534995 0,1.070294 0.00121,1.605593 6.05e-4,0.391506 -0.00181,0.783012 6.05e-4,1.174822 -0.00816,0.08156 0.062532,0.151948 0.1425852,0.154363 0.3190044,0.01112 0.639217,-0.0064 0.9582213,0.0075 0.1951483,0.03839 0.2458991,0.320215 0.1045225,0.445582 -0.066459,0.06041 -0.1607104,0.06253 -0.245597,0.06314 -0.4026825,-0.0011 -0.805667,-0.0011 -1.2086515,0 -0.077636,-0.0023 -0.1643357,-0.0011 -0.2268677,-0.0544 -0.070386,-0.05044 -0.090626,-0.141378 -0.090929,-0.223245 0,-0.523215 6.05e-4,-1.046733 -3.021e-4,-1.569948 0,-0.504185 0.00151,-1.00837 -9.075e-4,-1.51255 0.00121,-0.06041 0,-0.12265 0.022959,-0.179442 z"
       id="path7" />
    <path
       d="m 5.7021275,17.04105 c 0.01722,-0.204209 0.2779199,-0.249524 0.4340996,-0.17914 0.1011987,0.0456 0.1317101,0.164643 0.1271786,0.266443 8.8e-4,0.51536 -6.05e-4,1.030418 6.05e-4,1.545482 -0.00149,0.532576 0.00303,1.064855 -0.00181,1.597135 0.0039,0.10815 -0.070084,0.21841 -0.1797421,0.238045 -0.08972,0.01749 -0.1885027,0.01572 -0.2715763,-0.02508 -0.071898,-0.0456 -0.1175125,-0.129294 -0.112075,-0.214786 6.05e-4,-0.531976 3.02e-4,-1.063948 3.02e-4,-1.595924 0.00303,-0.54406 -0.0039,-1.088422 0.00303,-1.63218 z"
       id="path9" />
    <path
       d="m 10.70409,16.916289 c 0.0583,-0.07039 0.155575,-0.08307 0.241368,-0.08217 0.464006,0.0011 0.928314,0.0011 1.392623,3.02e-4 0.0719,0.0011 0.151345,0.0032 0.210554,0.05044 0.162221,0.12355 0.102712,0.455549 -0.122043,0.46008 -0.352535,0.0073 -0.705675,-0.0023 -1.058514,0.0033 -0.07975,-0.0044 -0.159804,0.0586 -0.155575,0.142885 -0.0054,0.241367 -6.05e-4,0.48334 -0.0021,0.72501 -0.0091,0.08005 0.04078,0.170076 0.126876,0.17672 0.222034,0.01782 0.445579,-0.0066 0.667614,0.01025 0.135032,0.01572 0.20844,0.158895 0.189106,0.284565 -0.02175,0.09123 -0.09032,0.176115 -0.187898,0.187896 -0.223243,0.01419 -0.447392,-0.0069 -0.670634,0.0091 -0.07099,0.0069 -0.127784,0.07341 -0.123252,0.145003 -0.0024,0.273085 -0.0021,0.546177 -3.02e-4,0.819262 -0.01,0.08911 0.0719,0.161315 0.158294,0.155876 0.359484,0.0069 0.719572,-0.005 1.079056,0.005 0.202399,0.0308 0.254056,0.327762 0.106334,0.451622 -0.06585,0.06222 -0.164031,0.05406 -0.247709,0.058 -0.472767,-0.0028 -0.946138,0.0027 -1.418905,-0.0028 -0.132616,0.005 -0.251941,-0.112374 -0.242274,-0.246202 -0.0021,-0.532279 0,-1.06486 -8.8e-4,-1.597436 8.8e-4,-0.515059 8.8e-4,-1.030419 0,-1.545484 6.05e-4,-0.0737 0.0051,-0.154967 0.0583,-0.211457 z"
       id="path11" />
    <path
       d="m 14.862322,16.905718 c 0.08096,-0.08156 0.206628,-0.08035 0.312057,-0.06404 0.103312,0.01815 0.182461,0.117513 0.180346,0.222333 0.0055,0.38456 -0.0015,0.769417 0.0024,1.153977 -0.01,0.0876 0.0577,0.17551 0.148022,0.17793 0.17219,0.0079 0.344984,-5.5e-4 0.517477,0.0039 0.06706,-0.005 0.146813,0.0085 0.201492,-0.04048 0.04199,-0.03504 0.04742,-0.09305 0.04864,-0.143797 0.003,-0.389389 -0.0058,-0.778778 0.003,-1.16787 0.02175,-0.265233 0.460682,-0.293932 0.54708,-0.0577 0.01601,0.05467 0.0133,0.112375 0.0148,0.168866 -0.0021,0.504785 -8.8e-4,1.009575 -3.03e-4,1.514062 -0.0021,0.54406 0.0036,1.08812 -0.0028,1.631575 -0.01902,0.293629 -0.544965,0.290004 -0.56007,-0.005 -0.0072,-0.423225 0.0015,-0.84645 -0.0036,-1.269675 0.0064,-0.0858 -0.07401,-0.153158 -0.155877,-0.148323 -0.193033,-0.0044 -0.386068,-0.0023 -0.579102,-0.0011 -0.0861,-0.0081 -0.182762,0.0577 -0.177626,0.150138 -0.0045,0.413254 8.8e-4,0.826815 -0.0019,1.240372 0.0057,0.09877 -0.05468,0.199677 -0.149836,0.231697 -0.08367,0.02299 -0.174606,0.02415 -0.257983,-5.5e-4 -0.09636,-0.03295 -0.158293,-0.132016 -0.156178,-0.232309 -0.0019,-0.531673 0,-1.063347 -6.05e-4,-1.595021 6.05e-4,-0.515664 8.8e-4,-1.031327 -3.02e-4,-1.546689 -0.0021,-0.07915 0.01088,-0.164938 0.07069,-0.222028 z"
       id="path13" />
    <path
       d="m 18.129397,16.881853 c 0.09969,-0.06646 0.225358,-0.0435 0.338339,-0.04741 0.27067,0.0069 0.542549,-0.01391 0.812615,0.01331 0.488475,0.05285 0.897199,0.487267 0.93345,0.974837 0.01752,0.28336 0.0151,0.567621 0.0151,0.851284 -3.01e-4,0.291511 0.0036,0.583632 -0.01601,0.874539 -0.03504,0.38214 -0.297859,0.727732 -0.647677,0.879681 -0.278222,0.124462 -0.589976,0.08397 -0.88572,0.09092 -0.151345,-0.0039 -0.303597,0.01 -0.454037,-0.0085 -0.114488,-0.0154 -0.197565,-0.128388 -0.193034,-0.241368 -0.0019,-0.53107 -3.01e-4,-1.062138 -6.05e-4,-1.59351 3.03e-4,-0.515663 8.8e-4,-1.031327 -6.05e-4,-1.546687 -0.0032,-0.09092 0.01934,-0.192429 0.09818,-0.247105 m 0.46884,0.610215 c -0.0021,0.393617 -8.8e-4,0.787539 -3.02e-4,1.181465 -6.05e-4,0.391501 -8.8e-4,0.783007 -3.03e-4,1.174515 -0.0094,0.08217 0.06404,0.155572 0.1447,0.156177 0.15044,0.0027 0.302088,0.0079 0.452225,-0.0044 0.244691,-0.02233 0.44437,-0.24469 0.456454,-0.487267 0.02265,-0.279125 0.0079,-0.559163 0.0115,-0.838893 -0.0045,-0.28336 0.01299,-0.567925 -0.0133,-0.85068 -0.01902,-0.247411 -0.233816,-0.464612 -0.483944,-0.473978 -0.142585,-0.0039 -0.285472,-0.005 -0.428057,0 -0.07613,-0.0023 -0.141075,0.06798 -0.13896,0.14289 z"
       id="path15" />
  </g>
</svg>
