<?xml version="1.0" encoding="UTF-8" standalone="no"?>
<!-- Created with Inkscape (http://www.inkscape.org/) -->

<svg
   xmlns="http://www.w3.org/2000/svg"
   version="1.1"
   width="100%"
   height="100%"
   viewBox="0 0 24 22"
   id="svg2">
  <path
       d="m 0.0291,7.1616 0,-7.1593 3.93507,0 3.93506,0 1.37257,1.4381 1.37257,1.4382 1.13196,-1.1589 c 0.62258,-0.6373 1.23106,-1.285 1.35219,-1.4392 L 13.34874,0 l 3.97755,0.026 3.97755,0.026 0.0269,3.0172 0.0269,3.0171 -0.30782,0.5003 C 20.67786,7.1911 19.76971,9.0988 19.67581,9.4729 19.63871,9.6208 19.542,9.7968 19.4609,9.8641 19.19652,10.0835 19.05703,9.752 18.92148,8.5822 18.71988,6.8423 18.44564,6.3949 17.6701,6.5404 c -0.67678,0.127 -0.92484,0.6835 -0.72899,1.6356 0.1786,0.8683 1.61929,4.6133 1.87188,4.8659 0.30289,0.3029 1.06924,0.2964 1.31829,-0.011 0.0992,-0.1225 0.3937,-0.888 0.6544,-1.701 0.2607,-0.8129 0.49536,-1.4781 0.52148,-1.4781 0.0261,0 0.0475,1.0053 0.0475,2.2341 l 0,2.2341 -2.48067,0 -2.48066,0 -0.0541,-0.5332 c -0.0297,-0.2932 -0.081,-2.0491 -0.11383,-3.9021 L 16.1656,6.5156 17.21704,5.9011 c 1.25705,-0.7348 1.5487,-1.0096 1.45743,-1.3732 -0.0821,-0.327 -0.59928,-0.6061 -0.95692,-0.5163 -0.1452,0.037 -0.43162,0.2177 -0.63648,0.4028 -0.20486,0.185 -0.5939,0.4662 -0.86454,0.6249 -0.41175,0.2413 -0.58688,0.2836 -1.07294,0.2595 -0.70262,-0.035 -0.99905,0.1831 -0.99905,0.7344 0,0.3329 -0.0422,0.37 -1.19482,1.0503 -0.65715,0.3878 -1.43049,0.7834 -1.71854,0.8791 -0.28804,0.096 -0.57864,0.2401 -0.64577,0.321 -0.19291,0.2325 -0.14285,0.6428 0.11143,0.9134 0.347,0.3694 0.87736,0.3379 1.43431,-0.085 1.77183,-1.3459 2.24853,-1.5526 2.37923,-1.0318 0.0358,0.1425 0.0314,1.6049 -0.01,3.2496 l -0.0747,2.9904 -0.6463,0 -0.6463,0 -0.0276,-1.9749 -0.0275,-1.9749 -1.20113,1.0112 c -0.66062,0.5562 -1.24203,0.986 -1.29202,0.9551 -0.05,-0.031 -0.60623,-0.491 -1.23607,-1.0226 l -1.14518,-0.9664 -0.0276,1.9862 -0.0275,1.9863 -4.05986,0 -4.05985,0 0,-7.1593 0,0 z M 8.66085,12.95 c 0,-0.754 0.0279,-1.371 0.0621,-1.371 0.0341,0 0.28547,0.1871 0.55852,0.4157 l 0.49645,0.4157 0,0.9553 0,0.9552 -0.55852,0 -0.55853,0 0,-1.3709 z m 13.20151,-1.5585 0,-2.9295 0.56595,-0.9041 c 0.31127,-0.4972 0.60831,-0.9474 0.66007,-1.0005 0.0579,-0.059 0.0941,1.4185 0.0941,3.8335 l 0,3.93 -0.66008,0 -0.66007,0 0,-2.9294 z m -9.90113,0.6463 c 0.27927,-0.248 0.6568,-0.5517 0.6556,-0.5098 -0.007,0.2326 0.0649,0.9648 -0.0648,0.965 -0.19513,3e-4 -0.38236,0 -0.63649,0 l -0.46205,0 0.50775,-0.451 0,0 z m 9.90113,-9.3241 c 0,-1.4354 0.0283,-2.6098 0.0629,-2.6098 0.0346,0 0.33161,0.1633 0.66007,0.3628 l 0.5972,0.3627 0,1.4285 0,1.4284 -0.57843,0.7222 c -0.31815,0.3972 -0.61518,0.7655 -0.66008,0.8186 -0.0449,0.053 -0.0816,-1.0779 -0.0816,-2.5134 z M 9.67636,1.0686 C 9.14796,0.538 8.74395,0.1039 8.77855,0.1039 c 0.10901,0 2.47117,1.0995 2.563,1.1905 0.0785,0.078 -0.521,0.7389 -0.6517,0.739 -0.029,0 -0.4851,-0.4342 -1.01349,-0.9648 z"
       id="path2848" />
  <g
     id="g3021">
    <path
       d="m 0,21.286 0,-5.3742 c 0,-0.4007 0.4957,-0.5723 0.61114,-0.5723 l 21.93737,0 c 0.28754,0 0.58991,0.2536 0.58991,0.6071 l 0,5.4944 c 0,0.2748 -0.35155,0.559 -0.55905,0.559 L 0.5367,22 C 0.27493,22 0,21.6391 0,21.286 z"
       id="path3777"
       style="fill:#8f52a0" />
    <path
       d="m 4.38458,16.8246 c -0.15726,0 -0.1987,0.091 -0.1987,0.1987 l 0,3.2585 c 0,0.1249 0.0291,0.2265 0.1851,0.2265 l 0.9947,0 c 0.41813,0 1.00829,-0.4439 1.00829,-1.0018 l 0,-1.605 c 0,-0.7696 -0.74478,-1.0713 -0.974,-1.0769 l -1.01539,0 z m 0.4944,0.5145 0.49024,0 c 0.19326,0 0.43526,0.1713 0.43526,0.5146 l 0,1.5328 c 0,0.2859 -0.14302,0.6245 -0.52455,0.6245 l -0.40805,0 c -0.0744,0 -0.11651,-0.052 -0.11651,-0.1544 l 0,-2.3874 c 0,-0.033 0.009,-0.1301 0.12361,-0.1301 z"
       id="path2994" />
    <path
       d="m 8.78205,16.7531 -0.47842,0 c -0.18321,0 -0.28069,0.2702 -0.29569,0.3684 L 7.387,20.2694 c -0.0643,0.2752 0.44577,0.4009 0.50917,0.1165 l 0.097,-0.5145 c 0.0162,-0.1027 0.0584,-0.1392 0.1165,-0.1354 l 0.90244,0 c 0.0558,0 0.10538,0.014 0.12596,0.1112 l 0.11177,0.5044 c 0.0765,0.3261 0.56122,0.2021 0.49439,-0.1502 L 9.10732,17.0511 c -0.015,-0.056 -0.11103,-0.297 -0.32526,-0.301 z m -0.21289,0.434 c 0.0292,-10e-5 0.0585,0.036 0.0716,0.1095 l 0.3495,1.7705 c 0.0133,0.096 0.0168,0.184 -0.0875,0.1816 l -0.70552,0 c -0.0957,0 -0.0699,-0.1165 -0.0585,-0.1697 l 0.36133,-1.7824 c 0.0108,-0.073 0.04,-0.1093 0.0692,-0.1095 z"
       id="path3766" />
    <path
       d="m 10.72977,20.3092 0,-3.2617 c 0,-0.2537 0.47722,-0.3089 0.55904,-0.1183 l 0.85056,2.0253 c 0.0177,0.04 0.0773,0.032 0.077,-0.021 l 0,-1.9377 c 0,-0.2302 0.55404,-0.2287 0.55404,0 l 0,3.3165 c 0,0.259 -0.5223,0.2484 -0.60706,0 l -0.78197,-1.9069 c -0.0413,-0.083 -0.0892,-0.076 -0.0892,0 l 0,1.8966 c 0,0.2866 -0.56246,0.2798 -0.56246,0.01 z"
       id="path3771" />
    <path
       d="m 13.93499,19.569 0,-1.9159 c 0.12347,-0.6476 0.71185,-0.8973 0.89731,-0.8973 0.10836,-0.01 0.21698,-0.014 0.32982,0.01 0.48071,0.074 0.6634,0.2379 0.82627,0.4302 0.0822,0.097 -0.13253,0.4686 -0.39739,0.3278 -0.25207,-0.1553 -0.33742,-0.2623 -0.59987,-0.255 -0.28027,-0.039 -0.48367,0.2801 -0.48865,0.4283 l 0,1.8819 c 0.0286,0.2102 0.0701,0.4156 0.48503,0.4802 0.37422,0.029 0.49614,-0.2744 0.713,-0.2862 0.19373,0 0.2867,0.205 0.29102,0.3056 0,0.2971 -0.70491,0.4947 -0.93611,0.4947 -0.0993,0 -0.20352,0.01 -0.28132,-0.014 -0.74305,-0.1264 -0.83911,-0.9503 -0.83911,-0.9895 z"
       id="path3773" />
    <path
       d="m 16.96839,20.2748 0,-3.2513 c 0,-0.113 0.0492,-0.1989 0.15777,-0.1989 l 1.64625,0 c 0.0891,0 0.1852,0.1169 0.1852,0.2641 0,0.078 -0.0625,0.2572 -0.2195,0.2572 l -1.11808,0 c -0.0576,0 -0.096,0.029 -0.096,0.089 l 0,0.8265 c 0,0.1121 0.0544,0.1338 0.1269,0.1338 l 0.65164,0 c 0.0646,0 0.1955,0.021 0.1955,0.2298 0,0.093 0.009,0.2504 -0.22293,0.2504 l -0.62078,0 c -0.0715,0 -0.1269,0.019 -0.1269,0.092 l 0,0.9261 c 0.004,0.052 -0.01,0.1105 0.13719,0.1097 l 1.10436,0 c 0.09,0 0.18178,0.083 0.18178,0.2435 0,0.1274 -0.0649,0.271 -0.20579,0.271 l -1.60853,0 c -0.11439,0 -0.16805,-0.1313 -0.16805,-0.2436 z"
       id="path3775" />
  </g>
</svg>
