<?xml version="1.0" encoding="UTF-8" standalone="no"?>
<!-- Created with Inkscape (http://www.inkscape.org/) -->

<svg
   xmlns="http://www.w3.org/2000/svg"
   version="1.1"
   width="100%"
   height="100%"
   viewBox="0 0 24 22"
   id="svg2">
  <path
       d="m 0.0291,7.1616 0,-7.1593 3.93507,0 3.93506,0 1.37257,1.4381 1.37257,1.4382 1.13196,-1.1589 c 0.62258,-0.6373 1.23106,-1.285 1.35219,-1.4392 L 13.34874,0 l 3.97755,0.026 3.97755,0.026 0.0269,3.0172 0.0269,3.0171 -0.30782,0.5003 C 20.67786,7.1911 19.76971,9.0988 19.67581,9.4729 19.63871,9.6208 19.542,9.7968 19.4609,9.8641 19.19652,10.0835 19.05703,9.752 18.92148,8.5822 18.71988,6.8423 18.44564,6.3949 17.6701,6.5404 c -0.67678,0.127 -0.92484,0.6835 -0.72899,1.6356 0.1786,0.8683 1.61929,4.6133 1.87188,4.8659 0.30289,0.3029 1.06924,0.2964 1.31829,-0.011 0.0992,-0.1225 0.3937,-0.888 0.6544,-1.701 0.2607,-0.8129 0.49536,-1.4781 0.52148,-1.4781 0.0261,0 0.0475,1.0053 0.0475,2.2341 l 0,2.2341 -2.48067,0 -2.48066,0 -0.0541,-0.5332 c -0.0297,-0.2932 -0.081,-2.0491 -0.11383,-3.9021 L 16.1656,6.5156 17.21704,5.9011 c 1.25705,-0.7348 1.5487,-1.0096 1.45743,-1.3732 -0.0821,-0.327 -0.59928,-0.6061 -0.95692,-0.5163 -0.1452,0.037 -0.43162,0.2177 -0.63648,0.4028 -0.20486,0.185 -0.5939,0.4662 -0.86454,0.6249 -0.41175,0.2413 -0.58688,0.2836 -1.07294,0.2595 -0.70262,-0.035 -0.99905,0.1831 -0.99905,0.7344 0,0.3329 -0.0422,0.37 -1.19482,1.0503 -0.65715,0.3878 -1.43049,0.7834 -1.71854,0.8791 -0.28804,0.096 -0.57864,0.2401 -0.64577,0.321 -0.19291,0.2325 -0.14285,0.6428 0.11143,0.9134 0.347,0.3694 0.87736,0.3379 1.43431,-0.085 1.77183,-1.3459 2.24853,-1.5526 2.37923,-1.0318 0.0358,0.1425 0.0314,1.6049 -0.01,3.2496 l -0.0747,2.9904 -0.6463,0 -0.6463,0 -0.0276,-1.9749 -0.0275,-1.9749 -1.20113,1.0112 c -0.66062,0.5562 -1.24203,0.986 -1.29202,0.9551 -0.05,-0.031 -0.60623,-0.491 -1.23607,-1.0226 l -1.14518,-0.9664 -0.0276,1.9862 -0.0275,1.9863 -4.05986,0 -4.05985,0 0,-7.1593 0,0 z M 8.66085,12.95 c 0,-0.754 0.0279,-1.371 0.0621,-1.371 0.0341,0 0.28547,0.1871 0.55852,0.4157 l 0.49645,0.4157 0,0.9553 0,0.9552 -0.55852,0 -0.55853,0 0,-1.3709 z m 13.20151,-1.5585 0,-2.9295 0.56595,-0.9041 c 0.31127,-0.4972 0.60831,-0.9474 0.66007,-1.0005 0.0579,-0.059 0.0941,1.4185 0.0941,3.8335 l 0,3.93 -0.66008,0 -0.66007,0 0,-2.9294 z m -9.90113,0.6463 c 0.27927,-0.248 0.6568,-0.5517 0.6556,-0.5098 -0.007,0.2326 0.0649,0.9648 -0.0648,0.965 -0.19513,3e-4 -0.38236,0 -0.63649,0 l -0.46205,0 0.50775,-0.451 0,0 z m 9.90113,-9.3241 c 0,-1.4354 0.0283,-2.6098 0.0629,-2.6098 0.0346,0 0.33161,0.1633 0.66007,0.3628 l 0.5972,0.3627 0,1.4285 0,1.4284 -0.57843,0.7222 c -0.31815,0.3972 -0.61518,0.7655 -0.66008,0.8186 -0.0449,0.053 -0.0816,-1.0779 -0.0816,-2.5134 z M 9.67636,1.0686 C 9.14796,0.538 8.74395,0.1039 8.77855,0.1039 c 0.10901,0 2.47117,1.0995 2.563,1.1905 0.0785,0.078 -0.521,0.7389 -0.6517,0.739 -0.029,0 -0.4851,-0.4342 -1.01349,-0.9648 z"
       id="path2848" />
  <g
     id="g3109">
    <path
       d="m 0.01013,21.4041 c 0,-1.8225 0,-3.6449 0,-5.4673 0.0715,-0.6119 0.74457,-0.5997 1.21357,-0.575 7.13209,0 14.26419,0 21.39628,0 0.64768,0.019 0.66748,0.7045 0.63129,1.1868 -0.0113,1.6559 0.0257,3.3154 -0.0159,4.9692 -0.21389,0.65 -0.96209,0.4423 -1.48064,0.4759 -7.05409,0 -14.10818,0 -21.16227,0 -0.29913,-0.01 -0.55706,-0.3014 -0.5823,-0.5896 z"
       id="path3777"
       style="fill:#ed008c" />
    <path
       d="m 6.92708,20.2931 c -0.001,-1.1082 -0.007,-2.2166 -0.006,-3.3248 0.0449,-0.1556 0.24996,-0.1728 0.38477,-0.1477 0.11468,0.011 0.2006,0.1137 0.17886,0.2278 8.8e-4,0.4128 -0.002,0.8257 0.001,1.2383 0.0329,0.1049 0.16471,0.07 0.25062,0.076 0.19093,0 0.38218,0 0.57291,0 0.12325,0 0.10801,-0.1336 0.10644,-0.22 1.5e-4,-0.3836 -0.004,-0.7674 -10e-4,-1.151 0.0444,-0.1483 0.24128,-0.1603 0.36926,-0.1354 0.11091,0.012 0.19282,0.1113 0.17164,0.2216 -8.8e-4,1.0894 0.002,2.1788 -8.8e-4,3.2681 C 8.9164,20.4972 8.72117,20.5265 8.58983,20.5003 8.47314,20.4873 8.40138,20.3772 8.4197,20.266 8.4147,19.8257 8.4137,19.3853 8.406,18.9452 8.4,18.8324 8.27186,18.8762 8.19718,18.8682 c -0.20991,0 -0.42011,0 -0.62983,0 -0.11632,0.015 -0.086,0.1479 -0.0897,0.2315 -1.3e-4,0.4064 0.004,0.813 0.001,1.2194 -0.0345,0.173 -0.26071,0.198 -0.40079,0.15 -0.0775,-0.025 -0.15341,-0.087 -0.15129,-0.1757 z"
       id="path2994" />
    <path
       d="m 10.1474,20.3047 c -4.4e-4,-1.1096 -10e-4,-2.2192 -0.002,-3.3288 0.0336,-0.1404 0.227,-0.1343 0.34211,-0.1263 0.0929,0 0.21645,0.06 0.19329,0.1714 -2e-4,1.0948 -4e-4,2.1895 -4.4e-4,3.2843 -8.8e-4,0.1774 -0.22132,0.2402 -0.36433,0.195 -0.0897,-0.022 -0.1724,-0.097 -0.16864,-0.1956 z"
       id="path3764" />
    <path
       d="m 12.21652,20.3004 c -8.8e-4,-0.9589 0.002,-1.918 -10e-4,-2.8769 -0.0282,-0.1071 -0.16163,-0.076 -0.24676,-0.081 -0.12873,-0.01 -0.26223,0.017 -0.38637,-0.022 -0.20949,-0.091 -0.17525,-0.4675 0.0632,-0.4899 0.56088,0 1.12204,0 1.68293,0 0.25602,0.025 0.27734,0.4578 0.0276,0.5116 -0.16913,0.015 -0.34012,0 -0.50966,0.01 -0.10622,0.017 -0.0686,0.14 -0.0755,0.2157 -8.8e-4,0.9212 0.002,1.8425 -0.002,2.7637 -0.0325,0.185 -0.2767,0.2244 -0.42414,0.1576 -0.0738,-0.031 -0.13132,-0.1022 -0.12855,-0.1846 z"
       id="path3766" />
    <path
       d="m 14.45071,20.2907 c -0.16811,-0.1019 -0.14915,-0.3555 -4.4e-4,-0.465 0.12423,-0.1227 0.27032,0 0.37516,0.077 0.19451,0.134 0.46175,0.2456 0.68614,0.1144 0.18466,-0.082 0.3091,-0.2819 0.27402,-0.485 -0.0117,-0.2562 -0.22261,-0.4414 -0.44161,-0.5396 -0.32961,-0.1509 -0.65018,-0.344 -0.89488,-0.6153 -0.1209,-0.1346 -0.20077,-0.3135 -0.17679,-0.4968 -0.0177,-0.4795 0.30389,-0.9677 0.7784,-1.086 0.17743,-0.043 0.35981,0.01 0.53772,0.022 0.24118,0.037 0.47814,0.1539 0.63199,0.3464 0.11887,0.1773 -0.0616,0.4602 -0.27558,0.3922 -0.17571,-0.065 -0.28915,-0.2582 -0.49118,-0.2655 -0.21619,-0.033 -0.47904,0.03 -0.57542,0.2479 -0.0607,0.1384 -0.0814,0.3087 -0.0217,0.4499 0.14041,0.2061 0.37758,0.3138 0.58777,0.4348 0.28597,0.1446 0.60109,0.2886 0.76718,0.5791 0.17074,0.2787 0.12508,0.6302 0.022,0.9238 -0.12744,0.3579 -0.47724,0.6367 -0.86463,0.6317 -0.32351,0.013 -0.65417,-0.076 -0.91795,-0.2663 z"
       id="path3768" />
  </g>
</svg>
