<?xml version="1.0" encoding="UTF-8" standalone="no"?>
<!-- Generator: Adobe Illustrator 17.1.0, SVG Export Plug-In . SVG Version: 6.00 Build 0)  -->

<svg
   xmlns="http://www.w3.org/2000/svg"
   version="1.1"
   id="svg12614"
   width="100%"
   height="100%"
   viewBox="0 93.1 82 22">
<g
   id="layer1"
   transform="matrix(0.8,0,0,0.8,-19.280003,-393.42)">
	<path
   id="path9482"
   d="m 24.1,610.9 v 22 h 24.4 v -22 c 0,0 -24.4,0 -24.4,0 z m 80.1,1.1 v 3.5 h 1.6 v -2 h 17.3 v 2 h 1.5 V 612 h -20.4 z m 0,17.3 v 3.5 h 20.5 v -3.5 h -1.6 v 2 h -17.3 v -2 h -1.6 z"
   style="fill:#f58a18" />
	<path
   id="path9494"
   d="m 46,610.9 v 22 h 5.6 v -12.1 c 0.7,1 1.5,2.2 2.4,3.4 2.3,3 4.7,5.9 7.1,8.7 H 66 v -22 h -5.7 v 11.7 c -1.6,-2.6 -3.6,-5.1 -5.5,-7.4 -1.2,-1.4 -2.4,-2.9 -3.6,-4.3 H 46 z m 29.8,3.3 c -2.7,0 -5.3,0.8 -7.3,2.7 l 2,2.9 c 1.2,-0.8 2.7,-1.7 4.2,-1.8 0.6,0 1,0.2 1.3,0.5 0.3,0.3 0.4,0.7 0.5,1 0,1.9 -1.8,4 -3,5.3 -0.9,1 -1.9,1.9 -3,2.9 l -2.6,2.3 0.1,2.9 h 14.9 v -4.2 h -6.7 l 2.1,-2.2 c 1.9,-1.9 4.5,-4.6 4.4,-7.5 -0.1,-3.6 -3.8,-4.8 -6.9,-4.8 l 0,0 z m 15.1,0.3 -8.2,10.3 v 2.6 H 91 v 5.5 h 5.8 v -5.5 H 99 V 624 h -2.2 v -9.5 h -5.9 l 0,0 z m 13.3,2.8 c -0.8,3.4 -1.6,6.8 -2.4,10.1 h 3.7 c 0.3,-1.3 0.6,-2.6 1,-4 h 3 l -0.9,4 h 3.7 l 2.3,-10.1 h -3.7 l -0.8,3.5 h -3 l 0.8,-3.5 h -3.7 l 0,0 z m 12.3,0 -2.1,10.1 h 4.2 c 2.4,0 3.9,-0.3 4.9,-1 0.9,-0.7 2,-2 2.2,-4 0.2,-1.8 -0.7,-3.4 -1.9,-4.2 -1.1,-0.7 -3.5,-0.8 -3.5,-0.8 h -3.8 l 0,-0.1 z M 91,619 v 5 h -3.7 l 3.7,-5 z m 28.5,0.8 h 1.4 c 0,0 0.7,0 1.2,0.6 0.4,0.6 0.2,1.4 0.1,2 -0.2,0.7 -0.5,1.4 -0.8,1.8 -0.4,0.4 -0.7,0.7 -1.3,0.7 -0.6,0 -1.7,0 -1.7,0 l 1.1,-5.1 z"
   style="fill:#003b58" />
</g>
</svg>