<?xml version="1.0" encoding="UTF-8" standalone="no"?>
<!-- Created with Inkscape (http://www.inkscape.org/) -->

<svg
   xmlns="http://www.w3.org/2000/svg"
   width="100%"
   height="100%"
   viewBox="0 0 62 22"
   id="svg3354"
   version="1.0">
  <g
     id="layer1"
     transform="translate(-17.237625,-625.56105)">
    <g
       id="g3350"
       transform="matrix(0.05044575,0,0,0.05044575,10.297396,649.12079)">
      <path
         id="path2457"
         d="m 560.65283,-33.269395 c -3.12938,-12.8285 -55.66808,-265.098005 -55.28931,-265.476775 0.49161,-0.49161 67.92639,-8.39072 68.17232,-7.9855 0.68528,1.12911 19.9454,121.83026 25.39885,159.17193 2.80437,19.20249 5.27113,35.08589 5.48169,35.29646 0.52646,0.52645 0.71319,-0.18406 7.03476,-26.76788 9.33359,-39.25008 32.90316,-127.8874 43.14394,-162.25 0.48056,-1.6125 2.71819,-1.75 28.4789,-1.75 l 27.95736,0 0.93025,2.44673 c 1.55944,4.10165 28.48102,98.66613 34.46267,121.05327 3.08607,11.55 8.1865,31.4525 11.3343,44.22777 3.14781,12.77527 5.95819,23.23777 6.2453,23.25 0.28711,0.0122 1.55483,-7.96527 2.81716,-17.72777 5.59113,-43.24045 25.32135,-175.75809 26.31248,-176.72727 0.4661,-0.45578 57.80839,7.10399 58.40416,7.69976 0.25651,0.25651 -11.57612,60.61603 -26.29472,134.13227 l -26.7611,133.665905 -37.95323,-0.2603 -37.95323,-0.2604 -3.83969,-13 c -15.62938,-52.91625 -30.55582,-107.536695 -37.30213,-136.499965 -1.47325,-6.325 -2.98281,-11.83272 -3.35456,-12.23938 -0.37175,-0.40665 -2.84112,9.04335 -5.48748,21 -4.59655,20.76793 -24.79329,101.898745 -31.92396,128.239345 l -3.38388,12.5 -38.03955,0.2618 -38.03956,0.2618 -0.55174,-2.2618 z m 306.32901,-133.761765 0,-136 33.5,0 33.5,0 0,136 0,135.999965 -33.5,0 -33.5,0 0,-135.999965 z m 98,0 0,-136 34,0 33.99996,0 0,111 0,110.999965 41.5,0 41.5,0 0,25 0,25 -75.5,0 -75.49996,0 0,-135.999965 z m 171.99996,0.056 0,-136.05605 47.9608,0 c 50.726,0 62.4702,0.68048 77.5392,4.49278 20.8305,5.26985 35.8524,13.28707 50.0148,26.69293 19.1,18.07974 30.4783,41.81497 35.0875,73.19269 2.0089,13.67521 1.4759,46.45597 -0.9662,59.43266 -6.0564,32.18186 -16.453,53.700235 -35.136,72.722305 -17.2146,17.527 -34.5585,27.0059 -60.5001,33.0649 -6.5227,1.5234 -14.4384,1.8013 -60.75,2.1328 l -53.25,0.381 0,-136.056015 z m 102.1451,82.741485 c 12.3564,-4.59874 21.6075,-13.34222 28.3043,-26.751145 6.7237,-13.46268 9.9588,-26.88651 11.7298,-48.67138 2.8393,-34.92732 -5.2275,-63.01611 -22.8159,-79.44492 -10.9502,-10.22822 -19.0045,-12.93009 -38.5448,-12.93009 l -13.8185,0 0,84.83333 c 0,46.65834 0.3375,85.181935 0.75,85.607935 0.4125,0.426 6.825,0.5619 14.25,0.302 11.1293,-0.3896 14.667,-0.9069 20.1451,-2.94573 z M 911.38395,-332.96972 c -14.68953,-2.3223 -25.63932,-8.79911 -35.36639,-20.91928 -8.45729,-10.53798 -12.85064,-23.38729 -13.74082,-40.188 -1.15044,-21.71247 5.56195,-40.30265 19.32805,-53.52967 16.54057,-15.89283 43.3497,-20.07311 63.44084,-9.89216 2.7666,1.40194 5.24718,3.11447 5.5124,3.80561 0.26521,0.69115 -0.87531,4.25058 -2.5345,7.90984 l -3.01671,6.65321 -5.47967,-2.42337 c -19.48582,-8.61755 -40.16467,-2.00272 -49.14596,15.72102 -4.02338,7.93975 -5.44163,13.51105 -6.08132,23.88913 -1.33185,21.60745 7.01733,39.93718 21.85596,47.98239 5.83073,3.16131 6.9915,3.42577 14.82601,3.37781 4.675,-0.0286 9.7375,-0.57997 11.25,-1.22525 l 2.75,-1.17322 0,-19.52475 0,-19.52475 10.5,0 10.5,0 0,25.98658 0,25.98658 -3.75,1.57812 c -10.55576,4.4422 -30.54611,7.13879 -40.84789,5.51016 z m 180.84905,-0.5779 c -18.2798,-3.97098 -32.9931,-20.23256 -38.8911,-42.98354 -2.5542,-9.8528 -2.5935,-34.33726 -0.07,-43.5 5.8832,-21.35921 21.1657,-37.86915 38.8214,-41.93946 5.6264,-1.29709 16.1501,-1.29709 21.7765,0 12.3673,2.85113 26.2473,14.04947 32.7709,26.43946 6.3396,12.04064 7.8454,19.18253 7.8009,37 -0.046,18.35067 -1.1956,24.01179 -7.5742,37.29076 -7.0238,14.62217 -19.221,24.68967 -33.6055,27.73775 -8.2294,1.74381 -12.8402,1.73395 -21.0292,-0.045 z m 23.1752,-19.88749 c 11.0943,-6.5017 17.5736,-23.42268 17.5736,-45.89393 0,-27.50174 -11.7546,-45.86632 -29.4638,-46.03203 -14.4833,-0.13553 -24.9656,10.70607 -29.0677,30.06385 -4.7778,22.54694 1.9699,52.03346 13.8419,60.48708 7.7956,5.55095 19.0191,6.12008 27.116,1.37503 z m -589.42636,-47.09605 0,-66.5 8.25,0.0381 8.25,0.0381 3.93111,5.71187 c 13.12961,19.07721 47.09239,70.24545 52.07885,78.46187 3.25445,5.3625 6.27107,9.75 6.70361,9.75 0.43254,0 0.78643,-21.15 0.78643,-47 l 0,-47 8.5,0 8.5,0 0,66.5 0,66.5 -7.82403,0 -7.82403,0 -18.87536,-27.68021 c -10.38145,-15.22412 -24.52313,-36.62716 -31.42597,-47.56233 l -12.55061,-19.88213 -0.2597,47.56234 -0.25969,47.56233 -8.99031,0 -8.9903,0 0,-66.5 z m 106.99931,65.75 c -3.7e-4,-0.4125 9.96195,-30.3375 22.1385,-66.5 l 22.13919,-65.75 9.1115,0.0128 9.1115,0.0128 18.41296,59.23717 c 10.12712,32.58044 19.42978,62.49966 20.67258,66.48716 l 2.25962,7.25 -12.27515,0 -12.27515,0 -4.79555,-17.25 c -2.63756,-9.4875 -5.24188,-17.822 -5.78739,-18.5211 -0.75412,-0.96646 -5.55286,-1.20613 -20.02214,-1 l -19.03031,0.2711 -5.57973,18.23741 -5.57974,18.2374 -9.25,0.0126 c -5.0875,0.007 -9.25031,-0.32491 -9.25069,-0.73741 z m 65.17317,-51.75581 c 0.43947,-0.43947 -12.23443,-48.46563 -13.85299,-52.49419 -0.38086,-0.94794 -0.96334,-0.0278 -1.58267,2.5 -0.53901,2.2 -3.8503,14.08312 -7.35842,26.40694 -3.50812,12.32381 -6.3784,22.78632 -6.3784,23.25 0,0.8855 28.2971,1.21263 29.17248,0.33725 z m 61.82752,-4.99419 0,-57.5 -17,0 -17,0 0,-9 0,-9 45,0 45,0 0,9 0,9 -17,0 -17,0 0,57.5 0,57.5 -11,0 -11,0 0,-57.5 z m 219,-6 0,-63.5 27.99996,0 28,0 0,8.5 0,8.5 -17.5,0 -17.49996,0 0,17.5 0,17.5 16.99996,0 17,0 0,8 0,8 -17,0 -16.99996,0 0,21 0,21 20.49996,0 20.5,0 0,8.5 0,8.5 -31,0 -30.99996,0 0,-63.5 z"
         style="fill:#707173" />
      <path
         id="rect2529"
         d="m 137.57808,-466.55383 0,434.9375 303.34375,0 0,-434.9375 -303.34375,0 z m 44,44 c 71.78125,0 143.5625,0 215.34375,0 0,115.64583 0,231.29167 0,346.9375 -71.78125,0 -143.5625,0 -215.34375,0 0,-115.64583 0,-231.29167 0,-346.9375 z"
         style="fill:#ffcc00" />
    </g>
  </g>
</svg>
