<?xml version="1.0" encoding="UTF-8" standalone="no"?>
<!-- Created with Inkscape (http://www.inkscape.org/) -->

<svg
   xmlns="http://www.w3.org/2000/svg"
   width="100%"
   height="100%"
   viewBox="0 0 72 22"
   id="svg3354"
   version="1.0">
  <path
     id="rect2529"
     d="m 4.2916e-7,0.02408213 0,21.94074887 15.30240257084,0 0,-21.94074887 -15.30240257084,0 z M 2.2196134,2.2436951 c 3.621059,0 7.242118,0 10.8631766,0 0,5.8338407 0,11.6676819 0,17.5015229 -3.6210586,0 -7.2421176,0 -10.8631766,0 0,-5.833841 0,-11.6676822 0,-17.5015229 z"
     style="fill:#ffcc00" />
  <g
     id="g3020">
    <rect
       y="16.035795"
       x="57.758381"
       height="6.1029081"
       width="13.870247"
       id="rect2998"
       style="fill:#707173" />
    <path
       style="fill:#ffffff"
       id="path2466"
       d="m 64.482252,18.515896 1.140269,0 0,-1.515896 0.882253,0 0,4 -0.882253,0 0,-1.705808 -1.140269,0 0,1.705808 -0.882252,0 0,-4 0.882252,0 0,1.515896 z M 68.375813,17 C 69.870649,17 70.4,17.861383 70.4,19.000848 70.4,20.126749 69.815715,21 68.640489,21 l -1.253464,0 0,-4 0.988788,0 z m -0.108266,0.778296 0,2.443409 0.314615,0 c 0.57263,0 0.915544,-0.37304 0.915544,-1.310725 0,-0.774905 -0.322939,-1.132684 -0.997111,-1.132684 l -0.233048,0" />
    <g
       transform="translate(-0.2,0.700024)"
       id="g2980">
      <path
         style="fill:#ffffff"
         d="m 51.416,15.136528 0,-6.8634497 2.419418,0 c 2.558911,0 3.151356,0.034327 3.911523,0.2266417 1.05081,0.2658415 1.808601,0.6702762 2.523034,1.3465449 0.963514,0.9120461 1.537501,2.1093871 1.770016,3.6922601 0.10134,0.689856 0.07445,2.343506 -0.04874,2.998125 -0.30552,1.623438 -0.829984,2.708949 -1.772462,3.668531 -0.868403,0.884163 -1.743329,1.362333 -3.051973,1.667984 -0.329042,0.07685 -0.728356,0.09087 -3.064579,0.107591 l -2.686236,0.01922 z m 5.152786,4.173956 c 0.623328,-0.231987 1.090006,-0.673058 1.427831,-1.349481 0.339183,-0.679135 0.50238,-1.356311 0.591719,-2.455265 0.143231,-1.761935 -0.263705,-3.178895 -1.150965,-4.007658 -0.552391,-0.515971 -0.958696,-0.652268 -1.944422,-0.652268 l -0.697084,0 0,4.279481 c 0,2.353715 0.01703,4.297066 0.03783,4.318556 0.02081,0.02149 0.344292,0.02834 0.718852,0.01524 0.561426,-0.01965 0.739888,-0.04575 1.016239,-0.148605 z"
         id="path8" />
    </g>
  </g>
  <g
     id="g2986">
    <path
       style="fill:#707173"
       d="M 21.342323,21.88144 C 21.18446,21.234297 18.534105,8.5083727 18.553213,8.4892654 c 0.0248,-0.0248 3.426597,-0.4232762 3.439004,-0.4028345 0.03457,0.056959 1.00616,6.1458191 1.281264,8.0295471 0.141468,0.968684 0.265906,1.769934 0.276528,1.780557 0.02656,0.02656 0.03598,-0.0093 0.354873,-1.350326 0.47084,-1.98 1.659825,-6.451376 2.176429,-8.1848231 0.02424,-0.081344 0.137121,-0.08828 1.436639,-0.08828 l 1.41033,0 0.04693,0.1234271 c 0.07867,0.2069108 1.436747,4.977287 1.738496,6.106623 0.155679,0.582648 0.412974,1.586645 0.571767,2.231103 0.158794,0.644458 0.300565,1.172247 0.315049,1.172864 0.01448,6.15e-4 0.07843,-0.401814 0.142113,-0.894291 0.282049,-2.181297 1.277355,-8.8662486 1.327353,-8.9151396 0.02351,-0.022992 2.916188,0.3583661 2.946242,0.3884201 0.01294,0.01294 -0.583966,3.0578215 -1.326457,6.7664025 l -1.349984,6.742877 -1.914579,-0.01313 -1.914579,-0.01314 -0.193696,-0.655795 c -0.788436,-2.669399 -1.541411,-5.424769 -1.881734,-6.885843 -0.07432,-0.319069 -0.15047,-0.59691 -0.169223,-0.617424 -0.01875,-0.02051 -0.143323,0.456198 -0.27682,1.05936 -0.231877,1.047654 -1.250716,5.140359 -1.610428,6.46913 l -0.170703,0.630572 -1.918933,0.01321 -1.918935,0.01321 -0.02783,-0.114099 z m 15.452997,-6.747712 0,-6.8606221 1.689933,0 1.689932,0 0,6.8606221 0,6.86062 -1.689932,0 -1.689933,0 0,-6.86062 z m 4.943684,0 0,-6.8606221 1.715155,0 1.715154,0 0,5.5994781 0,5.599477 2.093498,0 2.093499,0 0,1.261143 0,1.261144 -3.808654,0 -3.808652,0 0,-6.86062 z m 8.676667,0.0028 0,-6.8634497 2.419418,0 c 2.558911,0 3.151356,0.034327 3.911523,0.2266417 1.05081,0.2658415 1.808601,0.6702762 2.523034,1.3465449 0.963514,0.9120461 1.537501,2.1093871 1.770016,3.6922601 0.10134,0.689856 0.07445,2.343506 -0.04874,2.998125 -0.30552,1.623438 -0.829984,2.708949 -1.772462,3.668531 -0.868403,0.884163 -1.743329,1.362333 -3.051973,1.667984 -0.329042,0.07685 -0.728356,0.09087 -3.064579,0.107591 l -2.686236,0.01922 0,-6.863448 z m 5.152786,4.173956 c 0.623328,-0.231987 1.090006,-0.673058 1.427831,-1.349481 0.339183,-0.679135 0.50238,-1.356311 0.591719,-2.455265 0.143231,-1.761935 -0.263705,-3.178895 -1.150965,-4.007658 -0.552391,-0.515971 -0.958696,-0.652268 -1.944422,-0.652268 l -0.697084,0 0,4.279481 c 0,2.353715 0.01703,4.297066 0.03783,4.318556 0.02081,0.02149 0.344292,0.02834 0.718852,0.01524 0.561426,-0.01965 0.739888,-0.04575 1.016235,-0.1486 z M 39.035218,6.7628327 C 38.294194,6.6456826 37.741823,6.318955 37.251134,5.707544 36.824499,5.1759477 36.602874,4.5277546 36.557968,3.6802302 36.499933,2.5849283 36.838545,1.6471328 37.532986,0.97988583 38.367387,0.1781601 39.719794,-0.03271726 40.733307,0.4808684 c 0.139563,0.0707219 0.264698,0.15711177 0.278077,0.19197685 0.01338,0.0348656 -0.04416,0.21442369 -0.127855,0.39901785 l -0.15218,0.3356261 -0.276426,-0.1222487 c -0.982977,-0.43471876 -2.026137,-0.1010287 -2.479205,0.7930587 -0.202963,0.4005266 -0.274507,0.681575 -0.306777,1.205105 -0.06719,1.0900041 0.353995,2.014661 1.10254,2.4205077 0.294136,0.1594746 0.352692,0.1728155 0.74791,0.1703961 0.235834,-0.00144 0.491215,-0.029257 0.567514,-0.061809 l 0.138726,-0.059184 0,-0.9849406 0,-0.9849407 0.529681,0 0.52968,0 0,1.3109125 0,1.3109125 -0.189172,0.07961 c -0.532493,0.2240901 -1.540921,0.3601216 -2.060602,0.2779641 z m 9.123066,-0.029153 C 47.236146,6.5333611 46.493922,5.7130335 46.196393,4.5653432 46.067545,4.0683113 46.065562,2.8331744 46.192862,2.3709531 c 0.296782,-1.0774814 1.06772,-1.91033766 1.958375,-2.1156675 0.283828,-0.0654327 0.814703,-0.0654327 1.098531,0 0.623878,0.14382739 1.324065,0.70873605 1.653153,1.3337584 0.319806,0.6073991 0.395767,0.9676771 0.393522,1.8664927 -0.0023,0.9257133 -0.06031,1.2112928 -0.382086,1.8811604 -0.354321,0.7376263 -0.969618,1.2454889 -1.695255,1.3992516 -0.415138,0.087968 -0.647733,0.08747 -1.060833,-0.00227 z m 1.16909,-1.0032393 c 0.55966,-0.3279831 0.886514,-1.1815747 0.886514,-2.3151537 0,-1.3873459 -0.59297,-2.3137609 -1.486324,-2.3221203 -0.730621,-0.00684 -1.259408,0.5400757 -1.466342,1.5165935 -0.241019,1.1373973 0.09937,2.6248669 0.698265,3.0513161 0.393255,0.2800218 0.959433,0.308732 1.367887,0.069364 z m -29.734055,-2.3757956 0,-3.35464233957 0.416178,0.00192197957 0.416177,0.00192199 0.198308,0.28813956 c 0.662333,0.96236421 2.375611,3.54358441 2.627157,3.95806791 0.164173,0.2705153 0.316349,0.491846 0.338168,0.491846 0.02182,0 0.03967,-1.0669276 0.03967,-2.3709502 l 0,-2.370950266315 0.428789,0 0.428789,0 0,3.354642366315 0,3.3546424 -0.394689,0 -0.394689,0 -0.952182,-1.396349 C 22.221297,4.5449435 21.50791,3.4652511 21.159691,2.9136182 l -0.633125,-1.0029689 -0.0131,2.3993179 -0.0131,2.3993174 -0.453523,0 -0.453523,0 0,-3.3546424 z m 5.397661,3.3168081 c -1.9e-5,-0.020809 0.502538,-1.5303979 1.116793,-3.3546424 L 27.224601,2.86043e-6 27.684238,6.4856603e-4 28.143874,0.00129427 29.07273,2.9895577 C 29.5836,4.6331025 30.052879,6.1424 30.115573,6.3435524 l 0.113989,0.3657317 -0.61923,0 -0.619229,0 -0.241915,-0.8701892 C 28.616135,5.3604908 28.484758,4.9400507 28.457239,4.9047841 28.419197,4.8560303 28.177121,4.84394 27.447207,4.8543384 l -0.959998,0.013676 -0.281474,0.9199998 -0.281474,0.9199994 -0.466623,6.356e-4 c -0.256643,3.531e-4 -0.466639,-0.01639 -0.466658,-0.037199 z m 3.287709,-2.6108607 c 0.02217,-0.022169 -0.617175,-2.444885 -0.698824,-2.6481087 -0.01921,-0.04782 -0.0486,-0.0014 -0.07984,0.1261143 -0.02719,0.1109807 -0.194231,0.7104336 -0.371201,1.3321179 -0.17697,0.6216839 -0.321763,1.149473 -0.321763,1.1728637 0,0.04467 1.427468,0.061172 1.471627,0.017013 z m 3.118936,-0.2519356 0,-2.90063064 -0.857578,0 -0.857578,0 0,-0.45401175 0,-0.45401174957 2.270059,0 2.270059,0 0,0.45401174957 0,0.45401175 -0.857578,0 -0.857578,0 0,2.90063064 0,2.9006306 -0.554903,0 -0.554903,0 0,-2.9006306 z m 11.047619,-0.3026745 0,-3.20330514 1.412479,0 1.412481,0 0,0.42878888 0,0.42878886 -0.8828,0 -0.882799,0 0,0.8828006 0,0.8828007 0.857576,0 0.857577,0 0,0.403566 0,0.403566 -0.857577,0 -0.857576,0 0,1.0593607 0,1.0593608 1.034136,0 1.034138,0 0,0.4287888 0,0.4287889 -1.563819,0 -1.563816,0 0,-3.2033051 z"
       id="path2457" />
  </g>
</svg>
