<?xml version="1.0" encoding="UTF-8" standalone="no"?>
<!-- Created with Inkscape (http://www.inkscape.org/) -->

<svg
   xmlns="http://www.w3.org/2000/svg"
   version="1.1"
   width="100%"
   height="100%"
   viewBox="0 0 63 22"
   id="Layer_1">
  <path
     d="M 0,0.06553205 H 15.231987 V 21.891612 H 0 V 0.06553205 z M 13.028616,2.264326 H 2.1933845 V 19.694481 H 13.028824 V 2.264326 z"
     id="path3"
     style="fill:#fdd700" />
  <g
     id="g3062"
     style="fill:#010101" >
    <path
       d="M 23.314618,6.1711423 H 22.56109 C 21.571435,4.7753894 20.591767,3.388791 19.61189,1.8207802 h -0.0075 V 6.1711423 H 18.772474 V 0.10360348 h 0.753528 c 0.989655,1.38659842 1.967867,2.76716402 2.940046,4.32435612 h 0.01664 V 0.10360348 h 0.831959 V 6.1711423 z"
       id="path5" />
    <path
       d="m 25.291014,3.7711725 c 0.242994,-0.7984649 0.485362,-1.5343089 0.701726,-2.472993 h 0.01893 c 0.242993,0.9386841 0.458732,1.6745281 0.684873,2.472993 h -1.40553 z M 25.690247,0.10360348 23.593602,6.1711423 h 0.899781 l 0.528842,-1.6547646 h 1.830767 l 0.475376,1.6547646 h 1.162745 L 26.558197,0.10360348 h -0.86795 z"
       id="path7" />
    <polygon
       points="146.66,29.663 141.657,29.663 141.657,4.417 133.993,4.417 133.993,0.498 154.325,0.498 154.325,4.417 146.66,4.417 "
       transform="matrix(0.20804177,0,0,0.20804177,0,-1.8316257e-6)"
       id="polygon9" />
    <line
       style="fill:none;stroke:#010101;stroke-width:1.02690327;stroke-miterlimit:10"
       id="line11"
       y2="0.093450405"
       x2="33.113453"
       y1="6.1965475"
       x1="33.113453"
       stroke-miterlimit="10" />
    <path
       d="m 36.683382,5.4092934 c -1.083481,0 -1.464406,-1.1976968 -1.464406,-2.3587777 0,-1.1184332 0.432727,-2.18506327 1.464406,-2.18506327 1.032928,0 1.464198,1.06663007 1.464198,2.18506327 0,1.1610809 -0.380924,2.3587777 -1.464198,2.3587777 m 0,0.8669097 c 1.58611,0 2.573477,-1.4140598 2.573477,-3.2256874 0,-1.700534 -1.090971,-3.0505175316257 -2.573477,-3.0505175316257 -1.482714,0 -2.573685,1.3499835316257 -2.573685,3.0505175316257 0,1.8118352 0.987367,3.2256874 2.573685,3.2256874"
       id="path13" />
    <path
       d="M 44.434602,6.1711423 H 43.678787 C 42.691421,4.7753894 41.710087,3.388791 40.731875,1.8207802 h -0.006 V 6.1711423 H 39.890767 V 0.10360348 h 0.755816 c 0.987366,1.38659842 1.968699,2.76716402 2.937758,4.32435612 h 0.01977 V 0.10360348 h 0.830507 V 6.1711423 z"
       id="path15" />
    <path
       d="m 46.412456,3.7711725 c 0.242368,-0.7984649 0.484532,-1.5343089 0.700893,-2.472993 h 0.0183 c 0.242365,0.9386841 0.460187,1.6745281 0.685705,2.472993 H 46.412446 z M 46.811689,0.10360348 44.710465,6.1711423 h 0.90207 l 0.530297,-1.6547646 h 1.829938 l 0.475376,1.6547646 h 1.161081 L 47.677143,0.10360348 h -0.865454 z"
       id="path17" />
    <line
       stroke-miterlimit="10"
       x1="56.88216"
       y1="14.024511"
       x2="56.88216"
       y2="7.9538517"
       id="line37"
       style="fill:none;stroke:#010101;stroke-width:1.04020894;stroke-miterlimit:10" />
    <polygon
       points="254.755,25.752 254.755,29.663 239.923,29.663 239.923,0.498 244.889,0.498 244.889,25.752 "
       transform="matrix(0.20804177,0,0,0.20804177,0,-1.8316257e-6)"
       id="polygon19" />
  </g>
  <g
     id="g3072"
     style="fill:#010101" >
    <path
       d="m 22.675513,11.248193 v 2.506488 c -0.555471,0.218027 -1.135908,0.373435 -1.725706,0.373435 -1.784998,0 -2.913417,-1.386599 -2.913417,-3.172429 0,-1.6578852 1.128419,-3.1054392 2.947743,-3.1054392 0.562962,0 1.126756,0.2086651 1.472729,0.4678854 l -0.33682,0.7206569 C 21.842098,8.8650747 21.408539,8.7173662 21.010763,8.7173662 c -1.110735,0 -1.864262,0.8760632 -1.864262,2.2537158 0,1.440065 0.86691,2.290124 1.76149,2.290124 0.275863,0 0.509702,-0.03495 0.726898,-0.147711 v -1.865094 h 1.040624 z"
       id="path21" />
    <polygon
       points="118.531,42.158 118.531,50.156 126.698,50.156 126.698,54.067 118.531,54.067 118.531,63.486 128.371,63.486 128.371,67.412 113.536,67.412 113.536,38.232 126.87,38.232 126.87,42.158 "
       transform="matrix(0.20804178,0,0,0.20804178,0,-1.8217661e-6)"
       id="polygon23" />
    <path
       d="m 29.60164,13.260998 c -1.082649,0 -1.46503,-1.196033 -1.46503,-2.35857 0,-1.1169762 0.433559,-2.1850618 1.46503,-2.1850618 1.033136,0 1.46503,1.0680856 1.46503,2.1850618 2.09e-4,1.162537 -0.38238,2.35857 -1.46503,2.35857 m 0,0.867118 c 1.586943,0 2.574309,-1.41406 2.574309,-3.225688 0,-1.699077 -1.091595,-3.0519726 -2.574309,-3.0519726 -1.482505,0 -2.574308,1.3531032 -2.574308,3.0519726 0,1.811628 0.987366,3.225688 2.574308,3.225688"
       id="path25" />
    <path
       d="m 37.171033,11.248193 v 2.506488 c -0.553184,0.218027 -1.135284,0.373435 -1.723419,0.373435 -1.787286,0 -2.916537,-1.386599 -2.916537,-3.172429 0,-1.6578852 1.129251,-3.1054392 2.950033,-3.1054392 0.563792,0 1.127585,0.2086651 1.471894,0.4678854 L 36.617849,9.0387901 C 36.337409,8.8650747 35.904682,8.7173662 35.50545,8.7173662 c -1.109278,0 -1.865095,0.8760632 -1.865095,2.2537158 0,1.440065 0.868575,2.290124 1.76149,2.290124 0.27732,0 0.511991,-0.03495 0.728355,-0.147711 v -1.865094 h 1.040833 z"
       id="path27" />
    <path
       d="m 39.165529,8.7706238 h 0.460188 c 0.613932,0 0.959906,0.3534636 0.959906,0.9796696 0,0.8121946 -0.492227,1.1779316 -0.987367,1.2037296 -0.103605,0.01062 -0.345974,0.01686 -0.432727,0.02746 V 8.7706238 z m 2.634433,5.2538872 -1.220373,-2.514185 c 0.667398,-0.356583 1.048322,-1.075784 1.048322,-1.8041378 0,-1.1793888 -0.7192,-1.7523362 -1.883402,-1.7523362 H 38.12636 v 6.070659 h 1.039169 v -2.290124 h 0.451034 0.01519 l 0.981333,2.290124 h 1.186878 z"
       id="path29" />
    <path
       d="m 43.517347,11.623085 c 0.240704,-0.798465 0.486192,-1.535973 0.702351,-2.4715362 h 0.01685 c 0.242369,0.9355632 0.460187,1.6730712 0.685704,2.4715362 h -1.404906 z m 0.399232,-3.669233 -2.099765,6.070659 h 0.902069 l 0.528841,-1.656221 h 1.829935 l 0.475379,1.656221 h 1.164201 L 44.783698,7.953852 h -0.867119 z"
       id="path31" />
    <path
       d="M 48.085529,14.024511 H 47.044902 V 7.953852 h 1.622729 c 1.161081,0 1.881947,0.5729474 1.881947,1.7523362 0,1.0208598 -0.754363,2.0281988 -1.996369,2.0281988 h -0.485988 v -0.752903 c 0.0518,-0.01062 0.339732,-0.01685 0.451035,-0.02746 0.496804,-0.02601 0.989027,-0.391534 0.989027,-1.2037296 0,-0.626206 -0.345972,-0.9796685 -0.954074,-0.9796685 h -0.46768 v 5.2538861 z"
       id="path33" />
    <polygon
       points="261.142,67.412 261.142,53.364 250.763,53.364 250.763,67.412 245.812,67.412 245.812,38.232 250.763,38.232 250.763,49.453 261.142,49.453 261.142,38.32 266.144,38.32 266.144,67.412 "
       transform="matrix(0.20804178,0,0,0.20804178,0,-1.8217661e-6)"
       id="polygon35" />
    <path
       d="m 62.079457,9.057098 c -0.252978,-0.156864 -0.667396,-0.3397318 -1.06663,-0.3397318 -1.057475,0 -1.830141,0.8760632 -1.830141,2.2537158 0,1.440065 0.850471,2.290124 1.854481,2.290124 0.399234,0 0.774128,-0.129403 1.04229,-0.303117 l 0.286475,0.754151 c -0.313936,0.216572 -0.865453,0.416084 -1.369747,0.416084 -1.787496,0 -2.91342,-1.386599 -2.91342,-3.173885 0,-1.6562209 1.116768,-3.103776 2.930062,-3.103776 0.539453,0 1.039169,0.2255176 1.395754,0.4678865 L 62.079457,9.057098 z"
       id="path39" />
  </g>
  <g
     id="g3083"
     style="fill:#818285" >
    <path
       d="m 22.00125,16.941049 c -0.249858,-0.155407 -0.664277,-0.338276 -1.062677,-0.338276 -1.054356,0 -1.823902,0.874607 -1.823902,2.249139 0,1.435279 0.84569,2.282636 1.849075,2.282636 0.397568,0 0.771002,-0.131069 1.037504,-0.303325 l 0.28585,0.752902 C 21.976285,21.798826 21.42227,22 20.921721,22 c -1.782085,0 -2.907383,-1.386599 -2.907383,-3.166396 0,-1.650187 1.117808,-3.096286 2.924027,-3.096286 0.537163,0 1.037712,0.225518 1.390551,0.469343 l -0.327666,0.734388 z"
       id="path41" />
    <polygon
       points="124.171,105.242 124.171,91.245 113.822,91.245 113.822,105.242 108.878,105.242 108.878,76.143 113.822,76.143 113.822,87.326 124.171,87.326 124.171,76.23 129.159,76.23 129.159,105.242 "
       transform="matrix(0.20804178,0,0,0.20804178,0,-1.8217661e-6)"
       id="polygon43" />
    <path
       d="m 28.938195,19.500794 c 0.241536,-0.795343 0.483698,-1.529938 0.697149,-2.465503 h 0.01913 c 0.241536,0.935565 0.460189,1.669952 0.684874,2.465503 H 28.93819 z m 0.396112,-3.65987 -2.090612,6.054015 h 0.898117 l 0.528009,-1.650397 h 1.823903 l 0.475375,1.650397 h 1.159625 l -1.929796,-6.054015 h -0.864621 z"
       id="path45" />
    <path
       d="m 37.029148,21.894733 h -0.751239 c -0.985702,-1.392841 -1.962666,-2.774863 -2.939214,-4.34121 h -0.0092 v 4.34121 h -0.828836 v -6.054018 h 0.752696 c 0.984245,1.383478 1.959545,2.760923 2.931725,4.316869 h 0.01519 v -4.316869 h 0.828838 v 6.054018 z"
       id="path47" />
    <path
       d="m 42.53747,21.894733 h -0.751031 c -0.98591,-1.392841 -1.963914,-2.774863 -2.940878,-4.34121 h -0.0077 v 4.34121 H 38.00753 v -6.054018 h 0.752696 c 0.984246,1.383478 1.961001,2.760923 2.93006,4.316869 h 0.01685 v -4.316869 h 0.830295 v 6.054018 z"
       id="path49" />
    <polygon
       points="213.365,80.061 213.365,88.037 221.51,88.037 221.51,91.948 213.365,91.948 213.365,101.338 223.18,101.338 223.18,105.242 208.385,105.242 208.385,76.143 221.679,76.143 221.679,80.061 "
       transform="matrix(0.20804178,0,0,0.20804178,0,-1.8217661e-6)"
       id="polygon51" />
    <polygon
       points="230.899,76.143 230.899,101.338 240.758,101.338 240.758,105.242 225.963,105.242 225.963,76.143 "
       transform="matrix(0.20804178,0,0,0.20804178,0,-1.8217661e-6)"
       id="polygon53" />
  </g>
</svg>
