<?xml version="1.0" encoding="UTF-8" standalone="no"?>
<!-- Created with Inkscape (http://www.inkscape.org/) -->

<svg
   xmlns="http://www.w3.org/2000/svg"
   version="1.0"
   width="100%"
   height="100%"
   viewBox="0 0 124 22"
   id="svg2760">
  <g
     id="g3041"
     style="fill:#ff6600" >
    <path
       d="m 6.053503,8.029299 c -1.681529,0 -3.138854,0.672612 -4.259873,1.681529 C 0.672611,10.831847 0,12.289172 0,13.858599 l 0,5.380891 4.596178,0 0,-2.242038 0,-2.91465 c 0,-0.672611 0.112102,-1.233121 0.448408,-1.681528 0.224204,-0.448408 0.672611,-0.672612 1.008917,-0.672612 0.448408,0 0.784713,0.224204 1.008917,0.672612 0.224204,0.448407 0.448408,1.008917 0.448408,1.681528 l 0,5.380892 4.596178,0 0,-5.380892 c 0,-1.681528 -0.672611,-3.138853 -1.79363,-4.14777 C 9.192357,8.701911 7.62293,8.029299 6.053503,8.029299 l 0,0 z"
       id="path2652" />
    <path
       d="m 17.263694,6.5719736 c 0.448408,-0.448407 0.784713,-1.121019 0.784713,-1.79363 0,-0.672612 -0.336305,-1.345223 -0.784713,-1.793631 -0.448408,-0.448407 -1.121019,-0.784713 -1.79363,-0.784713 -0.672612,0 -1.345224,0.224204 -1.793631,0.784713 -0.448408,0.448408 -0.784713,1.121019 -0.784713,1.793631 0,0.672611 0.336305,1.345223 0.784713,1.79363 l 0.560509,0.56051 C 15.133758,8.029299 15.24586,8.253503 14.349044,9.150318 l -0.560509,0.448408 c -0.448408,0.448408 -0.672612,1.008917 -0.672612,1.569427 l 0,8.071337 4.596179,0 0,-8.071337 c 0,-0.672612 -0.224204,-1.233121 -0.672612,-1.569427 L 16.478981,9.150318 C 15.582165,8.253503 15.694267,8.029299 16.591082,7.1324836 l 0.672612,-0.56051 z"
       id="path2654" />
    <path
       d="m 30.379617,14.53121 -4.596177,0 c -0.112102,0.56051 -0.224203,1.008917 -0.448409,1.345223 -0.224203,0.448408 -0.672612,0.784714 -1.008916,0.784714 -0.448409,0 -0.784714,-0.336306 -1.008917,-0.784714 -0.224205,-0.448408 -0.448408,-1.121019 -0.448408,-1.905732 0,-0.784714 0.112101,-1.345223 0.448408,-1.905733 0.224203,-0.448408 0.672609,-0.784713 1.008917,-0.784713 0.448408,0 0.784713,0.336305 1.008916,0.784713 0.224206,0.336306 0.336307,0.784714 0.448409,1.345223 l 4.596177,0 C 30.267516,11.952866 29.594904,10.719745 28.69809,9.82293 27.577069,8.701911 26.119744,8.029299 24.438216,8.141401 c -1.681528,0 -3.138853,0.672612 -4.259872,1.681529 -1.12102,1.121019 -1.793631,2.578344 -1.793631,4.147771 0,1.681528 0.672611,3.138853 1.793631,4.14777 0.784712,0.784713 2.242037,1.681529 4.259872,1.681529 1.457325,0 2.802549,-0.56051 3.923566,-1.457325 0.672612,-0.560509 1.793632,-1.793631 2.017835,-3.811465 l 0,0 z"
       id="path2662" />
    <path
       d="m 42.486623,18.566879 c 0,-0.112102 0,-0.336306 -0.112101,-0.448408 L 39.90828,14.419108 41.589808,11.280255 C 42.26242,10.159235 41.814011,8.814013 40.805095,8.253503 39.684075,7.5808916 38.338854,8.029299 37.666242,9.038216 l -2.017835,3.699364 0,-2.466242 c 0,-1.233122 -1.008916,-2.242039 -2.242038,-2.242039 -1.233122,0 -2.242038,1.008917 -2.242038,2.242039 l 0,9.080254 4.596178,0 0,-3.587261 2.466244,3.587261 3.69936,0 c 0.224206,0 0.56051,-0.336306 0.56051,-0.784713 l 0,0 z"
       id="path2664" />
  </g>
  <g
     id="g3047"
     style="fill:#611730" >
    <path
       d="m 101.56433,8.589809 -0.67261,0 0,-0.336306 1.90574,0 0,0.336306 -0.67262,0 0,2.017834 -0.4484,0 0,-2.017834 -0.11211,0 z m 1.56943,-0.336306 0,0 1.23312,1.233121 1.12102,-1.233121 0.1121,0 0,2.35414 -0.4484,0 0,-1.457325 -0.78472,0.896816 0,0 -0.78471,-0.896816 0,1.457325 -0.44841,0 0,-2.35414 z"
       id="path2648" />
    <path
       d="m 74.547766,13.298089 c 0,0 0,-0.112102 0,0 l -4.371971,-0.112102 -1.681528,0 0,1.681529 1.681528,0 c 0,0 -0.112102,0.560509 -0.336305,0.896815 -0.336307,0.448408 -0.672611,0.784713 -1.008919,0.784713 -0.112101,0 -0.224203,0 -0.336304,-0.112102 -0.224203,-0.112101 -0.448409,-0.448407 -0.672612,-0.672611 -0.56051,-1.121019 -0.336304,-2.578344 -0.336304,-2.578344 0.112101,-0.448407 0.224203,-0.896815 0.336304,-1.233121 0.224203,-0.448408 0.672612,-0.896815 1.008916,-0.896815 1.008919,0 1.345224,1.569426 1.345224,1.569426 l 4.259871,0 c 0,0 0,-1.121019 -0.784711,-2.242038 -0.112102,-0.224204 -0.336307,-0.448407 -0.56051,-0.672611 -1.008916,-1.008917 -2.466241,-1.793631 -4.259874,-1.793631 -0.224203,0 -0.448406,0 -0.672609,0 -0.112104,0 -0.224205,0 -0.336307,0 -0.112101,0 -0.112101,0 -0.224203,0 -1.233122,0.224204 -2.242038,0.784714 -3.026751,1.569427 L 64.346495,9.82293 c -0.896815,1.008917 -1.569427,2.466242 -1.569427,3.923567 0,1.681528 0.672612,3.138853 1.793633,4.14777 1.121017,1.121019 2.578342,1.793631 4.25987,1.681529 0.224206,0 0.448409,0 0.560511,0 0,0 0,0 0,0 0.112101,0 0.336307,0 0.448408,-0.112102 0.112102,0 0.224203,-0.112102 0.448406,-0.112102 0,0 0,0 0.112105,0 0.448406,-0.112102 1.008916,-0.336306 1.457325,-0.560509 0,0 0.112101,0 0.112101,-0.112102 0.112102,-0.112102 0.224203,-0.112102 0.336304,-0.224204 0.336308,-0.224204 0.560511,-0.448408 0.896815,-0.672612 0,0 0,0 0,0 0,0 0,0 0,0 1.12102,-1.121019 1.45733,-2.578343 1.45733,-3.587261 0,-0.336305 -0.11211,-0.784713 -0.11211,-0.896815 l 0,0 z"
       id="path2650" />
    <path
       d="m 97.192356,8.029299 -7.17452,0 c -1.23312,0 -2.24204,1.008917 -2.24204,2.242039 0,1.233121 1.00892,2.242038 2.24204,2.242038 l 1.34522,0 0,6.838216 4.59618,0 0,-6.838216 1.34522,0 c 1.23312,0 2.24204,-1.008917 2.24204,-2.242038 -0.1121,-1.233122 -1.12102,-2.242039 -2.35414,-2.242039 l 0,0 z"
       id="path2656" />
    <path
       d="m 51.678979,12.401274 c 0.224206,0.448407 0.448409,1.008917 0.448409,1.681528 l 0,5.380892 4.596178,0 0,-5.380892 c 0,-1.681528 -0.672612,-3.138853 -1.79363,-4.14777 -1.12102,-1.121019 -2.578345,-1.793631 -4.259873,-1.681529 -1.681528,0 -3.138853,0.672612 -4.259874,1.681529 -1.121017,1.008917 -1.793629,2.578344 -1.793629,4.14777 l 0,5.380892 4.596178,0 0,-2.466242 0,-2.91465 c 0,-0.672611 0.112101,-1.233121 0.448409,-1.681528 0.224202,-0.448408 0.672611,-0.672612 1.008916,-0.672612 0.336307,0 0.672611,0.224204 1.008916,0.672612 l 0,0 z"
       id="path2658" />
    <path
       d="m 61.768152,6.5719736 c 0.448409,-0.448407 0.784713,-1.121019 0.784713,-1.79363 0,-0.672612 -0.336304,-1.345223 -0.784713,-1.793631 -0.448409,-0.448407 -1.12102,-0.784713 -1.793629,-0.784713 -0.672612,0 -1.345224,0.224204 -1.793632,0.784713 -0.448406,0.448408 -0.784714,1.121019 -0.784714,1.793631 0,0.672611 0.336308,1.345223 0.784714,1.79363 l 0.56051,0.56051 c 0.896815,0.8968154 1.008916,1.1210194 0.112101,2.0178344 l -0.56051,0.448408 c -0.448406,0.448408 -0.672612,1.008917 -0.672612,1.569427 l 0,8.071337 4.596181,0 0,-8.071337 c 0,-0.672612 -0.224206,-1.233121 -0.672612,-1.569427 L 60.983439,9.150318 C 60.086624,8.253503 60.198726,8.029299 61.09554,7.1324836 l 0.672612,-0.56051 z"
       id="path2660" />
    <path
       d="m 79.928656,15.428025 2.80255,0 c 0,0 0,2.690446 0,3.923567 l 4.48408,0 c 0,-0.784713 0,-9.080254 0,-9.080254 0,-0.672612 -0.1121,-1.12102 -0.44841,-1.569427 -0.44841,-0.448408 -1.12102,-0.672612 -1.79363,-0.672612 -0.67261,0 -1.34522,0.224204 -1.79363,0.672612 -0.33631,0.448407 -0.44841,0.784713 -0.44841,1.681529 l 0,1.569426 -2.80255,0 0,-1.569426 c 0,-1.008918 -0.1121,-1.233122 -0.4484,-1.569427 -0.44841,-0.448408 -1.12102,-0.672612 -1.79363,-0.672612 -0.67262,0 -1.34522,0.224204 -1.79363,0.672612 -0.33631,0.336305 -0.44841,0.672611 -0.44841,1.457325 0,0 0,8.856051 0,9.080254 l 4.48407,0 c 0,-0.672611 0,-3.923567 0,-3.923567 l 0,0 z"
       id="path2666" />
  </g>
  <g
     id="g3029">
    <path
       d="m 106.83236,9.339779 2.20168,0 0,3.170537 3.08353,0 0,-3.170537 2.19873,0 0,8.432155 -2.19873,0 0,-3.42418 -3.08353,0 0,3.42418 -2.20168,0 0,-8.432155 z"
       id="path3557" />
    <path
       d="m 118.4231,15.876384 0.96886,0 c 1.29771,0 2.10288,-1.033743 2.10288,-2.453848 0,-1.285911 -0.85974,-2.244446 -2.03505,-2.244446 l -1.03669,0 0,4.698294 z m -2.23412,-6.537206 3.52298,0 c 2.26657,0 4.0052,1.684072 4.0052,4.1158 0,2.467121 -1.63983,4.316355 -3.9816,4.316355 l -3.54658,0 0,-8.432155 0,0 z"
       id="path3569" />
    <path
       d="m 123.67512,8.446572 -16.84808,0 0,-0.9275674 16.84808,0 0,0.9275674 z"
       id="path3571" />
    <path
       d="m 123.69284,19.608338 -16.8658,0 0,-0.927566 16.8658,0 0,0.927566 z"
       id="path3573" />
  </g>
</svg>
