<?xml version="1.0" encoding="UTF-8" standalone="no"?>
<!-- Created with Inkscape (http://www.inkscape.org/) -->

<svg
   xmlns="http://www.w3.org/2000/svg"
   version="1.1"
   width="100%"
   height="100%"
   viewBox="0 0 142 22"
   id="svg12551">
  <g
     id="g3188">
    <path
       d="m 125.11112,9.5734302 2.1042,0 0,3.0301578 2.947,0 0,-3.0301578 2.10138,0 0,8.0588098 -2.10138,0 0,-3.27257 -2.947,0 0,3.27257 -2.1042,0 0,-8.0588098 z"
       id="path3557" />
    <path
       d="m 136.18867,15.820629 0.92596,0 c 1.24025,0 2.00977,-0.987972 2.00977,-2.345201 0,-1.228976 -0.82167,-2.14507 -1.94494,-2.14507 l -0.99079,0 0,4.490271 z m -2.1352,-6.247762 3.36699,0 c 2.16621,0 3.82787,1.609507 3.82787,3.933567 0,2.357886 -1.56723,4.125243 -3.80532,4.125243 l -3.38954,0 0,-8.05881 z"
       id="path3569" />
    <path
       d="m 141.20816,8.7197714 -16.10212,0 0,-0.8864972 16.10212,0 0,0.8864972 z"
       id="path3571" />
    <path
       d="m 141.22507,19.387335 -16.11903,0 0,-0.886497 16.11903,0 0,0.886497 z"
       id="path3573" />
  </g>
  <g
     id="g3174"
     style="fill:#f68b1f" >
    <path
       d="m 122.07095,17.384894 0.0564,0 0.91468,1.021797 0.91046,-1.021797 0.055,0 0,1.916751 -0.34248,0 0,-1.188104 -0.58912,0.704688 -0.0662,0 -0.59616,-0.704688 0,1.188104 -0.34248,0 0,-1.916751 z m -1.31918,0.321338 -0.57502,0 0,-0.29315 1.48548,0 0,0.29315 -0.5708,0 0,1.595413 -0.33966,0 0,-1.595413 z"
       id="path3577" />
    <path
       d="m 5.9234645,7.9450376 c -1.6292382,0 -3.1231763,0.6666347 -4.1886643,1.733532 C 0.66649351,10.745467 -1.411468e-4,12.240814 -1.411468e-4,13.868643 l 0,5.410593 4.4959081468,0 0,-2.367751 0,-2.951232 c 0.00423,-0.648313 0.1578501,-1.202198 0.4185846,-1.632057 0.266372,-0.421404 0.6102596,-0.673682 1.0091129,-0.673682 0.401672,0 0.7427409,0.252278 1.0091129,0.673682 0.2607345,0.429859 0.4171752,0.983744 0.4185846,1.632057 l 0,5.318983 4.495908,0 0,-5.410593 C 11.84848,12.240814 11.180435,10.745467 10.112129,9.6785696 9.0466408,8.6116723 7.5541121,7.9450376 5.9234645,7.9450376"
       id="path3581" />
    <path
       d="m 113.56791,7.9450376 c -1.62924,0 -3.12318,0.6666347 -4.18866,1.733532 -1.06831,1.0668974 -1.73636,2.5622444 -1.73354,4.1900734 l 0,5.410593 4.49732,0 -0.003,-2.367751 0,-2.951232 c 0.003,-0.648313 0.15644,-1.202198 0.41859,-1.632057 0.26496,-0.421404 0.60885,-0.673682 1.00911,-0.673682 0.40167,0 0.74556,0.252278 1.01052,0.673682 0.26074,0.429859 0.41577,0.983744 0.41859,1.632057 l 0,5.318983 4.4945,0 0,-5.410593 c 0,-1.627829 -0.66523,-3.123176 -1.73495,-4.1900734 -1.06548,-1.0668973 -2.55942,-1.733532 -4.18866,-1.733532"
       id="path3585" />
    <path
       d="m 16.687571,6.4892936 c 0.45241,-0.4524096 0.731466,-1.0753536 0.731466,-1.767357 0,-0.690594 -0.279056,-1.3163568 -0.731466,-1.767357 -0.453819,-0.4538189 -1.078172,-0.7314659 -1.768766,-0.7314659 -0.689185,0 -1.314948,0.277647 -1.767357,0.7314659 -0.451001,0.4510002 -0.732876,1.076763 -0.732876,1.767357 0,0.6920034 0.281875,1.3149474 0.732876,1.767357 l 0.552475,0.5524752 c 0.920322,0.9217317 0.986563,1.1655537 0.109931,2.0421853 l -0.500328,0.5017377 c -0.411538,0.412947 -0.666635,0.9795162 -0.666635,1.6066882 l 0,8.086997 4.545236,0 0,-8.086997 c 0,-0.627172 -0.253687,-1.1937412 -0.665225,-1.6066882 L 16.023755,9.0839541 C 15.148533,8.2087318 15.213364,7.9635005 16.135096,7.0403595 l 0.552475,-0.5510659 z"
       id="path3589" />
    <path
       d="m 24.741729,15.756925 c -0.266372,0.489053 -0.607441,0.779385 -1.009113,0.779385 -0.398853,0 -0.742741,-0.290332 -1.007703,-0.779385 -0.259326,-0.493281 -0.417176,-1.134547 -0.417176,-1.881516 0,-0.749788 0.15785,-1.388235 0.417176,-1.884336 0.264962,-0.489053 0.60885,-0.777975 1.007703,-0.780794 0.401672,0.0028 0.742741,0.291741 1.009113,0.780794 0.195903,0.367847 0.329794,0.814619 0.386169,1.327632 l 4.502955,0 C 29.498372,11.906511 28.868381,10.628207 27.92269,9.6853349 26.857202,8.6170282 25.361854,7.9489842 23.732616,7.9518029 22.106197,7.9489842 20.610849,8.6170282 19.545361,9.6853349 18.477054,10.750823 17.80901,12.24617 17.81042,13.875409 c -0.0014,1.626419 0.666634,3.121767 1.734941,4.187254 0.820257,0.821666 2.246545,1.736351 4.187255,1.736351 1.460113,0 2.810295,-0.535563 3.840549,-1.413604 0.752606,-0.638447 1.866013,-1.920978 2.057688,-3.953298 l -4.502955,0 c -0.05637,0.511603 -0.190266,0.959785 -0.386169,1.324813"
       id="path3593" />
    <path
       d="m 45.579348,12.807102 c 0.08033,-0.345297 0.190266,-0.649722 0.295969,-0.876632 0.200131,-0.429859 0.607441,-0.777975 1.009113,-0.779384 0.404491,0.0014 0.734284,0.287512 1.01616,0.796297 0.121206,0.218453 0.232547,0.598985 0.283284,0.851263 l -2.604526,0.0085 z M 46.88443,7.9419374 c -1.630648,-0.00141 -3.124586,0.6652253 -4.188664,1.733532 -1.068307,1.0654876 -1.73917,2.5608356 -1.734942,4.1900736 -0.0042,1.627829 0.666635,3.123176 1.734942,4.187255 1.0373,1.040119 2.50446,1.736351 4.215442,1.736351 1.757491,0 3.213376,-0.785022 4.195711,-1.772995 1.240251,-1.42065 1.298035,-2.937139 1.298035,-2.937139 l -4.008264,0 c 0,0 -0.556704,1.39951 -1.51226,1.39951 -0.401672,-0.0014 -0.744151,-0.290331 -1.009113,-0.780794 -0.178991,-0.33825 -0.307244,-0.746969 -0.370666,-1.210653 l 6.980637,0 c 0,0 0.477779,-2.846939 -1.431925,-4.7749648 C 49.942775,8.5902502 48.530581,7.9405281 46.88443,7.9419374"
       id="path3597" />
    <path
       d="m 87.672887,12.807102 c 0.07892,-0.345297 0.191675,-0.649722 0.295969,-0.876632 0.198722,-0.429859 0.607441,-0.777975 1.009113,-0.779384 0.401672,0.0014 0.734284,0.287512 1.017569,0.796297 0.118388,0.218453 0.229728,0.598985 0.281875,0.851263 l -2.604526,0.0085 z m 1.305082,-4.8651646 c -1.629238,-0.00141 -3.123177,0.6652253 -4.188664,1.733532 -1.066898,1.0654876 -1.737761,2.5608356 -1.734942,4.1900736 -0.0028,1.627829 0.668044,3.123176 1.734942,4.187255 1.038709,1.040119 2.505869,1.736351 4.214033,1.736351 1.76031,0 3.216195,-0.785022 4.198529,-1.772995 1.237432,-1.42065 1.296626,-2.937139 1.296626,-2.937139 l -4.008264,0 c 0,0 -0.556704,1.39951 -1.51226,1.39951 -0.401672,-0.0014 -0.742741,-0.290331 -1.009113,-0.780794 -0.178991,-0.33825 -0.307244,-0.746969 -0.370666,-1.210653 l 6.977819,0 c 0,0 0.480597,-2.846939 -1.430517,-4.7749648 C 92.037723,8.5902502 90.62412,7.9405281 88.977969,7.9419374"
       id="path3601" />
    <path
       d="m 55.373099,2.2001408 c -1.244479,0.00141 -2.249363,1.0077036 -2.249363,2.2507728 l 0.007,14.8294504 4.495909,-0.0028 -0.0056,-14.8308595 C 57.619644,3.206435 56.61335,2.2001408 55.373099,2.2001408"
       id="path3605" />
    <path
       d="m 64.171549,16.534477 c -0.787841,0 -1.426288,-1.192332 -1.426288,-2.666539 0,-1.471388 0.638447,-2.666538 1.426288,-2.666538 0.787841,0 1.429107,1.19515 1.429107,2.666538 0,1.474207 -0.641266,2.666539 -1.429107,2.666539 m 0.0014,-8.5901443 c -3.27257,0 -5.925015,2.6538543 -5.925015,5.9236053 0,3.271161 2.652445,5.923606 5.925015,5.923606 3.271161,0 5.923606,-2.652445 5.923606,-5.923606 0,-3.269751 -2.652445,-5.9236053 -5.923606,-5.9236053"
       id="path3609" />
    <path
       d="m 101.16611,16.534477 c -0.78925,0 -1.427697,-1.192332 -1.427697,-2.666539 0,-1.471388 0.638447,-2.666538 1.427697,-2.666538 0.78643,0 1.42347,1.19515 1.42347,2.666538 0,1.474207 -0.63704,2.666539 -1.42347,2.666539 m 0,-8.5901443 c -3.27398,0 -5.925015,2.6538543 -5.925015,5.9236053 0,3.271161 2.651035,5.923606 5.925015,5.923606 3.27257,0 5.92361,-2.652445 5.92361,-5.923606 0,-3.269751 -2.65104,-5.9236053 -5.92361,-5.9236053"
       id="path3613" />
    <path
       d="m 76.560665,16.534477 c -0.78925,0 -1.427697,-1.192332 -1.427697,-2.666539 0,-1.471388 0.638447,-2.666538 1.427697,-2.666538 0.787841,0 1.426288,1.19515 1.426288,2.666538 0,1.474207 -0.638447,2.666539 -1.426288,2.666539 m 5.922196,-2.665129 0.0085,0.007 -0.0056,-9.4287231 c 0,-1.2416599 -1.009113,-2.2493635 -2.247954,-2.2479541 -1.243069,0.00141 -2.247954,1.0077035 -2.247954,2.2507728 l 0,3.6756516 C 77.530315,8.0119827 77.051128,7.9513796 76.560665,7.9513796 c -1.630648,-0.00141 -3.124586,0.6666347 -4.188664,1.7349414 -1.071126,1.064079 -1.736351,2.560835 -1.734942,4.190074 -0.0014,1.626419 0.663816,3.120357 1.734942,4.187255 0.680728,0.683547 2.14366,1.73635 4.188664,1.73635 2.042185,0 3.505117,-1.052803 4.187255,-1.73635 1.069716,-1.066898 1.734941,-2.560836 1.734941,-4.187255 l 0,-0.007 z"
       id="path3617" />
    <path
       d="m 41.613506,18.49365 c 0,-0.150803 -0.0451,-0.290331 -0.119797,-0.408719 l -2.46077,-3.72357 1.703935,-3.097808 C 41.366865,10.195246 41.010293,8.8154678 39.940577,8.1854769 38.870861,7.555486 37.492492,7.912058 36.862501,8.9803647 l -2.036548,3.6390073 0,-2.425535 c 0,-1.2430692 -1.006294,-2.247954 -2.249363,-2.247954 -1.240251,0 -2.246545,1.0048848 -2.246545,2.247954 l 0,9.084835 4.495908,0 0,-3.557264 2.373389,3.557264 3.629142,-0.0014 0,-0.0028 c 0.432678,0 0.785022,-0.349525 0.785022,-0.780794"
       id="path3621" />
  </g>
</svg>
