<?xml version="1.0" encoding="UTF-8" standalone="no"?>
<!-- Created with Inkscape (http://www.inkscape.org/) -->

<svg
   xmlns="http://www.w3.org/2000/svg"
   version="1.1"
   width="100%"
   height="100%"
   viewBox="0 0 84 22"
   id="svg4206">
  <g
     id="g3036">
    <path
       d="m 0,19.8 41.168752,0 0,-17.5998004 L 0,2.2001996 0,19.8 z"
       id="path3317"
       style="fill:#e2001a" />
    <path
       d="m 17.229054,15.90407 2.406737,0 0,-2.86431 1.806253,0 1.890318,2.86431 3.008422,0 -2.428356,-3.43477 c 1.143322,-0.5068 1.944367,-1.58167 1.944367,-2.91234 0,-1.9467604 -1.448368,-3.4623804 -3.637724,-3.4623804 l -4.990017,0 0,9.8094904 z m 4.850701,-5.17136 -2.443964,0 0,-2.32627 2.443964,0 c 1.050846,0 1.360697,0.51521 1.360697,1.15052 0,0.65933 -0.309851,1.17575 -1.360697,1.17575 z m -8.321488,0.26541 c 0,-2.87751 -2.33588,-5.0908904 -5.245819,-5.0908904 -2.909939,0 -5.239813,2.2133804 -5.239813,5.0908904 0,2.86911 2.329874,5.08729 5.239813,5.08729 2.909939,0 5.245819,-2.21818 5.245819,-5.08729 z m -2.489607,0 c 0,1.54685 -1.327062,2.77903 -2.756212,2.77903 -1.436359,0 -2.750211,-1.23218 -2.750211,-2.77903 0,-1.54684 1.313852,-2.78144 2.750211,-2.78144 1.42915,0 2.756212,1.2346 2.756212,2.78144 z m 18.637791,4.89394 2.409134,0 0,-3.29785 4.549261,0 0,-2.30826 -4.549261,0 0,-1.87951 5.582091,0 0,-2.3118604 -7.991225,0 0,9.7974804"
       id="path3319"
       style="fill:#ffffff" />
  </g>
  <rect
   width="17.599001"
   height="17.6"
   x="43.138996"
   y="2.1999996"
   id="rect3130"
   style="fill:#e2001a" />
  <path
   d="m 50.063356,11.616838 c 0,1.047 -0.897885,1.87817 -1.86002,1.87817 -0.969244,0 -1.856133,-0.83117 -1.856133,-1.87817 0,-1.04595 0.886889,-1.87915 1.856133,-1.87915 0.962095,0 1.86002,0.8332 1.86002,1.87915 m 1.678858,0 c 0,-1.94117 -1.571958,-3.44083 -3.538878,-3.44083 -1.961502,0 -3.534952,1.4997 -3.534952,3.44083 0,1.94144 1.573411,3.44212 3.534952,3.44212 1.96692,0 3.538878,-1.50072 3.538878,-3.44212 m 7.599963,0 c 0,-1.94117 -1.573058,-3.44083 -3.535462,-3.44083 -1.963504,0 -3.536994,1.4997 -3.536994,3.44083 0,1.94144 1.57349,3.44212 3.536994,3.44212 1.962404,0 3.535462,-1.50072 3.535462,-3.44212 m -1.678387,0 c 0,1.047 -0.895961,1.87817 -1.857075,1.87817 -0.971718,0 -1.856565,-0.83117 -1.856565,-1.87817 0,-1.04595 0.884847,-1.87915 1.856565,-1.87915 0.961074,0 1.857075,0.8332 1.857075,1.87915 m 0.472291,-4.5427802 c 0,-0.47433 -0.383457,-0.84546 -0.833714,-0.84546 -0.476808,0 -0.848207,0.37117 -0.848207,0.84546 0,0.44995 0.371399,0.8356802 0.848207,0.8356802 0.450257,0 0.833714,-0.3857702 0.833714,-0.8356802 m -2.964755,0 c 0,-0.47433 -0.385498,-0.84546 -0.847774,-0.84546 -0.476807,0 -0.848717,0.37117 -0.848717,0.84546 0,0.44995 0.37195,0.8356802 0.848717,0.8356802 0.462276,0 0.847774,-0.3857702 0.847774,-0.8356802"
   id="path3132"
   style="fill:#ffffff" />
  <g
     id="g3010"
     style="fill:#e2001a" >
    <path
       d="M 71.604,15.968236 V 6.0539422 h -2.431379 v 3.6785415 h -4.04137 V 6.0539422 H 62.7 v 9.9142938 h 2.431251 v -3.899338 h 4.041304 v 3.899338 H 71.604 z m 12.105912,-4.957147 c 0,-2.6207983 -2.021039,-4.9571468 -5.288727,-4.9571468 h -4.531182 v 9.9142938 h 4.531182 c 3.204741,0 5.288727,-2.336414 5.288727,-4.957147 m -2.431252,0 c 0,1.436451 -1.073626,2.620733 -2.857409,2.620733 H 76.305696 V 8.3902907 h 2.115555 c 1.783717,0 2.857409,1.184282 2.857409,2.6207983"
       id="path4247" />
    <path
       d="m 80.797912,3.2066272 v 2.362646 c 0.360127,0.133738 0.692542,0.299944 1.006566,0.487947 V 2.1999992 H 64.10617 v 2.890325 h 1.006627 v -1.883697"
       id="path16" />
    <path
       d="m 64.106158,19.753819 h 17.698465 v -3.849184 c -0.314803,0.190467 -0.647601,0.360135 -1.006691,0.496266 v 2.346365 H 65.112965 v -1.847412 h -1.00669"
       id="path4249" />
  </g>
</svg>