<?xml version="1.0" encoding="UTF-8" standalone="no"?>
<!-- Created with Inkscape (http://www.inkscape.org/) -->

<svg
   xmlns="http://www.w3.org/2000/svg"
   version="1.1"
   width="100%"
   height="100%"
   viewBox="0 0 61 22"
   id="svg4206">
  <g
     id="g3036">
    <path
       d="m 0,19.8 41.168752,0 0,-17.5998004 L 0,2.2001996 0,19.8 z"
       id="path3317"
       style="fill:#e2001a" />
    <path
       d="m 17.229054,15.90407 2.406737,0 0,-2.86431 1.806253,0 1.890318,2.86431 3.008422,0 -2.428356,-3.43477 c 1.143322,-0.5068 1.944367,-1.58167 1.944367,-2.91234 0,-1.9467604 -1.448368,-3.4623804 -3.637724,-3.4623804 l -4.990017,0 0,9.8094904 z m 4.850701,-5.17136 -2.443964,0 0,-2.32627 2.443964,0 c 1.050846,0 1.360697,0.51521 1.360697,1.15052 0,0.65933 -0.309851,1.17575 -1.360697,1.17575 z m -8.321488,0.26541 c 0,-2.87751 -2.33588,-5.0908904 -5.245819,-5.0908904 -2.909939,0 -5.239813,2.2133804 -5.239813,5.0908904 0,2.86911 2.329874,5.08729 5.239813,5.08729 2.909939,0 5.245819,-2.21818 5.245819,-5.08729 z m -2.489607,0 c 0,1.54685 -1.327062,2.77903 -2.756212,2.77903 -1.436359,0 -2.750211,-1.23218 -2.750211,-2.77903 0,-1.54684 1.313852,-2.78144 2.750211,-2.78144 1.42915,0 2.756212,1.2346 2.756212,2.78144 z m 18.637791,4.89394 2.409134,0 0,-3.29785 4.549261,0 0,-2.30826 -4.549261,0 0,-1.87951 5.582091,0 0,-2.3118604 -7.991225,0 0,9.7974804"
       id="path3319"
       style="fill:#ffffff" />
  </g>
  <g
   id="g3592">
   <rect
     width="17.594"
     height="17.6"
     x="43.138996"
     y="2.1999996"
     id="rect3175"
     style="fill:#e2001a" />
   <path
     d="m 56.080404,12.685279 c 0,-4.21593 -5.853446,-2.16758 -5.853446,-3.72913 0,-0.56547 0.484822,-0.90601 1.545043,-0.90601 0.921479,0 1.639592,0.31204 2.481522,1.13838 l 1.733795,-1.5295402 c -0.89094,-1.20347 -2.309233,-1.74989 -4.122194,-1.74989 -2.167486,0 -4.120692,1.18797 -4.120692,3.0921402 0,4.1353 5.85495,2.24868 5.85495,3.80976 0,0.66955 -0.594448,0.99813 -1.810415,0.99813 -1.107766,0 -2.232614,-0.62504 -2.655277,-1.4043 l -1.807947,1.62414 c 1.185928,1.41887 2.747011,2.05892 4.384098,2.05892 2.184028,0 4.370563,-1.21751 4.370563,-3.4026"
     id="path3177"
     style="fill:#ffffff" />
  </g>
</svg>