<?xml version="1.0" encoding="UTF-8" standalone="no"?>
<!-- Created with Inkscape (http://www.inkscape.org/) -->

<svg
   xmlns="http://www.w3.org/2000/svg"
   version="1.1"
   width="100%"
   height="100%"
   viewBox="0 0 61 22"
   id="svg4206">
  <g
     id="g3036">
    <path
       d="m 0,19.8 41.168752,0 0,-17.5998004 L 0,2.2001996 0,19.8 z"
       id="path3317"
       style="fill:#e2001a" />
    <path
       d="m 17.229054,15.90407 2.406737,0 0,-2.86431 1.806253,0 1.890318,2.86431 3.008422,0 -2.428356,-3.43477 c 1.143322,-0.5068 1.944367,-1.58167 1.944367,-2.91234 0,-1.9467604 -1.448368,-3.4623804 -3.637724,-3.4623804 l -4.990017,0 0,9.8094904 z m 4.850701,-5.17136 -2.443964,0 0,-2.32627 2.443964,0 c 1.050846,0 1.360697,0.51521 1.360697,1.15052 0,0.65933 -0.309851,1.17575 -1.360697,1.17575 z m -8.321488,0.26541 c 0,-2.87751 -2.33588,-5.0908904 -5.245819,-5.0908904 -2.909939,0 -5.239813,2.2133804 -5.239813,5.0908904 0,2.86911 2.329874,5.08729 5.239813,5.08729 2.909939,0 5.245819,-2.21818 5.245819,-5.08729 z m -2.489607,0 c 0,1.54685 -1.327062,2.77903 -2.756212,2.77903 -1.436359,0 -2.750211,-1.23218 -2.750211,-2.77903 0,-1.54684 1.313852,-2.78144 2.750211,-2.78144 1.42915,0 2.756212,1.2346 2.756212,2.78144 z m 18.637791,4.89394 2.409134,0 0,-3.29785 4.549261,0 0,-2.30826 -4.549261,0 0,-1.87951 5.582091,0 0,-2.3118604 -7.991225,0 0,9.7974804"
       id="path3319"
       style="fill:#ffffff" />
  </g>
  <g
	 id="g3102">
	<rect
     width="17.600082"
     height="17.6"
     x="43.139"
     y="2.1999996"
     id="rect37"
     style="fill:#fbba00" />
    <path
     d="m 54.071282,12.82451 c 0,0.46827 -0.299147,0.82809 -0.938523,0.82809 h -3.090998 v -1.671001 h 3.090998 c 0.610254,4e-5 0.938523,0.405321 0.938523,0.842911 m -0.50152,-3.762721 c 0,0.39047 -0.188142,0.7187 -0.765272,0.7187 h -2.76277 v -1.45118 h 2.76277 c 0.577171,0 0.765272,0.35682 0.765272,0.73248 m 2.904379,3.841051 c 0,-1.031091 -0.51538,-1.811211 -1.247649,-2.265171 0.465759,-0.43717 0.732269,-1.06021 0.732269,-1.74752 0,-1.8431398 -1.450929,-2.7941598 -2.96452,-2.7941598 H 47.638774 V 15.90049 h 5.681095 c 1.73296,0 3.154272,-1.17084 3.154272,-2.99765"
     id="path39"
     style="fill:#e2001a" />
  </g>
</svg>