<?xml version="1.0" encoding="UTF-8" standalone="no"?>
<!-- Created with Inkscape (http://www.inkscape.org/) -->

<svg
   xmlns="http://www.w3.org/2000/svg"
   version="1.0"
   width="100%"
   height="100%"
   viewBox="0 0 57 22"
   id="svg13519">
  <g
     transform="matrix(0.95751086,0,0,0.95751086,0,-2.105715)"
     id="g3036">
    <path
       d="m 0,19.8 41.168752,0 0,-17.5998004 L 0,2.2001996 0,19.8 z"
       id="path3317"
       style="fill:#e2001a" />
    <path
       d="m 17.229054,15.90407 2.406737,0 0,-2.86431 1.806253,0 1.890318,2.86431 3.008422,0 -2.428356,-3.43477 c 1.143322,-0.5068 1.944367,-1.58167 1.944367,-2.91234 0,-1.9467604 -1.448368,-3.4623804 -3.637724,-3.4623804 l -4.990017,0 0,9.8094904 z m 4.850701,-5.17136 -2.443964,0 0,-2.32627 2.443964,0 c 1.050846,0 1.360697,0.51521 1.360697,1.15052 0,0.65933 -0.309851,1.17575 -1.360697,1.17575 z m -8.321488,0.26541 c 0,-2.87751 -2.33588,-5.0908904 -5.245819,-5.0908904 -2.909939,0 -5.239813,2.2133804 -5.239813,5.0908904 0,2.86911 2.329874,5.08729 5.239813,5.08729 2.909939,0 5.245819,-2.21818 5.245819,-5.08729 z m -2.489607,0 c 0,1.54685 -1.327062,2.77903 -2.756212,2.77903 -1.436359,0 -2.750211,-1.23218 -2.750211,-2.77903 0,-1.54684 1.313852,-2.78144 2.750211,-2.78144 1.42915,0 2.756212,1.2346 2.756212,2.78144 z m 18.637791,4.89394 2.409134,0 0,-3.29785 4.549261,0 0,-2.30826 -4.549261,0 0,-1.87951 5.582091,0 0,-2.3118604 -7.991225,0 0,9.7974804"
       id="path3319"
       style="fill:#ffffff" />
  </g>
  <path
     d="m 45.367132,16.846625 c -0.03093,-0.01637 -0.531339,-0.237282 -1.112015,-0.490955 -0.580674,-0.253678 -1.095844,-0.479617 -1.144823,-0.502092 -0.04898,-0.02248 -0.09271,-0.04088 -0.09719,-0.04088 -0.0045,0 -0.0525,-0.02046 -0.106723,-0.0455 -0.05423,-0.02504 -0.153483,-0.07084 -0.220571,-0.101802 -0.06709,-0.03098 -0.125903,-0.05631 -0.130699,-0.05631 -0.02168,0 -0.470763,-0.209752 -0.495189,-0.231286 -0.02603,-0.02297 -0.02741,-0.373291 -0.02741,-6.9432869 0,-5.949082 0.0031,-6.922238 0.02219,-6.941321 0.01221,-0.01219 0.14083,-0.07355 0.285834,-0.136333 0.145003,-0.06278 0.27069,-0.11939 0.279305,-0.125801 0.0086,-0.0064 0.03328,-0.01698 0.05482,-0.0235 0.02153,-0.0065 0.08144,-0.03128 0.133128,-0.05504 0.05169,-0.02376 0.149224,-0.06862 0.216751,-0.09971 0.06753,-0.03111 0.12606,-0.05652 0.130072,-0.05652 0.0076,0 0.108496,-0.04396 0.217015,-0.09453 0.276581,-0.128889 2.042889,-0.895812 2.067406,-0.897656 0.03128,-0.0022 0.03133,0.0085 0.03524,8.435634 0.0035,8.0291439 0.0026,8.4379469 -0.0235,8.4372869 -0.01509,-3.91e-4 -0.05273,-0.01408 -0.08367,-0.0304 z m 5.784038,0.01804 c -0.0085,-0.0078 -0.124718,-0.06193 -0.258236,-0.120181 -0.133526,-0.05826 -0.27932,-0.122588 -0.323989,-0.142965 -0.04467,-0.02037 -0.08488,-0.03705 -0.08935,-0.03705 -0.0045,0 -0.0525,-0.02055 -0.106722,-0.0457 -0.220232,-0.102075 -0.344546,-0.157911 -0.351555,-0.157911 -0.004,0 -0.04396,-0.01716 -0.08866,-0.03819 -0.04469,-0.02099 -0.549075,-0.242493 -1.120858,-0.492206 -0.571775,-0.249717 -1.045782,-0.460217 -1.05335,-0.467776 -0.02174,-0.02174 -0.01786,-13.8333879 0.004,-13.8596119 0.0097,-0.0117 0.02416,-0.02125 0.03212,-0.02125 0.008,0 0.06716,-0.02468 0.131551,-0.05482 0.0644,-0.03014 0.120894,-0.05482 0.125549,-0.05482 0.0047,0 0.04502,-0.01716 0.08971,-0.03815 0.04469,-0.02099 0.532329,-0.235162 1.08363,-0.47594297 0.990285,-0.432502 1.100069,-0.48088 1.284301,-0.565971 0.05168,-0.02389 0.111276,-0.0488 0.132422,-0.05541 0.02116,-0.0066 0.109252,-0.04499 0.195778,-0.08531 0.304304,-0.141803 0.369648,-0.165668 0.385418,-0.14076 0.0084,0.01338 0.07894,3.42172597 0.01052,8.44085197 l -0.0035,8.4184029 -0.0315,0.0045 c -0.01734,0.0026 -0.03846,-0.0018 -0.04699,-0.0097 z m 5.721048,-2.24e-4 c -0.0085,-0.008 -0.117673,-0.05862 -0.242576,-0.112591 -0.124907,-0.05397 -0.270533,-0.118211 -0.323611,-0.142758 -0.05308,-0.02455 -0.100337,-0.04462 -0.105014,-0.04462 -0.0047,0 -0.05288,-0.0205 -0.1071,-0.04556 -0.05423,-0.02504 -0.16555,-0.07492 -0.247386,-0.1108 -0.214257,-0.09394 -0.385078,-0.170051 -0.497313,-0.221571 -0.05386,-0.02473 -0.102424,-0.04495 -0.107919,-0.04495 -0.0055,0 -0.03894,-0.01408 -0.07436,-0.03133 -0.03538,-0.01725 -0.426601,-0.189521 -0.869333,-0.382874 -0.442732,-0.193349 -0.811011,-0.357592 -0.818399,-0.364975 -0.0074,-0.0074 -0.01342,-3.104302 -0.01342,-6.9268229 0,-5.520642 0.004,-6.917028 0.01962,-6.931416 0.01078,-0.0099 0.483309,-0.22022 1.050024,-0.46735 0.566714,-0.24712997 1.077695,-0.47069397 1.135502,-0.49681197 0.05782,-0.02614 0.134991,-0.061 0.171507,-0.07752 0.03652,-0.0165 0.06958,-0.03005 0.07347,-0.03005 0.004,0 0.06916,-0.02882 0.145046,-0.06407 0.07588,-0.03524 0.180254,-0.08177 0.231946,-0.103421 0.05168,-0.02165 0.125685,-0.05372 0.164449,-0.07127 0.282713,-0.127991 0.461973,-0.200147 0.480031,-0.19321699653 C 56.955162,0.00726313 56.957932,1.3646511 56.954632,8.4392561 l -0.004,8.4306259 -0.0315,0.0045 c -0.01734,0.0026 -0.03846,-0.0022 -0.04699,-0.0099 z"
     id="path3000"
     style="fill:#565656" />
  <g
     transform="matrix(0.05350422,0,0,0.057663,-6.8072123e-7,-0.03275487)"
     id="text3009"
     style="fill:#000000">
    <path
       d="m 72.903135,381.00226 -27.140925,-36.704 25.956925,-27.04985 -16.940309,0 -25.865848,27.86954 0,-27.86954 -14.025847,0 0,63.75385 14.025847,0 0,-19.49046 7.377232,-7.65047 19.763693,27.14093 z"
       id="path2996" />
    <path
       d="m 124.31407,381.00226 0,-48.81724 -13.84369,0 0,27.23201 c -0.0304,3.28258 -0.81214,5.75683 -2.34523,7.42276 -1.53316,1.66597 -3.63552,2.50084 -6.30708,2.50462 -2.660229,-0.004 -4.717048,-0.83865 -6.170461,-2.50462 -1.453457,-1.66593 -2.189661,-4.14018 -2.208614,-7.42276 l 0,-27.23201 -13.843694,0 0,31.6037 c 0.03605,5.65627 1.489481,10.07729 4.360309,13.26307 2.870808,3.1858 6.942701,4.80621 12.215693,4.86124 3.46469,-0.0702 6.326017,-0.86334 8.583997,-2.37939 2.25792,-1.51605 4.16294,-3.33379 5.71508,-5.45323 l 0,6.92185 z"
       id="path2998" />
    <path
       d="m 151.18677,381.00226 0,-66.48616 -13.8437,0 0,66.48616 z"
       id="path3001" />
    <path
       d="m 191.69217,378.99857 0,-11.11139 c -1.00188,0.55027 -2.07203,0.97529 -3.21046,1.27508 -1.1385,0.2998 -2.34526,0.4516 -3.62031,0.45538 -1.54075,0.002 -2.67162,-0.38896 -3.39262,-1.17261 -0.72105,-0.78363 -1.07776,-1.97142 -1.07015,-3.56339 l 0,-20.85662 11.47569,0 0,-11.84 -11.47569,0 0,-12.47754 -13.84369,0 0,12.47754 -5.82893,0 0,11.84 5.82893,0 0,23.13355 c 0.0626,5.5519 1.37183,9.40749 3.92769,11.56677 2.55583,2.15928 5.9826,3.19148 10.28031,3.09661 2.30536,-0.009 4.3432,-0.26374 6.11354,-0.76277 1.77027,-0.49902 3.3755,-1.1859 4.81569,-2.06061 z"
       id="path3003" />
    <path
       d="m 246.3445,381.00226 0,-48.81724 -13.84369,0 0,27.23201 c -0.0304,3.28258 -0.81214,5.75683 -2.34523,7.42276 -1.53317,1.66597 -3.63552,2.50084 -6.30708,2.50462 -2.66023,-0.004 -4.71705,-0.83865 -6.17047,-2.50462 -1.45345,-1.66593 -2.18966,-4.14018 -2.20861,-7.42276 l 0,-27.23201 -13.84369,0 0,31.6037 c 0.036,5.65627 1.48948,10.07729 4.36031,13.26307 2.8708,3.1858 6.9427,4.80621 12.21569,4.86124 3.46469,-0.0702 6.32602,-0.86334 8.584,-2.37939 2.25791,-1.51605 4.16294,-3.33379 5.71508,-5.45323 l 0,6.92185 z"
       id="path3005" />
    <path
       d="m 288.15381,345.75549 0,-14.48124 c -4.05865,-0.13277 -7.32603,0.77041 -9.80216,2.70954 -2.47617,1.93923 -4.40017,4.61841 -5.772,8.03754 l 0,-9.83631 -13.84369,0 0,48.81724 13.84369,0 0,-18.03323 c 0.0436,-5.81752 1.36804,-10.14367 3.97324,-12.97847 2.60515,-2.83473 6.22925,-4.24642 10.8723,-4.23507 z"
       id="path3007" />
    <path
       d="m 365.36511,381.00226 0,-46.44924 -4.46277,0 0,26.8677 c -0.10251,4.91437 -1.65081,8.8838 -4.64493,11.90831 -2.99419,3.02451 -6.81942,4.58041 -11.47569,4.66769 -4.71895,-0.0626 -8.35064,-1.50846 -10.89508,-4.33754 -2.54448,-2.82907 -3.83093,-6.66568 -3.85938,-11.50985 l 0,-27.59631 -4.46277,0 0,28.41601 c 0.0398,5.65816 1.66783,10.23477 4.884,13.72984 3.21614,3.49508 7.78136,5.29385 13.69569,5.39631 4.21038,-0.0645 7.67509,-1.00564 10.39415,-2.82338 2.71899,-1.81774 4.84032,-4.12502 6.36401,-6.92185 l 0,8.65231 z"
       id="path3009" />
    <path
       d="m 422.13238,381.00226 0,-28.416 c -0.0399,-5.65813 -1.66789,-10.23474 -4.884,-13.72985 -3.21619,-3.49503 -7.78142,-5.2938 -13.69569,-5.39631 -4.21044,0.0646 -7.67515,1.00569 -10.39416,2.82339 -2.71904,1.81778 -4.84037,4.12506 -6.364,6.92184 l 0,-8.65231 -4.46277,0 0,46.44924 4.46277,0 0,-26.8677 c 0.10245,-4.91432 1.65076,-8.88376 4.64493,-11.90831 2.99413,-3.02447 6.81935,-4.58036 11.47569,-4.66769 4.71889,0.0627 8.35057,1.50851 10.89507,4.33754 2.54442,2.82912 3.83088,6.66573 3.85939,11.50985 l 0,27.59631 z"
       id="path3011" />
    <path
       d="m 481.3587,381.00226 0,-66.48616 -4.46277,0 0,30.05539 c -1.88989,-3.01309 -4.3945,-5.5936 -7.51384,-7.74154 -3.11943,-2.14785 -6.99019,-3.27114 -11.61231,-3.36985 -5.84223,0.0684 -11.00705,2.23143 -15.49447,6.48923 -4.48744,4.25789 -6.85164,10.20065 -7.09261,17.82831 l 0,0.18216 c 0.24097,7.62011 2.60517,13.53252 7.09262,17.73723 4.48741,4.20472 9.65223,6.33743 15.49446,6.39815 4.57089,-0.0968 8.4075,-1.24661 11.50984,-3.44954 3.10227,-2.20292 5.64104,-4.8783 7.61631,-8.02615 l 0,10.38277 z m -4.18954,-23.13354 c -0.18599,6.01109 -2.13655,10.8154 -5.85169,14.41292 -3.71522,3.59754 -8.07932,5.44185 -13.09231,5.53293 -5.02253,-0.0721 -9.27658,-1.88605 -12.76215,-5.44185 -3.48561,-3.55578 -5.30335,-8.42081 -5.45323,-14.59508 l 0,-0.18215 c 0.12712,-6.28618 1.89932,-11.155 5.31661,-14.60647 3.41726,-3.45139 7.71685,-5.20083 12.89877,-5.2483 5.013,0.0854 9.37709,1.91835 13.09231,5.49877 3.71514,3.58049 5.6657,8.39618 5.85169,14.44707 z"
       id="path3013" />
    <path
       d="m 539.55232,381.00226 0,-63.75385 -14.02585,0 0,63.75385 z"
       id="path3015" />
    <path
       d="m 598.747,381.00226 0,-31.6037 c -0.0361,-5.65622 -1.48953,-10.07724 -4.36031,-13.26308 -2.87086,-3.18574 -6.94276,-4.80615 -12.21569,-4.86123 -3.46475,0.0703 -6.32608,0.86339 -8.584,2.37939 -2.25797,1.5161 -4.163,3.33384 -5.71508,5.45323 l 0,-6.92185 -13.84369,0 0,48.81724 13.84369,0 0,-27.232 c 0.0303,-3.28254 0.81209,-5.75679 2.34523,-7.42277 1.53311,-1.66592 3.63546,-2.50079 6.30708,-2.50462 2.66017,0.004 4.71699,0.8387 6.17046,2.50462 1.4534,1.66598 2.1896,4.14023 2.20862,7.42277 l 0,27.232 z"
       id="path3017" />
    <path
       d="m 638.09722,326.72041 0,-11.47569 c -1.25234,-0.41548 -2.66403,-0.74563 -4.23508,-0.99047 -1.57111,-0.2447 -3.43818,-0.36993 -5.60123,-0.37569 -4.89351,-0.0189 -8.63145,1.24858 -11.21385,3.80246 -2.58242,2.55401 -3.88406,6.50827 -3.90492,11.86277 l 0,3.09662 -5.73785,0 0,11.38461 5.73785,0 0,36.97724 13.84369,0 0,-36.97724 11.02031,0 0,-11.29353 -11.20246,0 0,-1.91262 c 0.009,-1.8139 0.44587,-3.14969 1.30923,-4.00738 0.86331,-0.85759 2.09664,-1.28262 3.7,-1.27508 1.17259,0.004 2.26551,0.1101 3.27877,0.31877 1.0132,0.20877 2.01504,0.49718 3.00554,0.86523 z"
       id="path3019" />
    <path
       d="m 696.0966,356.68472 0,-0.18216 c -0.15185,-7.18745 -2.64887,-13.1454 -7.49108,-17.87385 -4.8423,-4.72836 -11.11901,-7.17984 -18.83015,-7.35446 -7.75864,0.18221 -14.07709,2.66405 -18.95539,7.44555 -4.87831,4.78157 -7.39431,10.76987 -7.548,17.96492 l 0,0.18215 c 0.15179,7.18751 2.64882,13.14545 7.49108,17.87385 4.84224,4.72841 11.11895,7.1799 18.83016,7.35446 7.75857,-0.18215 14.07703,-2.664 18.95538,-7.44554 4.87825,-4.78153 7.39425,-10.76983 7.548,-17.96492 z m -13.66154,0.18215 c -0.0323,3.70192 -1.15178,6.81751 -3.35846,9.34677 -2.20675,2.52929 -5.30716,3.84611 -9.30123,3.95046 -3.88218,-0.11193 -6.97879,-1.45911 -9.28985,-4.04154 -2.31109,-2.58239 -3.49509,-5.72834 -3.552,-9.43784 l 0,-0.18216 c 0.0322,-3.70187 1.15173,-6.81745 3.35846,-9.34677 2.2067,-2.52924 5.30711,-3.84606 9.30124,-3.95046 3.88212,0.11199 6.97873,1.45917 9.28984,4.04154 2.31104,2.58244 3.49504,5.72839 3.552,9.43785 z"
       id="path3021" />
    <path
       d="m 735.5394,345.75549 0,-14.48124 c -4.05865,-0.13277 -7.32603,0.77041 -9.80216,2.70954 -2.47617,1.93923 -4.40017,4.61841 -5.772,8.03754 l 0,-9.83631 -13.84369,0 0,48.81724 13.84369,0 0,-18.03323 c 0.0436,-5.81752 1.36804,-10.14367 3.97324,-12.97847 2.60515,-2.83473 6.22925,-4.24642 10.8723,-4.23507 z"
       id="path3023" />
    <path
       d="m 818.69029,381.00226 0,-31.78585 c -0.0437,-5.88771 -1.50475,-10.34668 -4.38308,-13.37692 -2.87849,-3.03016 -6.91243,-4.55191 -12.10185,-4.56524 -3.30918,0.01 -6.27677,0.67364 -8.90277,1.99231 -2.6261,1.31877 -5.00169,3.23518 -7.12676,5.74923 -1.29031,-2.47421 -3.10425,-4.37923 -5.44185,-5.71507 -2.33768,-1.33575 -5.10794,-2.01124 -8.31077,-2.02647 -3.46854,0.0703 -6.34505,0.86339 -8.62954,2.37939 -2.28454,1.5161 -4.20474,3.33384 -5.76062,5.45323 l 0,-6.92185 -13.84369,0 0,48.81724 13.84369,0 0,-27.232 c 0.0246,-3.28254 0.77224,-5.75679 2.24278,-7.42277 1.47048,-1.66592 3.51592,-2.50079 6.1363,-2.50462 2.60894,0.004 4.60884,0.8387 5.99969,2.50462 1.39079,1.66598 2.09284,4.14023 2.10616,7.42277 l 0,27.232 13.84369,0 0,-27.232 c 0.0246,-3.28254 0.77221,-5.75679 2.24277,-7.42277 1.47046,-1.66592 3.5159,-2.50079 6.13631,-2.50462 2.60891,0.004 4.60881,0.8387 5.99969,2.50462 1.39076,1.66598 2.09281,4.14023 2.10616,7.42277 l 0,27.232 z"
       id="path3025" />
    <path
       d="m 872.62889,381.00226 0,-28.32493 c 0.0379,-6.65427 -1.70015,-11.8115 -5.21416,-15.47169 -3.51409,-3.66011 -9.03183,-5.5158 -16.55323,-5.56708 -4.07951,0.0152 -7.60115,0.37195 -10.56492,1.07016 -2.96381,0.6983 -5.75683,1.64702 -8.37908,2.84615 l 3.46093,10.56492 c 2.18393,-0.82724 4.32803,-1.47237 6.4323,-1.93538 2.10424,-0.46294 4.45326,-0.69822 7.04708,-0.70585 3.46469,0.0133 6.07556,0.78368 7.83262,2.31108 1.75699,1.52747 2.6374,3.73229 2.64123,6.61446 l 0,0.81969 c -1.70393,-0.60145 -3.51029,-1.0834 -5.41908,-1.44584 -1.90885,-0.36238 -4.07951,-0.54833 -6.512,-0.55785 -5.88017,-0.017 -10.60478,1.24665 -14.17385,3.79108 -3.56908,2.54449 -5.402,6.47217 -5.49877,11.78308 l 0,0.18215 c 0.12333,4.84606 1.76651,8.54226 4.92954,11.08862 3.16302,2.54636 7.10588,3.82902 11.82862,3.848 3.35274,-0.0247 6.23305,-0.5901 8.64092,-1.69631 2.40782,-1.10621 4.44566,-2.60518 6.11354,-4.49692 l 0,5.28246 z m -13.11508,-17.21354 c -0.0475,2.54827 -1.04552,4.60129 -2.99415,6.15907 -1.9487,1.55781 -4.56336,2.35853 -7.844,2.40216 -2.26746,-0.0133 -4.0852,-0.53317 -5.45324,-1.55969 -1.36806,-1.02651 -2.07012,-2.47994 -2.10615,-4.36031 l 0,-0.18215 c 0.0285,-2.19342 0.88229,-3.86316 2.56154,-5.00924 1.67921,-1.14603 4.01305,-1.72285 7.00154,-1.73046 1.69438,0.008 3.29202,0.17459 4.79292,0.50092 1.50084,0.32638 2.84802,0.76659 4.04154,1.32062 z"
       id="path3027" />
    <path
       d="m 911.9563,378.99857 0,-11.11139 c -1.00188,0.55027 -2.07203,0.97529 -3.21046,1.27508 -1.1385,0.2998 -2.34526,0.4516 -3.62031,0.45538 -1.54075,0.002 -2.67162,-0.38896 -3.39262,-1.17261 -0.72105,-0.78363 -1.07776,-1.97142 -1.07015,-3.56339 l 0,-20.85662 11.47569,0 0,-11.84 -11.47569,0 0,-12.47754 -13.84369,0 0,12.47754 -5.82893,0 0,11.84 5.82893,0 0,23.13355 c 0.0626,5.5519 1.37183,9.40749 3.92769,11.56677 2.55583,2.15928 5.9826,3.19148 10.28031,3.09661 2.30536,-0.009 4.3432,-0.26374 6.11354,-0.76277 1.77027,-0.49902 3.3755,-1.1859 4.81569,-2.06061 z"
       id="path3029" />
    <path
       d="m 937.09972,326.81149 0,-12.29539 -14.57231,0 0,12.29539 z m -0.36431,54.19077 0,-48.81724 -13.84369,0 0,48.81724 z"
       id="path3031" />
    <path
       d="m 1000.2832,356.68472 0,-0.18216 c -0.1518,-7.18745 -2.64883,-13.1454 -7.49103,-17.87385 -4.8423,-4.72836 -11.11901,-7.17984 -18.83015,-7.35446 -7.75864,0.18221 -14.0771,2.66405 -18.95539,7.44555 -4.87832,4.78157 -7.39431,10.76987 -7.548,17.96492 l 0,0.18215 c 0.15179,7.18751 2.64881,13.14545 7.49108,17.87385 4.84224,4.72841 11.11895,7.1799 18.83015,7.35446 7.75858,-0.18215 14.07703,-2.664 18.95539,-7.44554 4.87825,-4.78153 7.39425,-10.76983 7.54795,-17.96492 z m -13.66149,0.18215 c -0.0323,3.70192 -1.15179,6.81751 -3.35846,9.34677 -2.20676,2.52929 -5.30717,3.84611 -9.30123,3.95046 -3.88218,-0.11193 -6.9788,-1.45911 -9.28985,-4.04154 -2.3111,-2.58239 -3.4951,-5.72834 -3.552,-9.43784 l 0,-0.18216 c 0.0322,-3.70187 1.15172,-6.81745 3.35846,-9.34677 2.2067,-2.52924 5.3071,-3.84606 9.30123,-3.95046 3.88212,0.11199 6.97873,1.45917 9.28985,4.04154 2.31103,2.58244 3.49503,5.72839 3.552,9.43785 z"
       id="path3033" />
    <path
       d="m 1055.027,381.00226 0,-31.6037 c -0.036,-5.65622 -1.4896,-10.07724 -4.3603,-13.26308 -2.8709,-3.18574 -6.9428,-4.80615 -12.2157,-4.86123 -3.4648,0.0703 -6.3261,0.86339 -8.584,2.37939 -2.258,1.5161 -4.163,3.33384 -5.7151,5.45323 l 0,-6.92185 -13.8437,0 0,48.81724 13.8437,0 0,-27.232 c 0.03,-3.28254 0.8121,-5.75679 2.3452,-7.42277 1.5331,-1.66592 3.6355,-2.50079 6.3071,-2.50462 2.6602,0.004 4.717,0.8387 6.1705,2.50462 1.4534,1.66598 2.1896,4.14023 2.2086,7.42277 l 0,27.232 z"
       id="path3035" />
  </g>
</svg>
