<?xml version="1.0" encoding="UTF-8" standalone="no"?>
<!-- Created with Inkscape (http://www.inkscape.org/) -->

<svg
   xmlns="http://www.w3.org/2000/svg"
   version="1.1"
   width="100%"
   height="100%"
   viewBox="0 0 61 22"
   id="svg4206">
  <g
     id="g3036">
    <path
       d="m 0,19.8 41.168752,0 0,-17.5998004 L 0,2.2001996 0,19.8 z"
       id="path3317"
       style="fill:#e2001a" />
    <path
       d="m 17.229054,15.90407 2.406737,0 0,-2.86431 1.806253,0 1.890318,2.86431 3.008422,0 -2.428356,-3.43477 c 1.143322,-0.5068 1.944367,-1.58167 1.944367,-2.91234 0,-1.9467604 -1.448368,-3.4623804 -3.637724,-3.4623804 l -4.990017,0 0,9.8094904 z m 4.850701,-5.17136 -2.443964,0 0,-2.32627 2.443964,0 c 1.050846,0 1.360697,0.51521 1.360697,1.15052 0,0.65933 -0.309851,1.17575 -1.360697,1.17575 z m -8.321488,0.26541 c 0,-2.87751 -2.33588,-5.0908904 -5.245819,-5.0908904 -2.909939,0 -5.239813,2.2133804 -5.239813,5.0908904 0,2.86911 2.329874,5.08729 5.239813,5.08729 2.909939,0 5.245819,-2.21818 5.245819,-5.08729 z m -2.489607,0 c 0,1.54685 -1.327062,2.77903 -2.756212,2.77903 -1.436359,0 -2.750211,-1.23218 -2.750211,-2.77903 0,-1.54684 1.313852,-2.78144 2.750211,-2.78144 1.42915,0 2.756212,1.2346 2.756212,2.78144 z m 18.637791,4.89394 2.409134,0 0,-3.29785 4.549261,0 0,-2.30826 -4.549261,0 0,-1.87951 5.582091,0 0,-2.3118604 -7.991225,0 0,9.7974804"
       id="path3319"
       style="fill:#ffffff" />
  </g>
  <g
     id="g3032">
    <path
       d="m 43.193372,19.79985 17.598823,0 0,-17.5998504 -17.598823,0 0,17.5998504 z"
       id="path3211"
       style="fill:#00683f" />
    <path
       d="m 54.052832,10.55093 0,-2.30876 0.796285,0 0,-1.6059204 2.390908,-0.66691 0,2.2728304 1.122295,0 0,2.30876 -1.122295,0 0,2.07928 c 0,0.59349 0.119623,0.71568 0.336278,0.84044 l 1.177743,0.67152 -1.086871,1.93604 c -1.46268,-0.69771 -2.818058,-1.23678 -2.818058,-3.19182 l 0,-2.33546 -0.796285,0 z m -0.340899,2.12292 c 0,-4.16779 -5.784491,-2.14499 -5.784491,-3.68622 0,-0.55704 0.479004,-0.89537 1.529423,-0.89537 0.906666,0 1.6167,0.30752 2.447896,1.12383 l 1.71476,-1.5094004 c -0.878944,-1.18852 -2.283609,-1.72759 -4.072298,-1.72759 -2.146017,0 -4.072811,1.17158 -4.072811,3.0531904 0,4.08873 5.785517,2.22252 5.785517,3.76323 0,0.66434 -0.586304,0.98727 -1.789203,0.98727 -1.09765,0 -2.205057,-0.61505 -2.62348,-1.38515 l -1.788689,1.60335 c 1.171582,1.4021 2.716405,2.03563 4.33362,2.03563 2.160392,0 4.319756,-1.20444 4.319756,-3.36277"
       id="path3247"
       style="fill:#ffffff" />
  </g>
</svg>
