<?xml version="1.0" encoding="UTF-8" standalone="no"?>
<!-- Created with Inkscape (http://www.inkscape.org/) -->

<svg
   xmlns="http://www.w3.org/2000/svg"
   xmlns:xlink="http://www.w3.org/1999/xlink"
   version="1.1"
   width="100%"
   height="100%"
   viewBox="0 0 81 22"
   id="svg11358">
  <defs
     id="defs26">
    <linearGradient
       x1="626.51923"
       y1="20.0408"
       x2="451.70929"
       y2="20.0408"
       id="path3601_1_"
       gradientUnits="userSpaceOnUse">
      <stop
         id="stop12"
         style="stop-color:#ffffff;stop-opacity:1"
         offset="0" />
      <stop
         id="stop14"
         style="stop-color:#000000;stop-opacity:1"
         offset="1" />
    </linearGradient>
    <linearGradient
       x1="626.51923"
       y1="20.0408"
       x2="451.70929"
       y2="20.0408"
       id="linearGradient3032"
       xlink:href="#path3601_1_"
       gradientUnits="userSpaceOnUse"
       gradientTransform="matrix(0.08612708,0,0,0.086239,-7.2119685,9.2716842)" />
  </defs>
  <path
     d="m 41.157,2.2 h 6.179531 V 19.8 H 41.157 V 2.2 z"
     id="path3601"
     style="fill:url(#linearGradient3032)" />
  <g
     id="g3009"
     style="fill:#e2001a">
    <path
       d="m 53.494043,9.0040567 c 0,-1.7719786 -1.452188,-3.2886765 -3.752729,-3.2886765 -1.737872,0 -3.083952,0.6698103 -4.152617,2.4107831 l 2.13733,1.0213811 c 0.465086,-0.8297483 1.117843,-1.244967 1.917361,-1.244967 0.799517,0 1.395,0.5270116 1.395,1.0695261 0,0.3671598 -0.163211,0.7188166 -0.660767,1.1013935 l -4.560515,3.609241 v 2.250931 h 7.644295 v -2.283401 h -4.05469 l 2.382275,-1.803759 c 1.019744,-0.766101 1.705057,-1.708503 1.705057,-2.8424523"
       id="path3611" />
    <path
       d="m 0,19.8 41.168752,0 0,-17.5998004 L 0,2.2001996 0,19.8 z"
       id="path3317" />
    <path
       d="M 68.055446,15.968236 V 6.0539422 h -2.431379 v 3.6785415 h -4.04137 V 6.0539422 h -2.431251 v 9.9142938 h 2.431251 v -3.899338 h 4.041304 v 3.899338 h 2.431445 z m 12.105912,-4.957147 c 0,-2.6207983 -2.021039,-4.9571468 -5.288727,-4.9571468 h -4.531182 v 9.9142938 h 4.531182 c 3.204741,0 5.288727,-2.336414 5.288727,-4.957147 m -2.431252,0 c 0,1.436451 -1.073626,2.620733 -2.857409,2.620733 H 72.757142 V 8.3902907 h 2.115555 c 1.783717,0 2.857409,1.184282 2.857409,2.6207983"
       id="path4247" />
    <path
       d="m 77.249358,3.2066272 v 2.362646 c 0.360127,0.133738 0.692542,0.299944 1.006566,0.487947 V 2.1999992 H 60.557616 v 2.890325 h 1.006627 v -1.883697"
       id="path16" />
    <path
       d="m 60.557604,19.753819 h 17.698465 v -3.849184 c -0.314803,0.190467 -0.647601,0.360135 -1.006691,0.496266 v 2.346365 H 61.564411 v -1.847412 h -1.00669"
       id="path4249" />
  </g>
  <path
     d="m 17.229054,15.90407 2.406737,0 0,-2.86431 1.806253,0 1.890318,2.86431 3.008422,0 -2.428356,-3.43477 c 1.143322,-0.5068 1.944367,-1.58167 1.944367,-2.91234 0,-1.9467604 -1.448368,-3.4623804 -3.637724,-3.4623804 l -4.990017,0 0,9.8094904 z m 4.850701,-5.17136 -2.443964,0 0,-2.32627 2.443964,0 c 1.050846,0 1.360697,0.51521 1.360697,1.15052 0,0.65933 -0.309851,1.17575 -1.360697,1.17575 z m -8.321488,0.26541 c 0,-2.87751 -2.33588,-5.0908904 -5.245819,-5.0908904 -2.909939,0 -5.239813,2.2133804 -5.239813,5.0908904 0,2.86911 2.329874,5.08729 5.239813,5.08729 2.909939,0 5.245819,-2.21818 5.245819,-5.08729 z m -2.489607,0 c 0,1.54685 -1.327062,2.77903 -2.756212,2.77903 -1.436359,0 -2.750211,-1.23218 -2.750211,-2.77903 0,-1.54684 1.313852,-2.78144 2.750211,-2.78144 1.42915,0 2.756212,1.2346 2.756212,2.78144 z m 18.637791,4.89394 2.409134,0 0,-3.29785 4.549261,0 0,-2.30826 -4.549261,0 0,-1.87951 5.582091,0 0,-2.3118604 -7.991225,0 0,9.7974804"
     id="path3319"
     style="fill:#ffffff" />
</svg>
