<?xml version="1.0" encoding="UTF-8" standalone="no"?>
<!-- Generator: Adobe Illustrator 13.0.2, SVG Export Plug-In . SVG Version: 6.00 Build 14948)  -->

<svg
   xmlns="http://www.w3.org/2000/svg"
   width="100%"
   height="100%"
   viewBox="0 0 106 22">
  <g
     transform="scale(1.0017549,1)"
     id="g3036">
    <path
       d="m 0,19.8 41.168752,0 0,-17.5998004 L 0,2.2001996 0,19.8 z"
       id="path3317"
       style="fill:#e2001a" />
    <path
       d="m 17.229054,15.90407 2.406737,0 0,-2.86431 1.806253,0 1.890318,2.86431 3.008422,0 -2.428356,-3.43477 c 1.143322,-0.5068 1.944367,-1.58167 1.944367,-2.91234 0,-1.9467604 -1.448368,-3.4623804 -3.637724,-3.4623804 l -4.990017,0 0,9.8094904 z m 4.850701,-5.17136 -2.443964,0 0,-2.32627 2.443964,0 c 1.050846,0 1.360697,0.51521 1.360697,1.15052 0,0.65933 -0.309851,1.17575 -1.360697,1.17575 z m -8.321488,0.26541 c 0,-2.87751 -2.33588,-5.0908904 -5.245819,-5.0908904 -2.909939,0 -5.239813,2.2133804 -5.239813,5.0908904 0,2.86911 2.329874,5.08729 5.239813,5.08729 2.909939,0 5.245819,-2.21818 5.245819,-5.08729 z m -2.489607,0 c 0,1.54685 -1.327062,2.77903 -2.756212,2.77903 -1.436359,0 -2.750211,-1.23218 -2.750211,-2.77903 0,-1.54684 1.313852,-2.78144 2.750211,-2.78144 1.42915,0 2.756212,1.2346 2.756212,2.78144 z m 18.637791,4.89394 2.409134,0 0,-3.29785 4.549261,0 0,-2.30826 -4.549261,0 0,-1.87951 5.582091,0 0,-2.3118604 -7.991225,0 0,9.7974804"
       id="path3319"
       style="fill:#ffffff" />
  </g>
  <rect
     width="41.241253"
     height="17.6"
     x="41.241253"
     y="2.2000008"
     id="rect3201"
     style="fill:#007787" />
  <path
     d="m 75.948256,16.067552 c 1.947405,0 3.479772,-1.076443 3.479772,-2.931296 v -0.03694 c 0,-1.758356 -1.626891,-2.345878 -3.140852,-2.799829 C 74.984874,9.9029835 73.77289,9.5425039 73.77289,8.6160636 v -0.03589 c 0,-0.8154831 0.738444,-1.4194376 1.893898,-1.4194376 0.944977,0 1.982243,0.3594279 2.890147,0.946949 l 0.663508,-1.0980033 c -1.002428,-0.6624568 -2.327341,-1.078415 -3.516713,-1.078415 -1.930972,0 -3.329769,1.1164086 -3.329769,2.798778 v 0.037994 c 0,1.7963503 1.702878,2.3262903 3.233273,2.7607843 1.285868,0.358508 2.440402,0.736473 2.440402,1.720364 v 0.03799 c 0,0.945897 -0.852425,1.550904 -2.023392,1.550904 -1.154403,0 -2.32537,-0.4529 -3.384196,-1.247875 l -0.738444,1.03937 c 1.096952,0.88963 2.646803,1.437973 4.046652,1.437973 M 61.06592,15.878635 h 1.456379 v -5.597556 c 0,-1.8343435 1.248927,-3.0638128 2.931296,-3.0638128 1.719311,0 2.705306,1.1349453 2.705306,2.9507528 v 5.710616 h 1.454407 V 9.8085909 c 0,-2.3253692 -1.380392,-3.9151865 -3.742703,-3.9151865 -1.68237,0 -2.705306,0.852425 -3.348306,1.9103312 V 6.102961 H 61.06592 v 9.775674 z m -4.839524,0 h 1.457432 V 6.102961 h -1.457432 v 9.775674 z M 45.768677,10.414517 c 0.209557,-1.8919257 1.495425,-3.2907231 3.177794,-3.2907231 1.926765,0 2.949832,1.5118581 3.120212,3.2907231 h -6.298006 z m 0,1.170967 h 7.754386 c 0.01854,-0.22599 0.01854,-0.376912 0.01854,-0.50943 0,-2.8758171 -1.663832,-5.1826496 -4.558186,-5.1826496 -2.70123,0 -4.687549,2.2688388 -4.687549,5.1066626 0,3.044224 2.192852,5.104558 4.878569,5.104558 1.853932,0 3.042253,-0.737392 4.028247,-1.834344 l -0.907903,-0.812459 c -0.793923,0.830865 -1.73982,1.380392 -3.082219,1.380392 -1.723518,0 -3.234456,-1.190424 -3.443881,-3.25273"
     id="path3203"
     style="fill:#ffffff" />
<g
   id="g3195"
   transform="matrix(0.13146592,0,0,0.13146592,0,2.2000008)">
	<path
   d="m 784.688,66.93 c 0,10.867 -8.109,19.836 -21.625,19.836 h -16 V 47.109 h 16 c 13.515,0 21.625,8.961 21.625,19.821 m 18.39,0 c 0,-19.82 -15.297,-37.492 -40.016,-37.492 h -34.25 v 74.992 h 34.25 c 24.251,0 40.016,-17.664 40.016,-37.5 M 711.5,104.43 V 29.438 H 693.109 V 57.25 H 662.546 V 29.438 h -18.391 v 74.992 h 18.391 V 74.938 h 30.563 V 104.43 H 711.5 z"
   id="path3205"
   style="fill:#e2001a" />
	<path
   d="m 662.641,112.281 h -7.609 v 21.594 H 788.907 V 104.75 c -2.375,1.453 -4.891,2.734 -7.609,3.758 v 17.758 H 662.641 V 112.281 z M 781.297,25.484 c 2.719,1.016 5.234,2.273 7.609,3.688 V 0 H 655.031 v 21.859 h 7.609 V 7.609 h 118.656 v 17.875 z"
   id="path3207"
   style="fill:#e2001a" />
</g>
</svg>