<?xml version="1.0" encoding="UTF-8" standalone="no"?>
<!-- Created with Inkscape (http://www.inkscape.org/) -->

<svg
   xmlns="http://www.w3.org/2000/svg"
   version="1.0"
   width="100%"
   height="100%"
   viewBox="0 0 82 22"
   id="svg6438">
  <g
     transform="matrix(0.14407922,0,0,0.14407922,-9.5863852,-65.702328)"
     id="g7339">
    <rect
       width="365.40399"
       height="122.143"
       x="268.05951"
       y="471.29669"
       id="rect6425"
       style="fill:#ffffff" />
    <path
       d="m 363.4065,515.10568 c -3.063,0 -5.79,1.409 -7.321,8.172 l -4.795,21.909 c -1.095,5.017 1.195,7.414 4.259,7.414 3.048,0 5.997,-2.727 7.084,-7.414 l 4.811,-21.802 c 1.086,-5.008 -0.553,-8.279 -4.038,-8.279 m 192.725,0.108 c -3.163,0 -5.782,0.98 -6.985,6.644 l -5.238,23.636 c -0.766,3.163 0.544,7.084 4.365,7.084 3.493,0 5.561,-1.639 6.541,-5.997 l 5.354,-24.505 c 0.88,-4.029 -0.874,-6.862 -4.037,-6.862 z m -252.518,29.345 4.465,-20.515 c 0.98,-4.687 -0.651,-7.958 -3.707,-8.069 -3.056,0 -5.791,3.16 -6.771,8.069 l -4.473,20.515 c -0.98,4.688 0.659,8.064 3.715,8.064 3.163,0.001 5.782,-3.162 6.771,-8.064 z m 301.23,-38.85 c 5.567,-3.719 11.895,-5.465 18.986,-4.048 4.028,0.747 7.36,2.604 9.635,5.603 l 0,-35.967 -365.405,0 0,100.851 13.066,-56.172 c 0,0 0.543,-2.73 0.107,-5.135 5.675,1.207 15.831,-5.021 15.831,-5.021 6.219,-3.937 11.343,-4.917 16.26,-4.377 7.636,0.877 16.046,8.195 13.312,20.974 l -5.568,25.52 c -2.826,13.197 -11.021,19.087 -19.094,19.087 0,0 -9.719,-0.659 -12.009,-6.978 l -8.104,33.394 351.603,0 0,-56.548 -6.143,28.461 -18.442,0 9.061,-41.746 c 0.758,-3.822 0.98,-8.073 -3.394,-8.291 -4.58,-0.211 -6.326,3.488 -7.307,8.291 l -9.061,41.746 -18.112,0 c 10.256,-48.286 10.585,-49.489 10.585,-49.489 0.321,-2.068 0,-5.024 0,-5.024 0,0 4.358,1.318 14.193,-5.131 z m -218.084,12.227 -10.37,47.417 -13.097,0 -1.746,-5.124 c -6.327,7.314 -15.495,6.441 -15.495,6.441 -13.319,-1.317 -15.065,-13.848 -12.668,-24.425 l 5.024,-22.13 c 2.734,-11.898 12.009,-18.784 25.428,-18.784 6.219,0 11.787,3.5 14.735,5.905 4.695,3.933 10.371,3.604 10.371,3.604 0,0 -1.202,2.735 -2.182,7.096 z m 49.501,-1.849 -11.581,0 c -1.961,0 -3.813,0.54 -4.465,3.048 -0.329,1.091 0.207,2.833 1.417,4.144 5.346,5.882 12.224,14.265 11.021,22.108 -2.076,13.641 -11.351,21.284 -23.031,21.605 -7.207,0.115 -12.875,-1.96 -17.355,-8.08 l 2.727,-14.062 c 2.184,2.94 6.549,7.843 10.485,7.843 2.727,0 4.695,-0.889 5.997,-3.6 2.842,-5.883 -5.338,-11.88 -9.934,-19.722 -2.29,-3.914 -3.163,-9.034 -0.98,-15.686 1.417,-4.587 6.985,-10.715 19.653,-10.715 l 18.986,0 -2.94,13.117 z m 49.837,0 -11.572,0 c -1.961,0 -3.822,0.54 -4.474,3.048 -0.329,1.091 0.223,2.833 1.417,4.144 5.354,5.882 12.231,14.265 11.021,22.108 -2.068,13.641 -11.351,21.284 -23.023,21.605 -7.199,0.115 -12.882,-1.96 -17.354,-8.08 l 2.727,-14.062 c 2.19,2.94 6.548,7.843 10.478,7.843 2.727,0 4.694,-0.889 6.004,-3.6 2.834,-5.883 -5.346,-11.88 -9.934,-19.722 -2.29,-3.914 -3.163,-9.034 -0.98,-15.686 1.417,-4.587 6.985,-10.715 19.646,-10.715 l 18.995,0 -2.951,13.117 z m 23.031,49.266 -17.899,0 13.426,-61.613 17.899,0 -13.426,61.613 z m 4.917,-68.199 c -5.568,0 -9.291,-3.607 -8.303,-8.088 0.873,-4.477 6.112,-8.084 11.68,-8.084 5.568,0 9.275,3.607 8.402,8.084 -0.98,4.48 -6.22,8.088 -11.779,8.088 z m 63.477,27.105 -4.687,22.108 c -3.821,17.569 -17.685,20.304 -25.88,20.403 -14.735,0.122 -23.459,-11.136 -20.84,-23.56 l 4.588,-20.92 c 4.036,-18.332 16.911,-21.066 27.833,-21.066 14.95,0 21.828,10.053 18.986,23.035 z"
       id="path6427"
       style="fill:#781133" />
    <rect
       width="194.70799"
       height="122.139"
       x="66.5355"
       y="471.28467"
       id="rect6429"
       style="fill:#e53478" />
    <path
       d="m 248.4605,560.90268 c 0,0 -5.928,-13.549 -4.473,-33.925 0.873,-12.258 -8.387,-22.617 -13.978,-27.416 -5.599,-4.81 -12.224,-14.816 -18.083,-20.151 -3.531,-3.206 -5.66,-5.817 -7.398,-8.115 l -69.567,0 c -0.153,1.095 -0.644,2.405 -0.781,3.198 0,0 -1.693,2.485 -5.361,5.836 -5.469,4.994 -11.833,8.299 -15.938,16.965 -4.098,8.674 -11.657,21.771 -8.67,35.339 2.987,13.58 1.96,19.699 12.017,27.994 10.072,8.287 11.374,10.179 20.695,14.69 9.321,4.534 14.782,4.35 24.854,4.726 10.064,0.375 3.761,0.022 19.883,1.478 14.912,1.363 24.471,-3.737 16.651,-3.354 -7.828,0.368 -8.578,3.386 -23.858,-0.766 -15.288,-4.136 -14.544,-9.796 -22.747,-9.421 -8.203,0.383 -18.267,-8.287 -21.622,-14.705 -3.362,-6.403 -6.418,-9.152 -4.549,-12.929 1.869,-3.761 1.831,0.468 2.979,3.715 1.463,4.144 2.382,5.246 12.5,12.752 6.755,5.01 9.582,3.631 17.401,7.774 7.828,4.144 12.301,6.778 24.976,8.678 12.676,1.876 14.537,2.635 23.49,0.367 8.946,-2.267 11.55,-4.519 5.967,1.134 -5.599,5.652 -7.46,4.901 -16.406,9.428 -6.618,3.34 -11.611,5.461 -14.966,9.229 l 31.762,0 c 1.087,-1.21 2.236,-2.627 3.492,-4.312 6.479,-8.747 21.192,-6.764 17.823,-23.98 0,0 -2.007,-3.692 -0.161,-8.686 1.271,-3.446 1.149,-5.377 1.003,-8.517 -0.077,-1.602 1.907,0.582 2.987,4.595 1.271,4.765 2.604,8.686 3.117,11.213 2.833,14.368 -0.873,23.414 -5.561,29.687 l 14.276,0 c 1.302,-1.915 2.259,-3.347 2.719,-5.086 2.228,-8.455 -2.559,-22.349 -4.473,-27.435 m -122.345,-29.318 c -6.242,6.464 -6.242,10.462 -6.242,15.854 0,6.785 0.743,9.85 4.113,13.449 7.942,8.471 7,8.777 2.053,5.108 -6.357,-4.159 -9.52,-8.371 -11.205,-12.53 -2.29,-5.66 -1.961,-10.853 -1.486,-14.33 0.697,-5.186 1.378,-8.18 2.979,-10.55 2.803,-4.163 5.292,-5.174 9.972,-7.544 4.688,-2.359 10.761,-5.442 17.823,-6.782 0,0 5.645,-2.401 17.103,-1.39 1.563,-0.157 7.429,0.54 10.079,1.168 2.65,0.636 5.936,1.692 7.751,1.961 7.414,1.106 8.992,5.97 7.927,8.022 -0.881,1.681 -2.198,3.493 -5.162,4.596 -2.964,1.099 -2.62,4.377 -4.726,6.705 -2.267,2.505 -6.51,3.707 -9.474,4.182 -2.474,0.391 -9.75,0.047 -13.549,-0.934 -11.833,-2.635 -6.487,-8.854 -6.487,-8.854 0,0 2.397,-2.485 2.106,-0.628 -0.184,1.195 0.552,2.329 3.355,2.489 2.818,0.161 3.615,0.161 6.495,-0.536 3.309,-0.8 6.173,-0.823 9.804,-2.405 4.81,-2.095 8.379,-4.817 7.284,-7.031 -1.087,-2.202 -4.205,-2.78 -7.828,-3.385 -3.724,-0.628 -13.665,-0.173 -20.528,2.665 -6.87,2.841 -15.915,4.228 -22.157,10.7 z m 98.318,7.927 c -0.475,3.615 -4.603,7.23 -12.584,8.486 -5.239,0.835 -9.734,1.524 -13.855,4.297 -6.778,4.564 3.063,8.363 -1.517,12.592 -2.788,2.573 -9.673,2.91 -16.222,2.849 -6.25,-0.046 -12.806,-2.458 -16.337,-3.508 -5.775,-1.73 -8.471,-3.278 -11.588,-4.848 -3.125,-1.578 -6.242,-2.995 -8.739,-5.522 -2.489,-2.527 -3.746,-4.259 -4.994,-8.363 -1.248,-4.098 -2.366,-6.273 -1.585,-9.935 2.061,-9.639 5.967,-10.37 10.256,-11.496 2.267,-0.605 10.432,0.563 2.588,1.976 -5.913,1.842 -6.548,5.848 -5.943,10.271 0.398,2.949 1.379,4.358 4.657,6.886 0,0 16.214,12.53 33.554,7.628 4.159,-1.18 8.67,-1.808 12.576,-3.891 15.602,-8.379 6.801,-22.541 6.664,-22.793 -7.016,-12.461 -3.875,-2.447 -3.875,-2.447 0.659,2.363 0.834,7.686 -4.833,14.908 -2.321,2.964 -10.018,5.967 -12.852,6.778 -3.76,1.08 -5.928,0.995 -7.781,0.919 -2.826,-0.122 -2.451,-0.122 -5.959,-0.689 -18.052,-2.956 -0.705,-1.577 1.616,-1.547 3.316,0.038 6.066,-0.207 8.815,-1.148 1.724,-0.582 3.447,-0.935 5.53,-2.972 2.16,-2.114 0.513,-4.109 1.685,-6.844 0.705,-1.681 4.642,-2.941 5.224,-7.647 0.383,-3.129 -2.068,-6.284 -5.185,-7.686 -3.562,-1.593 -4.764,-1.842 -7.016,-2.7 -3.439,-1.302 -7.337,-3.883 -13.955,-5.097 -17.057,-3.136 -22.211,-1.827 -22.211,-1.827 -4.473,0.448 -9.727,1.639 -15.104,4.688 -7.092,4.032 -8.042,2.983 -3.615,-3.048 0,0 2.926,-4.205 8.846,-8.644 0,0 14.782,-13.036 41.864,-0.589 6.434,2.96 13.825,6.897 17.715,11.083 3.875,4.167 4.396,3.592 2.55,-0.165 -1.463,-2.964 -4.664,-5.522 -6.625,-7.276 -1.448,-1.294 -4.358,-4.086 -8.532,-6.135 -3.271,-1.601 -13.066,-5.373 -3.025,-4.595 4.925,0.383 13.519,4.978 19.638,8.501 4.259,2.455 7.208,5.875 11.221,9.317 4.258,3.665 6.334,5.17 10.615,10.941 3.601,4.855 9.376,11.396 8.318,19.292 z m -127.308,30.169 c -11.182,-8.302 -12.384,-16.604 -13.127,-24.892 -0.75,-8.295 -2.757,-13.196 0,-19.393 2.742,-6.166 5.576,-10.19 6.089,-16.628 1.822,-22.793 22.831,-28.024 22.831,-28.024 5.178,-0.609 10.271,-6.054 14.966,-8.892 0.33,-0.203 0.644,-0.383 0.95,-0.555 l -16.03,0 c -0.881,0.437 -1.861,0.869 -2.979,1.26 -9.696,3.397 -18.52,14.039 -20.342,26.355 -1.386,9.325 -6.579,16.444 -8.532,20.013 -7.919,14.472 -0.306,19.401 -0.911,30.79 -1.034,19.217 16.903,22.602 27.159,30.697 4.473,3.546 8.563,8.739 12.163,13.013 l 6.25,0 c -0.945,-1.004 -8.65,-9.038 -28.487,-23.744 z m 29.173,12.713 c 0,0 4.305,3.868 17.93,6.449 3.094,0.59 6.503,2.665 9.352,4.58 l 10.087,0 c -1.854,-1.646 -4.565,-3.546 -8.54,-5.346 -10.148,-4.625 -12.431,-0.26 -28.829,-5.683 z m -40.769,-11.044 c -5.147,-3.937 -13.886,-8.356 -17.11,-12.698 -0.712,-0.966 -1.333,-1.899 -1.884,-2.804 l 0,10.041 c 0.168,0.13 0.314,0.269 0.49,0.391 5.078,3.876 17.646,9.819 22.188,12.99 6.725,4.694 10.554,9.803 13.127,14.153 l 13.557,0 c -4.886,-4.289 -10.937,-9.696 -13.495,-10.853 -4.212,-1.89 -11.726,-7.283 -16.873,-11.22 z"
       id="path6431"
       style="fill:#8c1143" />
  </g>
</svg>
