<?xml version="1.0" encoding="UTF-8" standalone="no"?>
<!-- Generator: Adobe Illustrator 17.1.0, SVG Export Plug-In . SVG Version: 6.00 Build 0)  -->

<svg
   xmlns="http://www.w3.org/2000/svg"
   version="1.1"
   id="svg2934"
   viewBox="258.6 109.5 56 22"
   width="100%"
   height="100%">
  <g
   id="layer1"
   transform="translate(-5.8219978,-434.4509)">
	<path
     id="path2885"
     d="m 292.62717,555.17993 v -5.5602 l 3.0254,0 v 2.12596 2.12596 h 3.18894 3.18894 v -2.12596 -2.12596 c 0.98121,0 1.96242,0 2.94363,0 0.0818,0 0.0818,0.40884 0.0818,5.5602 v 5.64196 h -1.55358 -1.55359 v -2.45303 -2.45302 h -3.18894 -3.18893 v 2.45302 2.45303 h -1.39005 -1.55359 l 0,-5.64196 0,0 0,0 0,0 0,0 z m 14.79994,2.12596 v -3.59778 h 1.47182 1.47182 v 2.5348 2.53479 l 2.28949,0 c 4.08838,0 4.17015,-0.0818 4.17015,-3.516 0,-2.61657 -0.2453,-3.18894 -1.55359,-3.43425 -0.40884,-0.0818 -1.22651,-0.0818 -4.17015,-0.0818 l -3.67954,0 v -1.06298 -1.06298 l 4.49722,0 c 4.90606,0 4.98783,-0.0818 6.0508,0.40884 0.98122,0.4906 1.63536,1.39005 1.88066,2.69833 0.16354,0.81768 0.2453,3.18894 0.0818,4.25192 -0.24531,2.28949 -0.89945,3.2707 -2.7801,3.84307 -0.49061,0.16354 -0.89945,0.0818 -5.15136,0.16354 l -4.49722,0 v -3.67954 l -0.0818,0 0,0 0,0 z"
     style="fill:#ed1c24" />
    <path
     style="fill:#ed1c24"
     d="m 264.54714,550.1022 h 21.75153 v -6.1513 h -21.75153 v 6.1513 l 0,0 z"
     id="path2836" />
    <path
     id="path2840"
     d="m 286.23814,551.17222 v 14.77867 H 264.422 c 0,0 2.81499,-7.38933 9.85245,-11.61181 6.68559,-3.87061 11.96369,-3.16686 11.96369,-3.16686"
     style="fill:#ed1c24" />
  </g>
</svg>