<?xml version="1.0" encoding="UTF-8" standalone="no"?>
<!-- Created with Inkscape (http://www.inkscape.org/) -->

<svg
   xmlns="http://www.w3.org/2000/svg"
   version="1.1"
   width="100%"
   height="100%"
   viewBox="0 0 119 22"
   id="svg2">
  <path
     d="m 0,2.1999996 0,4.738461 17.374359,0 0,-4.738461 -17.374359,0 z m 20.082051,0 0,1.579487 L 30.235898,19.8 l 10.379488,0 -11.507694,-17.6000004 -9.025641,0 z m 14.215386,0 -2.03077,3.610256 L 41.517949,19.8 l 0.676921,0 0,-17.6000004 -7.897433,0 z m 11.282049,0 L 57.08718,19.8 l 9.702563,0 -11.056413,-17.6000004 -10.153844,0 z m 14.666669,0 L 71.528204,19.8 82.13333,19.8 70.851282,2.1999996 l -10.605127,0 z m 13.989743,0 -1.353849,2.030769 4.061539,6.5435904 6.317951,-8.5743594 -9.025641,0 z m 11.958971,0 L 80.553845,9.871795 86.871796,19.8 97.476922,19.8 86.194869,2.1999996 z m 3.384617,0 -1.353845,2.030769 4.061539,6.5435904 6.317951,-8.5743594 -9.025645,0 z m -44.225641,0.902564 0,16.6903854 6.317951,0.007 2.482049,-3.384615 -8.8,-13.3128204 z m -25.271794,1.805128 0,14.8923084 9.251282,0 L 20.082051,4.9076916 z M 16.175641,8.024359 C 8.1331571,8.101543 1.5054487,15.283654 0,19.8 l 17.374359,0 0,-11.733333 c -0.401923,-0.03173 -0.803186,-0.0461 -1.198718,-0.04231 z m 50.388461,5.00641 -1.805126,2.482051 2.707694,4.28718 3.384612,0 -4.28718,-6.769231 z m 15.343592,0 -1.805131,2.482051 2.707694,4.28718 3.384612,0 -4.287175,-6.769231 z"
     id="rect2892"
     style="fill:#000000" />
  <path
     d="m 100.29744,2.1999996 0,9.2512824 2.03076,0 0,-3.610256 3.72308,0 0,3.610256 2.03077,0 0,-9.2512824 -2.03077,0 0,3.610256 -3.72308,0 0,-3.610256 -2.03076,0 z"
     id="rect3051"
     style="fill:#000000" />
  <path
     d="m 110.23963,2.1999996 0,2.030769 3.73729,0 c 1.43756,0 2.59488,1.157313 2.59488,2.594872 0,1.4375594 -1.15732,2.5948724 -2.59488,2.5948724 l -1.70641,0 0,-3.3000004 -2.03077,0 0,5.3307694 3.73718,0 c 2.56261,0 4.62564,-2.063036 4.62564,-4.6256414 0,-2.562605 -2.06303,-4.625641 -4.62564,-4.625641 z"
     id="rect3058"
     style="fill:#000000" />
</svg>
