<?xml version="1.0" encoding="UTF-8" standalone="no"?>
<!-- Created with Inkscape (http://www.inkscape.org/) -->

<svg
   xmlns="http://www.w3.org/2000/svg"
   version="1.1"
   width="100%"
   height="100%"
   viewBox="0 0 77 22"
   id="svg6331">
  <g
     transform="matrix(0.13531567,0,0,0.13531567,-103.1827,-35.648106)"
     id="g6378">
    <path
       d="m 1329.4624,390.17192 c 0,10.77582 -8.815,19.59663 -19.5908,19.59663 l -113.2683,0 c -10.7758,0 -19.5908,-8.82081 -19.5908,-19.59663 l 0,-90.87879 c 0,-10.77582 8.815,-19.59082 19.5908,-19.59082 l 113.2683,0 c 10.7758,0 19.5908,8.815 19.5908,19.59082 l 0,90.87879 z"
       id="path1093"
       style="fill:#ed008c" />
    <path
       d="m 1293.8766,336.39174 -65.4753,0 c -2.9733,0 -4.5152,-1.53608 -4.5152,-4.50932 l 0,-20.67305 c 0,-2.97906 -2.4321,-5.41119 -5.4053,-5.41119 l -5.8825,0 c -2.9791,0 -5.4054,2.43213 -5.4054,5.41119 l 0,36.44112 c 0,2.96742 2.4263,5.42864 5.4054,5.42864 l 65.4753,0 c 2.9733,0 4.521,1.53026 4.521,4.5035 l 0,20.67887 c 0,2.97906 2.4263,5.41118 5.3995,5.41118 l 5.8825,0 c 2.9791,0 5.4054,-2.43212 5.4054,-5.41118 l 0,-36.44112 c 0,-2.97325 -2.4263,-5.42864 -5.4054,-5.42864"
       id="path1095"
       style="fill:#ffffff" />
    <path
       d="m 767.91536,305.80982 c -2.97907,5e-5 -5.3821,2.40885 -5.3821,5.38209 l 0,67.05795 c -9e-5,2.97892 2.40303,5.38209 5.3821,5.38209 l 5.81847,0 c 2.9732,10e-5 5.38209,-2.40303 5.38209,-5.38209 l 0,-20.65559 55.56646,0 c 21.10366,4e-5 31.56524,-8.57644 31.56524,-21.67383 l 0,-8.58225 c 0,-12.94034 -10.46162,-21.52837 -31.56524,-21.52837 l -66.76702,0 z m 112.15114,0 c -2.96737,5e-5 -5.38209,2.40885 -5.38209,5.38209 l 0,50.76622 c 5e-5,13.31276 10.46162,21.67382 31.56524,21.67382 l 29.96516,0 c 21.09793,0 31.7107,-8.3786 31.7107,-21.67382 l 0,-50.76622 c -10e-5,-2.97338 -2.56013,-5.38209 -5.52756,-5.38209 l -5.81847,0 c -2.97906,5e-5 -5.3821,2.40885 -5.3821,5.38209 l 0,47.56605 c 0,6.87167 -7.18581,8.14587 -14.98257,8.14587 l -29.8197,0 c -7.80253,-4e-5 -15.12804,-1.27424 -15.12804,-8.14587 l 0,-47.56605 c 9e-5,-2.97338 -2.40303,-5.38209 -5.38209,-5.38209 l -5.81848,0 z m 106.91452,0 c -2.97906,0 -5.38214,2.40289 -5.38209,5.38209 l 0,50.91168 c 0,13.28358 10.60713,21.52846 31.71067,21.52836 l 106.6236,0 c 21.1036,0 31.7107,-8.5533 31.7107,-21.52836 l 0,-4.2184 c 0,-12.96938 -10.6071,-21.52827 -31.7107,-21.52836 l -32.7289,0 c -8.8092,0 -12.5097,-2.03652 -12.5097,-6.98218 0,-4.93988 3.7005,-6.8368 12.5097,-6.83671 l 56.1483,0 c 2.9791,0 5.3822,-2.55435 5.3821,-5.52755 l 0,-5.81848 c 0,-2.97324 -2.4032,-5.38209 -5.3821,-5.38209 l -53.8209,0 c -21.0978,0 -31.5654,8.55898 -31.5653,21.52837 l 0,4.21839 c 0,12.96939 10.4674,21.52837 31.5653,21.52837 l 32.8744,0 c 8.8033,0 12.5097,2.04233 12.5097,6.98217 0,4.94571 -3.7063,6.98222 -12.5097,6.98217 l -109.0965,-0.14546 c -7.7909,0 -14.98255,-1.27434 -14.98255,-8.14587 l 0,-47.56605 c 0,-2.97906 -2.40312,-5.38204 -5.38209,-5.38209 l -5.96394,0 z m -207.8651,16.58266 55.421,0 c 8.70439,-9e-5 14.98258,0.80877 14.98258,8.29133 l 0,2.03647 c 9e-5,7.4301 -6.38287,8.29133 -14.98258,8.29133 l -55.421,0 c 1e-4,-5.95822 0.006,-12.79483 0,-18.61913 z"
       id="path1099"
       style="fill:#000000" />
  </g>
</svg>
