<?xml version="1.0" encoding="UTF-8" standalone="no"?>
<!-- Created with Inkscape (http://www.inkscape.org/) -->

<svg
   xmlns="http://www.w3.org/2000/svg"
   xmlns:xlink="http://www.w3.org/1999/xlink"
   version="1.1"
   width="100%"
   height="100%"
   viewBox="0 0 23 22"
   id="svg18570">
  <defs
     id="defs18572">
    <clipPath
       id="clipPath3527">
      <path
         d="m 50.031,433.29 c 0,0 -2.037,1.858 -1.806,3.677 0.232,1.818 1.444,2.579 2.348,2.513 0.904,-0.066 1.498,-0.349 2.479,-1.716 0,0 -0.8,-0.047 -1.467,-0.222 -0.397,-0.104 -0.775,-0.246 -1.045,-0.363 -0.168,-0.072 -0.343,-0.157 -0.451,-0.216 0,0 -0.027,-0.011 -0.056,-0.049 -0.027,-0.035 -0.055,-0.096 -0.066,-0.121 -0.021,-0.044 -0.043,-0.101 -0.066,-0.162 -0.07,-0.187 -0.141,-0.42 -0.162,-0.496 0,0 -0.022,-0.058 0.034,-0.069 0.062,-0.013 0.08,0.024 0.088,0.039 0,0 0.062,0.11 0.148,0.237 0.023,0.032 0.152,0.219 0.307,0.371 0.056,0.056 0.115,0.109 0.171,0.154 0.098,0.077 0.185,0.131 0.217,0.147 0,0 0.816,0.46 1.65,0.508 0.006,0 0.062,0.003 0.082,-0.02 0.018,-0.02 10e-4,-0.067 0,-0.071 -0.013,-0.055 -0.048,-0.118 -0.076,-0.169 0,0 -0.054,-0.099 -0.153,-0.283 -0.086,-0.162 -0.548,-1.003 -1.038,-1.833 -0.531,-0.899 -1.091,-1.789 -1.138,-1.856 z m 0.539,-1.168 0.23,0.43 2.305,-2.171 0.729,0.682 c 0,0 0.015,-0.022 0.116,-0.158 0.103,-0.138 0.114,-0.151 0.114,-0.151 0,0 -0.864,-0.734 -0.96,-0.804 -0.09,0.067 -0.82,0.687 -1.463,1.241 -0.573,0.494 -1.071,0.931 -1.071,0.931 z m 4.121,-0.253 c -0.578,0.826 -1.143,1.672 -1.626,2.558 -0.022,0.055 0.008,0.084 0.061,0.092 0.073,0.012 0.146,0.018 0.219,0.029 0.137,0.02 0.273,0.046 0.407,0.077 0.272,0.063 0.536,0.151 0.791,0.263 0.493,0.218 0.965,0.536 1.271,0.988 0.153,0.226 0.26,0.489 0.254,0.765 -0.007,0.256 -0.098,0.5 -0.289,0.674 -0.193,0.176 -0.45,0.262 -0.699,0.324 -0.259,0.065 -0.525,0.1 -0.791,0.121 -0.374,0.029 -0.75,0.03 -1.123,0.011 0.255,0.409 0.574,0.79 0.944,1.101 0.393,0.332 0.868,0.591 1.389,0.632 0.503,0.039 1.007,-0.116 1.407,-0.422 0.403,-0.308 0.694,-0.746 0.877,-1.215 0.196,-0.504 0.293,-1.079 0.209,-1.617 -0.085,-0.54 -0.33,-1.046 -0.62,-1.505 -0.14,-0.221 -0.294,-0.434 -0.457,-0.639 -0.13,-0.165 -0.27,-0.321 -0.405,-0.483 -0.126,-0.15 -0.275,-0.282 -0.416,-0.418 -0.19,-0.184 -0.381,-0.366 -0.572,-0.548 -0.276,-0.263 -0.554,-0.526 -0.831,-0.788 m -6.056,-0.815 c 0.052,0.007 0.255,0.083 0.493,0.148 0.296,0.08 0.63,0.152 0.632,0.152 0.225,0.496 0.486,0.975 0.745,1.453 0.273,0.504 0.553,1.004 0.839,1.501 0.282,0.492 0.569,0.981 0.86,1.467 0.279,0.465 0.563,0.93 0.877,1.373 0.073,0.103 0.147,0.218 0.241,0.305 0.088,0.082 0.198,0.114 0.315,0.131 0.003,0 0.19,0.022 0.425,-10e-4 0.05,-0.005 0.165,-0.016 0.304,-0.054 0.112,-0.03 0.241,-0.079 0.354,-0.141 0.102,-0.058 0.192,-0.129 0.261,-0.206 0.07,-0.079 0.118,-0.164 0.143,-0.217 0.129,-0.277 0.081,-0.61 0.079,-0.632 -0.004,-0.035 -0.043,-0.402 -0.251,-0.715 -0.198,-0.297 -0.562,-0.539 -0.731,-0.625 -0.396,-0.201 -0.875,-0.288 -1.07,-0.32 -0.355,-0.057 -0.683,-0.061 -0.741,-0.063 -0.057,-0.001 -0.113,-0.002 -0.169,-0.002 -0.013,0 -0.029,-0.004 -0.039,-0.016 -0.005,-0.005 -0.018,-0.029 -0.017,-0.05 10e-4,-0.023 0.017,-0.043 0.019,-0.045 0.244,-0.408 0.476,-0.823 0.72,-1.23 l 0.42,-0.703 c 0.283,-0.474 0.578,-0.938 0.909,-1.381 0.33,-0.442 0.688,-0.865 1.119,-1.211 0.436,-0.349 0.937,-0.602 1.477,-0.743 0.269,-0.069 0.546,-0.111 0.823,-0.134 0.277,-0.024 0.558,-0.033 0.836,-0.018 0.618,0.035 1.214,0.229 1.762,0.511 0.013,0.007 0.083,0.037 0.116,0.075 0.022,0.025 0.017,0.062 0.011,0.071 -0.021,0.032 -0.059,0.026 -0.076,0.024 -0.008,-10e-4 -0.04,-0.015 -0.047,-0.018 -0.493,-0.257 -1.037,-0.418 -1.594,-0.436 -0.57,-0.018 -1.12,0.123 -1.631,0.369 -0.849,0.408 -1.549,1.088 -2.105,1.839 0.747,0.648 1.515,1.282 2.152,2.041 0.342,0.407 0.657,0.84 0.92,1.302 0.271,0.475 0.495,0.993 0.575,1.538 0.079,0.544 -0.002,1.12 -0.175,1.639 -0.169,0.506 -0.445,0.983 -0.839,1.346 -0.378,0.349 -0.854,0.571 -1.363,0.641 -0.527,0.073 -1.075,0.002 -1.573,-0.184 -0.601,-0.224 -1.117,-0.616 -1.554,-1.081 -0.68,0.794 -1.666,1.303 -2.721,1.292 -0.519,-0.006 -1.03,-0.151 -1.458,-0.449 -0.436,-0.303 -0.762,-0.74 -0.978,-1.222 -0.228,-0.509 -0.345,-1.074 -0.338,-1.632 0.008,-0.548 0.192,-1.082 0.433,-1.568 0.238,-0.479 0.538,-0.926 0.867,-1.347 0.266,-0.339 0.552,-0.667 0.862,-0.967 -0.04,-0.062 -0.257,-0.397 -0.498,-0.757 -0.146,-0.218 -0.294,-0.436 -0.442,-0.653 -0.054,-0.079 -0.107,-0.158 -0.161,-0.236 -0.018,-0.026 -0.035,-0.052 -0.054,-0.077 -0.013,-0.018 -0.033,-0.039 -0.02,-0.062 0.011,-0.018 0.037,-0.024 0.056,-0.022"
         id="path3529" />
    </clipPath>
    <radialGradient
       cx="0"
       cy="0"
       r="1"
       fx="0"
       fy="0"
       id="radialGradient3541"
       gradientUnits="userSpaceOnUse"
       gradientTransform="matrix(5.9645,0,0,-5.9645,53.997,434.558)"
       spreadMethod="pad">
      <stop
         id="stop3543"
         style="stop-color:#f6f6f6;stop-opacity:1"
         offset="0" />
      <stop
         id="stop3545"
         style="stop-color:#4f4c4c;stop-opacity:1"
         offset="0.162921" />
      <stop
         id="stop3547"
         style="stop-color:#f6f6f6;stop-opacity:1"
         offset="0.36516899" />
      <stop
         id="stop3549"
         style="stop-color:#464344;stop-opacity:1"
         offset="0.623595" />
      <stop
         id="stop3551"
         style="stop-color:#f6f6f6;stop-opacity:1"
         offset="0.82584298" />
      <stop
         id="stop3553"
         style="stop-color:#9c9b9b;stop-opacity:1"
         offset="1" />
    </radialGradient>
    <radialGradient
       cx="0"
       cy="0"
       r="1"
       fx="0"
       fy="0"
       id="radialGradient3507"
       gradientUnits="userSpaceOnUse"
       gradientTransform="matrix(5.6188,0,0,-5.6188,54.298,434.406)"
       spreadMethod="pad">
      <stop
         id="stop3509"
         style="stop-color:#f6f6f6;stop-opacity:1"
         offset="0" />
      <stop
         id="stop3511"
         style="stop-color:#5e5b5c;stop-opacity:1"
         offset="0.162921" />
      <stop
         id="stop3513"
         style="stop-color:#d5d5d5;stop-opacity:1"
         offset="0.36516899" />
      <stop
         id="stop3515"
         style="stop-color:#231f20;stop-opacity:1"
         offset="0.623595" />
      <stop
         id="stop3517"
         style="stop-color:#f6f6f6;stop-opacity:1"
         offset="0.82584298" />
      <stop
         id="stop3519"
         style="stop-color:#868384;stop-opacity:1"
         offset="1" />
    </radialGradient>
    <radialGradient
       cx="0"
       cy="0"
       r="1"
       fx="0"
       fy="0"
       id="radialGradient3182"
       xlink:href="#radialGradient3541"
       gradientUnits="userSpaceOnUse"
       gradientTransform="matrix(5.9645,0,0,-5.9645,53.997,434.558)"
       spreadMethod="pad" />
    <radialGradient
       cx="0"
       cy="0"
       r="1"
       fx="0"
       fy="0"
       id="radialGradient3215"
       xlink:href="#radialGradient3507"
       gradientUnits="userSpaceOnUse"
       gradientTransform="matrix(10.066591,0,0,10.066591,12.014408,10.105403)"
       spreadMethod="pad" />
  </defs>
  <g
     transform="matrix(0.44001602,0,0,0.44001602,-2.6516938,-435.55625)"
     id="g3242"
     style="fill:#918f90" >
    <path
       d="m 10.484816,1037.8468 0,-1.1685 c 0,-0.1668 0.04072,-0.2525 0.138434,-0.2932 0.06091,-0.026 0.2443,-0.053 0.403095,-0.057 l 0.04072,0 c 0.460096,0 0.789899,0.2808 0.789899,0.68 0,0.5008 -0.545601,0.8346 -1.372145,0.8387 z m 2.398201,1.6409 -0.05277,-0.016 c -0.109771,-0.041 -0.130293,-0.069 -0.337948,-0.5212 -0.1671,-0.3583 -0.276871,-0.5415 -0.504884,-0.8673 l -0.101628,-0.1466 c 0.513027,-0.2198 0.769542,-0.5456 0.769542,-0.9731 0,-0.5782 -0.492669,-0.9609 -1.221495,-0.9609 l -1.8322418,0 c -0.1182416,0 -0.1833882,0.057 -0.1833882,0.1466 0,0.081 0.040717,0.1261 0.1345282,0.1586 0.1302932,0.041 0.1667748,0.1101 0.1667748,0.2769 l 0,2.614 c 0,0.171 -0.036808,0.2362 -0.1667748,0.2808 -0.093812,0.029 -0.1345282,0.073 -0.1345282,0.1547 0,0.09 0.065147,0.1466 0.1833882,0.1466 l 1.0138408,0 c 0.117915,0 0.183061,-0.057 0.183061,-0.1466 0,-0.081 -0.04072,-0.1261 -0.134201,-0.1547 -0.130293,-0.045 -0.175245,-0.1098 -0.175245,-0.2808 l 0,-0.9731 c 0.321823,-0.029 0.456025,-0.045 0.541529,-0.053 0.04072,0 0.09381,-0.016 0.166775,-0.037 0.109772,0.171 0.158632,0.2443 0.211727,0.3542 l 0.260584,0.4764 c 0.09381,0.1752 0.134529,0.3013 0.134529,0.3664 0,0.069 -0.04072,0.1098 -0.14658,0.1466 -0.09381,0.029 -0.134202,0.082 -0.134202,0.1547 0,0.09 0.06515,0.1466 0.183062,0.1466 l 1.115632,0 c 0.114007,0 0.171008,-0.053 0.171008,-0.1466 0,-0.069 -0.03648,-0.1221 -0.109771,-0.1465"
       id="path3463" />
    <path
       d="m 15.273074,1039.4958 c -0.651464,0 -1.172635,-0.7125 -1.172635,-1.6042 0,-0.8876 0.521171,-1.6002 1.172635,-1.6002 0.643321,0 1.168563,0.7126 1.168563,1.6002 0,0.8917 -0.525242,1.6042 -1.168563,1.6042 z m -0.0041,-3.5627 c -0.598532,0 -1.046414,0.1669 -1.425077,0.5415 -0.350162,0.3543 -0.570031,0.8999 -0.570031,1.417 0,0.5293 0.219869,1.0708 0.570031,1.421 0.378663,0.3705 0.826545,0.5415 1.425077,0.5415 0.590389,0 1.062701,-0.1751 1.412863,-0.5415 0.362376,-0.3705 0.578174,-0.8917 0.578174,-1.421 0,-0.5171 -0.223941,-1.0546 -0.578174,-1.417 -0.362377,-0.3664 -0.822474,-0.5415 -1.412863,-0.5415"
       id="path3467" />
    <path
       d="m 20.049119,1038.9217 c 0.109935,-0.2484 0.256514,-0.5904 0.366448,-0.8388 0.256514,-0.5985 0.521172,-1.197 0.521172,-1.197 l 0.07736,2.3086 0,0.016 c 0,0.1506 -0.04886,0.2199 -0.175081,0.2687 -0.09365,0.024 -0.134364,0.073 -0.134364,0.1507 0,0.09 0.06922,0.1465 0.183224,0.1465 l 1.001625,0 c 0.114007,0 0.183225,-0.057 0.183225,-0.1465 0,-0.077 -0.04479,-0.1263 -0.138436,-0.1507 -0.130293,-0.049 -0.154723,-0.1018 -0.162866,-0.285 l -0.09772,-2.614 0,-0.016 c 0,-0.1506 0.04072,-0.2199 0.171009,-0.2606 0.08958,-0.033 0.138436,-0.077 0.138436,-0.1506 0,-0.094 -0.06922,-0.1507 -0.183224,-0.1507 l -0.696252,0 c -0.162866,0 -0.236155,0.024 -0.2728,0.1018 l -0.057,0.1425 -0.895763,2.1051 -0.907978,-2.1621 c -0.057,-0.1303 -0.118078,-0.1873 -0.232084,-0.1873 l -0.830617,0 c -0.109934,0 -0.183224,0.057 -0.183224,0.1466 0,0.077 0.04072,0.1222 0.142508,0.1547 0.126221,0.041 0.162866,0.11 0.162866,0.2688 l 0,0.01 -0.08143,2.614 c -0.0041,0.1832 -0.04072,0.2362 -0.166938,0.285 -0.09772,0.024 -0.134364,0.073 -0.134364,0.1507 0,0.09 0.06515,0.1465 0.175081,0.1465 l 0.663679,0 c 0.101791,0 0.175081,-0.057 0.175081,-0.1465 0,-0.073 -0.04072,-0.1263 -0.142508,-0.1507 -0.12215,-0.049 -0.158794,-0.1099 -0.158794,-0.2687 l 0,-0.016 0.06515,-2.3208 c 0,0 0.232084,0.5171 0.476383,1.0708 0.248371,0.57 0.513028,1.1808 0.602604,1.2866 0.06107,0.073 0.130293,0.1059 0.19544,0.1059 0.162865,0 0.236155,-0.1588 0.350161,-0.4153"
       id="path3471" />
    <path
       d="m 23.685102,1038.1114 c 0.114006,-0.2972 0.158794,-0.4153 0.268729,-0.684 0.130293,-0.3095 0.187296,-0.4316 0.350162,-0.7655 0.171009,0.3176 0.203582,0.3909 0.354233,0.7573 0.142508,0.3583 0.166938,0.4153 0.264657,0.6922 l -1.237781,0 z m 2.703575,1.3762 -0.04072,-0.01 c -0.07736,-0.033 -0.12215,-0.073 -0.162866,-0.1466 -0.04886,-0.094 -0.07329,-0.1629 -0.272801,-0.7003 -0.268729,-0.7166 -0.529314,-1.36 -0.781756,-1.8811 -0.114007,-0.2443 -0.223941,-0.4357 -0.333876,-0.5945 -0.06922,-0.098 -0.126221,-0.1669 -0.154722,-0.1832 -0.02443,-0.02 -0.08143,-0.024 -0.158795,-0.024 -0.162866,0 -0.207654,0.016 -0.268729,0.098 -0.04072,0.049 -0.07736,0.1058 -0.122149,0.1751 -0.29723,0.5333 -0.423452,0.8021 -0.700324,1.482 -0.146579,0.3828 -0.280944,0.7207 -0.399021,1.022 l -0.17101,0.4683 c -0.06922,0.1832 -0.118077,0.2443 -0.215797,0.285 l -0.04886,0.01 c -0.057,0.024 -0.09365,0.082 -0.09365,0.1425 0,0.09 0.07329,0.1466 0.179153,0.1466 l 0.818401,0 c 0.114006,0 0.187296,-0.057 0.187296,-0.1466 0,-0.073 -0.04479,-0.1262 -0.142508,-0.1506 -0.130292,-0.049 -0.171008,-0.1059 -0.171008,-0.2525 0,-0.081 0.04479,-0.2606 0.118077,-0.4641 l 0.08551,-0.2362 1.53094,0 c 0.04479,0.1262 0.07736,0.2199 0.101791,0.281 0.08958,0.232 0.126221,0.3827 0.126221,0.46 0,0.098 -0.05293,0.1711 -0.162866,0.2118 -0.09772,0.033 -0.134364,0.073 -0.134364,0.1506 0,0.09 0.06922,0.1466 0.183224,0.1466 l 1.119703,0 c 0.109935,0 0.179153,-0.057 0.179153,-0.1466 0,-0.061 -0.03665,-0.1181 -0.09365,-0.1425"
       id="path3475" />
    <path
       d="m 30.391108,1036.0023 -0.69218,0 c -0.114007,0 -0.183225,0.057 -0.183225,0.1466 0,0.077 0.04479,0.1262 0.138436,0.1588 0.130293,0.041 0.166938,0.1018 0.166938,0.2768 l 0.02036,1.93 c -0.541529,-0.798 -0.773613,-1.1156 -1.205208,-1.6368 -0.386807,-0.456 -0.590389,-0.7085 -0.610747,-0.7329 -0.08958,-0.1181 -0.138436,-0.1425 -0.236156,-0.1425 l -0.708467,0 c -0.114006,0 -0.183224,0.057 -0.183224,0.1466 0,0.077 0.04479,0.1262 0.138436,0.1588 0.130293,0.041 0.166938,0.1099 0.166938,0.2768 l 0,2.6222 c 0,0.1629 -0.03665,0.2239 -0.166938,0.2728 -0.09365,0.029 -0.138436,0.073 -0.138436,0.1506 0,0.09 0.06922,0.1466 0.183224,0.1466 l 0.655536,0 c 0.114006,0 0.187296,-0.057 0.187296,-0.1466 0,-0.077 -0.04479,-0.1221 -0.138437,-0.1506 -0.126221,-0.049 -0.166937,-0.1099 -0.166937,-0.2728 l 0,-2.3656 c 0.578174,0.6636 0.773613,0.9202 1.266283,1.6001 0.264657,0.3705 0.476383,0.6759 0.627034,0.9243 0.236155,0.3827 0.325732,0.4723 0.460096,0.4723 0.09365,0 0.158794,-0.029 0.203583,-0.069 0.07329,-0.077 0.08958,-0.1873 0.08958,-0.5701 l 0,-2.614 c 0,-0.175 0.04072,-0.2361 0.175081,-0.2768 0.09365,-0.033 0.134364,-0.082 0.134364,-0.1547 0,-0.094 -0.06922,-0.1507 -0.183224,-0.1507"
       id="path3479" />
    <path
       d="m 34.206243,1038.8036 c -0.057,0 -0.09772,0.016 -0.142508,0.061 l -0.134364,0.1547 c -0.236156,0.2565 -0.614819,0.4112 -0.973124,0.4112 -0.769542,0 -1.270355,-0.5904 -1.270355,-1.5146 0,-0.9446 0.504885,-1.6205 1.217423,-1.6205 0.272801,0 0.549673,0.1099 0.728825,0.2768 0.08143,0.085 0.134365,0.1588 0.232084,0.3421 0.105863,0.1832 0.191368,0.2483 0.301303,0.2483 0.09365,0 0.154722,-0.077 0.154722,-0.1832 0,-0.1018 -0.02443,-0.3135 -0.04479,-0.4397 -0.0041,-0.057 -0.03665,-0.1263 -0.07736,-0.1873 -0.17101,-0.2321 -0.745112,-0.4235 -1.278498,-0.4235 -1.148205,0 -2.056183,0.8754 -2.056183,1.9829 0,1.1116 0.855046,1.9381 2.003251,1.9381 0.513028,0 0.997554,-0.1832 1.323286,-0.4927 0.130293,-0.1302 0.215798,-0.2646 0.215798,-0.3583 0,-0.118 -0.07736,-0.1954 -0.199511,-0.1954"
       id="path3483" />
    <path
       d="m 37.931802,1038.9705 c -0.04886,0 -0.122149,0.041 -0.195439,0.1059 l -0.08958,0.073 c -0.138437,0.118 -0.268729,0.1913 -0.399022,0.2157 -0.191368,0.045 -0.411237,0.065 -0.684037,0.065 -0.317589,0 -0.476383,-0.024 -0.533386,-0.09 -0.03257,-0.028 -0.06515,-0.1303 -0.06922,-0.1954 l 0,-1.2215 0.0855,0 0.407165,-0.01 0.04072,0 c 0.236155,0 0.415308,0.024 0.472311,0.041 0.0041,0 0.03665,0.012 0.08958,0.033 l 0.07736,0.045 0.0855,0.041 c 0.04479,0.02 0.109935,0.041 0.150651,0.041 0.101792,0 0.130293,-0.061 0.130293,-0.3095 0,-0.098 -0.0041,-0.2321 -0.01629,-0.285 -0.0041,-0.028 -0.0081,-0.053 -0.02036,-0.073 -0.02036,-0.049 -0.05293,-0.069 -0.09772,-0.069 -0.05293,0 -0.105863,0.02 -0.199511,0.077 -0.04072,0.02 -0.07329,0.037 -0.08143,0.041 -0.04072,0.029 -0.06922,0.041 -0.101791,0.045 -0.08958,0.024 -0.162866,0.033 -0.390879,0.033 l -0.134364,0 c -0.126221,-0.01 -0.260586,-0.01 -0.407165,-0.01 l -0.0855,0 0,-0.9894 c 0,-0.2036 0.08958,-0.2443 0.500813,-0.2443 0.162866,0 0.333875,0.01 0.594461,0.037 0.057,0 0.105863,0.01 0.126221,0.016 0.06922,0.012 0.158795,0.053 0.203583,0.094 0.0081,0 0.04479,0.029 0.09365,0.081 0.118077,0.1058 0.19951,0.1588 0.264657,0.1588 0.08143,0 0.134364,-0.069 0.134364,-0.1629 0,-0.041 -0.0041,-0.1099 -0.0081,-0.2036 -0.01222,-0.1099 -0.0285,-0.1873 -0.05293,-0.2361 -0.01221,-0.033 -0.03257,-0.053 -0.06922,-0.069 -0.06107,-0.028 -0.162866,-0.045 -0.34609,-0.045 l -2.357485,0 c -0.114006,0 -0.183224,0.057 -0.183224,0.1465 0,0.077 0.04479,0.1222 0.138436,0.1548 0.130293,0.045 0.166938,0.1099 0.166938,0.2768 l 0,2.614 c 0,0.1751 -0.03665,0.2362 -0.166938,0.2851 -0.09365,0.024 -0.138436,0.073 -0.138436,0.1506 0,0.09 0.06922,0.1466 0.183224,0.1466 l 2.536638,0 c 0.350162,0 0.386806,-0.033 0.435666,-0.3542 l 0.03665,-0.2321 c 0,-0.016 0.0041,-0.033 0.0041,-0.041 0,-0.1018 -0.05293,-0.1792 -0.130293,-0.1792"
       id="path3487" />
    <path
       d="m 47.247736,1036.0023 -0.732897,0 c -0.114006,0 -0.183224,0.057 -0.183224,0.1466 0,0.077 0.04886,0.1262 0.134364,0.1588 0.105863,0.033 0.134365,0.057 0.158795,0.1466 0.0041,0.037 0.01221,0.065 0.01221,0.098 0,0.094 -0.06922,0.4071 -0.179153,0.798 -0.150651,0.5334 -0.32166,0.9609 -0.525243,1.3559 -0.057,0.1099 -0.146579,0.2768 -0.2728,0.4926 -0.256514,-0.4845 -0.321661,-0.6148 -0.557816,-1.1604 -0.130293,-0.3013 -0.219869,-0.5374 -0.272801,-0.6962 -0.057,-0.1914 -0.118078,-0.4113 -0.175081,-0.6556 -0.0081,-0.061 -0.01629,-0.1099 -0.01629,-0.1303 l 0,-0.016 c 0,-0.1222 0.04886,-0.1914 0.162866,-0.2321 0.09365,-0.033 0.142507,-0.082 0.142507,-0.1547 0,-0.094 -0.06922,-0.1507 -0.183224,-0.1507 l -1.021984,0 c -0.114006,0 -0.183224,0.057 -0.183224,0.1466 0,0.077 0.04072,0.1262 0.138436,0.1588 0.105863,0.033 0.134365,0.065 0.150651,0.1466 l 0.03665,0.1628 0.03665,0.1425 0.183224,0.6556 c 0.09772,0.3664 0.29723,0.8672 0.582246,1.4413 0.191367,0.4072 0.329804,0.6393 0.472311,0.8103 0.118078,0.1547 0.191368,0.1954 0.342019,0.1954 0.195439,0 0.236155,-0.024 0.354233,-0.2036 0.166938,-0.2483 0.264657,-0.4234 0.476383,-0.8591 0.272801,-0.57 0.366449,-0.8062 0.54153,-1.3843 0.105862,-0.3461 0.162866,-0.5579 0.232084,-0.8429 0.04886,-0.2036 0.06515,-0.2239 0.183224,-0.2646 0.09365,-0.033 0.142508,-0.082 0.142508,-0.1547 0,-0.09 -0.06922,-0.1507 -0.179153,-0.1507"
       id="path3491" />
    <path
       d="m 40.293359,1036.0064 c -0.162866,0 -0.215797,0.012 -0.264657,0.061 -0.0285,0.028 -0.04479,0.045 -0.05293,0.061 -0.02443,0.037 -0.04479,0.1141 -0.06922,0.2403 -0.02443,0.1099 -0.03665,0.1913 -0.03665,0.2606 0,0.094 0.06108,0.1628 0.14658,0.1628 0.057,0 0.114006,-0.02 0.162866,-0.061 l 0.158794,-0.1466 c 0.203583,-0.1792 0.37052,-0.228 0.834688,-0.2362 l 0,2.8502 c 0,0.171 -0.03257,0.2321 -0.162866,0.2809 -0.09772,0.024 -0.138436,0.073 -0.138436,0.1507 0,0.09 0.06922,0.1465 0.183224,0.1465 l 1.017913,0 c 0.118078,0 0.187296,-0.057 0.187296,-0.1465 0,-0.077 -0.04886,-0.1263 -0.138436,-0.1507 -0.130293,-0.049 -0.17101,-0.1099 -0.17101,-0.2809 l 0,-2.8502 c 0.464168,0.01 0.631106,0.053 0.834688,0.228 l 0.158795,0.1466 c 0.04886,0.041 0.105863,0.065 0.162866,0.065 0.0855,0 0.146579,-0.069 0.146579,-0.1629 0,-0.069 -0.01221,-0.1547 -0.03665,-0.2647 -0.02443,-0.1221 -0.04886,-0.2035 -0.06922,-0.2402 -0.0081,-0.016 -0.02443,-0.029 -0.05293,-0.057 -0.05293,-0.053 -0.101792,-0.061 -0.264657,-0.061 l -2.536638,0"
       id="path3495" />
  </g>
  <path
     d="m 8.0979896,8.2206382 c 0.417441,-0.709438 0.8492142,-1.408183 1.3006953,-2.097952 0.1684095,-0.256177 0.3386103,-0.512399 0.5141864,-0.765012 0.1773677,-0.252613 0.3672757,-0.56432 0.6736387,-0.670056 0.01792,-0.007 0.03762,-0.01276 0.05554,-0.01804 l 0,0 c 0.408482,-0.107496 0.868921,-0.07164 1.280988,0.007 0.370859,0.08061 0.736343,0.214992 1.039122,0.451501 0.363693,0.283062 0.558977,0.695137 0.598392,1.151962 0.04479,0.474777 -0.05912,0.992544 -0.268739,1.422527 -0.114662,0.234705 -0.27053,0.444329 -0.446106,0.636044 0,0 0,0 0,0 0.125411,-0.125405 0.243656,-0.26159 0.340402,-0.404903 0.372651,-0.560801 0.442523,-1.218273 0.449689,-1.281019 0.0036,-0.0396 0.08958,-0.635999 -0.141535,-1.132249 -0.04479,-0.09495 -0.130786,-0.247245 -0.256198,-0.388798 -0.12362,-0.137945 -0.284863,-0.265154 -0.467605,-0.369042 -0.20245,-0.111104 -0.433565,-0.198887 -0.634223,-0.252613 -0.249031,-0.0681 -0.455064,-0.08781 -0.544644,-0.09677 -0.421024,-0.04119 -0.756051,-0.0018 -0.761426,-0.0018 -0.209616,0.03045 -0.406691,0.08779 -0.564351,0.234713 -0.16841,0.155854 -0.3009875,0.361913 -0.4317739,0.546456 -0.5625602,0.793738 -1.0713722,1.62682 -1.571226,2.459903 -0.521353,0.870703 -1.0355395,1.746819 -1.5407681,2.6282588 -0.5123951,0.890417 -1.0140406,1.786245 -1.5031448,2.689202 -0.464022,0.856359 -0.9316279,1.714523 -1.3347358,2.603179 l 0.3027789,-0.229336 c 0.00537,-0.01056 0.4478981,-0.960291 1.1555767,-2.269955 0.8850456,-1.635716 1.8148813,-3.2499138 2.7554666,-4.8534208 z m -3.5813903,3.6620338 -0.00717,-0.007 C 3.830416,11.210984 1.1716949,8.4160902 1.5246383,5.6677942 c 0.4013162,-3.146018 2.510019,-4.461045 4.0812445,-4.346382 1.4278982,0.10391 2.5601835,0.70051 4.0937854,2.771591 0.053748,-0.0035 0.082413,-0.0035 0.082413,-0.0035 C 8.0245305,1.6403962 6.9603253,1.1333742 5.3407271,1.0151332 3.7211285,0.89688712 1.5497203,2.2602862 1.1340712,5.5173732 0.72021368,8.7763082 4.3714761,12.108637 4.3714761,12.108637 l 0.145119,-0.225728 z M 11.192067,15.84748 9.9433283,17.020959 5.9749545,13.283683 5.7474222,13.4288 l 4.1296173,3.887761 1.3060695,-1.22188 c 0,0 0,0 0,0 l 0,0 c 0,0 0.02687,0.03784 0.207825,0.281302 0.184534,0.247201 0.204241,0.270522 0.204241,0.270522 l -0.0054,-0.268762 -0.397733,-0.532067 z M 3.9414984,7.1349432 c -0.0018,0 -0.0018,0 -0.0018,0 l -0.0018,0 c 0,0 0.0018,0 0.00537,0 -0.0018,0 -0.0018,0 -0.0018,0 z M 16.545341,18.14784 c -1.316819,-0.677185 -2.420439,-1.734235 -3.314443,-2.907714 -0.01971,0.01804 -0.03942,0.03388 -0.05912,0.05016 0.996125,1.345481 2.250239,2.563753 3.771299,3.294708 0.915503,0.440764 1.900878,0.693377 2.922085,0.661124 0.997916,-0.03212 1.972542,-0.320728 2.855796,-0.781161 0.01254,-0.0053 0.06987,-0.03036 0.08421,-0.03212 0.0054,0 0.01254,0 0.01971,0 0,0 0,0 0,0 0.0018,0 0.0036,0 0.0036,0 0.01971,0 0.043,0 0.0645,0.007 0,0 0,0 0,0 0.01254,0.0044 0.02329,0.0088 0.03225,0.01804 0,0 0,0 0,0 -0.05554,-0.05016 -0.30457,-0.15229 -0.415649,-0.202451 -0.05733,-0.02684 -0.146911,-0.0396 -0.225741,-0.02508 -0.0842,0.01628 -0.150493,0.05016 -0.161243,0.05553 -0.845631,0.415639 -1.761134,0.580469 -2.707094,0.589445 -1.008666,0.01232 -1.977916,-0.266957 -2.870128,-0.72563 z m 6.379855,0.308187 c 0,0 0,0 0,0 0,0 0,0 0,0 z M 8.6784653,4.5586492 c -0.035831,-0.04136 -0.1361612,-0.03564 -0.1469108,-0.03564 -1.4941866,0.08598 -2.9561248,0.910129 -2.9561248,0.910129 -0.057331,0.0286 -0.2131993,0.125404 -0.3887753,0.263349 -0.100329,0.08061 -0.2060327,0.175567 -0.3063621,0.27589 -0.2776963,0.272326 -0.508812,0.607355 -0.5500187,0.664689 -0.1540769,0.227532 -0.2651554,0.424615 -0.2651554,0.424615 -0.01254,0.02332 -0.039417,0.07524 -0.1164533,0.07524 0.057331,0 0.3242777,0 0.3977331,-0.03212 0.064498,-0.02684 0.094955,-0.08778 0.1576604,-0.188107 0.2096162,-0.333224 0.4711885,-0.661124 0.7632175,-0.911933 0,0 0.0018,0 0.0018,0 0.1558687,-0.14151 0.3242782,-0.268718 0.5034373,-0.37441 0.8330894,-0.447892 1.7521759,-0.782921 2.6963443,-0.87968 0,0 0,0 0,0 0.062705,-0.0053 0.1236198,-0.01056 0.1863252,-0.01452 l 0,0 c 0,0 0,0 0,0 0.00356,0 0.00537,0 0.00896,0 0.00537,-0.01628 0.01075,-0.03388 0.014331,-0.04836 0.0018,-0.007 0.032249,-0.09139 0,-0.127209 z m 1.3078614,-0.481946 c 0.4568553,-0.732758 1.0283733,-1.415355 1.6912623,-1.972539 0.704095,-0.594809 1.5551,-1.058832 2.488519,-1.13228408 0.90117,-0.06988 1.804132,0.20782408 2.520769,0.75604908 0.722011,0.551811 1.243364,1.336526 1.571225,2.176785 0.351152,0.90294 0.524936,1.933106 0.374442,2.897005 -0.152285,0.967463 -0.591225,1.873984 -1.110786,2.69633 -0.250823,0.39597 -0.526728,0.7775518 -0.818757,1.1448328 -0.232907,0.295603 -0.483729,0.575101 -0.725594,0.865336 -0.225741,0.268762 -0.492688,0.505226 -0.745302,0.748907 -0.340403,0.329616 -0.682596,0.655712 -1.02479,0.981764 -0.494479,0.471213 -0.992541,0.942382 -1.488812,1.411791 -1.03554,-1.479861 -2.047788,-2.995541 -2.9131272,-4.582898 -0.039417,-0.09852 0.014331,-0.1504858 0.1092872,-0.1648298 0.04479,-0.0088 0.089579,-0.01276 0.134369,-0.0198 -0.03225,0.007 -0.075247,0.01628 -0.094954,0.02156 -0.02329,0.0044 -0.048373,0.01452 -0.068081,0.0286 0,0 0,0 0,0 -0.021499,0.01628 -0.032249,0.04136 -0.028667,0.06631 l 0,0 c 0,0.0198 0.00717,0.04136 0.014331,0.05914 0.410274,0.754232 0.863547,1.483426 1.325777,2.205449 0.474772,0.743495 0.965668,1.472645 1.470896,2.194667 0.820549,-0.775748 1.641097,-1.549736 2.452688,-2.334417 0.241865,-0.234704 0.490896,-0.467605 0.711262,-0.723826 0.252614,-0.295603 0.508812,-0.589445 0.747093,-0.897589 0.589434,-0.7578398 1.119745,-1.5801858 1.465521,-2.4777748 0.175577,-0.458629 0.302779,-0.940578 0.342194,-1.43146 0.03404,-0.469409 -0.01075,-0.944186 -0.09675,-1.406423 -0.164826,-0.881445 -0.535685,-1.741412 -1.100036,-2.441922 0,0 0,0 0,0 C 16.917984,2.4086474 16.595498,2.1094494 16.231804,1.8747534 l -0.01075,-0.0072 c -0.503437,-0.318902 -1.078538,-0.508813 -1.673346,-0.546434 0,0 0,0 0,0 l -0.0018,0 c -0.114661,-0.0072 -0.229324,-0.009 -0.342194,-0.0054 l -0.0018,0 c -0.03404,0.0018 -0.06987,0.0035 -0.105704,0.0054 -0.883254,0.05733 -1.693053,0.485518 -2.368483,1.040915 -0.589433,0.483727 -1.101828,1.071369 -1.528227,1.705595 -0.07166,0.0035 -0.143327,0.0054 -0.2131986,0.009"
     id="path3521"
     style="fill:url(#radialGradient3215)" />
  <g
     transform="matrix(1.7915909,0,0,-1.7915909,-85.265394,788.38421)"
     clip-path="url(#clipPath3527)"
     id="g3525">
    <path
       d="m 60.402,440.047 -12.81,0 0,-12.28 12.81,0 0,12.28 z"
       id="path40"
       style="fill:url(#radialGradient3182)" />
  </g>
</svg>
