<?xml version="1.0" encoding="UTF-8" standalone="no"?>
<!-- Created with Inkscape (http://www.inkscape.org/) -->

<svg
   xmlns="http://www.w3.org/2000/svg"
   version="1.1"
   width="100%"
   height="100%"
   viewBox="0 0 47 22"
   id="svg3887">
  <g
     id="g3045"
     style="fill:#6f2895" >
    <g
       id="g3040">
      <path
         d="m 2.6241275,19.114925 0,0.847962 1.0855,0 c 0,0 0.4434125,-0.036 0.4434125,-0.4463 0,-0.408862 -0.3599125,-0.401662 -0.38295,-0.401662 l -1.1459625,0 z M 5.555265,18.396537 c 1.089825,0 1.048075,1.1474 1.048075,1.1474 0,1.192038 -1.2899375,1.240988 -1.2899375,1.240988 L 6.863915,22 l -2.2732125,0 -1.242425,-1.334563 -0.721275,0 L 2.6245025,22 0,22 0,18.396537 c 0,0 4.4643775,-0.0012 5.55564,-0.0012 0,0 -1.0912625,0.0012 0,0.0012"
         id="path3587" />
      <path
         d="m 8.4682775,18.396263 6.3776875,0 0,0.702549 -1.877325,0 0,2.899476 -2.624487,0 0,-2.899476 -1.877313,0 0.00125,-0.702549 z"
         id="path3591" />
      <path
         d="m 17.400202,21.999425 5.885325,0 0,-0.703987 -3.260825,0 0,-2.899476 -2.6245,0 0,3.603463 z"
         id="path3595" />
    </g>
    <path
       d="M 11.588578,0 C 7.05509,0 3.37964,3.67545 3.37964,8.2089375 c 0,4.5349125 3.67545,8.2089255 8.208938,8.2089255 4.533474,0 8.208924,-3.674013 8.208924,-8.2089255 C 19.797502,3.67545 16.122052,0 11.588578,0"
       id="path3583" />
    <g
       id="g3032"
       style="fill:#ffffff">
      <path
         d="m 10.816352,11.610425 -2.621612,0 0,-6.8470125 2.621612,0 0,6.8470125 z"
         id="path3597" />
      <path
         d="m 15.03744,11.610425 -2.623062,0 0,-6.8470125 2.623062,0 0,6.8470125 z"
         id="path3599" />
    </g>
    <g
       id="g3036">
      <path
         d="m 23.27774,6.28945 0,9.5651 2.843325,0 0,-3.805025 4.671687,0 0,3.805025 2.82605,0 0,-9.5651 -2.82605,0 0,3.803588 -4.671687,0 0,-3.803588 -2.843325,0 z"
         id="path3603" />
      <path
         d="m 40.249302,13.99465 -2.074537,0 0,-5.86805 2.063025,0 c 1.837,0 3.04775,0.866675 3.04775,2.9297 0,1.973775 -1.11285,2.93835 -3.036238,2.93835 m 5.846463,-3.240675 c 0,-2.40855 -1.5678,-4.4643875 -5.201488,-4.4643875 l -5.538375,0 0,9.5636495 5.538375,0 c 3.262263,0 5.201488,-1.386387 5.201488,-5.099262"
         id="path3607" />
    </g>
  </g>
</svg>
