<?xml version="1.0" encoding="UTF-8" standalone="no"?>
<!-- Created with Inkscape (http://www.inkscape.org/) -->

<svg
   xmlns="http://www.w3.org/2000/svg"
   xmlns:xlink="http://www.w3.org/1999/xlink"
   version="1.1"
   width="100%"
   height="100%"
   viewBox="0 0 129 22"
   id="svg3816">
  <defs
     id="defs3818">
    <filter
       x="-0.071692258"
       y="-0.1252926"
       width="1.1433845"
       height="1.2505852"
       color-interpolation-filters="sRGB"
       id="filter3306-5">
      <feGaussianBlur
         id="feGaussianBlur3308-4"
         stdDeviation="2.1294937" />
    </filter>
    <linearGradient
       id="linearGradient3251-5">
      <stop
         id="stop3253-7"
         style="stop-color:#f6c8b2;stop-opacity:1"
         offset="0" />
      <stop
         id="stop3255-6"
         style="stop-color:#e49374;stop-opacity:1"
         offset="1" />
    </linearGradient>
    <linearGradient
       id="linearGradient3693-2">
      <stop
         id="stop3695-3"
         style="stop-color:#a4c2ee;stop-opacity:1"
         offset="0" />
      <stop
         id="stop3697-2"
         style="stop-color:#738ecf;stop-opacity:1"
         offset="1" />
    </linearGradient>
    <linearGradient
       id="linearGradient3524-5">
      <stop
         id="stop3526-2"
         style="stop-color:#fbedc3;stop-opacity:1"
         offset="0" />
      <stop
         id="stop3528-7"
         style="stop-color:#f5d78f;stop-opacity:1"
         offset="1" />
    </linearGradient>
    <linearGradient
       id="linearGradient3733">
      <stop
         id="stop3735"
         style="stop-color:#e89f82;stop-opacity:1"
         offset="0" />
      <stop
         id="stop3753"
         style="stop-color:#9f0121;stop-opacity:1"
         offset="0.15345897" />
      <stop
         id="stop3751"
         style="stop-color:#9f0121;stop-opacity:0"
         offset="1" />
    </linearGradient>
    <linearGradient
       id="linearGradient3694">
      <stop
         id="stop3696"
         style="stop-color:#d8745e;stop-opacity:1"
         offset="0" />
      <stop
         id="stop3702"
         style="stop-color:#d8745e;stop-opacity:0"
         offset="0.66019446" />
      <stop
         id="stop3698"
         style="stop-color:#d8745e;stop-opacity:0"
         offset="1" />
    </linearGradient>
    <linearGradient
       id="linearGradient3710">
      <stop
         id="stop3713"
         style="stop-color:#e48315;stop-opacity:0"
         offset="0" />
      <stop
         id="stop3722"
         style="stop-color:#e48315;stop-opacity:1"
         offset="0.17614871" />
      <stop
         id="stop3720"
         style="stop-color:#e48315;stop-opacity:1"
         offset="0.83696228" />
      <stop
         id="stop3715"
         style="stop-color:#e48315;stop-opacity:0"
         offset="1" />
    </linearGradient>
    <linearGradient
       id="linearGradient3742">
      <stop
         id="stop3744"
         style="stop-color:#01086a;stop-opacity:0"
         offset="0" />
      <stop
         id="stop3746"
         style="stop-color:#30599b;stop-opacity:1"
         offset="0.2631796" />
      <stop
         id="stop3748"
         style="stop-color:#010653;stop-opacity:1"
         offset="0.82551301" />
      <stop
         id="stop3750"
         style="stop-color:#01086a;stop-opacity:0"
         offset="1" />
    </linearGradient>
    <linearGradient
       x1="387.94083"
       y1="472.53586"
       x2="324.70819"
       y2="634.88995"
       id="linearGradient3230"
       xlink:href="#linearGradient3251-5"
       gradientUnits="userSpaceOnUse"
       gradientTransform="matrix(0.8550877,0,0,0.8682988,-459.66072,464.28657)" />
    <linearGradient
       x1="-166.33357"
       y1="859.03809"
       x2="-165.73274"
       y2="817.64807"
       id="linearGradient3232"
       xlink:href="#linearGradient3694"
       gradientUnits="userSpaceOnUse" />
    <linearGradient
       x1="-166.33357"
       y1="859.03809"
       x2="-165.73274"
       y2="817.64807"
       id="linearGradient3234"
       xlink:href="#linearGradient3694"
       gradientUnits="userSpaceOnUse" />
    <linearGradient
       x1="1213.3833"
       y1="481.08084"
       x2="1256.108"
       y2="602.41919"
       id="linearGradient3236"
       xlink:href="#linearGradient3693-2"
       gradientUnits="userSpaceOnUse"
       gradientTransform="matrix(0.8550877,0,0,0.87041118,-459.66072,461.985)" />
    <linearGradient
       x1="-126.56869"
       y1="1032.7726"
       x2="-142.97276"
       y2="870.41803"
       id="linearGradient3238"
       xlink:href="#linearGradient3733"
       gradientUnits="userSpaceOnUse" />
    <linearGradient
       x1="-126.56869"
       y1="1032.7726"
       x2="-142.97276"
       y2="870.41803"
       id="linearGradient3240"
       xlink:href="#linearGradient3733"
       gradientUnits="userSpaceOnUse" />
    <linearGradient
       x1="787.8446"
       y1="441.77405"
       x2="801.51654"
       y2="643.43494"
       id="linearGradient3242"
       xlink:href="#linearGradient3524-5"
       gradientUnits="userSpaceOnUse"
       gradientTransform="matrix(0.8550877,0,0,0.87010487,-459.66072,464.47665)" />
    <linearGradient
       x1="260.5278"
       y1="806.95251"
       x2="271.43567"
       y2="1055.7949"
       id="linearGradient3244"
       xlink:href="#linearGradient3710"
       gradientUnits="userSpaceOnUse" />
    <linearGradient
       x1="749.43854"
       y1="811.54901"
       x2="758.8291"
       y2="1008.8021"
       id="linearGradient3246"
       xlink:href="#linearGradient3742"
       gradientUnits="userSpaceOnUse" />
  </defs>
  <path
     d="m 86.914513,10.99984 0,-8.79995 2.412102,0 2.412103,0 0.04672,3.4941 0.04671,3.4941 4.443108,0.0461 4.443124,0.0461 0,-3.54014 0,-3.54016 2.50195,0 2.50195,0 0,8.79995 0,8.79997 -2.50195,0 -2.50195,0 0,-3.54016 0,-3.54015 -4.443124,0.0461 -4.443108,0.0461 -0.04671,3.49409 -0.04672,3.49411 -2.412103,0 -2.412102,0 0,-8.79997 z m 22.258727,0 0,-8.79995 5.99605,0.003 c 6.63053,0.004 7.5877,0.1078 9.47439,1.03424 1.82749,0.89736 3.53579,3.10623 4.01718,5.19428 0.26561,1.15213 0.22016,4.07829 -0.0813,5.23577 -0.60698,2.33032 -2.08398,4.16817 -4.09724,5.09819 -1.96566,0.90803 -3.12912,1.03444 -9.5214,1.03444 l -5.78764,0 0,-8.79996 z m 11.58375,5.10029 c 1.13465,-0.40826 2.10131,-1.30171 2.56977,-2.37515 0.31921,-0.73144 0.40142,-1.23989 0.41271,-2.55258 0.0171,-1.99131 -0.26163,-3.03447 -1.06015,-3.96734 -1.15225,-1.34616 -2.49564,-1.72676 -6.095,-1.72676 l -2.40719,0 0,5.54362 0,5.5436 2.89019,-0.0889 c 2.07561,-0.0638 3.11552,-0.16994 3.68967,-0.37653 z"
     id="path2929"
     style="fill:#bbbcc1" />
  <g
     transform="matrix(0.06985295,0,0,0.06830804,25.32606,-52.11685)"
     id="g3752">
    <rect
       width="388.72348"
       height="252.27347"
       ry="0"
       x="-361.7551"
       y="798.90527"
       id="rect3249-2"
       style="fill:url(#linearGradient3230);stroke:#b10000;stroke-width:1.59302843" />
    <rect
       width="388.72348"
       height="252.27347"
       ry="0"
       x="-361.7551"
       y="798.90527"
       id="rect3704"
       style="fill:url(#linearGradient3232)" />
    <rect
       width="388.72348"
       height="252.27347"
       ry="0"
       x="-361.7551"
       y="798.90527"
       id="rect2920"
       style="fill:url(#linearGradient3234)" />
    <rect
       width="388.72348"
       height="252.88721"
       ry="0"
       x="456.59351"
       y="798.90527"
       id="rect3681-3"
       style="fill:url(#linearGradient3236);stroke:#00249e;stroke-width:1.68703771" />
    <rect
       width="388.72348"
       height="252.27347"
       ry="0"
       x="-361.7551"
       y="798.90527"
       id="rect3731"
       style="fill:url(#linearGradient3238)" />
    <rect
       width="388.72348"
       height="252.27347"
       ry="0"
       x="-361.7551"
       y="798.90527"
       id="rect3757"
       style="fill:url(#linearGradient3240)" />
    <path
       d="m -305.98291,862.50869 0,134.67631 100.25903,0 0,-44.19735 c 3.82653,0 14.19429,0 19.88079,0 l 50.71739,44.19735 c 0,0 106.202078,0 105.015456,0 -0.85307,0 -38.935051,-28.60148 -60.550898,-44.89211 17.372945,-3.58516 38.192578,-20.75078 37.704023,-46.17473 -0.562878,-29.29123 -16.788424,-43.60947 -48.927051,-43.60947 -29.46775,0 -103.8397,0 -103.83971,0 l -21.35047,0 -78.90856,0 z m 100.25903,31.85201 c 0,0 31.64774,1e-5 44.11718,0 5.50907,0 11.68452,4.53001 11.73073,14.13567 0.0462,9.6061 -6.17138,14.80372 -11.86434,14.80371 -12.82435,0 -43.98356,10e-6 -43.98357,0 l 0,-28.93938 z"
       id="path3967-3"
       style="fill:#ffffff" />
    <rect
       width="388.72348"
       height="252.7982"
       ry="0"
       x="46.584026"
       y="798.90527"
       id="rect2449-4"
       style="fill:url(#linearGradient3242);stroke:#d0be00;stroke-width:2.02783251" />
    <rect
       width="388.72348"
       height="252.7982"
       ry="0"
       x="46.584026"
       y="798.90527"
       id="rect3706"
       style="fill:url(#linearGradient3244)" />
    <path
       d="m 109.90785,862.22755 0,31.85202 72.38852,0 0,102.82429 112.1501,0 0,-102.82429 69.39571,0 0,-31.85202 -253.93433,0 z"
       id="rect3980-1"
       style="fill:#ffffff" />
    <rect
       width="388.72348"
       height="252.88721"
       ry="0"
       x="456.59351"
       y="798.90527"
       id="rect3724"
       style="fill:url(#linearGradient3246)" />
    <path
       d="m 513.24199,862.22755 0,134.67631 104.88189,0 14.26928,0 145.57868,0 0,-32.76054 -145.57868,0 0,-101.91577 -119.15117,0 z"
       id="rect3984-1"
       style="fill:#ffffff" />
    <path
       d="m 186.90111,599.50256 c 0,-3.92506 -3.40457,-138.83235 -3.40457,-138.83235 l 243.3537,0 c 0,0 10.01564,0.96568 18.3515,3.68093 6.30416,2.05346 10.91408,5.75319 13.68044,7.11703 2.66343,1.3131 8.25892,8.09242 10.99484,14.64587 2.82907,6.77658 3.95429,17.50118 3.95429,17.50118 0,0 -5.81153,-14.31122 -12.24505,-21.22571 -5.6263,-6.04693 -12.96808,-8.93154 -15.58345,-9.80695 -6.08686,-2.03738 -10.08535,-3.83516 -23.54385,-3.83769 -93.1435,-0.0175 -231.1123,-1.2058 -231.1123,-1.2058 l -4.44555,131.96349 z"
       transform="matrix(0.8656214,0,0,0.8851052,-464.56018,455.23475)"
       id="path4156-3"
       style="fill:#808080;filter:url(#filter3306-5)" />
    <path
       d="m 296.83264,527.04663 c 0,0 36.72558,1.78908 56.96038,-0.18805 1.12739,-0.11016 1.28625,-1.11972 2.23775,-1.96213 2.46812,-2.18517 5.187,-5.78695 6.15001,-8.56296 2.36577,-6.81961 -1.86849,-23.81918 -1.86849,-23.81918 0,0 7.69216,12.98532 7.80309,19.13467 0.0898,4.97977 -1.00158,11.33043 -4.0661,15.25661 -2.16031,2.76773 -6.30179,6.34314 -9.81264,6.37823 -19.23667,0.19227 -55.9321,-0.98127 -55.9321,-0.98127 l -1.4719,-5.25592 z"
       transform="matrix(0.8550877,0,0,0.8550877,-459.66072,473.21609)"
       id="path4226-8"
       style="fill:#808080;filter:url(#filter3306-5)" />
    <rect
       width="5.8875895"
       height="119.71432"
       x="752.63019"
       y="493.05194"
       transform="matrix(0.8550877,0,0,0.8550877,-459.66072,473.21609)"
       id="rect4300-7"
       style="fill:#808080;filter:url(#filter3306-5)" />
    <rect
       width="293.39822"
       height="6.8688545"
       x="668.24139"
       y="455.76389"
       transform="matrix(0.8550877,0,0,0.8550877,-459.66072,473.21609)"
       id="rect4426-4"
       style="fill:#808080;filter:url(#filter3306-5)" />
    <rect
       width="5.8875895"
       height="30.419212"
       x="668.24139"
       y="459.68893"
       transform="matrix(0.8550877,0,0,0.8550877,-459.66072,473.21609)"
       id="rect4516-2"
       style="fill:#808080;filter:url(#filter3306-5)" />
    <rect
       width="6.8688545"
       height="153.07733"
       x="1137.8608"
       y="456.74515"
       transform="matrix(0.8550877,0,0,0.8550877,-459.66072,473.21609)"
       id="rect4758-7"
       style="fill:#808080;filter:url(#filter3306-5)" />
    <rect
       width="128.5457"
       height="7.8501191"
       x="1144.1549"
       y="454.95102"
       transform="matrix(0.8550877,0,0,0.8550877,-459.66072,473.21609)"
       id="rect4848-7"
       style="fill:#808080;filter:url(#filter3306-5)" />
  </g>
</svg>
