<?xml version="1.0" encoding="UTF-8" standalone="no"?>
<!-- Created with Inkscape (http://www.inkscape.org/) -->

<svg
   xmlns="http://www.w3.org/2000/svg"
   version="1.1"
   width="100%"
   height="100%"
   viewBox="0 0 140 22"
   id="svg2">
  <path
     d="m 110.21662,2.1999996 0,17.6000004 2.49107,0 0,-7.554462 7.47323,0 0,7.554462 2.49108,0 0,-17.6000004 -2.49108,0 0,7.5544624 -7.47323,0 0,-7.5544624 -2.49107,0 z m 14.40492,0 0,17.6000004 6.66769,0 c 4.48599,0 8.096,-3.9248 8.096,-8.8 0,-4.8752004 -3.61001,-8.8000004 -8.096,-8.8000004 l -6.66769,0 z M 0,2.2135376 0,19.759384 l 2.5993845,0 0,-15.2104614 4.4406155,0 c 1.8000739,0 3.249231,1.449157 3.249231,3.249231 0,1.8000744 -1.4502576,3.1862874 -3.249231,3.2492304 l -3.7907694,0 6.065231,8.712 3.4658464,0 -4.8535386,-6.336 C 10.67918,13.058958 12.787077,10.72143 12.787077,7.865846 l 0,-0.04062 c 0,-3.1102354 -2.501457,-5.6116934 -5.6116925,-5.6116934 l -0.6769229,0 -0.2504616,0 -6.248,0 z m 13.538462,0 0,2.38277 3.316922,0 0,15.1630764 2.38277,0 0,-15.1630764 3.398154,0 0,-2.38277 -9.097846,0 z m 10.898461,0 0,17.5458464 9.246769,0 0,-1.949538 -6.864,0 0,-15.5963084 -2.382769,0 z m 102.675697,2.342154 3.93292,0 c 3.28607,0 5.92984,2.873113 5.92984,6.4443084 0,3.571195 -2.64377,6.444308 -5.92984,6.444308 l -3.93292,0 0,-12.8886164 z"
     id="path3050"
     style="fill:#d2d2d2" />
  <path
     d="m 32.925538,2.2135916 0,17.5458474 4.115693,0 0,-11.264 6.931691,11.264 3.899078,0 0,-17.5458474 -4.115694,0 0,11.2640004 -6.93169,-11.2640004 -3.899078,0 z m 17.329229,0 0,17.5458474 4.548927,0 0,-17.5458474 -4.548927,0 z m 6.281849,0 0,3.79077 3.574151,0 0,13.7550774 4.548927,0 0,-13.7550774 3.574151,0 0,-3.79077 -11.697229,0 z m 13.213539,0 0,17.5458474 4.548923,0.02031 0,-13.6670774 4.582767,0 c 1.38006,0 2.491077,1.11102 2.491077,2.4910774 0,1.380057 -1.111017,2.491077 -2.491077,2.491077 l -4.149539,0 6.281849,8.664615 5.198767,0 -4.704616,-5.814769 c 2.584023,-0.651781 4.488,-2.98214 4.488,-5.774154 0,-3.3001364 -2.656786,-5.9569234 -5.956922,-5.9569234 l -10.289229,0 z m 25.993845,0 c -5.024602,0 -9.097845,3.927772 -9.097845,8.7729244 0,4.845151 4.073243,8.772923 9.097845,8.772923 5.0246,0 9.09784,-3.927772 9.09784,-8.772923 0,-4.8451524 -4.07324,-8.7729244 -9.09784,-8.7729244 z m 0,3.87877 c 2.631935,0 4.76554,2.1901924 4.76554,4.8873844 0,2.697193 -2.133605,4.880616 -4.76554,4.880616 -2.631935,0 -4.765539,-2.183423 -4.765539,-4.880616 0,-2.697192 2.133604,-4.8873844 4.765539,-4.8873844 z"
     id="path3843"
     style="fill:#bae637" />
</svg>
