<?xml version="1.0" encoding="UTF-8" standalone="no"?>
<!-- Created with Inkscape (http://www.inkscape.org/) -->

<svg
   xmlns="http://www.w3.org/2000/svg"
   version="1.1"
   width="100%"
   height="100%"
   viewBox="0 0 82 22"
   id="svg9339">
  <g
     transform="matrix(0.14410691,0,0,0.14410691,-9.7947665,-56.658666)"
     id="g14697">
    <rect
       width="194.784"
       height="75.662003"
       x="68.024574"
       y="454.90704"
       id="rect9314"
       style="fill:#f7ef6e" />
    <path
       d="m 67.96875,408.5 0,39.71875 62.9375,0 0,-39.71875 -62.9375,0 z m 65.9375,0 0,39.71875 62.9375,0 0,-39.71875 -62.9375,0 z m 65.90625,0 0,39.71875 62.9375,0 0,-39.71875 -62.9375,0 z m -131.78125,46.40625 0,28.375 c 3.056,0.39799 6.149,0.38725 9.25,-0.21875 2.779997,-0.53599 5.50625,-1.51125 8.15625,-2.78125 0.987998,3.32301 3.533,11.176 6.75,16 0.834997,1.233 1.867,2.53325 3,3.78125 -1.294002,2.42799 -2.555,4.8625 -3.75,7.3125 -1.777002,-0.66599 -3.5405,-1.21025 -5.1875,-1.53125 -6.111002,-1.21799 -15.15475,-0.3125 -18.21875,0.0625 l 0,1.59375 c 2.742,1.478 9.62925,5.04225 15.28125,6.40625 -5.583003,4.05098 -10.74725,8.3605 -15.28125,13.0625 l 0,2.90625 c 5.162,-5.651 11.23525,-10.75075 17.90625,-15.46875 0.719998,0.092 1.46875,0.17275 2.21875,0.21875 -1.699999,4.03501 -3.2045,8.1325 -4.4375,12.3125 -1.302001,1.13402 -2.57925,2.369 -3.78125,3.625 l 13.03125,0 c 5.720002,-4.47198 11.6,-12.11575 11.875,-12.46875 l 0.78125,-0.96875 -1.21875,0.3125 c -0.467,0.12201 -11.4665,3.02675 -17.5625,7.09375 -0.137999,0.092 -0.2995,0.18925 -0.4375,0.28125 1.103003,-3.40701 2.3955,-6.7545 3.8125,-10.0625 6.355998,0.207 12.9525,-0.6415 13.3125,-0.6875 l 1.21875,-0.1875 -1.0625,-0.625 c -0.26,-0.14602 -4.32975,-2.51075 -9.09375,-4.59375 1.883998,-1.17999 3.819997,-2.32775 5.75,-3.46875 2.879,2.604 5.308,4.471 5.5,4.625 l 0.96875,0.75 -0.3125,-1.21875 c -0.062,-0.229 -0.79825,-3.0245 -2.03125,-6.5625 1.631,-0.919 3.2835,-1.846 4.9375,-2.75 0.146,4.65599 0.6495,8.56075 0.6875,8.84375 l 0.15625,1.21875 0.65625,-1.0625 c 0.168,-0.30701 3.162,-5.48725 5.375,-11.03125 1.386,1.807 2.769,3.656 4.125,5.5 -3.461,3.66101 -6.1285,7.1995 -6.3125,7.4375 l -0.75,0.96875 1.1875,-0.3125 c 0.291,-0.076 4.67425,-1.27225 9.40625,-3.15625 1.417,2.04399 2.785,4.10575 4.125,6.21875 -6.287,-0.14598 -12.73375,0.7665 -13.09375,0.8125 l -1.21875,0.15625 1.09375,0.625 c 0.414,0.237 10.28575,5.8805 17.46875,7.3125 0.35199,0.069 0.75,0.1275 1.125,0.1875 1.195,2.22899 2.33425,4.4845 3.40625,6.8125 l 2.125,0 c -1.011,-2.235 -2.09275,-4.4175 -3.21875,-6.5625 6.977,0.58198 15.37425,-0.5155 15.78125,-0.5625 l 1.25,-0.15625 -1.0625,-0.625 C 151.29776,522.41126 141.441,516.69 134.25,515.25 c -1.17901,-0.22897 -2.4725,-0.401 -3.8125,-0.5 -1.50901,-2.41198 -3.0795,-4.7345 -4.6875,-7.0625 2.267,-0.97999 4.52975,-2.1025 6.34375,-3.3125 6.165,-4.127 13.209,-13.27325 13.5,-13.65625 l 0.75,-0.96875 -1.1875,0.28125 c -0.467,0.123 -11.50475,3.057 -17.59375,7.125 -1.938,1.29399 -3.92025,3.0845 -5.78125,4.9375 -1.539,-2.08301 -3.1175,-4.1505 -4.6875,-6.1875 0.008,-0.015 -0.008,-0.0465 0,-0.0625 2.458,-1.316 4.94825,-2.6355 7.40625,-3.9375 8.317,-4.41099 16.677,-8.86175 24.625,-13.59375 7.903,10.14001 11.548,30.464 27.125,39.125 11.824,6.57098 27.1885,5.155 40.4375,1.625 1.662,3.73702 3.1915,7.541 4.5625,11.5 l 2.03125,0 c -1.424,-4.13498 -3.00275,-8.12625 -4.71875,-12.03125 15.16301,-4.31902 27.125,-11.09375 27.125,-11.09375 -10.392,2.105 -22.5145,-1.663 -36.4375,-7.375 -2.994,-5.37599 -6.1015,-10.6195 -9.1875,-15.8125 -0.29901,-0.50599 -0.60825,-1.03325 -0.90625,-1.53125 10.21601,-0.91899 20.3495,-0.862 30.3125,-12.625 3.385,-4.005 5.662,-8.946 7.125,-14.375 2.649,2.12899 5.38475,4.19575 8.21875,6.21875 -3.40799,16.441 1.26825,33.53625 4.53125,46.15625 C 243.38574,515.14776 238.14,522.5605 234.25,530.5625 l 2,0 c 3.561,-7.13698 8.26525,-13.81 13.65625,-20.25 0.375,1.471 0.709,2.8625 1,4.1875 0,-2e-5 3.86,-5.896 7.375,-13.5 1.47801,-1.563 3.00025,-3.1325 4.53125,-4.6875 l 0,-41.40625 -18.03125,0 1.0625,2.9375 c -0.19901,0.68201 -0.3945,1.3805 -0.5625,2.0625 -2.251,-1.632 -4.45675,-3.307 -6.59375,-5 l -22.9375,0 c -0.903,1.632 -1.872,3.20125 -2.875,4.65625 -5.491,7.934 -11.57825,13.94575 -16.65625,18.21875 -4.44101,-7.551 -8.67475,-15.071 -12.34375,-22.875 l -2.125,0 c 3.82901,8.24 8.28975,16.183 12.96875,24.125 -5.008,4.05099 -8.76625,6.245 -9.53125,6.75 3.959,-1.70001 7.89975,-2.40675 11.84375,-2.84375 0.459,0.766 0.924,1.52225 1.375,2.28125 2.673,4.48698 5.35775,9.016 7.96875,13.625 -11.166,-4.694 -23.45,-10.43425 -36.875,-15.28125 -5.47601,-1.96099 -12.599,-4.697 -17.875,-6.75 10.66,-6.50201 20.46075,-13.61225 28.21875,-21.90625 l -2.4375,0 c -7.68099,7.87299 -17.32375,14.66025 -27.96875,21.03125 -3.05601,-1.19399 -5.09375,-1.96875 -5.09375,-1.96875 1.294,0.743 2.44325,1.72625 3.53125,2.90625 -7.73501,4.564 -15.95625,8.93275 -24.28125,13.34375 -1.891,1.003 -3.7885,1.989 -5.6875,3 0.161,-0.566 0.29925,-1.12125 0.40625,-1.65625 1.463,-7.30699 -0.15075,-18.768 -0.21875,-19.25 l -0.1875,-1.25 -0.59375,1.09375 c -0.214,0.36801 -4.85125,8.5605 -6.78125,15.4375 -0.705,-0.873 -1.428,-1.752 -2.125,-2.625 -0.482,-0.61201 -0.9545,-1.23175 -1.4375,-1.84375 0.069,-0.115 0.1185,-0.22775 0.1875,-0.34375 5.276,-9.06 10.62325,-18.248 15.15625,-27.875 l -2.125,0 c -4.365,9.17499 -9.48425,17.964 -14.53125,26.625 -2.619,-3.27699 -5.1835,-6.55875 -7.6875,-9.84375 5.506,-4.92401 10.49325,-10.86225 14.78125,-16.78125 l -44.71875,0 z m 60.25,0 c 5.927,7.949 9.744,15.29625 10.625,20.65625 -0.001,10e-6 -0.37775,-9.08525 -2.84375,-20.65625 l -7.78125,0 z M 96.5,472.9375 c 2.634002,3.462 5.36,6.914 8.125,10.375 -1.716,2.92499 -3.38525,5.84 -5.03125,8.75 -0.062,-0.092 -0.10325,-0.19625 -0.15625,-0.28125 -3.201002,-4.801 -9.4635,-10.06975 -12.3125,-12.34375 3.262001,-1.74599 6.373,-3.973 9.375,-6.5 z m 9.40625,11.96875 c 0.337,0.41399 0.671,0.837 1,1.25 1.011,1.264 2.02025,2.50925 3.03125,3.78125 -0.444,2.38199 -0.5785,5.21025 -0.5625,7.90625 -1.869,1.02599 -3.7245,2.05275 -5.5625,3.09375 -0.88,-2.328 -1.91375,-4.79375 -3.09375,-6.96875 1.7,-3.01001 3.4255,-6.0375 5.1875,-9.0625 z m -9.34375,16.625 c 0.749997,0.781 1.5475,1.55325 2.3125,2.28125 -1.692,0.995 -3.37725,2.00525 -5.03125,3.03125 0.872999,-1.76902 1.78475,-3.5515 2.71875,-5.3125 z m 12.78125,9.0625 c -1.91686,0.0118 -3.64975,1.34288 -4.03125,3.3125 -0.444,2.236 1.006,4.438 3.25,4.875 2.236,0.45197 4.438,-1.03625 4.875,-3.28125 0.444,-2.22903 -1.03725,-4.41475 -3.28125,-4.84375 -0.27862,-0.0555 -0.53866,-0.0642 -0.8125,-0.0625 z m 2.875,7.96875 0.3125,1.1875 c 0.084,0.31302 1.537,5.5755 3.75,10.8125 l 9.0625,0 c -4.542,-5.54399 -11.80425,-10.997 -12.15625,-11.25 l -0.96875,-0.75 z m -3.6875,0.40625 -0.625,1.09375 c -0.168,0.29098 -2.93375,5.14 -5.09375,10.5 l 6.6875,0 c -0.1,-5.30701 -0.74325,-10.069 -0.78125,-10.375 l -0.1875,-1.21875 z"
       id="polyline9316"
       style="fill:#fbac33" />
    <path
       d="m 269.53125,408.5 0,122.0625 365.375,0 0,-122.0625 -365.375,0 z m -191.5625,9.1875 0,21.25 15.71875,0 0,-6.96875 3.25,0 8.15625,6.96875 16.46875,0 -10.375,-7.34375 0.4375,-0.0625 c 3.346,0.076 6.5705,-2.86525 6.5625,-6.65625 0,-5.092 -3.82025,-7.18751 -7.28125,-7.1875 l -32.9375,0 z m 107.28125,0 -40.53125,0.0312 0,4.96875 11.9375,0 -0.0312,16.25 16.84375,0 0,-16.25 11.78125,0 0,-5 z m 25.46875,0.0312 0,21.21875 41.1875,0 0,-4.90625 -23.15625,0 0,-16.3125 -18.03125,0 z m -109.78125,4.8438 c 1.44,0 2.28125,1.2095 2.28125,2.3125 0,1.29501 -0.85375,2.3155 -2.09375,2.4375 l -7.40625,0 0,-4.71875 7.21875,-0.0312 z"
       id="rect9312"
       style="fill:#ffffff" />
    <path
       d="m 269.53125,408.4375 0,122.125 289.53125,0 2.375,-10.4375 c -0.002,0 7.9175,4.3885 16.1875,3.9375 3.46901,-0.22902 8.64675,-1.88875 10.09375,-7.59375 l 5.5,-15.40625 c 10e-6,-10e-6 -8.95075,10.38575 -20.46875,4.34375 -10.06302,-5.254 -7.38225,-15.86225 -6.15625,-21.78125 l 4.46875,-20.34375 c 2.57201,-12.19101 12.3075,-19.25 26.0625,-19.25 6.37097,-10e-6 12.07575,3.58125 15.09375,6.03125 4.80998,4.02799 10.625,3.6875 10.625,3.6875 -3e-5,10e-6 -1.33075,3.25325 -2.21875,7.28125 l -13.46875,54.1875 c -0.70402,3.17897 -2.3555,9.90675 -7.5625,15.34375 l 35.3125,0 0,-122.125 -365.375,0 z M 372.9375,424.625 c 5.69701,10e-6 9.48975,3.70125 8.59375,8.28125 -1.01101,4.579 -6.3655,8.25 -12.0625,8.25 -5.70599,0 -9.503,-3.67 -8.5,-8.25 0.89602,-4.58 6.26375,-8.28125 11.96875,-8.28125 z m 107.6875,0 c 5.705,10e-6 9.514,3.70125 8.625,8.28125 -1.011,4.579 -6.39575,8.25 -12.09375,8.25 -5.705,0 -9.503,-3.67 -8.5,-8.25 0.888,-4.58 6.27075,-8.28125 11.96875,-8.28125 z m -175.59375,5.1875 18.78125,0 -14.1875,65.53125 23.03125,0 -3.25,14.21875 -41.5,0 17.125,-79.75 z m 228.3125,14.0625 c 1.71941,-0.0227 3.4955,0.13625 5.3125,0.5 9.72397,1.78401 15.5515,9.81725 12.3125,24.78125 l -8.71875,40.40625 -18.90625,0 9.28125,-42.75 c 0.78898,-3.90499 0.99625,-8.24675 -3.46875,-8.46875 -4.70202,-0.223 -6.496,3.55975 -7.5,8.46875 l -9.28125,42.75 -18.5625,0 c 10.51499,-49.43301 10.84375,-50.65625 10.84375,-50.65625 0.33,-2.12899 0,-5.15625 0,-5.15625 0,10e-6 4.46925,1.351 14.53125,-5.25 4.28549,-2.84925 8.99803,-4.55675 14.15625,-4.625 z m -139.09375,1.8125 18.90625,0 1.25,35.375 c 0.10699,1.784 1.201,1.7675 1.875,0.3125 l 16.09375,-35.6875 19.59375,0 -33.90625,63.875 -18.5625,0 -5.25,-63.875 z m -34.40625,0.8125 18.34375,0 -13.75,63.0625 -18.34375,0 13.75,-63.0625 z m 107.6875,0 18.34375,0 -13.75,63.0625 -18.34375,0 13.75,-63.0625 z m 128.03125,11.71875 c -3.91298,-10e-6 -5.374,3.711 -6.5,8.75 l -3.5625,16.3125 c -1.45497,6.81502 1.09675,9.5 4.34375,9.5 4.58698,10e-6 5.9335,-4.13325 6.9375,-9.15625 l 3.59375,-17 c 1.01102,-4.80999 -0.3325,-8.40625 -4.8125,-8.40625 z"
       id="path9330"
       style="fill:#85c555" />
  </g>
</svg>
