<?xml version="1.0" encoding="UTF-8" standalone="no"?>
<!-- Created with Inkscape (http://www.inkscape.org/) -->

<svg
   xmlns="http://www.w3.org/2000/svg"
   version="1.1"
   width="100%"
   height="100%"
   viewBox="0 0 73 22"
   id="Ebene_2">
  <g
     id="g2996"
     style="fill:#ba8d39">
    <path
       d="m 31.564316,2.4642859 0,0.8380953 0,15.3976198 0,0.838095 0.838096,0 8.809535,0 0.838097,0 0,-1.67619 -0.838097,0 -7.971439,0 0,-14.5595248 0,-0.8380953 -1.676192,0 z"
       id="path3808-1" />
    <path
       d="m 43.923857,2.4642859 0,1.6761906 0.838096,0 3.923814,0 c 3.799132,0 6.857081,3.0603972 6.857081,6.8595235 0,3.799128 -3.057949,6.861906 -6.857081,6.861906 l -3.754767,0 0,-6.011906 0,-0.838095 -1.676192,0 0,0.838095 0,6.850001 0,0.838095 0.838095,0 4.592864,0 c 4.705014,0 8.533273,-3.833087 8.533273,-8.538096 0,-4.7050068 -3.828259,-8.5357141 -8.533273,-8.5357141 l -3.923814,0 z"
       id="path3808-4" />
    <path
       d="m 8.5380948,2.4642859 c -4.705013,0 -8.538106523125,3.830707 -8.538106523125,8.5357141 0,4.705008 3.833093323125,8.538096 8.538106523125,8.538096 l 4.5738152,0 0.838097,0 0,-0.838095 0,-7.69762 0,-0.838095 -0.838097,0 -1.028572,0 -0.838096,0 0,1.676192 0.838096,0 0.190476,0 0,6.021428 -3.7357192,0 C 4.7389636,17.861906 1.676181,14.799127 1.676181,11 c 0,-3.7991264 3.0627824,-6.8595235 6.8619138,-6.8595235 l 3.9190532,0 0.838096,0 0,-1.6761906 -0.838096,0 -3.9190532,0 z"
       id="path3863" />
    <path
       d="m 22.719066,2.2000002 c -3.321036,0 -6.221613,1.8427767 -7.726201,4.5571429 l 1.980956,0 c 1.299587,-1.7496619 3.384598,-2.8809524 5.745245,-2.8809524 2.360736,0 4.447366,1.1311782 5.747626,2.8809524 l 1.980956,0 C 28.942355,4.0427769 26.040102,2.2000002 22.719066,2.2000002 z M 14.995247,15.245239 c 1.505034,2.712815 4.403938,4.554762 7.723819,4.554762 3.31988,0 6.220461,-1.841947 7.726201,-4.554762 l -1.978575,0 c -1.30034,1.748889 -3.38759,2.878571 -5.747626,2.878571 -2.359959,0 -4.44558,-1.12978 -5.745245,-2.878571 l -1.978574,0 z"
       id="path3891" />
    <path
       d="m 26.322297,12.512915 0,0.487619 0.487619,0 0,-0.487619 z"
       id="rect3907" />
    <path
       d="m 21.647636,8.8333337 c -0.309458,0 -0.60526,0.051748 -0.850001,0.1761904 -0.244742,0.1244426 -0.454763,0.3586166 -0.454763,0.657143 l 0,3.1666669 0,0.242857 0.488096,0 0,-0.242857 0,-1.319048 1.635716,0 0,1.319048 0,0.242857 0.488096,0 0,-0.242857 0,-3.1666669 c 0,-0.2985264 -0.210021,-0.5327004 -0.454762,-0.657143 C 22.255277,8.8850816 21.957094,8.8333337 21.647636,8.8333337 z m 0,0.4880951 c 0.24993,0 0.484829,0.049511 0.630953,0.1238097 0.146123,0.074299 0.188095,0.1347275 0.188095,0.2214286 l 0,1.3595239 -1.635716,0 0,-1.3595239 c 0,-0.086701 0.04197,-0.1471299 0.188095,-0.2214286 0.146124,-0.074299 0.378642,-0.1238097 0.628573,-0.1238097 z"
       id="path3913" />
    <path
       d="m 23.588115,8.864286 0,0.4857144 1.090477,0 0,3.7261906 0.488096,0 0,-3.7261906 1.088097,0 0,-0.4857144 -2.66667,0 z"
       id="rect3915-4" />
    <path
       d="m 27.307168,8.8633903 0,0.5333334 0.616667,0 0,3.6794673 0.488097,0 0,-4.2128007 z"
       id="path3957" />
    <path
       d="m 18.240489,8.8333337 c -0.307177,0 -0.617974,0.06948 -0.869049,0.2523808 -0.251077,0.1829005 -0.42143,0.4922267 -0.42143,0.8738096 0,0.4535039 0.237313,0.7743909 0.507145,0.9380959 0.26983,0.163705 0.562455,0.208917 0.733333,0.245238 0.655045,0.139233 0.857145,0.469153 0.857145,0.883333 0,0.282321 -0.235479,0.62381 -0.807144,0.62381 -0.37681,0 -0.571912,-0.08251 -0.669049,-0.171429 -0.09627,-0.08813 -0.135032,-0.204441 -0.135715,-0.385713 l -0.485715,0 c 8.53e-4,0.263627 0.07352,0.544454 0.292858,0.745237 0.220651,0.201985 0.550344,0.3 0.997621,0.3 0.784297,0 1.295239,-0.544008 1.295239,-1.111905 0,-0.614645 -0.431867,-1.186635 -1.245239,-1.359524 -0.186709,-0.03969 -0.416372,-0.08586 -0.580953,-0.185714 -0.164582,-0.09985 -0.273811,-0.215637 -0.273811,-0.5214289 0,-0.2507653 0.08337,-0.380378 0.221429,-0.4809523 0.138064,-0.1005745 0.351827,-0.157143 0.583335,-0.157143 0.235124,0 0.408943,0.044009 0.502381,0.1095239 0.09344,0.065515 0.145238,0.14402 0.145238,0.354762 l 0,0.00714 0.488096,0 0,-0.00714 c 0,-0.3226099 -0.131191,-0.5996718 -0.352382,-0.754762 -0.221189,-0.1550901 -0.494108,-0.197619 -0.783333,-0.197619 z"
       id="path3983" />
    <path
       d="m 60.67864,6.714819 0,8.571429 1.142858,0 0,-3.671428 2.895243,0 0,3.671428 1.142859,0 0,-8.571429 -1.142859,0 0,3.757143 -2.895243,0 0,-3.757143 z"
       id="rect3997" />
    <path
       d="m 67.238173,6.714286 0,1.1428572 0.571429,0 2.857146,0 c 0.357734,0 0.778574,0.4208387 0.778574,0.7785713 l 0,4.7309525 c 0,0.335129 -0.443445,0.776191 -0.778574,0.776191 l -2.285717,0 0,-4.6761911 0,-0.5714285 -1.142858,0 0,0.5714285 0,5.2476191 0,0.571429 0.571429,0 2.857146,0 c 1.053298,0 1.921431,-0.865753 1.921431,-1.919048 l 0,-4.7309525 c 0,-1.0527508 -0.868677,-1.9214285 -1.921431,-1.9214285 l -2.857146,0 -0.571429,0 z"
       id="path4066" />
  </g>
</svg>
