<?xml version="1.0" encoding="UTF-8" standalone="no"?>
<!-- Created with Inkscape (http://www.inkscape.org/) -->

<svg
   xmlns="http://www.w3.org/2000/svg"
   xmlns:xlink="http://www.w3.org/1999/xlink"
   version="1.1"
   width="100%"
   height="100%"
   viewBox="0 0 61 22"
   id="svg2">
  <defs
     id="defs6">
    <linearGradient
       id="linearGradient5119">
      <stop
         id="stop5121"
         style="stop-color:#55f54d;stop-opacity:1"
         offset="0" />
      <stop
         id="stop5123"
         style="stop-color:#3ca156;stop-opacity:1"
         offset="1" />
    </linearGradient>
    <linearGradient
       id="linearGradient4493">
      <stop
         id="stop4495"
         style="stop-color:#67da48;stop-opacity:1"
         offset="0" />
      <stop
         id="stop4497"
         style="stop-color:#30c828;stop-opacity:1"
         offset="1" />
    </linearGradient>
    <radialGradient
       cx="127.79425"
       cy="18.433277"
       r="194.5625"
       fx="127.79425"
       fy="18.433277"
       id="radialGradient3134"
       xlink:href="#linearGradient4493"
       gradientUnits="userSpaceOnUse"
       gradientTransform="matrix(1.3968353,1.2987681,-10.104996,11.788383,829.96796,-258.0506)" />
    <radialGradient
       cx="268.73239"
       cy="141.77924"
       r="16.609968"
       fx="268.73239"
       fy="141.77924"
       id="radialGradient3140"
       xlink:href="#linearGradient5119"
       gradientUnits="userSpaceOnUse"
       gradientTransform="matrix(-0.08076606,24.465367,-26.87728,-0.08857332,4102.0778,-6427.9064)" />
  </defs>
  <g
     transform="matrix(0.05301203,0,0,0.05301203,0,5.8313233e-6)"
     id="g3124">
    <path
       d="m 928.44968,-1.1e-4 c -114.60323,0 -207.5004,92.901038 -207.5004,207.5001 0,114.59896 92.89717,207.50001 207.5004,207.50001 l 207.50032,0 0,-207.50001 c 0,-114.599062 -92.8971,-207.5001 -207.50032,-207.5001 z"
       id="path3675"
       style="fill:url(#radialGradient3134)" />
    <g
       id="g3116"
       style="fill:#ffffff" >
      <path
         d="m 784.74974,126.72361 c -8.69644,0.125 -16.47937,8.1785 -16.35417,16.8749 l 0,128.7498 c -0.125,8.7752 7.78643,16.8749 16.5625,16.8749 8.77609,0 16.79166,-8.0997 16.66666,-16.8749 l 0,-47.7083 85.93748,0 0,47.7083 c -0.125,8.7752 7.78643,16.8749 16.56249,16.8749 8.7761,0 16.79166,-8.0997 16.66666,-16.8749 l 0,-128.7498 c 0.1273,-8.8554 -8.01949,-17.0023 -16.87499,-16.8749 -8.69643,0.125 -16.47936,8.1785 -16.35416,16.8749 l 0,47.8124 -85.93748,0 0,-47.8124 c 0.1273,-8.8554 -8.0195,-17.0023 -16.87499,-16.8749 z m 0.3125,8.8541 c 2.76136,0 5,2.2387 5,5 l 0,62.3957 109.16663,0 0,-62.3957 c 0,-2.7613 2.23864,-5 5,-5 2.76137,0 5,2.2387 5,5 l 0,134.7914 c 0,2.7615 -2.23863,5 -5,5 -2.76136,0 -5,-2.2385 -5,-5 l 0,-62.3957 -109.16663,0 0,62.3957 c 0,2.7615 -2.23864,5 -5,5 -2.76138,0 -5,-2.2385 -5,-5 l 0,-134.7914 c 0,-2.7613 2.23862,-5 5,-5 z"
         id="path4934" />
      <path
         d="m 962.95469,126.69771 c -8.6976,0 -16.47936,8.1783 -16.35416,16.875 l 0,128.7498 c -0.125,8.7754 7.78616,16.8749 16.56249,16.8749 l 71.35408,0 c 41.82,0 74.4792,-37.2963 74.4792,-81.2498 0,-43.9535 -32.6592,-81.2499 -74.4792,-81.2499 z m 0.8333,12.1875 70.72911,0 c 33.4997,0 62.2926,31.8403 62.2926,69.0624 0,37.2221 -28.7929,69.064 -62.2926,69.064 l -70.72911,0 c -1.76056,0 -5.02166,-3.3455 -4.99833,-5.1058 l 0,-128.0206 c -0.027,-1.7445 3.25357,-5 4.99833,-5 z m 5.00167,10 0,118.1264 65.72744,0 c 29.8177,0 52.2925,-25.5238 52.2925,-59.064 0,-33.5402 -22.4748,-59.0624 -52.2925,-59.0624 z m 11.04,12.1875 54.68744,0 c 21.3944,0 40.1042,19.9838 40.1042,46.8749 0,26.8911 -18.7098,46.8749 -40.1042,46.8749 l -54.68744,0 z"
         id="rect4145-5" />
    </g>
    <g
       id="g3116"
       style="fill:url(#radialGradient3140)" >
      <path
         d="m 551.34142,126.78991 a 16.885983,16.610434 0 0 0 -9.82148,29.2246 l 60.31237,51.903 -60.31237,51.9017 a 16.885983,16.610434 0 1 0 22.24326,24.9936 l 63.72098,-54.8567 63.72208,54.8567 a 16.885983,16.610434 0 1 0 22.24173,-24.9936 l -60.31322,-51.9017 60.31322,-51.903 a 16.885983,16.610434 0 0 0 -12.01337,-29.2246 16.885983,16.610434 0 0 0 -10.22836,4.2319 l -63.72208,54.8568 -63.72098,-54.8568 a 16.885983,16.610434 0 0 0 -12.42178,-4.2319 z"
         id="path4318" />
      <path
         d="m 338.87002,126.78991 a 16.895256,16.610434 0 0 0 -9.8279,29.2246 l 60.34585,51.903 -60.34585,51.9017 a 16.895256,16.610434 0 1 0 22.25464,24.9936 l 63.75641,-54.8567 63.75664,54.8567 a 16.895256,16.610434 0 1 0 22.25431,-24.9936 l -60.34525,-51.9017 60.34525,-51.903 a 16.895256,16.610434 0 0 0 -12.01957,-29.2246 16.895256,16.610434 0 0 0 -10.23474,4.2319 l -63.75664,54.8568 -63.75641,-54.8568 a 16.895256,16.610434 0 0 0 -12.42674,-4.2319 z"
         id="path4316" />
      <path
         d="m 270.25248,126.71981 a 16.609963,16.609933 0 0 0 -16.36946,16.8473 l 0,128.7946 a 16.609963,16.609933 0 1 0 33.21656,0 l 0,-128.7946 a 16.609963,16.609933 0 0 0 -16.8471,-16.8469 z"
         id="path4314" />
      <path
         d="m 170.91864,126.95061 c -30.04936,0 -52.54055,26.6406 -52.54055,56.7729 l 0,46.7925 c 0,8.6555 -2.68577,14.0384 -7.18697,18.1257 -4.50203,4.0867 -11.618664,7.1068 -22.198528,7.1068 l -72.145617,0 c -4.387586,-0.0625 -8.7731506,1.69944 -11.8979674,4.78007 C 1.8241908,263.60921 -2.9972436e-8,267.96924 -2.9972436e-8,272.35726 c 0,4.38802 1.824190829972436,8.74805 4.949007629972436,11.82868 3.1248168,3.08063 7.5103814,4.84255 11.8979674,4.78007 l 72.145617,0 c 17.172808,0 32.992488,-5.2309 44.557068,-15.7305 11.56269,-10.4995 18.04582,-26.0751 18.04582,-42.7195 l 0,-46.7925 c 0,-11.5603 12.39896,-23.5558 19.32316,-23.5558 l 37.13476,0 c 4.38981,0.0661 8.77905,-1.69414 11.90675,-4.77508 3.12771,-3.08095 4.95388,-7.44317 4.95388,-11.83347 0,-4.3903 -1.82617,-8.75253 -4.95388,-11.83347 -3.1277,-3.08094 -7.51694,-4.8412 -11.90675,-4.77508 z"
         id="path3630" />
    </g>
  </g>
</svg>
