<?xml version="1.0" encoding="UTF-8" standalone="no"?>
<!-- Created with Inkscape (http://www.inkscape.org/) -->

<svg
   xmlns="http://www.w3.org/2000/svg"
   version="1.1"
   width="100%"
   height="100%"
   viewBox="0 -10.375 143 22"
   id="svg2">
  <g
     transform="matrix(0.43999931,0,0,0.43999931,3.8987805e-5,-524.32852)"
     id="layer1">
    <path
       d="m 71.467966,1174.6665 243.582424,0 c 0,0 6.29744,0 6.29743,5.7403 l -2e-5,25.3566 c 0,0 4e-5,5.7262 -6.29751,5.7262 l -243.582324,0"
       id="path22548-5"
       style="fill:#ffffff;stroke:#881f16;stroke-width:3.17696261;stroke-linecap:butt;stroke-linejoin:miter;stroke-miterlimit:10;stroke-opacity:1;stroke-dasharray:none" />
    <path
       d="m 73.775266,1174.6001 -66.4922006,0 c 0,0 -5.7610219,0 -5.7610219,5.761 l 0,25.4481 c 0,0 0,5.7468 5.7610219,5.7468 l 66.4922006,0"
       id="path22548"
       style="fill:#881f16;stroke:#881f16;stroke-width:3.04409552;stroke-linecap:butt;stroke-linejoin:miter;stroke-miterlimit:10;stroke-opacity:1;stroke-dasharray:none" />
    <g
       transform="matrix(9.7067977,0,0,-9.7067977,55.006208,1209.2918)"
       id="g22178">
      <path
         d="m 0,0 c -0.014,-0.03 -0.037,-0.075 -0.111,-0.075 l -0.344,0 c -0.034,0 -0.075,0.03 -0.075,0.075 0,0.033 0.007,0.052 0.019,0.074 L -0.123,0.863 -0.978,2.14 -1.419,1.67 -0.855,0.829 c 0.033,-0.044 0.041,-0.067 0.041,-0.09 0,-0.036 -0.041,-0.07 -0.09,-0.07 l -0.388,0 c -0.056,0 -0.09,0.037 -0.127,0.089 l -0.654,0.945 0.725,0.781 c 0.052,0.06 0.101,0.09 0.19,0.09 l 0.418,0 c 0.09,0 0.139,-0.034 0.184,-0.105 L 0.127,1.382 0.613,2.484 c 0.022,0.056 0.056,0.09 0.127,0.09 l 0.347,0 C 1.128,2.574 1.166,2.54 1.166,2.499 1.166,2.476 1.158,2.451 1.143,2.424 L 0,0 z M -2.106,0.863 C -2.106,0.739 -2.2,0.669 -2.3,0.669 l -0.296,0 c -0.033,0 -0.075,0.034 -0.075,0.089 l 0,2.447 c 0,0.149 0.075,0.198 0.207,0.198 l 0.264,0 c 0.056,0 0.094,-0.038 0.094,-0.09 l 0,-2.45 z m -1.252,0.933 c 0.355,-0.082 0.523,-0.265 0.523,-0.567 0,-0.31 -0.212,-0.56 -0.721,-0.56 l -0.964,0 c -0.048,0 -0.071,0.034 -0.071,0.089 l 0,0.183 c 0,0.105 0.057,0.191 0.195,0.191 l 0.87,0 c 0.098,0 0.135,0.044 0.135,0.078 0,0.052 -0.037,0.086 -0.154,0.112 l -0.553,0.12 c -0.343,0.074 -0.526,0.261 -0.526,0.549 0,0.329 0.228,0.583 0.664,0.583 l 0.968,0 c 0.053,0 0.089,-0.034 0.089,-0.09 l 0,-0.183 c 0,-0.105 -0.055,-0.194 -0.197,-0.194 l -0.837,0 c -0.112,0 -0.145,-0.038 -0.145,-0.072 0,-0.055 0.033,-0.078 0.161,-0.108 l 0.563,-0.131"
         id="path22180"
         style="fill:#ffffff" />
    </g>
    <g
       transform="matrix(18.912719,0,0,-18.912719,-156.37627,6996.7198)"
       id="g31676"
       style="fill:#881f16">
      <g
         transform="translate(13.3457,306.3202)"
         id="g22032">
        <path
           d="m 0,0 -0.732,0 0,1.039 0.711,0 c 0.148,0 0.267,-0.118 0.267,-0.266 l 0,-0.085 C 0.246,0.628 0.228,0.577 0.193,0.533 0.241,0.485 0.266,0.421 0.266,0.349 l 0,-0.085 C 0.266,0.116 0.147,0 0,0 m 0.055,0.773 c 0,0.041 -0.035,0.075 -0.076,0.075 l -0.521,0 0,-0.234 0.521,0 c 0.041,0 0.076,0.033 0.076,0.074 l 0,0.085 z M 0.077,0.349 C 0.077,0.389 0.041,0.424 0,0.424 l -0.542,0 0,-0.234 0.542,0 c 0.041,0 0.077,0.032 0.077,0.074 l 0,0.085"
           id="path22034" />
      </g>
      <g
         transform="translate(13.8,307.3591)"
         id="g22036">
        <path
           d="m 0,0 0.192,0 0,-0.69 c 0,-0.086 0.069,-0.158 0.158,-0.158 l 0.342,0 c 0.087,0 0.158,0.072 0.158,0.158 l 0,0.69 0.192,0 0,-0.688 c 0,-0.192 -0.156,-0.351 -0.35,-0.351 l -0.342,0 C 0.156,-1.039 0,-0.88 0,-0.688 L 0,0"
           id="path22038" />
      </g>
      <g
         transform="translate(15.9901,306.3202)"
         id="g22040">
        <path
           d="m 0,0 c -0.024,0 -0.047,0.011 -0.067,0.03 l -0.664,0.679 0,-0.709 -0.191,0 0,0.948 c 0,0.056 0.049,0.094 0.099,0.094 0.024,0 0.047,-0.011 0.065,-0.031 l 0.665,-0.682 0,0.71 0.19,0 0,-0.944 C 0.097,0.038 0.048,0 0,0"
           id="path22042" />
      </g>
      <g
         transform="translate(16.3206,307.3591)"
         id="g22044">
        <path
           d="m 0,0 0.69,0 c 0.193,0 0.352,-0.157 0.352,-0.352 l 0,-0.335 c 0,-0.195 -0.159,-0.352 -0.352,-0.352 L 0,-1.039 0,0 z m 0.192,-0.848 0.498,0 c 0.087,0 0.16,0.074 0.16,0.161 l 0,0.335 c 0,0.088 -0.073,0.162 -0.16,0.162 l -0.498,0 0,-0.658"
           id="path22046" />
      </g>
      <g
         transform="translate(18.517,307.3591)"
         id="g22048">
        <path
           d="m 0,0 0,-0.192 -0.67,0 c -0.041,0 -0.076,-0.032 -0.076,-0.074 l 0,-0.158 0.704,0 0,-0.191 -0.704,0 0,-0.158 c 0,-0.041 0.035,-0.075 0.076,-0.075 l 0.67,0 0,-0.191 -0.67,0 c -0.147,0 -0.266,0.118 -0.266,0.266 l 0,0.507 C -0.936,-0.118 -0.817,0 -0.67,0 L 0,0"
           id="path22050" />
      </g>
      <g
         transform="translate(19.4182,306.3202)"
         id="g22052">
        <path
           d="m 0,0 -0.676,0 0,0.19 0.676,0 c 0.044,0 0.081,0.035 0.081,0.08 l 0,0.041 c 0,0.047 -0.049,0.06 -0.072,0.065 L -0.492,0.474 C -0.628,0.501 -0.72,0.602 -0.72,0.728 l 0,0.042 c 0,0.149 0.122,0.269 0.272,0.269 l 0.677,0 0,-0.191 -0.677,0 c -0.044,0 -0.08,-0.036 -0.08,-0.08 l 0,-0.04 c 0,-0.047 0.051,-0.061 0.074,-0.065 L 0.044,0.565 C 0.178,0.537 0.272,0.438 0.272,0.311 l 0,-0.041 C 0.272,0.119 0.151,0 0,0"
           id="path22054" />
      </g>
      <g
         transform="translate(20.1004,306.3202)"
         id="g22056">
        <path
           d="m 0,0 c -0.124,0 -0.222,0.098 -0.222,0.222 l 0,0.817 0.192,0 0,-0.819 C -0.03,0.204 -0.017,0.19 0,0.19 l 0.628,0 L 0.628,0 0,0"
           id="path22058" />
      </g>
      <path
         d="m 20.894,306.32 0.19,0 0,1.039 -0.19,0 0,-1.039 z"
         id="path22060" />
      <g
         transform="translate(21.6777,306.3202)"
         id="g22062">
        <path
           d="m 0,0 c -0.196,0 -0.352,0.157 -0.352,0.349 l 0,0.338 c 0,0.195 0.156,0.352 0.352,0.352 l 0.69,0 0,-0.191 -0.69,0 c -0.089,0 -0.163,-0.072 -0.163,-0.16 l 0,-0.339 C -0.163,0.261 -0.088,0.19 0,0.19 l 0.501,0 0,0.234 -0.342,0 0,0.19 0.531,0 L 0.69,0 0,0"
           id="path22064" />
      </g>
      <g
         transform="translate(22.8173,306.5544)"
         id="g22066">
        <path
           d="m 0,0 -0.092,-0.234 -0.207,0 c 0.35,0.888 0.352,0.886 0.352,0.889 0.024,0.053 0.065,0.15 0.183,0.15 l 0.078,0 c 0.118,0 0.159,-0.097 0.183,-0.15 0,-0.003 0.001001,-0.001 0.35100085,-0.889 L 0.642,-0.234 0.549,0 z M 0.477,0.186 0.32,0.577 C 0.308,0.607 0.304,0.611 0.299,0.611 l -0.048,0 c -0.005,0 -0.01,-0.004 -0.022,-0.034 l -0.157,-0.391 0.405,0"
           id="path22068" />
      </g>
    </g>
  </g>
  <g
     transform="matrix(0.43999931,0,0,0.37146942,3.7114243e-5,-5.8099691)"
     style="fill:#881f16;"
     id="text4587">
    <path
       d="m 306,29.521 c -1.49029,0 -2.86229,-0.177414 -4.11601,-0.532243 -1.23008,-0.354828 -2.3537,-0.827932 -3.37087,-1.419314 0,-0.922551 0.17741,-1.608553 0.53224,-2.058005 0.37848,-0.473101 0.83976,-0.709653 1.38383,-0.709657 0.28386,4e-6 0.59138,0.05914 0.92256,0.177414 0.35482,0.11828 0.74513,0.248384 1.17093,0.390311 0.44944,0.11828 0.9462,0.236556 1.49028,0.354829 0.56772,0.118279 1.20641,0.177417 1.91607,0.177414 1.70317,3e-6 2.94507,-0.366652 3.7257,-1.099968 0.78061,-0.756963 1.17092,-1.750482 1.17094,-2.98056 -2e-5,-1.230064 -0.42581,-2.1881 -1.27738,-2.874111 -0.8516,-0.709646 -1.91609,-1.064474 -3.19346,-1.064486 -1.04084,1.2e-5 -1.89243,0.141943 -2.55477,0.425795 -0.66235,0.260218 -1.30104,0.615046 -1.91607,1.064485 l -2.73218,-0.958037 1.2419,-12.277067 13.09317,0 c 0.11826,0.4258169 0.1774,0.9817144 0.17742,1.6676941 -2e-5,0.6860225 -0.14195,1.1709544 -0.4258,1.454797 -0.28388,0.2838825 -0.65053,0.4258137 -1.09997,0.4257942 l -8.65781,0 -0.78063,6.3514307 c 0.54407,-0.37847 1.12362,-0.697816 1.73866,-0.958037 0.63869,-0.260193 1.49028,-0.390297 2.55477,-0.390311 1.20641,1.4e-5 2.29455,0.201083 3.26442,0.603208 0.96985,0.378497 1.78596,0.898912 2.44832,1.561246 0.68599,0.638703 1.2064,1.395669 1.56124,2.270902 0.37847,0.851598 0.56771,1.750496 0.56773,2.696697 -2e-5,1.088147 -0.18926,2.105321 -0.56773,3.051525 -0.35484,0.922558 -0.91074,1.738663 -1.66769,2.448317 -0.73333,0.686003 -1.65588,1.230073 -2.76766,1.632211 -1.08815,0.378484 -2.36554,0.567726 -3.83215,0.567726"
       id="path3015" />
  </g>
</svg>
