<?xml version="1.0" encoding="UTF-8" standalone="no"?>
<!-- Created with Inkscape (http://www.inkscape.org/) -->

<svg
   xmlns="http://www.w3.org/2000/svg"
   xmlns:xlink="http://www.w3.org/1999/xlink"
   version="1.1"
   width="100%"
   height="100%"
   viewBox="0 0 121 22"
   id="svg2">
  <defs
     id="defs6">
    <linearGradient
       id="linearGradient3962">
      <stop
         id="stop3964"
         style="stop-color:#505050;stop-opacity:1"
         offset="0" />
      <stop
         id="stop3966"
         style="stop-color:#808080;stop-opacity:1"
         offset="0.11204819" />
      <stop
         id="stop3968"
         style="stop-color:#808080;stop-opacity:1"
         offset="0.94417667" />
      <stop
         id="stop3970"
         style="stop-color:#b4b4b4;stop-opacity:1"
         offset="1" />
    </linearGradient>
    <linearGradient
       id="linearGradient3946">
      <stop
         id="stop3948"
         style="stop-color:#a0a0a0;stop-opacity:1"
         offset="0" />
      <stop
         id="stop3958"
         style="stop-color:#c8c8c8;stop-opacity:1"
         offset="0.11235955" />
      <stop
         id="stop3956"
         style="stop-color:#c8c8c8;stop-opacity:1"
         offset="0.94382024" />
      <stop
         id="stop3950"
         style="stop-color:#f0f0f0;stop-opacity:1"
         offset="1" />
    </linearGradient>
    <linearGradient
       id="linearGradient3898">
      <stop
         id="stop3900"
         style="stop-color:#0d1329;stop-opacity:1"
         offset="0" />
      <stop
         id="stop3908"
         style="stop-color:#202f66;stop-opacity:1"
         offset="0.11200321" />
      <stop
         id="stop3910"
         style="stop-color:#202f66;stop-opacity:1"
         offset="0.94379765" />
      <stop
         id="stop3902"
         style="stop-color:#334ba3;stop-opacity:1"
         offset="1" />
    </linearGradient>
    <linearGradient
       id="linearGradient3890">
      <stop
         id="stop3892"
         style="stop-color:#ffffff;stop-opacity:1"
         offset="0" />
      <stop
         id="stop3894"
         style="stop-color:#ffffff;stop-opacity:0"
         offset="1" />
    </linearGradient>
    <linearGradient
       x1="695.35712"
       y1="-46.142857"
       x2="695.35712"
       y2="-401.85715"
       id="linearGradient4145"
       xlink:href="#linearGradient3962"
       gradientUnits="userSpaceOnUse"
       gradientTransform="matrix(0.04680901,0,0,0.04680901,-0.23436092,21.486027)" />
    <linearGradient
       x1="1189.4546"
       y1="-46"
       x2="1189.4546"
       y2="-402"
       id="linearGradient4149"
       xlink:href="#linearGradient3946"
       gradientUnits="userSpaceOnUse"
       gradientTransform="matrix(0.05136298,0,0,0.04680901,-3.4009943,21.486027)" />
    <linearGradient
       x1="13.928571"
       y1="-46.142857"
       x2="13.928571"
       y2="-402"
       id="linearGradient4153"
       xlink:href="#linearGradient3898"
       gradientUnits="userSpaceOnUse"
       gradientTransform="matrix(0.04717742,0,0,0.04680901,-0.49053103,21.486027)" />
    <radialGradient
       cx="49.82143"
       cy="43.910713"
       r="19.285715"
       fx="49.82143"
       fy="43.910713"
       id="radialGradient4168"
       xlink:href="#linearGradient3890"
       gradientUnits="userSpaceOnUse"
       gradientTransform="matrix(0.02931771,-0.02402373,0.00767425,0.00936538,-0.15279466,4.416969)" />
  </defs>
  <path
     d="M 2.5995899,2.418165 C 1.2799876,2.407035 0.2171303,3.723316 0.2171303,5.032661 l 0,11.936299 c 0,1.309344 1.0628573,2.62563 2.3824596,2.614498 l 29.7144031,-0.250641 0,-16.664009 z"
     id="rect2987"
     style="fill:url(#linearGradient4153)" />
  <path
     d="M 2.2102502,3.167994 A 0.23351232,0.73099488 50.667864 1 1 1.0794242,4.094625 0.23351232,0.73099488 50.667864 0 1 2.2102502,3.167994 z"
     id="path3888"
     style="fill:url(#radialGradient4168)" />
  <rect
     width="88.381012"
     height="16.664009"
     ry="1.3203217"
     x="32.314617"
     y="2.6687982"
     id="rect3871"
     style="fill:url(#linearGradient4149)" />
  <path
     d="m 31.677683,2.668808 c 0,0 -0.140427,0.411098 -0.140427,1.100014 l 0,14.424483 c 0,0.580417 0.140427,1.139512 0.140427,1.139512 l 1.454005,0 c 0,0 -0.140427,-0.568423 -0.140427,-1.139512 l 0,-14.411319 c 0,-0.703109 0.140427,-1.113178 0.140427,-1.113178 z"
     id="rect3883"
     style="fill:url(#linearGradient4145)" />
  <path
     d="m 13.257559,3.927147 c -0.464709,0 -0.88951,0.231318 -0.88951,0.800064 l 0,10.021712 c 0,0.223044 0.241346,0.411559 0.428253,0.411559 l 1.166707,0 c 0.466531,0 0.852591,-0.325963 0.852591,-0.895077 l 0,-10.020321 c 0,-0.224139 -0.204827,-0.317937 -0.390638,-0.317937 z M 7.1763529,7.281089 c -1.7774303,0 -2.7104883,1.092427 -2.7104883,2.405147 0,1.166701 0.7184532,1.969956 2.1525282,2.290671 l 2.289583,0.512046 c 0.4655852,0.104124 0.5599854,0.14218 0.5599854,0.379467 0,0.182155 -0.09459,0.3026 -0.5147635,0.3026 l -3.5502122,0 c -0.5691132,0 -0.7979788,0.354904 -0.7979788,0.818882 l 0,0.741626 c 0,0.185809 0.09211,0.428954 0.3151558,0.428954 l 3.8945883,0 c 2.1034192,0 3.0462132,-1.125009 3.0462132,-2.343546 0,-1.260505 -0.822126,-2.063809 -2.2468414,-2.383204 L 7.3238432,9.920299 C 6.8584736,9.815972 6.7645542,9.778846 6.7645542,9.540833 c 0,-0.181413 0.094226,-0.276135 0.514764,-0.276135 l 3.4068938,0 c 0.567654,0 0.890902,-0.380968 0.890902,-0.846047 l 0,-0.739541 c 0,-0.186177 -0.186094,-0.398021 -0.408774,-0.398021 z M 18.619399,7.250169 c -0.350814,0 -0.601241,0.186584 -0.809884,0.41156 l -2.972076,3.191221 2.665964,3.884846 c 0.153891,0.224255 0.345309,0.422693 0.578213,0.422693 l 1.588306,0 c 0.237648,0 0.413298,-0.188553 0.413298,-0.388603 0,-0.122657 -0.06168,-0.200925 -0.138445,-0.315154 l -2.303452,-3.427721 1.727388,-1.876983 3.433936,5.150994 -1.594901,3.241968 c -0.04271,0.09637 -0.09253,0.189368 -0.09253,0.282458 0,0.18946 0.232533,0.337076 0.421994,0.337076 l 1.407423,0 c 0.286929,0 0.41068,-0.155065 0.516912,-0.385775 L 28.100621,7.9094 c 0.04557,-0.09696 0.09322,-0.188971 0.09322,-0.283154 0,-0.189098 -0.200177,-0.376078 -0.390368,-0.376078 l -1.418555,0 c -0.284013,0 -0.438429,0.118289 -0.541294,0.349546 L 23.867145,12.043217 21.075257,7.645631 C 20.902952,7.37294 20.72116,7.250157 20.307193,7.250157 z"
     id="path5649"
     style="fill:#ffffff" />
  <path
     d="m 1.9540715,3.135433 c -0.485392,0 -1.36108202,0.674822 -1.4835299,1.774357 -2.292e-5,4.84e-4 2.257e-5,0.0011 0,0.0017 -0.001883,0.03994 -0.002772,0.08099 -0.002772,0.121413 l 0,11.936301 c 0,0.427368 0.10559909,0.827948 0.29145705,1.173146 -0.0171776,-0.108421 -0.0243258,-0.223133 -0.019338,-0.343777 C 0.76897965,17.095165 1.2639889,16.71856 2.9671793,15.854356 5.3614222,14.63951 12.41575,13.368239 14.516839,12.986865 28.056146,10.529298 31.862322,9.563797 45.390357,8.648256 54.802865,8.011243 61.896528,7.64658 71.313185,7.666169 c 8.504985,0.01771 23.827534,0.180697 37.874935,2.073264 4.88061,0.734145 7.28054,1.578118 9.31693,2.959018 1.53858,1.043325 1.48805,3.452954 1.56708,4.712493 0.0119,0.190577 4.4e-4,0.382413 -0.0235,0.570482 0.1367,-0.306521 0.2141,-0.649585 0.2141,-1.012242 l 0,-11.936301 c 0,-0.02679 -4.4e-4,-0.05385 -8.8e-4,-0.08045 -0.17467,-0.60113 -0.74401,-1.696825 -1.74046,-1.696825 -1.21583,0 -0.69891,0.443223 -9.95787,0.443223 l -96.989505,0 C 3.5788427,3.695331 3.331336,3.135466 1.9546958,3.135466 z"
     id="rect3007"
     style="opacity:0.4;fill:#ffffff" />
  <path
     d="M 2.6798711,2.2 C 1.1949043,2.2 0,3.466083 0,5.035879 L 0,16.967046 C 0,18.536839 1.1949043,19.8 2.6798711,19.8 l 115.5303889,0 c 1.48495,0 2.67986,-1.263161 2.67986,-2.832954 l 0,-11.931167 C 120.89012,3.466083 119.69521,2.2 118.21026,2.2 z m 0.0083,0.501424 115.5137789,0 c 1.23842,0 2.21383,1.029506 2.21383,2.337381 0,3.975107 0,7.950213 0,11.92532 0,1.307869 -0.97541,2.334451 -2.21383,2.334451 l -115.5137789,0 c -1.2384229,0 -2.21383713,-1.026582 -2.21383713,-2.334451 0,-3.975107 0,-7.950213 0,-11.92532 0,-1.307875 0.97541423,-2.337381 2.21383713,-2.337381 z"
     id="rect4116"
     style="fill:#333333;stroke:none" />
  <g
     id="g3455">
    <path
       d="m 110.21021,6.646966 c -1.00024,0 -1.80385,0.806536 -1.80385,1.806778 l 0,5.095816 c 0,1.000242 0.80361,1.803855 1.80385,1.803855 l 5.69808,0 0,-1.578738 -5.67176,0 c -0.11114,0 -0.20173,-0.09059 -0.20173,-0.201728 l 0,-1.783389 5.87349,0 0,-1.578739 -5.87349,0 0,-1.783389 c 0,-0.111138 0.0906,-0.198804 0.20173,-0.198804 l 5.67176,0 0,-1.581662 -5.69808,0 z"
       id="path3284"
       style="fill:#202f66" />
    <rect
       width="1.5798042"
       height="8.7064762"
       ry="0"
       x="105.6656"
       y="6.6477585"
       id="rect3286"
       style="fill:#202f66" />
    <path
       d="m 68.827907,6.647766 0,1.57249 3.58674,0 0,7.133983 1.571029,0 0,-7.133983 3.586744,0 0,-1.57249 -3.586744,0 -1.571029,0 -3.58674,0 z"
       id="path3290"
       style="fill:#202f66" />
    <path
       d="m 41.090568,6.647766 c -0.481664,0 -0.832322,0.336603 -0.832322,0.748943 l 0,7.95753 1.591506,0 0,-5.994478 5.662423,5.795539 c 0.142758,0.146157 0.247293,0.198939 0.490032,0.198939 0.481664,0 0.832322,-0.336607 0.832322,-0.748943 l 0,-7.95753 -1.591502,0 0,5.994479 -5.662423,-5.79554 C 41.437833,6.700554 41.333311,6.647766 41.090568,6.647766 z"
       id="path3292"
       style="fill:#202f66" />
    <path
       d="m 53.000621,6.647788 c -1.667076,0 -3.011303,1.341304 -3.011303,3.008374 l 0,2.689704 c 0,1.667069 1.344227,3.008373 3.011303,3.008373 l 3.201326,0 c 1.667072,0 3.008373,-1.341304 3.008373,-3.008373 l 0,-2.689704 c 0,-1.66707 -1.341301,-3.008374 -3.008373,-3.008374 z m -0.04092,1.596282 3.280267,0 c 0.761274,0 1.377011,0.609888 1.377011,1.371164 l 0,2.771559 c 0,0.761276 -0.615737,1.37409 -1.377011,1.37409 l -3.280267,0 c -0.76127,0 -1.374085,-0.612814 -1.374085,-1.37409 l 0,-2.771559 c 0,-0.761276 0.612815,-1.371164 1.374085,-1.371164 z"
       id="path3296"
       style="fill:#202f66" />
    <path
       d="m 60.449511,14.564356 5.490474,0 c 0.61083,0 1.645468,-0.225513 1.645468,-1.500172 l 0,-0.517281 c 0,-2.621411 -6.642399,-0.757042 -6.642399,-3.513049 l 0,-0.324715 c 0,-1.005062 0.940351,-1.270294 1.67864,-1.270294 l 5.274808,0"
       id="path4572"
       style="fill:none;stroke:#202f66;stroke-width:1.57976735" />
    <path
       d="m 81.398507,6.647769 c -0.494934,0 -1.149998,0.344005 -1.443764,1.091231 l -2.994315,7.61524 1.742172,0 0.759185,-1.93087 4.600451,0 0.759181,1.93087 1.742176,0 -2.992854,-7.613775 C 83.281452,7.004631 82.669513,6.647769 82.12551,6.647769 l -0.727003,0 z m 0.16676,1.606132 c 0.0099,-4.4e-4 0.02112,0 0.03366,0 l 0.329124,0 c 0.09794,0 0.103479,0.0062 0.157982,0.144818 l 1.360384,3.458013 -3.368782,0 1.364775,-3.472643 c 0.04264,-0.108518 0.05362,-0.127314 0.122874,-0.130188 z"
       id="rect3010"
       style="fill:#202f66" />
    <path
       d="m 87.39987,6.647765 0,6.901401 c 0,1.000243 0.804826,1.805073 1.805069,1.805073 l 5.324525,0 0,-1.579802 -5.29966,0 c -0.111131,0 -0.200398,-0.08926 -0.200398,-0.200403 l 0,-6.926269 z"
       id="rect3798"
       style="fill:#202f66" />
    <path
       d="m 98.374475,15.35424 c -1.631033,0 -2.929202,-1.306491 -2.929202,-2.904238 l 0,-2.8127 c 0,-1.622711 1.298169,-2.929202 2.929202,-2.929202 l 5.741905,0 0,1.589425 -5.741905,0 c -0.740622,0 -1.35642,0.599155 -1.35642,1.331455 l 0,2.821022 c 0,0.732301 0.624119,1.323134 1.35642,1.323134 l 4.169125,0 0,-1.947254 -2.845991,0 0,-1.581103 4.418771,0 0,5.10946 -5.741905,0"
       id="path22064"
       style="fill:#202f66" />
  </g>
</svg>
