<?xml version="1.0" encoding="UTF-8" standalone="no"?>
<!-- Created with Inkscape (http://www.inkscape.org/) -->

<svg
   xmlns="http://www.w3.org/2000/svg"
   xmlns:xlink="http://www.w3.org/1999/xlink"
   version="1.1"
   width="100%"
   height="100%"
   viewBox="0 -23.5 98 22"
   id="svg2">
  <defs
     id="defs6">
    <linearGradient
       id="linearGradient3962">
      <stop
         id="stop3964"
         style="stop-color:#505050;stop-opacity:1"
         offset="0" />
      <stop
         id="stop3966"
         style="stop-color:#808080;stop-opacity:1"
         offset="0.11204819" />
      <stop
         id="stop3968"
         style="stop-color:#808080;stop-opacity:1"
         offset="0.94417667" />
      <stop
         id="stop3970"
         style="stop-color:#b4b4b4;stop-opacity:1"
         offset="1" />
    </linearGradient>
    <linearGradient
       id="linearGradient3946">
      <stop
         id="stop3948"
         style="stop-color:#a0a0a0;stop-opacity:1"
         offset="0" />
      <stop
         id="stop3958"
         style="stop-color:#c8c8c8;stop-opacity:1"
         offset="0.11235955" />
      <stop
         id="stop3956"
         style="stop-color:#c8c8c8;stop-opacity:1"
         offset="0.94382024" />
      <stop
         id="stop3950"
         style="stop-color:#f0f0f0;stop-opacity:1"
         offset="1" />
    </linearGradient>
    <linearGradient
       id="linearGradient3898">
      <stop
         id="stop3900"
         style="stop-color:#0d1329;stop-opacity:1"
         offset="0" />
      <stop
         id="stop3908"
         style="stop-color:#202f66;stop-opacity:1"
         offset="0.11200321" />
      <stop
         id="stop3910"
         style="stop-color:#202f66;stop-opacity:1"
         offset="0.94379765" />
      <stop
         id="stop3902"
         style="stop-color:#334ba3;stop-opacity:1"
         offset="1" />
    </linearGradient>
    <linearGradient
       id="linearGradient3890">
      <stop
         id="stop3892"
         style="stop-color:#ffffff;stop-opacity:1"
         offset="0" />
      <stop
         id="stop3894"
         style="stop-color:#ffffff;stop-opacity:0"
         offset="1" />
    </linearGradient>
    <linearGradient
       x1="695.35712"
       y1="-46.142857"
       x2="695.35712"
       y2="-401.85715"
       id="linearGradient4145"
       xlink:href="#linearGradient3962"
       gradientUnits="userSpaceOnUse"
       gradientTransform="matrix(0.046809,0,0,0.046809,-0.23436198,-2.013975)" />
    <linearGradient
       x1="1189.4546"
       y1="-46"
       x2="1189.4546"
       y2="-402"
       id="linearGradient4149"
       xlink:href="#linearGradient3946"
       gradientUnits="userSpaceOnUse"
       gradientTransform="matrix(0.03842302,0,0,0.046809,5.0196985,-2.013975)" />
    <linearGradient
       x1="13.928571"
       y1="-46.142857"
       x2="13.928571"
       y2="-402"
       id="linearGradient4153"
       xlink:href="#linearGradient3898"
       gradientUnits="userSpaceOnUse"
       gradientTransform="matrix(0.04710978,0,0,0.046809,-0.44350628,-2.013975)" />
    <radialGradient
       cx="49.82143"
       cy="43.910713"
       r="19.285715"
       fx="49.82143"
       fy="43.910713"
       id="radialGradient4168"
       xlink:href="#linearGradient3890"
       gradientUnits="userSpaceOnUse"
       gradientTransform="matrix(0.02931771,-0.02402373,0.00767425,0.00936538,-0.15279566,-19.083032)" />
  </defs>
  <path
     d="m 2.3352357,-20.831192 c -1.3177573,0 -2.0720954,1.054508 -2.0720954,2.363851 l 0,11.936299 c 0,1.309343 0.8054962,2.363857 2.1232535,2.363857 l 29.9275942,0 0,-16.664007 z"
     id="rect2987"
     style="fill:url(#linearGradient4153)" />
  <path
     d="m 2.2102488,-20.332007 a 0.23351214,0.73099457 50.667864 1 1 -1.1308257,0.926631 0.23351214,0.73099457 50.667864 1 1 1.1308257,-0.926631 z"
     id="path3888"
     style="fill:url(#radialGradient4168)" />
  <rect
     width="66.115036"
     height="16.664007"
     ry="2.0201843"
     x="31.737421"
     y="-20.831198"
     id="rect3871"
     style="fill:url(#linearGradient4149)" />
  <path
     d="m 31.677678,-20.831192 c 0,0 -0.140427,0.411097 -0.140427,1.100013 l 0,14.424484 c 0,0.580413 0.140427,1.13951 0.140427,1.13951 l 1.454005,0 c 0,0 -0.140427,-0.568421 -0.140427,-1.13951 l 0,-14.41132 c 0,-0.703108 0.140427,-1.113177 0.140427,-1.113177 z"
     id="rect3883"
     style="fill:url(#linearGradient4145)" />
  <path
     d="m 13.257556,-19.572854 c -0.464709,0 -0.88951,0.231318 -0.88951,0.800063 l 0,10.021712 c 0,0.223044 0.241346,0.411559 0.428253,0.411559 l 1.166707,0 c 0.466531,0 0.852591,-0.325964 0.852591,-0.895078 l 0,-10.020319 c 0,-0.22414 -0.204827,-0.317937 -0.390638,-0.317937 z m -6.081205,3.353941 c -1.7774302,0 -2.710488,1.092427 -2.710488,2.405147 0,1.166701 0.7184531,1.969956 2.152528,2.290671 l 2.2895826,0.512046 c 0.4655852,0.104124 0.5599854,0.14218 0.5599854,0.379466 0,0.182156 -0.09459,0.302601 -0.5147635,0.302601 l -3.5502117,0 c -0.5691132,0 -0.7979787,0.354904 -0.7979787,0.818882 l 0,0.741626 c 0,0.185809 0.09211,0.428954 0.3151557,0.428954 l 3.8945878,0 c 2.1034184,0 3.0462134,-1.125009 3.0462134,-2.343547 0,-1.260505 -0.822127,-2.063808 -2.2468416,-2.383203 l -2.2902792,-0.513433 c -0.4653695,-0.104327 -0.5592888,-0.141453 -0.5592888,-0.379466 0,-0.181413 0.094226,-0.276135 0.5147634,-0.276135 l 3.4068942,0 c 0.567653,0 0.890901,-0.380968 0.890901,-0.846047 l 0,-0.739541 c 0,-0.186176 -0.186093,-0.398021 -0.408774,-0.398021 z m 11.443045,-0.03091 c -0.350814,0 -0.601242,0.186584 -0.809884,0.411559 l -2.972076,3.191222 2.665964,3.884845 c 0.153891,0.224255 0.345309,0.422694 0.578212,0.422694 l 1.588306,0 c 0.237648,0 0.413298,-0.188554 0.413298,-0.388604 0,-0.122656 -0.06168,-0.200925 -0.138444,-0.315154 l -2.303453,-3.427721 1.727388,-1.876983 3.433936,5.150995 -1.594901,3.241968 c -0.04271,0.09637 -0.09253,0.189367 -0.09253,0.282456 0,0.189461 0.232533,0.337075 0.421994,0.337075 l 1.407423,0 c 0.286928,0 0.41068,-0.155063 0.516912,-0.38577 l 4.639075,-9.869352 c 0.04558,-0.09696 0.09322,-0.188971 0.09322,-0.283154 0,-0.189098 -0.200178,-0.376078 -0.390369,-0.376078 l -1.418555,0 c -0.284013,0 -0.438429,0.118289 -0.541293,0.349547 l -1.976478,4.443502 -2.791888,-4.397585 c -0.172304,-0.272692 -0.354097,-0.395475 -0.768064,-0.395475 z"
     id="path5649"
     style="fill:#ffffff" />
  <path
     d="m 2.2010057,-21.3 c -1.21961911,0 -2.2010069573242,1.266083 -2.2010069573242,2.835877 l 0,11.931167 C -1.2573242e-6,-4.963162 0.98138659,-3.7 2.2010057,-3.7 l 93.4326243,0 c 1.219618,0 2.201003,-1.263162 2.201003,-2.832956 l 0,-11.931167 c 0,-1.569794 -0.981385,-2.835877 -2.201003,-2.835877 z m 0.00681,0.501424 93.4189943,0 c 1.017131,0 1.818243,1.029506 1.818243,2.337379 0,3.975107 0,7.950213 0,11.92532 0,1.307868 -0.801112,2.334453 -1.818243,2.334453 l -93.4189943,0 c -1.0171301,0 -1.81824834,-1.026585 -1.81824834,-2.334453 0,-3.975107 0,-7.950213 0,-11.92532 0,-1.307873 0.80111824,-2.337379 1.81824834,-2.337379 z"
     id="rect4116"
     style="fill:#333333" />
  <path
     d="m 43.783151,-16.852427 c -0.494934,0 -1.149997,0.344006 -1.443764,1.091232 l -2.994315,7.615239 1.742173,0 0.759185,-1.93087 4.600449,0 0.759181,1.93087 1.742175,0 -2.992853,-7.613775 c -0.289287,-0.735834 -0.901226,-1.092696 -1.445229,-1.092696 l -0.727002,0 z m 0.166758,1.606134 c 0.0099,-4.84e-4 0.02112,0 0.03364,0 l 0.329125,0 c 0.09793,0 0.103479,0.0062 0.157982,0.144814 l 1.360383,3.458016 -3.368783,0 1.364775,-3.472643 c 0.04265,-0.108519 0.05362,-0.127316 0.122874,-0.130187 z"
     id="rect3010"
     style="fill:#202f66" />
  <path
     d="m 58.214103,-16.852427 0,1.572489 3.586739,0 0,7.133982 1.571029,0 0,-7.133982 3.586743,0 0,-1.572489 -3.586743,0 -1.571029,0 -3.586739,0 z"
     id="rect3793"
     style="fill:#202f66" />
  <rect
     width="1.5798039"
     height="8.7064753"
     ry="0"
     x="68.254326"
     y="-16.85243"
     id="rect3807"
     style="fill:#202f66" />
  <path
     d="m 52.357232,-16.852427 c -1.667072,0 -3.008949,1.34187 -3.008949,3.008939 l 0,2.688593 c 0,1.667069 1.341877,3.008939 3.008949,3.008939 l 4.714538,0 0,-1.594428 -4.754037,0 c -0.761275,0 -1.375013,-0.61228 -1.375013,-1.37355 l 0,-2.770509 c 0,-0.761276 0.613738,-1.373557 1.375013,-1.373557 l 4.754037,0 0,-1.594427 -4.714538,0 z"
     id="rect3809"
     style="fill:#202f66" />
  <path
     d="m 83.326865,-16.852427 c -0.481663,0 -0.832321,0.336602 -0.832321,0.748942 l 0,7.957529 1.591506,0 0,-5.994477 5.662422,5.795538 c 0.142758,0.146157 0.247293,0.198939 0.490032,0.198939 0.481664,0 0.832322,-0.336607 0.832322,-0.748942 l 0,-7.957529 -1.591502,0 0,5.994477 -5.662422,-5.795538 c -0.142771,-0.146151 -0.247293,-0.198939 -0.490037,-0.198939 z"
     id="path3826"
     style="fill:#202f66" />
  <path
     d="m 74.624602,-16.853225 c -1.667076,0 -3.011302,1.341304 -3.011302,3.008373 l 0,2.689704 c 0,1.667069 1.344226,3.008372 3.011302,3.008372 l 3.201326,0 c 1.667072,0 3.008372,-1.341303 3.008372,-3.008372 l 0,-2.689704 c 0,-1.667069 -1.3413,-3.008373 -3.008372,-3.008373 z m -0.04092,1.596282 3.280266,0 c 0.761275,0 1.377011,0.609887 1.377011,1.371163 l 0,2.771559 c 0,0.761276 -0.615736,1.37409 -1.377011,1.37409 l -3.280266,0 c -0.76127,0 -1.374084,-0.612814 -1.374084,-1.37409 l 0,-2.771559 c 0,-0.761276 0.612814,-1.371163 1.374084,-1.371163 z"
     id="path4163"
     style="fill:#202f66" />
  <path
     d="m 1.6892061,-20.364567 c -0.3988945,0 -1.11853526,0.674821 -1.21916282,1.774355 -1.848e-5,4.84e-4 1.848e-5,0.0011 0,0.0017 -0.00154,0.03994 -0.002288,0.08099 -0.002288,0.121413 l 0,11.936299 c 0,0.427369 0.0867812,0.827948 0.23951884,1.173149 -0.0141196,-0.108417 -0.0199936,-0.22313 -0.0158928,-0.343773 0.0239052,-0.703411 0.43070468,-1.080016 1.83038418,-1.944222 1.9676005,-1.214846 7.7648355,-2.486116 9.4915075,-2.867492 11.126581,-2.457566 14.25449,-3.423067 25.371808,-4.338608 7.735185,-0.637013 13.564745,-1.001676 21.303333,-0.982087 6.989387,0.01771 18.129412,0.180698 29.673538,2.073264 4.010873,0.734145 5.983138,1.578118 7.656643,2.959018 1.264397,1.043324 1.222874,3.452955 1.287809,4.712491 0.0098,0.190578 4.4e-4,0.382415 -0.01932,0.570484 0.112337,-0.306522 0.175948,-0.649583 0.175948,-1.012243 l 0,-11.936299 c 0,-0.02679 -4.4e-4,-0.05385 -8.8e-4,-0.08045 -0.143542,-0.60113 -0.61142,-1.696824 -1.430304,-1.696824 -0.999166,0 -0.574368,0.443223 -8.183367,0.443223 l -78.2537932,0 c -6.5703821,-0.0035 -6.7737822,-0.563365 -7.9051032,-0.563365 z"
     id="rect3007"
     style="opacity:0.4;fill:#ffffff" />
</svg>
