<?xml version="1.0" encoding="UTF-8" standalone="no"?>
<!-- Created with Inkscape (http://www.inkscape.org/) -->

<svg
   xmlns="http://www.w3.org/2000/svg"
   version="1.1"
   width="100%"
   height="100%"
   viewBox="0 0 90 22"
   style="fill:#000000"
   id="svg2">
  <path
     d="m 10.929679,2.2 c -0.562557,0 -0.9643831,0.32146 -0.9643831,0.964383 V 15.621003 c 0,0.241094 0.1607321,0.401826 0.4018261,0.401826 h 1.446574 c 0.562562,0 0.964388,-0.32146 0.964388,-0.964383 V 2.6018261 c 0.08036,-0.32146 -0.160732,-0.401826 -0.321464,-0.401826 H 10.929679 z M 3.3753412,6.4593591 C 1.1251152,6.4593591 0,7.7452061 0,9.352508 c 0,1.446579 0.88402159,2.330596 2.652056,2.732422 l 2.8931496,0.642924 c 0.5625576,0.160727 0.7232896,0.321459 0.7232896,0.562557 0,0.241094 -0.160732,0.401826 -0.7232896,0.401826 H 1.2054812 c -0.7232896,0 -0.9643876,0.401825 -0.9643876,0.964383 v 0.964383 c 0,0.241094 0.080366,0.401826 0.4018256,0.401826 h 4.8219204 c 2.6520559,0 3.6968051,-1.285847 3.6968051,-2.812784 0,-1.607307 -0.8840216,-2.491324 -2.6520559,-2.893149 L 3.5360732,9.754334 C 2.9735156,9.673972 2.812788,9.51324 2.812788,9.19178 c 0,-0.241098 0.1607276,-0.401825 0.7232852,-0.401825 h 4.2593627 c 0.7232852,0 0.9643832,-0.40183 0.9643832,-0.964388 V 6.8611881 c 0,-0.241098 -0.08037,-0.401829 -0.40183,-0.401829 H 3.3753412 z m 14.3050248,0 c -0.401826,0 -0.642924,0.08037 -0.964388,0.401829 l -3.6968,4.0182609 3.294975,4.82192 c 0.160732,0.241094 0.321464,0.401826 0.642928,0.401826 h 2.009128 c 0.321464,0 0.482191,-0.08037 0.482191,-0.401826 0,-0.160732 -0.08037,-0.241098 -0.160727,-0.401825 l -2.97352,-4.259363 2.25023,-2.410958 4.339724,6.429223 -1.928766,4.09863 c -0.08037,0.08037 -0.08037,0.241094 -0.08037,0.32146 0,0.241098 0.160732,0.321464 0.401826,0.321464 h 1.768038 c 0.321464,0 0.482192,-0.160732 0.642924,-0.40183 L 29.413692,7.1022821 c 0.08037,-0.160728 0.08037,-0.241094 0.08037,-0.321464 0,-0.241094 -0.160732,-0.321459 -0.401825,-0.321459 h -1.768035 c -0.321464,0 -0.482191,0.160731 -0.642923,0.401829 L 24.189955,12.40639 20.734247,6.9415541 C 20.493149,6.6200901 20.252056,6.4593591 19.76986,6.4593591 h -2.089494 z"
     id="path5649" />
  <g
     transform="scale(0.396,0.484)"
     id="text3090">
    <path
       d="m 82.48,30.400001 0,0 c 1.599998,1.279998 4.080003,2.76 7.24,2.8 l 0,0 c 1.919998,0 3.520001,-0.560001 4.88,-1.56 l 0,0 c 1.319999,-0.999999 2.24,-2.320002 2.24,-3.96 l 0,0 c 0,-1.639999 -0.920001,-3.160001 -2.2,-4 l 0,0 c -1.359999,-0.759999 -2.880002,-1.320001 -4.76,-1.6 l -0.08,0 0,0 c -1.799998,-0.28 -3.120001,-0.760001 -4,-1.36 l 0,0 c -0.759999,-0.6 -1.12,-1.160001 -1.12,-1.96 l 0,0 c 0,-0.799999 0.440001,-1.600001 1.24,-2.24 l 0,0 c 0.839999,-0.68 2.120002,-1.12 3.72,-1.12 l 0,0 c 1.919998,0 3.360001,1.000001 4.8,1.96 l 0,0 c 0.44,0.279999 1.04,0.159999 1.32,-0.28 l 0,0 c 0.28,-0.44 0.16,-1.040001 -0.28,-1.36 l 0,0 c -1.519998,-0.959999 -3.320003,-2.12 -5.84,-2.12 l 0,0 c -1.999998,0 -3.640001,0.520001 -4.8,1.32 l 0,0 c -1.239999,0.919999 -2.12,2.280001 -2.12,3.84 l 0,0 c 0,1.519998 0.880001,2.8 2.12,3.52 l 0,0 c 1.119999,0.799999 2.680002,1.2 4.44,1.52 l 0.08,0.04 0,0 c 1.919998,0.319999 3.320001,0.8 4.16,1.44 l 0,0 c 0.999999,0.839999 1.36,1.480001 1.4,2.4 l 0,0 c 0,0.879999 -0.520001,1.76 -1.48,2.4 l 0,0 c -0.879999,0.719999 -2.200002,1.2 -3.72,1.2 l 0,0 c -2.479998,0 -4.640001,-1.280001 -6,-2.28 l 0,0 c -0.44,-0.36 -1.04,-0.28 -1.36,0.12 l 0,0 c -0.32,0.399999 -0.28,0.92 0.12,1.28"
       id="path2993" />
    <path
       d="m 111.5275,33.200001 c 3.32,0 6.24,-1.760003 7.92,-4.44 0.28,-0.48 0.12,-1.040001 -0.32,-1.36 -0.4,-0.24 -1,-0.16 -1.28,0.32 -1.32,2.199998 -3.72,3.56 -6.32,3.56 -4.04,0 -7.4,-3.240005 -7.6,-7.52 l 16.08,0 c 0.52,0 0.96,-0.360001 0.96,-0.88 l 0,-0.12 0,-0.04 c -0.4,-5.119995 -4.40001,-9.12 -9.44,-9.12 -5.27999,0 -9.52,4.400005 -9.52,9.84 0,5.359994 4.24001,9.76 9.52,9.76 m 0,-17.68 c 3.6,0 6.72,2.680003 7.36,6.36 l -14.84,0 c 0.72,-3.719997 3.8,-6.36 7.48,-6.36"
       id="path2995" />
    <path
       d="m 128.0625,32.240001 0,0 c 0,0.519999 0.44,0.96 0.96,0.96 l 0,0 c 0.56,0 1,-0.440001 1,-0.96 l 0,-26.0800002 0,0 c 0,-0.5199995 -0.44,-0.96 -1,-0.96 l 0,0 c -0.52,0 -0.96,0.4400005 -0.96,0.96 l 0,26.0800002"
       id="path2997" />
    <path
       d="m 147.62125,33.200001 c 3.32,0 6.24,-1.760003 7.92,-4.44 0.28,-0.48 0.12,-1.040001 -0.32,-1.36 -0.4,-0.24 -1,-0.16 -1.28,0.32 -1.32,2.199998 -3.72,3.56 -6.32,3.56 -4.04,0 -7.4,-3.240005 -7.6,-7.52 l 16.08,0 c 0.52,0 0.96,-0.360001 0.96,-0.88 l 0,-0.12 0,-0.04 c -0.4,-5.119995 -4.40001,-9.12 -9.44,-9.12 -5.27999,0 -9.52,4.400005 -9.52,9.84 0,5.359994 4.24001,9.76 9.52,9.76 m 0,-17.68 c 3.6,0 6.72,2.680003 7.36,6.36 l -14.84,0 c 0.72,-3.719997 3.8,-6.36 7.48,-6.36"
       id="path2999" />
    <path
       d="m 172.55625,33.200001 0,0 c 0,0 0,0 0,0 l 0,0 c 2.32,0 4.52,-0.800002 6.16,-2.08 l 0,0 c 0.48,-0.36 0.56,-0.960001 0.2,-1.4 l 0,0 c -0.32,-0.36 -0.88,-0.48 -1.32,-0.16 l 0,0 0,0 c -1.4,1.079999 -3.16,1.72 -5.04,1.72 l 0,0 c -4.56,0 -8.16,-3.520005 -8.16,-7.92 l 0,0 c 0,-4.319996 3.6,-7.88 8.16,-7.88 l 0,0 c 1.88,0 3.64,0.640001 5.04,1.76 l 0,0 c 0.44,0.319999 1,0.199999 1.32,-0.16 l 0,0 c 0.36,-0.44 0.28,-1.040001 -0.12,-1.32 l 0,0 c -1.72,-1.359999 -3.92,-2.16 -6.24,-2.16 l 0,0 c -5.59999,0 -10.08,4.320005 -10.08,9.76 l 0,0 c 0,5.519994 4.48001,9.84 10.08,9.84"
       id="path3001" />
    <path
       d="m 192.56875,13.600001 -2.52,0 0,-7.2800002 c 0,-0.4799996 -0.52,-0.96 -1.04,-0.96 -0.48,0 -0.96,0.4800004 -0.96,0.96 l 0,7.2800002 -2.44,0 c -0.96,0 -0.96,0.48 -0.96,0.96 0,0.479999 0,0.96 0.96,0.96 l 2.44,0 0,14.28 c 0,1.959998 1.48,3.4 3.44,3.4 0.48,0 1,-0.480001 1,-0.96 0,-0.48 -0.52,-1 -1,-1 -0.48,0 -1.44,-0.480001 -1.44,-1.44 l 0,-14.28 2.52,0 c 0.48,0 0.96,-0.480001 0.96,-0.96 0,-0.48 -0.48,-0.96 -0.96,-0.96"
       id="path3003" />
  </g>
  <g
     transform="scale(0.396,0.484)"
     id="text3862">
    <path
       d="m 222.96,32.560001 c 0.16,0.399999 0.56,0.64 0.92,0.64 0.12,0 0.2,-0.04 0.36,-0.04 0.48,-0.2 0.72,-0.800001 0.52,-1.28 L 215.04,5.9200008 c -0.12,-0.3599997 -0.52,-0.6 -0.96,-0.6 -0.4,0 -0.8,0.2400003 -0.96,0.6 L 203.4,31.880001 c -0.2,0.479999 0.08,1.08 0.56,1.28 0.12,0 0.28,0.04 0.36,0.04 0.4,0 0.76,-0.240001 0.92,-0.64 l 2.48,-6.6 12.76,0 2.48,6.6 m -8.84,-23.6000002 5.64,15.0400002 -11.32,0 5.68,-15.0400002"
       id="path3206" />
  </g>
</svg>
