<?xml version="1.0" encoding="UTF-8" standalone="no"?>
<!-- Created with Inkscape (http://www.inkscape.org/) -->

<svg
   xmlns="http://www.w3.org/2000/svg"
   xmlns:xlink="http://www.w3.org/1999/xlink"
   version="1.1"
   width="100%"
   height="100%"
   viewBox="0 0 120 22"
   id="svg2">
  <defs
     id="defs6">
    <linearGradient
       id="linearGradient3962">
      <stop
         id="stop3964"
         style="stop-color:#505050;stop-opacity:1"
         offset="0" />
      <stop
         id="stop3966"
         style="stop-color:#808080;stop-opacity:1"
         offset="0.11204819" />
      <stop
         id="stop3968"
         style="stop-color:#808080;stop-opacity:1"
         offset="0.94417667" />
      <stop
         id="stop3970"
         style="stop-color:#b4b4b4;stop-opacity:1"
         offset="1" />
    </linearGradient>
    <linearGradient
       id="linearGradient3946">
      <stop
         id="stop3948"
         style="stop-color:#a0a0a0;stop-opacity:1"
         offset="0" />
      <stop
         id="stop3958"
         style="stop-color:#c8c8c8;stop-opacity:1"
         offset="0.11235955" />
      <stop
         id="stop3956"
         style="stop-color:#c8c8c8;stop-opacity:1"
         offset="0.94382024" />
      <stop
         id="stop3950"
         style="stop-color:#f0f0f0;stop-opacity:1"
         offset="1" />
    </linearGradient>
    <linearGradient
       id="linearGradient3898">
      <stop
         id="stop3900"
         style="stop-color:#0d1329;stop-opacity:1"
         offset="0" />
      <stop
         id="stop3908"
         style="stop-color:#202f66;stop-opacity:1"
         offset="0.11200321" />
      <stop
         id="stop3910"
         style="stop-color:#202f66;stop-opacity:1"
         offset="0.94379765" />
      <stop
         id="stop3902"
         style="stop-color:#334ba3;stop-opacity:1"
         offset="1" />
    </linearGradient>
    <linearGradient
       id="linearGradient3890">
      <stop
         id="stop3892"
         style="stop-color:#ffffff;stop-opacity:1"
         offset="0" />
      <stop
         id="stop3894"
         style="stop-color:#ffffff;stop-opacity:0"
         offset="1" />
    </linearGradient>
    <linearGradient
       x1="695.35712"
       y1="-46.142857"
       x2="695.35712"
       y2="-401.85715"
       id="linearGradient4145"
       xlink:href="#linearGradient3962"
       gradientUnits="userSpaceOnUse"
       gradientTransform="matrix(0.04680901,0,0,0.04680901,-0.23436092,21.486027)" />
    <linearGradient
       x1="1189.4546"
       y1="-46"
       x2="1189.4546"
       y2="-402"
       id="linearGradient4149"
       xlink:href="#linearGradient3946"
       gradientUnits="userSpaceOnUse"
       gradientTransform="matrix(0.05059982,0,0,0.04680901,-2.8703255,21.486027)" />
    <linearGradient
       x1="13.928571"
       y1="-46.142857"
       x2="13.928571"
       y2="-402"
       id="linearGradient4153"
       xlink:href="#linearGradient3898"
       gradientUnits="userSpaceOnUse"
       gradientTransform="matrix(0.04717742,0,0,0.04680901,-0.49053103,21.486027)" />
    <radialGradient
       cx="49.82143"
       cy="43.910713"
       r="19.285715"
       fx="49.82143"
       fy="43.910713"
       id="radialGradient4168"
       xlink:href="#linearGradient3890"
       gradientUnits="userSpaceOnUse"
       gradientTransform="matrix(0.02931771,-0.02402373,0.00767425,0.00936538,-0.15279466,4.416968)" />
  </defs>
  <path
     d="M 2.5995899,2.418165 C 1.2799876,2.407035 0.2171303,3.723316 0.2171303,5.03266 l 0,11.9363 c 0,1.309344 1.0628573,2.62563 2.3824596,2.614498 l 29.7144031,-0.250641 0,-16.664009 z"
     id="rect2987"
     style="fill:url(#linearGradient4153)" />
  <path
     d="M 2.2102502,3.167994 A 0.23351219,0.7309947 50.667864 0 1 1.0794242,4.094625 0.23351219,0.7309947 50.667864 1 1 2.2102502,3.167994 z"
     id="path3888"
     style="fill:url(#radialGradient4168)" />
  <rect
     width="87.067825"
     height="16.664009"
     ry="1.3203217"
     x="32.314617"
     y="2.668802"
     id="rect3871"
     style="fill:url(#linearGradient4149)" />
  <path
     d="m 31.677683,2.668808 c 0,0 -0.140427,0.411098 -0.140427,1.100014 l 0,14.424483 c 0,0.580417 0.140427,1.139512 0.140427,1.139512 l 1.454005,0 c 0,0 -0.140427,-0.568423 -0.140427,-1.139512 l 0,-14.41132 c 0,-0.703108 0.140427,-1.113177 0.140427,-1.113177 z"
     id="rect3883"
     style="fill:url(#linearGradient4145)" />
  <path
     d="m 13.257559,3.927146 c -0.464709,0 -0.88951,0.231318 -0.88951,0.800064 l 0,10.021713 c 0,0.223044 0.241346,0.411558 0.428253,0.411558 l 1.166707,0 c 0.466531,0 0.852591,-0.325963 0.852591,-0.895077 l 0,-10.02032 c 0,-0.22414 -0.204827,-0.317938 -0.390638,-0.317938 z M 7.1763529,7.281088 c -1.7774303,0 -2.7104883,1.092427 -2.7104883,2.405147 0,1.166702 0.7184532,1.969956 2.1525282,2.290671 l 2.289583,0.512047 c 0.4655852,0.104123 0.5599854,0.142179 0.5599854,0.379466 0,0.182155 -0.09459,0.302601 -0.5147635,0.302601 l -3.5502122,0 c -0.5691132,0 -0.7979788,0.354904 -0.7979788,0.818882 l 0,0.741626 c 0,0.185808 0.09211,0.428953 0.3151558,0.428953 l 3.8945883,0 c 2.1034192,0 3.0462132,-1.125008 3.0462132,-2.343546 0,-1.260505 -0.822126,-2.063809 -2.2468414,-2.383204 L 7.3238432,9.920299 C 6.8584736,9.815972 6.7645542,9.778845 6.7645542,9.540832 c 0,-0.181412 0.094226,-0.276135 0.514764,-0.276135 l 3.4068938,0 c 0.567654,0 0.890902,-0.380968 0.890902,-0.846046 l 0,-0.739541 c 0,-0.186177 -0.186094,-0.398022 -0.408774,-0.398022 z M 18.619399,7.250178 c -0.350814,0 -0.601241,0.186584 -0.809884,0.411559 l -2.972076,3.191222 2.665964,3.884846 c 0.153891,0.224255 0.345309,0.422693 0.578213,0.422693 l 1.588306,0 c 0.237648,0 0.413298,-0.188553 0.413298,-0.388603 0,-0.122657 -0.06168,-0.200925 -0.138445,-0.315154 l -2.303452,-3.427722 1.727388,-1.876983 3.433936,5.150995 -1.594901,3.241968 c -0.04271,0.09637 -0.09253,0.189368 -0.09253,0.282458 0,0.18946 0.232533,0.337076 0.421994,0.337076 l 1.407423,0 c 0.286929,0 0.41068,-0.155065 0.516912,-0.385775 l 4.639076,-9.86935 c 0.04557,-0.09696 0.09322,-0.188971 0.09322,-0.283154 0,-0.189098 -0.200177,-0.376077 -0.390368,-0.376077 l -1.418555,0 c -0.284013,0 -0.438429,0.118288 -0.541294,0.349546 L 23.867145,12.043225 21.075257,7.64564 C 20.902952,7.372949 20.72116,7.250166 20.307193,7.250166 z"
     id="path5649"
     style="fill:#ffffff" />
  <g
     id="g3631">
    <path
       d="m 63.933045,6.646776 c -1.000243,0 -1.803854,0.806536 -1.803854,1.806778 l 0,5.095816 c 0,1.000241 0.803611,1.803854 1.803854,1.803854 l 5.698075,0 0,-1.578738 -5.671762,0 c -0.111134,0 -0.201728,-0.09059 -0.201728,-0.201728 l 0,-1.783389 5.87349,0 0,-1.578738 -5.87349,0 0,-1.783389 c 0,-0.111138 0.09059,-0.198804 0.201728,-0.198804 l 5.671762,0 0,-1.581662 -5.698075,0 z"
       id="rect3798"
       style="fill:#202f66" />
    <path
       d="m 87.192606,6.647571 c -0.494934,0 -1.149997,0.34401 -1.443764,1.091235 l -2.994315,7.615241 1.742173,0 0.759184,-1.930872 4.600448,0 0.759183,1.930872 1.742176,0 -2.992853,-7.613778 C 89.075547,7.004434 88.463611,6.647571 87.919609,6.647571 l -0.727003,0 z m 0.166758,1.606135 c 0.0099,-4.68e-4 0.02113,0 0.03364,0 l 0.329126,0 c 0.09794,0 0.103482,0.0062 0.157981,0.144815 l 1.360386,3.458016 -3.368785,0 1.364775,-3.472644 c 0.04266,-0.10852 0.05362,-0.127312 0.122874,-0.130187 z"
       id="rect3010"
       style="fill:#202f66" />
    <rect
       width="1.5798041"
       height="8.7064762"
       ry="0"
       x="49.356255"
       y="6.6475735"
       id="rect3807"
       style="fill:#202f66" />
    <path
       d="m 43.188866,6.647571 c -1.667072,0 -3.008948,1.341872 -3.008948,3.008942 l 0,2.688593 c 0,1.667069 1.341876,3.008941 3.008948,3.008941 l 4.714538,0 0,-1.594431 -4.754036,0 c -0.761275,0 -1.375013,-0.61228 -1.375013,-1.373552 l 0,-2.770508 c 0,-0.761274 0.613738,-1.373553 1.375013,-1.373553 l 4.754036,0 0,-1.594432 -4.714538,0 z"
       id="rect3809"
       style="fill:#202f66" />
    <path
       d="m 53.202214,6.647571 c -0.481665,0 -0.83232,0.336606 -0.83232,0.748945 l 0,7.957531 1.591506,0 0,-5.994479 5.662425,5.795541 c 0.142758,0.146152 0.247292,0.198938 0.49003,0.198938 0.481664,0 0.832324,-0.336608 0.832324,-0.748944 l 0,-7.957532 -1.591506,0 0,5.994479 -5.662425,-5.79554 C 53.549485,6.700361 53.444956,6.647571 53.202214,6.647571 z"
       id="path3826"
       style="fill:#202f66" />
    <path
       d="m 72.516703,6.646776 c -0.623827,0.0022 -1.020333,0.376003 -1.020333,1.03495 l 0,7.671498 1.581662,0 0,-5.680533 2.353489,3.642792 c 0.524293,0.811513 1.504678,0.811513 2.028971,0 l 2.353489,-3.642792 0,5.680533 1.581662,0 0,-7.671498 c 0,-0.658947 -0.396506,-1.03277 -1.020333,-1.03495 -0.466701,-0.0016 -0.72718,0.143936 -0.932625,0.461927 L 76.446006,11.745515 73.449328,7.108703 C 73.243883,6.790712 72.983404,6.645145 72.516703,6.646776 z"
       id="rect4522"
       style="fill:#202f66" />
  </g>
  <path
     d="m 95.15069,11.838707 c 0,-0.248999 0.05107,-0.421385 0.153235,-0.517158 0.105344,-0.09896 0.233037,-0.148441 0.383077,-0.148444 l 1.297688,0 0,-1.364724 c -5e-6,-0.150036 0.04469,-0.276133 0.134077,-0.378292 0.09258,-0.10215 0.263366,-0.153227 0.512371,-0.153232 0.111729,5e-6 0.217074,0.0064 0.316039,0.01915 0.102154,0.0096 0.189943,0.02075 0.26337,0.03352 l 0,1.843575 1.790903,0 c 0.0128,0.06385 0.0255,0.140466 0.0383,0.229848 0.016,0.0862 0.0239,0.188351 0.0239,0.306465 -10e-6,0.249005 -0.0527,0.422987 -0.158023,0.521947 -0.105353,0.09896 -0.233046,0.148446 -0.383081,0.148444 l -1.31205,0 0,1.431763 c -4e-6,0.15004 -0.04629,0.276137 -0.138868,0.378292 -0.09258,0.09896 -0.263371,0.148444 -0.512371,0.148444 -0.111734,0 -0.218676,-0.0048 -0.320831,-0.01437 -0.09896,-0.0096 -0.183559,-0.02075 -0.253787,-0.03352 l 0,-1.910614 -1.776536,0 c -0.01276,-0.06385 -0.02552,-0.140461 -0.03832,-0.229849 -0.01276,-0.08938 -0.01914,-0.193134 -0.01914,-0.311253"
     id="path3024"
     style="fill:#202f66" />
  <path
     d="m 101.58062,15.35424 0,-2.775518 c 0,-1.042283 0.79637,-1.9616 1.89138,-2.219242 l 2.57064,-0.603119 c 0.18739,-0.04684 0.63242,-0.175666 0.63242,-0.550419 l 0,-0.304487 c 0,-0.368898 -0.3045,-0.66753 -0.67341,-0.66753 l -4.42103,0 0,-1.586846 4.42103,0 c 1.26483,0 2.27201,1.01886 2.27201,2.266087 l 0,0.292776 c 0,1.018861 -0.8198,1.826923 -1.87967,2.113843 l -2.60578,0.720229 c -0.21666,0.06441 -0.6207,0.187377 -0.6207,0.538708 l 0,1.188671 5.11786,0 0,1.586847 -6.70475,0"
     id="path22260"
     style="fill:#202f66" />
  <path
     d="m 114.28463,15.354234 c -0.1672,0 -0.32917,-0.0088 -0.48591,-0.02647 -0.15674,-0.0088 -0.27691,-0.02206 -0.3605,-0.0397 l 0,-1.932014 -4.73362,0 c -0.0209,-0.07057 -0.0418,-0.158793 -0.0627,-0.264659 -0.0209,-0.105862 -0.0314,-0.229369 -0.0314,-0.370523 0,-0.158793 0.0314,-0.313178 0.0941,-0.463155 0.0627,-0.14997 0.16719,-0.313177 0.31348,-0.48962 l 4.26339,-5.094696 1.84956,0 0,5.399055 1.56743,0 c 0.0522,0.158798 0.0784,0.361704 0.0784,0.608716 -1e-5,0.25584 -0.0679,0.43228 -0.20377,0.529319 -0.1254,0.09704 -0.27692,0.145565 -0.45455,0.145563 l -0.98748,0 0,1.402695 c -1e-5,0.167619 -0.0627,0.30877 -0.18809,0.423455 -0.11495,0.114686 -0.33439,0.172029 -0.65832,0.172029 m -3.79316,-3.268544 2.94675,0 0,-3.519972 -2.94675,3.519972"
     id="path3015"
     style="fill:#202f66" />
  <path
     d="m 1.9407899,3.135433 c -0.4810559,0 -1.3489233,0.674822 -1.47027738,1.774356 -2.262e-5,4.84e-4 2.239e-5,0.0011 0,0.0017 -0.001857,0.03994 -0.002737,0.08099 -0.002737,0.121413 l 0,11.936302 c 0,0.427368 0.10465582,0.827948 0.2888533,1.173146 C 0.73960232,18.033931 0.73251662,17.919219 0.73746042,17.798575 0.76629052,17.095165 1.2568787,16.71856 2.9448541,15.854356 5.3177065,14.63951 12.309017,13.368239 14.391336,12.986864 27.809694,10.529297 31.581868,9.563796 44.989055,8.648255 54.317474,8.011242 61.347773,7.646579 70.680302,7.666168 c 8.429006,0.01771 23.614684,0.180698 37.536598,2.073265 4.83701,0.734145 7.2155,1.578118 9.23369,2.959018 1.52484,1.043324 1.47478,3.452953 1.55309,4.712493 0.0119,0.190577 4.4e-4,0.382413 -0.0233,0.570482 0.13549,-0.306521 0.21218,-0.649585 0.21218,-1.012242 l 0,-11.936301 c 0,-0.02679 -4.4e-4,-0.05385 -0.002,-0.08045 -0.1731,-0.601131 -0.73735,-1.696825 -1.72491,-1.696825 -1.20497,0 -0.69266,0.443223 -9.86892,0.443223 l -96.123069,0 C 3.5502107,3.695331 3.3049149,3.135466 1.9405725,3.135466 z"
     id="rect3007"
     style="opacity:0.4;fill:#ffffff" />
  <path
     d="M 2.6543731,2.2 C 1.1835352,2.2 0,3.466083 0,5.035878 L 0,16.967046 C 0,18.536839 1.1835352,19.8 2.6543731,19.8 l 114.4311669,0 c 1.47082,0 2.65436,-1.263161 2.65436,-2.832954 l 0,-11.931168 C 119.7399,3.466083 118.55636,2.2 117.08554,2.2 z m 0.00822,0.501424 114.4147069,0 c 1.22664,0 2.19277,1.029506 2.19277,2.337381 0,3.975106 0,7.950213 0,11.92532 0,1.307869 -0.96613,2.334451 -2.19277,2.334451 l -114.4147069,0 c -1.2266398,0 -2.19277333,-1.026582 -2.19277333,-2.334451 0,-3.975107 0,-7.950214 0,-11.92532 0,-1.307875 0.96613353,-2.337381 2.19277333,-2.337381 z"
     id="rect4116"
     style="fill:#333333" />
</svg>
