<?xml version="1.0" encoding="UTF-8" standalone="no"?>
<!-- Created with Inkscape (http://www.inkscape.org/) -->

<svg
   xmlns="http://www.w3.org/2000/svg"
   xmlns:xlink="http://www.w3.org/1999/xlink"
   version="1.1"
   width="100%"
   height="100%"
   viewBox="0 0 111 22"
   id="svg2">
  <defs
     id="defs6">
    <linearGradient
       id="linearGradient3962">
      <stop
         id="stop3964"
         style="stop-color:#505050;stop-opacity:1"
         offset="0" />
      <stop
         id="stop3966"
         style="stop-color:#808080;stop-opacity:1"
         offset="0.11204819" />
      <stop
         id="stop3968"
         style="stop-color:#808080;stop-opacity:1"
         offset="0.94417667" />
      <stop
         id="stop3970"
         style="stop-color:#b4b4b4;stop-opacity:1"
         offset="1" />
    </linearGradient>
    <linearGradient
       id="linearGradient3946">
      <stop
         id="stop3948"
         style="stop-color:#a0a0a0;stop-opacity:1"
         offset="0" />
      <stop
         id="stop3958"
         style="stop-color:#c8c8c8;stop-opacity:1"
         offset="0.11235955" />
      <stop
         id="stop3956"
         style="stop-color:#c8c8c8;stop-opacity:1"
         offset="0.94382024" />
      <stop
         id="stop3950"
         style="stop-color:#f0f0f0;stop-opacity:1"
         offset="1" />
    </linearGradient>
    <linearGradient
       id="linearGradient3898">
      <stop
         id="stop3900"
         style="stop-color:#0d1329;stop-opacity:1"
         offset="0" />
      <stop
         id="stop3908"
         style="stop-color:#202f66;stop-opacity:1"
         offset="0.11200321" />
      <stop
         id="stop3910"
         style="stop-color:#202f66;stop-opacity:1"
         offset="0.94379765" />
      <stop
         id="stop3902"
         style="stop-color:#334ba3;stop-opacity:1"
         offset="1" />
    </linearGradient>
    <linearGradient
       id="linearGradient3890">
      <stop
         id="stop3892"
         style="stop-color:#ffffff;stop-opacity:1"
         offset="0" />
      <stop
         id="stop3894"
         style="stop-color:#ffffff;stop-opacity:0"
         offset="1" />
    </linearGradient>
    <linearGradient
       x1="695.35712"
       y1="-46.142857"
       x2="695.35712"
       y2="-401.85715"
       id="linearGradient4145"
       xlink:href="#linearGradient3962"
       gradientUnits="userSpaceOnUse"
       gradientTransform="matrix(0.04680901,0,0,0.04680901,-0.23436092,21.486027)" />
    <linearGradient
       x1="1189.4546"
       y1="-46"
       x2="1189.4546"
       y2="-402"
       id="linearGradient4149"
       xlink:href="#linearGradient3946"
       gradientUnits="userSpaceOnUse"
       gradientTransform="matrix(0.04520907,0,0,0.04680901,0.87816906,21.486027)" />
    <linearGradient
       x1="13.928571"
       y1="-46.142857"
       x2="13.928571"
       y2="-402"
       id="linearGradient4153"
       xlink:href="#linearGradient3898"
       gradientUnits="userSpaceOnUse"
       gradientTransform="matrix(0.04717742,0,0,0.04680901,-0.49053103,21.486027)" />
    <radialGradient
       cx="49.82143"
       cy="43.910713"
       r="19.285715"
       fx="49.82143"
       fy="43.910713"
       id="radialGradient4168"
       xlink:href="#linearGradient3890"
       gradientUnits="userSpaceOnUse"
       gradientTransform="matrix(0.02931771,-0.02402373,0.00767425,0.00936538,-0.15279466,4.416968)" />
  </defs>
  <path
     d="M 2.59959,2.418164 C 1.2799876,2.407034 0.2171303,3.723316 0.2171303,5.03266 l 0,11.9363 c 0,1.309344 1.0628573,2.62563 2.3824597,2.614498 l 29.714404,-0.250641 0,-16.664009 z"
     id="rect2987"
     style="fill:url(#linearGradient4153)" />
  <path
     d="M 2.2102502,3.167993 A 0.23351219,0.73099469 50.667864 1 1 1.0794243,4.094624 0.23351219,0.73099469 50.667864 0 1 2.2102502,3.167993 z"
     id="path3888"
     style="fill:url(#radialGradient4168)" />
  <rect
     width="77.791893"
     height="16.664009"
     ry="1.3203217"
     x="32.314621"
     y="2.668802"
     id="rect3871"
     style="fill:url(#linearGradient4149)" />
  <path
     d="m 31.677683,2.668808 c 0,0 -0.140427,0.411097 -0.140427,1.100013 l 0,14.424484 c 0,0.580417 0.140427,1.139512 0.140427,1.139512 l 1.454006,0 c 0,0 -0.140427,-0.568423 -0.140427,-1.139512 l 0,-14.41132 c 0,-0.703109 0.140427,-1.113177 0.140427,-1.113177 z"
     id="rect3883"
     style="fill:url(#linearGradient4145)" />
  <path
     d="m 13.257559,3.927146 c -0.464709,0 -0.88951,0.231318 -0.88951,0.800064 l 0,10.021713 c 0,0.223044 0.241346,0.411558 0.428253,0.411558 l 1.166707,0 c 0.466531,0 0.852591,-0.325963 0.852591,-0.895077 l 0,-10.020321 c 0,-0.224139 -0.204827,-0.317937 -0.390638,-0.317937 z M 7.176353,7.281088 c -1.7774304,0 -2.7104883,1.092427 -2.7104883,2.405147 0,1.166702 0.7184532,1.969956 2.1525282,2.290671 l 2.289583,0.512047 c 0.4655852,0.104123 0.5599854,0.142179 0.5599854,0.379466 0,0.182155 -0.09459,0.302601 -0.5147635,0.302601 l -3.5502122,0 c -0.5691133,0 -0.7979788,0.354904 -0.7979788,0.818882 l 0,0.741626 c 0,0.185808 0.09211,0.428953 0.3151557,0.428953 l 3.8945884,0 c 2.1034191,0 3.0462141,-1.125008 3.0462141,-2.343546 0,-1.260505 -0.822127,-2.063809 -2.2468422,-2.383204 L 7.3238432,9.920298 C 6.8584737,9.815971 6.7645543,9.778845 6.7645543,9.540832 c 0,-0.181413 0.094226,-0.276135 0.514764,-0.276135 l 3.4068937,0 c 0.567654,0 0.890902,-0.380968 0.890902,-0.846047 l 0,-0.739541 c 0,-0.186176 -0.186094,-0.398021 -0.408774,-0.398021 z m 11.443046,-0.03091 c -0.350813,0 -0.601241,0.186584 -0.809884,0.411559 l -2.972075,3.191222 2.665963,3.884846 c 0.153891,0.224254 0.345309,0.422693 0.578213,0.422693 l 1.588306,0 c 0.237648,0 0.413298,-0.188553 0.413298,-0.388603 0,-0.122657 -0.06168,-0.200926 -0.138445,-0.315154 l -2.303452,-3.427722 1.727388,-1.876983 3.433937,5.150995 -1.594902,3.241968 c -0.04271,0.09637 -0.09253,0.189368 -0.09253,0.282458 0,0.18946 0.232532,0.337076 0.421993,0.337076 l 1.407423,0 c 0.286929,0 0.410681,-0.155065 0.516912,-0.385775 L 28.10062,7.909409 c 0.04558,-0.09696 0.09322,-0.188972 0.09322,-0.283155 0,-0.189098 -0.200177,-0.376077 -0.390369,-0.376077 l -1.418555,0 c -0.284013,0 -0.438429,0.118288 -0.541293,0.349546 L 23.867145,12.043225 21.075258,7.64564 C 20.902953,7.372948 20.72116,7.250165 20.307193,7.250165 z"
     id="path5649"
     style="fill:#ffffff" />
  <g
     id="g3712">
    <path
       d="m 63.933046,6.646776 c -1.000244,0 -1.803855,0.806536 -1.803855,1.806778 l 0,5.095816 c 0,1.000241 0.803611,1.803854 1.803855,1.803854 l 5.698075,0 0,-1.578738 -5.671763,0 c -0.111134,0 -0.201728,-0.09059 -0.201728,-0.201728 l 0,-1.783389 5.873491,0 0,-1.578738 -5.873491,0 0,-1.783389 c 0,-0.111138 0.09059,-0.198804 0.201728,-0.198804 l 5.671763,0 0,-1.581662 -5.698075,0 z"
       id="rect3798"
       style="fill:#202f66" />
    <path
       d="m 87.192607,6.647571 c -0.494935,0 -1.149997,0.34401 -1.443765,1.091235 l -2.994315,7.615241 1.742173,0 0.759185,-1.930872 4.600447,0 0.759184,1.930872 1.742175,0 -2.992853,-7.613778 C 89.075548,7.004434 88.463611,6.647571 87.919609,6.647571 l -0.727002,0 z m 0.166757,1.606135 c 0.0099,-4.68e-4 0.02113,0 0.03364,0 l 0.329126,0 c 0.09794,0 0.103482,0.0062 0.15798,0.144815 l 1.360387,3.458016 -3.368786,0 1.364775,-3.472644 c 0.04266,-0.10852 0.05362,-0.127312 0.122874,-0.130187 z"
       id="rect3010"
       style="fill:#202f66" />
    <rect
       width="1.5798041"
       height="8.7064762"
       ry="0"
       x="49.356255"
       y="6.6475735"
       id="rect3807"
       style="fill:#202f66" />
    <path
       d="m 43.188867,6.647571 c -1.667073,0 -3.008949,1.341872 -3.008949,3.008942 l 0,2.688593 c 0,1.667069 1.341876,3.008941 3.008949,3.008941 l 4.714537,0 0,-1.594431 -4.754036,0 c -0.761275,0 -1.375013,-0.61228 -1.375013,-1.373552 l 0,-2.770508 c 0,-0.761274 0.613738,-1.373553 1.375013,-1.373553 l 4.754036,0 0,-1.594432 -4.714537,0 z"
       id="rect3809"
       style="fill:#202f66" />
    <path
       d="m 53.202215,6.647571 c -0.481666,0 -0.832321,0.336606 -0.832321,0.748945 l 0,7.957531 1.591506,0 0,-5.994479 5.662425,5.795541 c 0.142758,0.146152 0.247293,0.198938 0.49003,0.198938 0.481664,0 0.832325,-0.336608 0.832325,-0.748944 l 0,-7.957532 -1.591507,0 0,5.994479 -5.662425,-5.79554 C 53.549485,6.700361 53.444957,6.647571 53.202215,6.647571 z"
       id="path3826"
       style="fill:#202f66" />
    <path
       d="m 72.516703,6.646776 c -0.623826,0.0022 -1.020332,0.376003 -1.020332,1.03495 l 0,7.671498 1.581661,0 0,-5.680533 2.353489,3.642792 c 0.524293,0.811513 1.504679,0.811513 2.028971,0 l 2.353489,-3.642792 0,5.680533 1.581662,0 0,-7.671498 c 0,-0.658947 -0.396506,-1.03277 -1.020332,-1.03495 -0.466702,-0.0016 -0.727181,0.143936 -0.932625,0.461927 L 76.446007,11.745515 73.449328,7.108703 C 73.243883,6.790712 72.983404,6.645145 72.516703,6.646776 z"
       id="rect4522"
       style="fill:#202f66" />
  </g>
  <path
     d="m 95.150691,11.838707 c 0,-0.248999 0.05108,-0.421385 0.153234,-0.517158 0.105345,-0.09896 0.233037,-0.148441 0.383077,-0.148444 l 1.297688,0 0,-1.364724 c -4e-6,-0.150036 0.04469,-0.276133 0.134077,-0.378292 0.09258,-0.10215 0.263366,-0.153227 0.512371,-0.153232 0.111729,5e-6 0.217074,0.0064 0.316039,0.01915 0.102155,0.0096 0.189944,0.02075 0.263371,0.03352 l 0,1.843575 1.790902,0 c 0.0128,0.06385 0.0255,0.140466 0.0383,0.229848 0.016,0.0862 0.0239,0.188351 0.0239,0.306465 -10e-6,0.249005 -0.0527,0.422987 -0.158022,0.521947 -0.105354,0.09896 -0.233046,0.148446 -0.383082,0.148444 l -1.312049,0 0,1.431763 c -5e-6,0.15004 -0.04629,0.276137 -0.138869,0.378292 -0.09258,0.09896 -0.263371,0.148444 -0.512371,0.148444 -0.111734,0 -0.218676,-0.0048 -0.320831,-0.01437 -0.09896,-0.0096 -0.183559,-0.02075 -0.253787,-0.03352 l 0,-1.910614 -1.776536,0 c -0.01276,-0.06385 -0.02552,-0.140461 -0.03832,-0.229849 -0.01276,-0.08938 -0.01914,-0.193134 -0.01914,-0.311253"
     id="path3024"
     style="fill:#202f66" />
  <path
     d="m 104.39169,15.354233 0,-6.73173 -2.81091,1.152329 0,-1.763772 3.30282,-1.31107 c 0.0761,-0.04115 0.17568,-0.05291 0.27524,-0.05291 0.16396,0 0.33965,0.05291 0.48019,0.141102 l -0.0117,-0.01763 c 0.22838,0.170499 0.35136,0.38215 0.35136,0.658477 l 0,7.925214 -1.587,0"
     id="path22260"
     style="fill:#202f66" />
  <path
     d="m 1.8288618,3.135432 c -0.4445026,0 -1.24642452,0.674823 -1.35855744,1.774357 -2.09e-5,4.84e-4 2.068e-5,0.0011 0,0.0017 -0.001716,0.03994 -0.00253,0.08099 -0.00253,0.121413 l 0,11.936302 c 0,0.427368 0.0967035,0.827948 0.26690461,1.173146 -0.015733,-0.108421 -0.0222801,-0.223133 -0.0177117,-0.343777 C 0.74360707,17.095165 1.1969172,16.71856 2.7566307,15.854356 4.949181,14.63951 11.409253,13.368239 13.333346,12.986864 25.732102,10.529297 29.217645,9.563796 41.606079,8.648255 50.225672,8.011242 56.721767,7.646579 65.345161,7.666168 c 7.788525,0.01771 21.820307,0.180698 34.684359,2.073265 4.46946,0.734145 6.66723,1.578117 8.53206,2.959018 1.40898,1.043324 1.36271,3.452953 1.43508,4.712493 0.011,0.190577 4.4e-4,0.382413 -0.0215,0.570482 0.12519,-0.306521 0.19606,-0.649585 0.19606,-1.012242 l 0,-11.936302 c 0,-0.02679 -4.4e-4,-0.05385 -0.001,-0.08045 -0.15995,-0.60113 -0.68133,-1.696825 -1.59384,-1.696825 -1.11342,0 -0.64003,0.443224 -9.119025,0.443224 l -88.819104,0 C 3.3162894,3.695331 3.0896326,3.135465 1.8289606,3.135465 z"
     id="rect3007"
     style="opacity:0.4;fill:#ffffff" />
  <path
     d="M 2.4526256,2.2 C 1.0935798,2.2 0,3.466083 0,5.035878 L 0,16.967046 C 0,18.536839 1.0935798,19.8 2.4526256,19.8 l 105.7337444,0 c 1.35903,0 2.45261,-1.263161 2.45261,-2.832954 l 0,-11.931168 C 110.63898,3.466083 109.5454,2.2 108.18637,2.2 z m 0.00759,0.501424 105.7185444,0 c 1.13341,0 2.0261,1.029506 2.0261,2.33738 0,3.975107 0,7.950214 0,11.925321 0,1.307869 -0.89269,2.334451 -2.0261,2.334451 l -105.7185444,0 c -1.1334082,0 -2.02611007,-1.026582 -2.02611007,-2.334451 0,-3.975107 0,-7.950214 0,-11.925321 0,-1.307874 0.89270187,-2.33738 2.02611007,-2.33738 z"
     id="rect4116"
     style="fill:#333333" />
</svg>
