<?xml version="1.0" encoding="UTF-8" standalone="no"?>
<!-- Created with Inkscape (http://www.inkscape.org/) -->

<svg
   xmlns="http://www.w3.org/2000/svg"
   version="1.1"
   width="100%"
   height="100%"
   viewBox="0 0 81 22"
   id="svg2">
  <path
     d="m 31.460959,2.9135358 45.9,0 c 0,0 2.892958,0 2.892958,2.5212018 l 0,11.1367934 c 0,0 0,2.514932 -2.892958,2.514932 l -45.9,0"
     id="path22548-5"
     style="fill:#ffffff;stroke:#008888;stroke-width:1.42702818" />
  <path
     d="m 32.461591,2.8697008 -29.256601,0 c 0,0 -2.53485245,0 -2.53485245,2.5348418 l 0,11.1971834 c 0,0 0,2.528572 2.53485245,2.528572 l 29.256601,0"
     id="path22548"
     style="fill:#008888;stroke:#008888;stroke-width:1.33940363" />
  <path
     d="m 24.203196,18.134027 c -0.05979,0.12813 -0.158027,0.320325 -0.474081,0.320325 l -1.469222,0 c -0.145214,0 -0.320325,-0.12813 -0.320325,-0.320325 0,-0.140943 0.0299,-0.222092 0.08115,-0.316054 l 1.657147,-3.369816 -3.651702,-5.4540608 -1.883509,2.0073678 2.408842,3.591907 c 0.140942,0.187924 0.17511,0.286157 0.17511,0.38439 0,0.153756 -0.17511,0.29897 -0.384389,0.29897 l -1.657147,0 c -0.239175,0 -0.384389,-0.158027 -0.542416,-0.380119 l -2.793232,-4.036091 3.096472,-3.3356477 c 0.222091,-0.2562597 0.43137,-0.3843896 0.811489,-0.3843896 l 1.785276,0 c 0.38439,0 0.593669,0.1452139 0.785863,0.4484546 l 2.91709,4.6425727 2.075704,-4.7066377 c 0.09396,-0.2391757 0.239176,-0.3843896 0.542417,-0.3843896 l 1.482035,0 c 0.175111,0 0.337409,0.1452139 0.337409,0.3203247 0,0.098233 -0.03417,0.2050078 -0.09823,0.3203247 L 24.203196,18.134027 z m -8.994717,-3.68587 c 0,0.529604 -0.401474,0.828574 -0.828573,0.828574 l -1.264215,0 c -0.140943,0 -0.320325,-0.145214 -0.320325,-0.380119 l 0,-10.4511266 c 0,-0.6363784 0.320325,-0.8456572 0.884096,-0.8456572 l 1.127543,0 c 0.239176,0 0.401474,0.1622978 0.401474,0.3843896 l 0,10.4639392 z M 9.8611921,10.463318 c 1.5162039,0.350222 2.2337309,1.131814 2.2337309,2.421655 0,1.324009 -0.905451,2.391758 -3.0793881,2.391758 l -4.1172399,0 c -0.2050078,0 -0.3032407,-0.145214 -0.3032407,-0.380119 l 0,-0.781592 c 0,-0.448455 0.2434467,-0.81576 0.8328442,-0.81576 l 3.7157663,0 c 0.4185576,0 0.5765844,-0.187924 0.5765844,-0.333138 0,-0.222092 -0.1580268,-0.367306 -0.6577333,-0.478352 L 6.7006552,11.975251 C 5.2357037,11.659197 4.4541114,10.860521 4.4541114,9.6304742 c 0,-1.405158 0.9737871,-2.4899905 2.8359412,-2.4899905 l 4.1343244,0 c 0.226362,0 0.380118,0.1452139 0.380118,0.3843896 l 0,0.7815919 c 0,0.448455 -0.234905,0.828574 -0.841386,0.828574 l -3.5748235,0 c -0.4783515,0 -0.6192944,0.162297 -0.6192944,0.307511 0,0.234905 0.1409429,0.333138 0.6876304,0.461268 l 2.4045706,0.5594998"
     id="path22180"
     style="fill:#ffffff" />
  <g
     id="g3490">
    <path
       d="m 39.258438,15.251867 0,-7.9540683 c -10e-7,-0.263786 0.08023,-0.4895758 0.240695,-0.6773701 0.160462,-0.1877768 0.461873,-0.2816696 0.904234,-0.2816786 0.186483,9e-6 0.370798,0.00896 0.552948,0.026827 0.182146,0.017894 0.336104,0.040249 0.461876,0.067067 l 0,3.916674 2.478511,-3.3130769 c 0.195153,-0.2637858 0.401153,-0.4471003 0.618002,-0.5499441 0.216835,-0.1072972 0.466205,-0.1609502 0.748107,-0.1609592 0.312246,9e-6 0.581131,0.0246 0.806654,0.073773 0.229846,0.049191 0.442351,0.1251993 0.637518,0.2280255 l -3.122534,4.0508067 3.226618,4.352605 c -0.195166,0.111777 -0.398999,0.198964 -0.611496,0.261559 -0.212513,0.06259 -0.47923,0.09389 -0.800149,0.09389 -0.303586,0 -0.568134,-0.05142 -0.793644,-0.154253 -0.225522,-0.107306 -0.431524,-0.288385 -0.618003,-0.543238 l -2.569584,-3.487449 0,3.185651 c -3e-6,0.263795 -0.08024,0.489585 -0.240696,0.67737 -0.160466,0.187786 -0.464045,0.281679 -0.910739,0.281679 -0.186486,0 -0.370802,-0.009 -0.552949,-0.02683 -0.177812,-0.01788 -0.329602,-0.04024 -0.455369,-0.06707"
       id="path3007"
       style="fill:#008888" />
    <path
       d="m 48.158438,15.251867 0,-7.7864025 c -10e-7,-0.1564801 0.01518,-0.3040259 0.04554,-0.4426378 0.03035,-0.1385953 0.08674,-0.2548436 0.169137,-0.3487449 0.08674,-0.098356 0.208167,-0.1743638 0.364295,-0.2280257 0.156125,-0.053644 0.357789,-0.080471 0.604991,-0.080479 l 2.049164,0 c 0.533428,8.9e-6 1.014818,0.062604 1.444172,0.1877858 0.433679,0.120728 0.802311,0.301807 1.105897,0.5432374 0.30791,0.2369757 0.546437,0.5365383 0.715581,0.8986889 0.169129,0.357694 0.253699,0.775741 0.253705,1.254141 -6e-6,0.715379 -0.175649,1.2988558 -0.526927,1.7504308 -0.351295,0.451584 -0.858706,0.755618 -1.522239,0.912102 l 2.30287,3.131998 c -0.195167,0.102836 -0.420682,0.185551 -0.676549,0.248146 -0.251545,0.06259 -0.529103,0.09389 -0.832676,0.09389 -0.299249,0 -0.546449,-0.05142 -0.741602,-0.154253 -0.195164,-0.107306 -0.381649,-0.292856 -0.559454,-0.556651 l -1.704383,-2.528401 -0.33177,0 0,2.240016 c -3e-6,0.263795 -0.08024,0.489585 -0.240695,0.67737 -0.160466,0.187786 -0.464045,0.281679 -0.910739,0.281679 -0.186487,0 -0.370803,-0.009 -0.552949,-0.02683 -0.177812,-0.01788 -0.329601,-0.04024 -0.45537,-0.06707 m 2.159753,-4.755004 1.008319,0 c 0.533428,5e-6 0.906397,-0.114008 1.118907,-0.342038 0.212501,-0.2280198 0.318754,-0.5074628 0.31876,-0.8383298 -6e-6,-0.348738 -0.112764,-0.625946 -0.338275,-0.831622 -0.225521,-0.205654 -0.555122,-0.308489 -0.988803,-0.308496 l -1.118908,0 0,2.3204948"
       id="path3010"
       style="fill:#008888" />
    <path
       d="m 56.690443,14.673717 0,0 c 0,0.401256 0.426683,0.711907 0.977814,0.711907 l 0,0 c 0.533352,0 0.995591,-0.310651 0.995591,-0.711907 l 0,-7.6368112 0,0 c 0,-0.4012558 -0.462239,-0.7119061 -0.995591,-0.7119061 l 0,0 c -0.551131,0 -0.977814,0.3106503 -0.977814,0.7119061 l 0,7.6368112"
       id="path3013"
       style="fill:#008888" />
    <path
       d="m 68.696746,6.3249995 c 0,0 0,0 0,0 0,0 0,0 0,0 -0.01499,0 -0.01499,0 -0.01499,0 -0.269977,0 -0.509957,0.1035502 -0.674943,0.2977062 L 65.022065,10.19518 62.037321,6.6227057 c -0.149987,-0.194156 -0.419965,-0.2977062 -0.659944,-0.2977062 -0.03,0 -0.03,0 -0.045,0 -0.449961,0 -0.824929,0.3235941 -0.824929,0.7119062 l 0,7.6368123 c 0,0.388312 0.374968,0.711906 0.824929,0.711906 0.46496,0 0.839928,-0.323594 0.839928,-0.711906 l 0,-5.4493188 2.144816,2.5887498 c 0.164987,0.194156 0.419965,0.297706 0.689942,0.297706 0,0 0.01499,0 0.01499,0 0,0 0.01499,0 0.01499,0 0.269975,0 0.509956,-0.10355 0.674942,-0.297706 l 2.159815,-2.5887498 0,5.4493188 c 0,0.388312 0.359969,0.711906 0.824929,0.711906 0.449962,0 0.839929,-0.323594 0.839929,-0.711906 l 0,-7.6368123 c 0,-0.3883121 -0.389967,-0.6989625 -0.839929,-0.7119062"
       id="path3016"
       style="fill:#008888" />
    <path
       d="m 71.467441,14.673717 0,0 c 0,0.401256 0.426682,0.711907 0.977813,0.711907 l 0,0 c 0.533352,0 0.995591,-0.310651 0.995591,-0.711907 l 0,-7.6368112 0,0 c 0,-0.4012558 -0.462239,-0.7119061 -0.995591,-0.7119061 l 0,0 c -0.551131,0 -0.977813,0.3106503 -0.977813,0.7119061 l 0,7.6368112"
       id="path3787"
       style="fill:#008888" />
  </g>
</svg>
