<?xml version="1.0" encoding="UTF-8" standalone="no"?>
<!-- Created with Inkscape (http://www.inkscape.org/) -->

<svg
   xmlns="http://www.w3.org/2000/svg"
   xmlns:xlink="http://www.w3.org/1999/xlink"
   version="1.1"
   width="100%"
   height="100%"
   viewBox="0 0 104 22"
   id="svg2">
  <defs
     id="defs6">
    <linearGradient
       id="linearGradient3962">
      <stop
         id="stop3964"
         style="stop-color:#505050;stop-opacity:1"
         offset="0" />
      <stop
         id="stop3966"
         style="stop-color:#808080;stop-opacity:1"
         offset="0.11204819" />
      <stop
         id="stop3968"
         style="stop-color:#808080;stop-opacity:1"
         offset="0.94417667" />
      <stop
         id="stop3970"
         style="stop-color:#b4b4b4;stop-opacity:1"
         offset="1" />
    </linearGradient>
    <linearGradient
       id="linearGradient3946">
      <stop
         id="stop3948"
         style="stop-color:#a0a0a0;stop-opacity:1"
         offset="0" />
      <stop
         id="stop3958"
         style="stop-color:#c8c8c8;stop-opacity:1"
         offset="0.11235955" />
      <stop
         id="stop3956"
         style="stop-color:#c8c8c8;stop-opacity:1"
         offset="0.94382024" />
      <stop
         id="stop3950"
         style="stop-color:#f0f0f0;stop-opacity:1"
         offset="1" />
    </linearGradient>
    <linearGradient
       id="linearGradient3898">
      <stop
         id="stop3900"
         style="stop-color:#0d1329;stop-opacity:1"
         offset="0" />
      <stop
         id="stop3908"
         style="stop-color:#202f66;stop-opacity:1"
         offset="0.11200321" />
      <stop
         id="stop3910"
         style="stop-color:#202f66;stop-opacity:1"
         offset="0.94379765" />
      <stop
         id="stop3902"
         style="stop-color:#334ba3;stop-opacity:1"
         offset="1" />
    </linearGradient>
    <linearGradient
       id="linearGradient3890">
      <stop
         id="stop3892"
         style="stop-color:#ffffff;stop-opacity:1"
         offset="0" />
      <stop
         id="stop3894"
         style="stop-color:#ffffff;stop-opacity:0"
         offset="1" />
    </linearGradient>
    <linearGradient
       x1="695.35712"
       y1="-46.142857"
       x2="695.35712"
       y2="-401.85715"
       id="linearGradient4145"
       xlink:href="#linearGradient3962"
       gradientUnits="userSpaceOnUse"
       gradientTransform="matrix(0.046809,0,0,0.046809,-0.23436085,21.486028)" />
    <linearGradient
       x1="1189.4546"
       y1="-46"
       x2="1189.4546"
       y2="-402"
       id="linearGradient4149"
       xlink:href="#linearGradient3946"
       gradientUnits="userSpaceOnUse"
       gradientTransform="matrix(0.046809,0,0,0.046809,-0.23436085,21.486028)" />
    <linearGradient
       x1="13.928571"
       y1="-46.142857"
       x2="13.928571"
       y2="-402"
       id="linearGradient4153"
       xlink:href="#linearGradient3898"
       gradientUnits="userSpaceOnUse"
       gradientTransform="matrix(0.046809,0,0,0.046809,-0.23436085,21.486028)" />
    <radialGradient
       cx="49.82143"
       cy="43.910713"
       r="19.285715"
       fx="49.82143"
       fy="43.910713"
       id="radialGradient4168"
       xlink:href="#linearGradient3890"
       gradientUnits="userSpaceOnUse"
       gradientTransform="matrix(0.02931771,-0.02402373,0.00767425,0.00936538,-0.15279471,4.416968)" />
  </defs>
  <path
     d="m 2.831629,2.668808 c -1.309344,0 -2.36385476,1.054508 -2.36385476,2.36385 l 0,11.9363 c 0,1.309343 1.05451076,2.363857 2.36385476,2.363857 l 29.482361,0 0,-16.664007 z"
     id="rect2987"
     style="fill:url(#linearGradient4153)" />
  <path
     d="M 2.2102499,3.167997 A 0.23351202,0.73099422 50.667867 0 1 1.0794241,4.094626 0.23351202,0.73099422 50.667867 1 1 2.2102499,3.167997 z"
     id="path3888"
     style="fill:url(#radialGradient4168)" />
  <rect
     width="44.367264"
     height="16.664007"
     x="32.314617"
     y="2.6688039"
     id="rect3871"
     style="fill:url(#linearGradient4149)" />
  <path
     d="m 76.496822,2.668808 0,16.664007 24.143208,0 c 1.30933,0 2.36385,-1.054514 2.36385,-2.363857 l 0,-11.9363 c 0,-1.309342 -1.05452,-2.36385 -2.36385,-2.36385 z"
     id="rect3863"
     style="fill:#000000" />
  <path
     d="m 31.677679,2.668808 c 0,0 -0.140427,0.411097 -0.140427,1.100013 l 0,14.424484 c 0,0.580413 0.140427,1.13951 0.140427,1.13951 l 1.454005,0 c 0,0 -0.140427,-0.568421 -0.140427,-1.13951 l 0,-14.41132 c 0,-0.703108 0.140427,-1.113177 0.140427,-1.113177 z m 44.165276,0 c 0,0 0.140426,0.410069 0.140426,1.113177 l 0,14.41132 c 0,0.571089 -0.140426,1.13951 -0.140426,1.13951 l 1.266774,0 c 0,0 0.140421,-0.559097 0.140421,-1.13951 l 0,-14.424484 c 0,-0.688916 -0.140421,-1.100013 -0.140421,-1.100013 z"
     id="rect3883"
     style="fill:url(#linearGradient4145)" />
  <path
     d="m 13.257557,3.927146 c -0.464708,0 -0.889509,0.231318 -0.889509,0.800063 l 0,10.021712 c 0,0.223044 0.241345,0.411559 0.428252,0.411559 l 1.166708,0 c 0.46653,0 0.85259,-0.325963 0.85259,-0.895077 l 0,-10.02032 c 0,-0.22414 -0.204827,-0.317937 -0.390638,-0.317937 z M 7.1763519,7.281087 c -1.7774301,0 -2.710488,1.092427 -2.710488,2.405147 0,1.166702 0.7184531,1.969956 2.1525284,2.290671 l 2.2895823,0.512046 c 0.4655851,0.104124 0.5599853,0.14218 0.5599853,0.379466 0,0.182156 -0.09459,0.302601 -0.5147635,0.302601 l -3.5502117,0 c -0.5691131,0 -0.7979787,0.354904 -0.7979787,0.818882 l 0,0.741626 c 0,0.185809 0.09211,0.428954 0.3151557,0.428954 l 3.8945879,0 c 2.1034194,0 3.0462134,-1.125009 3.0462134,-2.343547 0,-1.260504 -0.822127,-2.063808 -2.2468417,-2.383203 L 7.3238421,9.920297 C 6.8584726,9.815971 6.7645533,9.778844 6.7645533,9.540831 c 0,-0.181412 0.094226,-0.276135 0.5147639,-0.276135 l 3.4068938,0 c 0.567654,0 0.890902,-0.380968 0.890902,-0.846046 l 0,-0.739542 c 0,-0.186176 -0.186094,-0.398021 -0.408775,-0.398021 z M 18.619397,7.250177 c -0.350814,0 -0.601242,0.186584 -0.809884,0.411559 l -2.972075,3.191221 2.665963,3.884846 c 0.153891,0.224255 0.345309,0.422693 0.578213,0.422693 l 1.588305,0 c 0.237649,0 0.413299,-0.188553 0.413299,-0.388603 0,-0.122657 -0.06168,-0.200925 -0.138445,-0.315154 l -2.303452,-3.427721 1.727388,-1.876983 3.433936,5.150994 -1.594902,3.241969 c -0.04271,0.09637 -0.09253,0.189367 -0.09253,0.282456 0,0.18946 0.232532,0.337075 0.421993,0.337075 l 1.407423,0 c 0.286929,0 0.410681,-0.155063 0.516912,-0.385771 l 4.639075,-9.869349 c 0.04558,-0.09696 0.09322,-0.188971 0.09322,-0.283155 0,-0.189097 -0.200177,-0.376077 -0.390368,-0.376077 l -1.418556,0 c -0.284012,0 -0.438428,0.118288 -0.541293,0.349546 L 23.867142,12.043225 21.075255,7.64564 C 20.90295,7.372949 20.721157,7.250166 20.307191,7.250166 z"
     id="path5649"
     style="fill:#ffffff" />
  <path
     d="m 81.116265,6.647571 0,8.706474 1.591506,0 0,-3.557484 5.336226,0 0,3.557484 1.591506,0 0,-8.706474 -1.591506,0 0,3.557484 -5.336226,0 0,-3.557484 z"
     id="rect3841"
     style="fill:#ffffff" />
  <path
     d="m 91.414245,6.647571 0,8.706474 1.591506,0 4.113341,0 c 1.639293,0 2.959208,-1.319922 2.959208,-2.959206 l 0,-2.7880615 c 0,-1.6392844 -1.319915,-2.9592065 -2.959208,-2.9592065 l -4.113341,0 z m 1.591506,1.6310011 4.145527,0 c 0.736287,0 1.328205,0.5933794 1.328205,1.3296682 l 0,2.7851357 c 0,0.736288 -0.591918,1.329668 -1.328205,1.329668 l -4.145527,0 z"
     id="rect3847"
     style="fill:#ffffff" />
  <g
     id="g3033">
    <rect
       width="1.5798039"
       height="8.7064753"
       ry="0"
       x="49.356247"
       y="6.647572"
       id="rect3807"
       style="fill:#202f66" />
    <path
       d="m 61.62687,14.563363 5.490473,0 c 0.610833,0 1.645464,-0.225514 1.645464,-1.50017 l 0,-0.517281 c 0,-2.6214126 -6.642393,-0.757044 -6.642393,-3.5130491 l 0,-0.3247158 c 0,-1.0050606 0.940353,-1.2702951 1.678641,-1.2702951 l 5.274803,0"
       id="path4572"
       style="fill:none;stroke:#202f66;stroke-width:1.57976699" />
    <path
       d="m 39.626322,6.6467757 0,8.7064473 1.578738,0 0,-3.563855 5.34432,0 0,3.563855 1.578738,0 0,-8.7064473 -1.578738,0 0,3.5638543 -5.34432,0 0,-3.5638543 -1.578738,0 z"
       id="rect4574"
       style="fill:#202f66" />
    <path
       d="m 51.975561,6.6467757 0,1.5816615 3.555084,0 0,7.1247858 1.578738,0 0,-7.1247858 3.572625,0 0,-1.5816615 -3.572625,0 -1.578738,0 -3.555084,0 z"
       id="rect4581"
       style="fill:#202f66" />
  </g>
  <path
     d="m 2.0524414,3.135433 c -0.5175191,0 -1.45116923,0.674821 -1.58172172,1.774355 -2.436e-5,4.84e-4 2.409e-5,0.0011 0,0.0017 -0.001998,0.03994 -0.002946,0.08099 -0.002946,0.121413 l 0,11.936299 c 0,0.427369 0.1125885,0.827948 0.31074792,1.173149 -0.0183154,-0.108398 -0.025938,-0.223111 -0.0206181,-0.343754 C 0.78891937,17.095185 1.3166927,16.718579 3.1326138,15.854374 5.6853239,14.639506 13.215048,13.41451 15.446718,12.986861 29.740451,10.24779 30.219744,10.124017 44.596021,8.648251 54.914938,7.588986 56.543199,7.646576 66.583121,7.666165 c 9.067909,0.01771 10.333957,0.180698 25.311124,2.073264 5.203647,0.734146 7.762427,1.578118 9.933595,2.959018 1.64042,1.043325 1.58654,3.452955 1.67079,4.712491 0.0127,0.190578 8.9e-4,0.382415 -0.0251,0.570484 0.14576,-0.306522 0.22828,-0.649583 0.22828,-1.012243 l 0,-11.9363 c 0,-0.02679 -8.9e-4,-0.05385 -0.002,-0.08045 -0.18624,-0.601129 -0.79325,-1.696823 -1.85564,-1.696823 -1.29632,0 -0.74519,0.443223 -10.616982,0.443223 l -78.919188,0 C 3.7840867,3.695329 3.5201987,3.135466 2.0524414,3.135466 z"
     id="rect3007"
     style="opacity:0.4;fill:#ffffff" />
  <path
     d="M 2.8329576,2.2 C 1.2631627,2.2 0,3.466083 0,5.035877 L 0,16.967044 C 0,18.536838 1.2631627,19.8 2.8329576,19.8 l 97.8057424,0 c 1.5698,0 2.83295,-1.263162 2.83295,-2.832956 l 0,-11.931167 C 103.47165,3.466083 102.2085,2.2 100.6387,2.2 z m 0.00877,0.501424 97.7882024,0 c 1.30916,0 2.34029,1.029506 2.34029,2.337379 0,3.975107 0,7.950213 0,11.92532 0,1.307868 -1.03113,2.334453 -2.34029,2.334453 l -97.7882024,0 c -1.3091673,0 -2.34030174,-1.026585 -2.34030174,-2.334453 0,-3.975107 0,-7.950213 0,-11.92532 0,-1.307873 1.03113444,-2.337379 2.34030174,-2.337379 z"
     id="rect4116"
     style="fill:#333333" />
</svg>
