<?xml version="1.0" encoding="UTF-8" standalone="no"?>
<!-- Created with Inkscape (http://www.inkscape.org/) -->

<svg
   xmlns="http://www.w3.org/2000/svg"
   xmlns:xlink="http://www.w3.org/1999/xlink"
   version="1.1"
   width="100%"
   height="100%"
   viewBox="0 -23.5 126 22"
   id="svg2">
  <defs
     id="defs6">
    <linearGradient
       id="linearGradient3962">
      <stop
         id="stop3964"
         style="stop-color:#505050;stop-opacity:1"
         offset="0" />
      <stop
         id="stop3966"
         style="stop-color:#808080;stop-opacity:1"
         offset="0.11204819" />
      <stop
         id="stop3968"
         style="stop-color:#808080;stop-opacity:1"
         offset="0.94417667" />
      <stop
         id="stop3970"
         style="stop-color:#b4b4b4;stop-opacity:1"
         offset="1" />
    </linearGradient>
    <linearGradient
       id="linearGradient3946">
      <stop
         id="stop3948"
         style="stop-color:#a0a0a0;stop-opacity:1"
         offset="0" />
      <stop
         id="stop3958"
         style="stop-color:#c8c8c8;stop-opacity:1"
         offset="0.11235955" />
      <stop
         id="stop3956"
         style="stop-color:#c8c8c8;stop-opacity:1"
         offset="0.94382024" />
      <stop
         id="stop3950"
         style="stop-color:#f0f0f0;stop-opacity:1"
         offset="1" />
    </linearGradient>
    <linearGradient
       id="linearGradient3898">
      <stop
         id="stop3900"
         style="stop-color:#0d1329;stop-opacity:1"
         offset="0" />
      <stop
         id="stop3908"
         style="stop-color:#202f66;stop-opacity:1"
         offset="0.11200321" />
      <stop
         id="stop3910"
         style="stop-color:#202f66;stop-opacity:1"
         offset="0.94379765" />
      <stop
         id="stop3902"
         style="stop-color:#334ba3;stop-opacity:1"
         offset="1" />
    </linearGradient>
    <linearGradient
       id="linearGradient3890">
      <stop
         id="stop3892"
         style="stop-color:#ffffff;stop-opacity:1"
         offset="0" />
      <stop
         id="stop3894"
         style="stop-color:#ffffff;stop-opacity:0"
         offset="1" />
    </linearGradient>
    <linearGradient
       x1="695.35712"
       y1="-46.142857"
       x2="695.35712"
       y2="-401.85715"
       id="linearGradient4145"
       xlink:href="#linearGradient3962"
       gradientUnits="userSpaceOnUse"
       gradientTransform="matrix(0.046809,0,0,0.046809,-0.23436549,-2.013975)" />
    <linearGradient
       x1="1189.4546"
       y1="-46"
       x2="1189.4546"
       y2="-402"
       id="linearGradient4149"
       xlink:href="#linearGradient3946"
       gradientUnits="userSpaceOnUse"
       gradientTransform="matrix(0.046809,0,0,0.046809,-0.23436549,-2.013975)" />
    <linearGradient
       x1="13.928571"
       y1="-46.142857"
       x2="13.928571"
       y2="-402"
       id="linearGradient4153"
       xlink:href="#linearGradient3898"
       gradientUnits="userSpaceOnUse"
       gradientTransform="matrix(0.046809,0,0,0.046809,-0.23436549,-2.013975)" />
    <radialGradient
       cx="49.82143"
       cy="43.910713"
       r="19.285715"
       fx="49.82143"
       fy="43.910713"
       id="radialGradient4168"
       xlink:href="#linearGradient3890"
       gradientUnits="userSpaceOnUse"
       gradientTransform="matrix(0.02931771,-0.02402373,0.00767425,0.00936538,-0.15279961,-19.083032)" />
  </defs>
  <path
     d="m 2.8316242,-20.831192 c -1.3093438,0 -2.36385487,1.054508 -2.36385487,2.363851 l 0,11.936299 c 0,1.309343 1.05451107,2.363857 2.36385487,2.363857 l 29.4823608,0 0,-16.664007 z"
     id="rect2987"
     style="fill:url(#linearGradient4153)" />
  <path
     d="m 2.210245,-20.332007 a 0.23351214,0.73099457 50.667864 1 1 -1.1308255,0.926631 0.23351214,0.73099457 50.667864 1 1 1.1308255,-0.926631 z"
     id="path3888"
     style="fill:url(#radialGradient4168)" />
  <rect
     width="80.54493"
     height="16.664007"
     x="32.31461"
     y="-20.831196"
     id="rect3871"
     style="fill:url(#linearGradient4149);fill-opacity:1;stroke:none" />
  <path
     d="m 98.949977,-20.831192 0,16.664007 24.143213,0 c 1.30934,0 2.36385,-1.054514 2.36385,-2.363857 l 0,-11.936299 c 0,-1.309343 -1.05451,-2.363851 -2.36385,-2.363851 l -24.143213,0 z"
     id="rect3863"
     style="fill:#000000" />
  <path
     d="m 31.677674,-20.831192 c 0,0 -0.140427,0.411097 -0.140427,1.100013 l 0,14.424484 c 0,0.580413 0.140427,1.13951 0.140427,1.13951 l 1.454005,0 c 0,0 -0.140427,-0.568421 -0.140427,-1.13951 l 0,-14.41132 c 0,-0.703108 0.140427,-1.113177 0.140427,-1.113177 z m 66.618441,0 c 0,0 0.140426,0.410069 0.140426,1.113177 l 0,14.41132 c 0,0.571089 -0.140426,1.13951 -0.140426,1.13951 l 1.266769,0 c 0,0 0.140426,-0.559097 0.140426,-1.13951 l 0,-14.424484 c 0,-0.688916 -0.140426,-1.100013 -0.140426,-1.100013 z"
     id="rect3883"
     style="fill:url(#linearGradient4145)" />
  <path
     d="m 13.257552,-19.572854 c -0.464708,0 -0.889509,0.231318 -0.889509,0.800063 l 0,10.021712 c 0,0.223044 0.241345,0.411559 0.428252,0.411559 l 1.166708,0 c 0.46653,0 0.85259,-0.325964 0.85259,-0.895078 l 0,-10.020319 c 0,-0.22414 -0.204827,-0.317937 -0.390638,-0.317937 z m -6.0812049,3.353941 c -1.7774301,0 -2.710488,1.092427 -2.710488,2.405147 0,1.166701 0.7184532,1.969956 2.152528,2.290671 l 2.2895827,0.512046 c 0.4655851,0.104124 0.5599853,0.14218 0.5599853,0.379466 0,0.182156 -0.09459,0.302601 -0.5147634,0.302601 l -3.5502118,0 c -0.5691131,0 -0.7979787,0.354904 -0.7979787,0.818882 l 0,0.741626 c 0,0.185809 0.09211,0.428954 0.3151557,0.428954 l 3.8945879,0 c 2.1034192,0 3.0462132,-1.125009 3.0462132,-2.343547 0,-1.260505 -0.822127,-2.063808 -2.2468415,-2.383203 l -2.2902792,-0.513433 c -0.4653695,-0.104327 -0.5592888,-0.141453 -0.5592888,-0.379466 0,-0.181413 0.094226,-0.276135 0.5147635,-0.276135 l 3.406894,0 c 0.567654,0 0.890902,-0.380968 0.890902,-0.846047 l 0,-0.739541 c 0,-0.186176 -0.186094,-0.398021 -0.408775,-0.398021 z m 11.4430449,-0.03091 c -0.350814,0 -0.601241,0.186584 -0.809884,0.411559 l -2.972075,3.191222 2.665963,3.884845 c 0.153891,0.224255 0.345309,0.422694 0.578213,0.422694 l 1.588305,0 c 0.237649,0 0.413299,-0.188554 0.413299,-0.388604 0,-0.122656 -0.06168,-0.200925 -0.138445,-0.315154 l -2.303452,-3.427721 1.727388,-1.876983 3.433936,5.150995 -1.594902,3.241968 c -0.04271,0.09637 -0.09253,0.189367 -0.09253,0.282456 0,0.189461 0.232532,0.337075 0.421993,0.337075 l 1.407423,0 c 0.286929,0 0.410681,-0.155063 0.516912,-0.38577 l 4.639075,-9.869352 c 0.04558,-0.09696 0.09322,-0.188971 0.09322,-0.283154 0,-0.189098 -0.200177,-0.376078 -0.390368,-0.376078 l -1.418556,0 c -0.284012,0 -0.438428,0.118289 -0.541293,0.349547 l -1.976477,4.443502 -2.791887,-4.397585 c -0.172305,-0.272692 -0.354098,-0.395475 -0.768064,-0.395475 z"
     id="path5649"
     style="fill:#ffffff" />
  <g
     transform="matrix(0.046809,0,0,0.046809,-13.893372,-21.673756)"
     id="g3859">
    <path
       d="m 2509.4062,103 0,186 34,0 0,-76 114,0 0,76 34,0 0,-186 -34,0 0,76 -114,0 0,-76 -34,0 z"
       id="rect3841"
       style="fill:#ffffff" />
    <path
       d="m 2729.4062,103 0,186 34,0 87.875,0 c 35.0209,0 63.2188,-28.19804 63.2188,-63.21875 l 0,-59.5625 C 2914.5,131.19804 2886.3021,103 2851.2812,103 l -87.875,0 z m 34,34.84375 88.5626,0 c 15.7296,0 28.375,12.67661 28.375,28.40625 l 0,59.5 c 0,15.72964 -12.6454,28.40625 -28.375,28.40625 l -88.5626,0 z"
       id="rect3847"
       style="fill:#ffffff" />
  </g>
  <path
     d="m 2.8329528,-21.3 c -1.569795,0 -2.8329575705078,1.266083 -2.8329575705078,2.835877 l 0,11.931167 C -4.7705078e-6,-4.963162 1.2631578,-3.7 2.8329528,-3.7 l 120.2589072,0 c 1.5698,0 2.83296,-1.263162 2.83296,-2.832956 l 0,-11.931167 c 0,-1.569794 -1.26316,-2.835877 -2.83296,-2.835877 z m 0.00877,0.501424 120.2413672,0 c 1.30917,0 2.34029,1.029506 2.34029,2.337379 0,3.975107 0,7.950213 0,11.92532 0,1.307868 -1.03112,2.334453 -2.34029,2.334453 l -120.2413672,0 c -1.3091676,0 -2.34030185,-1.026585 -2.34030185,-2.334453 0,-3.975107 0,-7.950213 0,-11.92532 0,-1.307873 1.03113425,-2.337379 2.34030185,-2.337379 z"
     id="rect4116"
     style="fill:#333333" />
  <path
     d="m 43.783147,-16.852427 c -0.494933,0 -1.149996,0.344006 -1.443764,1.091232 l -2.994314,7.615239 1.742172,0 0.759185,-1.93087 4.60045,0 0.759181,1.93087 1.742175,0 -2.992853,-7.613775 c -0.289287,-0.735834 -0.901226,-1.092696 -1.445229,-1.092696 l -0.727003,0 z m 0.166759,1.606134 c 0.0099,-4.84e-4 0.02112,0 0.03364,0 l 0.329126,0 c 0.09793,0 0.103479,0.0062 0.157982,0.144814 l 1.360383,3.458016 -3.368783,0 1.364775,-3.472643 c 0.04265,-0.108519 0.05362,-0.127316 0.122874,-0.130187 z"
     id="rect3010"
     style="fill:#202f66" />
  <path
     d="m 58.214104,-16.852427 0,1.572489 3.586739,0 0,7.133982 1.571029,0 0,-7.133982 3.586744,0 0,-1.572489 -3.586744,0 -1.571029,0 -3.586739,0 z"
     id="rect3793"
     style="fill:#202f66" />
  <rect
     width="1.5798039"
     height="8.7064753"
     ry="0"
     x="68.254326"
     y="-16.85243"
     id="rect3807"
     style="fill:#202f66" />
  <path
     d="m 52.357233,-16.852427 c -1.667072,0 -3.008948,1.34187 -3.008948,3.008939 l 0,2.688593 c 0,1.667069 1.341876,3.008939 3.008948,3.008939 l 4.714539,0 0,-1.594428 -4.754037,0 c -0.761275,0 -1.375014,-0.61228 -1.375014,-1.37355 l 0,-2.770509 c 0,-0.761276 0.613739,-1.373556 1.375014,-1.373556 l 4.754037,0 0,-1.594428 -4.714539,0 z"
     id="rect3809"
     style="fill:#202f66" />
  <path
     d="m 83.326867,-16.852427 c -0.481664,0 -0.832322,0.336602 -0.832322,0.748942 l 0,7.957529 1.591506,0 0,-5.994477 5.662422,5.795538 c 0.142758,0.146157 0.247293,0.198939 0.490032,0.198939 0.481664,0 0.832322,-0.336607 0.832322,-0.748942 l 0,-7.957529 -1.591502,0 0,5.994477 -5.662422,-5.795538 c -0.142771,-0.146151 -0.247293,-0.198939 -0.490036,-0.198939 z"
     id="path3826"
     style="fill:#202f66" />
  <path
     d="m 74.624604,-16.853225 c -1.667077,0 -3.011303,1.341304 -3.011303,3.008373 l 0,2.689704 c 0,1.667069 1.344226,3.008372 3.011303,3.008372 l 3.201325,0 c 1.667072,0 3.008373,-1.341303 3.008373,-3.008372 l 0,-2.689704 c 0,-1.667069 -1.341301,-3.008373 -3.008373,-3.008373 z m -0.04092,1.596282 3.280266,0 c 0.761275,0 1.377011,0.609887 1.377011,1.371163 l 0,2.771559 c 0,0.761276 -0.615736,1.37409 -1.377011,1.37409 l -3.280266,0 c -0.761271,0 -1.374085,-0.612814 -1.374085,-1.37409 l 0,-2.771559 c 0,-0.761276 0.612814,-1.371163 1.374085,-1.371163 z"
     id="path4163"
     style="fill:#202f66" />
  <path
     d="m 2.0417224,-20.364567 c -0.5140203,0 -1.44135775,0.674821 -1.57102751,1.774355 -2.42e-5,4.84e-4 2.376e-5,0.0011 0,0.0017 -0.00198,0.03994 -0.002904,0.08099 -0.002904,0.121413 l 0,11.936299 c 0,0.427369 0.11182732,0.827948 0.3086468,1.173149 -0.0181896,-0.108396 -0.025762,-0.223109 -0.0204776,-0.343752 0.0308044,-0.70341 0.55501121,-1.080016 2.35865481,-1.944222 2.5354506,-1.214846 10.0058371,-2.486116 12.2308461,-2.867491 14.337842,-2.457566 18.368503,-3.423068 32.694413,-4.338609 9.967646,-0.637013 17.479691,-1.001675 27.451728,-0.982086 9.006602,0.01771 23.361769,0.180697 38.237668,2.073264 5.16847,0.734145 7.70995,1.578118 9.86644,2.959017 1.62932,1.043325 1.57582,3.452955 1.65949,4.712492 0.0127,0.190578 0.001,0.382415 -0.0249,0.570484 0.14476,-0.306523 0.22673,-0.649583 0.22673,-1.012244 l 0,-11.936299 c 0,-0.02679 -8.8e-4,-0.05385 -0.002,-0.08045 -0.18498,-0.60113 -0.78789,-1.696824 -1.84311,-1.696824 -1.28755,0 -0.74014,0.443223 -10.54519,0.443223 l -100.838761,0 C 3.7615766,-19.8047 3.4994728,-20.364546 2.0416392,-20.364546 z"
     id="rect3007"
     style="opacity:0.4;fill:#ffffff" />
</svg>
