<?xml version="1.0" encoding="UTF-8" standalone="no"?>
<!-- Created with Inkscape (http://www.inkscape.org/) -->

<svg
   xmlns="http://www.w3.org/2000/svg"
   width="100%"
   height="100%"
   viewBox="0 0 53 22"
   id="svg10913"
   version="1.1">
  <g
     id="layer1"
     transform="translate(-227.12536,-708.71156)">
    <path
       d="m 233.52309,719.75622 c 1.79319,0.4171 2.64381,1.33997 2.64381,2.87043 0,1.56658 -1.07723,2.83102 -3.64552,2.83102 l -4.86725,0 c -0.24619,0 -0.36128,-0.17078 -0.36128,-0.45322 l 0,-0.92616 c 0,-0.52876 0.28574,-0.96229 0.982,-0.96229 l 4.39761,0 c 0.49265,0 0.67984,-0.22674 0.67984,-0.39739 0,-0.26274 -0.18707,-0.43352 -0.7718,-0.56489 l -2.79489,-0.6043 c -1.73738,-0.37769 -2.66025,-1.32027 -2.66025,-2.77519 0,-1.66183 1.14949,-2.94268 3.35979,-2.94268 l 4.88697,0 c 0.26602,0 0.45322,0.16763 0.45322,0.45322 l 0,0.92288 c 0,0.52876 -0.28244,0.98199 -0.99841,0.98199 l -4.23011,0 c -0.56489,0 -0.73568,0.19048 -0.73568,0.35798 0,0.28245 0.17079,0.39739 0.81122,0.54847 l 2.85073,0.66013 z m 6.32218,4.71946 c 0,0.62072 -0.46965,0.98199 -0.97871,0.98199 l -1.49433,0 c -0.16736,0 -0.37441,-0.17078 -0.37441,-0.45322 l 0,-12.36518 c 0,-0.7521 0.37441,-0.99841 1.03783,-0.99841 l 1.33997,0 c 0.28244,0 0.46965,0.18733 0.46965,0.45322 l 0,12.3816 z m 10.64755,4.35819 c -0.0757,0.15108 -0.19049,0.37769 -0.56818,0.37769 l -1.73408,0 c -0.17078,0 -0.37769,-0.15107 -0.37769,-0.37769 0,-0.16762 0.036,-0.26273 0.092,-0.3744 l 1.96398,-3.98379 -4.32207,-6.45682 -2.22673,2.38108 2.85073,4.24652 c 0.16737,0.22648 0.20677,0.33828 0.20677,0.44994 0,0.19049 -0.20677,0.36127 -0.45322,0.36127 l -1.96399,0 c -0.28244,0 -0.45322,-0.19049 -0.64043,-0.45322 l -3.30395,-4.7753 3.66194,-3.94438 c 0.26274,-0.30214 0.50906,-0.45322 0.96229,-0.45322 l 2.11505,0 c 0.45323,0 0.69627,0.16763 0.92288,0.52876 l 3.45503,5.49126 2.45334,-5.5668 c 0.11508,-0.28572 0.28244,-0.45322 0.64371,-0.45322 l 1.7538,0 c 0.20704,0 0.39739,0.16763 0.39739,0.37769 0,0.11166 -0.0394,0.24303 -0.11481,0.37769 l -5.77372,12.24694"
       style="fill:#231f20"
       id="path8241" />
    <path
       d="m 262.64126,725.81237 c -1.8129,0 -3.04778,-0.57474 -3.99365,-1.44179 -0.24619,-0.22648 -0.43023,-0.47293 -0.43023,-0.73895 0,-0.35142 0.24618,-0.51563 0.53533,-0.51563 0.20362,0 0.30871,0.10168 0.41054,0.20704 0.86375,0.90317 1.85231,1.4385 3.45831,1.4385 1.97384,0 3.41562,-1.15277 3.41562,-2.96239 0,-1.8129 -1.27757,-3.00508 -3.57984,-3.00508 l -1.19546,0 c -0.30872,0 -0.55504,-0.22674 -0.55504,-0.51563 0,-0.30871 0.22675,-0.53533 0.53533,-0.53533 l 1.11008,0 c 1.89502,0 3.06749,-1.19218 3.06749,-2.67337 0,-1.4812 -1.05096,-2.40735 -2.77848,-2.40735 -1.00826,0 -1.7702,0.26602 -2.53215,0.75866 -0.18392,0.1248 -0.30872,0.18733 -0.49263,0.18733 -0.30872,0 -0.51563,-0.22674 -0.51563,-0.47293 0,-0.30872 0.18391,-0.47293 0.43352,-0.64043 0.94586,-0.61744 2.09863,-0.88346 3.14631,-0.88346 2.45005,0 3.93125,1.27428 3.93125,3.35321 0,1.37939 -0.80136,2.55186 -2.28256,3.2317 1.5436,0.35141 2.9,1.60599 2.9,3.60281 0,2.16103 -1.64542,4.01335 -4.58811,4.01335"
       style="fill:#231f20"
       id="path8245" />
    <path
       d="m 273.73547,725.56277 -3.04778,0 c -0.34814,0 -0.61416,-0.26603 -0.61416,-0.59774 l 0,-12.51297 c 0,-0.32842 0.26602,-0.59773 0.59446,-0.59773 l 3.04777,0 c 3.99037,0 6.0496,2.96567 6.0496,6.85422 0,3.89183 -2.05923,6.85422 -6.02989,6.85422 z m -0.082,-12.63777 -2.38765,0 0,11.5671 2.38765,0 c 3.45831,0 4.91981,-2.71607 4.91981,-5.78355 0,-3.06749 -1.4615,-5.78355 -4.91981,-5.78355"
       style="fill:#231f20"
       id="path8249" />
  </g>
</svg>
