<?xml version="1.0" encoding="UTF-8" standalone="no"?>
<!-- Created with Inkscape (http://www.inkscape.org/) -->

<svg
   xmlns="http://www.w3.org/2000/svg"
   xmlns:xlink="http://www.w3.org/1999/xlink"
   version="1.1"
   width="100%"
   height="100%"
   viewBox="0 -23.5 110 22"
   id="svg2">
  <defs
     id="defs6">
    <linearGradient
       id="linearGradient3962">
      <stop
         id="stop3964"
         style="stop-color:#505050;stop-opacity:1"
         offset="0" />
      <stop
         id="stop3966"
         style="stop-color:#808080;stop-opacity:1"
         offset="0.11204819" />
      <stop
         id="stop3968"
         style="stop-color:#808080;stop-opacity:1"
         offset="0.94417667" />
      <stop
         id="stop3970"
         style="stop-color:#b4b4b4;stop-opacity:1"
         offset="1" />
    </linearGradient>
    <linearGradient
       id="linearGradient3946">
      <stop
         id="stop3948"
         style="stop-color:#a0a0a0;stop-opacity:1"
         offset="0" />
      <stop
         id="stop3958"
         style="stop-color:#c8c8c8;stop-opacity:1"
         offset="0.11235955" />
      <stop
         id="stop3956"
         style="stop-color:#c8c8c8;stop-opacity:1"
         offset="0.94382024" />
      <stop
         id="stop3950"
         style="stop-color:#f0f0f0;stop-opacity:1"
         offset="1" />
    </linearGradient>
    <linearGradient
       id="linearGradient3898">
      <stop
         id="stop3900"
         style="stop-color:#0d1329;stop-opacity:1"
         offset="0" />
      <stop
         id="stop3908"
         style="stop-color:#202f66;stop-opacity:1"
         offset="0.11200321" />
      <stop
         id="stop3910"
         style="stop-color:#202f66;stop-opacity:1"
         offset="0.94379765" />
      <stop
         id="stop3902"
         style="stop-color:#334ba3;stop-opacity:1"
         offset="1" />
    </linearGradient>
    <linearGradient
       id="linearGradient3890">
      <stop
         id="stop3892"
         style="stop-color:#ffffff;stop-opacity:1"
         offset="0" />
      <stop
         id="stop3894"
         style="stop-color:#ffffff;stop-opacity:0"
         offset="1" />
    </linearGradient>
    <linearGradient
       x1="695.35712"
       y1="-46.142857"
       x2="695.35712"
       y2="-401.85715"
       id="linearGradient4145"
       xlink:href="#linearGradient3962"
       gradientUnits="userSpaceOnUse"
       gradientTransform="matrix(0.04680901,0,0,0.04680901,-0.23436092,-2.013973)" />
    <linearGradient
       x1="1189.4546"
       y1="-46"
       x2="1189.4546"
       y2="-402"
       id="linearGradient4149"
       xlink:href="#linearGradient3946"
       gradientUnits="userSpaceOnUse"
       gradientTransform="matrix(0.04459699,0,0,0.04680901,1.3037867,-2.013973)" />
    <linearGradient
       x1="13.928571"
       y1="-46.142857"
       x2="13.928571"
       y2="-402"
       id="linearGradient4153"
       xlink:href="#linearGradient3898"
       gradientUnits="userSpaceOnUse"
       gradientTransform="matrix(0.04717742,0,0,0.04680901,-0.49053104,-2.013973)" />
    <radialGradient
       cx="49.82143"
       cy="43.910713"
       r="19.285715"
       fx="49.82143"
       fy="43.910713"
       id="radialGradient4168"
       xlink:href="#linearGradient3890"
       gradientUnits="userSpaceOnUse"
       gradientTransform="matrix(0.02931771,-0.02402374,0.00767425,0.00936538,-0.15279466,-19.083032)" />
  </defs>
  <path
     d="m 2.59959,-21.081836 c -1.3196024,-0.01113 -2.3824597,1.305152 -2.3824597,2.614496 l 0,11.9363 c 0,1.309344 1.0628573,2.62563 2.3824597,2.614498 l 29.714404,-0.250641 0,-16.664009 z"
     id="rect2987"
     style="fill:url(#linearGradient4153)" />
  <path
     d="m 2.2102502,-20.332007 a 0.23351228,0.73099488 50.667864 0 1 -1.1308259,0.926632 0.23351228,0.73099488 50.667864 1 1 1.1308259,-0.926632 z"
     id="path3888"
     style="fill:url(#radialGradient4168)" />
  <rect
     width="76.73867"
     height="16.664009"
     ry="1.3203217"
     x="32.314621"
     y="-20.831198"
     id="rect3871"
     style="fill:url(#linearGradient4149)" />
  <path
     d="m 31.677684,-20.831192 c 0,0 -0.140427,0.411097 -0.140427,1.100013 l 0,14.424484 c 0,0.580417 0.140427,1.139512 0.140427,1.139512 l 1.454005,0 c 0,0 -0.140427,-0.568423 -0.140427,-1.139512 l 0,-14.41132 c 0,-0.703109 0.140427,-1.113177 0.140427,-1.113177 z"
     id="rect3883"
     style="fill:url(#linearGradient4145)" />
  <path
     d="m 13.257559,-19.572854 c -0.464708,0 -0.88951,0.231318 -0.88951,0.800064 l 0,10.0217121 c 0,0.223045 0.241346,0.411559 0.428253,0.411559 l 1.166708,0 c 0.46653,0 0.85259,-0.325963 0.85259,-0.895077 l 0,-10.0203201 c 0,-0.22414 -0.204827,-0.317938 -0.390638,-0.317938 z m -6.0812059,3.353942 c -1.7774304,0 -2.7104884,1.092427 -2.7104884,2.405147 0,1.166702 0.7184532,1.969956 2.1525283,2.290671 l 2.289583,0.512047 c 0.4655852,0.104123 0.5599854,0.142179 0.5599854,0.379466 0,0.182155 -0.09459,0.3026 -0.5147635,0.3026 l -3.5502123,0 c -0.5691132,0 -0.7979788,0.3549051 -0.7979788,0.8188831 l 0,0.741626 c 0,0.185808 0.09211,0.428953 0.3151558,0.428953 l 3.8945884,0 c 2.103419,0 3.046214,-1.125008 3.046214,-2.3435461 0,-1.260505 -0.822127,-2.063809 -2.2468422,-2.383204 l -2.2902795,-0.513432 c -0.4653696,-0.104328 -0.5592889,-0.141454 -0.5592889,-0.379467 0,-0.181413 0.094226,-0.276135 0.514764,-0.276135 l 3.4068936,0 c 0.567654,0 0.890902,-0.380968 0.890902,-0.846046 l 0,-0.739542 c 0,-0.186176 -0.186094,-0.398021 -0.408774,-0.398021 z M 18.6194,-16.249826 c -0.350814,0 -0.601242,0.186583 -0.809884,0.411559 l -2.972076,3.191222 2.665964,3.8848461 c 0.153891,0.224254 0.345309,0.422693 0.578212,0.422693 l 1.588306,0 c 0.237649,0 0.413298,-0.188553 0.413298,-0.388604 0,-0.122656 -0.06168,-0.200925 -0.138444,-0.315153 l -2.303453,-3.4277221 1.727388,-1.876983 3.433937,5.1509951 -1.594902,3.2419679 c -0.04271,0.09637 -0.09253,0.189367 -0.09253,0.282458 0,0.18946 0.232532,0.337076 0.421993,0.337076 l 1.407423,0 c 0.28693,0 0.410681,-0.155065 0.516912,-0.385775 l 4.639076,-9.86935 c 0.04558,-0.09696 0.09322,-0.188971 0.09322,-0.283154 0,-0.189098 -0.200177,-0.376078 -0.390369,-0.376078 l -1.418555,0 c -0.284012,0 -0.438429,0.118289 -0.541293,0.349546 l -1.976478,4.443503 -2.791887,-4.397585 c -0.172305,-0.272692 -0.354098,-0.395475 -0.768064,-0.395475 z"
     id="path5649"
     style="fill:#ffffff" />
  <path
     d="m 1.8122721,-20.364568 c -0.4390845,0 -1.2312316,0.674823 -1.34199766,1.774357 -2.072e-5,4.84e-4 2.042e-5,0.0011 0,0.0017 -0.001698,0.03994 -0.002504,0.08099 -0.002504,0.121413 l 0,11.936302 c 0,0.427368 0.0955247,0.827948 0.26365134,1.173146 -0.0155378,-0.108419 -0.0220049,-0.223131 -0.0174927,-0.343775 0.0263155,-0.70341 0.47409982,-1.080015 2.01480172,-1.944219 2.1658264,-1.2148459 8.5471552,-2.486117 10.4477952,-2.867492 12.247625,-2.457567 15.690681,-3.423068 27.928111,-4.338609 8.514531,-0.637013 14.931444,-1.001676 23.449726,-0.982087 7.69359,0.01771 21.554332,0.180698 34.261573,2.073265 4.414984,0.734145 6.585964,1.578118 8.428074,2.959018 1.39179,1.0433241 1.34609,3.452953 1.41758,4.712493 0.0108,0.190577 4.4e-4,0.382413 -0.0213,0.570482 0.12367,-0.306522 0.19368,-0.649585 0.19368,-1.012242 l 0,-11.936301 c 0,-0.02679 -4.4e-4,-0.05385 -8.8e-4,-0.08045 -0.15801,-0.601131 -0.67303,-1.696826 -1.57442,-1.696826 -1.09984,0 -0.63223,0.443223 -9.007866,0.443223 l -87.736473,0 c -7.2323771,-0.0035 -7.4562711,-0.563365 -8.7015765,-0.563365 z"
     id="rect3007"
     style="opacity:0.4;fill:#ffffff" />
  <path
     d="M 2.4217857,-21.300001 C 1.0798289,-21.300001 0,-20.033917 0,-18.464122 L 0,-6.532954 C 0,-4.963161 1.0798289,-3.7 2.4217857,-3.7 l 104.4042243,0 c 1.34194,0 2.42177,-1.263161 2.42177,-2.832954 l 0,-11.931168 c 0,-1.569795 -1.07983,-2.835879 -2.42177,-2.835879 z m 0.0075,0.501425 104.3892143,0 c 1.11915,0 2.00062,1.029506 2.00062,2.337381 0,3.975106 0,7.950213 0,11.92532 0,1.307869 -0.88147,2.334451 -2.00062,2.334451 l -104.3892143,0 c -1.1191565,0 -2.00063336,-1.026582 -2.00063336,-2.334451 0,-3.975107 0,-7.950214 0,-11.92532 0,-1.307875 0.88147686,-2.337381 2.00063336,-2.337381 z"
     id="rect4116"
     style="fill:#333333" />
  <g
     transform="matrix(0.44000006,0,0,0.44000006,-10.521815,-41.805766)"
     id="g3235">
    <path
       d="m 119.86277,56.710747 c -2.27328,0 -4.09966,1.833037 -4.09966,4.106313 l 0,11.581399 c 0,2.273276 1.82638,4.099669 4.09966,4.099669 l 12.95017,0 0,-3.588041 -12.89036,0 c -0.25258,0 -0.45848,-0.205887 -0.45848,-0.458472 l 0,-4.053157 13.34884,0 0,-3.588041 -13.34884,0 0,-4.053157 c 0,-0.252586 0.2059,-0.451828 0.45848,-0.451828 l 12.89036,0 0,-3.594685 -12.95017,0 z"
       id="path3039"
       style="fill:#202f66" />
    <rect
       width="3.5904636"
       height="19.787443"
       ry="0"
       x="208.634"
       y="56.712559"
       id="rect3043"
       style="fill:#202f66" />
    <path
       d="m 139.37109,56.710747 c -1.41779,0.005 -2.31894,0.854551 -2.31894,2.35216 l 0,17.435221 3.59468,0 0,-12.910303 5.34884,8.279072 c 1.19158,1.844349 3.41972,1.844349 4.6113,0 l 5.34884,-8.279072 0,12.910303 3.59468,0 0,-17.435221 c 0,-1.497609 -0.90115,-2.347206 -2.31894,-2.35216 -1.06068,-0.0037 -1.65268,0.327127 -2.1196,1.049834 l -6.81063,10.538209 -6.81063,-10.538209 c -0.46692,-0.722707 -1.05892,-1.05354 -2.1196,-1.049834 z"
       id="path3049"
       style="fill:#202f66" />
    <path
       d="m 185.321,56.712566 0,3.57384 8.15168,0 0,16.213595 3.57052,0 0,-16.213595 8.15169,0 0,-3.57384 -8.15169,0 -3.57052,0 -8.15168,0 z"
       id="rect3793"
       style="fill:#202f66" />
    <path
       d="m 240.68157,56.712566 c -1.09469,0 -1.89164,0.765005 -1.89164,1.702142 l 0,18.085293 3.61706,0 0,-13.623812 12.86914,13.171678 c 0.32445,0.332174 0.56203,0.452134 1.11371,0.452134 1.09469,0 1.89164,-0.765017 1.89164,-1.702142 l 0,-18.085293 -3.61705,0 0,13.623812 L 241.79529,57.1647 c -0.32448,-0.332162 -0.56203,-0.452134 -1.11372,-0.452134 z"
       id="path3826-1"
       style="fill:#202f66" />
    <path
       d="m 169.74987,56.712616 c -3.78881,0 -6.84387,3.048417 -6.84387,6.837211 l 0,6.112963 c 0,3.788793 3.05506,6.837211 6.84387,6.837211 l 7.27574,0 c 3.7888,0 6.83721,-3.048418 6.83721,-6.837211 l 0,-6.112963 c 0,-3.788794 -3.04841,-6.837211 -6.83721,-6.837211 z m -0.093,3.627913 7.45515,0 c 1.73017,0 3.12957,1.386108 3.12957,3.11628 l 0,6.298998 c 0,1.730173 -1.3994,3.122932 -3.12957,3.122932 l -7.45515,0 c -1.73016,0 -3.12292,-1.392759 -3.12292,-3.122932 l 0,-6.298998 c 0,-1.730172 1.39276,-3.11628 3.12292,-3.11628 z"
       id="path4163"
       style="fill:#202f66" />
    <path
       d="m 221.74987,56.712616 c -3.78881,0 -6.84387,3.048417 -6.84387,6.837211 l 0,6.112963 c 0,3.788793 3.05506,6.837211 6.84387,6.837211 l 7.27574,0 c 3.7888,0 6.83721,-3.048418 6.83721,-6.837211 l 0,-6.112963 c 0,-3.788794 -3.04841,-6.837211 -6.83721,-6.837211 z m -0.093,3.627913 7.45515,0 c 1.73017,0 3.12957,1.386108 3.12957,3.11628 l 0,6.298998 c 0,1.730173 -1.3994,3.122932 -3.12957,3.122932 l -7.45515,0 c -1.73016,0 -3.12292,-1.392759 -3.12292,-3.122932 l 0,-6.298998 c 0,-1.730172 1.39276,-3.11628 3.12292,-3.11628 z"
       id="path3233"
       style="fill:#202f66" />
  </g>
</svg>
