<?xml version="1.0" encoding="UTF-8" standalone="no"?>
<!-- Created with Inkscape (http://www.inkscape.org/) -->

<svg
   xmlns="http://www.w3.org/2000/svg"
   xmlns:xlink="http://www.w3.org/1999/xlink"
   version="1.1"
   width="100%"
   height="100%"
   viewBox="0 -23.5 100 22"
   id="svg2">
  <defs
     id="defs6">
    <linearGradient
       id="linearGradient3962">
      <stop
         id="stop3964"
         style="stop-color:#505050;stop-opacity:1"
         offset="0" />
      <stop
         id="stop3966"
         style="stop-color:#808080;stop-opacity:1"
         offset="0.11204819" />
      <stop
         id="stop3968"
         style="stop-color:#808080;stop-opacity:1"
         offset="0.94417667" />
      <stop
         id="stop3970"
         style="stop-color:#b4b4b4;stop-opacity:1"
         offset="1" />
    </linearGradient>
    <linearGradient
       id="linearGradient3946">
      <stop
         id="stop3948"
         style="stop-color:#a0a0a0;stop-opacity:1"
         offset="0" />
      <stop
         id="stop3958"
         style="stop-color:#c8c8c8;stop-opacity:1"
         offset="0.11235955" />
      <stop
         id="stop3956"
         style="stop-color:#c8c8c8;stop-opacity:1"
         offset="0.94382024" />
      <stop
         id="stop3950"
         style="stop-color:#f0f0f0;stop-opacity:1"
         offset="1" />
    </linearGradient>
    <linearGradient
       id="linearGradient3898">
      <stop
         id="stop3900"
         style="stop-color:#0d1329;stop-opacity:1"
         offset="0" />
      <stop
         id="stop3908"
         style="stop-color:#202f66;stop-opacity:1"
         offset="0.11200321" />
      <stop
         id="stop3910"
         style="stop-color:#202f66;stop-opacity:1"
         offset="0.94379765" />
      <stop
         id="stop3902"
         style="stop-color:#334ba3;stop-opacity:1"
         offset="1" />
    </linearGradient>
    <linearGradient
       id="linearGradient3890">
      <stop
         id="stop3892"
         style="stop-color:#ffffff;stop-opacity:1"
         offset="0" />
      <stop
         id="stop3894"
         style="stop-color:#ffffff;stop-opacity:0"
         offset="1" />
    </linearGradient>
    <linearGradient
       x1="695.35712"
       y1="-46.142857"
       x2="695.35712"
       y2="-401.85715"
       id="linearGradient4145"
       xlink:href="#linearGradient3962"
       gradientUnits="userSpaceOnUse"
       gradientTransform="matrix(0.04680901,0,0,0.04680901,-0.23436092,-2.013973)" />
    <linearGradient
       x1="1189.4546"
       y1="-46"
       x2="1189.4546"
       y2="-402"
       id="linearGradient4149"
       xlink:href="#linearGradient3946"
       gradientUnits="userSpaceOnUse"
       gradientTransform="matrix(0.03869223,0,0,0.04680901,5.4096996,-2.013973)" />
    <linearGradient
       x1="13.928571"
       y1="-46.142857"
       x2="13.928571"
       y2="-402"
       id="linearGradient4153"
       xlink:href="#linearGradient3898"
       gradientUnits="userSpaceOnUse"
       gradientTransform="matrix(0.04717742,0,0,0.04680901,-0.49053104,-2.013973)" />
    <radialGradient
       cx="49.82143"
       cy="43.910713"
       r="19.285715"
       fx="49.82143"
       fy="43.910713"
       id="radialGradient4168"
       xlink:href="#linearGradient3890"
       gradientUnits="userSpaceOnUse"
       gradientTransform="matrix(0.02931771,-0.02402374,0.00767425,0.00936538,-0.15279466,-19.083032)" />
  </defs>
  <path
     d="m 2.59959,-21.081836 c -1.3196024,-0.01113 -2.3824597,1.305152 -2.3824597,2.614496 l 0,11.9363 c 0,1.309344 1.0628573,2.62563 2.3824597,2.614498 l 29.714404,-0.250641 0,-16.664009 z"
     id="rect2987"
     style="fill:url(#linearGradient4153)" />
  <path
     d="m 2.2102502,-20.332007 a 0.23351219,0.7309947 50.667864 1 1 -1.1308259,0.926631 0.23351219,0.7309947 50.667864 0 1 1.1308259,-0.926631 z"
     id="path3888"
     style="fill:url(#radialGradient4168)" />
  <rect
     width="66.578278"
     height="16.664009"
     ry="1.3203217"
     x="32.314621"
     y="-20.831196"
     id="rect3871"
     style="fill:url(#linearGradient4149)" />
  <path
     d="m 31.677684,-20.831192 c 0,0 -0.140427,0.411097 -0.140427,1.100013 l 0,14.424484 c 0,0.580417 0.140427,1.139512 0.140427,1.139512 l 1.454005,0 c 0,0 -0.140427,-0.568423 -0.140427,-1.139512 l 0,-14.41132 c 0,-0.703109 0.140427,-1.113177 0.140427,-1.113177 z"
     id="rect3883"
     style="fill:url(#linearGradient4145)" />
  <path
     d="m 13.257559,-19.572854 c -0.464708,0 -0.88951,0.231318 -0.88951,0.800064 l 0,10.0217122 c 0,0.223045 0.241346,0.411559 0.428253,0.411559 l 1.166708,0 c 0.46653,0 0.85259,-0.325963 0.85259,-0.895077 l 0,-10.0203212 c 0,-0.224139 -0.204827,-0.317937 -0.390638,-0.317937 z m -6.0812059,3.353942 c -1.7774304,0 -2.7104884,1.092427 -2.7104884,2.405147 0,1.166702 0.7184532,1.969956 2.1525283,2.290671 l 2.289583,0.512047 c 0.4655852,0.104123 0.5599855,0.142179 0.5599855,0.379466 0,0.182155 -0.09459,0.3026 -0.5147636,0.3026 l -3.5502122,0 c -0.5691133,0 -0.7979789,0.3549042 -0.7979789,0.8188832 l 0,0.741626 c 0,0.185808 0.09211,0.428953 0.3151558,0.428953 l 3.8945884,0 c 2.103419,0 3.046214,-1.125008 3.046214,-2.3435462 0,-1.260505 -0.822127,-2.063809 -2.2468421,-2.383204 l -2.2902795,-0.513433 c -0.4653696,-0.104327 -0.559289,-0.141453 -0.559289,-0.379466 0,-0.181413 0.094226,-0.276135 0.514764,-0.276135 l 3.4068946,0 c 0.567653,0 0.890901,-0.380968 0.890901,-0.846047 l 0,-0.739541 c 0,-0.186177 -0.186094,-0.398021 -0.408774,-0.398021 z M 18.6194,-16.249827 c -0.350814,0 -0.601242,0.186584 -0.809884,0.41156 l -2.972076,3.191222 2.665964,3.8848462 c 0.153891,0.224254 0.345309,0.422693 0.578212,0.422693 l 1.588306,0 c 0.237649,0 0.413298,-0.188553 0.413298,-0.388604 0,-0.122656 -0.06168,-0.200925 -0.138444,-0.315153 l -2.303453,-3.4277222 1.727388,-1.876983 3.433937,5.1509952 -1.594902,3.2419678 c -0.04271,0.09637 -0.09253,0.189367 -0.09253,0.282458 0,0.18946 0.232532,0.337076 0.421993,0.337076 l 1.407423,0 c 0.28693,0 0.410681,-0.155065 0.516912,-0.385775 l 4.639076,-9.86935 c 0.04558,-0.09696 0.09322,-0.188971 0.09322,-0.283154 0,-0.189098 -0.200177,-0.376078 -0.390368,-0.376078 l -1.418556,0 c -0.284012,0 -0.438429,0.118289 -0.541293,0.349546 l -1.976478,4.443503 -2.791887,-4.397586 c -0.172305,-0.272691 -0.354098,-0.395474 -0.768064,-0.395474 z"
     id="path5649"
     style="fill:#ffffff" />
  <g
     transform="matrix(0.09355486,0,0,0.09355486,0,-40.010974)"
     id="g4536">
    <path
       d="m 683.375,247.53125 c -10.69152,0 -19.28125,8.621 -19.28125,19.3125 l 0,54.46875 c 0,10.6915 8.58973,19.28125 19.28125,19.28125 l 60.90625,0 0,-16.875 -60.625,0 c -1.1879,0 -2.15625,-0.96831 -2.15625,-2.15625 l 0,-19.0625 62.78125,0 0,-16.875 -62.78125,0 0,-19.0625 c 0,-1.18794 0.96835,-2.125 2.15625,-2.125 l 60.625,0 0,-16.90625 -60.90625,0 z"
       id="rect3798"
       style="fill:#202f66" />
    <path
       d="m 931.99451,247.53975 c -5.29031,0 -12.29222,3.67709 -15.43228,11.66412 l -32.00598,81.39868 18.62194,0 8.11486,-20.63893 49.1738,0 8.11485,20.63893 18.62197,0 -31.99036,-81.38304 c -3.0922,-7.86528 -9.63314,-11.67976 -15.44793,-11.67976 l -7.77087,0 z m 1.78246,17.16784 c 0.10575,-0.005 0.22581,0 0.35961,0 l 3.518,0 c 1.04684,0 1.10611,0.0667 1.68864,1.54792 l 14.54106,36.96244 -36.00867,0 14.58797,-37.1188 c 0.45595,-1.15996 0.57314,-1.36083 1.31339,-1.39156 z"
       id="rect3010"
       style="fill:#202f66" />
    <rect
       width="16.886395"
       height="93.062798"
       ry="0"
       x="527.56488"
       y="247.53976"
       id="rect3807"
       style="fill:#202f66" />
    <path
       d="m 461.6422,247.53975 c -17.8192,0 -32.1624,14.34316 -32.1624,32.16233 l 0,28.73814 c 0,17.81917 14.3432,32.16233 32.1624,32.16233 l 50.3933,0 0,-17.04275 -50.8155,0 c -8.1372,0 -14.6974,-6.5446 -14.6974,-14.68178 l 0,-29.61373 c 0,-8.13719 6.5602,-14.68179 14.6974,-14.68179 l 50.8155,0 0,-17.04275 -50.3933,0 z"
       id="rect3809"
       style="fill:#202f66" />
    <path
       d="m 568.67404,247.53975 c -5.14848,0 -8.8966,3.59795 -8.8966,8.00541 l 0,85.05739 17.01147,0 0,-64.07449 60.52519,61.94805 c 1.52593,1.56221 2.64329,2.12644 5.23789,2.12644 5.14847,0 8.89665,-3.59798 8.89665,-8.0054 l 0,-85.0574 -17.01148,0 0,64.07449 -60.52519,-61.94805 c -1.52598,-1.56217 -2.64328,-2.12644 -5.23793,-2.12644 z"
       id="path3826"
       style="fill:#202f66" />
    <path
       d="m 775.125,247.53125 c -6.66803,0.0233 -10.90625,4.01906 -10.90625,11.0625 l 0,82 16.90625,0 0,-60.71875 25.15625,38.9375 c 5.60412,8.6742 16.08338,8.6742 21.6875,0 l 25.15625,-38.9375 0,60.71875 16.90625,0 0,-82 c 0,-7.04344 -4.23822,-11.0392 -10.90625,-11.0625 -4.98853,-0.0174 -7.77277,1.53852 -9.96875,4.9375 l -32.03125,49.5625 -32.03125,-49.5625 c -2.19598,-3.39898 -4.98022,-4.95493 -9.96875,-4.9375 z"
       id="rect4522"
       style="fill:#202f66" />
  </g>
  <path
     d="m 1.6892638,-20.364568 c -0.3989129,0 -1.11858684,0.674822 -1.21921903,1.774357 -1.879e-5,4.84e-4 1.861e-5,0.0011 0,0.0017 -0.00154,0.03994 -0.002275,0.08099 -0.002275,0.121413 l 0,11.936302 c 0,0.427368 0.0867853,0.827948 0.23952996,1.173146 -0.0141152,-0.108421 -0.0199905,-0.223133 -0.015891,-0.343777 0.0239078,-0.70341 0.43072467,-1.080015 1.83046857,-1.944219 1.9676751,-1.2148458 7.7651787,-2.486117 9.4919307,-2.867492 11.127095,-2.457567 14.255149,-3.423068 25.372983,-4.338609 7.735537,-0.637013 13.565371,-1.001676 21.304321,-0.982087 6.989704,0.01771 19.582343,0.180697 31.127004,2.073264 4.011062,0.734145 5.983415,1.578118 7.656991,2.959019 1.264463,1.0433242 1.222936,3.452953 1.287884,4.712493 0.0099,0.190577 4.36e-4,0.382413 -0.01936,0.570482 0.112346,-0.306522 0.175952,-0.649585 0.175952,-1.012242 l 0,-11.936302 c 0,-0.02679 -4.4e-4,-0.05386 -8.8e-4,-0.08045 -0.143546,-0.60113 -0.61145,-1.696825 -1.43037,-1.696825 -0.999218,0 -0.574385,0.443223 -8.183741,0.443223 l -79.7095085,0 c -6.5706905,-0.0035 -6.7741005,-0.563363 -7.9054737,-0.563363 z"
     id="rect3007"
     style="opacity:0.4;fill:#ffffff" />
  <path
     d="M 2.203428,-21.300001 C 0.98246726,-21.300001 0,-20.033918 0,-18.464122 L 0,-6.532954 C 0,-4.963161 0.98246726,-3.7 2.203428,-3.7 l 94.990726,0 c 1.220951,0 2.203419,-1.263161 2.203419,-2.832954 l 0,-11.931168 c 0,-1.569796 -0.982468,-2.835879 -2.203419,-2.835879 z m 0.00682,0.501424 94.977075,0 c 1.018243,0 1.820236,1.029506 1.820236,2.337381 0,3.975107 0,7.950214 0,11.925321 0,1.307869 -0.801993,2.334451 -1.820236,2.334451 l -94.977075,0 c -1.018249,0 -1.82024838,-1.026582 -1.82024838,-2.334451 0,-3.975107 0,-7.950214 0,-11.925321 0,-1.307875 0.80199938,-2.337381 1.82024838,-2.337381 z"
     id="rect4116"
     style="fill:#333333" />
</svg>
