<?xml version="1.0" encoding="UTF-8" standalone="no"?>
<!-- Created with Inkscape (http://www.inkscape.org/) -->

<svg
   xmlns:svg="http://www.w3.org/2000/svg"
   xmlns="http://www.w3.org/2000/svg"
   xmlns:xlink="http://www.w3.org/1999/xlink"
   version="1.1"
   width="100%"
   height="100%"
   viewBox="0 -23.5 148.44813 22"
   id="svg2">
  <defs
     id="defs6">
    <linearGradient
       id="linearGradient3962">
      <stop
         id="stop3964"
         style="stop-color:#505050;stop-opacity:1"
         offset="0" />
      <stop
         id="stop3966"
         style="stop-color:#808080;stop-opacity:1"
         offset="0.11204819" />
      <stop
         id="stop3968"
         style="stop-color:#808080;stop-opacity:1"
         offset="0.94417667" />
      <stop
         id="stop3970"
         style="stop-color:#b4b4b4;stop-opacity:1"
         offset="1" />
    </linearGradient>
    <linearGradient
       id="linearGradient3946">
      <stop
         id="stop3948"
         style="stop-color:#a0a0a0;stop-opacity:1"
         offset="0" />
      <stop
         id="stop3958"
         style="stop-color:#c8c8c8;stop-opacity:1"
         offset="0.11235955" />
      <stop
         id="stop3956"
         style="stop-color:#c8c8c8;stop-opacity:1"
         offset="0.94382024" />
      <stop
         id="stop3950"
         style="stop-color:#f0f0f0;stop-opacity:1"
         offset="1" />
    </linearGradient>
    <linearGradient
       id="linearGradient3898">
      <stop
         id="stop3900"
         style="stop-color:#0d1329;stop-opacity:1"
         offset="0" />
      <stop
         id="stop3908"
         style="stop-color:#202f66;stop-opacity:1"
         offset="0.11200321" />
      <stop
         id="stop3910"
         style="stop-color:#202f66;stop-opacity:1"
         offset="0.94379765" />
      <stop
         id="stop3902"
         style="stop-color:#334ba3;stop-opacity:1"
         offset="1" />
    </linearGradient>
    <linearGradient
       id="linearGradient3890">
      <stop
         id="stop3892"
         style="stop-color:#ffffff;stop-opacity:1"
         offset="0" />
      <stop
         id="stop3894"
         style="stop-color:#ffffff;stop-opacity:0"
         offset="1" />
    </linearGradient>
    <linearGradient
       x1="695.35712"
       y1="-46.142857"
       x2="695.35712"
       y2="-401.85715"
       id="linearGradient4145"
       xlink:href="#linearGradient3962"
       gradientUnits="userSpaceOnUse"
       gradientTransform="matrix(0.06052588,0,0,0.046809,-9.5446918,-2.013975)" />
    <linearGradient
       x1="1189.4546"
       y1="-46"
       x2="1189.4546"
       y2="-402"
       id="linearGradient4149"
       xlink:href="#linearGradient3946"
       gradientUnits="userSpaceOnUse"
       gradientTransform="matrix(0.05671099,0,0,0.046809,-7.1197801,-2.013975)" />
    <linearGradient
       x1="13.928571"
       y1="-46.142857"
       x2="13.928571"
       y2="-402"
       id="linearGradient4153"
       xlink:href="#linearGradient3898"
       gradientUnits="userSpaceOnUse"
       gradientTransform="matrix(0.1063841,0,0,0.1063841,-0.532644,25.331876)" />
    <radialGradient
       cx="49.82143"
       cy="43.910713"
       r="19.285715"
       fx="49.82143"
       fy="43.910713"
       id="radialGradient4168"
       xlink:href="#linearGradient3890"
       gradientUnits="userSpaceOnUse"
       gradientTransform="matrix(0.06663115,-0.05459939,0.01744147,0.02128495,-0.34726616,-13.461438)" />
  </defs>
  <rect
     width="97.583412"
     height="16.664007"
     x="32.314621"
     y="-20.831196"
     id="rect3871"
     style="fill:url(#linearGradient4149)" />
  <path
     d="m 31.718828,-20.831193 c 0,0 -0.181577,0.411098 -0.181577,1.100013 l 0,14.424485 c 0,0.580413 0.181577,1.13951 0.181577,1.13951 l 1.880086,0 c 0,0 -0.181578,-0.568421 -0.181578,-1.13951 l 0,-14.411321 c 0,-0.703108 0.181578,-1.113177 0.181578,-1.113177 z m 88.559662,0 c 0,0 0.18158,0.410069 0.18158,1.113177 l 0,14.411321 c 0,0.571089 -0.18158,1.13951 -0.18158,1.13951 l 1.63798,0 c 0,0 0.18158,-0.559097 0.18158,-1.13951 l 0,-14.424485 c 0,-0.688915 -0.18158,-1.100013 -0.18158,-1.100013 z"
     id="rect3883"
     style="fill:url(#linearGradient4145)" />
  <g
     id="g3056"
     transform="matrix(0.44,0,0,0.44,2.5222656e-6,-13.16)">
    <path
       style="fill:url(#linearGradient4153)"
       id="rect2987"
       d="m 6.4355145,-17.434528 c -2.9757816,0 -5.372397,2.396609 -5.372397,5.372388 l 0,27.127954 c 0,2.975779 2.3966154,5.372401 5.372397,5.372401 l 67.0053605,0 0,-37.872743 z" />
    <path
       style="fill:url(#radialGradient4168)"
       id="path3888"
       d="m 5.0232896,-16.300016 a 0.5307094,1.6613512 50.667864 1 1 -2.5700586,2.105979 0.5307094,1.6613512 50.667864 1 1 2.5700586,-2.105979 z" />
    <path
       style="fill:#ffffff"
       id="path5649"
       d="m 30.130804,-14.57467 c -1.056156,0 -2.021613,0.525723 -2.021613,1.818326 l 0,22.776616 c 0,0.506919 0.548513,0.935362 0.973301,0.935362 l 2.651608,0 c 1.060297,0 1.937705,-0.740826 1.937705,-2.034267 l 0,-22.773452 c 0,-0.509408 -0.465515,-0.722585 -0.887814,-0.722585 z m -13.82092,7.622594 c -4.039613,0 -6.1602,2.482788 -6.1602,5.466243 0,2.651594 1.632848,4.477171 4.892108,5.2060694 l 5.203597,1.1637417 c 1.058148,0.2366439 1.272694,0.3231349 1.272694,0.8624229 0,0.41399 -0.214977,0.687728 -1.169917,0.687728 l -8.068661,0 c -1.29344,0 -1.813589,0.8066 -1.813589,1.861097 l 0,1.685514 c 0,0.422291 0.209341,0.974894 0.716263,0.974894 l 8.851336,0 c 4.780496,0 6.923211,-2.556839 6.923211,-5.326242 0,-2.864784 -1.86847,-4.690474 -5.106458,-5.416371 l -5.205179,-1.166893 c -1.057659,-0.237106 -1.271112,-0.321484 -1.271112,-0.862422 0,-0.412302 0.21415,-0.62758 1.169918,-0.62758 l 7.74294,0 c 1.290122,0 2.024776,-0.865836 2.024776,-1.922833 l 0,-1.680775 c 0,-0.423129 -0.42294,-0.904594 -0.929032,-0.904594 z m 26.006919,-0.07026 c -0.797305,0 -1.366458,0.424054 -1.840646,0.935362 l -6.754716,7.252775 6.059007,8.829194 c 0.349753,0.50967 0.784794,0.960667 1.31412,0.960667 l 3.609786,0 c 0.540109,0 0.939313,-0.42853 0.939313,-0.88319 0,-0.278764 -0.140185,-0.456647 -0.314647,-0.716258 l -5.235119,-7.790276 3.925883,-4.265869 7.804399,11.706805 -3.624776,7.368112 c -0.09707,0.219028 -0.210294,0.43038 -0.210294,0.641944 0,0.430593 0.528483,0.766081 0.959076,0.766081 l 3.198688,0 c 0.652111,0 0.933365,-0.352416 1.1748,-0.876751 L 63.865029,-5.524085 c 0.103582,-0.220366 0.211872,-0.42948 0.211872,-0.643532 0,-0.429768 -0.454947,-0.854722 -0.8872,-0.854722 l -3.223989,0 c -0.645483,0 -0.99643,0.268838 -1.230212,0.794423 L 54.243495,3.8709519 47.898297,-6.123559 c -0.391602,-0.619753 -0.804767,-0.898805 -1.7456,-0.898805 z" />
  </g>
  <g
     id="g3050"
     transform="matrix(0.44,0,0,0.44,6.1600025,-13.16)">
    <path
       style="fill:#000000"
       id="rect3863"
       d="m 263.1388,-17.434528 0,37.872743 54.87093,0 c 2.97576,0 5.37238,-2.396622 5.37238,-5.372401 l 0,-27.127954 c 0,-2.975779 -2.39662,-5.372388 -5.37238,-5.372388 z" />
    <g
       id="g3046">
      <path
         style="fill:#ffffff"
         id="rect3841"
         d="m 273.63757,-8.3918847 0,19.7874427 3.61706,0 0,-8.0851917 12.12779,0 0,8.0851917 3.61706,0 0,-19.7874427 -3.61706,0 0,8.0851916 -12.12779,0 0,-8.0851916 z" />
      <path
         style="fill:#ffffff"
         id="rect3847"
         d="m 297.04207,-8.3918847 0,19.7874427 3.61706,0 9.3485,0 c 3.72567,0 6.72548,-2.9998232 6.72548,-6.7254699 l 0,-6.336503 c 0,-3.7256467 -2.99981,-6.7254698 -6.72548,-6.7254698 l -9.3485,0 z m 3.61706,3.706821 9.42165,0 c 1.67338,0 3.01865,1.3485897 3.01865,3.0219733 l 0,6.329854 c 0,1.6733836 -1.34527,3.0219733 -3.01865,3.0219733 l -9.42165,0 z" />
    </g>
  </g>
  <g
     id="g3038"
     transform="matrix(0.44,0,0,0.44,2.5222656e-6,-13.16)">
    <path
       d="m 145.30235,-8.3936916 c -2.27328,0 -4.09967,1.833037 -4.09967,4.1063132 l 0,11.5813978 c 0,2.2732763 1.82639,4.0996686 4.09967,4.0996686 l 12.95017,0 0,-3.5880406 -12.89037,0 c -0.25258,0 -0.45847,-0.2058865 -0.45847,-0.4584718 l 0,-4.053157 13.34884,0 0,-3.58804066 -13.34884,0 0,-4.05315704 c 0,-0.2525853 0.20589,-0.4518273 0.45847,-0.4518273 l 12.89037,0 0,-3.5946852 -12.95017,0 z"
       id="rect3798"
       style="fill:#202f66" />
    <path
       d="m 198.16498,-8.3918842 c -1.12485,0 -2.61363,0.7818399 -3.28128,2.4800792 l -6.80526,17.307364 3.95948,0 1.72542,-4.3883447 10.45556,0 1.72542,4.3883447 3.95949,0 -6.80194,-17.3040386 c -0.65748,-1.6723522 -2.04824,-2.4834046 -3.28461,-2.4834046 l -1.65228,0 z m 0.379,3.6503056 c 0.0225,-0.00106 0.048,0 0.0765,0 l 0.74801,0 c 0.22259,0 0.23519,0.014182 0.35905,0.3291259 l 3.09179,7.8591251 -7.65633,0 3.10176,-7.8923711 c 0.0969,-0.2466361 0.12186,-0.289346 0.27926,-0.2958799 z"
       id="rect3010"
       style="fill:#202f66" />
    <rect
       width="3.5904634"
       height="19.787443"
       ry="0"
       x="112.17328"
       y="-8.391881"
       id="rect3807"
       style="fill:#202f66" />
    <path
       d="m 98.156496,-8.3918842 c -3.7888,0 -6.838518,3.049709 -6.838518,6.8385035 l 0,6.1104364 c 0,3.7887944 3.049718,6.8385033 6.838518,6.8385033 l 10.714854,0 0,-3.6237082 -10.804624,0 c -1.730169,0 -3.125029,-1.3915432 -3.125029,-3.1217081 l 0,-6.2966084 c 0,-1.730167 1.39486,-3.1217101 3.125029,-3.1217101 l 10.804624,0 0,-3.6237084 -10.714854,0 z"
       id="rect3809"
       style="fill:#202f66" />
    <path
       d="m 120.9141,-8.3918842 c -1.09469,0 -1.89163,0.7650127 -1.89163,1.7021473 l 0,18.0852959 3.61705,0 0,-13.6238146 12.86915,13.1716816 c 0.32445,0.332164 0.56203,0.452133 1.1137,0.452133 1.0947,0 1.89165,-0.765019 1.89165,-1.702145 l 0,-18.0852982 -3.61706,0 0,13.6238147 -12.86915,-13.1716812 c -0.32446,-0.3321558 -0.56202,-0.4521335 -1.11371,-0.4521335 z"
       id="path3826"
       style="fill:#202f66" />
    <path
       d="m 164.81066,-8.3936916 c -1.41779,0.00495 -2.31894,0.8545512 -2.31894,2.35216 l 0,17.4352196 3.59469,0 0,-12.9103017 5.34884,8.2790716 c 1.19157,1.8443485 3.41972,1.8443485 4.61129,0 l 5.34884,-8.2790716 0,12.9103017 3.59469,0 0,-17.4352196 c 0,-1.4976088 -0.90115,-2.3472058 -2.31894,-2.35216 -1.06068,-0.0037 -1.65268,0.3271273 -2.1196,1.0498342 L 173.7409,3.1943508 166.93026,-7.3438574 c -0.46692,-0.7227069 -1.05891,-1.0535402 -2.1196,-1.0498342 z"
       id="rect4522"
       style="fill:#202f66" />
  </g>
  <path
     d="m 2.2963632,-20.364568 c -0.5971789,0 -1.67454212,0.674822 -1.82519007,1.774355 -2.811e-5,4.84e-4 2.777e-5,0.0011 0,0.0017 -0.002306,0.03994 -0.003401,0.08099 -0.003401,0.121413 l 0,11.9363 c 0,0.427369 0.1299188,0.827948 0.35858016,1.173149 -0.0211334,-0.108417 -0.0299294,-0.22313 -0.0237906,-0.343773 0.03579,-0.703411 0.64480161,-1.080016 2.74024061,-1.944223 2.9456386,-1.2148458 11.6245937,-2.486116 14.2095677,-2.867492 16.657437,-2.457566 21.340184,-3.423067 37.983753,-4.338608 11.580224,-0.637013 20.30758,-1.001676 31.892907,-0.982087 10.463702,0.01771 29.31507,0.180698 46.59761,2.073265 6.00463,0.734145 8.95728,1.578117 11.46266,2.959017 1.89291,1.0433242 1.83074,3.452955 1.92796,4.712492 0.0147,0.190578 8.8e-4,0.382415 -0.0289,0.570484 0.16819,-0.306522 0.26341,-0.649583 0.26341,-1.012243 l 0,-11.9363 c 0,-0.02679 -8.8e-4,-0.05386 -0.002,-0.08045 -0.21491,-0.60113 -0.91535,-1.696824 -2.14128,-1.696824 -1.49586,0 -0.85989,0.443223 -12.25121,0.443223 l -119.326394,0 C 4.2942908,-19.80467 3.9897835,-20.364535 2.2960997,-20.364535 z"
     id="rect3007"
     style="opacity:0.4;fill:#ffffff" />
  <path
     d="M 3.2879219,-21.300001 C 1.4660228,-21.300001 0,-20.033918 0,-18.464124 L 0,-6.532956 C 0,-4.963162 1.4660228,-3.7 3.2879219,-3.7 l 141.7437181,0 c 1.8219,0 3.28791,-1.263162 3.28791,-2.832956 l 0,-11.931168 c 0,-1.569794 -1.46601,-2.835877 -3.28791,-2.835877 z m 0.010179,0.501424 141.7233491,0 c 1.51942,0 2.71613,1.029506 2.71613,2.33738 0,3.975106 0,7.950212 0,11.92532 0,1.307868 -1.19671,2.334453 -2.71613,2.334453 l -141.7233491,0 c -1.5194156,0 -2.71614699,-1.026585 -2.71614699,-2.334453 0,-3.975108 0,-7.950214 0,-11.92532 0,-1.307874 1.19673139,-2.33738 2.71614699,-2.33738 z"
     id="rect4116"
     style="fill:#333333" />
  <path
     style="fill:#202f66"
     id="path3024"
     d="m 95.150681,-11.661292 c 0,-0.248999 0.05107,-0.421386 0.153234,-0.517159 0.105345,-0.09896 0.233037,-0.14844 0.383077,-0.148443 l 1.297688,0 0,-1.364724 c -5e-6,-0.150035 0.04469,-0.276133 0.134077,-0.378292 0.09258,-0.10215 0.263366,-0.153227 0.512371,-0.153232 0.111729,5e-6 0.217074,0.0064 0.316039,0.01915 0.102154,0.0096 0.189943,0.02076 0.26337,0.03352 l 0,1.843575 1.790903,0 c 0.0128,0.06385 0.0255,0.140466 0.0383,0.229848 0.016,0.0862 0.0239,0.188351 0.0239,0.306465 -1e-5,0.249004 -0.0527,0.422986 -0.158023,0.521947 -0.105354,0.09896 -0.233046,0.148445 -0.383082,0.148443 l -1.312049,0 0,1.4317642 c -4e-6,0.15004 -0.04629,0.276137 -0.138868,0.378291 -0.09258,0.09896 -0.263371,0.148444 -0.512371,0.148444 -0.111734,0 -0.218676,-0.0048 -0.320831,-0.01437 -0.09897,-0.0096 -0.183559,-0.02075 -0.253787,-0.03352 l 0,-1.9106142 -1.776536,0 c -0.01276,-0.06385 -0.02552,-0.140461 -0.03832,-0.229848 -0.01276,-0.08938 -0.01914,-0.193134 -0.01914,-0.311253" />
  <path
     style="fill:#202f66"
     id="path22260"
     d="m 101.58061,-8.1457598 0,-2.7755172 c 0,-1.042283 0.79637,-1.9616 1.89138,-2.219243 l 2.57064,-0.603118 c 0.18738,-0.04684 0.63242,-0.175666 0.63242,-0.550419 l 0,-0.304488 c 0,-0.368897 -0.3045,-0.667529 -0.67341,-0.667529 l -4.42103,0 0,-1.586847 4.42103,0 c 1.26483,0 2.27201,1.018861 2.27201,2.266087 l 0,0.292777 c 0,1.01886 -0.8198,1.826922 -1.87968,2.113843 l -2.60577,0.720229 c -0.21666,0.06441 -0.62071,0.187377 -0.62071,0.538708 l 0,1.1886702 5.11786,0 0,1.586847 -6.70474,0" />
  <path
     style="fill:#202f66"
     id="path3015"
     d="m 114.28462,-8.1457648 c -0.1672,-10e-7 -0.32917,-0.0088 -0.4859,-0.02647 -0.15675,-0.0088 -0.27692,-0.02206 -0.36051,-0.0397 l 0,-1.9320152 -4.73362,0 c -0.0209,-0.07057 -0.0418,-0.158793 -0.0627,-0.264659 -0.0209,-0.105862 -0.0314,-0.229369 -0.0314,-0.370523 0,-0.158793 0.0314,-0.313178 0.094,-0.463154 0.0627,-0.149971 0.16719,-0.313178 0.31348,-0.489621 l 4.26339,-5.094695 1.84957,0 0,5.399054 1.56742,0 c 0.0522,0.158798 0.0784,0.361704 0.0784,0.608717 -1e-5,0.255839 -0.0679,0.432279 -0.20376,0.529319 -0.12541,0.09704 -0.27692,0.145564 -0.45456,0.145562 l -0.98747,0 0,1.4026962 c -1e-5,0.167618 -0.0627,0.308769 -0.1881,0.423455 -0.11495,0.114686 -0.33439,0.172029 -0.65831,0.172029 m -3.79317,-3.2685452 2.94676,0 0,-3.519971 -2.94676,3.519971" />
</svg>
