<?xml version="1.0" encoding="UTF-8" standalone="no"?>
<!-- Created with Inkscape (http://www.inkscape.org/) -->

<svg
   xmlns="http://www.w3.org/2000/svg"
   version="1.1"
   width="100%"
   height="100%"
   viewBox="0 0 74 22"
   id="svg2876">
  <path
     d="m 3.9561437,10.840959 c 1.1088563,0.257915 1.6348537,0.828591 1.6348537,1.774978 0,0.96873 -0.6661277,1.750614 -2.2542712,1.750614 l -3.00975583,0 c -0.15223404,0 -0.2233962,-0.105605 -0.2233962,-0.280258 l 0,-0.572708 c 0,-0.326973 0.17668656,-0.595047 0.60723255,-0.595047 l 2.71934018,0 c 0.3046306,0 0.420391,-0.140211 0.420391,-0.245736 0,-0.16247 -0.1156791,-0.268074 -0.4772554,-0.349307 L 1.6450083,11.949808 C 0.57067631,11.716264 0,11.133401 0,10.233724 0,9.2060998 0.71080663,8.4140608 2.0775843,8.4140608 l 3.0219407,0 c 0.1645015,0 0.2802606,0.103655 0.2802606,0.280258 l 0,0.570675 c 0,0.326973 -0.1746549,0.607231 -0.6173858,0.607231 l -2.6157662,0 c -0.3493102,0 -0.4549157,0.117792 -0.4549157,0.2213682 0,0.174654 0.1056055,0.245736 0.5016269,0.339157 l 1.7627989,0.408209 z m 3.9094326,2.918361 c 0,0.383839 -0.2904162,0.607231 -0.6052014,0.607231 l -0.9240476,0 c -0.1034933,0 -0.2315196,-0.105605 -0.2315196,-0.280258 l 0,-7.6462432 c 0,-0.465071 0.2315196,-0.617381 0.641757,-0.617381 l 0.8285954,0 c 0.1746557,0 0.2904162,0.115838 0.2904162,0.280257 l 0,7.6563942 z m 6.5840947,2.694969 c -0.04679,0.09343 -0.117791,0.233552 -0.351342,0.233552 l -1.072302,0 c -0.105605,0 -0.23355,-0.09342 -0.23355,-0.233552 0,-0.103651 0.02226,-0.162466 0.05687,-0.231515 l 1.214462,-2.463454 -2.672631,-3.9926952 -1.376932,1.4723852 1.762799,2.625915 c 0.103493,0.140052 0.127863,0.20918 0.127863,0.278234 0,0.117787 -0.127863,0.223392 -0.28026,0.223392 l -1.214463,0 c -0.174655,0 -0.280261,-0.117788 -0.39602,-0.280258 L 7.9711006,11.133401 10.235525,8.6943188 c 0.16247,-0.186837 0.314785,-0.280258 0.595046,-0.280258 l 1.307883,0 c 0.28026,0 0.430546,0.103655 0.570677,0.326973 l 2.136478,3.3956152 1.517062,-3.4423302 c 0.07116,-0.176686 0.174655,-0.280258 0.398051,-0.280258 l 1.084487,0 c 0.128027,0 0.245736,0.103655 0.245736,0.233548 0,0.06905 -0.02437,0.15029 -0.071,0.233551 L 14.44967,16.454289"
     id="path8241"
     style="fill:#000000" />
  <path
     d="M 31.308106,3.8146973e-6 C 26.520208,0.01195381 21.245087,4.3754718 19.826336,9.4952068 c -0.666983,2.4068912 -0.309401,4.7961172 0.919525,6.1563902 1.158712,1.282555 2.255026,1.727796 4.243584,1.716118 2.010173,-0.01184 3.785897,-0.711119 5.286039,-2.075079 0.351636,-0.319713 0.887071,-0.664268 1.189974,-0.767091 0.302902,-0.102815 0.827807,-0.371712 1.165387,-0.594986 0.520893,-0.344515 0.593769,-0.357082 0.491725,-0.108178 -0.313485,0.764649 -0.294071,0.840853 0.191772,0.840853 0.442122,0 0.501854,-0.08123 1.07196,-1.440753 0.651853,-1.554476 1.486609,-2.942548 2.188175,-3.6338492 0.952466,-0.938533 0.936891,-0.458858 -0.06884,2.1439212 -1.016229,2.629945 -1.058125,2.982025 -0.363876,2.901175 0.346604,-0.04035 0.717679,-0.451502 1.966899,-2.173424 1.68647,-2.324625 2.59369,-3.4053482 2.733988,-3.2650502 0.0499,0.04989 -0.374694,1.2607322 -0.944111,2.6897332 -0.569417,1.429005 -1.037539,2.639959 -1.037539,2.689737 0,0.04977 0.202063,0.08851 0.447469,0.08851 0.422935,0 0.49351,-0.10824 1.347326,-2.104585 1.031866,-2.412656 1.673701,-3.4027352 2.212761,-3.4027352 0.22908,0 0.390388,0.115232 0.442552,0.314705 0.09726,0.371924 0.466704,0.410996 0.742506,0.07868 0.107734,-0.129813 0.285824,-0.236025 0.398297,-0.236025 0.134749,0 -0.108782,0.7875382 -0.722837,2.3111042 -0.956947,2.374332 -1.093967,2.94561 -0.722836,3.088029 0.413559,0.158699 0.950627,-0.296248 1.898058,-1.612855 0.526473,-0.731623 1.017672,-1.333494 1.091627,-1.337494 0.07396,-0.004 0.638536,0.962328 1.253898,2.148836 1.012568,1.952372 1.124556,2.261705 1.180142,3.245387 0.04728,0.836787 -0.0083,1.247918 -0.245864,1.784956 -0.745588,1.685534 -2.201741,2.645482 -4.007558,2.645482 -1.57673,0 -2.650368,-0.535036 -3.206043,-1.603026 -0.511376,-0.982845 -0.07451,-2.418767 0.98345,-3.225713 0.738488,-0.563271 2.139974,-0.640711 2.507797,-0.137681 0.492993,0.674208 0.05096,1.610589 -0.575319,1.219477 -0.432356,-0.27001 -0.743059,-0.230089 -0.92936,0.118017 -0.221298,0.413499 -0.206363,0.575476 0.08359,0.865432 0.400525,0.400527 1.207026,0.309623 1.671863,-0.186851 0.534314,-0.570684 0.671753,-1.064434 0.442552,-1.617778 -0.359713,-0.868428 -1.382694,-1.228832 -2.611057,-0.919525 -1.111096,0.279778 -2.353156,1.538886 -2.502878,2.537303 -0.152062,1.014024 0.02446,1.627481 0.658911,2.261934 0.600796,0.600793 1.051658,0.825567 2.016071,1.012946 2.010332,0.390592 4.705701,-0.546603 5.900696,-2.055407 1.486201,-1.876485 1.397765,-3.717748 -0.329458,-6.790716 -1.027682,-1.828393 -1.233729,-2.547027 -0.934274,-3.2699692 0.264651,-0.638924 1.384811,-1.185179 2.173423,-1.057205 1.116865,0.18124 1.965744,1.190345 1.627608,1.9324752 -0.191862,0.421093 -0.609373,0.497433 -0.747423,0.137684 -0.108768,-0.283443 -0.55436,-0.30616 -0.816262,-0.04428 -0.280412,0.280412 -0.227339,0.711854 0.127847,1.067048 0.449869,0.449865 1.04276,0.397998 1.583353,-0.142599 0.5262,-0.526205 0.605787,-1.229593 0.22128,-1.9669052 -0.13083,-0.250871 -0.219877,-0.469832 -0.196693,-0.491722 0.02319,-0.02191 0.445315,0.0026 0.934278,0.059 l 0.890023,0.103264 -0.924444,2.2816012 c -0.972378,2.409858 -1.085995,2.943415 -0.683496,3.097872 0.41745,0.160186 0.962935,-0.399427 2.871672,-2.930681 2.582505,-3.4247742 2.771828,-3.3810292 1.283396,0.295029 -0.519261,1.282455 -0.944108,2.374508 -0.944108,2.429125 0,0.05461 0.194722,0.09696 0.432718,0.09343 0.366027,-0.0055 0.491639,-0.132779 0.811347,-0.826105 1.244095,-2.69796 3.154786,-5.1663282 3.530581,-4.5582842 0.120714,0.195316 -0.63727,2.3474432 -1.381745,3.9190482 l -0.698249,1.470255 0.46222,0 c 0.396013,0 0.515394,-0.111007 0.875274,-0.821185 0.229623,-0.453138 0.588922,-1.097029 0.796593,-1.425995 0.207667,-0.328975 0.342012,-0.649854 0.299948,-0.717917 -0.04206,-0.06806 0.06235,-0.56907 0.23111,-1.111299 0.355973,-1.1437232 0.383297,-1.6402452 0.108179,-1.8685562 -0.437954,-0.363436 -1.461609,0.423728 -2.827417,2.1734272 l -0.427795,0.545807 0.309782,-0.929354 c 1.005796,-3.0176652 -0.459866,-2.3191872 -3.230628,1.539097 -0.778893,1.084604 -1.468113,1.977531 -1.534183,1.98165 -0.06607,0.0044 -0.01096,-0.260612 0.127851,-0.585152 0.138789,-0.324539 0.610332,-1.49288 1.042456,-2.596307 0.514584,-1.3140032 0.865154,-2.0062372 1.017869,-2.0062372 0.128243,0 0.616365,-0.385255 1.086712,-0.855601 0.751559,-0.75156 0.855602,-0.929346 0.855602,-1.485009 0,-0.880932 -0.237156,-1.312621 -0.988368,-1.799709 -1.381406,-0.895723 -3.260135,-0.300852 -3.260135,1.032618 0,0.490714 0.277944,0.747432 0.806428,0.747423 0.522821,0 0.805952,-0.585376 0.393382,-0.816261 -0.34808,-0.194797 -0.320721,-0.711731 0.04917,-0.909691 0.167398,-0.08959 0.598342,-0.162272 0.958861,-0.162272 0.535651,0 0.752782,0.09879 1.189975,0.535981 0.840096,0.840097 0.674986,1.91088 -0.437637,2.847086 -0.622534,0.523828 -0.708378,0.358833 -0.295033,-0.560565 l 0.30979,-0.698249 -0.481896,-0.04917 c -0.59257,-0.06197 -0.607147,-0.05049 -1.15555,1.268656 l -0.442552,1.06212 -0.806427,0 c -0.444149,0 -1.193733,-0.107866 -1.666949,-0.240944 -2.031998,-0.571463 -3.081143,-0.433663 -4.120651,0.535978 -0.525536,0.490217 -0.641674,0.7078192 -0.713002,1.3620762 -0.06901,0.633015 -0.265509,1.035206 -1.037538,2.109501 -0.523819,0.728899 -0.974651,1.255706 -1.003119,1.170302 -0.02847,-0.08539 0.338684,-1.144408 0.816265,-2.350439 1.127447,-2.8471522 1.133131,-3.4273932 0.0246,-2.7733282 -0.507201,0.299266 -0.523877,0.296916 -0.703164,0.0099 -0.32821,-0.525541 -0.956586,-0.365535 -1.730873,0.442552 L 41.64417,10.001739 41.74251,9.5001748 c 0.119249,-0.596244 9.24e-4,-0.97361 -0.304869,-0.97361 -0.416076,0 -1.547076,1.222874 -3.117534,3.3633902 -0.861393,1.174073 -1.5934,2.109289 -1.622691,2.080002 -0.02929,-0.0293 0.225754,-0.753332 0.565482,-1.607944 0.905054,-2.276718 1.147323,-3.0534012 1.047375,-3.3683132 -0.230063,-0.724861 -1.080804,-0.42552 -2.129168,0.747419 -0.370018,0.4139872 -0.637795,0.6461312 -0.59007,0.5163132 0.04772,-0.129818 0.387825,-0.9795142 0.752339,-1.8882242 0.364515,-0.908706 0.795898,-1.988536 0.958863,-2.399614 l 0.295035,-0.747419 -1.135884,0.0049 c -1.136084,0.0062 -1.141932,0.0071 -0.614656,0.236024 0.399529,0.173475 0.505238,0.297933 0.4278,0.506476 -0.05633,0.151698 -0.681299,1.727615 -1.391581,3.501083 -1.082085,2.7018102 -1.397259,3.3301572 -1.932477,3.8698692 -0.5431,0.547664 -1.78398,1.229998 -1.60794,0.885108 0.992841,-1.945116 1.143242,-2.374397 1.199809,-3.451913 0.07228,-1.3769142 -0.292793,-2.2759742 -1.165388,-2.8667532 -0.670185,-0.453737 -2.097271,-0.615912 -2.950347,-0.334374 -1.99905,0.659749 -3.102586,2.8525022 -2.060327,4.0911502 0.513696,0.610495 1.170953,0.648432 1.721037,0.09835 0.428118,-0.428116 0.466783,-0.592913 0.226193,-1.042457 -0.121418,-0.226877 -0.266935,-0.283905 -0.555649,-0.211442 -0.843317,0.211658 -1.112394,-0.6051762 -0.501559,-1.5243442 0.517058,-0.778052 1.57749,-1.278723 2.527464,-1.194895 3.25296,0.287061 2.845044,5.3269032 -0.634324,7.8184242 -1.267644,0.907742 -2.408508,1.298787 -3.8207,1.312907 -1.352256,0.01351 -2.05634,-0.251715 -2.901175,-1.09655 -2.04716,-2.047157 -1.002134,-7.3653082 2.237346,-11.3981742 2.953635,-3.67701499 6.96698,-5.13163199 8.796954,-3.191292 0.621502,0.658984 0.872838,1.497674 0.890021,3.004435 0.0072,0.627441 0.05387,1.140802 0.103262,1.140802 0.04938,0 0.394596,-0.938209 0.772008,-2.084911 0.377413,-1.146703 0.721735,-2.173423 0.762173,-2.281603 0.101059,-0.27035299 -0.272166,-0.24883099 -0.585152,0.03443 -0.228319,0.206625 -0.319827,0.191775 -0.840849,-0.16226599 -0.972627,-0.66092 -1.808077,-0.88872 -3.255217,-0.885106995303 z M 73.232074,9.4474718 c 0.260845,-0.219204 0.36197,-0.602238 0.374184,-0.724254 0.07813,-0.780643 -0.648317,-1.477528 -1.64728,-1.573514 -1.324109,-0.127231 -2.414367,0.635338 -2.414367,1.686612 0,0.177953 0.399181,1.097865 0.885103,2.0455722 0.698637,1.362539 0.883195,1.881955 0.890023,2.478295 0.01954,1.703974 -1.359172,3.03394 -3.142122,3.03394 -1.700859,0 -2.771119,-1.515927 -1.996398,-2.827417 0.538872,-0.912234 1.867209,-1.262443 2.320937,-0.614654 0.33352,0.476164 0.154924,0.793919 -0.41305,0.737585 -0.637969,-0.06327 -0.971295,0.413226 -0.521223,0.747424 0.543043,0.403229 1.504676,-0.183185 1.504676,-0.919525 0,-0.612924 -0.606857,-1.05721 -1.445672,-1.05721 -0.417635,0 -0.757253,-0.02834 -0.757253,-0.06392 0,-0.0356 0.255644,-0.655177 0.565483,-1.376826 0.30983,-0.721657 0.66066,-1.5463842 0.781836,-1.8341352 l 0.22128,-0.526147 -0.511394,0.03934 c -0.279558,0.02174 -0.668061,-0.01346 -0.865436,-0.07867 -0.833637,-0.2754 -2.676053,1.378665 -3.697768,3.3191392 -0.536659,1.019242 -1.409821,2.094747 -1.701365,2.094747 -0.07409,0 0.120701,-0.548763 0.432718,-1.219482 1.665479,-3.5801602 1.757892,-4.0165742 0.885099,-4.1009832 -0.4096,-0.0396 -0.635971,0.07681 -1.219472,0.614662 -0.772438,0.7120032 -1.89735,2.1544592 -1.775127,2.2766822 0.04096,0.04096 0.253972,-0.190013 0.476969,-0.516313 0.910518,-1.3322892 2.158674,-2.3589622 2.158674,-1.7751222 0,0.08617 -0.253589,0.7057512 -0.565483,1.3768302 -0.31189,0.671079 -0.772147,1.664774 -1.022789,2.20784 -0.250637,0.543065 -0.457305,1.162642 -0.457305,1.37683 0,0.618085 0.662297,0.51326 1.475175,-0.236029 l 0.678581,-0.629402 0.01474,0.467134 c 0.01888,0.663903 0.135467,0.78676 0.757257,0.78676 0.448219,0 0.696287,-0.140638 1.33257,-0.776926 0.4286,-0.428599 0.775773,-0.729528 0.772011,-0.668742 -0.004,0.06079 -0.0696,0.418664 -0.1426,0.796593 -0.25842,1.337776 0.314134,2.200875 1.66694,2.522546 1.14154,0.271431 2.784733,-0.123975 3.781368,-0.909691 0.790565,-0.623256 1.204724,-1.505011 1.204724,-2.561882 0,-0.797469 -0.116266,-1.134412 -0.904777,-2.689737 -0.783481,-1.5454162 -0.876866,-1.8316752 -0.737585,-2.1980062 0.362653,-0.953845 1.881057,-1.151238 2.527465,-0.329459 0.376068,0.478095 0.400528,0.731821 0.103264,0.978529 -0.163258,0.135494 -0.259244,0.11939 -0.403216,-0.05406 -0.104355,-0.125743 -0.28956,-0.189987 -0.413045,-0.142599 -0.345062,0.132409 -0.273606,0.803712 0.108178,1.008031 0.227717,0.121875 0.659063,-0.04213 0.775574,-0.140038 z m -28.190101,-6.742995 0,0.644156 c 0,0.39599 0.07974,0.672294 0.211442,0.722839 0.117515,0.0451 0.175731,0.148714 0.12785,0.226193 -0.04789,0.07747 -0.01298,0.137682 0.07868,0.137682 0.09165,0 0.167187,0.106209 0.167187,0.236027 0,0.286928 -0.330194,0.307938 -0.619577,0.03934 -0.170483,-0.158242 -0.18854,-0.152834 -0.09343,0.01474 0.09469,0.166843 0.05799,0.171358 -0.17702,0.0246 -0.210179,-0.131265 -0.447507,-0.138609 -0.84085,-0.0246 -0.502826,0.14575 -0.520874,0.165286 -0.19669,0.265535 0.194723,0.06021 0.354044,0.181967 0.354044,0.265531 0,0.08939 0.291465,0.110585 0.708083,0.05406 0.852706,-0.115636 0.93657,0.110955 0.255697,0.698254 -0.250831,0.216365 -0.501393,0.589076 -0.555649,0.826095 l -0.09835,0.427803 0.516309,-0.290118 c 0.282674,-0.160376 0.503589,-0.405196 0.491726,-0.545816 -0.01188,-0.140619 0.03142,-0.2233 0.09835,-0.181935 0.06693,0.04136 0.162707,-0.07427 0.211442,-0.260621 0.07512,-0.287285 0.125835,-0.31075 0.334373,-0.13768 0.200869,0.166711 0.206492,0.251987 0.04425,0.452385 -0.161546,0.199558 -0.158699,0.219415 0.0099,0.118017 0.140963,-0.08481 0.191272,-0.0445 0.157353,0.122927 -0.02741,0.135384 0.128797,0.460091 0.344207,0.722841 0.215411,0.262746 0.397351,0.476973 0.408131,0.476973 0.01078,0 0.01967,-0.290743 0.01967,-0.644164 0,-0.396137 -0.07972,-0.672285 -0.211442,-0.722832 -0.117515,-0.0451 -0.175732,-0.143801 -0.127846,-0.221276 0.04788,-0.07748 0.01298,-0.142599 -0.07868,-0.142599 -0.09165,0 -0.167186,-0.10817 -0.167186,-0.240949 0,-0.23943 0.398318,-0.250043 0.944112,-0.0246 0.129813,0.05363 0.483854,0.04176 0.786759,-0.02948 l 0.55073,-0.132765 -0.472054,-0.211442 c -0.25963,-0.117775 -0.716504,-0.218509 -1.017873,-0.221276 -0.707934,-0.0066 -0.796897,-0.384503 -0.172102,-0.737585 0.263023,-0.148638 0.459263,-0.388081 0.452386,-0.550733 -0.0067,-0.158268 0.0436,-0.431734 0.113098,-0.604825 0.121501,-0.302588 0.115478,-0.304101 -0.186855,-0.03932 -0.172942,0.151454 -0.391046,0.275364 -0.486807,0.275364 -0.09577,0 -0.268083,0.249948 -0.378629,0.555649 -0.209541,0.579472 -0.730228,0.721134 -0.634326,0.172107 0.02741,-0.156998 -0.01901,-0.243849 -0.103263,-0.191775 -0.08689,0.05368 -0.117234,-0.03041 -0.07376,-0.196691 0.04569,-0.174719 -0.08057,-0.460758 -0.309787,-0.708082 l -0.383543,-0.417958 z m 0.890023,2.084913 c 0.240719,-0.01298 0.491572,0.217382 0.452386,0.481888 -0.05063,0.341757 -0.238991,0.44825 -0.560565,0.319625 -0.227334,-0.09094 -0.265636,-0.621597 -0.05409,-0.752343 0.05097,-0.0315 0.106717,-0.0462 0.162267,-0.04917 z m 20.893376,4.037052 c 0.111729,-3.43e-4 0.20779,0.05291 0.275369,0.162272 0.25649,0.415004 -1.389858,3.8012732 -2.335695,4.8041472 -1.069622,1.134135 -1.402543,0.388762 -0.619568,-1.391578 0.906598,-2.061444 2.076566,-3.5729972 2.679894,-3.5748412 z"
     id="path2888"
     style="fill:#000000" />
</svg>
