<?xml version="1.0" encoding="UTF-8" standalone="no"?>
<!-- Created with Inkscape (http://www.inkscape.org/) -->

<svg
   xmlns="http://www.w3.org/2000/svg"
   version="1.1"
   width="100%"
   height="100%"
   viewBox="0 -10.375 168 22"
   id="svg2">
  <path
     d="m 31.411856,-7.5053178 106.001304,-8.8e-5 c 0,0 2.53441,8.8e-5 2.5344,2.534532 l -1e-5,11.195358 c 0,0 2e-5,2.5281958 -2.53443,2.5281958 l -106.001264,0"
     id="path22548-5"
     style="fill:#ffffff;stroke:#881f16;stroke-width:1.33918786;stroke-linecap:butt;stroke-linejoin:miter;stroke-miterlimit:10;stroke-opacity:1;stroke-dasharray:none" />
  <path
     d="m 32.456131,-7.5053178 -29.2518801,0 c 0,0 -2.53444322,0 -2.53444322,2.534444 l 0,11.195358 c 0,0 0,2.5281958 2.53444322,2.5281958 l 29.2518801,0"
     id="path22548"
     style="fill:#881f16;stroke:#881f16;stroke-width:1.33918786;stroke-linecap:butt;stroke-linejoin:miter;stroke-miterlimit:10;stroke-opacity:1;stroke-dasharray:none" />
  <g
     transform="matrix(4.2703065,0,0,-4.2703099,24.199069,7.7565642)"
     id="g22178">
    <path
       d="m 0,0 c -0.014,-0.03 -0.037,-0.075 -0.111,-0.075 l -0.344,0 c -0.034,0 -0.075,0.03 -0.075,0.075 0,0.033 0.007,0.052 0.019,0.074 L -0.123,0.863 -0.978,2.14 -1.419,1.67 -0.855,0.829 c 0.033,-0.044 0.041,-0.067 0.041,-0.09 0,-0.036 -0.041,-0.07 -0.09,-0.07 l -0.388,0 c -0.056,0 -0.09,0.037 -0.127,0.089 l -0.654,0.945 0.725,0.781 c 0.052,0.06 0.101,0.09 0.19,0.09 l 0.418,0 c 0.09,0 0.139,-0.034 0.184,-0.105 L 0.127,1.382 0.613,2.484 c 0.022,0.056 0.056,0.09 0.127,0.09 l 0.347,0 C 1.128,2.574 1.166,2.54 1.166,2.499 1.166,2.476 1.158,2.451 1.143,2.424 L 0,0 z M -2.106,0.863 C -2.106,0.739 -2.2,0.669 -2.3,0.669 l -0.296,0 c -0.033,0 -0.075,0.034 -0.075,0.089 l 0,2.447 c 0,0.149 0.075,0.198 0.207,0.198 l 0.264,0 c 0.056,0 0.094,-0.038 0.094,-0.09 l 0,-2.45 z m -1.252,0.933 c 0.355,-0.082 0.523,-0.265 0.523,-0.567 0,-0.31 -0.212,-0.56 -0.721,-0.56 l -0.964,0 c -0.048,0 -0.071,0.034 -0.071,0.089 l 0,0.183 c 0,0.105 0.057,0.191 0.195,0.191 l 0.87,0 c 0.098,0 0.135,0.044 0.135,0.078 0,0.052 -0.037,0.086 -0.154,0.112 l -0.553,0.12 c -0.343,0.074 -0.526,0.261 -0.526,0.549 0,0.329 0.228,0.583 0.664,0.583 l 0.968,0 c 0.053,0 0.089,-0.034 0.089,-0.09 l 0,-0.183 c 0,-0.105 -0.055,-0.194 -0.197,-0.194 l -0.837,0 c -0.112,0 -0.145,-0.038 -0.145,-0.072 0,-0.055 0.033,-0.078 0.161,-0.108 l 0.563,-0.131"
       id="path22180"
       style="fill:#ffffff" />
  </g>
  <g
     transform="matrix(8.3202626,0,0,-8.3202692,-68.794315,2553.8187)"
     id="g31676"
     style="fill:#881f16">
    <g
       transform="translate(13.3457,306.3202)"
       id="g22032">
      <path
         d="m 0,0 -0.732,0 0,1.039 0.711,0 c 0.148,0 0.267,-0.118 0.267,-0.266 l 0,-0.085 C 0.246,0.628 0.228,0.577 0.193,0.533 0.241,0.485 0.266,0.421 0.266,0.349 l 0,-0.085 C 0.266,0.116 0.147,0 0,0 m 0.055,0.773 c 0,0.041 -0.035,0.075 -0.076,0.075 l -0.521,0 0,-0.234 0.521,0 c 0.041,0 0.076,0.033 0.076,0.074 l 0,0.085 z M 0.077,0.349 C 0.077,0.389 0.041,0.424 0,0.424 l -0.542,0 0,-0.234 0.542,0 c 0.041,0 0.077,0.032 0.077,0.074 l 0,0.085"
         id="path22034" />
    </g>
    <g
       transform="translate(13.8,307.3591)"
       id="g22036">
      <path
         d="m 0,0 0.192,0 0,-0.69 c 0,-0.086 0.069,-0.158 0.158,-0.158 l 0.342,0 c 0.087,0 0.158,0.072 0.158,0.158 l 0,0.69 0.192,0 0,-0.688 c 0,-0.192 -0.156,-0.351 -0.35,-0.351 l -0.342,0 C 0.156,-1.039 0,-0.88 0,-0.688 L 0,0"
         id="path22038" />
    </g>
    <g
       transform="translate(15.9901,306.3202)"
       id="g22040">
      <path
         d="m 0,0 c -0.024,0 -0.047,0.011 -0.067,0.03 l -0.664,0.679 0,-0.709 -0.191,0 0,0.948 c 0,0.056 0.049,0.094 0.099,0.094 0.024,0 0.047,-0.011 0.065,-0.031 l 0.665,-0.682 0,0.71 0.19,0 0,-0.944 C 0.097,0.038 0.048,0 0,0"
         id="path22042" />
    </g>
    <g
       transform="translate(16.3206,307.3591)"
       id="g22044">
      <path
         d="m 0,0 0.69,0 c 0.193,0 0.352,-0.157 0.352,-0.352 l 0,-0.335 c 0,-0.195 -0.159,-0.352 -0.352,-0.352 L 0,-1.039 0,0 z m 0.192,-0.848 0.498,0 c 0.087,0 0.16,0.074 0.16,0.161 l 0,0.335 c 0,0.088 -0.073,0.162 -0.16,0.162 l -0.498,0 0,-0.658"
         id="path22046" />
    </g>
    <g
       transform="translate(18.517,307.3591)"
       id="g22048">
      <path
         d="m 0,0 0,-0.192 -0.67,0 c -0.041,0 -0.076,-0.032 -0.076,-0.074 l 0,-0.158 0.704,0 0,-0.191 -0.704,0 0,-0.158 c 0,-0.041 0.035,-0.075 0.076,-0.075 l 0.67,0 0,-0.191 -0.67,0 c -0.147,0 -0.266,0.118 -0.266,0.266 l 0,0.507 C -0.936,-0.118 -0.817,0 -0.67,0 L 0,0"
         id="path22050" />
    </g>
    <g
       transform="translate(19.4182,306.3202)"
       id="g22052">
      <path
         d="m 0,0 -0.676,0 0,0.19 0.676,0 c 0.044,0 0.081,0.035 0.081,0.08 l 0,0.041 c 0,0.047 -0.049,0.06 -0.072,0.065 L -0.492,0.474 C -0.628,0.501 -0.72,0.602 -0.72,0.728 l 0,0.042 c 0,0.149 0.122,0.269 0.272,0.269 l 0.677,0 0,-0.191 -0.677,0 c -0.044,0 -0.08,-0.036 -0.08,-0.08 l 0,-0.04 c 0,-0.047 0.051,-0.061 0.074,-0.065 L 0.044,0.565 C 0.178,0.537 0.272,0.438 0.272,0.311 l 0,-0.041 C 0.272,0.119 0.151,0 0,0"
         id="path22054" />
    </g>
    <g
       transform="translate(20.1004,306.3202)"
       id="g22056">
      <path
         d="m 0,0 c -0.124,0 -0.222,0.098 -0.222,0.222 l 0,0.817 0.192,0 0,-0.819 C -0.03,0.204 -0.017,0.19 0,0.19 l 0.628,0 L 0.628,0 0,0"
         id="path22058" />
    </g>
    <path
       d="m 20.894,306.32 0.19,0 0,1.039 -0.19,0 0,-1.039 z"
       id="path22060" />
    <g
       transform="translate(21.6777,306.3202)"
       id="g22062">
      <path
         d="m 0,0 c -0.196,0 -0.352,0.157 -0.352,0.349 l 0,0.338 c 0,0.195 0.156,0.352 0.352,0.352 l 0.69,0 0,-0.191 -0.69,0 c -0.089,0 -0.163,-0.072 -0.163,-0.16 l 0,-0.339 C -0.163,0.261 -0.088,0.19 0,0.19 l 0.501,0 0,0.234 -0.342,0 0,0.19 0.531,0 L 0.69,0 0,0"
         id="path22064" />
    </g>
    <g
       transform="translate(22.8173,306.5544)"
       id="g22066">
      <path
         d="m 0,0 -0.092,-0.234 -0.207,0 c 0.35,0.888 0.352,0.886 0.352,0.889 0.024,0.053 0.065,0.15 0.183,0.15 l 0.078,0 c 0.118,0 0.159,-0.097 0.183,-0.15 0,-0.003 0.001,-0.001 0.35100033,-0.889 L 0.642,-0.234 0.549,0 z M 0.477,0.186 0.32,0.577 C 0.308,0.607 0.304,0.611 0.299,0.611 l -0.048,0 c -0.005,0 -0.01,-0.004 -0.022,-0.034 l -0.157,-0.391 0.405,0"
         id="path22068" />
    </g>
  </g>
  <path
     d="m 164.56742,-8.1721858 c 0,0 2.74321,0 2.74321,2.743228 l 0,12.11751 c 0,0 0,2.7364478 -2.74321,2.7364478 l -33.94488,0 0,-17.5971858 z"
     id="path22548-1"
     style="fill:#221f20" />
  <g
     transform="matrix(6.4851434,0,0,6.4851487,-2747.9027,-6586.5768)"
     id="g30823"
     style="fill:#ffffff">
    <path
       d="m 445.49195,1016.4348 0,-0.5437 -0.8175,0 0,0.5437 -0.245,0 0,-1.3325 0.245,0 0,0.545 0.8175,0 0,-0.545 0.24375,0 0,1.3325 -0.24375,0 z"
       id="path22754" />
    <g
       transform="matrix(1.25,0,0,-1.25,446.02795,1015.1029)"
       id="g22756">
      <path
         d="m 0,0 0.708,0 c 0.198,0 0.36,-0.161 0.36,-0.361 l 0,-0.344 c 0,-0.199 -0.162,-0.361 -0.36,-0.361 L 0,-1.066 0,0 z m 0.197,-0.87 0.511,0 c 0.09,0 0.164,0.076 0.164,0.165 l 0,0.344 c 0,0.09 -0.074,0.166 -0.164,0.166 l -0.511,0 0,-0.675"
         id="path22758" />
    </g>
  </g>
  <g
     transform="matrix(0.43999995,0,0,0.36475996,2.1373335e-4,-5.8099978)"
     style="fill:#ffffff;"
     id="text4587">
    <path
       d="m 367.81162,30.069 c -0.37849,-1e-6 -0.74515,-0.02366 -1.09997,-0.07097 -0.35484,-0.02366 -0.62687,-0.05914 -0.8161,-0.106449 l 0,-5.180496 -10.71582,0 c -0.0473,-0.189237 -0.0946,-0.425789 -0.14193,-0.709657 -0.0473,-0.283857 -0.071,-0.61503 -0.071,-0.99352 0,-0.425787 0.071,-0.839753 0.2129,-1.2419 0.14193,-0.402131 0.37848,-0.839752 0.70965,-1.312866 l 9.65134,-13.660898 4.18698,0 0,14.477004 3.54828,0 c 0.11826,0.425802 0.1774,0.969872 0.17742,1.632211 -2e-5,0.686008 -0.15378,1.159113 -0.46128,1.419314 -0.28388,0.260213 -0.62688,0.390317 -1.029,0.390312 l -2.23542,0 0,3.761182 c -2e-5,0.449451 -0.14195,0.827934 -0.4258,1.135451 -0.26022,0.307518 -0.75698,0.461277 -1.49028,0.461278 m -8.58685,-8.764265 6.67078,0 0,-9.438439 -6.67078,9.438439"
       id="path3015" />
  </g>
</svg>
