<?xml version="1.0" encoding="UTF-8" standalone="no"?>
<!-- Created with Inkscape (http://www.inkscape.org/) -->

<svg
   xmlns="http://www.w3.org/2000/svg"
   version="1.1"
   width="100%"
   height="100%"
   viewBox="0 0 86 22"
   id="svg2876">
  <path
     d="m 3.9561437,10.840955 c 1.1088563,0.257915 1.6348537,0.828591 1.6348537,1.774978 0,0.96873 -0.6661277,1.750614 -2.2542712,1.750614 l -3.00975583,0 c -0.15223404,0 -0.2233962,-0.105605 -0.2233962,-0.280258 l 0,-0.572708 c 0,-0.326973 0.17668656,-0.595047 0.60723255,-0.595047 l 2.71934018,0 c 0.3046306,0 0.420391,-0.140211 0.420391,-0.245736 0,-0.16247 -0.1156791,-0.268074 -0.4772554,-0.349307 L 1.6450083,11.949804 C 0.57067631,11.71626 0,11.133397 0,10.23372 0,9.206096 0.71080663,8.414057 2.0775843,8.414057 l 3.0219407,0 c 0.1645015,0 0.2802606,0.103655 0.2802606,0.280258 l 0,0.570675 c 0,0.326973 -0.1746549,0.607231 -0.6173858,0.607231 l -2.6157662,0 c -0.3493102,0 -0.4549157,0.117792 -0.4549157,0.221368 0,0.174654 0.1056055,0.245736 0.5016269,0.339157 l 1.7627989,0.408209 z m 3.9094326,2.918361 c 0,0.383839 -0.2904162,0.607231 -0.6052014,0.607231 l -0.9240476,0 c -0.1034933,0 -0.2315196,-0.105605 -0.2315196,-0.280258 l 0,-7.646243 c 0,-0.465071 0.2315196,-0.617381 0.641757,-0.617381 l 0.8285954,0 c 0.1746557,0 0.2904162,0.115838 0.2904162,0.280257 l 0,7.656394 z m 6.5840947,2.694969 c -0.04679,0.09343 -0.117791,0.233552 -0.351342,0.233552 l -1.072302,0 c -0.105605,0 -0.23355,-0.09342 -0.23355,-0.233552 0,-0.103651 0.02226,-0.162466 0.05687,-0.231515 l 1.214462,-2.463454 -2.672631,-3.992695 -1.376932,1.472385 1.762799,2.625915 c 0.103493,0.140052 0.127863,0.20918 0.127863,0.278234 0,0.117787 -0.127863,0.223392 -0.28026,0.223392 l -1.214463,0 c -0.174655,0 -0.280261,-0.117788 -0.39602,-0.280258 L 7.9711006,11.133397 10.235525,8.694315 c 0.16247,-0.186837 0.314785,-0.280258 0.595046,-0.280258 l 1.307883,0 c 0.28026,0 0.430546,0.103655 0.570677,0.326973 l 2.136478,3.395615 1.517062,-3.44233 c 0.07116,-0.176686 0.174655,-0.280258 0.398051,-0.280258 l 1.084487,0 c 0.128027,0 0.245736,0.103655 0.245736,0.233548 0,0.06905 -0.02437,0.15029 -0.071,0.233551 l -3.570275,7.573129"
     id="path8241" />
  <path
     d="m 31.308106,0 c -4.787898,0.01195 -10.063019,4.375468 -11.48177,9.495203 -0.666983,2.406891 -0.309401,4.796117 0.919525,6.15639 1.158712,1.282555 2.255026,1.727796 4.243584,1.716118 2.010173,-0.01184 3.785897,-0.711119 5.286039,-2.075079 0.351636,-0.319713 0.887071,-0.664268 1.189974,-0.767091 0.302902,-0.102815 0.827807,-0.371712 1.165387,-0.594986 0.520893,-0.344515 0.593769,-0.357082 0.491725,-0.108178 -0.313485,0.764649 -0.294071,0.840853 0.191772,0.840853 0.442122,0 0.501854,-0.08123 1.07196,-1.440753 0.651853,-1.554476 1.486609,-2.942548 2.188175,-3.633849 0.952466,-0.938533 0.936891,-0.458858 -0.06884,2.143921 -1.016229,2.629945 -1.058125,2.982025 -0.363876,2.901175 0.346604,-0.04035 0.717679,-0.451502 1.966899,-2.173424 1.68647,-2.324625 2.59369,-3.405348 2.733988,-3.26505 0.0499,0.04989 -0.374694,1.260732 -0.944111,2.689733 -0.569417,1.429005 -1.037539,2.639959 -1.037539,2.689737 0,0.04977 0.202063,0.08851 0.447469,0.08851 0.422935,0 0.49351,-0.10824 1.347326,-2.104585 1.031866,-2.412656 1.673701,-3.402735 2.212761,-3.402735 0.22908,0 0.390388,0.115232 0.442552,0.314705 0.09726,0.371924 0.466704,0.410996 0.742506,0.07868 0.107734,-0.129813 0.285824,-0.236025 0.398297,-0.236025 0.134749,0 -0.108782,0.787538 -0.722837,2.311104 -0.956947,2.374332 -1.093967,2.94561 -0.722836,3.088029 0.413559,0.158699 0.950627,-0.296248 1.898058,-1.612855 0.526473,-0.731623 1.017672,-1.333494 1.091627,-1.337494 0.07396,-0.004 0.638536,0.962328 1.253898,2.148836 1.012568,1.952372 1.124556,2.261705 1.180142,3.245387 0.04728,0.836787 -0.0083,1.247918 -0.245864,1.784956 -0.745588,1.685534 -2.201741,2.645482 -4.007558,2.645482 -1.57673,0 -2.650368,-0.535036 -3.206043,-1.603026 -0.511376,-0.982845 -0.07451,-2.418767 0.98345,-3.225713 0.738488,-0.563271 2.139974,-0.640711 2.507797,-0.137681 0.492993,0.674208 0.05096,1.610589 -0.575319,1.219477 -0.432356,-0.27001 -0.743059,-0.230089 -0.92936,0.118017 -0.221298,0.413499 -0.206363,0.575476 0.08359,0.865432 0.400525,0.400527 1.207026,0.309623 1.671863,-0.186851 0.534314,-0.570684 0.671753,-1.064434 0.442552,-1.617778 -0.359713,-0.868428 -1.382694,-1.228832 -2.611057,-0.919525 -1.111096,0.279778 -2.353156,1.538886 -2.502878,2.537303 -0.152062,1.014024 0.02446,1.627481 0.658911,2.261934 0.600796,0.600793 1.051658,0.825567 2.016071,1.012946 2.010332,0.390592 4.705701,-0.546603 5.900696,-2.055407 1.486201,-1.876485 1.397765,-3.717748 -0.329458,-6.790716 -1.027682,-1.828393 -1.233729,-2.547027 -0.934274,-3.269969 0.264651,-0.638924 1.384811,-1.185179 2.173423,-1.057205 1.116865,0.18124 1.965744,1.190345 1.627608,1.932475 -0.191862,0.421093 -0.609373,0.497433 -0.747423,0.137684 -0.108768,-0.283443 -0.55436,-0.30616 -0.816262,-0.04428 -0.280412,0.280412 -0.227339,0.711854 0.127847,1.067048 0.449869,0.449865 1.04276,0.397998 1.583353,-0.142599 0.5262,-0.526205 0.605787,-1.229593 0.22128,-1.966905 -0.13083,-0.250871 -0.219877,-0.469832 -0.196693,-0.491722 0.02319,-0.02191 0.445315,0.0026 0.934278,0.059 l 0.890023,0.103264 -0.924444,2.281601 c -0.972378,2.409858 -1.085995,2.943415 -0.683496,3.097872 0.41745,0.160186 0.962935,-0.399427 2.871672,-2.930681 2.582505,-3.424774 2.771828,-3.381029 1.283396,0.295029 -0.519261,1.282455 -0.944108,2.374508 -0.944108,2.429125 0,0.05461 0.194722,0.09696 0.432718,0.09343 0.366027,-0.0055 0.491639,-0.132779 0.811347,-0.826105 1.244095,-2.69796 3.154786,-5.166328 3.530581,-4.558284 0.120714,0.195316 -0.63727,2.347443 -1.381745,3.919048 l -0.698249,1.470255 0.46222,0 c 0.396013,0 0.515394,-0.111007 0.875274,-0.821185 0.229623,-0.453138 0.588922,-1.097029 0.796593,-1.425995 0.207667,-0.328975 0.342012,-0.649854 0.299948,-0.717917 -0.04206,-0.06806 0.06235,-0.56907 0.23111,-1.111299 0.355973,-1.143723 0.383297,-1.640245 0.108179,-1.868556 -0.437954,-0.363436 -1.461609,0.423728 -2.827417,2.173427 l -0.427795,0.545807 0.309782,-0.929354 c 1.005796,-3.017665 -0.459866,-2.319187 -3.230628,1.539097 -0.778893,1.084604 -1.468113,1.977531 -1.534183,1.98165 -0.06607,0.0044 -0.01096,-0.260612 0.127851,-0.585152 0.138789,-0.324539 0.610332,-1.49288 1.042456,-2.596307 0.514584,-1.314003 0.865154,-2.006237 1.017869,-2.006237 0.128243,0 0.616365,-0.385255 1.086712,-0.855601 0.751559,-0.75156 0.855602,-0.929346 0.855602,-1.485009 0,-0.880932 -0.237156,-1.312621 -0.988368,-1.799709 -1.381406,-0.895723 -3.260135,-0.300852 -3.260135,1.032618 0,0.490714 0.277944,0.747432 0.806428,0.747423 0.522821,0 0.805952,-0.585376 0.393382,-0.816261 -0.34808,-0.194797 -0.320721,-0.711731 0.04917,-0.909691 0.167398,-0.08959 0.598342,-0.162272 0.958861,-0.162272 0.535651,0 0.752782,0.09879 1.189975,0.535981 0.840096,0.840097 0.674986,1.91088 -0.437637,2.847086 -0.622534,0.523828 -0.708378,0.358833 -0.295033,-0.560565 l 0.30979,-0.698249 -0.481896,-0.04917 c -0.59257,-0.06197 -0.607147,-0.05049 -1.15555,1.268656 l -0.442552,1.06212 -0.806427,0 c -0.444149,0 -1.193733,-0.107866 -1.666949,-0.240944 -2.031998,-0.571463 -3.081143,-0.433663 -4.120651,0.535978 -0.525536,0.490217 -0.641674,0.707819 -0.713002,1.362076 -0.06901,0.633015 -0.265509,1.035206 -1.037538,2.109501 -0.523819,0.728899 -0.974651,1.255706 -1.003119,1.170302 -0.02847,-0.08539 0.338684,-1.144408 0.816265,-2.350439 1.127447,-2.847152 1.133131,-3.427393 0.0246,-2.773328 -0.507201,0.299266 -0.523877,0.296916 -0.703164,0.0099 -0.32821,-0.525541 -0.956586,-0.365535 -1.730873,0.442552 l -0.703166,0.737593 0.09834,-0.501564 c 0.119249,-0.596244 9.24e-4,-0.97361 -0.304869,-0.97361 -0.416076,0 -1.547076,1.222874 -3.117534,3.36339 -0.861393,1.174073 -1.5934,2.109289 -1.622691,2.080002 -0.02929,-0.0293 0.225754,-0.753332 0.565482,-1.607944 0.905054,-2.276718 1.147323,-3.053401 1.047375,-3.368313 -0.230063,-0.724861 -1.080804,-0.42552 -2.129168,0.747419 -0.370018,0.413987 -0.637795,0.646131 -0.59007,0.516313 0.04772,-0.129818 0.387825,-0.979514 0.752339,-1.888224 0.364515,-0.908706 0.795898,-1.988536 0.958863,-2.399614 l 0.295035,-0.747419 -1.135884,0.0049 c -1.136084,0.0062 -1.141932,0.0071 -0.614656,0.236024 0.399529,0.173475 0.505238,0.297933 0.4278,0.506476 -0.05633,0.151698 -0.681299,1.727615 -1.391581,3.501083 -1.082085,2.70181 -1.397259,3.330157 -1.932477,3.869869 -0.5431,0.547664 -1.78398,1.229998 -1.60794,0.885108 0.992841,-1.945116 1.143242,-2.374397 1.199809,-3.451913 C 32.614623,9.396804 32.24955,8.497744 31.376955,7.906965 30.70677,7.453228 29.279684,7.291053 28.426608,7.572591 c -1.99905,0.659749 -3.102586,2.852502 -2.060327,4.09115 0.513696,0.610495 1.170953,0.648432 1.721037,0.09835 0.428118,-0.428116 0.466783,-0.592913 0.226193,-1.042457 -0.121418,-0.226877 -0.266935,-0.283905 -0.555649,-0.211442 -0.843317,0.211658 -1.112394,-0.605176 -0.501559,-1.524344 0.517058,-0.778052 1.57749,-1.278723 2.527464,-1.194895 3.25296,0.287061 2.845044,5.326903 -0.634324,7.818424 -1.267644,0.907742 -2.408508,1.298787 -3.8207,1.312907 -1.352256,0.01351 -2.05634,-0.251715 -2.901175,-1.09655 -2.04716,-2.047157 -1.002134,-7.365308 2.237346,-11.398174 2.953635,-3.677015 6.96698,-5.131632 8.796954,-3.191292 0.621502,0.658984 0.872838,1.497674 0.890021,3.004435 0.0072,0.627441 0.05387,1.140802 0.103262,1.140802 0.04938,0 0.394596,-0.938209 0.772008,-2.084911 C 35.604572,2.147891 35.948894,1.121171 35.989332,1.012991 36.090391,0.742638 35.717166,0.76416 35.40418,1.047421 35.175861,1.254046 35.084353,1.239196 34.563331,0.885155 33.590704,0.224235 32.755254,-0.003565 31.308114,4.8e-5 z m 50.195248,2.320939 c -1.781722,-0.007 -2.71688,1.288548 -3.392901,2.911013 l -1.868551,0 c 0.188984,-0.451075 0.355511,-0.903168 0.496641,-1.337493 0.203878,-0.627425 0.665486,-0.689696 1.096545,-0.78676 l -2.148836,0.01969 c 0.697061,0.221881 0.598202,0.379385 0.545816,0.545815 -0.563486,1.790174 -1.401365,4.135259 -2.724154,5.394218 0.04867,-0.107959 0.08613,-0.222192 0.09834,-0.344208 0.07813,-0.780643 -0.648317,-1.477528 -1.64728,-1.573514 -1.324109,-0.127231 -2.414367,0.635338 -2.414367,1.686612 0,0.177953 0.399181,1.097865 0.885103,2.045572 0.698637,1.362539 0.883195,1.881955 0.890023,2.478295 0.01954,1.703974 -1.359172,3.03394 -3.142122,3.03394 -1.700859,0 -2.771119,-1.515927 -1.996398,-2.827417 0.538872,-0.912234 1.867209,-1.262443 2.320937,-0.614654 0.33352,0.476164 0.154924,0.793919 -0.41305,0.737585 -0.637969,-0.06327 -0.971295,0.413226 -0.521223,0.747424 0.543043,0.403229 1.504676,-0.183185 1.504676,-0.919525 0,-0.612924 -0.606857,-1.05721 -1.445672,-1.05721 -0.417635,0 -0.757253,-0.02834 -0.757253,-0.06392 0,-0.0356 0.255644,-0.655177 0.565483,-1.376826 0.30983,-0.721657 0.66066,-1.546384 0.781836,-1.834135 l 0.22128,-0.526147 -0.511394,0.03934 c -0.279558,0.02174 -0.668061,-0.01346 -0.865436,-0.07867 -0.833637,-0.2754 -2.676053,1.378665 -3.697768,3.319139 -0.536659,1.019242 -1.409821,2.094747 -1.701365,2.094747 -0.07409,0 0.120701,-0.548763 0.432718,-1.219482 1.665479,-3.58016 1.757892,-4.016574 0.885099,-4.100983 -0.4096,-0.0396 -0.635971,0.07681 -1.219472,0.614662 -0.772438,0.712003 -1.89735,2.154459 -1.775127,2.276682 0.04096,0.04096 0.253972,-0.190013 0.476969,-0.516313 0.910518,-1.332289 2.158674,-2.358962 2.158674,-1.775122 0,0.08617 -0.253589,0.705751 -0.565483,1.37683 -0.31189,0.671079 -0.772147,1.664774 -1.022789,2.20784 -0.250637,0.543065 -0.457305,1.162642 -0.457305,1.37683 0,0.618085 0.662297,0.51326 1.475175,-0.236029 l 0.678581,-0.629402 0.01474,0.467134 c 0.01888,0.663903 0.135467,0.78676 0.757257,0.78676 0.448219,0 0.696287,-0.140638 1.33257,-0.776926 0.4286,-0.428599 0.775773,-0.729528 0.772011,-0.668742 -0.004,0.06079 -0.0696,0.418664 -0.1426,0.796593 -0.25842,1.337776 0.314134,2.200875 1.66694,2.522546 1.14154,0.271431 2.784733,-0.123975 3.781368,-0.909691 0.790565,-0.623256 1.204724,-1.505011 1.204724,-2.561882 0,-0.797469 -0.116266,-1.134412 -0.904777,-2.689737 -0.783481,-1.545416 -0.876866,-1.831675 -0.737585,-2.198006 0.362653,-0.953845 1.881057,-1.151238 2.527465,-0.329459 0.376068,0.478095 0.400528,0.731821 0.103264,0.978529 -0.163258,0.135494 -0.259244,0.11939 -0.403216,-0.05406 -0.104355,-0.125743 -0.28956,-0.189987 -0.413045,-0.142599 -0.345062,0.132409 -0.273606,0.803712 0.108178,1.008031 0.227717,0.121875 0.501925,0.0627 0.732666,-0.103259 0.0031,-0.0018 0.0065,-0.0035 0.0099,-0.005 0.0044,-0.0031 0.01016,-0.0063 0.01474,-0.0099 1.113639,-0.548262 2.220375,-2.289034 2.999518,-4.086226 l 1.873471,0 c -0.202518,0.50915 -0.381664,1.043011 -0.555649,1.578429 -0.203878,0.627431 -0.665487,0.694614 -1.096546,0.791678 l 2.148837,-0.01967 C 77.826491,7.562023 77.92535,7.404521 77.977737,7.238091 c 0.566975,-1.801245 1.082144,-3.800859 2.847085,-4.577956 0.35805,-0.09096 0.742627,-0.0511 0.737589,0.181941 -0.01346,0.62314 -0.45184,1.456495 -0.708083,2.168507 -0.558025,1.550537 -0.857362,2.593355 -1.622693,2.792991 l 2.89626,0 c 1.653216,0 3.229709,-1.164208 3.245381,-3.009352 0.01043,-1.229066 -0.749306,-2.46846 -3.014271,-2.46846 l -0.678581,0 c -0.0106,0 -0.01914,-9.9e-5 -0.02948,0 -0.04928,-0.0022 -0.09942,-0.0049 -0.147519,-0.0049 z m 1.229311,0.344207 c 0.124203,-0.005 0.270173,0.007 0.427803,0.01474 1.056537,0.05192 1.640808,0.872929 1.598106,1.760377 -0.08543,1.775383 -1.400876,3.142115 -2.527465,3.142115 l -1.258813,0 c -0.223295,0 -0.358375,-0.167935 -0.260621,-0.427794 l 1.598106,-4.253421 c 0.06611,-0.17572 0.215886,-0.227409 0.422884,-0.236028 z m -37.690692,0.03933 0,0.644156 c 0,0.39599 0.07974,0.672294 0.211442,0.722839 0.117515,0.0451 0.175731,0.148714 0.12785,0.226193 -0.04789,0.07747 -0.01298,0.137682 0.07868,0.137682 0.09165,0 0.167187,0.106209 0.167187,0.236027 0,0.286928 -0.330194,0.307938 -0.619577,0.03934 -0.170483,-0.158242 -0.18854,-0.152834 -0.09343,0.01474 0.09469,0.166843 0.05799,0.171358 -0.17702,0.0246 -0.210179,-0.131265 -0.447507,-0.138609 -0.84085,-0.0246 -0.502826,0.14575 -0.520874,0.165286 -0.19669,0.265535 0.194723,0.06021 0.354044,0.181967 0.354044,0.265531 0,0.08939 0.291465,0.110585 0.708083,0.05406 0.852706,-0.115636 0.93657,0.110955 0.255697,0.698254 -0.250831,0.216365 -0.501393,0.589076 -0.555649,0.826095 l -0.09835,0.427803 0.516309,-0.290118 c 0.282674,-0.160376 0.503589,-0.405196 0.491726,-0.545816 -0.01188,-0.140619 0.03142,-0.2233 0.09835,-0.181935 0.06693,0.04136 0.162707,-0.07427 0.211442,-0.260621 0.07512,-0.287285 0.125835,-0.31075 0.334373,-0.13768 0.200869,0.166711 0.206492,0.251987 0.04425,0.452385 -0.161546,0.199558 -0.158699,0.219415 0.0099,0.118017 0.140963,-0.08481 0.191272,-0.0445 0.157353,0.122927 -0.02741,0.135384 0.128797,0.460091 0.344207,0.722841 0.215411,0.262746 0.397351,0.476973 0.408131,0.476973 0.01078,0 0.01967,-0.290743 0.01967,-0.644164 0,-0.396137 -0.07972,-0.672285 -0.211442,-0.722832 -0.117515,-0.0451 -0.175732,-0.143801 -0.127846,-0.221276 0.04788,-0.07748 0.01298,-0.142599 -0.07868,-0.142599 -0.09165,0 -0.167186,-0.10817 -0.167186,-0.240949 0,-0.23943 0.398318,-0.250043 0.944112,-0.0246 0.129813,0.05363 0.483854,0.04176 0.786759,-0.02948 L 48.695548,5.581039 48.223494,5.369597 C 47.963864,5.251822 47.50699,5.151088 47.205621,5.148321 46.497687,5.141721 46.408724,4.763818 47.033519,4.410736 c 0.263023,-0.148638 0.459263,-0.388081 0.452386,-0.550733 -0.0067,-0.158268 0.0436,-0.431734 0.113098,-0.604825 0.121501,-0.302588 0.115478,-0.304101 -0.186855,-0.03932 -0.172942,0.151454 -0.391046,0.275364 -0.486807,0.275364 -0.09577,0 -0.268083,0.249948 -0.378629,0.555649 -0.209541,0.579472 -0.730228,0.721134 -0.634326,0.172107 0.02741,-0.156998 -0.01901,-0.243849 -0.103263,-0.191775 -0.08689,0.05368 -0.117234,-0.03041 -0.07376,-0.196691 0.04569,-0.174719 -0.08057,-0.460758 -0.309787,-0.708082 L 45.042033,2.704472 z m 0.890023,2.084913 c 0.240719,-0.01298 0.491572,0.217382 0.452386,0.481888 -0.05063,0.341757 -0.238991,0.44825 -0.560565,0.319625 -0.227334,-0.09094 -0.265636,-0.621597 -0.05409,-0.752343 0.05097,-0.0315 0.106717,-0.0462 0.162267,-0.04917 z m 20.893376,4.037052 c 0.111729,-3.43e-4 0.20779,0.05291 0.275369,0.162272 0.25649,0.415004 -1.389858,3.801273 -2.335695,4.804147 -1.069622,1.134135 -1.402543,0.388762 -0.619568,-1.391578 0.906598,-2.061444 2.076566,-3.572997 2.679894,-3.574841 z"
     id="path2888" />
</svg>
