<?xml version="1.0" encoding="UTF-8" standalone="no"?>
<!-- Created with Inkscape (http://www.inkscape.org/) -->

<svg
   xmlns="http://www.w3.org/2000/svg"
   xmlns:xlink="http://www.w3.org/1999/xlink"
   version="1.1"
   width="100%"
   height="100%"
   viewBox="0 0 78 22"
   id="svg2">
  <defs
     id="defs6">
    <linearGradient
       id="linearGradient3962">
      <stop
         id="stop3964"
         style="stop-color:#505050;stop-opacity:1"
         offset="0" />
      <stop
         id="stop3966"
         style="stop-color:#808080;stop-opacity:1"
         offset="0.11204819" />
      <stop
         id="stop3968"
         style="stop-color:#808080;stop-opacity:1"
         offset="0.94417667" />
      <stop
         id="stop3970"
         style="stop-color:#b4b4b4;stop-opacity:1"
         offset="1" />
    </linearGradient>
    <linearGradient
       id="linearGradient3946">
      <stop
         id="stop3948"
         style="stop-color:#a0a0a0;stop-opacity:1"
         offset="0" />
      <stop
         id="stop3958"
         style="stop-color:#c8c8c8;stop-opacity:1"
         offset="0.11235955" />
      <stop
         id="stop3956"
         style="stop-color:#c8c8c8;stop-opacity:1"
         offset="0.94382024" />
      <stop
         id="stop3950"
         style="stop-color:#f0f0f0;stop-opacity:1"
         offset="1" />
    </linearGradient>
    <linearGradient
       id="linearGradient3898">
      <stop
         id="stop3900"
         style="stop-color:#0d1329;stop-opacity:1"
         offset="0" />
      <stop
         id="stop3908"
         style="stop-color:#202f66;stop-opacity:1"
         offset="0.11200321" />
      <stop
         id="stop3910"
         style="stop-color:#202f66;stop-opacity:1"
         offset="0.94379765" />
      <stop
         id="stop3902"
         style="stop-color:#334ba3;stop-opacity:1"
         offset="1" />
    </linearGradient>
    <linearGradient
       id="linearGradient3890">
      <stop
         id="stop3892"
         style="stop-color:#ffffff;stop-opacity:1"
         offset="0" />
      <stop
         id="stop3894"
         style="stop-color:#ffffff;stop-opacity:0"
         offset="1" />
    </linearGradient>
    <linearGradient
       x1="695.35712"
       y1="-46.142857"
       x2="695.35712"
       y2="-401.85715"
       id="linearGradient4145"
       xlink:href="#linearGradient3962"
       gradientUnits="userSpaceOnUse"
       gradientTransform="matrix(0.04680901,0,0,0.04680901,-0.2343607,21.486025)" />
    <linearGradient
       x1="1189.4546"
       y1="-46"
       x2="1189.4546"
       y2="-402"
       id="linearGradient4149"
       xlink:href="#linearGradient3946"
       gradientUnits="userSpaceOnUse"
       gradientTransform="matrix(0.04680901,0,0,0.04680901,-0.2343607,21.486025)" />
    <linearGradient
       x1="13.928571"
       y1="-46.142857"
       x2="13.928571"
       y2="-402"
       id="linearGradient4153"
       xlink:href="#linearGradient3898"
       gradientUnits="userSpaceOnUse"
       gradientTransform="matrix(0.04680901,0,0,0.04680901,-0.2343607,21.486025)" />
    <radialGradient
       cx="49.82143"
       cy="43.910713"
       r="19.285715"
       fx="49.82143"
       fy="43.910713"
       id="radialGradient4168"
       xlink:href="#linearGradient3890"
       gradientUnits="userSpaceOnUse"
       gradientTransform="matrix(0.02931771,-0.02402374,0.00767425,0.00936538,-0.1527944,4.416968)" />
  </defs>
  <path
     d="m 2.8316292,2.668808 c -1.3093436,0 -2.3638551,1.054509 -2.3638551,2.363851 l 0,11.936299 c 0,1.309343 1.0545115,2.363857 2.3638551,2.363857 l 29.4823618,0 0,-16.664007 z"
     id="rect2987"
     style="fill:url(#linearGradient4153)" />
  <path
     d="M 2.2102502,3.167993 A 0.23351225,0.73099488 50.667864 1 1 1.0794243,4.094625 0.23351225,0.73099488 50.667864 0 1 2.2102502,3.167993 z"
     id="path3888"
     style="fill:url(#radialGradient4168)" />
  <path
     d="m 32.314617,2.668808 43.550507,0 c 0.499616,0 1.555836,0.933953 1.555836,1.419793 l 0,13.65291 c 0,0.768339 -0.899506,1.591304 -1.714183,1.591304 l -43.39216,0 z"
     id="rect3871"
     style="fill:url(#linearGradient4149)" />
  <path
     d="m 31.677681,2.668808 c 0,0 -0.140427,0.411097 -0.140427,1.100013 l 0,14.424484 c 0,0.580413 0.140427,1.13951 0.140427,1.13951 l 1.454005,0 c 0,0 -0.140427,-0.568421 -0.140427,-1.13951 l 0,-14.41132 c 0,-0.703108 0.140427,-1.113177 0.140427,-1.113177 z"
     id="rect3883"
     style="fill:url(#linearGradient4145)" />
  <path
     d="m 13.257559,3.927146 c -0.464709,0 -0.88951,0.231318 -0.88951,0.800063 l 0,10.021712 c 0,0.223045 0.241346,0.411559 0.428252,0.411559 l 1.166708,0 c 0.46653,0 0.85259,-0.325963 0.85259,-0.895077 l 0,-10.02032 c 0,-0.224139 -0.204827,-0.317937 -0.390638,-0.317937 z M 7.1763537,7.281088 c -1.7774315,0 -2.7104893,1.092426 -2.7104893,2.405146 0,1.166702 0.7184531,1.969956 2.1525283,2.290671 l 2.289583,0.512047 c 0.465585,0.104123 0.559985,0.142179 0.559985,0.379466 0,0.182155 -0.09459,0.3026 -0.514763,0.3026 l -3.5502121,0 c -0.5691136,0 -0.7979791,0.354904 -0.7979791,0.818883 l 0,0.741626 c 0,0.185808 0.09211,0.428953 0.3151557,0.428953 l 3.8945885,0 c 2.1034193,0 3.0462133,-1.125009 3.0462133,-2.343546 0,-1.260505 -0.822127,-2.063809 -2.2468423,-2.383204 L 7.3238437,9.920298 C 6.8584735,9.815971 6.7645541,9.778844 6.7645541,9.540831 c 0,-0.181412 0.094226,-0.276135 0.5147636,-0.276135 l 3.4068943,0 c 0.567654,0 0.890902,-0.380967 0.890902,-0.846046 l 0,-0.739541 c 0,-0.186177 -0.186094,-0.398021 -0.408774,-0.398021 z M 18.619398,7.250168 c -0.350814,0 -0.601241,0.186584 -0.809884,0.411559 l -2.972075,3.191221 2.665963,3.884846 c 0.153892,0.224255 0.34531,0.422694 0.578213,0.422694 l 1.588306,0 c 0.237648,0 0.413298,-0.188553 0.413298,-0.388604 0,-0.122656 -0.06168,-0.200925 -0.138445,-0.315153 l -2.303452,-3.427722 1.727388,-1.876983 3.433936,5.150995 -1.594901,3.241968 c -0.04271,0.09637 -0.09253,0.189367 -0.09253,0.282455 0,0.189461 0.232533,0.337076 0.421994,0.337076 l 1.407422,0 c 0.28693,0 0.410681,-0.155063 0.516912,-0.385771 L 28.100619,7.9094 c 0.04558,-0.09696 0.09322,-0.188971 0.09322,-0.283154 0,-0.189098 -0.200177,-0.376078 -0.390368,-0.376078 l -1.418555,0 c -0.284012,0 -0.438429,0.118289 -0.541293,0.349547 l -1.97648,4.443501 -2.791887,-4.397585 C 20.902951,7.37294 20.721158,7.250157 20.307192,7.250157 z"
     id="path5649"
     style="fill:#ffffff" />
  <g
     id="g3520">
    <rect
       width="1.5798039"
       height="8.7064753"
       ry="0"
       x="49.356247"
       y="6.6475754"
       id="rect3807"
       style="fill:#202f66" />
    <path
       d="m 61.62687,14.563366 5.490474,0 c 0.610833,0 1.645464,-0.225514 1.645464,-1.50017 l 0,-0.517281 c 0,-2.621413 -6.642394,-0.757044 -6.642394,-3.513049 l 0,-0.324716 c 0,-1.00506 0.940354,-1.270295 1.678642,-1.270295 l 5.274802,0"
       id="path4572"
       style="fill:none;stroke:#202f66;stroke-width:1.57976699" />
    <path
       d="m 39.626323,6.646779 0,8.706447 1.578737,0 0,-3.563855 5.344321,0 0,3.563855 1.578738,0 0,-8.706447 -1.578738,0 0,3.563854 -5.344321,0 0,-3.563854 -1.578737,0 z"
       id="rect4574"
       style="fill:#202f66" />
    <path
       d="m 51.975561,6.646779 0,1.581661 3.555084,0 0,7.124786 1.578738,0 0,-7.124786 3.572626,0 0,-1.581661 -3.572626,0 -1.578738,0 -3.555084,0 z"
       id="rect4581"
       style="fill:#202f66" />
  </g>
  <path
     d="M 1.1817078,19.028674 C 0.65253,18.26319 1.0601266,17.3884 1.6999777,16.789328 4.4239046,14.238998 17.120018,11.828795 23.936234,10.544042 30.752448,9.259294 37.369255,8.389511 44.148768,8.18029 51.412232,7.956135 58.708301,7.996743 65.96546,8.47887 c 2.09136,0.138939 4.185575,0.348324 6.243929,0.74645 2.354002,0.455309 2.682266,1.05157 3.578536,2.936029 0.547009,1.150138 0.862564,2.232063 0.937815,3.408782 0.127756,1.997696 -0.271472,3.30925 -0.271472,3.30925 0,0 0.792041,-0.678953 0.765062,-2.637449 L 77.071256,5.493079 C 77.058374,4.559015 76.735397,3.201626 75.615167,3.154208 72.003148,3.001318 67.681313,3.552311 63.546874,3.552311 l -51.333417,0 C 2.753538,3.552311 2.7362534,3.033537 1.5519006,3.054683 0.8767281,3.066733 0.4906807,4.099828 0.4906807,4.721747 l 0,11.943175 c 0,2.045875 0.6910271,2.363752 0.6910271,2.363752 z"
     id="path3100"
     style="opacity:0.4;fill:#ffffff" />
  <path
     d="M 2.832958,2.2 C 1.263163,2.2 0,3.466083 0,5.035877 L 0,16.967044 C 0,18.536838 1.263163,19.8 2.832958,19.8 l 72.17172,0 c 1.569792,0 2.832948,-1.263162 2.832948,-2.832956 l 0,-11.931167 C 77.837626,3.466083 76.57447,2.2 75.004678,2.2 z m 0.00877,0.501424 72.154173,0 c 1.309167,0 2.340289,1.029506 2.340289,2.33738 0,3.975106 0,7.950213 0,11.925319 0,1.307868 -1.031122,2.334453 -2.340289,2.334453 l -72.154173,0 c -1.3091672,0 -2.3403019,-1.026585 -2.3403019,-2.334453 0,-3.975106 0,-7.950213 0,-11.925319 0,-1.307874 1.0311347,-2.33738 2.3403019,-2.33738 z"
     id="rect4116"
     style="fill:#333333" />
</svg>
