<?xml version="1.0" encoding="UTF-8" standalone="no"?>
<!-- Created with Inkscape (http://www.inkscape.org/) -->

<svg
   xmlns="http://www.w3.org/2000/svg"
   xmlns:xlink="http://www.w3.org/1999/xlink"
   version="1.1"
   width="100%"
   height="100%"
   viewBox="0 -23.5 128 22"
   id="svg2">
  <defs
     id="defs6">
    <linearGradient
       id="linearGradient3962">
      <stop
         id="stop3964"
         style="stop-color:#505050;stop-opacity:1"
         offset="0" />
      <stop
         id="stop3966"
         style="stop-color:#808080;stop-opacity:1"
         offset="0.11204819" />
      <stop
         id="stop3968"
         style="stop-color:#808080;stop-opacity:1"
         offset="0.94417667" />
      <stop
         id="stop3970"
         style="stop-color:#b4b4b4;stop-opacity:1"
         offset="1" />
    </linearGradient>
    <linearGradient
       id="linearGradient3946">
      <stop
         id="stop3948"
         style="stop-color:#a0a0a0;stop-opacity:1"
         offset="0" />
      <stop
         id="stop3958"
         style="stop-color:#c8c8c8;stop-opacity:1"
         offset="0.11235955" />
      <stop
         id="stop3956"
         style="stop-color:#c8c8c8;stop-opacity:1"
         offset="0.94382024" />
      <stop
         id="stop3950"
         style="stop-color:#f0f0f0;stop-opacity:1"
         offset="1" />
    </linearGradient>
    <linearGradient
       id="linearGradient3898">
      <stop
         id="stop3900"
         style="stop-color:#0d1329;stop-opacity:1"
         offset="0" />
      <stop
         id="stop3908"
         style="stop-color:#202f66;stop-opacity:1"
         offset="0.11200321" />
      <stop
         id="stop3910"
         style="stop-color:#202f66;stop-opacity:1"
         offset="0.94379765" />
      <stop
         id="stop3902"
         style="stop-color:#334ba3;stop-opacity:1"
         offset="1" />
    </linearGradient>
    <linearGradient
       id="linearGradient3890">
      <stop
         id="stop3892"
         style="stop-color:#ffffff;stop-opacity:1"
         offset="0" />
      <stop
         id="stop3894"
         style="stop-color:#ffffff;stop-opacity:0"
         offset="1" />
    </linearGradient>
    <linearGradient
       x1="695.35712"
       y1="-46.142857"
       x2="695.35712"
       y2="-401.85715"
       id="linearGradient4145"
       xlink:href="#linearGradient3962"
       gradientUnits="userSpaceOnUse"
       gradientTransform="matrix(0.046809,0,0,0.046809,-0.23436661,-2.013975)" />
    <linearGradient
       x1="1189.4546"
       y1="-46"
       x2="1189.4546"
       y2="-402"
       id="linearGradient4149"
       xlink:href="#linearGradient3946"
       gradientUnits="userSpaceOnUse"
       gradientTransform="matrix(0.046809,0,0,0.046809,-0.23436661,-2.013975)" />
    <linearGradient
       x1="13.928571"
       y1="-46.142857"
       x2="13.928571"
       y2="-402"
       id="linearGradient4153"
       xlink:href="#linearGradient3898"
       gradientUnits="userSpaceOnUse"
       gradientTransform="matrix(0.046809,0,0,0.046809,-0.23436661,-2.013975)" />
    <radialGradient
       cx="49.82143"
       cy="43.910713"
       r="19.285715"
       fx="49.82143"
       fy="43.910713"
       id="radialGradient4168"
       xlink:href="#linearGradient3890"
       gradientUnits="userSpaceOnUse"
       gradientTransform="matrix(0.02931771,-0.02402373,0.00767425,0.00936538,-0.15280036,-19.083032)" />
  </defs>
  <path
     d="m 2.831623,-20.831192 c -1.3093438,0 -2.36385456,1.054508 -2.36385456,2.363851 l 0,11.936299 c 0,1.309343 1.05451076,2.363857 2.36385456,2.363857 l 29.482358,0 0,-16.664007 z"
     id="rect2987"
     style="fill:url(#linearGradient4153)" />
  <path
     d="m 2.2102441,-20.332007 a 0.23351213,0.73099451 50.667864 1 1 -1.1308257,0.926631 0.23351213,0.73099451 50.667864 1 1 1.1308257,-0.926631 z"
     id="path3888"
     style="fill:url(#radialGradient4168)" />
  <rect
     width="80.544922"
     height="16.664005"
     x="32.31461"
     y="-20.831196"
     id="rect3871"
     style="fill:url(#linearGradient4149)" />
  <path
     d="m 100.82107,-20.831192 0,16.664007 24.1432,0 c 1.30934,0 2.36385,-1.054514 2.36385,-2.363857 l 0,-11.936299 c 0,-1.309343 -1.05451,-2.363851 -2.36385,-2.363851 z"
     id="rect3863"
     style="fill:#000000" />
  <path
     d="m 31.677671,-20.831192 c 0,0 -0.140427,0.411097 -0.140427,1.100012 l 0,14.424485 c 0,0.580413 0.140427,1.13951 0.140427,1.13951 l 1.454005,0 c 0,0 -0.140427,-0.568421 -0.140427,-1.13951 l 0,-14.41132 c 0,-0.703108 0.140427,-1.113177 0.140427,-1.113177 z m 68.489529,0 c 0,0 0.14043,0.410069 0.14043,1.113177 l 0,14.41132 c 0,0.571089 -0.14043,1.13951 -0.14043,1.13951 l 1.26677,0 c 0,0 0.14043,-0.559097 0.14043,-1.13951 l 0,-14.424485 c 0,-0.688915 -0.14043,-1.100012 -0.14043,-1.100012 z"
     id="rect3883"
     style="fill:url(#linearGradient4145)" />
  <path
     d="m 13.25755,-19.572854 c -0.464708,0 -0.889509,0.231318 -0.889509,0.800063 l 0,10.021711 c 0,0.223044 0.241345,0.411559 0.428252,0.411559 l 1.166707,0 c 0.466531,0 0.852591,-0.325963 0.852591,-0.895077 l 0,-10.020319 c 0,-0.224139 -0.204827,-0.317937 -0.390638,-0.317937 z m -6.0812045,3.353941 c -1.7774297,0 -2.7104879,1.092427 -2.7104879,2.405147 0,1.166701 0.7184531,1.969955 2.1525275,2.29067 l 2.2895826,0.512047 c 0.4655851,0.104123 0.5599853,0.142179 0.5599853,0.379466 0,0.182155 -0.09459,0.3026 -0.5147634,0.3026 l -3.5502108,0 c -0.5691136,0 -0.7979791,0.354904 -0.7979791,0.818883 l 0,0.741626 c 0,0.185808 0.09211,0.428953 0.3151557,0.428953 l 3.8945877,0 c 2.1034179,0 3.0462129,-1.125009 3.0462129,-2.343546 0,-1.260505 -0.822127,-2.063809 -2.2468416,-2.383204 l -2.2902787,-0.513432 c -0.4653699,-0.104327 -0.5592893,-0.141453 -0.5592893,-0.379466 0,-0.181413 0.094226,-0.276135 0.514764,-0.276135 l 3.4068936,0 c 0.567654,0 0.890901,-0.380968 0.890901,-0.846047 l 0,-0.739541 c 0,-0.186176 -0.186093,-0.398021 -0.408774,-0.398021 z m 11.4430445,-0.03091 c -0.350814,0 -0.601242,0.186583 -0.809885,0.411559 l -2.972074,3.191221 2.665963,3.884845 c 0.153891,0.224255 0.345309,0.422693 0.578212,0.422693 l 1.588306,0 c 0.237648,0 0.413298,-0.188553 0.413298,-0.388603 0,-0.122656 -0.06168,-0.200925 -0.138445,-0.315154 l -2.303452,-3.427721 1.727388,-1.876982 3.433936,5.150994 -1.594902,3.241969 c -0.04271,0.09637 -0.09253,0.189367 -0.09253,0.282455 0,0.189461 0.232533,0.337076 0.421993,0.337076 l 1.407423,0 c 0.286929,0 0.410681,-0.155063 0.516912,-0.385771 l 4.639075,-9.869351 c 0.04558,-0.09696 0.09322,-0.188971 0.09322,-0.283154 0,-0.189098 -0.200177,-0.376078 -0.390368,-0.376078 l -1.418556,0 c -0.284012,0 -0.438429,0.118289 -0.541293,0.349546 l -1.976477,4.443502 -2.791887,-4.397585 c -0.172305,-0.272691 -0.354097,-0.395474 -0.768064,-0.395474 z"
     id="path5649"
     style="fill:#ffffff" />
  <g
     transform="matrix(0.046809,0,0,0.046809,-13.893373,-21.673756)"
     id="g3859">
    <path
       d="m 2549.3792,103 0,186 34,0 0,-76 114,0 0,76 34,0 0,-186 -34,0 0,76 -114,0 0,-76 z"
       id="rect3841"
       style="fill:#ffffff" />
    <path
       d="m 2769.3792,103 0,186 34,0 87.875,0 c 35.0209,0 63.2188,-28.19804 63.2188,-63.21875 l 0,-59.5625 C 2954.473,131.19804 2926.2751,103 2891.2542,103 l -87.875,0 z m 34,34.84375 88.5626,0 c 15.7296,0 28.375,12.67661 28.375,28.40625 l 0,59.5 c 0,15.72964 -12.6454,28.40625 -28.375,28.40625 l -88.5626,0 z"
       id="rect3847"
       style="fill:#ffffff" />
  </g>
  <g
     transform="matrix(0.09355483,0,0,0.09355483,-5.7324219e-6,-40.010969)"
     id="g4536">
    <path
       d="m 683.375,247.53125 c -10.69152,0 -19.28125,8.621 -19.28125,19.3125 l 0,54.46875 c 0,10.6915 8.58973,19.28125 19.28125,19.28125 l 60.90625,0 0,-16.875 -60.625,0 c -1.1879,0 -2.15625,-0.96831 -2.15625,-2.15625 l 0,-19.0625 62.78125,0 0,-16.875 -62.78125,0 0,-19.0625 c 0,-1.18794 0.96835,-2.125 2.15625,-2.125 l 60.625,0 0,-16.90625 -60.90625,0 z"
       id="rect3798"
       style="fill:#202f66" />
    <path
       d="m 931.99451,247.53975 c -5.29031,0 -12.29222,3.67709 -15.43228,11.66412 l -32.00598,81.39868 18.62194,0 8.11486,-20.63893 49.1738,0 8.11485,20.63893 18.62197,0 -31.99036,-81.38304 c -3.0922,-7.86528 -9.63314,-11.67976 -15.44793,-11.67976 l -7.77087,0 z m 1.78246,17.16784 c 0.10575,-0.005 0.22581,0 0.35961,0 l 3.518,0 c 1.04684,0 1.10611,0.0667 1.68864,1.54792 l 14.54106,36.96244 -36.00867,0 14.58797,-37.1188 c 0.45595,-1.15996 0.57314,-1.36083 1.31339,-1.39156 z"
       id="rect3010"
       style="fill:#202f66" />
    <rect
       width="16.886395"
       height="93.062798"
       ry="0"
       x="527.56488"
       y="247.53976"
       id="rect3807"
       style="fill:#202f66" />
    <path
       d="m 461.6422,247.53975 c -17.8192,0 -32.1624,14.34316 -32.1624,32.16233 l 0,28.73814 c 0,17.81917 14.3432,32.16233 32.1624,32.16233 l 50.3933,0 0,-17.04275 -50.8155,0 c -8.1372,0 -14.6974,-6.5446 -14.6974,-14.68178 l 0,-29.61373 c 0,-8.13719 6.5602,-14.68179 14.6974,-14.68179 l 50.8155,0 0,-17.04275 -50.3933,0 z"
       id="rect3809"
       style="fill:#202f66" />
    <path
       d="m 568.67404,247.53975 c -5.14848,0 -8.8966,3.59795 -8.8966,8.00541 l 0,85.05739 17.01147,0 0,-64.07449 60.52519,61.94805 c 1.52593,1.56221 2.64329,2.12644 5.23789,2.12644 5.14847,0 8.89665,-3.59798 8.89665,-8.0054 l 0,-85.0574 -17.01148,0 0,64.07449 -60.52519,-61.94805 c -1.52598,-1.56217 -2.64328,-2.12644 -5.23793,-2.12644 z"
       id="path3826"
       style="fill:#202f66" />
    <path
       d="m 775.125,247.53125 c -6.66803,0.0233 -10.90625,4.01906 -10.90625,11.0625 l 0,82 16.90625,0 0,-60.71875 25.15625,38.9375 c 5.60412,8.6742 16.08338,8.6742 21.6875,0 l 25.15625,-38.9375 0,60.71875 16.90625,0 0,-82 c 0,-7.04344 -4.23822,-11.0392 -10.90625,-11.0625 -4.98853,-0.0174 -7.77277,1.53852 -9.96875,4.9375 l -32.03125,49.5625 -32.03125,-49.5625 c -2.19598,-3.39898 -4.98022,-4.95493 -9.96875,-4.9375 z"
       id="rect4522"
       style="fill:#202f66" />
  </g>
  <path
     d="m 2.0417212,-20.364567 c -0.51402,0 -1.4413574,0.674821 -1.57102716,1.774355 -2.42e-5,4.84e-4 2.389e-5,0.0011 0,0.0017 -0.001984,0.03994 -0.002926,0.08099 -0.002926,0.121413 l 0,11.9363 c 0,0.427368 0.11182723,0.827947 0.30864684,1.173148 -0.0181919,-0.108417 -0.0257629,-0.22313 -0.0204792,-0.343773 0.0308063,-0.703411 0.55501112,-1.080016 2.35865432,-1.944223 2.5354501,-1.214846 10.005836,-2.486116 12.230845,-2.867491 14.337842,-2.457566 18.368502,-3.423067 32.694407,-4.338608 9.967646,-0.637013 17.479691,-1.001676 27.451727,-0.982087 9.006602,0.01771 25.232861,0.180698 40.108761,2.073264 5.16847,0.734145 7.70995,1.578117 9.86645,2.959018 1.62931,1.043324 1.57581,3.452954 1.65948,4.712491 0.0127,0.190578 8.8e-4,0.382415 -0.0249,0.570484 0.14477,-0.306522 0.22674,-0.649583 0.22674,-1.012243 l 0,-11.936299 c 0,-0.02679 -8.8e-4,-0.05386 -0.002,-0.08045 -0.18499,-0.601129 -0.7879,-1.696823 -1.84311,-1.696823 -1.28755,0 -0.74014,0.443223 -10.54519,0.443223 l -102.709852,0 c -8.4663951,-0.0035 -8.7284989,-0.563365 -10.1863324,-0.563365 z"
     id="rect3007"
     style="opacity:0.4;fill:#ffffff" />
  <path
     d="m 2.8329517,-21.3 c -1.5697948,0 -2.8329574324219,1.266083 -2.8329574324219,2.835877 l 0,11.931167 C -5.7324219e-6,-4.963162 1.2631569,-3.7 2.8329517,-3.7 l 122.1299983,0 c 1.56979,0 2.83295,-1.263162 2.83295,-2.832956 l 0,-11.931167 c 0,-1.569794 -1.26316,-2.835877 -2.83295,-2.835877 z m 0.00877,0.501424 122.1124483,0 c 1.30917,0 2.34029,1.029505 2.34029,2.337379 0,3.975107 0,7.950213 0,11.92532 0,1.307868 -1.03112,2.334453 -2.34029,2.334453 l -122.1124483,0 c -1.3091673,0 -2.34030156,-1.026585 -2.34030156,-2.334453 0,-3.975107 0,-7.950213 0,-11.92532 0,-1.307874 1.03113426,-2.337379 2.34030156,-2.337379 z"
     id="rect4116"
     style="fill:#333333" />
</svg>
