<?xml version="1.0" encoding="UTF-8" standalone="no"?>
<!-- Created with Inkscape (http://www.inkscape.org/) -->

<svg
   xmlns="http://www.w3.org/2000/svg"
   version="1.1"
   width="100%"
   height="100%"
   viewBox="0 -10.375 143 22"
   id="svg2">
  <g
     transform="matrix(0.43999931,0,0,0.43999931,3.8987805e-5,-524.32852)"
     id="layer1">
    <path
       d="m 71.467966,1174.6665 243.582424,0 c 0,0 6.29744,0 6.29743,5.7403 l -2e-5,25.3566 c 0,0 4e-5,5.7262 -6.29751,5.7262 l -243.582324,0"
       id="path22548-5"
       style="fill:#ffffff;stroke:#881f16;stroke-width:3.17696261;stroke-linecap:butt;stroke-linejoin:miter;stroke-miterlimit:10;stroke-opacity:1;stroke-dasharray:none" />
    <path
       d="m 73.775266,1174.6001 -66.4922006,0 c 0,0 -5.7610219,0 -5.7610219,5.761 l 0,25.4481 c 0,0 0,5.7468 5.7610219,5.7468 l 66.4922006,0"
       id="path22548"
       style="fill:#881f16;stroke:#881f16;stroke-width:3.04409552;stroke-linecap:butt;stroke-linejoin:miter;stroke-miterlimit:10;stroke-opacity:1;stroke-dasharray:none" />
    <g
       transform="matrix(9.7067977,0,0,-9.7067977,55.006208,1209.2918)"
       id="g22178">
      <path
         d="m 0,0 c -0.014,-0.03 -0.037,-0.075 -0.111,-0.075 l -0.344,0 c -0.034,0 -0.075,0.03 -0.075,0.075 0,0.033 0.007,0.052 0.019,0.074 L -0.123,0.863 -0.978,2.14 -1.419,1.67 -0.855,0.829 c 0.033,-0.044 0.041,-0.067 0.041,-0.09 0,-0.036 -0.041,-0.07 -0.09,-0.07 l -0.388,0 c -0.056,0 -0.09,0.037 -0.127,0.089 l -0.654,0.945 0.725,0.781 c 0.052,0.06 0.101,0.09 0.19,0.09 l 0.418,0 c 0.09,0 0.139,-0.034 0.184,-0.105 L 0.127,1.382 0.613,2.484 c 0.022,0.056 0.056,0.09 0.127,0.09 l 0.347,0 C 1.128,2.574 1.166,2.54 1.166,2.499 1.166,2.476 1.158,2.451 1.143,2.424 L 0,0 z M -2.106,0.863 C -2.106,0.739 -2.2,0.669 -2.3,0.669 l -0.296,0 c -0.033,0 -0.075,0.034 -0.075,0.089 l 0,2.447 c 0,0.149 0.075,0.198 0.207,0.198 l 0.264,0 c 0.056,0 0.094,-0.038 0.094,-0.09 l 0,-2.45 z m -1.252,0.933 c 0.355,-0.082 0.523,-0.265 0.523,-0.567 0,-0.31 -0.212,-0.56 -0.721,-0.56 l -0.964,0 c -0.048,0 -0.071,0.034 -0.071,0.089 l 0,0.183 c 0,0.105 0.057,0.191 0.195,0.191 l 0.87,0 c 0.098,0 0.135,0.044 0.135,0.078 0,0.052 -0.037,0.086 -0.154,0.112 l -0.553,0.12 c -0.343,0.074 -0.526,0.261 -0.526,0.549 0,0.329 0.228,0.583 0.664,0.583 l 0.968,0 c 0.053,0 0.089,-0.034 0.089,-0.09 l 0,-0.183 c 0,-0.105 -0.055,-0.194 -0.197,-0.194 l -0.837,0 c -0.112,0 -0.145,-0.038 -0.145,-0.072 0,-0.055 0.033,-0.078 0.161,-0.108 l 0.563,-0.131"
         id="path22180"
         style="fill:#ffffff" />
    </g>
    <g
       transform="matrix(18.912719,0,0,-18.912719,-156.37627,6996.7198)"
       id="g31676"
       style="fill:#881f16">
      <g
         transform="translate(13.3457,306.3202)"
         id="g22032">
        <path
           d="m 0,0 -0.732,0 0,1.039 0.711,0 c 0.148,0 0.267,-0.118 0.267,-0.266 l 0,-0.085 C 0.246,0.628 0.228,0.577 0.193,0.533 0.241,0.485 0.266,0.421 0.266,0.349 l 0,-0.085 C 0.266,0.116 0.147,0 0,0 m 0.055,0.773 c 0,0.041 -0.035,0.075 -0.076,0.075 l -0.521,0 0,-0.234 0.521,0 c 0.041,0 0.076,0.033 0.076,0.074 l 0,0.085 z M 0.077,0.349 C 0.077,0.389 0.041,0.424 0,0.424 l -0.542,0 0,-0.234 0.542,0 c 0.041,0 0.077,0.032 0.077,0.074 l 0,0.085"
           id="path22034" />
      </g>
      <g
         transform="translate(13.8,307.3591)"
         id="g22036">
        <path
           d="m 0,0 0.192,0 0,-0.69 c 0,-0.086 0.069,-0.158 0.158,-0.158 l 0.342,0 c 0.087,0 0.158,0.072 0.158,0.158 l 0,0.69 0.192,0 0,-0.688 c 0,-0.192 -0.156,-0.351 -0.35,-0.351 l -0.342,0 C 0.156,-1.039 0,-0.88 0,-0.688 L 0,0"
           id="path22038" />
      </g>
      <g
         transform="translate(15.9901,306.3202)"
         id="g22040">
        <path
           d="m 0,0 c -0.024,0 -0.047,0.011 -0.067,0.03 l -0.664,0.679 0,-0.709 -0.191,0 0,0.948 c 0,0.056 0.049,0.094 0.099,0.094 0.024,0 0.047,-0.011 0.065,-0.031 l 0.665,-0.682 0,0.71 0.19,0 0,-0.944 C 0.097,0.038 0.048,0 0,0"
           id="path22042" />
      </g>
      <g
         transform="translate(16.3206,307.3591)"
         id="g22044">
        <path
           d="m 0,0 0.69,0 c 0.193,0 0.352,-0.157 0.352,-0.352 l 0,-0.335 c 0,-0.195 -0.159,-0.352 -0.352,-0.352 L 0,-1.039 0,0 z m 0.192,-0.848 0.498,0 c 0.087,0 0.16,0.074 0.16,0.161 l 0,0.335 c 0,0.088 -0.073,0.162 -0.16,0.162 l -0.498,0 0,-0.658"
           id="path22046" />
      </g>
      <g
         transform="translate(18.517,307.3591)"
         id="g22048">
        <path
           d="m 0,0 0,-0.192 -0.67,0 c -0.041,0 -0.076,-0.032 -0.076,-0.074 l 0,-0.158 0.704,0 0,-0.191 -0.704,0 0,-0.158 c 0,-0.041 0.035,-0.075 0.076,-0.075 l 0.67,0 0,-0.191 -0.67,0 c -0.147,0 -0.266,0.118 -0.266,0.266 l 0,0.507 C -0.936,-0.118 -0.817,0 -0.67,0 L 0,0"
           id="path22050" />
      </g>
      <g
         transform="translate(19.4182,306.3202)"
         id="g22052">
        <path
           d="m 0,0 -0.676,0 0,0.19 0.676,0 c 0.044,0 0.081,0.035 0.081,0.08 l 0,0.041 c 0,0.047 -0.049,0.06 -0.072,0.065 L -0.492,0.474 C -0.628,0.501 -0.72,0.602 -0.72,0.728 l 0,0.042 c 0,0.149 0.122,0.269 0.272,0.269 l 0.677,0 0,-0.191 -0.677,0 c -0.044,0 -0.08,-0.036 -0.08,-0.08 l 0,-0.04 c 0,-0.047 0.051,-0.061 0.074,-0.065 L 0.044,0.565 C 0.178,0.537 0.272,0.438 0.272,0.311 l 0,-0.041 C 0.272,0.119 0.151,0 0,0"
           id="path22054" />
      </g>
      <g
         transform="translate(20.1004,306.3202)"
         id="g22056">
        <path
           d="m 0,0 c -0.124,0 -0.222,0.098 -0.222,0.222 l 0,0.817 0.192,0 0,-0.819 C -0.03,0.204 -0.017,0.19 0,0.19 l 0.628,0 L 0.628,0 0,0"
           id="path22058" />
      </g>
      <path
         d="m 20.894,306.32 0.19,0 0,1.039 -0.19,0 0,-1.039 z"
         id="path22060" />
      <g
         transform="translate(21.6777,306.3202)"
         id="g22062">
        <path
           d="m 0,0 c -0.196,0 -0.352,0.157 -0.352,0.349 l 0,0.338 c 0,0.195 0.156,0.352 0.352,0.352 l 0.69,0 0,-0.191 -0.69,0 c -0.089,0 -0.163,-0.072 -0.163,-0.16 l 0,-0.339 C -0.163,0.261 -0.088,0.19 0,0.19 l 0.501,0 0,0.234 -0.342,0 0,0.19 0.531,0 L 0.69,0 0,0"
           id="path22064" />
      </g>
      <g
         transform="translate(22.8173,306.5544)"
         id="g22066">
        <path
           d="m 0,0 -0.092,-0.234 -0.207,0 c 0.35,0.888 0.352,0.886 0.352,0.889 0.024,0.053 0.065,0.15 0.183,0.15 l 0.078,0 c 0.118,0 0.159,-0.097 0.183,-0.15 0,-0.003 0.001001,-0.001 0.35100085,-0.889 L 0.642,-0.234 0.549,0 z M 0.477,0.186 0.32,0.577 C 0.308,0.607 0.304,0.611 0.299,0.611 l -0.048,0 c -0.005,0 -0.01,-0.004 -0.022,-0.034 l -0.157,-0.391 0.405,0"
           id="path22068" />
      </g>
    </g>
  </g>
  <g
     transform="matrix(0.43999931,0,0,0.37146942,3.7114243e-5,-5.8099691)"
     style="fill:#881f16;"
     id="text4587-3">
    <path
       d="m 306,29.521 c -1.72684,-10e-7 -3.21712,-0.20107 -4.47084,-0.603209 -1.23007,-0.402138 -2.3537,-0.910725 -3.37087,-1.525762 0.0237,-0.898897 0.20107,-1.584898 0.53225,-2.058006 0.33117,-0.4731 0.75696,-0.709652 1.27738,-0.709657 0.35482,5e-6 0.70965,0.07097 1.06448,0.212897 0.35483,0.141936 0.75697,0.295695 1.20642,0.461277 0.44944,0.141935 0.96986,0.283867 1.56125,0.425795 0.59137,0.141934 1.30103,0.2129 2.12897,0.212897 1.49027,3e-6 2.60206,-0.33117 3.33539,-0.99352 0.73329,-0.662342 1.09995,-1.525757 1.09996,-2.590248 -1e-5,-0.922547 -0.34301,-1.714997 -1.029,-2.377352 -0.68601,-0.662336 -1.8806,-0.993509 -3.58377,-0.99352 l -2.83863,0 c -0.37849,1.1e-5 -0.69783,-0.130093 -0.95803,-0.390311 -0.26022,-0.260197 -0.39032,-0.697818 -0.39031,-1.312865 -10e-6,-0.591369 0.0591,-1.099956 0.17741,-1.525763 l 3.69022,0 c 1.56123,1.3e-5 2.68485,-0.272022 3.37087,-0.816106 0.68599,-0.544055 1.02899,-1.348333 1.029,-2.412834 -1e-5,-0.402122 -0.071,-0.792433 -0.2129,-1.170934 -0.11829,-0.378466 -0.33118,-0.709638 -0.63869,-0.99352 -0.30753,-0.283844 -0.70967,-0.508568 -1.20641,-0.674174 -0.47312,-0.1892222 -1.07633,-0.2838431 -1.80963,-0.2838628 -0.75698,1.97e-5 -1.40749,0.059158 -1.95156,0.1774143 -0.52042,0.1182956 -0.99352,0.2483995 -1.41931,0.3903115 -0.4258,0.14195 -0.80428,0.272054 -1.13545,0.390311 -0.33118,0.118295 -0.66235,0.177433 -0.99352,0.177414 -0.54408,1.9e-5 -0.9817,-0.248361 -1.31287,-0.7451394 -0.33117,-0.4967401 -0.50859,-1.1827413 -0.53224,-2.0580055 0.92255,-0.5203933 2.01069,-0.9698423 3.26442,-1.3483484 1.25372,-0.3784607 2.70852,-0.5677023 4.36439,-0.5677257 1.30103,2.34e-5 2.42465,0.1656098 3.37087,0.49676 0.9462,0.3075405 1.71499,0.7333344 2.30639,1.2773827 0.61502,0.5440914 1.06447,1.1946097 1.34835,1.9515569 0.28384,0.7333314 0.42577,1.5257804 0.42579,2.3773514 -2e-5,1.277398 -0.35484,2.365538 -1.06448,3.264422 -0.70968,0.875257 -1.66771,1.50212 -2.87411,1.880591 1.34833,0.236565 2.47195,0.839772 3.37087,1.809626 0.89888,0.969874 1.34833,2.211772 1.34834,3.725699 -10e-6,1.064492 -0.20108,2.034355 -0.6032,2.909594 -0.40216,0.851592 -0.96988,1.573076 -1.70318,2.164454 -0.73333,0.591382 -1.63223,1.052659 -2.6967,1.383832 -1.04084,0.307518 -2.19995,0.461276 -3.47732,0.461277"
       id="path3015-3" />
  </g>
</svg>
