<?xml version="1.0" encoding="UTF-8" standalone="no"?>
<!-- Created with Inkscape (http://www.inkscape.org/) -->

<svg
   xmlns="http://www.w3.org/2000/svg"
   width="100%"
   height="100%"
   viewBox="0 0 60 22"
   id="svg111522"
   version="1.1">
  <g
     id="spiegel"
     transform="matrix(0.2822222,0,0,0.2822222,-4.4055924e-7,2.2123884e-6)">
    <path
       id="path108271"
       style="fill:#f04924"
       d="m 101.51427,33.485762 -2.239838,0 c -12.138721,0 -24.269925,0 -36.408645,0 l -2.239838,0 c -0.51862,0 -0.999659,-0.202938 -1.367955,-0.51862 l 0,0.51862 -2.239838,0 c -6.208411,0 -12.416821,0 -18.625232,0 l -2.239838,0 0,-3.119238 1.435601,0 0,-12.724986 -0.548685,0 0,5.441754 c 0,1.127435 -0.894432,2.074481 -2.021867,2.074481 l -5.93031,0 0,5.208751 1.405536,0 0,3.119238 -8.854126,0 0,-0.473523 c -0.353263,0.293133 -0.796721,0.473523 -1.300308,0.473523 l -9.726009,0 c -1.1274355,0 -2.0444162,-0.947046 -2.0444162,-2.074481 l 0,-4.622485 5.9227932,0 0,3.577728 1.871543,0 0,-5.208751 -7.7943362,0 0,-8.666219 c 0,-1.097371 0.9169807,-2.014352 2.0143512,-2.014352 l 9.733525,0 c 0.496071,0 0.939529,0.172874 1.292792,0.450975 l 0,-0.450975 13.408965,0 c 0.420909,0 0.811753,0.12026 1.134951,0.338231 l 0,-0.338231 2.239838,0 c 6.208411,0 12.416821,0 18.625232,0 l 2.239838,0 0,0.503588 c 0.353263,-0.315682 0.804237,-0.503588 1.315341,-0.503588 l 9.748558,0 c 0.548685,0 1.03724,0.217971 1.398019,0.563718 l 0,-0.563718 2.239839,0 c 6.343702,0 12.687405,0 19.031108,0 l 2.232322,0 0,3.164336 -1.57841,0 0,12.724986 1.999319,0 0,-3.577728 5.87018,0 0,6.696966 z m 5.74992,-25.6904929 -106.0841477,0 0,31.0570849 106.0841477,0 0,-31.0570849 z" />
    <path
       d="m 29.080317,21.985924 2.006832,0 0,-4.344386 -2.006832,0 0,4.344386 z"
       style="fill:#f04924"
       id="path108273" />
    <path
       d="m 64.39159,30.374039 2.007075,0 0,-5.208809 -2.007075,0 0,5.208809 z"
       style="fill:#f04924"
       id="path108275" />
    <path
       id="path108279"
       style="fill:#f04924"
       d="m 84.723004,20.27222 -3.65289,0 0,-2.630682 -2.081998,0 0,4.344384 5.74992,0 0,3.171851 -5.74992,0 0,5.208751 2.081998,0 0,-3.577728 5.892728,0 0,3.577728 0.706526,0 0,-12.724986 -0.706526,0 0,2.630682" />
    <path
       id="path108283"
       style="fill:#f04924"
       d="m 70.103926,20.27222 -3.83328,0 0,-2.630682 -1.879059,0 0,4.344384 7.974726,0 0,8.380602 0.736591,0 0,-12.724986 -0.75914,0 0,2.630682" />
    <path
       id="path108287"
       style="fill:#f04924"
       d="m 55.597596,20.27222 -2.239838,0 0,-2.630682 -2.074481,0 0,4.344384 5.742404,0 0,3.171851 -5.742404,0 0,5.208751 2.074481,0 0,-3.577728 5.193719,0 0,-6.516576 -1.533312,0" />
    <path
       d="m 43.496457,30.374039 1.886211,0 0,-12.724985 -1.886211,0 0,12.724985 z"
       style="fill:#f04924"
       id="path108289" />
    <path
       id="path108293"
       style="fill:#f04924"
       d="m 20.120961,20.27222 -3.758118,0 0,-2.630682 -1.871542,0 0,4.344384 7.869498,0 0,8.380602 0.736591,0 0,-12.724986 -0.736591,0 0,2.630682" />
    <path
       id="path108297"
       style="fill:#0d1013"
       d="m 26.847994,30.374039 1.405536,0 0,3.119238 2.239838,0 0,-3.119238 -1.405536,0 0,-5.208751 -2.239838,0" />
    <path
       d="m 54.785841,25.157773 2.240379,0 0,-3.171849 -2.240379,0 0,3.171849 z"
       style="fill:#0d1013"
       id="path108299" />
    <path
       id="path108303"
       style="fill:#0d1013"
       d="m 20.120961,16.469005 0,3.803215 2.239838,0 0,-2.630682 -0.744107,0 0,-2.705845 c -0.360779,-0.285617 -0.804237,-0.45849 -1.300309,-0.45849 l -2.239838,0 c 1.127435,0 2.044416,0.871883 2.044416,1.991802" />
    <path
       d="m 12.243949,30.366523 2.239839,0 0,-3.577788 -2.239839,0 0,3.577788 z"
       style="fill:#0d1013"
       id="path108305" />
    <path
       d="m 12.243949,21.985924 2.239839,0 0,-4.344386 -2.239839,0 0,4.344386 z"
       style="fill:#0d1013"
       id="path108307" />
    <path
       id="path108311"
       style="fill:#0d1013"
       d="m 22.353284,30.374039 0,-8.380603 -2.239838,0 0,9.508038 c 0,1.097371 -0.894432,1.991803 -2.014351,1.991803 l 2.239838,0 c 0.496071,0 0.947046,-0.187906 1.292792,-0.473523 l 0,-2.645715" />
    <path
       id="path108315"
       style="fill:#0d1013"
       d="M 36.153095,14.822951 C 35.829897,14.60498 35.439053,14.477204 35.018143,14.477204 l -2.239838,0 c 1.127436,0 2.021868,0.894432 2.021868,2.021868 l 0,6.591738 c 0,1.127435 -0.894432,2.074481 -2.021868,2.074481 l 2.239838,0 c 1.127436,0 2.021868,-0.947046 2.021868,-2.074481 l 0,-5.441754 -0.886916,0" />
    <path
       d="m 26.847994,21.985924 2.239418,0 0,-4.344386 -2.239418,0 0,4.344386 z"
       style="fill:#0d1013"
       id="path108317" />
    <path
       id="path108321"
       style="fill:#0d1013"
       d="m 43.496457,30.374039 0,-12.724987 0.511104,0 0,-3.171851 -1.345406,0 0,3.171851 -1.405536,0 0,12.724987 1.405536,0 0,3.119238 1.345406,0 0,-3.119238" />
    <path
       id="path108325"
       style="fill:#0d1013"
       d="m 58.551475,20.27222 0,-3.758118 c 0,-0.608815 0.270584,-1.1575 0.69901,-1.533312 l 0,-0.511104 -2.232322,0 0,5.802534" />
    <path
       d="m 49.03592,21.985924 2.239839,0 0,-4.344386 -2.239839,0 0,4.344386 z"
       style="fill:#0d1013"
       id="path108327" />
    <path
       d="m 49.03592,30.366523 2.239839,0 0,-5.208631 -2.239839,0 0,5.208631 z"
       style="fill:#0d1013"
       id="path108329" />
    <path
       id="path108333"
       style="fill:#0d1013"
       d="m 58.551475,31.493958 0,-4.705163 -1.533312,0 0,6.696965 2.232322,0 0,-0.51862 c -0.420909,-0.368295 -0.69901,-0.886916 -0.69901,-1.473182" />
    <path
       id="path108337"
       style="fill:#0d1013"
       d="m 62.159268,17.641538 0,12.724987 2.239838,0 0,-5.208752 -1.03724,0 0,-3.171851 1.03724,0 0,-4.344384" />
    <path
       id="path108341"
       style="fill:#0d1013"
       d="m 70.103926,16.521619 0,3.758118 2.239838,0 0,-2.630683 -0.623847,0 0,-2.600617 c -0.36078,-0.353263 -0.849335,-0.571234 -1.39802,-0.571234 l -2.239838,0 c 1.127435,0 2.021867,0.924497 2.021867,2.044416" />
    <path
       id="path108345"
       style="fill:#0d1013"
       d="m 72.366314,30.374039 0,-8.380603 -2.239838,0 0,11.499841 1.593442,0 0,-3.119238" />
    <path
       id="path108349"
       style="fill:#0d1013"
       d="m 86.970359,20.27222 0,-2.630682 -0.729075,0 0,-3.171852 -1.510763,0 0,5.802534" />
    <path
       d="m 76.748281,30.366523 2.240378,0 0,-5.208631 -2.240378,0 0,5.208631 z"
       style="fill:#0d1013"
       id="path108351" />
    <path
       d="m 82.498202,25.157773 2.240379,0 0,-3.171849 -2.240379,0 0,3.171849 z"
       style="fill:#0d1013"
       id="path108353" />
    <path
       d="m 76.748281,21.985924 2.240378,0 0,-4.344386 -2.240378,0 0,4.344386 z"
       style="fill:#0d1013"
       id="path108355" />
    <path
       id="path108359"
       style="fill:#0d1013"
       d="m 86.970359,30.374039 0,-3.577728 -2.239838,0 0,6.696966 1.488214,0 0,-3.119238" />
    <path
       d="m 99.26692,33.485762 2.23984,0 0,-6.697265 -2.23984,0 0,6.697265 z"
       style="fill:#0d1013"
       id="path108361" />
    <path
       id="path108365"
       style="fill:#0d1013"
       d="m 91.397423,17.641538 0,12.724987 2.239838,0 0,-12.724987 1.585926,0 0,-3.164335 -2.239838,0 0,3.164335" />
    <path
       id="path108369"
       style="fill:#ffffff"
       d="m 20.120961,31.493958 0,-9.508038 -7.869499,0 0,-4.344384 4.111381,0 0,2.630682 3.758118,0 0,-3.803215 c 0,-1.127435 -0.916981,-1.991802 -2.044416,-1.991802 l -7.486171,0 c -1.1048862,0 -2.021867,0.916981 -2.021867,2.014351 l 0,8.666219 7.794336,0 0,5.208752 -4.111381,0 0,-3.577728 -3.682955,0 0,4.630001 c 0,1.119919 0.9169808,2.066964 2.044416,2.066964 l 7.486171,0 c 1.127435,0 2.021867,-0.894432 2.021867,-1.991802" />
    <path
       d="m 26.847994,17.641538 4.239397,0 0,4.344386 -4.239397,0 0,-4.344386 z m 4.239155,0 z m 0,4.344386 z m 3.705508,1.097366 0,-6.591736 c 0,-1.127436 -0.894433,-2.014353 -2.021869,-2.014353 l -11.161609,0 0,3.164337 1.480698,0 0,12.724985 -1.458149,0 0,3.119239 6.621801,0 0,-3.119239 -1.405535,0 0,-5.20875 5.922794,0 c 1.127436,0 2.021869,-0.947047 2.021869,-2.074483"
       style="fill:#ffffff"
       id="path108371" />
    <path
       id="path108375"
       style="fill:#ffffff"
       d="m 41.264134,30.374039 0,-12.724987 1.405536,0 0,-3.171851 -6.516576,0 0,3.171851 1.428085,0 0,12.724987 -1.428085,0 0,3.119238 6.516576,0 0,-3.119238" />
    <path
       id="path108379"
       style="fill:#ffffff"
       d="m 55.597596,26.788794 -2.239838,0 0,3.577728 -4.314319,0 0,-5.208751 5.74992,0 0,-3.171851 -5.74992,0 0,-4.344385 4.314319,0 0,2.630683 3.660407,0 0,-5.802534 -13.010604,0 0,3.171851 1.382987,0 0,12.724987 -1.382987,0 0,3.119238 13.010604,0 0,-6.696966" />
    <path
       id="path108383"
       style="fill:#ffffff"
       d="m 65.594188,21.985924 -2.232322,0 0,3.171851 3.036559,0 0,5.208752 -4.239157,0 0,-12.724987 4.111381,0 0,2.630682 3.83328,0 0,-3.758117 c 0,-1.11992 -0.894432,-2.0369 -2.021867,-2.0369 l -7.508719,0 c -0.511104,0 -0.969595,0.187906 -1.315342,0.503588 -0.428425,0.375811 -0.706526,0.924496 -0.706526,1.533312 l 0,14.979857 c 0,0.57875 0.278101,1.104887 0.706526,1.473182 0.368296,0.315682 0.849335,0.51862 1.367955,0.51862 l 9.500522,0 0,-11.49984" />
    <path
       id="path108387"
       style="fill:#ffffff"
       d="m 83.309952,26.788794 -2.239838,0 0,3.577728 -4.314319,0 0,-5.208751 5.74992,0 0,-3.171851 -5.74992,0 0,-4.344385 4.314319,0 0,2.630683 3.65289,0 0,-5.802534 -13.003087,0 0,3.171851 1.382987,0 0,12.724987 -1.382987,0 0,3.119238 13.003087,0 0,-6.696966" />
    <path
       id="path108391"
       style="fill:#ffffff"
       d="m 97.883933,26.788794 -2.239838,0 0,3.577728 -4.239157,0 0,-12.724987 1.585926,0 0,-3.171851 -6.74958,0 0,3.171851 1.428085,0 0,12.724987 -1.450633,0 0,3.119238 13.055701,0 0,-6.696966" />
  </g>
  <g
     id="geschichte"
     transform="matrix(0.2822222,0,0,0.2822222,-4.4055924e-7,2.2123884e-6)">
    <path
       id="path108225"
       style="fill:#0d1013"
       d="m 1.5610368e-6,58.229208 0,-0.06765 C 1.5610368e-6,51.569823 5.1335904,46.173166 12.153754,46.173166 c 4.179027,0 6.696966,1.127436 9.109678,3.179368 l -3.209433,3.878377 c -1.79638,-1.49573 -3.382306,-2.352581 -6.065602,-2.352581 -3.7055039,0 -6.6593845,3.277078 -6.6593845,7.215586 l 0,0.06765 c 0,4.239157 2.9162994,7.350878 7.0276805,7.350878 1.85651,0 3.510082,-0.45849 4.802874,-1.382987 l 0,-3.31466 -5.133589,0 0,-4.404514 10.06424,0 0,10.064239 C 19.707571,68.49639 16.430492,70.157478 12.191336,70.157478 4.9682332,70.157474 1.5610368e-6,65.084015 1.5610368e-6,58.229208" />
    <path
       id="path108229"
       style="fill:#0d1013"
       d="m 25.374813,46.579045 17.49028,0 0,4.53229 -12.424337,0 0,4.705163 10.928606,0 0,4.539807 -10.928606,0 0,4.87052 12.589694,0 0,4.53229 -17.655637,0" />
    <path
       d="m 45.240262,66.384248 3.01401,-3.607793 c 2.081998,1.721218 4.269222,2.811072 6.922453,2.811072 2.089514,0 3.344725,-0.826786 3.344725,-2.179708 l 0,-0.06765 c 0,-1.292793 -0.796721,-1.954222 -4.675098,-2.953881 -4.667583,-1.187565 -7.681593,-2.480358 -7.681593,-7.08781 l 0,-0.06013 c 0,-4.209092 3.382306,-6.990099 8.117534,-6.990099 3.37479,0 6.253508,1.059789 8.613606,2.946364 l -2.653231,3.840797 c -2.051932,-1.420569 -4.0738,-2.284936 -6.028021,-2.284936 -1.954221,0 -2.983945,0.894432 -2.983945,2.021868 l 0,0.06765 c 0,1.518279 0.999659,2.014351 5.005813,3.044075 4.705163,1.225146 7.350878,2.916299 7.350878,6.960034 l 0,0.06013 c 0,4.607452 -3.510082,7.193037 -8.508379,7.193037 -3.510082,0 -7.057745,-1.225146 -9.838752,-3.71302"
       style="fill:#0d1013"
       id="path108241" />
    <path
       d="m 114.69024,69.751599 5.11073,0 0,-23.18007 -5.11073,0 0,23.18007 z"
       style="fill:#0d1013"
       id="path108243" />
    <path
       id="path108247"
       style="fill:#0d1013"
       d="m 135.11185,65.45231 c -3.97609,0 -6.72703,-3.31466 -6.72703,-7.290748 l 0,-0.06765 c 0,-3.968572 2.81859,-7.215586 6.72703,-7.215586 2.315,0 4.14145,0.992143 5.93031,2.61565 l 3.24701,-3.743085 c -2.15716,-2.119578 -4.77281,-3.577728 -9.13974,-3.577728 -7.12539,0 -12.09362,5.404173 -12.09362,11.988396 l 0,0.06765 c 0,6.659384 5.06594,11.928265 11.89068,11.928265 4.47216,0 7.12539,-1.593442 9.50804,-4.141445 l -3.24701,-3.277079 c -1.81893,1.653572 -3.44244,2.713361 -6.09567,2.713361" />
    <path
       id="path108251"
       style="fill:#0d1013"
       d="m 162.21539,55.74885 -9.40281,0 0,-9.169807 -5.10352,0 0,23.18007 5.10352,0 0,-9.3051 9.40281,0 0,9.3051 5.10352,0 0,-23.18007 -5.10352,0" />
    <path
       id="path108255"
       style="fill:#0d1013"
       d="m 65.72948,58.229208 0,-0.06765 c 0,-6.591739 4.968232,-11.988396 12.093623,-11.988396 4.366933,0 6.982583,1.45815 9.139742,3.577728 l -3.247013,3.743086 c -1.788864,-1.623507 -3.61531,-2.61565 -5.93031,-2.61565 -3.908443,0 -6.727031,3.247013 -6.727031,7.215586 l 0,0.06765 c 0,3.976088 2.750942,7.290748 6.727031,7.290748 2.645715,0 4.276738,-1.052273 6.095667,-2.713361 l 3.247013,3.284595 c -2.390162,2.540488 -5.035877,4.13393 -9.508037,4.13393 -6.824742,0 -11.890685,-5.268881 -11.890685,-11.928266" />
    <path
       id="path108259"
       style="fill:#0d1013"
       d="m 89.834048,46.579045 5.096008,0 0,9.169807 9.410324,0 0,-9.169807 5.10353,0 0,23.18007 -5.10353,0 0,-9.305099 -9.410324,0 0,9.305099 -5.096008,0" />
    <path
       id="path108263"
       style="fill:#0d1013"
       d="m 170.33293,51.276693 7.05775,0 0,18.482423 5.096,0 0,-18.482423 7.05775,0 0,-4.705163 -19.2115,0" />
    <path
       id="path108267"
       style="fill:#0d1013"
       d="m 197.42144,60.356303 10.92861,0 0,-4.539806 -10.92861,0 0,-4.697647 12.41682,0 0,-4.539807 -17.48276,0 0,23.180071 17.64812,0 0,-4.53229 -12.58218,0" />
  </g>
</svg>
