<?xml version="1.0" encoding="UTF-8" standalone="no"?>
<!-- Created with Inkscape (http://www.inkscape.org/) -->

<svg
   xmlns="http://www.w3.org/2000/svg"
   version="1.1"
   width="100%"
   height="100%"
   viewBox="0 0 82.400007 17.6"
   id="svg2">
  <g
     transform="translate(-8.5,-77.4)"
     id="g38"
     style="display:none">
    <rect
       width="518.29999"
       height="88.599998"
       rx="7.5"
       x="8.5"
       y="10.4"
       id="rect40"
       style="fill:#ffffff" />
  </g>
  <g
     transform="translate(-8.5,-77.4)"
     id="g42"
     style="display:inline">
    <path
       d="M 9.4534989,79.160001 C 8.9290745,79.160001 8.5,79.589075 8.5,80.1135 l 0,12.173002 c 0,0.524425 0.4290745,0.953499 0.9534989,0.953499 l 4.4178781,0 1.239549,0 0.04768,0 0,-1.763973 c -2.701581,-0.206591 -4.831061,-2.463205 -4.831061,-5.21246 0,-2.749255 2.12948,-5.00587 4.831061,-5.212461 l 0,-1.891106 -0.04768,0 -1.239549,0 -4.4178781,0 z m 6.4996841,0 0,1.891106 c 2.70158,0.206591 4.831061,2.447314 4.831061,5.212461 0,2.749255 -2.129481,5.005869 -4.831061,5.21246 l 0,1.763973 0.01589,0 1.287223,0 72.672505,0 c 0.524427,0 0.953502,-0.429074 0.953502,-0.953499 l 0,-12.173002 c 0,-0.524425 -0.429075,-0.953499 -0.953502,-0.953499 l -72.672506,0 -1.287224,0 -0.01589,0 z m 6.626817,1.06474 67.173996,0 0,11.934628 -67.173996,0 0,-11.934628 z"
       id="path44"
       style="fill:#00386b" />
  </g>
  <g
     transform="translate(-8.5,-77.4)"
     id="g46"
     style="display:inline">
    <path
       d="m 15.158601,81.798014 c -2.304289,0.206592 -4.115937,2.129481 -4.115937,4.481445 0,2.351964 1.811648,4.290745 4.115937,4.481445 l 0,-3.337246 c -0.47675,-0.158916 -0.810475,-0.619775 -0.810475,-1.144199 0,-0.524424 0.333725,-0.96939 0.810475,-1.144199 l 0,-3.337246 z m 0.794582,0 0,3.337246 c 0.476749,0.158917 0.810474,0.603883 0.810474,1.144199 0,0.524424 -0.333725,0.985283 -0.810474,1.144199 l 0,3.337246 c 2.304289,-0.206591 4.115937,-2.129481 4.115937,-4.481445 0,-2.351964 -1.811648,-4.274853 -4.115937,-4.481445 z"
       id="path48"
       style="fill:#01b3c1" />
  </g>
  <g
     transform="translate(-8.5,-77.4)"
     id="g50"
     style="display:inline">
    <g
       transform="matrix(0.15891648,0,0,0.15891648,7.1492099,77.507269)"
       id="g52">
      <path
         d="m 134.3,37.6 c 2.4,0 16.1,0 17.9,0 0,1 0,5.7 0,6.9 -1.1,0 -15.3,0 -17.9,0 -5.5,0 -5.2,6.1 0,6.1 2.5,0 5.4,0 6.5,0 17.5,0 17.4,21.2 0,21.2 -1.3,0 -18.2,0 -19.3,0 0,-1.3 0,-6.1 0,-7.2 0.8,0 17.5,0 19.3,0 5.7,0 5.7,-7.4 0,-7.4 -1,0 -4.6,0.2 -6.5,0 -17.5,0 -17.5,-19.6 0,-19.6 z"
         id="path54"
         style="fill:#00386b;stroke:#01386a;stroke-width:0.09375;display:inline" />
      <path
         d="m 262.4,37.6 c 0,1.4 0,5.8 0,7.2 -1.3,0 -5.6,0 -7.9,0 -5,0 -5.5,4.6 -5.5,7.4 0,1.1 0,17.9 0,19.6 -1,0 -8.1,0 -9.4,0 0,-1 0,-16.4 0,-19.2 0,-3.1 0.4,-7.2 2.7,-10.4 1.8,-2.6 5.1,-4.5 8,-4.5 1.5,0 5.7,0 12.1,0 z"
         id="path56"
         style="fill:#00386b;stroke:#01386a;stroke-width:0.09375;display:inline" />
      <path
         d="m 273.7,25.1 c 3.1,0 6.3,0 9.1,0 0,4 0,8.9 0.1,12.6 3.2,0 6.2,0 9.3,0 0,2.3 0,4.8 0,7.2 -3.2,0 -6.3,0 -9.4,0 0,5.3 0,10.5 0,16.1 0,4.4 4.1,3.5 9.4,3.5 0,2.4 0,5.3 0,7.4 -4.6,0 -7.2,0 -9.4,0 -8.5,0 -9.1,-7.4 -9.1,-10.9 0,-5.7 0,-10.4 0,-16.1 -2.3,0 -3.4,0 -6.1,0 0,-2.7 0,-5.1 0,-7.2 2.2,0 4.5,0 6.1,0 0.1,-4 0,-8.4 0,-12.5 l 0,0 z"
         id="path58"
         style="fill:#00386b;stroke:#01b3c1;stroke-width:0.09375;display:inline" />
      <path
         d="m 169.7,84.3 c 0,-2.8 0,-11 0,-12.5 3.1,0 5.6,0 7.7,0 11.5,0 16.7,-7.2 16.7,-17.2 0,-9.7 -5.3,-17 -16.7,-17 -2.7,0 -14.3,0 -17.2,0 0,2.5 0,42.1 0,46.7 1.7,0 7.4,0 9.4,0 l 0,0 0,0 z m 0,-19.8 0,-19.6 c 2.1,0 4.3,0 7.7,0 9.5,0 9.5,19.6 0,19.6 -2.9,0 -5.5,0 -7.7,0 l 0,0 z"
         id="path60"
         style="fill:#00386b;display:inline" />
      <path
         d="m 216.2,36.9 c -9.6,0.5 -17.2,8.2 -17.2,17.6 0,9.7 8.1,17.6 18.1,17.6 10,0 18.1,-7.9 18.1,-17.6 0,-9.7 -8.1,-17.6 -18.1,-17.6 -0.3,0 -0.6,0 -0.9,0 z m 0.9,7.5 c 4.7,0 8.4,4.5 8.4,10.1 0,5.6 -3.8,10.1 -8.4,10.1 -4.7,0 -8.4,-4.5 -8.4,-10.1 0,-5.6 3.8,-10.1 8.4,-10.1 z"
         id="path62"
         style="fill:#00386b;display:inline" />
      <path
         d="m 322.4,25.1 c 0,2.8 0,11 0,12.5 -3.1,0 -5.6,0 -7.7,0 -11.5,0 -16.7,7.2 -16.7,17.2 0,9.7 5.3,17 16.7,17 2.7,0 14.3,0 17.2,0 0,-2.5 0,-42.1 0,-46.7 -1.7,0 -7.4,0 -9.4,0 l 0,0 0,0 z m 0,19.8 0,19.6 c -2.1,0 -4.3,0 -7.7,0 -9.5,0 -9.5,-19.6 0,-19.6 2.9,0 5.5,0 7.7,0 l 0,0 z"
         id="path64"
         style="fill:#01b3c1" />
      <path
         d="m 423.3,25.1 c 3.1,0 6.3,0 9.1,0 0,4 0,8.9 0.1,12.6 3.2,0 6.2,0 9.3,0 0,2.3 0,4.8 0,7.2 -3.2,0 -6.3,0 -9.4,0 0,5.3 0,10.5 0,16.1 0,4.4 4.1,3.5 9.4,3.5 0,2.4 0,5.3 0,7.4 -4.6,0 -7.2,0 -9.4,0 -8.5,0 -9.1,-7.4 -9.1,-10.9 0,-5.7 0,-10.4 0,-16.1 -2.3,0 -3.4,0 -6.1,0 0,-2.7 0,-5.1 0,-7.2 2.2,0 4.5,0 6.1,0 0.1,-4 0,-8.4 0,-12.5 l 0,0 z"
         id="path66"
         style="fill:#01b3c1;stroke:#01b3c1;stroke-width:0.09375" />
      <path
         d="m 391.3,37.6 c -6,0 -9.1,0 -17.6,0 -11.7,0 -16.5,7.8 -16.5,16.5 0,9.7 4.5,17.6 16.5,17.6 1.3,0 6,0 8.4,0 0,2.1 0,3.8 -3.3,3.8 -6,0 -11.8,0 -17.7,0 l 0,7 c 6.4,0 12.5,0 18.8,0 3.6,-0.1 7.8,-1.2 9.7,-4.5 2.4,-4.2 1.7,-9.1 1.7,-13.6 0,-9.1 0,-17.7 0,-26.8 l 0,0 z m -9.2,7.2 c 0,6.4 0,13.1 0,19.6 -1.6,0 -6.9,0 -8.4,0 -10.4,0 -10.4,-19.6 0,-19.6 1.8,0 3.8,0 8.4,0 z"
         id="path68"
         style="fill:#01b3c1;stroke:#01b3c1;stroke-width:0.09375" />
      <path
         d="m 448.5,37.6 c -0.1,2.3 0.1,4.9 0,7.2 6.8,0 12.8,0 18.9,0 3,0.3 4.4,3.2 4.7,5.8 -5.6,0 -10.5,0 -16,0 -12.7,0 -12.7,21.2 0,21.2 7.5,0 17.7,0 25.1,0 0,-6.7 0,-13.9 0,-20.6 0,-9.1 -5.3,-13.6 -13.8,-13.6 -6.3,0 -12.4,0 -18.9,0 z M 472,57.2 c 0,2.3 0,5.1 0,7.2 -3,0 -6.9,0 -11.2,0 -6.4,0 -6.4,-7.2 0,-7.2 1.4,0 6.4,0 11.2,0 l 0,0 z"
         id="path70"
         style="fill:#01b3c1;stroke:#01b3c1;stroke-width:0.09375" />
      <rect
         width="9.6999998"
         height="46.700001"
         x="487.60001"
         y="25.1"
         id="rect72"
         style="fill:#01b3c1" />
      <g
         transform="translate(0,-3.8411302)"
         id="g74">
        <rect
           width="9.6999998"
           height="34.200001"
           x="340.29999"
           y="41.400002"
           id="rect76"
           style="fill:#01b3c1" />
        <rect
           width="9.6999998"
           height="8.8999996"
           x="340.29999"
           y="28.9"
           id="rect78"
           style="fill:#01b3c1" />
      </g>
      <g
         transform="translate(0,-3.8411302)"
         id="g80">
        <rect
           width="9.6999998"
           height="34.200001"
           x="399.89999"
           y="41.400002"
           id="rect82"
           style="fill:#01b3c1" />
        <rect
           width="9.6999998"
           height="8.8999996"
           x="399.89999"
           y="28.9"
           id="rect84"
           style="fill:#01b3c1" />
      </g>
    </g>
  </g>
</svg>
