<?xml version="1.0" encoding="UTF-8" standalone="no"?>
<!-- Created with Inkscape (http://www.inkscape.org/) -->

<svg
   xmlns="http://www.w3.org/2000/svg"
   version="1.1"
   width="100%"
   height="100%"
   viewBox="0 0 95 22"
   id="svg81437">
  <g
     id="g3065">
    <path
       d="m 1.97167e-5,16.422017 0.6810081733,-2.538682 9.02179631,0 c 0.4269318,0 0.8247068,-0.347793 0.8851028,-0.776807 0.02916,-0.212425 -0.03124,-0.424849 -0.168691,-0.581044 -0.124955,-0.143699 -0.295728,-0.222838 -0.4831613,-0.222838 l -5.7708674,0 c -0.8851023,0 -1.6556621,-0.33738 -2.1700627,-0.94758 C 1.4828265,10.742784 1.2849801,9.9243243 1.4411746,9.0475524 1.8014634,7.0420145 3.4925295,5.7716323 5.3002209,5.7716323 l 9.4341501,0 -0.681008,2.5386818 -9.1446697,0 c -0.3956928,0 -0.7580641,0.3186369 -0.8809372,0.7747249 -0.0479,0.1853509 -0.010413,0.3707017 0.1062123,0.5248137 0.1249556,0.1624423 0.322802,0.2582416 0.5268962,0.2582416 l 5.8000234,0 c 0.889268,0 1.657745,0.3373807 2.170063,0.9517457 0.510236,0.612282 0.687256,1.432824 0.541475,2.315844 -0.32905,1.980547 -1.868087,3.286333 -3.8923683,3.286333 l -9.2800379833,0"
       id="path75809"
       style="fill:#232933" />
    <path
       d="m 48.474473,5.7716323 c -3.165543,0 -4.481742,1.6369187 -5.350183,4.8857647 l -1.547368,5.76462 2.744859,0 1.532789,-5.76462 c 0.324885,-1.2162344 1.105857,-2.3470829 2.619903,-2.3470829 l 3.225938,0 0.668512,-2.5386818 -3.89445,0"
       id="path75813"
       style="fill:#232933" />
    <path
       d="m 60.430644,5.7716323 -4.246409,0 0.955911,-3.5716484 -2.742776,0 -3.811147,14.2220331 2.744859,0 2.170062,-8.1137855 4.250574,0 0.678926,-2.5365992 z"
       id="path75817"
       style="fill:#232933" />
    <path
       d="m 24.911798,10.43456 -0.397775,1.486972 c -0.281151,1.045462 -1.207905,1.961803 -2.499113,1.961803 l -5.152337,0 1.49322,-5.5730207 5.079446,0 c 1.807691,0 1.607762,1.6473317 1.476559,2.1242457 m -1.476559,-4.6629275 -4.398438,0 -2.744859,0 -3.759082,14.0283515 2.744859,0 0.905928,-3.377967 5.831263,0 c 2.50536,0 4.413016,-1.580689 5.025299,-3.842385 l 0.399858,-1.489055 C 28.046102,8.8434583 27.421324,5.7716325 23.435239,5.7716325"
       id="path75821"
       style="fill:#232933" />
    <path
       d="m 39.312935,10.43456 -0.397775,1.486972 c -0.281151,1.045462 -1.207905,1.961803 -2.499113,1.961803 l -3.915276,0 c -1.805609,0 -1.60568,-1.645249 -1.474477,-2.124245 l 0.397776,-1.486972 c 0.279067,-1.0454624 1.249556,-1.9618037 2.499112,-1.9618037 l 3.913194,0 c 1.807691,0 1.607762,1.6473317 1.476559,2.1242457 m -1.476559,-4.6629275 -3.913194,0 c -2.347083,0 -4.413016,1.5806887 -5.027381,3.8444681 l -0.397776,1.4869724 c -0.608117,2.249201 -0.04582,5.318944 4.002746,5.318944 l 3.915276,0 c 2.50536,0 4.413016,-1.580689 5.025299,-3.842385 l 0.399858,-1.489055 C 42.447239,8.8434583 41.822461,5.7716325 37.836376,5.7716325"
       id="path75825"
       style="fill:#232933" />
  </g>
  <path
     d="m 66.44934,2.2020665 c -0.699752,2.1159153 -2.694876,3.5695658 -4.944078,3.5695658 l -0.647686,2.5386818 3.053082,0 -2.17631,8.1117029 3.634126,0 3.861129,-14.2199505 -2.780263,0"
     id="path75829"
     style="fill:#f9ae0c" />
  <g
     id="g3072">
    <path
       d="m 78.94617,5.7716323 -1.087114,4.0568927 -6.389398,0 1.087114,-4.0568927 -2.744859,0 -2.853147,10.6503847 2.744852,0 1.085031,-4.056893 6.389398,0 -1.085031,4.056893 2.744859,0 2.853153,-10.6503847 -2.744858,0 z"
       id="path75837"
       style="fill:#918f90" />
    <path
       d="m 91.708308,10.43456 -0.397776,1.486972 c -0.28115,1.045462 -1.207904,1.961803 -2.499113,1.961803 l -5.16275,0 1.49322,-5.5730207 5.089859,0 c 1.807692,0 1.607763,1.6473317 1.47656,2.1242457 m -1.47656,-4.6629275 -7.153708,0 -2.853151,10.6503845 8.58653,0 c 2.505361,0 4.413017,-1.580689 5.0253,-3.842385 L 94.236577,11.09266 C 94.842611,8.8434583 94.217833,5.7716325 90.231748,5.7716325"
       id="path75841"
       style="fill:#918f90" />
  </g>
</svg>
