<?xml version="1.0" encoding="UTF-8" standalone="no"?>
<!-- Created with Inkscape (http://www.inkscape.org/) -->

<svg
   xmlns="http://www.w3.org/2000/svg"
   width="100%"
   height="100%"
   viewBox="0 0 107 22"
   id="svg81437"
   version="1.1">
  <g
     id="layer1"
     transform="matrix(0.28222222,0,0,0.28222222,-53.072574,-80.385815)">
    <g
       transform="matrix(7.3792693,0,0,-7.3792693,-7912.6991,3541.776)"
       id="g81388">
      <g
         transform="translate(1097.7715,433.4787)"
         id="g75807">
        <path
           id="path75809"
           style="fill:#232933"
           d="m 0,0 0.327,1.219 4.332,0 c 0.205,0 0.396,0.167 0.425,0.373 C 5.098,1.694 5.069,1.796 5.003,1.871 4.943,1.94 4.861,1.978 4.771,1.978 L 2,1.978 C 1.575,1.978 1.205,2.14 0.958,2.433 0.712,2.727 0.617,3.12 0.692,3.541 0.865,4.504 1.677,5.114 2.545,5.114 l 4.53,0 -0.327,-1.219 -4.391,0 C 2.167,3.895 1.993,3.742 1.934,3.523 1.911,3.434 1.929,3.345 1.985,3.271 2.045,3.193 2.14,3.147 2.238,3.147 l 2.785,0 C 5.45,3.147 5.819,2.985 6.065,2.69 6.31,2.396 6.395,2.002 6.325,1.578 6.167,0.627 5.428,0 4.456,0 L 0,0" />
      </g>
      <g
         transform="translate(1121.0475,438.5927)"
         id="g75811">
        <path
           id="path75813"
           style="fill:#232933"
           d="m 0,0 c -1.52,0 -2.152,-0.786 -2.569,-2.346 l -0.743,-2.768 1.318,0 0.736,2.768 c 0.156,0.584 0.531,1.127 1.258,1.127 l 1.549,0 L 1.87,0 0,0" />
      </g>
      <g
         transform="translate(1126.7885,438.5927)"
         id="g75815">
        <path
           id="path75817"
           style="fill:#232933"
           d="m 0,0 -2.039,0 0.459,1.715 -1.317,0 -1.83,-6.829 1.318,0 1.042,3.896 2.041,0 L 0,0 z" />
      </g>
      <g
         transform="translate(1109.7334,436.3537)"
         id="g75819">
        <path
           id="path75821"
           style="fill:#232933"
           d="m 0,0 -0.191,-0.714 c -0.135,-0.502 -0.58,-0.942 -1.2,-0.942 l -2.474,0 0.717,2.676 2.439,0 C 0.159,1.02 0.063,0.229 0,0 m -0.709,2.239 -2.112,0 -1.318,0 -1.805,-6.736 1.318,0 0.435,1.622 2.8,0 c 1.203,0 2.119,0.759 2.413,1.845 l 0.192,0.715 C 1.505,0.764 1.205,2.239 -0.709,2.239" />
      </g>
      <g
         transform="translate(1116.6484,436.3537)"
         id="g75823">
        <path
           id="path75825"
           style="fill:#232933"
           d="m 0,0 -0.191,-0.714 c -0.135,-0.502 -0.58,-0.942 -1.2,-0.942 l -1.88,0 c -0.867,0 -0.771,0.79 -0.708,1.02 l 0.191,0.714 c 0.134,0.502 0.6,0.942 1.2,0.942 l 1.879,0 C 0.159,1.02 0.063,0.229 0,0 m -0.709,2.239 -1.879,0 c -1.127,0 -2.119,-0.759 -2.414,-1.846 l -0.191,-0.714 c -0.292,-1.08 -0.022,-2.554 1.922,-2.554 l 1.88,0 c 1.203,0 2.119,0.759 2.413,1.845 l 0.192,0.715 C 1.505,0.764 1.205,2.239 -0.709,2.239" />
      </g>
      <g
         transform="translate(1129.6785,440.3067)"
         id="g75827">
        <path
           id="path75829"
           style="fill:#f9ae0c"
           d="m 0,0 c -0.336,-1.016 -1.294,-1.714 -2.374,-1.714 l -0.311,-1.219 1.466,0 -1.045,-3.895 1.745,0 L 1.335,0 0,0" />
      </g>
      <g
         transform="translate(1135.8824,436.6447)"
         id="g75831">
        <path
           id="path75833"
           style="fill:#f9ae0c"
           d="m 0,0 -1.952,0 0.522,1.948 -1.318,0 L -3.27,0 l -1.937,0 -0.327,-1.218 1.938,0 -0.522,-1.948 1.318,0 0.522,1.948 1.952,0 L 0,0 z" />
      </g>
      <g
         transform="translate(1141.4495,438.5927)"
         id="g75835">
        <path
           id="path75837"
           style="fill:#918f90"
           d="m 0,0 -0.522,-1.948 -3.068,0 0.522,1.948 -1.318,0 -1.37,-5.114 1.318,0 0.521,1.948 3.068,0 -0.521,-1.948 1.318,0 L 1.318,0 0,0 z" />
      </g>
      <g
         transform="translate(1147.5775,436.3537)"
         id="g75839">
        <path
           id="path75841"
           style="fill:#918f90"
           d="m 0,0 -0.191,-0.714 c -0.135,-0.502 -0.58,-0.942 -1.2,-0.942 l -2.479,0 0.717,2.676 2.444,0 C 0.159,1.02 0.063,0.229 0,0 m -0.709,2.239 -3.435,0 -1.37,-5.114 4.123,0 c 1.203,0 2.119,0.759 2.413,1.845 l 0.192,0.714 c 0.291,1.08 -0.009,2.555 -1.923,2.555" />
      </g>
    </g>
  </g>
</svg>
