<?xml version="1.0" encoding="UTF-8" standalone="no"?>
<!-- Created with Inkscape (http://www.inkscape.org/) -->

<svg
   xmlns="http://www.w3.org/2000/svg"
   xmlns:xlink="http://www.w3.org/1999/xlink"
   version="1.0"
   width="100%"
   height="100%"
   viewBox="0 0 120 22"
   id="svg2">
  <defs
     id="defs5">
    <linearGradient
       id="linearGradient4117">
      <stop
         id="stop4119"
         style="stop-color:#e9661b"
         offset="0" />
      <stop
         id="stop4121"
         style="stop-color:#d2403e"
         offset="0.5" />
      <stop
         id="stop4123"
         style="stop-color:#bb001a"
         offset="1" />
    </linearGradient>
    <linearGradient
       id="linearGradient3940">
      <stop
         id="stop3942"
         style="stop-color:#e7530e"
         offset="0" />
      <stop
         id="stop3948"
         style="stop-color:#ce3532"
         offset="0.5" />
      <stop
         id="stop3944"
         style="stop-color:#af0010"
         offset="1" />
    </linearGradient>
    <linearGradient
       xlink:href="#linearGradient4117"
       id="linearGradient3082"
       gradientUnits="userSpaceOnUse"
       x1="351.06586"
       y1="-56.726616"
       x2="416.31168"
       y2="126.71001"
       gradientTransform="matrix(0.25962171,0,0,0.2634934,-3.5044039,3.0232744)" />
    <linearGradient
       xlink:href="#linearGradient3940"
       id="linearGradient3022"
       gradientUnits="userSpaceOnUse"
       x1="351.06586"
       y1="-56.726616"
       x2="416.31168"
       y2="126.71001"
       gradientTransform="matrix(0.25962171,0,0,0.2634934,-3.5044063,3.0232744)" />
  </defs>
  <path
     d="m 44.198397,19.7375 4.8e-5,-17.475484 48.821028,0 c 1.084309,0 2.111904,0.426597 2.895942,1.266349 0.774031,0.822821 1.217763,1.936846 1.217763,3.050871 l 0,8.98321 c 0,1.114025 -0.430386,2.160329 -1.204417,2.952675 -0.777367,0.785573 -1.811633,1.222379 -2.909288,1.222379 l -48.821028,0"
     style="fill:#ffffff;stroke:#e5e5e5;stroke-width:0.0563727;stroke-miterlimit:4"
     id="path70" />
  <path
     d="m 87.204185,8.102762 0,4.760962 6.703942,0 0,1.430618 -11.924031,0 0,-6.19158 5.220089,0 m -6.820384,0 0.0067,1.457234 -3.416844,0 0,4.734346 -4.874081,0 0.0035,-4.734346 -3.453448,0 0,-1.457234 11.734394,0 m -18.039091,2.808002 -2.145925,-0.0033 0.0035,-1.377385 2.096026,-0.0033 c 0.412546,0 0.652093,0.352664 0.652093,0.675383 0,0.375953 -0.246196,0.668731 -0.605515,0.708655 m 2.917792,1.237651 0.129753,-0.01 c 0.964835,0.02329 1.896399,-0.835081 1.896399,-1.939652 -0.0035,-1.487176 -1.101522,-2.119929 -2.109328,-2.09602 l -9.535232,0 -0.0035,6.19158 4.558016,0 0,-2.026155 0.934891,-0.0033 2.362181,2.032809 4.770945,0 -3.004295,-2.149255"
     id="text_RTL-4"
     style="fill:#af0010" />
  <path
     d="m 103.97008,7.887323 0,1.827667 2.8227,0 0,-3.265374 2.71827,0 0,9.490869 -2.71874,0 0,-3.294998 -2.82223,0 0,3.294998 -2.72435,0 0,-9.490869 c 0,0 1.36131,-9.96e-4 2.72599,0 z"
     id="path3915"
     style="fill:#af0010" />
  <path
     d="m 111.47286,6.454785 c 0,0 2.1192,0 3.38096,0 1.26175,0 2.41663,0.321785 3.21213,1.131651 0.91138,0.927837 1.24612,2.402152 1.23046,3.702636 -0.0148,1.232103 -0.38229,2.603883 -1.24988,3.47886 -0.79869,0.805487 -1.94391,1.177723 -3.19271,1.177723 -1.2488,0 -3.38096,0 -3.38096,0 z m 2.63856,6.950335 c 0,0 -0.24697,0 0.35313,0 0.60011,0 1.08372,-0.03274 1.47839,-0.350075 0.50589,-0.406757 0.82257,-1.105715 0.84514,-1.754456 0.0248,-0.71359 -0.24683,-1.530209 -0.79332,-1.989747 -0.3989,-0.335432 -0.89555,-0.321281 -1.53021,-0.321281 -0.63465,0 -0.35313,0 -0.35313,0 z"
     id="path3917"
     style="fill:#af0010" />
  <g
     id="g3023"
     transform="matrix(0.43829646,0,0,0.43829646,0,0.042346)">
    <path
       d="m 237.21779,22.068727 6.43644,0 0,-7.450153 6.20188,0 0,21.653995 -6.20296,0 0,-7.517736 -6.43907,0 0,7.517736 -6.21579,0 0,-21.653995 6.2195,0 z"
       id="path3915-6"
       style="opacity:0.5;fill:#bb001a" />
    <path
       d="m 254.33212,14.63037 c 0,0 4.83509,0 7.71385,0 2.87876,0 5.51368,0.734171 7.32867,2.581931 2.07938,2.116916 2.8431,5.480655 2.80738,8.447788 -0.0338,2.811118 -0.87223,5.940919 -2.85169,7.937228 -1.82227,1.837771 -4.43514,2.687048 -7.28436,2.687048 -2.84921,0 -7.71385,0 -7.71385,0 z m 6.02002,15.857611 c 0,0 -0.56348,0 0.8057,0 1.36919,0 2.47257,-0.07471 3.37304,-0.798717 1.15422,-0.928039 1.87674,-2.522756 1.92823,-4.002896 0.0566,-1.628102 -0.56315,-3.491267 -1.81001,-4.539732 -0.91012,-0.765309 -2.04326,-0.733021 -3.49126,-0.733021 -1.448,0 -0.8057,0 -0.8057,0 z"
       id="path3917-2"
       style="opacity:0.5;fill:#bb001a" />
  </g>
  <path
     d="m 87.20419,8.102762 0,4.760962 6.703937,0 0,1.430618 -11.924031,0 0,-6.19158 5.220094,0 m -6.820389,0 0.0067,1.457234 -3.416844,0 0,4.734346 -4.874081,0 0.0035,-4.734346 -3.453448,0 0,-1.457234 11.734394,0 m -18.039091,2.808002 -2.145925,-0.0033 0.0035,-1.377385 2.096022,-0.0033 c 0.41255,0 0.652092,0.352664 0.652092,0.675383 0,0.375953 -0.246195,0.668731 -0.605514,0.708655 m 2.917796,1.237651 0.129749,-0.01 c 0.964839,0.02329 1.896403,-0.835081 1.896403,-1.939652 -0.0035,-1.487176 -1.101527,-2.119929 -2.109328,-2.09602 l -9.535236,0 -0.0035,6.19158 4.558011,0 0,-2.026155 0.934895,-0.0033 2.362182,2.032809 4.77094,0 -3.004294,-2.149255"
     id="text_RTL-4-1"
     style="opacity:0.5;fill:#bb001a" />
  <g
     id="g3019"
     transform="matrix(0.43829646,0,0,0.43829646,0,0.042346)">
    <path
       style="fill:url(#linearGradient3022)"
       id="box_links_bg-5"
       d="M 9.6220886,5.0000006 C 4.3070302,5.0000006 0,9.371101 0,14.76542 L 0,35.234323 C 0,40.628644 4.3070302,45 9.6220886,45 l 97.9755014,0 c 6.08031,0 9.76135,-4.207748 9.76135,-9.765677 l 0,-20.468903 c 0,-5.8226249 -3.68104,-9.5073549 -9.76135,-9.7654194" />
    <path
       style="fill:#ffffff"
       id="path3889"
       d="m 71.135089,35.322578 13.967067,0 0,-4.634229 -8.403031,0.0283 0,-3.261648 7.552967,0.03532 0,-4.641252 -7.552967,0.03538 0,-2.610734 7.977999,0.03545 0,-4.669677 -13.542035,0 0,19.683096" />
    <path
       style="fill:#ffffff"
       id="path3883"
       d="m 39.006002,35.322581 c 5.230043,0 8.410577,-2.69472 8.410577,-7.522453 l 0,-12.160646 -5.571628,0 0,12.274507 c 0,1.578881 -0.842575,2.983129 -2.876903,2.983129 -1.91288,0 -2.869326,-1.480158 -2.869316,-2.983129 l 7.2e-5,-12.274507 -5.609653,0 0,12.160646 c 0,4.721462 3.317166,7.522453 8.516851,7.522453" />
    <path
       style="fill:#ffffff"
       id="text_SUPER-5"
       d="m 18.088965,35.322578 c 6.059337,0 8.664044,-3.032428 8.575948,-6.72153 -0.02828,-1.184456 -0.900105,-3.525189 -4.069927,-4.592789 L 19.289503,22.894968 C 17.801274,22.39373 17.65677,21.32875 17.65677,20.986436 c 0,-0.458701 0.504225,-1.276758 2.369065,-1.276758 1.320594,0 2.11777,0.484547 4.10368,1.628576 l 2.339613,-3.762253 c -2.350919,-1.318923 -4.842573,-1.936519 -6.523328,-1.936519 -4.61808,0 -7.719577,2.129195 -7.719577,5.518112 0,2.026503 0.724429,4.076202 3.101497,5.274302 l 4.001801,1.476144 c 1.420472,0.523969 2.190136,1.073619 1.824821,1.862193 -0.370396,0.799538 -1.13401,1.474908 -3.065377,1.129639 -1.339382,-0.23944 -2.76415,-1.03423 -4.160966,-2.066839 l -2.436419,3.745548 c 2.218025,1.767045 4.232589,2.744 6.597419,2.744" />
    <path
       style="fill:#ffffff"
       id="path3885"
       d="m 59.856746,15.639482 -7.629032,0.07258 0,19.610515 5.450188,0 -7e-6,-6.302071 c 0.6604,0.03795 1.262782,0.03026 1.703045,0.03026 4.971958,0 8.362902,-2.466412 8.362902,-6.967741 0,-2.611226 -1.318121,-4.493745 -3.57258,-5.556452 -1.290431,-0.66799 -2.21946,-0.887097 -4.314516,-0.887097 z m -0.588709,4.338584 c 1.632015,-0.03036 3.024193,-4.9e-5 3.024193,2.064643 0,1.852147 -0.549577,2.479117 -3.282258,2.441163 l -1.332072,0 0,-4.41697 z" />
    <path
       style="fill:#ffffff"
       id="path3885-3"
       d="m 97.202091,15.637098 -8.145161,0.07258 0,19.612902 5.451613,0 0,-6.822581 c 0.527801,0.03033 1.273522,0.03301 1.806451,0.03226 l 3.5,6.790323 6.129036,0 -4.06452,-7.887097 c 2.01203,-1.073649 3.20968,-2.94024 3.20968,-5.612903 0,-2.611225 -1.31812,-4.235679 -3.57258,-5.298386 -1.29043,-0.66799 -2.219464,-0.887097 -4.314519,-0.887097 z m -0.05645,4.07258 c 1.359794,0.01369 2.42742,0.265977 2.42742,2.072581 0,1.852147 -0.549577,2.481502 -3.282258,2.443548 l -1.782258,0 0,-4.419355 2.040322,-0.08871 c 0.204003,-0.0038 0.402519,-0.01002 0.596774,-0.0081 z" />
    <path
       style="opacity:0.5;fill:url(#linearGradient3082)"
       id="box_links_bg-5-4"
       d="M 9.622091,5.0000006 C 4.3070326,5.0000006 2.3942938e-6,9.371101 2.3942938e-6,14.76542 l 0,20.468903 C 2.3942938e-6,40.628644 4.3070326,45 9.622091,45 l 97.975499,0 c 6.08031,0 9.76135,-4.207748 9.76135,-9.765677 l 0,-20.468903 c 0,-5.8226249 -3.68104,-9.5073549 -9.76135,-9.7654194" />
    <g
       id="g3016">
      <path
         d="m 71.135091,35.322578 13.967068,0 0,-4.634229 -8.403032,0.0283 0,-3.261648 7.552967,0.03532 0,-4.641252 -7.552967,0.03538 0,-2.610734 7.977999,0.03545 0,-4.669677 -13.542035,0 0,19.683096"
         id="path3889-8"
         style="opacity:0.5;fill:#ffffff" />
      <path
         d="m 39.006004,35.322581 c 5.230044,0 8.410578,-2.69472 8.410578,-7.522453 l 0,-12.160646 -5.571628,0 0,12.274507 c 0,1.578881 -0.842576,2.983129 -2.876903,2.983129 -1.91288,0 -2.869327,-1.480158 -2.869316,-2.983129 l 7.2e-5,-12.274507 -5.609654,0 0,12.160646 c 0,4.721462 3.317166,7.522453 8.516851,7.522453"
         id="path3883-2"
         style="opacity:0.5;fill:#ffffff" />
      <path
         d="m 59.856749,15.639482 -7.629032,0.07258 0,19.610515 5.450188,0 -8e-6,-6.302071 c 0.6604,0.03795 1.262782,0.03026 1.703045,0.03026 4.971959,0 8.362903,-2.466412 8.362903,-6.967741 0,-2.611226 -1.318121,-4.493745 -3.572581,-5.556452 -1.29043,-0.66799 -2.21946,-0.887097 -4.314515,-0.887097 z m -0.58871,4.338584 c 1.632015,-0.03036 3.024193,-4.9e-5 3.024193,2.064643 0,1.852147 -0.549576,2.479117 -3.282258,2.441163 l -1.332072,0 0,-4.41697 z"
         id="path3885-5"
         style="opacity:0.5;fill:#ffffff" />
      <path
         d="m 97.202093,15.637098 -8.14516,0.07258 0,19.612902 5.451612,0 0,-6.822581 c 0.527801,0.03033 1.273523,0.03301 1.806452,0.03226 l 3.499999,6.790323 6.129034,0 -4.06452,-7.887097 c 2.01203,-1.073649 3.20968,-2.94024 3.20968,-5.612903 0,-2.611225 -1.31812,-4.235679 -3.57258,-5.298386 -1.29043,-0.66799 -2.219461,-0.887097 -4.314517,-0.887097 z m -0.05645,4.07258 c 1.359793,0.01369 2.427419,0.265977 2.427419,2.072581 0,1.852147 -0.549577,2.481502 -3.282258,2.443548 l -1.782258,0 0,-4.419355 2.040323,-0.08871 c 0.204002,-0.0038 0.402518,-0.01002 0.596774,-0.0081 z"
         id="path3885-3-2"
         style="opacity:0.5;fill:#ffffff" />
      <path
         d="m 18.088999,35.322599 c 6.059336,0 8.664043,-3.032428 8.575948,-6.721531 -0.02828,-1.184456 -0.900106,-3.525189 -4.069927,-4.592789 l -3.305483,-1.113291 c -1.488229,-0.501238 -1.632733,-1.566218 -1.632733,-1.908533 0,-0.4587 0.504225,-1.276757 2.369066,-1.276757 1.320594,0 2.117769,0.484546 4.103678,1.628576 l 2.339613,-3.762253 c -2.350919,-1.318923 -4.842571,-1.936519 -6.523327,-1.936519 -4.61808,0 -7.719577,2.129195 -7.719577,5.518112 0,2.026503 0.72443,4.0762 3.101497,5.274301 l 4.001801,1.476144 c 1.420472,0.523969 2.190136,1.073621 1.824821,1.862195 -0.370395,0.799538 -1.134009,1.474908 -3.065377,1.129638 -1.339381,-0.23944 -2.76415,-1.034229 -4.160965,-2.066839 l -2.436419,3.745549 c 2.218024,1.767045 4.232589,2.744 6.597419,2.744"
         id="text_SUPER-5-1"
         style="opacity:0.5;fill:#ffffff" />
    </g>
  </g>
</svg>
