<?xml version="1.0" encoding="UTF-8" standalone="no"?>
<!-- Created with Inkscape (http://www.inkscape.org/) -->

<svg
   xmlns="http://www.w3.org/2000/svg"
   version="1.1"
   width="100%"
   height="100%"
   viewBox="0 0 33 22"
   id="svg9723">
  <g
     id="g3034"
     style="fill:#371a5b" >
    <path
       d="m 23.814824,6.99245 -2.806445,0 0,-0.30805 c 0,-0.18512 0.0075,-0.38653 0.04145,-0.56721 0.02222,-0.13477 0.05924,-0.25177 0.102186,-0.34062 0.06961,-0.13478 0.119961,-0.2029 0.2725,-0.2962 0.154022,-0.0889 0.467989,-0.20882 1.092959,-0.2103 l 1.91342,0 0,-3.07006 -1.91342,0 c -0.909321,-10e-4 -1.707563,0.15995 -2.385854,0.49168 -0.506492,0.24733 -0.933014,0.59091 -1.249942,0.97448 -0.478354,0.57759 -0.707906,1.20848 -0.821941,1.73867 -0.114035,0.53167 -0.12144,0.98929 -0.12144,1.27956 l 0,8.29939 3.071545,0 -0.0018,-5.08715 2.806452,0 0,-2.90419"
       id="path5723" />
    <path
       d="m 28.521364,19.79992 c 2.7013,-0.002 4.12748,-1.9771 4.13192,-3.83276 l 0,-8.97471 -2.88494,0 0,4.4681 c 0,0.20438 -0.0267,0.4828 -0.24584,0.7242 -0.21623,0.23695 -0.49761,0.41911 -0.95819,0.41615 -0.48132,0.004 -0.82343,-0.17476 -0.9967,-0.41911 -0.17327,-0.2414 -0.20733,-0.51835 -0.20733,-0.72124 l 0,-4.4681 -2.92937,0 0,4.53178 c 0.003,1.88973 1.401,3.8298 3.74982,3.83425 0.45763,0 0.91229,-0.0934 1.3551,-0.26954 l 0.21326,-0.0844 -0.001,0.22956 0,0.65755 c 0,0.13773 -0.002,0.32877 -0.1481,0.5835 -0.14365,0.25621 -0.46058,0.50798 -0.99373,0.50354 -0.47984,0.002 -0.78788,-0.21031 -0.95227,-0.42801 -0.16587,-0.21622 -0.2029,-0.428 -0.20882,-0.45762 l -2.96195,-0.0118 0.0592,0.47096 c 0.34359,1.62018 1.81864,3.25073 3.97938,3.24778"
       id="path5727" />
    <path
       d="m 13.182903,19.79992 c 2.701298,-0.002 4.127478,-1.9771 4.131922,-3.83276 l 0,-8.97471 -2.884941,0 0,4.4681 c 0,0.20438 -0.01333,0.47539 -0.245841,0.7242 -0.220664,0.23548 -0.497609,0.41911 -0.958192,0.41615 -0.48132,0.004 -0.823424,-0.17476 -0.9967,-0.41911 -0.174755,-0.2414 -0.207332,-0.51835 -0.208815,-0.72124 l 0,-4.4681 -2.927888,0 0,4.53178 c 0.0029,1.88973 1.401006,3.8298 3.748346,3.83425 0.459105,0 0.913765,-0.0934 1.356576,-0.26954 l 0.213259,-0.0844 0,0.22956 -0.0018,0.65755 c 0,0.13625 -0.0026,0.32877 -0.149578,0.5835 -0.142177,0.25621 -0.459104,0.50798 -0.992256,0.50354 -0.479837,0.002 -0.789359,-0.21031 -0.952269,-0.42801 -0.165867,-0.21622 -0.204375,-0.428 -0.208815,-0.45762 L 9.14396,16.08126 9.2032,16.55222 c 0.343587,1.62018 1.818643,3.25073 3.97938,3.24778"
       id="path5731" />
    <path
       d="m 0.003701,11.22802 c 0,0 0.0015,-0.25177 0.01185,-0.40134 l 2.89975,0.009 -0.0074,0.17624 c -0.003,0.51834 0.312486,1.01298 0.589429,1.21588 0.276942,0.20585 0.672363,0.2725 0.913762,0.2725 0.620529,-10e-4 1.187742,-0.38061 1.195147,-0.96412 l -0.0015,-0.0533 C 5.585489,11.02822 5.296696,10.77941 4.884985,10.58689 4.514741,10.41361 3.882364,10.14556 3.196673,9.80493 2.5095,9.46431 1.767531,9.0526 1.182546,8.59053 0.33839,7.92113 -0.042221,7.0592 0.003689,5.85961 0.043679,4.83922 0.487968,3.95952 1.317314,3.23088 2.146661,2.50224 3.170015,2.21197 4.254089,2.21197 c 1.377308,0 2.528026,0.55537 3.289247,1.46172 0.771589,0.94783 0.919686,1.84678 0.952268,2.50729 l 0.0059,0.12737 -3.009343,0 C 5.461061,5.99882 5.315925,5.62858 5.139689,5.42717 4.932352,5.18725 4.613942,5.03175 4.214079,5.03323 3.984528,5.03423 3.71499,5.10283 3.48692,5.24649 3.263293,5.38718 3.078171,5.62118 3.079652,5.92774 c -0.003,0.33174 0.151059,0.59091 0.579061,0.80861 0.417635,0.21622 1.682388,0.77603 1.860106,0.84416 1.802347,0.70198 2.942698,1.83937 3.073024,3.5573 0.0015,0.037 0.003,0.0755 0.003,0.11848 0.0015,0.58054 -0.173274,1.58464 -0.836751,2.46138 -0.666439,0.87674 -1.8216,1.6424 -3.333677,1.6424 -2.990089,-0.0104 -4.413307,-2.18148 -4.420712,-4.13192"
       id="path5743" />
  </g>
</svg>
