<?xml version="1.0" encoding="UTF-8" standalone="no"?>
<!-- Generator: Adobe Illustrator 17.1.0, SVG Export Plug-In . SVG Version: 6.00 Build 0)  -->

<svg
   xmlns="http://www.w3.org/2000/svg"
   version="1.1"
   id="svg2"
   width="100%"
   height="100%"
   viewBox="19.8 5.2 109 22">
<g
   id="g3"
   transform="matrix(0.79637703,0,0,0.79638011,4.1113726,3.258823)">
	<path
   id="path3011"
   d="m 27.8,5.2 -0.1,0.1 c -0.1,0.2 -8,21.8 -8,21.9 0,0 14.8,0 32.8,0 H 85.3 L 85.4,27 C 85.8,25.9 93.3,5.4 93.3,5.3 l 0,-0.1 H 60.6 l -32.8,0 0,0 z m 78.1,0 c -5.3,0 -10.7,0 -10.7,0 0,0 -8,21.9 -8,22 0,0 4.8,0 10.7,0 l 10.7,0 4,-11 c 2.2,-6 4,-11 4,-11 0,0 -5.3,0 -10.7,0 l 0,0 z m 1.1,3.4 c 2.5,0 3.2,0 3.2,0 0,0 -0.2,0.7 -0.5,1.4 l -0.5,1.4 -4.8,0 -4.8,0 -0.5,1.2 c -0.3,0.7 -0.5,1.3 -0.6,1.5 l -0.1,0.3 0.2,-0.1 c 0.5,-0.3 1.5,-0.5 2.5,-0.7 0.5,-0.1 0.7,-0.1 1.7,-0.1 1.2,0 1.6,0 2.5,0.3 1.6,0.4 2.7,1.1 3.2,2.2 0.4,1 0.4,2.1 0,3.4 -0.3,0.8 -0.7,1.5 -1.4,2.2 -0.3,0.3 -0.6,0.6 -0.7,0.7 -1.3,1 -3,1.6 -5,1.8 -0.7,0.1 -2.3,0.1 -3,0 -1,-0.1 -2,-0.4 -2.7,-0.7 -1,-0.5 -1.6,-1.2 -1.9,-2.1 -0.1,-0.3 -0.1,-0.4 -0.1,-1 0,-0.4 0,-0.7 0,-0.8 l 0,-0.1 2.1,0 2.1,0 0,0.3 c 0.1,0.9 0.4,1.4 1.3,1.6 0.2,0.1 0.4,0.1 1.3,0.1 1.1,0 1.5,-0.1 2.2,-0.3 0.5,-0.2 0.7,-0.3 1.1,-0.7 0.3,-0.3 0.3,-0.4 0.5,-0.7 0.7,-1.5 0.3,-2.7 -1.2,-3.2 -1.4,-0.5 -3.4,-0.2 -4.6,0.6 l -0.2,-0.1 -1.9,0 -1.9,0 1.5,-4.2 1.5,-4.2 6.4,0 c 1.3,0 2.3,0 3.1,0 l 0,0 z m -77,0 h 7.5 c 6,0 7.5,0 7.5,0 0,0 -0.3,0.7 -0.6,1.6 l -0.6,1.5 -2.6,0 -2.6,0 -2.2,6.1 -2.2,6.1 -2.2,0 -2.2,0 0.1,-0.3 C 30,23.4 31,20.7 32.1,17.5 l 2.1,-5.7 -2.6,0 c -2.5,0 -2.6,0 -2.6,-0.1 0,-0.1 0.8,-2.1 1.1,-3 L 30,8.6 l 0,0 z m 16.8,0 h 6.4 c 6.1,0 6.4,0 6.4,0.1 0,0 -0.3,0.7 -0.6,1.6 l -0.5,1.5 h -4.2 c -4,0 -4.2,0 -4.2,0.1 -0.1,0.2 -1,2.7 -1,2.7 0,0 1.8,0 4,0 3.7,0 4,0 3.9,0.1 0,0 -0.3,0.7 -0.6,1.6 l -0.4,1.4 -4,0 -4,0 -0.5,1.5 C 47.2,20 47,20.7 47,20.7 c 0,0 1.9,0 4.1,0 3.3,0 4.1,0 4.1,0 0,0 -0.3,0.7 -0.6,1.6 l -0.6,1.5 -6.4,0 h -6.4 l 0.1,-0.2 c 0,-0.1 1.3,-3.6 2.8,-7.7 l 2.7,-7.3 0,0 z m 17.5,0 c 1.3,0 2.2,0 2.2,0 0,0 -1,2.8 -2.1,6.1 -1.2,3.3 -2.1,6 -2.1,6 0,0 1.7,0 3.7,0 2.9,0 3.7,0 3.7,0 0,0 -0.2,0.7 -0.5,1.6 l -0.5,1.5 -6,0 -6,0 0.1,-0.2 c 0,-0.1 1.3,-3.5 2.8,-7.7 l 2.4,-7.3 2.3,0 0,0 z m 11.4,0 h 6.5 c 6.1,0 6.5,0 6.4,0.1 0,0 -0.3,0.7 -0.6,1.6 l -0.5,1.5 h -4.2 c -3.9,0 -4.2,0 -4.2,0.1 -0.1,0.2 -1,2.7 -1,2.7 0,0 1.8,0 4,0 3.7,0 4,0 3.9,0.1 0,0 -0.3,0.7 -0.6,1.6 l -0.5,1.5 -4,0 -4,0 -0.5,1.5 c -0.3,0.8 -0.5,1.5 -0.5,1.5 0,0 1.8,0 4.1,0 2.3,0 4.1,0 4.1,0 0,0 -0.2,0.7 -0.5,1.6 l -0.5,1.5 -6.5,0 -6.5,0 0.4,-1 c 0.2,-0.5 1.4,-4 2.8,-7.7 l 2.4,-6.6 0,0 z"
   style="fill:#d3334b" />
	<path
   id="path2997"
   d="m 118.6,5.3 0,0.1 c 0,0.1 -1.8,5 -4,10.9 -2.2,5.9 -3.9,10.8 -4,10.9 0,0.1 0.9,0.1 18.4,0.1 h 18.5 l 4,-10.9 c 2.2,-6 4,-11 4,-11 0,0 -3.7,0 -18.4,0 l -18.5,-0.1 0,0 z m 5.9,1.2 c 3.1,0 7.4,0 12.1,0 l 17.1,0 -3.5,9.7 c -1.9,5.3 -3.5,9.7 -3.5,9.7 0,0 -34.2,0 -34.2,0 0,0 7,-19.4 7.1,-19.4 -0.1,0 1.8,0 4.9,0 l 0,0 z m 12.6,2 -2.8,7.7 c -1.5,4.2 -2.8,7.7 -2.8,7.8 0,0.1 0.3,0.1 3.9,0.1 4.3,0 4.1,0 5.2,-0.3 2.8,-0.7 5.2,-2.8 6.8,-5.8 1,-2 1.6,-4.2 1.4,-5.6 -0.2,-2 -1.3,-3.2 -3.4,-3.6 l -0.5,-0.1 -3.9,0 -3.9,-0.2 0,0 z m -14,0 c -1.6,0 -1.7,0 -1.7,0.1 0,0.1 -1.3,3.6 -1.6,4.5 -0.1,0.4 -1.1,3 -2.1,5.8 -1,2.8 -1.8,5.1 -1.8,5.1 0,0 0.8,0 1.7,0 l 1.7,0 1.2,-3.3 c 0.6,-1.8 1.2,-3.3 1.2,-3.3 l 0,-0.1 h 3.1 c 2.5,0 3.1,0 3.1,0 0,0 -0.5,1.5 -1.2,3.4 l -1.2,3.3 h 1.7 1.7 l 0.1,-0.2 c 0.1,-0.2 5.5,-15.2 5.5,-15.3 0,0 -0.3,0 -1.7,0 l -1.7,0 -1.1,3 -1.1,3 h -3.1 c -1.7,0 -3.1,0 -3.1,0 0,0 2.1,-5.7 2.1,-5.8 0,-0.2 -0.1,-0.2 -1.7,-0.2 l 0,0 z m 16.4,2.9 1.7,0 c 1.6,0 1.7,0 2,0.1 0.9,0.2 1.5,0.7 1.8,1.4 0.3,0.8 0.2,1.8 -0.3,3.2 -0.5,1.6 -1.2,2.7 -2.1,3.6 -0.8,0.7 -1.7,1.2 -2.7,1.4 -0.3,0 -0.7,0.1 -2.1,0.1 H 136 l 0.1,-0.3 c 0.1,-0.2 0.9,-2.4 1.8,-4.9 l 1.6,-4.6 0,0 z"
   style="fill:#a8a9ad" />
</g>
</svg>