<?xml version="1.0" encoding="UTF-8" standalone="no"?>
<!-- Creator: CorelDRAW -->

<svg
   xmlns="http://www.w3.org/2000/svg"
   width="100%"
   height="100%"
   viewBox="0 0 51 22"
   id="svg2"
   version="1.1">
 <g
   id="Ebene_x0020_1"
   transform="translate(-0.00610414,-976.63587)">
  <metadata
   id="CorelCorpID_0Corel-Layer" />
  <polygon
   points="149.197,877.451 149.197,891.388 114.024,891.388 114.024,995.496 98.1154,995.496 98.1154,891.388 62.7904,891.388 62.7904,877.451 "
   id="polygon6"
   style="fill:#3a3e41"
   transform="matrix(0.02224469,0,0,0.02224469,1.9555106e-4,976.63587)" />
  <polygon
   points="180.451,995.496 164.649,995.496 164.649,877.451 180.451,877.451 180.451,927.708 244.439,927.708 244.439,877.451 260.33,877.451 260.33,995.496 244.439,995.496 244.439,941.646 180.451,941.646 "
   id="polygon8"
   style="fill:#3a3e41"
   transform="matrix(0.02224469,0,0,0.02224469,1.9555106e-4,976.63587)" />
  <polygon
   points="366.105,981.772 366.105,995.496 282.844,995.496 282.844,877.663 364.095,877.663 364.095,891.6 298.099,891.6 298.099,927.888 355.459,927.888 355.459,941.824 298.099,941.824 298.099,981.772 "
   id="polygon10"
   style="fill:#3a3e41"
   transform="matrix(0.02224469,0,0,0.02224469,1.9555106e-4,976.63587)" />
  <path
   d="m 9.5039056,996.15921 1.0117264,0 c 0.275127,0 0.526267,0.0105 0.684433,0.0611 0.324215,0.1072 0.45407,0.36203 0.45407,0.6112 0,0.14204 -0.03826,0.22674 -0.04925,0.25123 -0.118763,0.26806 -0.371045,0.32055 -0.511725,0.35101 0.158193,0.0242 0.371046,0.057 0.516264,0.22025 0.09165,0.10086 0.145271,0.2466 0.145271,0.3957 0,0.20505 -0.109159,0.48872 -0.435787,0.6328 -0.19741,0.0874 -0.406893,0.0979 -0.709163,0.0979 l -1.1058388,0 0,-2.62114 z m 0.6233004,0.4891 0,0.54518 0.4944,0 c 0.147261,-0.002 0.388399,-0.0105 0.388399,-0.28168 0,-0.25056 -0.219248,-0.2635 -0.343717,-0.2635 l -0.539082,0 z m 0,1.02119 0,0.63543 0.456058,0 c 0.218425,-0.005 0.505387,-0.0113 0.505387,-0.31225 0,-0.31424 -0.259658,-0.31856 -0.393892,-0.32318 l -0.567553,0 z"
   id="path12"
   style="fill:#3a3e41" />
  <polygon
   points="545.28,877.663 574.636,877.663 574.636,995.496 545.28,995.496 "
   id="polygon14"
   style="fill:#3a3e41"
   transform="matrix(0.02224469,0,0,0.02224469,1.9555106e-4,976.63587)" />
  <path
   d="m 14.481822,998.85509 c -0.831429,0 -1.303116,-0.63954 -1.303116,-1.39713 0,-0.70977 0.448815,-1.38168 1.291308,-1.38168 0.157159,0 0.319811,0.0218 0.481374,0.0782 0.799934,0.27959 0.853266,1.15302 0.853266,1.32949 4.4e-5,0.45166 -0.208289,0.86237 -0.498884,1.09589 -0.256288,0.21179 -0.552004,0.27521 -0.823948,0.27521 m 0.452875,-2.039 c -0.111043,-0.11754 -0.281522,-0.19412 -0.460462,-0.19412 -0.397182,0 -0.650233,0.35154 -0.650233,0.82458 0,0.62487 0.349182,0.85367 0.65782,0.85367 0.312247,0 0.645376,-0.22047 0.665781,-0.77072 0.01093,-0.27494 -0.06517,-0.55424 -0.212905,-0.71341 z"
   id="path16"
   style="fill:#3a3e41" />
  <path
   d="m 18.063907,998.53365 c -0.10693,0.10093 -0.330634,0.30588 -0.770614,0.30588 -0.73315,0 -1.182946,-0.59392 -1.182946,-1.36613 0,-0.84284 0.547891,-1.40395 1.292132,-1.40395 0.695286,0 1.0325,0.44532 1.155883,0.60484 l -0.498777,0.30097 c -0.09165,-0.13904 -0.243366,-0.37107 -0.607859,-0.37107 -0.497796,0 -0.68531,0.41259 -0.68531,0.8513 0,0.2946 0.07944,0.5372 0.207201,0.66793 0.100456,0.10926 0.277409,0.18786 0.478109,0.18786 0.119004,0 0.253316,-0.0282 0.36038,-0.1007 0.172123,-0.10895 0.194119,-0.25305 0.21264,-0.38813 l -0.588303,0 0,-0.49801 1.139431,0 0,1.45592 -0.511966,0 0,-0.24671 z"
   id="path18"
   style="fill:#3a3e41" />
  <path
   d="m 19.034265,996.15921 1.180823,0 c 0.2751,0.004 0.616799,0.006 0.855682,0.26616 0.12362,0.13988 0.208634,0.3448 0.208634,0.58254 4.4e-5,0.5289 -0.360088,0.65748 -0.53704,0.725 l 0.603454,1.04745 -0.722219,0 -0.520774,-0.9359 -0.411376,0 0,0.9359 -0.657184,0 0,-2.62114 z m 0.657183,0.4891 0,0.70929 0.541154,0 c 0.09401,-0.002 0.392961,-0.0113 0.392961,-0.36011 4.4e-5,-0.33226 -0.241351,-0.3452 -0.377652,-0.34918 l -0.556463,0 z"
   id="path20"
   style="fill:#3a3e41" />
  <path
   d="m 23.120436,996.15921 0.965982,2.62114 -0.697489,0 -0.129564,-0.42072 -0.965982,0 -0.129934,0.42072 -0.696401,0 0.971448,-2.62114 0.68194,0 z m -0.353401,0.62404 c -0.03057,0.13355 -0.06888,0.27096 -0.107195,0.40374 -0.05569,0.19674 -0.153842,0.5044 -0.213914,0.70072 l 0.663579,0 -0.342468,-1.10446 z"
   id="path22"
   style="fill:#3a3e41" />
  <path
   d="m 24.345229,996.15921 1.055426,0 c 0.430984,0 0.812883,0 1.043167,0.33177 0.101836,0.14591 0.148614,0.35805 0.148614,0.5371 0,0.14352 -0.02948,0.2834 -0.08968,0.40787 -0.225801,0.46957 -0.709296,0.48 -1.06397,0.48649 l -0.43645,0 0,0.85792 -0.657103,0 0,-2.62114 z m 0.657103,0.48225 0,0.79449 0.393945,0 c 0.245621,0 0.54354,-0.007 0.54354,-0.41249 0,-0.382 -0.331909,-0.382 -0.521782,-0.382 l -0.415703,0 z"
   id="path24"
   style="fill:#3a3e41" />
  <polygon
   points="1282.22,995.496 1282.22,945.267 1239.09,945.267 1239.09,995.496 1209.47,995.496 1209.47,877.663 1239.09,877.663 1239.09,920.138 1282.22,920.138 1282.22,877.663 1311.76,877.663 1311.76,995.496 "
   id="polygon26"
   style="fill:#3a3e41"
   transform="matrix(0.02224469,0,0,0.02224469,1.9555106e-4,976.63587)" />
  <path
   d="m 29.444157,996.15921 0.753209,0 0.563042,0.89898 c 0.03383,-0.074 0.04264,-0.0916 0.109293,-0.19597 l 0.449692,-0.70301 0.744267,0 -0.989993,1.38168 0,1.23946 -0.646013,0 0,-1.22213 -0.983493,-1.39901 z"
   id="path28"
   style="fill:#3a3e41" />
  <path
   d="m 35.825713,997.82892 c -0.11266,0.49963 -0.532475,1.01706 -1.292132,1.01706 -0.864517,0 -1.280351,-0.64825 -1.280351,-1.37755 0,-0.74214 0.426767,-1.375 1.329332,-1.375 0.906015,0 1.126377,0.62641 1.191888,0.80148 l -0.353746,0.0716 c -0.03386,-0.0963 -0.06007,-0.1792 -0.155964,-0.29227 -0.125689,-0.15479 -0.356002,-0.30126 -0.686556,-0.30126 -0.279424,0 -0.549882,0.1093 -0.719247,0.32729 -0.167985,0.20741 -0.219221,0.48273 -0.219221,0.75119 0,0.65013 0.328274,1.10648 0.934141,1.10648 0.390708,0 0.786775,-0.22033 0.869824,-0.77457 l 0.38203,0.0455 z"
   id="path30"
   style="fill:#3a3e41" />
  <polygon
   points="1644.18,995.496 1628.47,995.496 1628.47,877.451 1644.18,877.451 1644.18,927.708 1708.31,927.708 1708.31,877.451 1724.15,877.451 1724.15,995.496 1708.31,995.496 1708.31,941.646 1644.18,941.646 "
   id="polygon32"
   style="fill:#3a3e41"
   transform="matrix(0.02224469,0,0,0.02224469,1.9555106e-4,976.63587)" />
  <path
   d="m 40.34094,997.97938 -0.999679,0 -0.292453,0.801 -0.373195,0 0.999679,-2.62114 0.363352,0 0.954918,2.62114 -0.368951,0 -0.283671,-0.801 z m -0.104568,-0.29208 -0.383382,-1.09605 -0.399277,1.09605 0.782661,0 z"
   id="path34"
   style="fill:#3a3e41" />
  <polygon
   points="1872.57,995.496 1857.79,995.496 1857.79,877.663 1872.57,877.663 1936.5,972.044 1935.77,877.663 1949.94,877.663 1949.94,995.496 1935.77,995.496 1871.15,899.65 "
   id="polygon36"
   style="fill:#3a3e41"
   transform="matrix(0.02224469,0,0,0.02224469,1.9555106e-4,976.63587)" />
  <polygon
   points="1990.76,995.496 1975.96,995.496 1975.96,877.663 1990.76,877.663 2054.64,972.044 2053.96,877.663 2068.1,877.663 2068.1,995.496 2053.96,995.496 1989.34,899.65 "
   id="polygon38"
   style="fill:#3a3e41"
   transform="matrix(0.02224469,0,0,0.02224469,1.9555106e-4,976.63587)" />
  <polygon
   points="2177.46,981.772 2177.46,995.496 2094.15,995.496 2094.15,877.663 2175.45,877.663 2175.45,891.6 2109.3,891.6 2109.3,927.888 2166.81,927.888 2166.81,941.824 2109.3,941.824 2109.3,981.772 "
   id="polygon40"
   style="fill:#3a3e41"
   transform="matrix(0.02224469,0,0,0.02224469,1.9555106e-4,976.63587)" />
  <polygon
   points="2273.08,995.496 2200.37,995.496 2200.37,877.451 2216.02,877.451 2216.02,981.48 2273.08,981.48 "
   id="polygon42"
   style="fill:#3a3e41"
   transform="matrix(0.02224469,0,0,0.02224469,1.9555106e-4,976.63587)" />
  
  <polygon
   points="734.918,160.833 895.854,160.833 895.854,0 734.918,0 "
   id="polygon46"
   style="fill:#3a3e41"
   transform="matrix(0.02224469,0,0,0.02224469,1.9555106e-4,976.63587)" />
  <path
   d="m 8.6559601,994.01142 c -1.8391217,0 -3.0710575,-0.67672 -3.797035,-2.08265 l -0.6525413,1.67207 -2.3476377,0 0,-13.91784 c 0,-0.79879 -0.2140465,-1.06532 -0.86863071,-1.06532 l -0.98991539,0 0,-1.98179 5.4394718,0 0,6.77973 c 1.1132154,-1.25259 2.0570955,-1.68942 3.5076316,-1.68942 3.1205516,0 4.9332716,2.22434 4.9332716,6.16211 0,3.75248 -2.007105,6.12317 -5.2246105,6.12317 M 7.809225,984.02272 c -1.5216212,0 -2.4164409,1.47522 -2.4164409,4.01424 0,2.44026 0.820736,3.79569 2.2961193,3.79569 1.4975013,0 2.3695716,-1.42732 2.3695716,-3.94434 0,-2.4383 -0.8228338,-3.86559 -2.24925,-3.86559 z"
   id="path48"
   style="fill:#3a3e41" />
  <path
   d="m 14.437199,993.60083 0,-1.96007 1.041205,0 c 0.652699,0 0.869823,-0.26623 0.869823,-1.08931 l 0,-5.44187 c 0,-0.79675 -0.217124,-1.06288 -0.869823,-1.06288 l -1.041205,0 0,-1.98424 5.490991,0 0,8.489 c 0,0.80108 0.219273,1.08931 0.871972,1.08931 l 1.015121,0 0,1.96006 -7.378097,0 z"
   id="path50"
   style="fill:#3a3e41" />
  <path
   d="m 28.49898,994.01142 c -3.919359,0 -6.411009,-2.395 -6.411009,-6.1428 0,-3.77199 2.491672,-6.14243 6.411009,-6.14243 3.893221,0 6.381667,2.37044 6.381667,6.14243 0,3.74778 -2.488446,6.14284 -6.381667,6.14284 m 0,-10.35137 c -1.64792,0 -2.586546,1.5454 -2.586546,4.20853 0,2.65884 0.938599,4.20653 2.586546,4.20653 1.619582,0 2.563655,-1.54768 2.563655,-4.20653 0,-2.66312 -0.944091,-4.20853 -2.563655,-4.20853 z"
   id="path52"
   style="fill:#3a3e41" />
  <path
   d="m 39.580172,991.71921 c 0,-1.14144 -0.924349,-2.06723 -2.067046,-2.06723 -1.139431,0 -2.064737,0.92581 -2.064737,2.06723 0,1.13946 0.925306,2.06514 2.064737,2.06514 1.142695,0 2.066992,-0.92568 2.067046,-2.06514 z"
   id="path54"
   style="fill:#d02a2b" />
 </g>
</svg>