<?xml version="1.0" encoding="UTF-8" standalone="no"?>
<svg
   xmlns="http://www.w3.org/2000/svg"
   xmlns:xlink="http://www.w3.org/1999/xlink"
   version="1.1"
   width="100%"
   height="100%"
   viewBox="0 0 71 22"
   id="svg2985">
  <defs
     id="defs2989">
    <linearGradient
       x1="0"
       y1="0"
       x2="1"
       y2="0"
       id="linearGradient4140"
       gradientUnits="userSpaceOnUse"
       gradientTransform="matrix(2.8844,-4.1193,-4.1193,-2.8844,474.9,223.83)"
       spreadMethod="pad">
      <stop
         id="stop4142"
         offset="0"
         style="stop-color:#ea593e;stop-opacity:1" />
      <stop
         id="stop4144"
         offset="0.19882762"
         style="stop-color:#ea593e;stop-opacity:0" />
      <stop
         id="stop4146"
         offset="0.82496721"
         style="stop-color:#bf2529;stop-opacity:0" />
      <stop
         id="stop4148"
         offset="1"
         style="stop-color:#951f21;stop-opacity:1" />
    </linearGradient>
    <linearGradient
       x1="0"
       y1="0"
       x2="1"
       y2="0"
       id="linearGradient4031"
       gradientUnits="userSpaceOnUse"
       gradientTransform="matrix(2.8844,-4.1193,-4.1193,-2.8844,474.9,223.83)"
       spreadMethod="pad">
      <stop
         id="stop4033"
         offset="0"
         style="stop-color:#e13e32;stop-opacity:1" />
      <stop
         id="stop4035"
         offset="0.5"
         style="stop-color:#d92729;stop-opacity:1" />
      <stop
         id="stop4037"
         offset="1"
         style="stop-color:#b22427;stop-opacity:1" />
    </linearGradient>
    <linearGradient
       x1="0"
       y1="0"
       x2="1"
       y2="0"
       id="linearGradient4010"
       gradientUnits="userSpaceOnUse"
       gradientTransform="matrix(2.8844,-4.1193,-4.1193,-2.8844,474.9,223.83)"
       spreadMethod="pad">
      <stop
         id="stop4012"
         offset="0"
         style="stop-color:#ea593e;stop-opacity:1" />
      <stop
         id="stop4018"
         offset="0.14548044"
         style="stop-color:#ea593e;stop-opacity:0" />
      <stop
         id="stop4016"
         offset="0.85413778"
         style="stop-color:#bf2529;stop-opacity:0" />
      <stop
         id="stop4014"
         offset="1"
         style="stop-color:#951f21;stop-opacity:1" />
    </linearGradient>
    <linearGradient
       xlink:href="#linearGradient4031"
       id="linearGradient3127"
       gradientUnits="userSpaceOnUse"
       gradientTransform="matrix(0.66243115,166.62027,-115.92034,0.95215792,307.76629,1.3580228)"
       spreadMethod="pad"
       x1="0"
       y1="0"
       x2="1"
       y2="0" />
    <linearGradient
       xlink:href="#linearGradient4010"
       id="linearGradient3129"
       gradientUnits="userSpaceOnUse"
       gradientTransform="matrix(0.66243115,166.62027,-115.92034,0.95215792,307.76629,1.35803)"
       spreadMethod="pad"
       x1="-0.0018792338"
       y1="2.6105914"
       x2="1.9035712"
       y2="0.3851935" />
    <linearGradient
       xlink:href="#linearGradient4140"
       id="linearGradient3131"
       gradientUnits="userSpaceOnUse"
       gradientTransform="matrix(0.66243115,166.62027,-115.92034,0.95215792,307.76629,1.3580235)"
       spreadMethod="pad"
       x1="-0.0019355299"
       y1="1.6322571"
       x2="0.88655597"
       y2="0.5742836" />
  </defs>
  <g
     id="g3112"
     transform="scale(0.12941176,0.12941176)">
    <path
       id="path149833"
       d="m 366.70128,164.54702 1.94727,0 0,5.45298 1.16837,0 0,-5.45298 1.94727,0 0,-0.9348 -5.06291,0 m 11.5668,0 -1.79149,4.71293 -1.83043,-4.71293 -1.75255,0 0,6.38778 1.16836,0 0,-5.21928 2.02517,5.21928 0.73996,0 2.02517,-5.21928 0.0389,0 0,5.21928 1.12942,0 0,-6.38778 M 458.37321,46.474983 c -0.0406,-0.649516 -0.52767,-1.136653 -1.17711,-1.217843 -0.0406,0 -0.0812,0 -0.16237,0 l -12.62354,0 c -0.0406,0 -0.0812,0 -0.16236,0 -0.64945,0.08119 -1.17712,0.649516 -1.17712,1.339628 l 0,31.014405 -34.46106,0 0,-31.014405 c 0,0 0,0 0,-0.04059 -0.0406,-0.649517 -0.52767,-1.217843 -1.21771,-1.299033 -0.0406,0 -0.0812,0 -0.16236,0 l -12.74531,0 c -0.0406,0 -0.0812,0 -0.12177,0 -0.69004,0.08119 -1.21771,0.649516 -1.21771,1.339628 l 0,78.063747 c 0,0.73071 0.60885,1.33963 1.33948,1.33963 l 12.74531,0 c 0.77122,0 1.33948,-0.60892 1.38007,-1.33963 l 0,-32.759983 34.42047,0 0.0406,-0.04059 0,32.800573 c 0,0.73071 0.56826,1.29903 1.33948,1.29903 l 12.62354,0 c 0.73063,0 1.29889,-0.52773 1.33948,-1.21784 0.0406,-0.0406 0.0406,-0.0812 0.0406,-0.0812 l 0,-78.063742 c 0,-0.04059 0,-0.08119 -0.0406,-0.121785 m 45.13627,65.195207 -14.53128,0 0,-52.083096 14.53128,0 c 17.29142,0 21.02571,14.086386 21.02571,25.940059 0,9.742745 -2.80072,26.143037 -21.02571,26.143037 m -15.78958,14.32995 c 0.16236,-0.0406 0.32472,-0.0812 0.52767,-0.12178 -0.16236,0.0812 -0.36531,0.12178 -0.52767,0.12178 m 15.91135,-80.743 -28.57549,0 c -0.0406,0 -0.0812,0 -0.12177,0 -0.69003,0.08119 -1.2177,0.649516 -1.2177,1.339628 l 0,78.063742 c 0,0.73071 0.60885,1.33963 1.33947,1.33963 0.32473,0 29.18434,0 29.46847,-0.0406 21.59398,-0.40594 35.47582,-16.03493 35.47582,-40.310603 0,-24.925189 -13.92243,-40.391797 -36.3688,-40.391797"
       style="fill:#da2a2a;fill-opacity:1;fill-rule:nonzero" />
    <rect
       id="rect4050"
       y="41.165646"
       x="14.417178"
       height="98.773003"
       width="86.809814"
       style="fill:#ffffff;fill-opacity:1" />
    <rect
       id="rect4052"
       y="38.711655"
       x="151.22699"
       height="101.84049"
       width="64.417175"
       style="fill:#ffffff;fill-opacity:1" />
    <rect
       id="rect4054"
       y="29.81595"
       x="272.39264"
       height="107.36196"
       width="73.312881"
       style="fill:#ffffff;fill-opacity:1" />
    <path
       id="path149757-5-4-1"
       d="M 7.03125,0 C 3.1634105,-0.00173189 0.03834566,3.2363089 0,7.03125 l 0,155.9375 C -0.0017598,167.06496 3.2436079,169.9616 7.03125,170 L 104.5,170 c 4.52946,-0.0585 7.07314,-3.09575 7.03125,-7.03125 l 0,-155.9375 C 111.53325,2.6537562 108.72874,0.018366 104.5,0 z m 126,0 C 129.1634,-0.00173197 126.0384,3.236309 126,7.03125 l 0,155.9375 c -0.002,4.09621 3.24361,6.99285 7.03125,7.03125 l 97.4375,0 c 4.52947,-0.0585 7.07314,-3.09575 7.03125,-7.03125 l 0,-155.9375 C 237.502,2.6537561 234.69749,0.018366 230.46875,0 z M 259,0 c -3.86783,-0.00173197 -6.99285,3.236309 -7.03125,7.03125 l 0,155.9375 c -0.002,4.09621 3.24361,6.99285 7.03125,7.03125 l 97.4375,0 c 4.52945,-0.0585 7.07314,-3.09575 7.03125,-7.03125 l 0,-155.9375 C 363.47075,2.6537561 360.66623,0.018366 356.4375,0 z m 54.9375,45.25 c 10.71,0 20.45134,4.183773 27.65625,11 0.42844,0.545298 0.43604,1.306152 -0.0312,1.8125 l -9.0625,9 c -0.49661,0.496668 -1.38837,0.514436 -1.9375,0 -4.43978,-3.933937 -10.23794,-6.34375 -16.625,-6.34375 -13.74775,0 -24.9375,11.149246 -24.9375,24.9375 0,13.71036 11.18975,24.90625 24.9375,24.90625 6.37836,0 12.15632,-2.4193 16.59375,-6.34375 0.54524,-0.50635 1.46246,-0.50635 1.96875,0 l 9.0625,9 c 0.46728,0.50635 0.45968,1.30616 0.0312,1.8125 C 334.38884,121.84748 324.6475,126 313.9375,126 291.62175,126 273.53125,107.93558 273.53125,85.65625 273.53125,63.337974 291.62175,45.25 313.9375,45.25 z M 23.5,45.5625 l 64.5,0 c 0.739963,0 1.375,0.603703 1.375,1.34375 l 0,12.71875 C 89.375,60.403997 88.739963,61 88,61 l -24.125,0 0,63.375 c 0,0.74005 -0.603786,1.34375 -1.34375,1.34375 l -12.78125,0 c -0.739964,0 -1.34375,-0.6037 -1.34375,-1.34375 L 48.40625,61 23.5,61 c -0.739963,0 -1.34375,-0.596003 -1.34375,-1.375 l 0,-12.71875 c 0,-0.740047 0.603787,-1.34375 1.34375,-1.34375 z m 135.71875,0 12.71875,0 c 0.77891,0 1.375,0.634953 1.375,1.375 l 0,55.9375 c 0,4.08973 3.31697,7.375 7.40625,7.375 l 23.53125,0 c 0.77891,0 1.34375,0.63495 1.34375,1.375 l 0,12.75 c 0,0.74005 -0.56484,1.34375 -1.34375,1.34375 l -28.90625,0 c -12.18994,0 -17.5,-7.81053 -17.5,-17.9375 l 0,-60.84375 c 0,-0.740047 0.63504,-1.375 1.375,-1.375 z"
       style="fill:url(#linearGradient3127);display:inline" />
    <path
       id="path149757-5-4-1-6"
       d="M 7.03125,0 C 3.1634105,-0.002 0.03834566,3.23631 0,7.03125 l 0,155.9375 C -0.0017598,167.06496 3.2436079,169.9616 7.03125,170 L 104.5,170 c 4.52946,-0.0585 7.07314,-3.09575 7.03125,-7.03125 l 0,-155.9375 C 111.53325,2.65376 108.72874,0.01837 104.5,0 z M 259,0 c -3.86783,-0.002 -6.99285,3.23631 -7.03125,7.03125 l 0,155.9375 c -0.002,4.09621 3.24361,6.99285 7.03125,7.03125 l 97.4375,0 c 4.52945,-0.0585 7.07314,-3.09575 7.03125,-7.03125 l 0,-155.9375 C 363.47075,2.65376 360.66623,0.01837 356.4375,0 z m 54.9375,45.25 c 10.71,0 20.45134,4.18377 27.65625,11 0.42844,0.5453 0.43604,1.30615 -0.0312,1.8125 l -9.0625,9 c -0.49661,0.49667 -1.38837,0.51444 -1.9375,0 -4.43978,-3.93394 -10.23794,-6.34375 -16.625,-6.34375 -13.74775,0 -24.9375,11.14925 -24.9375,24.9375 0,13.71036 11.18975,24.90625 24.9375,24.90625 6.37836,0 12.15632,-2.4193 16.59375,-6.34375 0.54524,-0.50635 1.46246,-0.50635 1.96875,0 l 9.0625,9 c 0.46728,0.50635 0.45968,1.30616 0.0312,1.8125 C 334.38884,121.84748 324.6475,126 313.9375,126 291.62175,126 273.53125,107.93558 273.53125,85.65625 273.53125,63.33797 291.62175,45.25 313.9375,45.25 z M 23.5,45.5625 l 64.5,0 c 0.739963,0 1.375,0.6037 1.375,1.34375 l 0,12.71875 C 89.375,60.404 88.739963,61 88,61 l -24.125,0 0,63.375 c 0,0.74005 -0.603786,1.34375 -1.34375,1.34375 l -12.78125,0 c -0.739964,0 -1.34375,-0.6037 -1.34375,-1.34375 L 48.40625,61 23.5,61 c -0.739963,0 -1.34375,-0.596 -1.34375,-1.375 l 0,-12.71875 c 0,-0.74005 0.603787,-1.34375 1.34375,-1.34375 z"
       style="fill:url(#linearGradient3129);fill-opacity:1;display:inline" />
    <path
       id="path149757-5-4-1-9"
       d="M 133.03125,6.9448316e-7 C 129.1634,-0.00173128 126.0384,3.2363097 126,7.0312507 l 0,155.9374993 c -0.002,4.09621 3.24361,6.99285 7.03125,7.03125 l 97.4375,0 c 4.52947,-0.0585 7.07314,-3.09575 7.03125,-7.03125 l 0,-155.9374993 C 237.502,2.6537568 234.69749,0.01836669 230.46875,6.9448316e-7 z M 159.21875,45.562501 l 12.71875,0 c 0.77891,0 1.375,0.634953 1.375,1.375 l 0,55.937499 c 0,4.08973 3.31697,7.375 7.40625,7.375 l 23.53125,0 c 0.77891,0 1.34375,0.63495 1.34375,1.375 l 0,12.75 c 0,0.74005 -0.56484,1.34375 -1.34375,1.34375 l -28.90625,0 c -12.18994,0 -17.5,-7.81053 -17.5,-17.9375 l 0,-60.843749 c 0,-0.740047 0.63504,-1.375 1.375,-1.375 z"
       style="fill:url(#linearGradient3131);fill-opacity:1;display:inline" />
  </g>
</svg>
