<?xml version="1.0" encoding="UTF-8" standalone="no"?>
<!-- Created with Inkscape (http://www.inkscape.org/) -->

<svg
   xmlns="http://www.w3.org/2000/svg"
   width="100%"
   height="100%"
   viewBox="0 0 37 22"
   id="svg111821"
   version="1.1">
  <g
     id="g2992"
     style="fill:#c75fa4"
     transform="matrix(0.06819088,0,0,0.06819088,-12.532972,-9.1281827)">
    <path
       d="m 290.47293,311.33504 0,-69.39864 18.13875,0 24.94334,43.06159 -0.65586,-43.06159 16.70404,0 0,69.39864 -18.03627,0 -24.26698,-40.49962 -0.22463,40.49962"
       id="path111305" />
    <path
       d="m 378.54322,311.33504 0.082,-53.53492 -20.47526,0 -0.082,-15.86372 59.23275,0 0.082,15.86372 -21.2336,0 -0.082,53.53492"
       id="path111309" />
    <path
       d="m 243.86557,311.33504 0.082,-53.53492 -20.47527,0 -0.082,-15.86372 59.23275,0 0.082,15.86372 -21.23361,0 -0.082,53.53492"
       id="path111313" />
    <path
       d="m 204.28826,270.40501 c 0,32.07587 12.97382,61.01588 33.98197,82.06503 21.02865,21.00815 49.98916,33.98197 82.06503,33.98197 32.07586,0 61.03637,-12.97382 82.06502,-33.98197 21.00816,-21.04915 33.98197,-49.98916 33.98197,-82.06503 0,-32.07587 -12.97381,-61.03638 -33.98197,-82.06503 -21.02865,-21.00815 -49.98916,-33.98197 -82.06502,-33.98197 -32.07587,0 -61.03638,12.97382 -82.06503,33.98197 -21.00815,21.02865 -33.98197,49.98916 -33.98197,82.06503 m -20.49576,0 c 0.0164,-75.4039 61.13885,-136.54276 136.54276,-136.54276 75.4244,0 136.54275,61.13886 136.54275,136.54276 0,75.4244 -61.11835,136.52226 -136.54275,136.54276 C 244.93135,406.93137 183.813,345.82941 183.7925,270.40501"
       id="path111317" />
    <path
       d="m 276.5973,451.52605 c -2.78742,3.58675 -6.41517,4.95997 -9.91994,4.95997 -11.17019,0 -17.74933,-8.34177 -17.74933,-18.77412 0,-10.71928 6.57914,-19.06105 17.74933,-19.06105 7.39897,0 14.36752,4.55005 15.22835,12.74836 l -7.58344,0 c -0.92312,-3.99667 -3.89419,-6.08724 -7.64491,-6.08724 -7.13253,0 -9.81747,6.08724 -9.81747,12.39993 0,6.02576 2.68494,12.0925 9.81747,12.0925 5.16493,0 8.15731,-2.78742 8.60822,-7.78839 l -7.99335,0 0,-5.92327 15.16686,0 0,19.53246 -5.06245,0"
       id="path111329" />
    <path
       d="m 287.86997,419.49117 7.95236,0 0,29.45241 17.58536,0 0,6.66112 -25.53772,0"
       id="path111333" />
    <path
       d="m 316.87147,455.6047 7.95269,0 0,-36.11353 -7.95269,0 0,36.11353 z"
       id="path111335" />
    <path
       d="m 339.76524,426.17279 -10.82176,0 0,-6.68162 29.59587,0 0,6.68162 -10.84225,0 0,29.45241 -7.93186,0"
       id="path111339" />
    <path
       d="m 360.36348,449.3535 19.36849,-23.18071 -17.85181,0 0,-6.66112 28.42762,0 0,6.2717 -19.36849,23.16021 19.88089,0 0,6.68162 -30.4567,0"
       id="path111343" />
    <path
       d="m 486.4124,219.08363 32.15785,0 0,43.43051 41.27846,0 0,-43.43051 32.13736,0 0,116.0265 -32.13736,0 0,-44.08639 -41.27846,0 0,44.08639 -32.15785,0"
       id="path111347" />
    <path
       d="m 650.317,306.60052 c 19.22503,0 31.99388,-10.6168 31.99388,-29.32943 l 0,-0.32793 c 0,-18.56916 -12.76885,-29.34993 -31.99388,-29.34993 l -13.09679,0 0,59.00729 13.09679,0 z m -45.25464,-87.51689 44.76274,0 c 41.42194,0 65.46346,23.87756 65.46346,57.34713 l 0,0.32794 c 0,33.49007 -24.36946,58.35143 -66.13982,58.35143 l -44.08638,0"
       id="path111351" />
  </g>
</svg>
