<?xml version="1.0" encoding="UTF-8" standalone="no"?>
<!-- Created with Inkscape (http://www.inkscape.org/) -->

<svg
   xmlns="http://www.w3.org/2000/svg"
   version="1.0"
   width="100%"
   height="100%"
   viewBox="0 0 37 22"
   id="svg2">
  <path
     d="M 9.2880995,0 C 4.1578775,4.58e-4 4.560336e-4,4.157877 0,9.288101 4.560336e-4,14.418131 4.1578775,18.575858 9.2880995,18.576197 14.418322,18.575858 18.57942,14.418131 18.579762,9.288101 18.579322,4.157916 14.418322,4.58e-4 9.2880995,0 z m 0,1.393036 c 2.1821565,3.43e-4 4.1520645,0.882477 5.5828355,2.312226 1.429713,1.430783 2.311999,3.400492 2.312227,5.582839 -2.28e-4,2.182153 -0.882552,4.151941 -2.312227,5.582834 -1.43074,1.42956 -3.400679,2.311998 -5.5828355,2.312227 C 7.1058288,17.182933 5.1396814,16.300495 3.7088269,14.870935 2.2792277,13.440042 1.3969416,11.470254 1.3965996,9.288101 1.3969416,7.105754 2.2792277,5.136045 3.7088269,3.705262 5.1396814,2.275513 7.1058288,1.393379 9.2880995,1.393036 z m 11.3010555,4.328746 0,7.895065 2.240972,0 0,-2.946398 2.757572,0 0,2.946398 2.240972,0 0,-7.895065 -2.240972,0 0,2.946398 -2.757572,0 0,-2.946398 z m 8.087452,0 0,7.895065 3.58413,0 c 2.186653,0 3.947531,-1.76088 3.947531,-3.947535 0,-2.18665 -1.760878,-3.94753 -3.947531,-3.94753 z m -25.9796023,1.63174 0.00356,1.075954 1.3930368,0 -0.00713,3.644696 1.1935224,0 0.00712,-3.644696 1.4429158,0 -0.00712,-1.075954 -4.0259118,0 z m 4.5603249,0 0,4.72065 1.1293934,0 0.014252,-2.757572 1.653117,2.757572 1.225588,0 0,-4.72065 -1.136518,0 0.04631,2.928587 -1.6958702,-2.928587 z m 4.5995154,0 0.0071,1.075954 1.393036,0 -0.0071,3.644696 1.193523,0 0.0036,-3.644696 1.446478,0 -0.0071,-1.075954 -4.029475,0 z m 18.993041,0.306398 1.140082,0 c 1.11306,0 2.009393,0.896333 2.009393,2.009392 0,1.113064 -0.896333,2.009397 -2.009393,2.009397 l -1.140082,0 z M 5.2301229,19.399195 c -0.1113882,0 -0.2199855,0.0161 -0.3313363,0.04631 -0.1114269,0.03018 -0.211126,0.07629 -0.2992712,0.138947 -0.088182,0.0627 -0.1592888,0.141333 -0.2137653,0.235145 -0.054553,0.09408 -0.081943,0.203702 -0.081943,0.331333 0,0.113674 0.021218,0.212181 0.06413,0.292147 0.04295,0.07985 0.097831,0.14637 0.1674494,0.199514 0.069657,0.05341 0.1469587,0.09471 0.2351417,0.12826 0.088144,0.03384 0.1814701,0.06226 0.2743321,0.0855 0.090503,0.02548 0.1789858,0.0506 0.2672067,0.07126 0.088183,0.02094 0.1655615,0.04347 0.2351417,0.07125 0.069618,0.02776 0.1280242,0.06527 0.1710122,0.106881 0.042948,0.04198 0.06413,0.09651 0.06413,0.163887 0,0.06269 -0.017428,0.112798 -0.049879,0.153199 -0.032485,0.04066 -0.072363,0.07284 -0.1211333,0.0962 -0.04877,0.02306 -0.1010671,0.03815 -0.1567614,0.04631 -0.055694,0.0081 -0.1079906,0.01069 -0.156761,0.01069 -0.071938,0 -0.142868,-0.0076 -0.2102026,-0.02495 -0.067298,-0.0176 -0.1247008,-0.04228 -0.1745748,-0.07838 C 4.863126,21.436765 4.8219565,21.388026 4.791904,21.330201 4.761698,21.271958 4.7491492,21.203349 4.7491492,21.12 l -0.5308503,0 c -0.00236,0.15297 0.027416,0.284077 0.085506,0.395468 0.057977,0.111386 0.1364598,0.202391 0.2351417,0.274331 0.098568,0.07205 0.2096873,0.123209 0.3384617,0.156759 C 5.0061818,21.980394 5.1395599,22 5.2764369,22 c 0.1693269,0 0.3201334,-0.02099 0.4489069,-0.06057 0.1287744,-0.03929 0.2372075,-0.09305 0.3242105,-0.163887 0.086966,-0.07103 0.1519355,-0.155377 0.1959518,-0.252956 0.044129,-0.09743 0.064129,-0.203302 0.064129,-0.317086 0,-0.139198 -0.029916,-0.25289 -0.089069,-0.342025 -0.059194,-0.08936 -0.1289807,-0.160314 -0.210202,-0.213765 -0.081258,-0.05353 -0.1634297,-0.0933 -0.2458302,-0.117568 -0.082362,-0.02442 -0.1459771,-0.04074 -0.1923887,-0.04988 -0.1555176,-0.0396 -0.2814042,-0.07438 -0.377652,-0.09976 -0.096323,-0.02565 -0.1700147,-0.04944 -0.2244537,-0.07482 -0.054591,-0.02574 -0.091919,-0.05545 -0.1104453,-0.08551 -0.018603,-0.03023 -0.028503,-0.06914 -0.028503,-0.117568 0,-0.05356 0.012456,-0.09694 0.035627,-0.131824 0.023206,-0.03476 0.05308,-0.06215 0.089069,-0.0855 0.035948,-0.0231 0.073404,-0.04048 0.1175706,-0.04988 0.044054,-0.0092 0.091293,-0.01426 0.1353849,-0.01426 0.067298,0 0.1284655,0.0063 0.1852629,0.01782 0.056874,0.01184 0.1055455,0.03274 0.1496361,0.06057 0.044054,0.02776 0.080138,0.06554 0.1068826,0.114008 0.026589,0.0487 0.041642,0.111043 0.046316,0.185262 l 0.5308503,0 c 0,-0.143875 -0.027504,-0.266072 -0.081943,-0.366964 C 6.091155,19.732918 6.0176415,19.649542 5.9248561,19.584453 5.8319941,19.519513 5.7237374,19.471082 5.6042078,19.441941 5.4846783,19.413209 5.359996,19.399173 5.230119,19.399173 z m 1.403725,0.06057 0,2.483241 1.8882595,0 0,-0.459597 -1.3395954,0 0,-0.609229 1.2006483,0 0,-0.42397 -1.2006483,0 0,-0.534411 1.3110936,0 0,-0.456034 z m 2.2552231,0 0,2.483241 0.5486641,0 0,-0.969069 0.5451015,0 c 0.1368394,0 0.2354494,0.02869 0.2957084,0.08907 0.0603,0.06026 0.09897,0.154951 0.117571,0.285019 0.014,0.09982 0.02515,0.204415 0.03206,0.313522 0.007,0.108957 0.02672,0.202827 0.057,0.281459 l 0.545101,0 c -0.02542,-0.03463 -0.0443,-0.07846 -0.057,-0.12826 -0.01286,-0.0498 -0.02276,-0.101217 -0.0285,-0.156763 -0.0059,-0.05584 -0.0083,-0.110625 -0.01068,-0.163882 -0.0022,-0.05342 -0.0049,-0.09935 -0.0071,-0.138948 -0.0047,-0.06254 -0.01568,-0.126135 -0.0285,-0.188826 -0.01271,-0.06266 -0.03276,-0.118932 -0.06057,-0.171015 -0.02777,-0.05219 -0.06287,-0.09715 -0.106883,-0.135383 -0.04405,-0.03824 -0.10019,-0.06687 -0.167449,-0.0855 l 0,-0.0071 c 0.139197,-0.05554 0.241509,-0.139159 0.302834,-0.245828 0.06163,-0.106709 0.08907,-0.231647 0.08907,-0.377652 0,-0.09515 -0.01633,-0.184963 -0.04988,-0.267208 -0.03382,-0.0824 -0.08224,-0.154673 -0.146072,-0.217329 -0.06384,-0.06254 -0.138769,-0.110123 -0.228017,-0.146071 -0.08936,-0.03599 -0.191408,-0.05344 -0.302834,-0.05344 l -1.3395954,0 z m 2.511742,0 0,2.483241 0.548664,0 0,-2.483241 z m 1.029635,0 0,2.483241 1.884697,0 0,-0.459597 -1.339595,0 0,-0.609229 1.204211,0 0,-0.42397 -1.204211,0 0,-0.534411 1.311093,0 0,-0.456034 z m -2.9927129,0.423971 0.5985429,0 c 0.125387,0 0.218802,0.02746 0.281458,0.08194 0.06266,0.05448 0.09263,0.139564 0.09263,0.26008 0,0.125351 -0.02998,0.218755 -0.09263,0.274335 -0.06266,0.05569 -0.156032,0.08194 -0.281458,0.08194 l -0.5985429,0 z"
     id="polygon2391"
     style="fill:#9c1f23" />
</svg>
