<?xml version="1.0" encoding="UTF-8" standalone="no"?>
<!-- Created with Inkscape (http://www.inkscape.org/) -->

<svg
   xmlns="http://www.w3.org/2000/svg"
   version="1.0"
   width="100%"
   height="100%"
   viewBox="0 0 39 22"
   id="svg6398">
  <defs
     id="defs6400" />
  <path
     d="m 20.540023,22 -0.0019,-22 -17.0526772,1.794817 0,18.419051 L 20.540017,22 z"
     style="fill:#684e33"
     id="path22009" />
  <path
     d="m 21.903504,21.979738 17.050749,-1.789995 0,-18.375627 -17.050749,-1.785168 0,21.95079 z"
     style="fill:#bfdcde"
     id="path22011" />
  <path
     d="m 18.683451,8.221413 0,-0.02895 -1.609544,0.03859 0.0019,10.696523 2.010965,0.211324 0,-7.475504 1.453221,-8.8e-4 0,-1.636562 c -1.040221,0.02895 -1.785165,-0.376332 -1.856572,-1.804466"
     style="fill:#f8e5cf"
     id="path22013" />
  <path
     d="m 12.949691,12.895652 c 0,-1.084609 0.413,-2.107459 1.368305,-2.107459 1.416554,0 1.293039,1.404009 1.293039,2.786788 l 0,5.19435 0.865564,0.09167 0,-10.629943 C 16.1572,8.124913 15.785692,8.067018 15.350497,8.067018 14.407737,8.086338 13.362691,8.742484 12.97864,9.755689 l -0.02895,0 0,-5.423048 -2.010001,0.212291 0,13.736131 2.010001,0.21036 0,-5.595775"
     style="fill:#88cfe3"
     id="path22015" />
  <path
     d="m 8.884337,18.071671 1.508225,-6.418878 0,-7.049957 -0.8626702,0.08684 -1.8208696,8.964428 -0.6773976,-3.570331 C 6.6417828,9.408309 6.0801787,8.665294 5.182771,8.231062 4.7514364,8.018771 4.5922188,7.931928 3.786482,7.748585 l 2.2386945,10.024916 2.8591605,0.29817"
     style="fill:#f2ef99"
     id="path22017" />
  <path
     d="M 6.4169481,6.426596 C 6.1786041,5.934469 5.8312206,5.017764 5.0746964,4.400194 4.8045087,4.178253 4.482214,3.994914 4.0943025,3.879119 2.2522038,3.155403 0.64169468,3.425589 0,0.810564 l 0.92249652,4.21685 C 1.4387472,6.802928 2.2657136,7.015219 3.383131,7.333656 l 0.1331633,0.03859 C 4.0045614,7.507339 5.2155796,7.941571 5.2155796,7.941571 5.9962276,8.279306 6.5124783,8.761779 6.993026,9.543395 L 6.4169481,6.426587"
     style="fill:#bfdcde"
     id="path22019" />
</svg>
