<?xml version="1.0" encoding="utf-8"?>
<!-- Generator: Adobe Illustrator 15.0.0, SVG Export Plug-In . SVG Version: 6.00 Build 0)  -->
<!DOCTYPE svg PUBLIC "-//W3C//DTD SVG 1.1//EN" "http://www.w3.org/Graphics/SVG/1.1/DTD/svg11.dtd">
<svg version="1.1"
	 id="svg2" inkscape:version="0.45.1" inkscape:output_extension="org.inkscape.output.svg.inkscape" sodipodi:version="0.32" xmlns:dc="http://purl.org/dc/elements/1.1/" xmlns:cc="http://web.resource.org/cc/" xmlns:rdf="http://www.w3.org/1999/02/22-rdf-syntax-ns#" xmlns:svg="http://www.w3.org/2000/svg" xmlns:sodipodi="http://sodipodi.sourceforge.net/DTD/sodipodi-0.dtd" xmlns:inkscape="http://www.inkscape.org/namespaces/inkscape"
	 xmlns="http://www.w3.org/2000/svg" xmlns:xlink="http://www.w3.org/1999/xlink" x="0px" y="0px" width="110.6px" height="28px"
	 viewBox="146.2 37 110.6 28" style="enable-background:new 146.2 37 110.6 28;" xml:space="preserve">
<style type="text/css">
<![CDATA[
	.st0{fill:#B6B6B6;}
	.st1{fill:#FFFFFF;}
	.st2{fill:#636363;}
	.st3{fill:#A0002F;}
]]>
</style>
<g>
	<path id="path4607" class="st3" d="M162.9,64.8h16.2V37.2h-27.5v17.7L162.9,64.8z"/>
	<path id="path4609" class="st3" d="M146.2,53.1l0.1,9.8l11,0L146.2,53.1z"/>
	<path id="path4611" class="st1" d="M176,62.5H173V51.2h3.1V62.5z M173,46.9h3.1v2.6H173V46.9z"/>
	<path id="path4613" class="st1" d="M166.6,53.4c-0.5,0-0.9,0.1-1.2,0.3c-0.3,0.2-0.6,0.5-0.8,0.8s-0.3,0.7-0.4,1.1
		c-0.1,0.4-0.1,0.8-0.1,1.2c0,0.4,0,0.8,0.1,1.2c0.1,0.4,0.2,0.8,0.4,1.1c0.2,0.3,0.4,0.6,0.8,0.8s0.7,0.3,1.2,0.3
		c0.7,0,1.2-0.2,1.6-0.6c0.4-0.4,0.6-0.9,0.7-1.6h2.8c-0.2,1.4-0.7,2.5-1.7,3.3c-0.9,0.8-2.1,1.1-3.5,1.1c-0.8,0-1.5-0.1-2.2-0.4
		c-0.7-0.3-1.2-0.7-1.7-1.1c-0.5-0.5-0.8-1.1-1.1-1.7c-0.3-0.7-0.4-1.4-0.4-2.2c0-0.8,0.1-1.6,0.4-2.3c0.2-0.7,0.6-1.3,1.1-1.9
		c0.5-0.5,1-0.9,1.7-1.2c0.7-0.3,1.5-0.4,2.3-0.4c0.6,0,1.2,0.1,1.8,0.3c0.6,0.2,1.1,0.4,1.6,0.8c0.5,0.3,0.8,0.8,1.1,1.3
		c0.3,0.5,0.5,1.1,0.5,1.8h-2.9C168.6,54,167.8,53.4,166.6,53.4"/>
	<path id="path4615" class="st2" d="M184.2,40.4c-0.3,0-0.5,0.1-0.7,0.2c-0.2,0.1-0.3,0.3-0.4,0.5s-0.2,0.4-0.2,0.6
		c0,0.2-0.1,0.5-0.1,0.7c0,0.2,0,0.4,0.1,0.7c0,0.2,0.1,0.4,0.2,0.6c0.1,0.2,0.2,0.3,0.4,0.5c0.2,0.1,0.4,0.2,0.7,0.2
		c0.4,0,0.7-0.1,0.9-0.3c0.2-0.2,0.3-0.5,0.4-0.9h1.6c-0.1,0.8-0.4,1.4-0.9,1.9c-0.5,0.4-1.2,0.6-2,0.6c-0.5,0-0.9-0.1-1.2-0.2
		c-0.4-0.2-0.7-0.4-1-0.6c-0.3-0.3-0.5-0.6-0.6-1c-0.1-0.4-0.2-0.8-0.2-1.3c0-0.5,0.1-0.9,0.2-1.3s0.3-0.8,0.6-1.1
		c0.3-0.3,0.6-0.5,1-0.7c0.4-0.2,0.8-0.2,1.3-0.2c0.4,0,0.7,0,1,0.1c0.3,0.1,0.6,0.2,0.9,0.4c0.3,0.2,0.5,0.4,0.6,0.7
		c0.2,0.3,0.3,0.6,0.3,1h-1.6C185.4,40.8,184.9,40.4,184.2,40.4"/>
	<path id="path4617" class="st2" d="M189.4,39.3v1.1h0c0.1-0.2,0.2-0.4,0.3-0.5c0.1-0.2,0.3-0.3,0.5-0.4c0.2-0.1,0.4-0.2,0.6-0.3
		c0.2-0.1,0.4-0.1,0.6-0.1c0.1,0,0.2,0,0.4,0.1v1.6c-0.1,0-0.2,0-0.3,0c-0.1,0-0.2,0-0.3,0c-0.3,0-0.6,0.1-0.8,0.2
		c-0.2,0.1-0.4,0.2-0.5,0.4c-0.1,0.2-0.2,0.4-0.3,0.6c-0.1,0.2-0.1,0.5-0.1,0.8v2.8h-1.7v-6.1H189.4"/>
	<path id="path4619" class="st2" d="M194.1,45.4h-1.7v-6.1h1.7V45.4z M192.4,37h1.7v1.4h-1.7V37z"/>
	<path id="path4621" class="st2" d="M196.8,39.3v0.8h0c0.2-0.3,0.5-0.6,0.8-0.7s0.7-0.3,1.1-0.3c0.4,0,0.7,0.1,1.1,0.2
		c0.3,0.2,0.6,0.4,0.7,0.8c0.2-0.3,0.4-0.5,0.7-0.7c0.3-0.2,0.7-0.3,1.1-0.3c0.3,0,0.6,0,0.9,0.1s0.5,0.2,0.7,0.4
		c0.2,0.2,0.3,0.4,0.5,0.7s0.2,0.6,0.2,1v4.1h-1.7V42c0-0.2,0-0.4,0-0.6s-0.1-0.3-0.1-0.5c-0.1-0.1-0.2-0.2-0.3-0.3
		c-0.1-0.1-0.3-0.1-0.6-0.1c-0.2,0-0.4,0-0.6,0.1c-0.1,0.1-0.3,0.2-0.3,0.4c-0.1,0.1-0.1,0.3-0.2,0.5c0,0.2,0,0.4,0,0.6v3.4H199V42
		c0-0.2,0-0.4,0-0.5c0-0.2,0-0.3-0.1-0.5s-0.2-0.3-0.3-0.4c-0.1-0.1-0.3-0.1-0.6-0.1c-0.1,0-0.2,0-0.3,0.1c-0.1,0-0.3,0.1-0.4,0.2
		c-0.1,0.1-0.2,0.2-0.3,0.4c-0.1,0.2-0.1,0.4-0.1,0.7v3.5h-1.7v-6.1H196.8"/>
	<path id="path4623" class="st2" d="M208.7,40.8c-0.2-0.2-0.5-0.3-0.9-0.3c-0.3,0-0.5,0-0.7,0.1c-0.2,0.1-0.3,0.2-0.4,0.3
		c-0.1,0.1-0.2,0.3-0.2,0.4s-0.1,0.3-0.1,0.4h2.7C209.1,41.3,208.9,41,208.7,40.8 M206.9,44c0.3,0.2,0.6,0.4,1.1,0.4
		c0.3,0,0.6-0.1,0.9-0.3c0.2-0.2,0.4-0.3,0.4-0.5h1.5c-0.2,0.7-0.6,1.3-1.1,1.6c-0.5,0.3-1.1,0.5-1.8,0.5c-0.5,0-0.9-0.1-1.3-0.2
		c-0.4-0.2-0.7-0.4-1-0.7c-0.3-0.3-0.5-0.6-0.6-1c-0.1-0.4-0.2-0.8-0.2-1.3c0-0.5,0.1-0.9,0.2-1.3c0.1-0.4,0.4-0.7,0.6-1
		c0.3-0.3,0.6-0.5,1-0.7c0.4-0.2,0.8-0.2,1.3-0.2c0.5,0,1,0.1,1.3,0.3c0.4,0.2,0.7,0.5,0.9,0.8c0.2,0.3,0.4,0.7,0.5,1.2
		c0.1,0.4,0.1,0.9,0.1,1.4h-4.4C206.5,43.3,206.6,43.7,206.9,44"/>
	<path id="path4625" class="st0" d="M184.9,49.1c-0.2-0.2-0.3-0.2-0.5-0.2s-0.4,0.1-0.5,0.2c-0.1,0.1-0.2,0.3-0.2,0.5
		c0,0.3,0.1,0.5,0.2,0.7c0.1,0.2,0.3,0.4,0.4,0.6c0.2-0.1,0.4-0.3,0.6-0.5c0.2-0.2,0.2-0.4,0.2-0.7
		C185.2,49.4,185.1,49.2,184.9,49.1 M183.4,52.8c-0.1,0.1-0.3,0.2-0.4,0.3c-0.1,0.1-0.2,0.2-0.3,0.4c-0.1,0.1-0.1,0.3-0.1,0.5
		c0,0.2,0,0.3,0.1,0.4c0.1,0.1,0.2,0.3,0.3,0.4s0.2,0.2,0.4,0.2s0.3,0.1,0.5,0.1c0.3,0,0.6-0.1,0.8-0.2c0.2-0.1,0.4-0.3,0.6-0.5
		l-1.4-1.8C183.7,52.6,183.5,52.7,183.4,52.8 M185.1,56.2c-0.4,0.2-0.8,0.2-1.3,0.2c-0.4,0-0.7-0.1-1.1-0.2
		c-0.3-0.1-0.6-0.3-0.9-0.5c-0.2-0.2-0.4-0.5-0.6-0.8c-0.1-0.3-0.2-0.7-0.2-1.1c0-0.3,0.1-0.6,0.2-0.8c0.1-0.2,0.2-0.5,0.4-0.7
		c0.2-0.2,0.4-0.4,0.6-0.5c0.2-0.2,0.5-0.3,0.7-0.4c-0.2-0.3-0.4-0.6-0.6-0.8c-0.2-0.3-0.2-0.6-0.2-1c0-0.3,0.1-0.6,0.2-0.8
		c0.1-0.2,0.3-0.4,0.5-0.6c0.2-0.2,0.4-0.3,0.7-0.4c0.3-0.1,0.5-0.1,0.8-0.1c0.3,0,0.6,0,0.9,0.1c0.3,0.1,0.5,0.2,0.7,0.4
		c0.2,0.2,0.4,0.4,0.5,0.6c0.1,0.3,0.2,0.5,0.2,0.9c0,0.5-0.1,0.9-0.4,1.3c-0.3,0.3-0.6,0.6-1.1,0.9l1.1,1.3
		c0.1-0.2,0.2-0.3,0.2-0.5c0-0.2,0.1-0.3,0.1-0.5h1.4c0,0.4-0.1,0.7-0.3,1.1c-0.1,0.4-0.3,0.7-0.6,1l1.7,2h-2l-0.7-0.8
		C185.8,55.7,185.4,56,185.1,56.2"/>
	<path id="path4627" class="st2" d="M191.1,56.3h-1.7v-6.1h1.7V56.3z M189.4,47.8h1.7v1.4h-1.7V47.8z"/>
	<path id="path4629" class="st2" d="M193.9,50.1V51h0c0.2-0.4,0.5-0.6,0.8-0.8c0.3-0.2,0.7-0.2,1-0.2c0.4,0,0.8,0.1,1.1,0.2
		c0.3,0.1,0.5,0.3,0.7,0.5c0.2,0.2,0.3,0.5,0.3,0.8c0.1,0.3,0.1,0.7,0.1,1v3.8h-1.7v-3.5c0-0.5-0.1-0.9-0.2-1.1
		c-0.2-0.2-0.4-0.4-0.8-0.4c-0.5,0-0.8,0.1-1,0.4c-0.2,0.3-0.3,0.7-0.3,1.3v3.2h-1.7v-6.1H193.9"/>
	<path id="path4631" class="st2" d="M200.3,56.3l-2.1-6.1h1.7l1.3,4.2h0l1.3-4.2h1.7l-2.1,6.1H200.3z"/>
	<path id="path4633" class="st2" d="M207.9,51.6c-0.2-0.2-0.5-0.3-0.9-0.3c-0.3,0-0.5,0-0.7,0.1c-0.2,0.1-0.3,0.2-0.4,0.3
		s-0.2,0.3-0.2,0.4c0,0.1-0.1,0.3-0.1,0.4h2.7C208.2,52.1,208.1,51.8,207.9,51.6 M206,54.8c0.3,0.2,0.6,0.4,1.1,0.4
		c0.3,0,0.6-0.1,0.9-0.3c0.2-0.2,0.4-0.3,0.4-0.5h1.5c-0.2,0.7-0.6,1.3-1.1,1.6c-0.5,0.3-1.1,0.5-1.8,0.5c-0.5,0-0.9-0.1-1.3-0.2
		c-0.4-0.2-0.7-0.4-1-0.7c-0.3-0.3-0.5-0.6-0.6-1s-0.2-0.8-0.2-1.3c0-0.5,0.1-0.9,0.2-1.3c0.1-0.4,0.4-0.7,0.6-1
		c0.3-0.3,0.6-0.5,1-0.7c0.4-0.2,0.8-0.2,1.3-0.2c0.5,0,1,0.1,1.3,0.3c0.4,0.2,0.7,0.5,0.9,0.8c0.2,0.3,0.4,0.7,0.5,1.2
		c0.1,0.4,0.1,0.9,0.1,1.4h-4.4C205.6,54.2,205.8,54.5,206,54.8"/>
	<path id="path4635" class="st2" d="M212.3,54.7c0.1,0.1,0.2,0.2,0.3,0.3c0.1,0.1,0.3,0.1,0.4,0.2c0.2,0,0.3,0.1,0.5,0.1
		c0.1,0,0.2,0,0.4,0c0.1,0,0.2-0.1,0.4-0.1c0.1-0.1,0.2-0.1,0.3-0.2c0.1-0.1,0.1-0.2,0.1-0.4c0-0.3-0.2-0.4-0.5-0.6
		c-0.3-0.1-0.8-0.3-1.4-0.4c-0.2-0.1-0.5-0.1-0.7-0.2c-0.2-0.1-0.4-0.2-0.6-0.3s-0.3-0.3-0.4-0.5c-0.1-0.2-0.2-0.4-0.2-0.7
		c0-0.4,0.1-0.7,0.2-1c0.2-0.3,0.4-0.5,0.6-0.6c0.2-0.1,0.5-0.2,0.8-0.3c0.3-0.1,0.6-0.1,1-0.1c0.3,0,0.6,0,1,0.1
		c0.3,0.1,0.6,0.2,0.8,0.3c0.2,0.1,0.4,0.3,0.6,0.6c0.2,0.2,0.3,0.6,0.3,0.9h-1.6c0-0.3-0.1-0.5-0.4-0.7c-0.2-0.1-0.5-0.2-0.8-0.2
		c-0.1,0-0.2,0-0.3,0c-0.1,0-0.2,0-0.3,0.1c-0.1,0-0.2,0.1-0.2,0.2c-0.1,0.1-0.1,0.2-0.1,0.3c0,0.1,0.1,0.3,0.2,0.4
		c0.1,0.1,0.3,0.2,0.4,0.2c0.2,0.1,0.4,0.1,0.6,0.2c0.2,0,0.5,0.1,0.7,0.2c0.2,0.1,0.5,0.1,0.7,0.2c0.2,0.1,0.4,0.2,0.6,0.3
		c0.2,0.1,0.3,0.3,0.4,0.5c0.1,0.2,0.2,0.4,0.2,0.7c0,0.4-0.1,0.7-0.2,1c-0.2,0.3-0.4,0.5-0.6,0.7c-0.3,0.2-0.6,0.3-0.9,0.3
		c-0.3,0.1-0.7,0.1-1,0.1c-0.4,0-0.7,0-1-0.1c-0.3-0.1-0.6-0.2-0.9-0.4c-0.3-0.2-0.5-0.4-0.6-0.7c-0.2-0.3-0.3-0.6-0.3-1h1.6
		C212.2,54.5,212.3,54.6,212.3,54.7"/>
	<path id="path4637" class="st2" d="M220.6,50.1v1.1h-1.2v3c0,0.3,0,0.5,0.1,0.6c0.1,0.1,0.3,0.1,0.6,0.1c0.1,0,0.2,0,0.3,0
		s0.2,0,0.2,0v1.3c-0.1,0-0.3,0-0.5,0c-0.2,0-0.3,0-0.5,0c-0.3,0-0.5,0-0.7-0.1c-0.2,0-0.4-0.1-0.6-0.2c-0.2-0.1-0.3-0.2-0.4-0.4
		c-0.1-0.2-0.2-0.4-0.2-0.7v-3.6h-1v-1.1h1v-1.8h1.7v1.8H220.6"/>
	<path id="path4639" class="st2" d="M223.1,56.3h-1.7v-6.1h1.7V56.3z M221.4,47.8h1.7v1.4h-1.7V47.8z"/>
	<path id="path4641" class="st2" d="M227.8,54.7c0.2-0.1,0.3-0.2,0.4-0.4c0.1-0.2,0.2-0.3,0.3-0.5c0.1-0.2,0.1-0.4,0.1-0.6
		c0-0.3,0-0.5-0.1-0.7c0-0.2-0.1-0.4-0.2-0.6c-0.1-0.2-0.3-0.3-0.4-0.4c-0.2-0.1-0.4-0.2-0.7-0.2c-0.2,0-0.4,0-0.6,0.1
		c-0.2,0.1-0.3,0.2-0.4,0.4c-0.1,0.2-0.2,0.3-0.2,0.6c-0.1,0.2-0.1,0.4-0.1,0.7c0,0.2,0,0.4,0.1,0.7c0,0.2,0.1,0.4,0.2,0.6
		c0.1,0.2,0.2,0.3,0.4,0.4c0.2,0.1,0.4,0.2,0.6,0.2C227.4,54.8,227.6,54.8,227.8,54.7 M230.1,56.7c-0.1,0.3-0.2,0.6-0.4,0.9
		s-0.5,0.5-0.9,0.7c-0.4,0.2-1,0.3-1.7,0.3c-0.3,0-0.6,0-0.9-0.1c-0.3-0.1-0.6-0.2-0.8-0.3c-0.3-0.2-0.5-0.4-0.6-0.6
		c-0.2-0.2-0.3-0.5-0.3-0.9h1.7c0.1,0.3,0.2,0.5,0.5,0.7c0.2,0.1,0.5,0.2,0.8,0.2c0.5,0,0.8-0.1,1-0.4c0.2-0.3,0.3-0.6,0.3-1.1v-0.8
		h0c-0.2,0.3-0.4,0.6-0.8,0.7c-0.3,0.2-0.7,0.2-1,0.2c-0.5,0-0.8-0.1-1.2-0.2c-0.3-0.2-0.6-0.4-0.8-0.7c-0.2-0.3-0.4-0.6-0.5-1
		c-0.1-0.4-0.1-0.8-0.1-1.2c0-0.4,0.1-0.8,0.2-1.1c0.1-0.4,0.3-0.7,0.5-1c0.2-0.3,0.5-0.5,0.8-0.7c0.3-0.2,0.7-0.2,1.1-0.2
		c0.4,0,0.7,0.1,1,0.2s0.6,0.4,0.8,0.8h0v-0.8h1.6v5.7C230.2,56.1,230.2,56.4,230.1,56.7"/>
	<path id="path4643" class="st2" d="M234.6,53.4c-0.1,0-0.2,0.1-0.3,0.1c-0.1,0-0.2,0-0.4,0.1c-0.1,0-0.3,0-0.4,0.1
		c-0.1,0-0.2,0.1-0.4,0.1c-0.1,0-0.2,0.1-0.3,0.2c-0.1,0.1-0.2,0.2-0.2,0.3c-0.1,0.1-0.1,0.2-0.1,0.4c0,0.2,0,0.3,0.1,0.4
		c0.1,0.1,0.1,0.2,0.2,0.2s0.2,0.1,0.3,0.1c0.1,0,0.3,0,0.4,0c0.3,0,0.6-0.1,0.8-0.2c0.2-0.1,0.3-0.2,0.4-0.4
		c0.1-0.2,0.1-0.3,0.2-0.5c0-0.2,0-0.3,0-0.4v-0.6C234.8,53.3,234.7,53.4,234.6,53.4 M231.3,51c0.2-0.3,0.4-0.5,0.7-0.6
		c0.3-0.2,0.6-0.3,0.9-0.3c0.3-0.1,0.7-0.1,1-0.1c0.3,0,0.6,0,0.9,0.1c0.3,0,0.6,0.1,0.9,0.3c0.3,0.1,0.5,0.3,0.6,0.5
		c0.2,0.2,0.2,0.5,0.2,0.9v3.2c0,0.3,0,0.5,0,0.8c0,0.3,0.1,0.4,0.2,0.6H235c0-0.1-0.1-0.2-0.1-0.3c0-0.1,0-0.2,0-0.3
		c-0.3,0.3-0.6,0.5-0.9,0.6c-0.4,0.1-0.7,0.2-1.1,0.2c-0.3,0-0.6,0-0.8-0.1s-0.5-0.2-0.7-0.3c-0.2-0.1-0.3-0.3-0.4-0.6
		c-0.1-0.2-0.2-0.5-0.2-0.8c0-0.3,0.1-0.6,0.2-0.9c0.1-0.2,0.3-0.4,0.5-0.5c0.2-0.1,0.4-0.2,0.7-0.3s0.5-0.1,0.7-0.2
		c0.2,0,0.5-0.1,0.7-0.1c0.2,0,0.5-0.1,0.6-0.1c0.2,0,0.3-0.1,0.4-0.2s0.2-0.2,0.2-0.4c0-0.2,0-0.3-0.1-0.4
		c-0.1-0.1-0.1-0.2-0.2-0.2c-0.1-0.1-0.2-0.1-0.3-0.1c-0.1,0-0.3,0-0.4,0c-0.3,0-0.6,0.1-0.8,0.2c-0.2,0.1-0.3,0.4-0.3,0.7H231
		C231,51.6,231.1,51.3,231.3,51"/>
	<path id="path4645" class="st2" d="M240.9,50.1v1.1h-1.2v3c0,0.3,0,0.5,0.1,0.6c0.1,0.1,0.3,0.1,0.6,0.1c0.1,0,0.2,0,0.3,0
		c0.1,0,0.2,0,0.2,0v1.3c-0.1,0-0.3,0-0.5,0c-0.2,0-0.3,0-0.5,0c-0.3,0-0.5,0-0.7-0.1s-0.4-0.1-0.6-0.2c-0.2-0.1-0.3-0.2-0.4-0.4
		c-0.1-0.2-0.2-0.4-0.2-0.7v-3.6h-1v-1.1h1v-1.8h1.7v1.8H240.9"/>
	<path id="path4647" class="st2" d="M243.4,56.3h-1.7v-6.1h1.7V56.3z M241.7,47.8h1.7v1.4h-1.7V47.8z"/>
	<path id="path4649" class="st2" d="M246,53.9c0,0.2,0.1,0.4,0.2,0.6c0.1,0.2,0.3,0.3,0.4,0.4c0.2,0.1,0.4,0.2,0.7,0.2
		c0.3,0,0.5-0.1,0.7-0.2c0.2-0.1,0.3-0.3,0.5-0.4c0.1-0.2,0.2-0.4,0.2-0.6c0-0.2,0.1-0.5,0.1-0.7c0-0.2,0-0.5-0.1-0.7
		c0-0.2-0.1-0.4-0.2-0.6c-0.1-0.2-0.3-0.3-0.5-0.4c-0.2-0.1-0.4-0.2-0.7-0.2c-0.3,0-0.5,0.1-0.7,0.2c-0.2,0.1-0.3,0.3-0.4,0.4
		c-0.1,0.2-0.2,0.4-0.2,0.6c0,0.2-0.1,0.5-0.1,0.7C245.9,53.5,246,53.7,246,53.9 M244.5,51.9c0.1-0.4,0.4-0.7,0.6-1
		c0.3-0.3,0.6-0.5,1-0.7c0.4-0.2,0.8-0.2,1.3-0.2c0.5,0,0.9,0.1,1.3,0.2c0.4,0.2,0.7,0.4,1,0.7c0.3,0.3,0.5,0.6,0.6,1
		c0.1,0.4,0.2,0.8,0.2,1.3c0,0.5-0.1,0.9-0.2,1.3c-0.1,0.4-0.4,0.7-0.6,1c-0.3,0.3-0.6,0.5-1,0.6s-0.8,0.2-1.3,0.2
		c-0.5,0-0.9-0.1-1.3-0.2c-0.4-0.2-0.7-0.4-1-0.6c-0.3-0.3-0.5-0.6-0.6-1c-0.1-0.4-0.2-0.8-0.2-1.3
		C244.3,52.7,244.3,52.3,244.5,51.9"/>
	<path id="path4651" class="st2" d="M252.7,50.1V51h0c0.2-0.4,0.5-0.6,0.8-0.8c0.3-0.2,0.7-0.2,1-0.2c0.4,0,0.8,0.1,1.1,0.2
		c0.3,0.1,0.5,0.3,0.7,0.5c0.2,0.2,0.3,0.5,0.3,0.8c0.1,0.3,0.1,0.7,0.1,1v3.8h-1.7v-3.5c0-0.5-0.1-0.9-0.2-1.1
		c-0.2-0.2-0.4-0.4-0.8-0.4c-0.5,0-0.8,0.1-1,0.4c-0.2,0.3-0.3,0.7-0.3,1.3v3.2h-1.7v-6.1H252.7"/>
	<path id="path4653" class="st0" d="M182.4,60.2v0.7h0c0.2-0.3,0.4-0.5,0.6-0.6c0.3-0.1,0.5-0.2,0.8-0.2c0.3,0,0.6,0,0.8,0.1
		c0.2,0.1,0.4,0.2,0.5,0.4c0.1,0.2,0.2,0.4,0.3,0.6c0.1,0.2,0.1,0.5,0.1,0.8v2.9h-1.3v-2.7c0-0.4-0.1-0.7-0.2-0.9
		c-0.1-0.2-0.3-0.3-0.6-0.3c-0.3,0-0.6,0.1-0.8,0.3c-0.2,0.2-0.2,0.6-0.2,1v2.5h-1.3v-4.7H182.4"/>
	<path id="path4655" class="st0" d="M189.4,61.3c-0.2-0.2-0.4-0.3-0.7-0.3c-0.2,0-0.4,0-0.5,0.1c-0.1,0.1-0.2,0.2-0.3,0.3
		c-0.1,0.1-0.1,0.2-0.2,0.3c0,0.1-0.1,0.2-0.1,0.3h2.1C189.6,61.7,189.5,61.4,189.4,61.3 M187.9,63.7c0.2,0.2,0.5,0.3,0.8,0.3
		c0.3,0,0.5-0.1,0.7-0.2s0.3-0.3,0.3-0.4h1.1c-0.2,0.6-0.5,1-0.8,1.2c-0.4,0.2-0.8,0.4-1.4,0.4c-0.4,0-0.7-0.1-1-0.2
		c-0.3-0.1-0.5-0.3-0.8-0.5c-0.2-0.2-0.4-0.5-0.5-0.8s-0.2-0.6-0.2-1c0-0.4,0.1-0.7,0.2-1c0.1-0.3,0.3-0.6,0.5-0.8
		c0.2-0.2,0.5-0.4,0.8-0.5c0.3-0.1,0.6-0.2,1-0.2c0.4,0,0.7,0.1,1,0.2c0.3,0.2,0.5,0.4,0.7,0.6c0.2,0.3,0.3,0.6,0.4,0.9
		c0.1,0.3,0.1,0.7,0.1,1h-3.4C187.6,63.3,187.7,63.6,187.9,63.7"/>
	<path id="path4657" class="st0" d="M194.3,60.2V61h-0.9v2.3c0,0.2,0,0.4,0.1,0.4c0.1,0.1,0.2,0.1,0.4,0.1c0.1,0,0.1,0,0.2,0
		c0.1,0,0.1,0,0.2,0v1c-0.1,0-0.2,0-0.4,0c-0.1,0-0.3,0-0.4,0c-0.2,0-0.4,0-0.6,0c-0.2,0-0.3-0.1-0.5-0.2c-0.1-0.1-0.2-0.2-0.3-0.3
		c-0.1-0.1-0.1-0.3-0.1-0.6V61h-0.8v-0.9h0.8v-1.4h1.3v1.4H194.3"/>
	<path id="path4659" class="st0" d="M199,64.9l-0.8-3.2h0l-0.8,3.2H196l-1.5-4.7h1.4l0.9,3.2h0l0.8-3.2h1.3l0.8,3.2h0l0.9-3.2h1.3
		l-1.5,4.7H199z"/>
	<path id="path4661" class="st0" d="M203.5,63.1c0,0.2,0.1,0.3,0.2,0.5c0.1,0.1,0.2,0.3,0.3,0.3c0.1,0.1,0.3,0.1,0.5,0.1
		c0.2,0,0.4,0,0.5-0.1c0.1-0.1,0.3-0.2,0.4-0.3c0.1-0.1,0.1-0.3,0.2-0.5c0-0.2,0.1-0.4,0.1-0.6s0-0.4-0.1-0.6c0-0.2-0.1-0.3-0.2-0.5
		c-0.1-0.1-0.2-0.3-0.4-0.3c-0.1-0.1-0.3-0.1-0.5-0.1c-0.2,0-0.4,0-0.5,0.1c-0.1,0.1-0.3,0.2-0.3,0.3c-0.1,0.1-0.1,0.3-0.2,0.5
		s-0.1,0.4-0.1,0.6S203.5,62.9,203.5,63.1 M202.3,61.5c0.1-0.3,0.3-0.6,0.5-0.8c0.2-0.2,0.5-0.4,0.8-0.5s0.6-0.2,1-0.2
		c0.4,0,0.7,0.1,1,0.2c0.3,0.1,0.6,0.3,0.8,0.5c0.2,0.2,0.4,0.5,0.5,0.8c0.1,0.3,0.2,0.6,0.2,1c0,0.4-0.1,0.7-0.2,1
		c-0.1,0.3-0.3,0.6-0.5,0.8c-0.2,0.2-0.5,0.4-0.8,0.5c-0.3,0.1-0.6,0.2-1,0.2c-0.4,0-0.7-0.1-1-0.2s-0.5-0.3-0.8-0.5
		c-0.2-0.2-0.4-0.5-0.5-0.8c-0.1-0.3-0.2-0.6-0.2-1C202.2,62.1,202.2,61.8,202.3,61.5"/>
	<path id="path4663" class="st0" d="M209.1,60.2V61h0c0.1-0.1,0.1-0.3,0.2-0.4c0.1-0.1,0.2-0.2,0.4-0.3c0.1-0.1,0.3-0.2,0.4-0.2
		c0.2,0,0.3-0.1,0.5-0.1c0.1,0,0.2,0,0.3,0v1.2c-0.1,0-0.1,0-0.2,0c-0.1,0-0.2,0-0.2,0c-0.2,0-0.4,0-0.6,0.1
		c-0.2,0.1-0.3,0.2-0.4,0.3c-0.1,0.1-0.2,0.3-0.2,0.5c0,0.2-0.1,0.4-0.1,0.6v2.1h-1.3v-4.7H209.1"/>
	<path id="path4665" class="st0" d="M212.8,58.4v3.5l1.6-1.7h1.5l-1.8,1.7l2,3h-1.6l-1.3-2.1l-0.5,0.5v1.6h-1.3v-6.5H212.8z"/>
	<path id="path4667" class="st0" d="M217.1,58.6v-0.2h1.4v0.2h-0.6v1.6h-0.2v-1.6H217.1z"/>
	<path id="path4669" class="st0" d="M219.1,58.4l0.6,1.5l0.6-1.5h0.3v1.8h-0.2v-1.5h0l-0.5,1.5h-0.2l-0.5-1.5h0v1.5h-0.2v-1.8H219.1
		z"/>
</g>
</svg>
