<?xml version="1.0" encoding="utf-8"?>
<!-- Generator: Adobe Illustrator 15.0.0, SVG Export Plug-In . SVG Version: 6.00 Build 0)  -->
<!DOCTYPE svg PUBLIC "-//W3C//DTD SVG 1.1//EN" "http://www.w3.org/Graphics/SVG/1.1/DTD/svg11.dtd">
<svg version="1.1"
	 id="svg2" inkscape:version="0.48.1 " sodipodi:docname="RTL_NITRO.svg" xmlns:dc="http://purl.org/dc/elements/1.1/" xmlns:cc="http://creativecommons.org/ns#" xmlns:rdf="http://www.w3.org/1999/02/22-rdf-syntax-ns#" xmlns:svg="http://www.w3.org/2000/svg" xmlns:sodipodi="http://sodipodi.sourceforge.net/DTD/sodipodi-0.dtd" xmlns:inkscape="http://www.inkscape.org/namespaces/inkscape"
	 xmlns="http://www.w3.org/2000/svg" xmlns:xlink="http://www.w3.org/1999/xlink" x="0px" y="0px" width="110px" height="18.4px"
	 viewBox="192 36.3 110 18.4" style="enable-background:new 192 36.3 110 18.4;" xml:space="preserve">
<style type="text/css">
<![CDATA[
	.st0{fill:#BAE637;}
	.st1{fill:#D2D2D2;}
]]>
</style>
<sodipodi:namedview  id="base" inkscape:current-layer="layer1" inkscape:window-y="-8" inkscape:window-x="-8" fit-margin-bottom="5" fit-margin-right="5" inkscape:window-height="1028" inkscape:window-width="1618" inkscape:pageshadow="2" inkscape:pageopacity="0.0" inkscape:window-maximized="1" inkscape:document-units="px" inkscape:cy="-52.704879" inkscape:cx="202.59146" bordercolor="#666666" inkscape:zoom="1.1548016" pagecolor="#ffffff" fit-margin-left="5" fit-margin-top="5" borderopacity="1.0" showgrid="false">
	</sodipodi:namedview>
<g id="layer1" transform="translate(-117.35717,-380.14792)" inkscape:groupmode="layer" inkscape:label="Ebene 1">
	<path id="path3050" inkscape:connector-curvature="0" sodipodi:nodetypes="ccccsssccccsssccccccccccccccccccc" class="st1" d="
		M309.4,416.5v18.4h2.7v-16h4.7c1.9,0,3.4,1.5,3.4,3.4c0,1.9-1.5,3.3-3.4,3.4h-4l6.4,9.1h3.6l-5.1-6.6c2.9-0.4,5.1-2.8,5.1-5.8v0
		c0-3.3-2.6-5.9-5.9-5.9h-0.7h-0.3H309.4z M323.6,416.5v2.5h3.5v15.9h2.5V419h3.6v-2.5H323.6z M335,416.5v18.4h9.7v-2h-7.2v-16.4
		H335z"/>
	<path id="path3843" inkscape:connector-curvature="0" class="st0" d="M343.9,416.5v18.4h4.3v-11.8l7.3,11.8h4.1v-18.4h-4.3v11.8
		l-7.3-11.8H343.9z M362.1,416.5v18.4h4.8v-18.4H362.1z M368.7,416.5v4h3.8v14.4h4.8v-14.4h3.8v-4H368.7z M382.5,416.5v18.4l4.8,0
		v-14.3h4.8c1.4,0,2.6,1.2,2.6,2.6c0,1.4-1.2,2.6-2.6,2.6h-4.4l6.6,9.1h5.5l-4.9-6.1c2.7-0.7,4.7-3.1,4.7-6.1c0-3.5-2.8-6.3-6.3-6.3
		H382.5z M409.8,416.5c-5.3,0-9.5,4.1-9.5,9.2c0,5.1,4.3,9.2,9.5,9.2c5.3,0,9.5-4.1,9.5-9.2C419.4,420.6,415.1,416.5,409.8,416.5z
		 M409.8,420.5c2.8,0,5,2.3,5,5.1s-2.2,5.1-5,5.1c-2.8,0-5-2.3-5-5.1S407.1,420.5,409.8,420.5z"/>
</g>
</svg>
