<?xml version="1.0" encoding="utf-8"?>
<!-- Generator: Adobe Illustrator 15.0.0, SVG Export Plug-In . SVG Version: 6.00 Build 0)  -->
<!DOCTYPE svg PUBLIC "-//W3C//DTD SVG 1.1//EN" "http://www.w3.org/Graphics/SVG/1.1/DTD/svg11.dtd">
<svg version="1.1" id="Layer_1" xmlns="http://www.w3.org/2000/svg" xmlns:xlink="http://www.w3.org/1999/xlink" x="0px" y="0px"
	 width="79.435px" height="28px" viewBox="0 0 79.435 28" style="enable-background:new 0 0 79.435 28;" xml:space="preserve">
<style type="text/css">
<![CDATA[
	.st0{fill:#868686;}
	.st1{fill:#1D1D1B;}
	.st2{fill:#FFD700;}
]]>
</style>
<g>
	<g>
		<g>
			<g>
				<path class="st2" d="M0,27.864V0.085h19.388v27.779H0z M16.583,25.067V2.882H2.794v22.186H16.583z"/>
			</g>
		</g>
	</g>
	<g>
		<path class="st1" d="M29.677,7.856h-0.96c-1.258-1.776-2.504-3.542-3.752-5.539h-0.01v5.539h-1.06V0.132h0.961
			c1.257,1.765,2.504,3.521,3.741,5.505h0.022V0.132h1.059V7.856z"/>
		<path class="st1" d="M32.192,4.8c0.309-1.016,0.617-1.954,0.893-3.146h0.022c0.31,1.192,0.585,2.13,0.872,3.146H32.192z
			 M32.7,0.132l-2.67,7.724h1.147l0.674-2.107h2.329l0.606,2.107h1.478l-2.46-7.724H32.7z"/>
		<path class="st1" d="M37.511,7.856V1.169h-2.029V0.132h5.384v1.037h-2.03v6.688H37.511z"/>
		<path class="st1" d="M41.295,7.856V0.132h1.313v7.724H41.295z"/>
		<path class="st1" d="M46.692,6.886c-1.379,0-1.865-1.523-1.865-3.001c0-1.423,0.553-2.781,1.865-2.781s1.864,1.357,1.864,2.781
			C48.556,5.362,48.072,6.886,46.692,6.886z M46.692,7.989c2.02,0,3.277-1.798,3.277-4.104C49.969,1.72,48.578,0,46.692,0
			c-1.887,0-3.277,1.72-3.277,3.884C43.415,6.191,44.672,7.989,46.692,7.989z"/>
		<path class="st1" d="M56.556,7.856h-0.96c-1.258-1.776-2.504-3.542-3.751-5.539h-0.011v5.539h-1.061V0.132h0.961
			c1.258,1.765,2.505,3.521,3.741,5.505h0.022V0.132h1.058V7.856z"/>
		<path class="st1" d="M59.073,4.8c0.309-1.016,0.618-1.954,0.895-3.146h0.021c0.31,1.192,0.586,2.13,0.872,3.146H59.073z
			 M59.581,0.132l-2.672,7.724h1.148l0.674-2.107h2.328l0.606,2.107h1.479l-2.46-7.724H59.581z"/>
		<path class="st1" d="M63.531,0.132h1.313V6.82h2.614v1.037h-3.928V0.132z"/>
		<g>
			<path class="st1" d="M28.862,14.319v3.189c-0.707,0.276-1.445,0.474-2.196,0.474c-2.272,0-3.707-1.765-3.707-4.039
				c0-2.106,1.435-3.95,3.751-3.95c0.717,0,1.434,0.266,1.876,0.596l-0.431,0.917c-0.353-0.221-0.904-0.409-1.412-0.409
				c-1.413,0-2.373,1.114-2.373,2.869c0,1.832,1.104,2.914,2.241,2.914c0.353,0,0.65-0.046,0.926-0.188v-2.373H28.862z"/>
			<path class="st1" d="M33.596,11.163h-2.208v2.119h2.163v1.037h-2.163v2.494h2.604v1.037h-3.928v-7.724h3.532V11.163z"/>
			<path class="st1" d="M37.678,16.88c-1.379,0-1.865-1.522-1.865-3.003c0-1.422,0.552-2.78,1.865-2.78
				c1.313,0,1.865,1.358,1.865,2.78C39.543,15.357,39.058,16.88,37.678,16.88z M37.678,17.981c2.02,0,3.277-1.798,3.277-4.104
				c0-2.162-1.39-3.884-3.277-3.884c-1.887,0-3.277,1.722-3.277,3.884C34.401,16.184,35.659,17.981,37.678,17.981z"/>
			<path class="st1" d="M47.311,14.319v3.189c-0.705,0.276-1.444,0.474-2.195,0.474c-2.273,0-3.707-1.765-3.707-4.039
				c0-2.106,1.434-3.95,3.751-3.95c0.718,0,1.435,0.266,1.876,0.596l-0.43,0.917c-0.354-0.221-0.905-0.409-1.413-0.409
				c-1.412,0-2.373,1.114-2.373,2.869c0,1.832,1.104,2.914,2.24,2.914c0.354,0,0.651-0.046,0.927-0.188v-2.373H47.311z"/>
			<path class="st1" d="M49.849,11.163h0.586c0.783,0,1.224,0.452,1.224,1.247c0,1.037-0.629,1.5-1.257,1.533
				c-0.133,0.012-0.442,0.023-0.553,0.034V11.163z M53.204,17.85l-1.555-3.2c0.85-0.451,1.336-1.367,1.336-2.294
				c0-1.501-0.917-2.229-2.396-2.229h-2.063v7.724h1.323v-2.912h0.575h0.021l1.246,2.912H53.204z"/>
			<path class="st1" d="M55.388,14.794c0.31-1.016,0.619-1.954,0.896-3.145h0.021c0.309,1.19,0.585,2.129,0.871,3.145H55.388z
				 M55.898,10.125l-2.672,7.724h1.147l0.674-2.107h2.328l0.606,2.107h1.479L57,10.125H55.898z"/>
			<path class="st1" d="M61.205,17.85H59.88v-7.724h2.063c1.479,0,2.395,0.728,2.395,2.229c0,1.301-0.96,2.583-2.537,2.583h-0.619
				v-0.96c0.065-0.011,0.431-0.022,0.573-0.034c0.63-0.032,1.259-0.496,1.259-1.533c0-0.795-0.44-1.247-1.213-1.247h-0.597V17.85z"
				/>
			<path class="st1" d="M70.474,17.85H69.15v-3.717h-2.748v3.717h-1.313v-7.724h1.313v2.969h2.748v-2.946h1.324V17.85z"/>
			<path class="st1" d="M71.744,17.85v-7.724h1.313v7.724H71.744z"/>
			<path class="st1" d="M79.014,11.527c-0.319-0.199-0.851-0.43-1.356-0.43c-1.347,0-2.329,1.114-2.329,2.869
				c0,1.832,1.083,2.914,2.362,2.914c0.507,0,0.982-0.167,1.323-0.388l0.365,0.961c-0.398,0.275-1.104,0.528-1.744,0.528
				c-2.273,0-3.707-1.765-3.707-4.039c0-2.106,1.422-3.95,3.729-3.95c0.685,0,1.323,0.288,1.777,0.596L79.014,11.527z"/>
		</g>
	</g>
	<g>
		<path class="st0" d="M28.005,21.563c-0.318-0.198-0.847-0.43-1.353-0.43c-1.343,0-2.322,1.112-2.322,2.862
			c0,1.826,1.079,2.905,2.355,2.905c0.506,0,0.98-0.165,1.32-0.386l0.364,0.958C27.973,27.747,27.268,28,26.63,28
			c-2.267,0-3.698-1.761-3.698-4.027c0-2.103,1.42-3.939,3.72-3.939c0.682,0,1.321,0.286,1.772,0.594L28.005,21.563z"/>
		<path class="st0" d="M34.202,27.868h-1.32V24.16h-2.74v3.708h-1.311v-7.703h1.311v2.96h2.74v-2.938h1.32V27.868z"/>
		<path class="st0" d="M36.833,24.82c0.308-1.013,0.616-1.948,0.891-3.137h0.022c0.309,1.188,0.583,2.124,0.87,3.137H36.833z
			 M37.338,20.165l-2.663,7.703h1.145l0.671-2.102h2.322l0.606,2.102h1.474l-2.454-7.703H37.338z"/>
		<path class="st0" d="M47.133,27.868h-0.957c-1.256-1.772-2.499-3.532-3.742-5.524h-0.012v5.524h-1.057v-7.703h0.958
			c1.254,1.761,2.498,3.511,3.73,5.492h0.022v-5.492h1.057V27.868z"/>
		<path class="st0" d="M54.144,27.868h-0.958c-1.254-1.772-2.498-3.532-3.741-5.524h-0.012v5.524h-1.057v-7.703h0.958
			c1.254,1.761,2.498,3.511,3.73,5.492h0.022v-5.492h1.057V27.868z"/>
		<path class="st0" d="M58.7,21.199h-2.2v2.113h2.156v1.034H56.5v2.488h2.597v1.033h-3.918v-7.703H58.7V21.199z"/>
		<path class="st0" d="M59.833,20.165h1.31v6.67h2.608v1.033h-3.918V20.165z"/>
	</g>
</g>
</svg>
