<?xml version="1.0" encoding="utf-8"?>
<!-- Generator: Adobe Illustrator 15.0.0, SVG Export Plug-In . SVG Version: 6.00 Build 0)  -->
<!DOCTYPE svg PUBLIC "-//W3C//DTD SVG 1.1//EN" "http://www.w3.org/Graphics/SVG/1.1/DTD/svg11.dtd">
<svg version="1.1"
	 id="svg2" inkscape:version="0.48.2 r9819" sodipodi:docname="VH1 2013.svg" xmlns:dc="http://purl.org/dc/elements/1.1/" xmlns:cc="http://creativecommons.org/ns#" xmlns:rdf="http://www.w3.org/1999/02/22-rdf-syntax-ns#" xmlns:svg="http://www.w3.org/2000/svg" xmlns:sodipodi="http://sodipodi.sourceforge.net/DTD/sodipodi-0.dtd" xmlns:inkscape="http://www.inkscape.org/namespaces/inkscape"
	 xmlns="http://www.w3.org/2000/svg" xmlns:xlink="http://www.w3.org/1999/xlink" x="0px" y="0px" width="71.6px" height="28px"
	 viewBox="64.2 25.3 71.6 28" style="enable-background:new 64.2 25.3 71.6 28;" xml:space="preserve">
<style type="text/css">
<![CDATA[
	.st0{fill:#941BC8;}
	.st1{fill:#6D15A0;}
]]>
</style>
<sodipodi:namedview  id="base" inkscape:current-layer="layer1" inkscape:window-y="-21" inkscape:window-x="633" fit-margin-bottom="0.3" fit-margin-right="0.3" inkscape:window-height="1038" inkscape:window-width="1277" inkscape:pageshadow="2" inkscape:pageopacity="0.0" inkscape:window-maximized="0" inkscape:cy="57.80283" borderopacity="1.0" inkscape:cx="199.15044" bordercolor="#666666" showgrid="false" pagecolor="#ffffff" inkscape:zoom="1.979899" fit-margin-left="0.3" fit-margin-top="0.3" inkscape:document-units="px">
	<inkscape:grid  type="xygrid" visible="true" enabled="true" id="grid2996" snapvisiblegridlinesonly="true" empspacing="5">
		</inkscape:grid>
</sodipodi:namedview>
<g id="layer1" transform="translate(-31.862726,-1668.4006)" inkscape:label="Layer 1" inkscape:groupmode="layer">
	<g id="g3794" transform="matrix(0.17675119,0,0,0.17675119,26.477926,1437.9258)">
		<path id="path3790" inkscape:connector-curvature="0" sodipodi:nodetypes="cssssccccccsssscccsscc" class="st1" d="M679.3,1552.8
			v49.6c0,1.5-1.4,2.9-2.9,2.9H635c-1.5,0-2.9-0.8-2.9-3.1v-49.4c0-2.3-1.2-3.2-3.6-3.2H574l1.6-47.2h52.7c2.5,0,3.6-1.1,3.6-3.3
			v-47.7c0-2.7,1.2-4.4,4.4-4.4h39.2c2.2,0,3.6,1.4,3.6,3.6v48.5c0,2,0.6,3.3,3.6,3.3h42.2v44.3c0,1.5-0.8,2.9-3.1,2.9h-39.1
			C680.2,1549.6,679.3,1550.9,679.3,1552.8L679.3,1552.8z"/>
		<path id="path3786" inkscape:connector-curvature="0" sodipodi:nodetypes="ccccccccccccccccccccc" class="st0" d="M485.3,1605.4
			h-33c-2.8,0-3.8-2.3-4.7-5.1l-53.5-149.1c-0.8-2-1-4.1,2.1-4.1h42.5c3,0,4,1.6,5.1,4.7l23.7,76.7c0.7,2.3,2,2.4,2.7-0.1l23.9-77.8
			c0.5-1.8,1.8-3.5,4.4-3.5h89.4c2.2,0,3.6,1.4,3.6,3.6v152c0,1.5-1.4,2.9-2.9,2.9h-41.7c-1.5,0-2.9-0.8-2.9-3.1V1456
			c0-1.7-1.5-2.4-2.4,0L490,1600.5C489.1,1602.9,488,1605.4,485.3,1605.4z"/>
		<path id="path3788" inkscape:connector-curvature="0" sodipodi:nodetypes="sccccccccccccs" class="st0" d="M795.3,1446.9
			c2.2,0,3.6,1.4,3.6,3.6v152c0,1.5-1.4,2.9-2.9,2.9h-41.4c-1.5,0-2.9-0.8-2.9-3.1v-96.4c0-2.1-1.1-3.5-3.2-3.5h-23.3v-29.8
			c0-2.4,1-3.5,3.2-5.3l21.6-16.4c3.2-2.4,4.7-4.1,7.8-4.1H795.3z"/>
	</g>
</g>
</svg>
