<?xml version="1.0" encoding="utf-8"?>
<!-- Generator: Adobe Illustrator 15.0.0, SVG Export Plug-In . SVG Version: 6.00 Build 0)  -->
<!DOCTYPE svg PUBLIC "-//W3C//DTD SVG 1.1//EN" "http://www.w3.org/Graphics/SVG/1.1/DTD/svg11.dtd">
<svg version="1.1"
	 id="svg2" sodipodi:docname="NBC Gold.svg" inkscape:version="0.48.2 r9819" xmlns:inkscape="http://www.inkscape.org/namespaces/inkscape" xmlns:sodipodi="http://sodipodi.sourceforge.net/DTD/sodipodi-0.dtd" xmlns:svg="http://www.w3.org/2000/svg" xmlns:dc="http://purl.org/dc/elements/1.1/" xmlns:cc="http://creativecommons.org/ns#" xmlns:rdf="http://www.w3.org/1999/02/22-rdf-syntax-ns#"
	 xmlns="http://www.w3.org/2000/svg" xmlns:xlink="http://www.w3.org/1999/xlink" x="0px" y="0px" width="166.6px" height="50px"
	 viewBox="416.7 125.4 166.6 50" style="enable-background:new 416.7 125.4 166.6 50;" xml:space="preserve">
<style type="text/css">
<![CDATA[
	.st0{fill:#F37021;}
	.st1{fill:#FCB711;}
	.st2{fill:#FFFFFF;}
	.st3{fill:#6460AA;}
	.st4{fill:#CC004C;}
	.st5{fill:#0089D0;}
	.st6{fill:#0DB14B;}
]]>
</style>
<sodipodi:namedview  id="base" inkscape:pageshadow="2" inkscape:pageopacity="0.0" inkscape:document-units="px" inkscape:current-layer="layer1" fit-margin-right="0.5" fit-margin-bottom="0.5" inkscape:window-width="1920" inkscape:window-height="1028" inkscape:window-x="-8" inkscape:window-y="-8" inkscape:cx="1473.5781" borderopacity="1.0" fit-margin-top="0.5" fit-margin-left="0.5" inkscape:zoom="0.37520853" showgrid="false" bordercolor="#666666" inkscape:cy="20.422222" pagecolor="#ffffff" inkscape:window-maximized="1">
	<inkscape:grid  type="xygrid" visible="true" id="grid2996" enabled="true" snapvisiblegridlinesonly="true" empspacing="5">
		</inkscape:grid>
</sodipodi:namedview>
<g id="layer1" transform="translate(240.54712,-1352.2373)" inkscape:label="Layer 1" inkscape:groupmode="layer">
	<g id="g3134" transform="matrix(0.78011628,0,0,0.78011628,-52.782453,363.35483)">
		<path id="path3066" inkscape:connector-curvature="0" sodipodi:nodetypes="cccccccccccccccccc" class="st2" d="M302.6,1472.4
			c-5.3,0-9.2-4.1-9.2-9c0-6.3,5.4-9.7,8.4-9.3c-2-1.7-3.4-4.1-3.4-7c0-5.9,4.8-9.4,9.5-9.4c2.9,0,4.5,1.3,4.5,1.3
			c-0.2-0.8-0.1-0.9-0.1-1.3c0-5.9,4.5-9.4,9-9.4c4.7,0,7.5,3,8.2,4.9c0.7-1.9,3.3-4.9,8.2-4.9c5.7,0,9.2,4.5,9.2,9.2
			c0,1-0.2,1.6-0.2,1.6s1.4-1.3,4.5-1.3c5.3,0,9.4,4,9.4,9.4c0,4.5-3.3,6.9-3.3,6.9c3.9,0,8.4,3.6,8.4,9.2c0,4.4-3.3,9.1-9.2,9.1
			H302.6z"/>
		<path id="path3028" inkscape:connector-curvature="0" class="st0" d="M303,1441.7c-2.8,2.5-3.8,8.3,1.2,11.7l20.3,13.9l-9.8-22.5
			C312.7,1439.5,307,1438.4,303,1441.7"/>
		<path id="path3030" inkscape:connector-curvature="0" class="st4" d="M320.8,1430.4c-3.2,0.1-8.1,3.9-6,9.8l10,23.6l3.5-24.8
			C329.2,1432.9,324.5,1430,320.8,1430.4"/>
		<path id="path3032" inkscape:connector-curvature="0" class="st3" d="M330.6,1438.1h1.9c0,0,1,0,1.2,0.5c-0.7,0.6-2.8,0.7-2.5,3.9
			l3.2,21.4l10-23.7c2-5.3-2.2-9.7-6-9.8c-0.2,0-0.4,0-0.5,0C334.3,1430.4,330.4,1432.8,330.6,1438.1"/>
		<path id="path3034" inkscape:connector-curvature="0" class="st5" d="M344.2,1445l-9.6,22.4l20.4-14.1c4.7-3.3,3.9-8.7,1.3-11.3
			c-1.1-1.2-3.1-2.2-5.3-2.2C348.4,1439.9,345.7,1441.2,344.2,1445"/>
		<path id="path3036" inkscape:connector-curvature="0" class="st6" d="M352.6,1457.3l-18.8,13.1H357c4.7,0,7.8-4.9,6.4-9.4
			c-0.9-2.8-3.6-5-6.7-5C355.4,1456,354,1456.4,352.6,1457.3"/>
		<path id="path3038" inkscape:connector-curvature="0" class="st1" d="M302.8,1470.4h22.6l-18.6-13c-4.3-2.8-9.1-1.1-10.9,3.4
			C294.4,1466.1,298.1,1470.4,302.8,1470.4"/>
		<path id="path3068" inkscape:connector-curvature="0" d="M431.1,1428.3c-10,0-20.1,6.8-21.9,18.9h-11.6c-1.3,0-1.6,0.3-2.2,1.8
			l-2.6,5.7h13.3c-1.7,5.9-7.1,9.6-12.6,9.6c-7.9,0-13.3-6.8-13.3-13.9c0-8.8,6.8-14,13.3-14c3.9,0,7.2,1.7,9.1,3.1
			c1.2,0.9,2.5,0.7,3.1-0.3l3-5.2c0,0-5.5-5.7-14.9-5.7c-11.5,0-22.4,8.4-22.4,22.1c0,11.3,9,22,22,22c11.2,0,19.9-8.6,21.6-17.7
			c0,4.5-0.6,6.3-1.5,8.9c4.6,5.7,10.6,8.8,17.7,8.8c8.7,0,15.4-4.8,18.8-10.7v5c0,3.2,2.3,5.2,4.9,5.2h29.5c1.6,0,3-0.9,3-3v-14h12
			c1.5,0,2-0.5,2.8-2l2.5-5.7h-17.3V1437H502c1.3,0,1.7-0.6,2.2-1.7l2.9-6.5h-23.4c-3,0-5.2,1.9-5.2,5.2v36.4l-2.4-5.5
			c-0.3-0.7-0.9-1.2-1.9-1.2h-15.4v-31.9c0-2-1.3-3-3-3h-5.8v6.8c1.4,2.6,2.2,5.8,2.4,8.9C449.8,1436,442.2,1428.3,431.1,1428.3
			L431.1,1428.3z M431.1,1436.5c7,0,13.2,6.1,13.2,13.9c0,7.9-6.3,14-13.2,14c-7.4,0-13.1-6.8-13.1-14
			C417.9,1443.2,423.3,1436.5,431.1,1436.5z"/>
		<path id="path4422" inkscape:connector-curvature="0" sodipodi:nodetypes="ccccccccccccc" d="M378.8,1489.7c1.6,0,2.7-0.8,2.7-0.8
			c0.5-0.4,1-0.4,1.3,0l1,1.8c0,0-1.8,1.8-5,1.8c-4.5,0-7.3-3.5-7.3-7.3c0-3.8,2.9-7.3,7.4-7.3c3.3,0,5,1.8,5,1.8l-1.1,1.8
			c-0.1,0.2-0.5,0.5-1.2,0c0,0-1.2-0.8-2.7-0.8c-2.5,0-4.4,2-4.4,4.6C374.4,1488,376.6,1489.7,378.8,1489.7L378.8,1489.7z"/>
		<path id="path4426" inkscape:connector-curvature="0" sodipodi:nodetypes="ccccccccccccccccc" d="M396.4,1486.4v5.8h-1.2
			c-1,0-1.8-0.7-1.8-1.8V1478h1.9c0.6,0,1,0.3,1,0.9v4.8h5.3v-5.8h1.8c0.5,0,1.1,0.2,1.1,1v13.3h-1.3c-1,0-1.7-0.6-1.7-1.7v-4.2
			H396.4z"/>
		<path id="path4428" inkscape:connector-curvature="0" d="M418.7,1478l-4.8,12.8c-0.4,1.1-0.2,1.4,0.4,1.4h2.1l1.1-3h5.1l0.7,1.9
			c0.3,0.6,0.6,1.1,1.3,1.1h2.2l-4.7-12.7c-0.3-1-0.8-1.5-1.8-1.5H418.7z M420.1,1482.1l1.7,4.8h-3.4L420.1,1482.1z"/>
		<path id="path4432" inkscape:connector-curvature="0" sodipodi:nodetypes="ccccccccccccccc" d="M438.7,1492.2h-1.9
			c-0.6,0-1-0.3-1-1V1478h1.9c1,0,1.3,0.8,1.8,1.5l4.6,7.8v-9.3h2c0.7,0,0.9,0.4,0.9,1.1v13.2h-1.9c-1.1,0-1.5-0.6-2-1.4l-4.5-7.7
			V1492.2z"/>
		<path id="path4434" inkscape:connector-curvature="0" sodipodi:nodetypes="ccccccccccccccc" d="M460.3,1492.2h-1.9
			c-0.6,0-1-0.3-1-1V1478h1.9c1,0,1.3,0.8,1.8,1.5l4.6,7.8v-9.3h2c0.7,0,0.9,0.4,0.9,1.1v13.2h-1.9c-1.1,0-1.5-0.6-2-1.4l-4.5-7.7
			V1492.2z"/>
		<path id="path3077" inkscape:connector-curvature="0" sodipodi:nodetypes="ccccccccccccccccc" d="M486.6,1492.2h-6
			c-0.9,0-1.7-0.6-1.7-1.8V1478h9.6l-1.1,2.3c-0.1,0.2-0.2,0.5-0.8,0.5h-4.7v3.2h5.8l-1,2c-0.2,0.4-0.3,0.5-0.7,0.5h-4.1v3.2h6.5
			l-1,2.2C487.3,1492,487.2,1492.2,486.6,1492.2L486.6,1492.2z"/>
		<path id="path3081" inkscape:connector-curvature="0" sodipodi:nodetypes="cccccccccc" d="M507,1492.2h-7.6
			c-1.3,0-1.8-0.8-1.8-1.8V1478h1.9c0.6,0,1,0.2,1,1v10.6h4.5c0.6,0,0.7,0.1,1,0.6L507,1492.2z"/>
	</g>
</g>
</svg>
