<svg xmlns="http://www.w3.org/2000/svg" viewBox="347.2 292 97.8 28" enable-background="new 347.2 292 97.8 28"><g fill="#ed2028"><path d="m402 300.7v16.2h6.4v-22.9h-5.7l-7.1 4.4 2.1 5 4.3-2.7"/><path d="m357.6 292.4c2.8-.2 5.8-.3 8.2-.4v3.6c-1.2 0-2.4.1-3.6.2-4.2.5-5 1.4-5.5 5.4-.2 1.7-.3 3.5-.3 4.7 0 1.2.1 3 .3 4.7.5 4.1 1.3 5 5.5 5.4 1.2.1 2.5.2 3.6.2v3.6c-2.4 0-5.4-.1-8.2-.4-7.6-.6-9-1.8-9.9-7.3-.4-2.3-.5-4.7-.5-6.3 0-1.6.1-4.1.5-6.3.8-5.3 2.3-6.5 9.9-7.1"/><path d="m388.4 306c0 1.6-.1 4.1-.5 6.3-.9 5.5-2.3 6.7-9.9 7.3-2.8.2-5.8.3-8.2.4v-3.6c1.1 0 2.4-.1 3.6-.2 4.2-.5 5-1.4 5.5-5.4.2-1.7.3-3.5.3-4.7 0-1.2-.1-3-.3-4.7-.5-4.1-1.3-5-5.5-5.4-1.2-.1-2.5-.2-3.6-.2v-3.6c2.4 0 5.4.1 8.2.4 7.6.6 9 1.8 9.9 7.3.4 2.1.5 4.4.5 6.1"/><path d="m426.4 301.5v5.8h3.5v-13.4h-3.5v5h-5.3v-5h-3.5v13.4h3.5v-5.8h5.3m6.4 5.9h4.7c4.6 0 7.6-2.4 7.6-6.7 0-4.4-3-6.7-7.6-6.7h-4.7v13.4m3.5-10.9h1.5c2.4 0 3.8 1.5 3.8 4.1s-1.4 4.1-3.8 4.1h-1.5v-8.2"/></g></svg>