<?xml version="1.0" encoding="UTF-8" standalone="no"?>
<!-- Created with Inkscape (http://www.inkscape.org/) -->

<svg
   xmlns:dc="http://purl.org/dc/elements/1.1/"
   xmlns:cc="http://creativecommons.org/ns#"
   xmlns:rdf="http://www.w3.org/1999/02/22-rdf-syntax-ns#"
   xmlns:svg="http://www.w3.org/2000/svg"
   xmlns="http://www.w3.org/2000/svg"
   xmlns:xlink="http://www.w3.org/1999/xlink"
   xmlns:sodipodi="http://sodipodi.sourceforge.net/DTD/sodipodi-0.dtd"
   xmlns:inkscape="http://www.inkscape.org/namespaces/inkscape"
   width="327.21243"
   height="179.381"
   id="svg13747"
   version="1.1"
   inkscape:version="0.48.1 "
   sodipodi:docname="Eurosport 2.svg">
  <defs
     id="defs13749">
    <linearGradient
       x1="0"
       y1="0"
       x2="1"
       y2="0"
       gradientUnits="userSpaceOnUse"
       gradientTransform="matrix(-3.1662,-6.7544,-6.7544,3.1662,333.539,421.854)"
       spreadMethod="pad"
       id="linearGradient4317">
      <stop
         style="stop-opacity:1;stop-color:#a1173b"
         offset="0"
         id="stop4319" />
      <stop
         style="stop-opacity:1;stop-color:#160707"
         offset="0.775017"
         id="stop4321" />
      <stop
         style="stop-opacity:1;stop-color:#160707"
         offset="1"
         id="stop4323" />
    </linearGradient>
    <linearGradient
       x1="0"
       y1="0"
       x2="1"
       y2="0"
       gradientUnits="userSpaceOnUse"
       gradientTransform="matrix(-3.6519,-7.4594,-7.4594,3.6519,319.832,424.526)"
       spreadMethod="pad"
       id="linearGradient4217">
      <stop
         style="stop-opacity:1;stop-color:#2e4988"
         offset="0"
         id="stop4219" />
      <stop
         style="stop-opacity:1;stop-color:#0a0d0f"
         offset="1"
         id="stop4221" />
    </linearGradient>
    <linearGradient
       inkscape:collect="always"
       xlink:href="#linearGradient4217"
       id="linearGradient14058"
       gradientUnits="userSpaceOnUse"
       gradientTransform="matrix(-3.6519,-7.4594,-7.4594,3.6519,319.832,424.526)"
       spreadMethod="pad"
       x1="0"
       y1="0"
       x2="1"
       y2="0" />
    <linearGradient
       inkscape:collect="always"
       xlink:href="#linearGradient4317"
       id="linearGradient14060"
       gradientUnits="userSpaceOnUse"
       gradientTransform="matrix(-3.1662,-6.7544,-6.7544,3.1662,333.539,421.854)"
       spreadMethod="pad"
       x1="0"
       y1="0"
       x2="1"
       y2="0" />
  </defs>
  <sodipodi:namedview
     id="base"
     pagecolor="#ffffff"
     bordercolor="#666666"
     borderopacity="1.0"
     inkscape:pageopacity="0"
     inkscape:pageshadow="2"
     inkscape:zoom="2.8"
     inkscape:cx="245.47915"
     inkscape:cy="76.238111"
     inkscape:document-units="px"
     inkscape:current-layer="layer1"
     showgrid="false"
     inkscape:window-width="1618"
     inkscape:window-height="1028"
     inkscape:window-x="-8"
     inkscape:window-y="-8"
     inkscape:window-maximized="1"
     fit-margin-top="0"
     fit-margin-left="0"
     fit-margin-right="0"
     fit-margin-bottom="0" />
  <metadata
     id="metadata13752">
    <rdf:RDF>
      <cc:Work
         rdf:about="">
        <dc:format>image/svg+xml</dc:format>
        <dc:type
           rdf:resource="http://purl.org/dc/dcmitype/StillImage" />
      </cc:Work>
    </rdf:RDF>
  </metadata>
  <g
     inkscape:label="Ebene 1"
     inkscape:groupmode="layer"
     id="layer1"
     transform="translate(-263.73783,-753.18706)">
    <g
       transform="matrix(15.256081,0,0,-15.256081,-4517.64,7261.2634)"
       id="g4207">
      <g
         id="g4209">
        <g
           id="g4215">
          <path
             inkscape:connector-curvature="0"
             d="m 314.304,422.266 8.184,0 -0.886,-3.155 -8.194,0 0.896,3.155"
             style="fill:url(#linearGradient14058);stroke:none"
             id="path4223" />
        </g>
      </g>
    </g>
    <g
       transform="matrix(15.256081,0,0,-15.256081,-4517.64,7261.2634)"
       id="g4225">
      <g
         id="g4227"
         transform="translate(322.488,422.266)">
        <path
           inkscape:connector-curvature="0"
           d="m 0,0 9.538,0 -0.897,-3.155 -9.527,0 L 0,0"
           style="fill:#ffffff;fill-opacity:1;fill-rule:nonzero;stroke:none"
           id="path4229" />
        <g
           id="g4231"
           transform="translate(-7.765,-0.561)">
          <path
             inkscape:connector-curvature="0"
             d="m 0,0 1.276,0 -0.112,-0.396 -0.829,0 -0.108,-0.387 0.764,0 -0.112,-0.393 -0.765,0 -0.131,-0.457 0.829,0 -0.11,-0.396 -1.276,0 L 0,0"
             style="fill:#ffffff;fill-opacity:1;fill-rule:nonzero;stroke:none"
             id="path4233" />
          <g
             id="g4235"
             transform="translate(1.229,-1.544)">
            <path
               inkscape:connector-curvature="0"
               d="m 0,0 c 0.004,0.033 0.011,0.07 0.02,0.104 l 0.408,1.44 0.447,0 -0.391,-1.38 C 0.474,0.131 0.468,0.101 0.464,0.07 0.451,-0.052 0.508,-0.119 0.721,-0.119 c 0.244,0 0.343,0.098 0.391,0.265 l 0.397,1.398 0.448,0 -0.408,-1.44 C 1.452,-0.238 1.252,-0.515 0.633,-0.515 0.143,-0.515 -0.029,-0.268 0,0"
               style="fill:#ffffff;fill-opacity:1;fill-rule:nonzero;stroke:none"
               id="path4237" />
            <g
               id="g4239"
               transform="translate(3.248,0.917)">
              <path
                 inkscape:connector-curvature="0"
                 d="M 0,0 C 0.01,0.034 0.017,0.07 0.018,0.085 0.029,0.189 -0.03,0.231 -0.185,0.231 l -0.372,0 -0.172,-0.612 0.384,0 c 0.198,0 0.257,0.073 0.301,0.229 L 0,0 z m -0.533,-0.768 -0.308,0 -0.177,-0.633 -0.448,0 0.574,2.029 0.777,0 C 0.32,0.628 0.516,0.463 0.484,0.165 0.479,0.125 0.469,0.085 0.458,0.04 L 0.389,-0.204 C 0.32,-0.457 0.211,-0.618 -0.0509999,-0.707 L 0.258,-1.401 l -0.503,0 -0.288,0.633"
                 style="fill:#ffffff;fill-opacity:1;fill-rule:nonzero;stroke:none"
                 id="path4241" />
              <g
                 id="g4243"
                 transform="translate(1.972,0.061)">
                <path
                   inkscape:connector-curvature="0"
                   d="m 0,0 c 0.013,0.125 -0.061,0.201 -0.277,0.201 -0.231,0 -0.364,-0.1 -0.412,-0.262 l -0.22,-0.774 c -0.006,-0.024 -0.011,-0.048 -0.014,-0.07 -0.013,-0.121 0.059,-0.192 0.278,-0.192 0.232,0 0.363,0.089 0.412,0.262 l 0.22,0.774 C -0.007,-0.04 -0.002,-0.018 0,0 z m -1.382,-0.953 c 0.004,0.03 0.01,0.064 0.02,0.094 l 0.236,0.838 c 0.107,0.377 0.365,0.618 0.937,0.618 0.482,0 0.678,-0.274 0.648,-0.551 C 0.456,0.018 0.449,-0.015 0.44,-0.046 L 0.205,-0.874 c -0.109,-0.387 -0.362,-0.619 -0.962,-0.619 -0.478,0 -0.654,0.265 -0.625,0.54"
                   style="fill:#ffffff;fill-opacity:1;fill-rule:nonzero;stroke:none"
                   id="path4245" />
                <g
                   id="g4247"
                   transform="translate(1.074,-1.359)">
                  <path
                     inkscape:connector-curvature="0"
                     d="m 0,0 0.134,0.344 c 0.189,-0.058 0.346,-0.1 0.541,-0.1 0.237,0 0.297,0.045 0.347,0.222 0.013,0.043 0.02,0.079 0.023,0.107 0.01,0.091 -0.048,0.115 -0.288,0.179 -0.329,0.086 -0.441,0.205 -0.416,0.442 0.007,0.064 0.024,0.137 0.048,0.219 0.137,0.451 0.269,0.543 0.82,0.543 0.155,0 0.408,-0.034 0.582,-0.08 L 1.672,1.502 C 1.497,1.544 1.268,1.572 1.131,1.572 0.912,1.572 0.866,1.541 0.821,1.38 0.81,1.334 0.8,1.298 0.797,1.27 0.787,1.173 0.846,1.158 1.077,1.097 1.445,1.002 1.536,0.886 1.514,0.679 1.507,0.615 1.49,0.545 1.466,0.463 1.348,0.046 1.183,-0.134 0.607,-0.134 0.44,-0.134 0.15,-0.076 0,0"
                     style="fill:#aa0c31;fill-opacity:1;fill-rule:nonzero;stroke:none"
                     id="path4249" />
                  <g
                     id="g4251"
                     transform="translate(3.102,1.289)">
                    <path
                       inkscape:connector-curvature="0"
                       d="M 0,0 C 0.01,0.037 0.016,0.067 0.019,0.088 0.03,0.192 -0.026,0.241 -0.163,0.241 l -0.378,0 -0.177,-0.628 0.369,0 c 0.207,0 0.26,0.073 0.304,0.226 L 0,0 z m -0.829,-0.774 -0.176,-0.618 -0.448,0 0.574,2.029 0.774,0 C 0.33,0.637 0.523,0.469 0.491,0.18 0.487,0.137 0.471,0.073 0.456,0.024 L 0.392,-0.204 c -0.107,-0.378 -0.283,-0.57 -0.819,-0.57 l -0.402,0"
                       style="fill:#aa0c31;fill-opacity:1;fill-rule:nonzero;stroke:none"
                       id="path4253" />
                    <g
                       id="g4255"
                       transform="translate(1.884,0.0699999)">
                      <path
                         inkscape:connector-curvature="0"
                         d="m 0,0 c 0.013,0.125 -0.061,0.201 -0.277,0.201 -0.231,0 -0.364,-0.1 -0.412,-0.262 l -0.22,-0.774 c -0.006,-0.024 -0.011,-0.048 -0.014,-0.07 -0.013,-0.121 0.059,-0.192 0.278,-0.192 0.232,0 0.363,0.089 0.412,0.262 l 0.22,0.774 C -0.007,-0.04 -0.002,-0.018 0,0 z m -1.382,-0.953 c 0.003,0.03 0.01,0.064 0.02,0.094 l 0.236,0.838 c 0.107,0.377 0.365,0.618 0.937,0.618 0.481,0 0.678,-0.274 0.648,-0.551 C 0.456,0.018 0.449,-0.015 0.44,-0.046 L 0.205,-0.874 c -0.109,-0.387 -0.362,-0.619 -0.962,-0.619 -0.478,0 -0.654,0.265 -0.625,0.54"
                         style="fill:#aa0c31;fill-opacity:1;fill-rule:nonzero;stroke:none"
                         id="path4257" />
                      <g
                         id="g4259"
                         transform="translate(1.854,-0.061)">
                        <path
                           inkscape:connector-curvature="0"
                           d="M 0,0 C 0.01,0.034 0.017,0.07 0.018,0.085 0.03,0.189 -0.03,0.231 -0.185,0.231 l -0.372,0 -0.172,-0.612 0.384,0 c 0.198,0 0.257,0.073 0.301,0.229 L 0,0 z m -0.533,-0.768 -0.308,0 -0.177,-0.633 -0.448,0 0.574,2.029 0.777,0 C 0.32,0.628 0.516,0.463 0.484,0.165 0.48,0.125 0.469,0.085 0.458,0.04 L 0.389,-0.204 C 0.32,-0.457 0.211,-0.618 -0.0509999,-0.707 L 0.258,-1.401 l -0.503,0 -0.288,0.633"
                           style="fill:#aa0c31;fill-opacity:1;fill-rule:nonzero;stroke:none"
                           id="path4261" />
                        <g
                           id="g4263"
                           transform="translate(1.215,-1.401)">
                          <path
                             inkscape:connector-curvature="0"
                             d="m 0,0 -0.451,0 0.462,1.633 -0.549,0 0.113,0.396 1.547,0 L 1.01,1.633 0.461,1.633 0,0"
                             style="fill:#aa0c31;fill-opacity:1;fill-rule:nonzero;stroke:none"
                             id="path4265" />
                          <g
                             id="g4267"
                             transform="translate(-10.61,3.199)">
                            <path
                               inkscape:connector-curvature="0"
                               d="m 0,0 -0.527,0.377 -0.823,-0.376 0.511,0.601 -0.511,0.365 0.823,0 L 0,1.585 0,0.967 0.757,0.967 0,0.619 0,0"
                               style="fill:#b3b5b7;fill-opacity:1;fill-rule:nonzero;stroke:none"
                               id="path4269" />
                            <g
                               id="g4271"
                               transform="translate(2.447,1.455)">
                              <path
                                 inkscape:connector-curvature="0"
                                 d="m 0,0 -0.527,0.377 -0.823,-0.376 0.512,0.601 -0.512,0.365 0.823,0 L 0,1.585 0,0.967 0.757,0.967 0,0.619 0,0"
                                 style="fill:#b3b5b7;fill-opacity:1;fill-rule:nonzero;stroke:none"
                                 id="path4273" />
                              <g
                                 id="g4275"
                                 transform="translate(2.72,0.673)">
                                <path
                                   inkscape:connector-curvature="0"
                                   d="m 0,0 -0.527,0.377 -0.823,-0.376 0.511,0.601 -0.511,0.365 0.823,0 L 0,1.585 0,0.967 0.757,0.967 0,0.619 0,0"
                                   style="fill:#b3b5b7;fill-opacity:1;fill-rule:nonzero;stroke:none"
                                   id="path4277" />
                                <g
                                   id="g4279"
                                   transform="translate(2.484,-0.674)">
                                <path
                                   inkscape:connector-curvature="0"
                                   d="m 0,0 -0.527,0.377 -0.823,-0.376 0.512,0.601 -0.512,0.365 0.823,0 L 0,1.585 0,0.967 0.757,0.967 0,0.619 0,0"
                                   style="fill:#b3b5b7;fill-opacity:1;fill-rule:nonzero;stroke:none"
                                   id="path4281" />
                                <g
                                   id="g4283"
                                   transform="translate(1.705,-1.453)">
                                <path
                                   inkscape:connector-curvature="0"
                                   d="m 0,0 -0.527,0.377 -0.823,-0.376 0.512,0.601 -0.512,0.365 0.823,0 L 0,1.585 0,0.967 0.757,0.967 0,0.619 0,0"
                                   style="fill:#b3b5b7;fill-opacity:1;fill-rule:nonzero;stroke:none"
                                   id="path4285" />
                                <g
                                   id="g4287"
                                   transform="translate(-2.232,-5.919)">
                                <path
                                   inkscape:connector-curvature="0"
                                   d="m 0,0 -0.527,0.377 -0.823,-0.376 0.512,0.601 -0.512,0.365 0.823,0 L 0,1.585 0,0.967 0.757,0.967 0,0.619 0,0"
                                   style="fill:#b3b5b7;fill-opacity:1;fill-rule:nonzero;stroke:none"
                                   id="path4289" />
                                <g
                                   id="g4291"
                                   transform="translate(-5.204,-2.127)">
                                <path
                                   inkscape:connector-curvature="0"
                                   d="m 0,0 -0.527,0.377 -0.823,-0.376 0.512,0.601 -0.512,0.365 0.823,0 L 0,1.585 0,0.967 0.757,0.967 0,0.619 0,0"
                                   style="fill:#b3b5b7;fill-opacity:1;fill-rule:nonzero;stroke:none"
                                   id="path4293" />
                                <g
                                   id="g4295"
                                   transform="translate(-4.184,2.125)">
                                <path
                                   inkscape:connector-curvature="0"
                                   d="m 0,0 -0.527,0.377 -0.823,-0.376 0.512,0.601 -0.512,0.365 0.823,0 L 0,1.585 0,0.967 0.757,0.967 0,0.619 0,0"
                                   style="fill:#b3b5b7;fill-opacity:1;fill-rule:nonzero;stroke:none"
                                   id="path4297" />
                                <g
                                   id="g4299"
                                   transform="translate(6.906,-1.561)">
                                <path
                                   inkscape:connector-curvature="0"
                                   d="m 0,0 -0.527,0.377 -0.823,-0.376 0.511,0.601 -0.511,0.365 0.823,0 L 0,1.585 0,0.967 0.757,0.967 0,0.619 0,0"
                                   style="fill:#b3b5b7;fill-opacity:1;fill-rule:nonzero;stroke:none"
                                   id="path4301" />
                                <g
                                   id="g4303"
                                   transform="translate(-5.231,0)">
                                <path
                                   inkscape:connector-curvature="0"
                                   d="m 0,0 -0.527,0.377 -0.823,-0.376 0.511,0.601 -0.511,0.365 0.823,0 L 0,1.585 0,0.967 0.757,0.967 0,0.619 0,0"
                                   style="fill:#b3b5b7;fill-opacity:1;fill-rule:nonzero;stroke:none"
                                   id="path4305" />
                                </g>
                                </g>
                                </g>
                                </g>
                                </g>
                                </g>
                                </g>
                              </g>
                            </g>
                          </g>
                        </g>
                      </g>
                    </g>
                  </g>
                </g>
              </g>
            </g>
          </g>
        </g>
      </g>
    </g>
    <g
       transform="matrix(15.256081,0,0,-15.256081,-4517.64,7261.2634)"
       id="g4307">
      <g
         id="g4309">
        <g
           id="g4315">
          <path
             inkscape:connector-curvature="0"
             d="m 332.026,422.267 2.83,0 -0.896,-3.156 -2.831,0 0.897,3.156"
             style="fill:url(#linearGradient14060);stroke:none"
             id="path4325" />
        </g>
      </g>
    </g>
    <path
       inkscape:connector-curvature="0"
       d="m 550.17014,853.00752 c 4.31743,-3.43247 4.98877,-3.99706 8.7571,-7.15497 2.41055,-2.09005 3.84462,-3.35644 5.72091,-5.15645 0.99261,-1.11524 1.37314,-1.99879 1.83085,-3.63112 l 0.23105,-0.83514 c 0.45565,-1.67828 -0.36658,-2.27334 -3.11222,-2.27334 -2.18169,0 -5.43112,0.36659 -7.56673,0.83643 l -0.0258,-5.29391 c 2.868,-0.83514 6.54469,-1.35804 9.56552,-1.35804 5.7666,0 8.51263,2.18169 8.10087,5.99572 -0.0645,0.56665 -0.15102,1.01972 -0.30205,1.54081 l -0.28655,1.01972 c -1.13202,3.95163 -1.20173,5.15658 -6.86519,10.26759 -2.98986,2.7459 -4.6835,4.18022 -6.81937,5.94963 l 9.19919,0 -1.58638,5.72104 -18.41427,0 1.58677,-5.62939"
       style="fill:#ffffff;fill-opacity:1;fill-rule:nonzero;stroke:none"
       id="path4331" />
  </g>
</svg>
