<?xml version="1.0" encoding="utf-8"?>
<!-- Generator: Adobe Illustrator 15.0.0, SVG Export Plug-In . SVG Version: 6.00 Build 0)  -->
<!DOCTYPE svg PUBLIC "-//W3C//DTD SVG 1.1//EN" "http://www.w3.org/Graphics/SVG/1.1/DTD/svg11.dtd">
<svg version="1.1" id="Layer_1" xmlns="http://www.w3.org/2000/svg" xmlns:xlink="http://www.w3.org/1999/xlink" x="0px" y="0px"
	 width="99.55px" height="32.72px" viewBox="0 0 99.55 32.72" style="enable-background:new 0 0 99.55 32.72;" xml:space="preserve"
	>
<style type="text/css">
<![CDATA[
	.st0{fill:#AA0000;}
	.st1{fill:#565656;}
	.st2{fill:#AA0000;stroke:#AA0000;stroke-miterlimit:10;}
	.st3{font-size:12;}
	.st4{font-family:'MyriadPro-Bold';}
]]>
</style>
<g>
	<path class="st2" d="M14.73,18.55c-0.73,0.35-2.47,0.79-4.66,0.79c-6.31,0-9.57-3.96-9.57-9.16c0-6.23,4.44-9.67,9.97-9.67
		c2.14,0,3.77,0.41,4.5,0.81L14.1,4.56c-0.81-0.35-1.98-0.68-3.47-0.68c-3.25,0-5.8,1.98-5.8,6.04c0,3.66,2.17,5.96,5.83,5.96
		c1.27,0,2.63-0.24,3.47-0.6L14.73,18.55z"/>
	<path class="st2" d="M30.04,18.55c-0.73,0.35-2.47,0.79-4.66,0.79c-6.31,0-9.57-3.96-9.57-9.16c0-6.23,4.44-9.67,9.97-9.67
		c2.14,0,3.77,0.41,4.5,0.81l-0.87,3.25c-0.81-0.35-1.98-0.68-3.47-0.68c-3.25,0-5.8,1.98-5.8,6.04c0,3.66,2.17,5.96,5.83,5.96
		c1.27,0,2.63-0.24,3.47-0.6L30.04,18.55z"/>
	<path class="st2" d="M45.35,18.55c-0.73,0.35-2.47,0.79-4.66,0.79c-6.31,0-9.57-3.96-9.57-9.16c0-6.23,4.44-9.67,9.97-9.67
		c2.14,0,3.77,0.41,4.5,0.81l-0.87,3.25c-0.81-0.35-1.98-0.68-3.47-0.68c-3.25,0-5.8,1.98-5.8,6.04c0,3.66,2.17,5.96,5.83,5.96
		c1.27,0,2.63-0.24,3.47-0.6L45.35,18.55z"/>
	<path class="st1" d="M52.62,14.35l-1.3,4.69h-4.25l5.56-18.26h5.42l5.69,18.26h-4.47l-1.41-4.69H52.62z M57.25,11.26l-1.14-3.88
		c-0.32-1.08-0.65-2.44-0.92-3.52h-0.05c-0.27,1.08-0.54,2.47-0.84,3.52l-1.08,3.88H57.25z"/>
	<path class="st1" d="M81.59,12.04c-0.08-2.2-0.16-4.85-0.16-7.51h-0.05c-0.6,2.33-1.36,4.93-2.06,7.07l-2.22,7.13h-3.23l-1.95-7.05
		c-0.6-2.17-1.19-4.77-1.65-7.15h-0.05c-0.08,2.47-0.19,5.28-0.3,7.56l-0.35,6.94h-3.82L66.9,0.77h5.5l1.79,6.1
		c0.6,2.11,1.14,4.39,1.54,6.53h0.11c0.49-2.11,1.11-4.53,1.73-6.56l1.92-6.07h5.42l0.98,18.26h-4.01L81.59,12.04z"/>
	<path class="st1" d="M13.45,10.17c0-1.18,0.19-2.25,0.52-3.2c-0.75-0.74-1.79-1.2-2.93-1.2c-2.3,0-4.17,1.87-4.17,4.17
		s1.87,4.17,4.17,4.17c1.09,0,2.08-0.43,2.82-1.12C13.6,12.12,13.45,11.17,13.45,10.17z"/>
	<text transform="matrix(1 0 0 1 36.1709 29.7246)" class="st0 st4 st3">2.0.11-2892</text>
</g>
</svg>
