<?xml version="1.0" encoding="utf-8"?>
<!-- Generator: Adobe Illustrator 15.0.0, SVG Export Plug-In . SVG Version: 6.00 Build 0)  -->
<!DOCTYPE svg PUBLIC "-//W3C//DTD SVG 1.1//EN" "http://www.w3.org/Graphics/SVG/1.1/DTD/svg11.dtd">
<svg version="1.1" id="Layer_1" xmlns="http://www.w3.org/2000/svg" xmlns:xlink="http://www.w3.org/1999/xlink" x="0px" y="0px"
	 width="108.7px" height="15.6px" viewBox="0 0 108.7 15.6" style="enable-background:new 0 0 108.7 15.6;" xml:space="preserve">
<style type="text/css">
<![CDATA[
	.st0{fill:#181818;}
	.st1{fill:#AA0000;stroke:#AA0000;stroke-miterlimit:10;}
]]>
</style>
<g>
	<g>
		<path class="st0" d="M70.8,14.6v-1.1l0.6-0.9c1-1.5,1.5-2.4,1.6-3.3c0-0.6-0.2-1.1-0.8-1.1c-0.4,0-0.8,0.3-1,0.6l-0.3-1.3
			c0.4-0.4,0.9-0.8,1.5-0.8c1.1,0,1.7,1,1.7,2.4c0,1.3-0.6,2.3-1.3,3.3l-0.4,0.6v0h1.8v1.5H70.8z"/>
		<path class="st0" d="M74.9,13.7c0-0.7,0.3-1.1,0.7-1.1c0.4,0,0.6,0.4,0.7,1.1c0,0.6-0.3,1.1-0.7,1.1
			C75.2,14.8,74.9,14.3,74.9,13.7z"/>
		<path class="st0" d="M80.3,10.7c0,2.4-0.6,4-1.8,4c-1.2,0-1.8-1.8-1.8-4c0-2.2,0.6-4,1.8-4C79.8,6.8,80.3,8.6,80.3,10.7z
			 M77.8,10.8c0,1.8,0.3,2.6,0.7,2.6c0.4,0,0.7-0.9,0.7-2.6c0-1.7-0.2-2.6-0.7-2.6C78.1,8.2,77.8,9,77.8,10.8z"/>
		<path class="st0" d="M80.9,13.7c0-0.7,0.3-1.1,0.7-1.1c0.4,0,0.6,0.4,0.7,1.1c0,0.6-0.3,1.1-0.7,1.1
			C81.2,14.8,80.9,14.3,80.9,13.7z"/>
		<path class="st0" d="M84.1,8.5L84.1,8.5l-0.9,0.7L83,7.9l1.3-1h0.9v7.7h-1.1V8.5z"/>
		<path class="st0" d="M88.2,8.5L88.2,8.5l-0.9,0.7l-0.2-1.4l1.3-1h0.9v7.7h-1.1V8.5z"/>
		<path class="st0" d="M92.7,10.9v1.2h-1.9v-1.2H92.7z"/>
		<path class="st0" d="M93.2,14.6v-1.1l0.6-0.9c1-1.5,1.5-2.4,1.6-3.3c0-0.6-0.2-1.1-0.8-1.1c-0.4,0-0.8,0.3-1,0.6l-0.3-1.3
			c0.4-0.4,0.9-0.8,1.5-0.8c1.1,0,1.7,1,1.7,2.4c0,1.3-0.6,2.3-1.3,3.3l-0.4,0.6v0h1.8v1.5H93.2z"/>
		<path class="st0" d="M98,10.7c-0.5-0.4-0.7-1-0.7-1.7c0-1.3,0.7-2.2,1.7-2.2c1.1,0,1.6,1,1.6,2c0,0.7-0.2,1.3-0.7,1.7v0
			c0.5,0.3,0.9,0.9,0.9,1.9c0,1.4-0.7,2.4-1.8,2.4c-1.2,0-1.8-1.1-1.8-2.1C97.2,11.7,97.5,11.1,98,10.7L98,10.7z M99.6,12.6
			c0-0.7-0.3-1.1-0.7-1.3c-0.4,0.2-0.6,0.6-0.6,1.2c0,0.6,0.3,1.1,0.7,1.1C99.4,13.5,99.6,13.1,99.6,12.6z M98.4,8.9
			c0,0.5,0.3,0.9,0.7,1c0.3-0.1,0.5-0.5,0.5-1c0-0.5-0.2-1-0.6-1C98.6,8,98.4,8.4,98.4,8.9z"/>
		<path class="st0" d="M101.7,13.3c0.1,0,0.3,0,0.5,0c0.3,0,0.7-0.2,0.9-0.5c0.3-0.3,0.5-0.9,0.6-1.4l0,0c-0.2,0.4-0.5,0.6-1,0.6
			c-0.8,0-1.5-0.9-1.5-2.4s0.7-2.8,1.8-2.8c1.2,0,1.8,1.5,1.8,3.3c0,1.6-0.3,2.8-0.8,3.6c-0.5,0.7-1.1,1-1.8,1.1c-0.2,0-0.4,0-0.5,0
			V13.3z M102.3,9.5c0,0.7,0.2,1.2,0.7,1.2c0.3,0,0.5-0.2,0.6-0.5c0-0.1,0.1-0.2,0.1-0.5c0-0.8-0.2-1.6-0.7-1.6
			C102.6,8.1,102.3,8.7,102.3,9.5z"/>
		<path class="st0" d="M105.4,14.6v-1.1l0.6-0.9c1-1.5,1.5-2.4,1.6-3.3c0-0.6-0.2-1.1-0.8-1.1c-0.4,0-0.8,0.3-1,0.6l-0.3-1.3
			c0.4-0.4,0.9-0.8,1.5-0.8c1.1,0,1.7,1,1.7,2.4c0,1.3-0.6,2.3-1.3,3.3l-0.4,0.6v0h1.8v1.5H105.4z"/>
	</g>
	<path class="st1" d="M11.5,14.5c-0.6,0.3-1.9,0.6-3.6,0.6C3,15.1,0.5,12,0.5,8c0-4.8,3.4-7.5,7.7-7.5c1.7,0,2.9,0.3,3.5,0.6L11,3.6
		c-0.6-0.3-1.5-0.5-2.7-0.5c-2.5,0-4.5,1.5-4.5,4.7c0,2.8,1.7,4.6,4.5,4.6c1,0,2-0.2,2.7-0.5L11.5,14.5z"/>
	<path class="st1" d="M23.6,14.5c-0.6,0.3-1.9,0.6-3.6,0.6c-4.9,0-7.4-3.1-7.4-7.1c0-4.8,3.4-7.5,7.7-7.5c1.7,0,2.9,0.3,3.5,0.6
		l-0.7,2.5c-0.6-0.3-1.5-0.5-2.7-0.5c-2.5,0-4.5,1.5-4.5,4.7c0,2.8,1.7,4.6,4.5,4.6c1,0,2-0.2,2.7-0.5L23.6,14.5z"/>
	<path class="st1" d="M35.6,14.5c-0.6,0.3-1.9,0.6-3.6,0.6c-4.9,0-7.4-3.1-7.4-7.1c0-4.8,3.4-7.5,7.7-7.5c1.7,0,2.9,0.3,3.5,0.6
		l-0.7,2.5c-0.6-0.3-1.5-0.5-2.7-0.5c-2.5,0-4.5,1.5-4.5,4.7c0,2.8,1.7,4.6,4.5,4.6c1,0,2-0.2,2.7-0.5L35.6,14.5z"/>
	<path class="st0" d="M46.1,12.4c0,1,0,1.9,0.2,2.5h-2.9l-0.2-1h-0.1c-0.7,0.8-1.7,1.3-2.9,1.3c-2.1,0-3.3-1.5-3.3-3.1
		c0-2.7,2.4-3.9,6-3.9V7.9c0-0.6-0.3-1.3-1.9-1.3c-1,0-2.2,0.4-2.8,0.8l-0.6-2.1c0.7-0.4,2.1-0.9,4-0.9c3.4,0,4.5,2,4.5,4.5V12.4z
		 M43,10c-1.7,0-3,0.4-3,1.6c0,0.8,0.5,1.2,1.3,1.2c0.8,0,1.4-0.5,1.7-1.2c0-0.2,0.1-0.4,0.1-0.5V10z"/>
	<path class="st0" d="M48.8,7.9c0-1.3,0-2.4-0.1-3.3h2.7L51.6,6h0.1c0.4-0.7,1.4-1.6,3.1-1.6c1.3,0,2.4,0.7,2.8,1.8h0
		c0.4-0.5,0.8-1,1.3-1.3c0.6-0.3,1.2-0.5,2-0.5c2,0,3.5,1.4,3.5,4.5v6h-3.1V9.3c0-1.5-0.5-2.4-1.5-2.4c-0.8,0-1.3,0.5-1.5,1.1
		c-0.1,0.2-0.1,0.5-0.1,0.8v6H55V9.1c0-1.3-0.5-2.2-1.5-2.2c-0.8,0-1.3,0.6-1.5,1.1c-0.1,0.3-0.1,0.5-0.1,0.8v6h-3.1V7.9z"/>
	<path class="st0" d="M11,8c0-0.9,0.1-1.7,0.3-2.4c-0.6-0.7-1.5-1.2-2.6-1.2c-1.9,0-3.4,1.5-3.4,3.4c0,1.9,1.5,3.4,3.4,3.4
		c1,0,1.9-0.4,2.5-1.1C11,9.5,11,8.7,11,8z"/>
</g>
</svg>
