<?xml version="1.0" encoding="utf-8"?>
<!-- Generator: Adobe Illustrator 15.0.0, SVG Export Plug-In . SVG Version: 6.00 Build 0)  -->
<!DOCTYPE svg PUBLIC "-//W3C//DTD SVG 1.1//EN" "http://www.w3.org/Graphics/SVG/1.1/DTD/svg11.dtd">
<svg version="1.1" id="Layer_1" xmlns="http://www.w3.org/2000/svg" xmlns:xlink="http://www.w3.org/1999/xlink" x="0px" y="0px"
	 width="111px" height="23px" viewBox="0 0 111 23" style="enable-background:new 0 0 111 23;" xml:space="preserve">
<style type="text/css">
<![CDATA[
	.st0{fill:#AA0000;stroke:#AA0000;stroke-width:0.25;stroke-miterlimit:10;}
	.st1{fill:#565656;}
	.st2{fill:#AA0000;stroke:#AA0000;stroke-miterlimit:10;}
]]>
</style>
<path class="st2" d="M12.4,18.3c-0.6,0.3-1.9,0.6-3.7,0.6c-4.9,0-7.5-3.1-7.5-7.2c0-4.9,3.5-7.6,7.8-7.6c1.7,0,3,0.3,3.5,0.6
	l-0.7,2.5C11.3,7,10.4,6.8,9.2,6.8c-2.5,0-4.5,1.5-4.5,4.7c0,2.9,1.7,4.7,4.6,4.7c1,0,2.1-0.2,2.7-0.5L12.4,18.3z"/>
<path class="st2" d="M24.4,18.3c-0.6,0.3-1.9,0.6-3.7,0.6c-4.9,0-7.5-3.1-7.5-7.2c0-4.9,3.5-7.6,7.8-7.6c1.7,0,3,0.3,3.5,0.6
	l-0.7,2.5c-0.6-0.3-1.6-0.5-2.7-0.5c-2.5,0-4.5,1.5-4.5,4.7c0,2.9,1.7,4.7,4.6,4.7c1,0,2.1-0.2,2.7-0.5L24.4,18.3z"/>
<path class="st2" d="M36.4,18.3c-0.6,0.3-1.9,0.6-3.7,0.6c-4.9,0-7.5-3.1-7.5-7.2c0-4.9,3.5-7.6,7.8-7.6c1.7,0,3,0.3,3.5,0.6
	l-0.7,2.5c-0.6-0.3-1.6-0.5-2.7-0.5c-2.5,0-4.5,1.5-4.5,4.7c0,2.9,1.7,4.7,4.6,4.7c1,0,2.1-0.2,2.7-0.5L36.4,18.3z"/>
<path class="st1" d="M42.1,15l-1,3.7h-3.3l4.4-14.3h4.2l4.5,14.3h-3.5L46.2,15H42.1z M45.8,12.6l-0.9-3c-0.3-0.9-0.5-1.9-0.7-2.8h0
	c-0.2,0.8-0.4,1.9-0.7,2.8l-0.8,3H45.8z"/>
<path class="st1" d="M64.8,13.2c-0.1-1.7-0.1-3.8-0.1-5.9h0c-0.5,1.8-1.1,3.9-1.6,5.5l-1.7,5.6h-2.5l-1.5-5.5
	c-0.5-1.7-0.9-3.7-1.3-5.6h0c-0.1,1.9-0.1,4.1-0.2,5.9l-0.3,5.4h-3l0.9-14.3h4.3L59,9.1c0.5,1.7,0.9,3.4,1.2,5.1h0.1
	c0.4-1.7,0.9-3.5,1.4-5.1l1.5-4.8h4.2l0.8,14.3h-3.1L64.8,13.2z"/>
<path class="st1" d="M11.4,11.7c0-0.9,0.1-1.8,0.4-2.5c-0.6-0.6-1.4-0.9-2.3-0.9c-1.8,0-3.3,1.5-3.3,3.3c0,1.8,1.5,3.3,3.3,3.3
	c0.9,0,1.6-0.3,2.2-0.9C11.5,13.2,11.4,12.5,11.4,11.7z"/>
<g>
	<path class="st0" d="M71.6,18.4v-1.1l0.6-0.9c1-1.5,1.5-2.4,1.6-3.3c0-0.6-0.2-1.1-0.8-1.1c-0.4,0-0.8,0.3-1,0.6l-0.3-1.3
		c0.4-0.4,0.9-0.8,1.5-0.8c1.1,0,1.7,1,1.7,2.4c0,1.3-0.6,2.3-1.3,3.3l-0.4,0.6v0h1.8v1.5H71.6z"/>
	<path class="st0" d="M75.7,17.5c0-0.7,0.3-1.1,0.7-1.1c0.4,0,0.6,0.4,0.7,1.1c0,0.6-0.3,1.1-0.7,1.1C75.9,18.6,75.7,18.1,75.7,17.5
		z"/>
	<path class="st0" d="M81,14.5c0,2.4-0.6,4-1.8,4c-1.2,0-1.8-1.8-1.8-4c0-2.2,0.6-4,1.8-4C80.5,10.6,81,12.4,81,14.5z M78.6,14.6
		c0,1.8,0.3,2.6,0.7,2.6c0.4,0,0.7-0.9,0.7-2.6c0-1.7-0.2-2.6-0.7-2.6C78.8,11.9,78.6,12.8,78.6,14.6z"/>
	<path class="st0" d="M81.6,17.5c0-0.7,0.3-1.1,0.7-1.1c0.4,0,0.6,0.4,0.7,1.1c0,0.6-0.3,1.1-0.7,1.1C81.9,18.6,81.6,18.1,81.6,17.5
		z"/>
	<path class="st0" d="M84.9,12.3L84.9,12.3L84,13l-0.2-1.4l1.3-1H86v7.7h-1.1V12.3z"/>
	<path class="st0" d="M89,12.3L89,12.3L88,13l-0.2-1.4l1.3-1H90v7.7H89V12.3z"/>
	<path class="st0" d="M93.4,14.7v1.2h-1.9v-1.2H93.4z"/>
	<path class="st0" d="M94,18.4v-1.1l0.6-0.9c1-1.5,1.5-2.4,1.6-3.3c0-0.6-0.2-1.1-0.8-1.1c-0.4,0-0.8,0.3-1,0.6L94,11.4
		c0.4-0.4,0.9-0.8,1.5-0.8c1.1,0,1.7,1,1.7,2.4c0,1.3-0.6,2.3-1.3,3.3l-0.4,0.6v0h1.8v1.5H94z"/>
	<path class="st0" d="M98.8,14.5c-0.5-0.4-0.7-1-0.7-1.7c0-1.3,0.7-2.2,1.7-2.2c1.1,0,1.6,1,1.6,2c0,0.7-0.2,1.3-0.7,1.7v0
		c0.5,0.3,0.9,0.9,0.9,1.9c0,1.4-0.7,2.4-1.8,2.4c-1.2,0-1.8-1.1-1.8-2.1C97.9,15.5,98.3,14.8,98.8,14.5L98.8,14.5z M100.4,16.4
		c0-0.7-0.3-1.1-0.7-1.3c-0.4,0.2-0.6,0.6-0.6,1.2c0,0.6,0.3,1.1,0.7,1.1C100.1,17.3,100.4,16.9,100.4,16.4z M99.1,12.7
		c0,0.5,0.3,0.9,0.7,1c0.3-0.1,0.5-0.5,0.5-1c0-0.5-0.2-1-0.6-1C99.3,11.8,99.1,12.2,99.1,12.7z"/>
	<path class="st0" d="M102.4,17.1c0.1,0,0.3,0,0.5,0c0.3,0,0.7-0.2,0.9-0.5c0.3-0.3,0.5-0.9,0.6-1.4l0,0c-0.2,0.4-0.5,0.6-1,0.6
		c-0.8,0-1.5-0.9-1.5-2.4s0.7-2.8,1.8-2.8c1.2,0,1.8,1.5,1.8,3.3c0,1.6-0.3,2.8-0.8,3.6c-0.5,0.7-1.1,1-1.8,1.1c-0.2,0-0.4,0-0.5,0
		V17.1z M103.1,13.3c0,0.7,0.2,1.2,0.7,1.2c0.3,0,0.5-0.2,0.6-0.5c0-0.1,0.1-0.2,0.1-0.5c0-0.8-0.2-1.6-0.7-1.6
		C103.3,11.9,103.1,12.4,103.1,13.3z"/>
	<path class="st0" d="M106.1,18.4v-1.1l0.6-0.9c1-1.5,1.5-2.4,1.6-3.3c0-0.6-0.2-1.1-0.8-1.1c-0.4,0-0.8,0.3-1,0.6l-0.3-1.3
		c0.4-0.4,0.9-0.8,1.5-0.8c1.1,0,1.7,1,1.7,2.4c0,1.3-0.6,2.3-1.3,3.3l-0.4,0.6v0h1.8v1.5H106.1z"/>
</g>
</svg>
