<?xml version="1.0" encoding="utf-8"?>
<!-- Generator: Adobe Illustrator 15.0.0, SVG Export Plug-In . SVG Version: 6.00 Build 0)  -->
<!DOCTYPE svg PUBLIC "-//W3C//DTD SVG 1.1//EN" "http://www.w3.org/Graphics/SVG/1.1/DTD/svg11.dtd">
<svg version="1.1" id="Layer_1" xmlns="http://www.w3.org/2000/svg" xmlns:xlink="http://www.w3.org/1999/xlink" x="0px" y="0px"
	 width="111px" height="23px" viewBox="0 0 111 23" style="enable-background:new 0 0 111 23;" xml:space="preserve">
<style type="text/css">
<![CDATA[
	.st0{fill:#AA0000;}
	.st1{fill:#565656;}
	.st2{fill:#AA0000;stroke:#AA0000;stroke-miterlimit:10;}
]]>
</style>
<path class="st2" d="M14.42,18.27c-0.57,0.27-1.93,0.61-3.65,0.61c-4.95,0-7.5-3.1-7.5-7.18c0-4.89,3.48-7.58,7.82-7.58
	c1.68,0,2.95,0.32,3.53,0.64L13.93,7.3c-0.64-0.28-1.55-0.53-2.72-0.53c-2.55,0-4.55,1.55-4.55,4.73c0,2.87,1.7,4.67,4.57,4.67
	c1,0,2.06-0.19,2.72-0.47L14.42,18.27z"/>
<path class="st2" d="M26.42,18.27c-0.57,0.27-1.93,0.61-3.65,0.61c-4.95,0-7.5-3.1-7.5-7.18c0-4.89,3.48-7.58,7.82-7.58
	c1.68,0,2.95,0.32,3.53,0.64L25.94,7.3c-0.64-0.28-1.55-0.53-2.72-0.53c-2.55,0-4.55,1.55-4.55,4.73c0,2.87,1.7,4.67,4.57,4.67
	c1,0,2.06-0.19,2.72-0.47L26.42,18.27z"/>
<path class="st2" d="M38.43,18.27c-0.57,0.27-1.93,0.61-3.65,0.61c-4.95,0-7.5-3.1-7.5-7.18c0-4.89,3.48-7.58,7.82-7.58
	c1.68,0,2.95,0.32,3.53,0.64L37.94,7.3c-0.64-0.28-1.55-0.53-2.72-0.53c-2.55,0-4.55,1.55-4.55,4.73c0,2.87,1.7,4.67,4.57,4.67
	c1,0,2.06-0.19,2.72-0.47L38.43,18.27z"/>
<path class="st1" d="M44.12,14.97l-1.02,3.67h-3.33l4.35-14.32h4.25l4.46,14.32h-3.5l-1.1-3.67H44.12z M47.75,12.55l-0.89-3.04
	c-0.25-0.85-0.51-1.91-0.72-2.76H46.1c-0.21,0.85-0.42,1.93-0.66,2.76l-0.85,3.04H47.75z"/>
<path class="st1" d="M66.83,13.17c-0.07-1.72-0.13-3.8-0.13-5.88h-0.04c-0.47,1.83-1.06,3.87-1.61,5.54l-1.74,5.59h-2.53l-1.53-5.52
	c-0.47-1.7-0.93-3.74-1.29-5.61h-0.04c-0.06,1.93-0.15,4.14-0.23,5.93l-0.28,5.44H54.4l0.92-14.32h4.31l1.4,4.78
	c0.47,1.66,0.89,3.44,1.21,5.12h0.08c0.38-1.66,0.87-3.55,1.36-5.14l1.51-4.76h4.25l0.77,14.32h-3.15L66.83,13.17z"/>
<path class="st1" d="M13.42,11.7c0-0.93,0.15-1.76,0.41-2.51c-0.59-0.58-1.4-0.94-2.29-0.94c-1.81,0-3.27,1.46-3.27,3.27
	c0,1.81,1.46,3.27,3.27,3.27c0.86,0,1.63-0.33,2.21-0.88C13.54,13.23,13.42,12.49,13.42,11.7z"/>
<g>
	<path class="st0" d="M75.29,18.65v-0.88l0.51-0.71c0.88-1.22,1.31-1.91,1.31-2.63c0-0.5-0.19-0.9-0.65-0.9
		c-0.35,0-0.65,0.27-0.86,0.5L75.34,13c0.3-0.35,0.77-0.64,1.31-0.64c0.91,0,1.41,0.82,1.41,1.93c0,1.04-0.48,1.87-1.07,2.67
		l-0.37,0.48v0.02h1.52v1.19H75.29z"/>
	<path class="st0" d="M78.76,17.88c0-0.52,0.23-0.88,0.55-0.88c0.32,0,0.54,0.35,0.55,0.88c0,0.5-0.22,0.87-0.56,0.87
		C78.99,18.75,78.76,18.38,78.76,17.88z"/>
	<path class="st0" d="M83.27,15.53c0,1.9-0.5,3.22-1.52,3.22c-1.04,0-1.49-1.44-1.5-3.18c0-1.8,0.49-3.2,1.52-3.2
		C82.85,12.36,83.27,13.84,83.27,15.53z M81.19,15.57c0,1.42,0.22,2.09,0.58,2.09c0.36,0,0.56-0.7,0.56-2.11
		c0-1.37-0.19-2.09-0.57-2.09C81.43,13.46,81.19,14.12,81.19,15.57z"/>
	<path class="st0" d="M83.78,17.88c0-0.52,0.23-0.88,0.55-0.88c0.32,0,0.54,0.35,0.55,0.88c0,0.5-0.22,0.87-0.56,0.87
		C84.01,18.75,83.78,18.38,83.78,17.88z"/>
	<path class="st0" d="M86.53,13.75h-0.01l-0.76,0.56l-0.15-1.08l1.07-0.76h0.77v6.18h-0.91V13.75z"/>
	<path class="st0" d="M89.95,13.75h-0.01l-0.76,0.56l-0.15-1.08l1.07-0.76h0.77v6.18h-0.91V13.75z"/>
	<path class="st0" d="M93.72,15.67v0.96H92.1v-0.96H93.72z"/>
	<path class="st0" d="M94.17,18.65v-0.88l0.51-0.71c0.88-1.22,1.31-1.91,1.31-2.63c0-0.5-0.19-0.9-0.65-0.9
		c-0.35,0-0.65,0.27-0.86,0.5L94.22,13c0.3-0.35,0.77-0.64,1.31-0.64c0.91,0,1.41,0.82,1.41,1.93c0,1.04-0.48,1.87-1.07,2.67
		l-0.37,0.48v0.02h1.52v1.19H94.17z"/>
	<path class="st0" d="M98.24,15.46c-0.39-0.31-0.58-0.82-0.58-1.36c0-1.05,0.61-1.74,1.41-1.74c0.94,0,1.33,0.84,1.33,1.59
		c0,0.53-0.19,1.06-0.59,1.36v0.03c0.39,0.23,0.74,0.74,0.74,1.53c0,1.12-0.61,1.88-1.54,1.88c-1.02,0-1.49-0.88-1.49-1.72
		c0-0.74,0.28-1.25,0.71-1.55V15.46z M99.6,16.98c0-0.54-0.26-0.86-0.63-1.02c-0.31,0.13-0.49,0.48-0.49,0.92
		c-0.01,0.45,0.22,0.87,0.57,0.87C99.37,17.75,99.6,17.42,99.6,16.98z M98.55,14.06c0,0.42,0.24,0.68,0.56,0.84
		c0.22-0.09,0.41-0.4,0.41-0.78c0-0.39-0.14-0.77-0.49-0.77C98.71,13.34,98.55,13.68,98.55,14.06z"/>
	<path class="st0" d="M101.3,17.61c0.12,0.02,0.22,0.01,0.41,0c0.29-0.03,0.58-0.15,0.79-0.38c0.27-0.28,0.44-0.68,0.51-1.15
		l-0.01-0.01c-0.18,0.29-0.44,0.45-0.81,0.45c-0.68,0-1.25-0.72-1.25-1.93c0-1.21,0.63-2.22,1.51-2.22c1.03,0,1.52,1.22,1.52,2.66
		c0,1.29-0.27,2.22-0.7,2.85c-0.38,0.53-0.91,0.82-1.54,0.86c-0.15,0.02-0.32,0.01-0.42,0V17.61z M101.86,14.5
		c0,0.53,0.19,0.99,0.57,0.99c0.26,0,0.44-0.18,0.52-0.4C102.99,15,103,14.9,103,14.72c0.01-0.66-0.15-1.3-0.59-1.3
		C102.09,13.42,101.86,13.86,101.86,14.5z"/>
	<path class="st0" d="M104.43,18.65v-0.88l0.51-0.71c0.88-1.22,1.31-1.91,1.31-2.63c0-0.5-0.19-0.9-0.65-0.9
		c-0.35,0-0.65,0.27-0.86,0.5L104.48,13c0.3-0.35,0.77-0.64,1.31-0.64c0.91,0,1.41,0.82,1.41,1.93c0,1.04-0.48,1.87-1.07,2.67
		l-0.37,0.48v0.02h1.52v1.19H104.43z"/>
</g>
</svg>
