<?xml version="1.0" encoding="utf-8"?>
<!-- Generator: Adobe Illustrator 15.0.0, SVG Export Plug-In . SVG Version: 6.00 Build 0)  -->
<!DOCTYPE svg PUBLIC "-//W3C//DTD SVG 1.1//EN" "http://www.w3.org/Graphics/SVG/1.1/DTD/svg11.dtd">
<svg version="1.1" id="Layer_1" xmlns="http://www.w3.org/2000/svg" xmlns:xlink="http://www.w3.org/1999/xlink" x="0px" y="0px"
	 width="111px" height="51px" viewBox="0 0 111 51" style="enable-background:new 0 0 111 51;" xml:space="preserve">
<style type="text/css">
<![CDATA[
	.st0{fill:#AA0000;}
	.st1{fill:#565656;}
	.st2{fill:#AA0000;stroke:#AA0000;stroke-miterlimit:10;}
]]>
</style>
<path class="st2" d="M16.3,27.65c-0.81,0.39-2.74,0.87-5.18,0.87c-7.01,0-10.62-4.39-10.62-10.17c0-6.92,4.93-10.74,11.07-10.74
	c2.38,0,4.18,0.45,5,0.9l-0.96,3.61c-0.9-0.39-2.2-0.75-3.85-0.75c-3.61,0-6.44,2.2-6.44,6.71c0,4.06,2.41,6.62,6.47,6.62
	c1.42,0,2.92-0.27,3.85-0.66L16.3,27.65z"/>
<path class="st2" d="M33.31,27.65c-0.81,0.39-2.74,0.87-5.18,0.87c-7.01,0-10.62-4.39-10.62-10.17c0-6.92,4.94-10.74,11.08-10.74
	c2.38,0,4.18,0.45,5,0.9l-0.96,3.61c-0.9-0.39-2.2-0.75-3.85-0.75c-3.61,0-6.44,2.2-6.44,6.71c0,4.06,2.41,6.62,6.47,6.62
	c1.42,0,2.92-0.27,3.85-0.66L33.31,27.65z"/>
<path class="st2" d="M50.31,27.65c-0.81,0.39-2.74,0.87-5.17,0.87c-7.01,0-10.62-4.39-10.62-10.17c0-6.92,4.94-10.74,11.08-10.74
	c2.38,0,4.18,0.45,5,0.9l-0.96,3.61c-0.9-0.39-2.2-0.75-3.85-0.75c-3.61,0-6.44,2.2-6.44,6.71c0,4.06,2.41,6.62,6.47,6.62
	c1.42,0,2.92-0.27,3.85-0.66L50.31,27.65z"/>
<path class="st1" d="M58.38,22.99l-1.44,5.21h-4.72l6.17-20.28h6.02l6.32,20.28h-4.96l-1.57-5.21H58.38z M63.52,19.55l-1.26-4.3
	c-0.36-1.21-0.72-2.71-1.02-3.91h-0.06c-0.3,1.2-0.6,2.74-0.93,3.91l-1.2,4.3H63.52z"/>
<path class="st1" d="M90.55,20.43c-0.09-2.44-0.18-5.39-0.18-8.34h-0.06c-0.66,2.59-1.5,5.48-2.29,7.86l-2.47,7.91h-3.58l-2.17-7.82
	c-0.66-2.41-1.32-5.3-1.84-7.95h-0.06c-0.09,2.74-0.21,5.87-0.33,8.4l-0.39,7.7h-4.24l1.3-20.28h6.11l1.99,6.77
	c0.66,2.35,1.26,4.88,1.72,7.25h0.12c0.54-2.35,1.23-5.03,1.93-7.28l2.13-6.74h6.02l1.08,20.28h-4.46L90.55,20.43z"/>
<path class="st1" d="M14.88,18.34c0-1.31,0.21-2.5,0.58-3.55c-0.84-0.82-1.98-1.34-3.25-1.34c-2.56,0-4.63,2.08-4.63,4.63
	s2.08,4.63,4.63,4.63c1.21,0,2.31-0.48,3.13-1.24C15.05,20.51,14.88,19.46,14.88,18.34z"/>
<g>
	<path class="st0" d="M34.81,41v-1.33l1.2-1.08c2.07-1.85,3.06-2.9,3.08-4c0-0.77-0.45-1.37-1.53-1.37c-0.81,0-1.52,0.41-2.01,0.77
		l-0.62-1.56c0.69-0.54,1.81-0.97,3.06-0.97c2.14,0,3.29,1.24,3.29,2.93c0,1.59-1.13,2.85-2.5,4.06l-0.87,0.72v0.03h3.55V41H34.81z"
		/>
	<path class="st0" d="M42.93,39.83c0-0.79,0.53-1.34,1.3-1.34c0.75,0,1.27,0.54,1.29,1.34c0,0.77-0.52,1.33-1.31,1.33
		C43.47,41.16,42.93,40.6,42.93,39.83z"/>
	<path class="st0" d="M53.51,36.26c0,2.89-1.17,4.9-3.55,4.9c-2.43,0-3.5-2.18-3.51-4.84c0-2.73,1.14-4.87,3.57-4.87
		C52.51,31.45,53.51,33.69,53.51,36.26z M48.64,36.32c0,2.15,0.52,3.18,1.36,3.18c0.85,0,1.31-1.07,1.31-3.21
		c0-2.08-0.45-3.18-1.33-3.18C49.19,33.11,48.64,34.12,48.64,36.32z"/>
	<path class="st0" d="M54.71,39.83c0-0.79,0.53-1.34,1.3-1.34c0.75,0,1.27,0.54,1.29,1.34c0,0.77-0.52,1.33-1.31,1.33
		C55.24,41.16,54.71,40.6,54.71,39.83z"/>
	<path class="st0" d="M61.15,33.56h-0.03l-1.79,0.85l-0.36-1.65l2.5-1.16h1.81V41h-2.12V33.56z"/>
	<path class="st0" d="M69.17,33.56h-0.03l-1.79,0.85l-0.36-1.65l2.5-1.16h1.81V41h-2.12V33.56z"/>
	<path class="st0" d="M78,36.48v1.46h-3.79v-1.46H78z"/>
	<path class="st0" d="M79.05,41v-1.33l1.2-1.08c2.07-1.85,3.06-2.9,3.08-4c0-0.77-0.45-1.37-1.53-1.37c-0.81,0-1.52,0.41-2.01,0.77
		l-0.62-1.56c0.69-0.54,1.81-0.97,3.06-0.97c2.14,0,3.29,1.24,3.29,2.93c0,1.59-1.13,2.85-2.5,4.06l-0.87,0.72v0.03h3.55V41H79.05z"
		/>
	<path class="st0" d="M88.58,36.16c-0.91-0.48-1.36-1.24-1.36-2.07c0-1.59,1.43-2.64,3.31-2.64c2.2,0,3.11,1.27,3.11,2.41
		c0,0.81-0.43,1.6-1.37,2.07v0.04C93.19,36.32,94,37.1,94,38.3c0,1.71-1.43,2.86-3.61,2.86c-2.38,0-3.48-1.34-3.48-2.62
		c0-1.13,0.65-1.91,1.68-2.36V36.16z M91.76,38.47c0-0.82-0.62-1.32-1.47-1.55c-0.72,0.2-1.14,0.72-1.14,1.4
		c-0.01,0.68,0.51,1.31,1.33,1.31C91.24,39.64,91.76,39.14,91.76,38.47z M89.31,34.02c0,0.64,0.56,1.04,1.31,1.27
		c0.51-0.14,0.95-0.61,0.95-1.18c0-0.59-0.33-1.17-1.14-1.17C89.68,32.94,89.31,33.44,89.31,34.02z"/>
	<path class="st0" d="M95.75,39.42c0.29,0.03,0.52,0.01,0.95,0c0.68-0.04,1.36-0.23,1.85-0.58c0.62-0.42,1.03-1.04,1.18-1.75
		l-0.03-0.01c-0.42,0.43-1.04,0.68-1.89,0.68c-1.59,0-2.92-1.1-2.92-2.93s1.47-3.38,3.54-3.38c2.41,0,3.55,1.85,3.55,4.05
		c0,1.97-0.62,3.38-1.65,4.33c-0.9,0.81-2.14,1.24-3.6,1.3c-0.36,0.03-0.75,0.01-1,0V39.42z M97.08,34.7c0,0.81,0.45,1.5,1.33,1.5
		c0.61,0,1.03-0.27,1.23-0.61c0.07-0.14,0.1-0.29,0.1-0.56c0.01-1-0.36-1.98-1.39-1.98C97.61,33.05,97.08,33.72,97.08,34.7z"/>
	<path class="st0" d="M103.1,41v-1.33l1.2-1.08c2.07-1.85,3.06-2.9,3.08-4c0-0.77-0.45-1.37-1.53-1.37c-0.81,0-1.52,0.41-2.01,0.77
		l-0.62-1.56c0.69-0.54,1.81-0.97,3.06-0.97c2.14,0,3.29,1.24,3.29,2.93c0,1.59-1.13,2.85-2.5,4.06l-0.87,0.72v0.03h3.55V41H103.1z"
		/>
</g>
</svg>
