<?xml version="1.0" encoding="utf-8"?>
<!-- Generator: Adobe Illustrator 15.0.0, SVG Export Plug-In . SVG Version: 6.00 Build 0)  -->
<!DOCTYPE svg PUBLIC "-//W3C//DTD SVG 1.1//EN" "http://www.w3.org/Graphics/SVG/1.1/DTD/svg11.dtd">
<svg version="1.1" id="Layer_1" xmlns="http://www.w3.org/2000/svg" xmlns:xlink="http://www.w3.org/1999/xlink" x="0px" y="0px"
	 width="99.55px" height="32.72px" viewBox="0 0 99.55 32.72" style="enable-background:new 0 0 99.55 32.72;" xml:space="preserve"
	>
<style type="text/css">
<![CDATA[
	.st0{fill:#AA0000;}
	.st1{fill:#565656;}
	.st2{fill:#AA0000;stroke:#AA0000;stroke-miterlimit:10;}
]]>
</style>
<path class="st2" d="M14.73,18.55c-0.73,0.35-2.47,0.79-4.66,0.79c-6.31,0-9.57-3.96-9.57-9.16c0-6.23,4.44-9.67,9.97-9.67
	c2.14,0,3.77,0.41,4.5,0.81L14.1,4.56c-0.81-0.35-1.98-0.68-3.47-0.68c-3.25,0-5.8,1.98-5.8,6.04c0,3.66,2.17,5.96,5.83,5.96
	c1.27,0,2.63-0.24,3.47-0.6L14.73,18.55z"/>
<path class="st2" d="M30.04,18.55c-0.73,0.35-2.47,0.79-4.66,0.79c-6.31,0-9.57-3.96-9.57-9.16c0-6.23,4.44-9.67,9.97-9.67
	c2.14,0,3.77,0.41,4.5,0.81l-0.87,3.25c-0.81-0.35-1.98-0.68-3.47-0.68c-3.25,0-5.8,1.98-5.8,6.04c0,3.66,2.17,5.96,5.83,5.96
	c1.27,0,2.63-0.24,3.47-0.6L30.04,18.55z"/>
<path class="st2" d="M45.35,18.55c-0.73,0.35-2.47,0.79-4.66,0.79c-6.31,0-9.57-3.96-9.57-9.16c0-6.23,4.44-9.67,9.97-9.67
	c2.14,0,3.77,0.41,4.5,0.81l-0.87,3.25c-0.81-0.35-1.98-0.68-3.47-0.68c-3.25,0-5.8,1.98-5.8,6.04c0,3.66,2.17,5.96,5.83,5.96
	c1.27,0,2.63-0.24,3.47-0.6L45.35,18.55z"/>
<path class="st1" d="M52.62,14.35l-1.3,4.69h-4.25l5.56-18.26h5.42l5.69,18.26h-4.47l-1.41-4.69H52.62z M57.25,11.26l-1.14-3.88
	c-0.32-1.08-0.65-2.44-0.92-3.52h-0.05c-0.27,1.08-0.54,2.47-0.84,3.52l-1.08,3.88H57.25z"/>
<path class="st1" d="M81.59,12.04c-0.08-2.2-0.16-4.85-0.16-7.51h-0.05c-0.6,2.33-1.36,4.93-2.06,7.07l-2.22,7.13h-3.23l-1.95-7.05
	c-0.6-2.17-1.19-4.77-1.65-7.15h-0.05c-0.08,2.47-0.19,5.28-0.3,7.56l-0.35,6.94h-3.82L66.9,0.77h5.5l1.79,6.1
	c0.6,2.11,1.14,4.39,1.54,6.53h0.11c0.49-2.11,1.11-4.53,1.73-6.56l1.92-6.07h5.42l0.98,18.26h-4.01L81.59,12.04z"/>
<path class="st1" d="M13.45,10.17c0-1.18,0.19-2.25,0.52-3.2c-0.75-0.74-1.79-1.2-2.93-1.2c-2.3,0-4.17,1.87-4.17,4.17
	s1.87,4.17,4.17,4.17c1.09,0,2.08-0.43,2.82-1.12C13.6,12.12,13.45,11.17,13.45,10.17z"/>
<g>
	<path class="st0" d="M36.69,29.72v-1.1l1-0.9c1.71-1.54,2.54-2.41,2.55-3.32c0-0.64-0.37-1.14-1.27-1.14
		c-0.67,0-1.26,0.34-1.67,0.64l-0.52-1.29c0.58-0.44,1.5-0.8,2.54-0.8c1.77,0,2.73,1.03,2.73,2.44c0,1.32-0.94,2.36-2.07,3.37
		l-0.72,0.6v0.02h2.95v1.5H36.69z"/>
	<path class="st0" d="M43.43,28.75c0-0.66,0.44-1.12,1.08-1.12c0.62,0,1.06,0.44,1.07,1.12c0,0.63-0.43,1.1-1.09,1.1
		C43.87,29.86,43.43,29.39,43.43,28.75z"/>
	<path class="st0" d="M52.21,25.79c0,2.4-0.97,4.07-2.95,4.07c-2.01,0-2.9-1.81-2.91-4.02c0-2.27,0.95-4.04,2.96-4.04
		C51.38,21.8,52.21,23.66,52.21,25.79z M48.17,25.84c0,1.79,0.43,2.64,1.13,2.64c0.71,0,1.09-0.89,1.09-2.66
		c0-1.73-0.37-2.64-1.1-2.64C48.63,23.18,48.17,24.02,48.17,25.84z"/>
	<path class="st0" d="M53.21,28.75c0-0.66,0.44-1.12,1.08-1.12c0.62,0,1.06,0.44,1.07,1.12c0,0.63-0.43,1.1-1.09,1.1
		C53.65,29.86,53.21,29.39,53.21,28.75z"/>
	<path class="st0" d="M58.56,23.55h-0.02l-1.49,0.71l-0.3-1.37l2.07-0.96h1.5v7.79h-1.76V23.55z"/>
	<path class="st0" d="M65.22,23.55H65.2l-1.49,0.71l-0.3-1.37l2.07-0.96h1.5v7.79h-1.76V23.55z"/>
	<path class="st0" d="M72.55,25.97v1.21h-3.14v-1.21H72.55z"/>
	<path class="st0" d="M73.43,29.72v-1.1l1-0.9c1.71-1.54,2.54-2.41,2.55-3.32c0-0.64-0.37-1.14-1.27-1.14
		c-0.67,0-1.26,0.34-1.67,0.64l-0.52-1.29c0.58-0.44,1.5-0.8,2.54-0.8c1.78,0,2.73,1.03,2.73,2.44c0,1.32-0.94,2.36-2.07,3.37
		l-0.72,0.6v0.02h2.95v1.5H73.43z"/>
	<path class="st0" d="M81.35,25.71c-0.76-0.4-1.13-1.03-1.13-1.71c0-1.32,1.19-2.2,2.75-2.2c1.82,0,2.58,1.06,2.58,2
		c0,0.67-0.36,1.33-1.14,1.71v0.04c0.77,0.29,1.44,0.94,1.44,1.93c0,1.42-1.19,2.38-3,2.38c-1.98,0-2.89-1.12-2.89-2.17
		c0-0.93,0.54-1.58,1.39-1.95V25.71z M83.99,27.63c0-0.68-0.52-1.09-1.22-1.28c-0.6,0.17-0.95,0.6-0.95,1.16
		c-0.01,0.56,0.42,1.09,1.1,1.09C83.56,28.6,83.99,28.18,83.99,27.63z M81.95,23.93c0,0.53,0.47,0.86,1.09,1.06
		c0.42-0.12,0.79-0.5,0.79-0.98c0-0.49-0.28-0.97-0.95-0.97C82.26,23.03,81.95,23.45,81.95,23.93z"/>
	<path class="st0" d="M87.3,28.42c0.24,0.02,0.43,0.01,0.79,0c0.56-0.04,1.13-0.19,1.54-0.48c0.52-0.35,0.85-0.86,0.98-1.45
		l-0.02-0.01c-0.35,0.36-0.86,0.56-1.57,0.56c-1.32,0-2.42-0.91-2.42-2.44s1.22-2.81,2.94-2.81c2,0,2.95,1.54,2.95,3.36
		c0,1.63-0.52,2.81-1.37,3.6c-0.74,0.67-1.77,1.03-2.99,1.08c-0.3,0.02-0.62,0.01-0.83,0V28.42z M88.41,24.5
		c0,0.67,0.37,1.25,1.1,1.25c0.5,0,0.85-0.23,1.02-0.5c0.06-0.12,0.08-0.24,0.08-0.47c0.01-0.83-0.3-1.64-1.15-1.64
		C88.85,23.13,88.41,23.68,88.41,24.5z"/>
	<path class="st0" d="M93.41,29.72v-1.1l1-0.9c1.71-1.54,2.54-2.41,2.55-3.32c0-0.64-0.37-1.14-1.27-1.14
		c-0.67,0-1.26,0.34-1.67,0.64l-0.52-1.29c0.58-0.44,1.5-0.8,2.54-0.8c1.78,0,2.73,1.03,2.73,2.44c0,1.32-0.94,2.36-2.07,3.37
		l-0.72,0.6v0.02h2.95v1.5H93.41z"/>
</g>
</svg>
