<?xml version="1.0" encoding="utf-8"?>
<!-- Generator: Adobe Illustrator 15.0.0, SVG Export Plug-In . SVG Version: 6.00 Build 0)  -->
<!DOCTYPE svg PUBLIC "-//W3C//DTD SVG 1.1//EN" "http://www.w3.org/Graphics/SVG/1.1/DTD/svg11.dtd">
<svg version="1.1" id="Layer_1" xmlns="http://www.w3.org/2000/svg" xmlns:xlink="http://www.w3.org/1999/xlink" x="0px" y="0px"
	 width="87.8px" height="28px" viewBox="352.1 292 87.8 28" style="enable-background:new 352.1 292 87.8 28;" xml:space="preserve"
	>
<style type="text/css">
<![CDATA[
	.st0{fill:#221E1F;}
	.st1{fill:#3DB740;}
]]>
</style>
<g>
	<g>
		<path class="st0" d="M359.2,319.7h-7.1v-26.8h7.1V303h5.1v-10.1h7v26.8h-7v-10.4h-5.1"/>
		<path class="st0" d="M383.7,303.2H380v-4.1h3.8c0.9,0,1.7,1,1.7,2.1C385.5,302.1,384.6,303.2,383.7,303.2 M383.8,313.4H380v-4.1
			h3.5c1.1,0,1.9,1,1.9,2.1C385.5,312.4,384.9,313.4,383.8,313.4 M388.2,306.3c2.5-0.6,4.4-2.8,4.4-5.5c0-4.7-2.7-7.9-7.2-7.9h-12.6
			v26.8h12.4c0.1,0,0.1,0,0.2,0c4.5,0,7.2-3.2,7.2-7.9C392.7,309.1,390.8,306.9,388.2,306.3"/>
		<path class="st0" d="M404.7,313c-3.8,0-6.8-3.1-6.8-6.8c0-3.8,3-6.8,6.8-6.8s6.8,3.1,6.8,6.8C411.6,309.9,408.5,313,404.7,313
			 M404.7,292.1c-7.7,0-13.9,6.2-13.9,13.9c0,7.7,6.2,13.9,13.9,13.9s13.9-6.2,13.9-13.9C418.7,298.4,412.4,292.1,404.7,292.1"/>
		<path class="st0" d="M404.7,300.7c-3,0-5.3,2.4-5.3,5.3s2.4,5.3,5.3,5.3c2.9,0,5.3-2.4,5.3-5.3S407.7,300.7,404.7,300.7"/>
	</g>
	<path class="st1" d="M439.8,312.9c-2.2,0-5.9,0-7.2,0c1.1-1.5,4.7-6,4.7-6c1.3-1.7,2-3.5,2-5.6c0-2.5-1-4.7-2.8-6.5
		c-1.8-1.8-4.2-2.8-6.8-2.7c-2,0.1-3.9,0.7-5.6,1.8c-1.7,1.2-3.5,3.5-3.8,6.8l-0.1,0.7h6.7l0.1-0.5c0.1-0.6,0.4-1.1,0.9-1.5
		c0.5-0.4,1.1-0.6,1.8-0.6c0.8,0,1.4,0.3,2,0.8c0.5,0.5,0.8,1.1,0.8,1.8c0,0.6-0.2,1.1-0.6,1.6l-13.1,16.7H436h3.9"/>
</g>
</svg>
