<?xml version="1.0" encoding="utf-8"?>
<!-- Generator: Adobe Illustrator 15.0.0, SVG Export Plug-In . SVG Version: 6.00 Build 0)  -->
<!DOCTYPE svg PUBLIC "-//W3C//DTD SVG 1.1//EN" "http://www.w3.org/Graphics/SVG/1.1/DTD/svg11.dtd">
<svg version="1.1"
	 id="Layer_1" inkscape:version="0.46" sodipodi:docname="Food_Network_Logo.svg" inkscape:output_extension="org.inkscape.output.svg.inkscape" sodipodi:version="0.32" xmlns:dc="http://purl.org/dc/elements/1.1/" xmlns:cc="http://creativecommons.org/ns#" xmlns:rdf="http://www.w3.org/1999/02/22-rdf-syntax-ns#" xmlns:svg="http://www.w3.org/2000/svg" xmlns:sodipodi="http://sodipodi.sourceforge.net/DTD/sodipodi-0.dtd" xmlns:inkscape="http://www.inkscape.org/namespaces/inkscape"
	 xmlns="http://www.w3.org/2000/svg" xmlns:xlink="http://www.w3.org/1999/xlink" x="0px" y="0px" width="28.4px" height="28px"
	 viewBox="79.2 79.6 28.4 28" style="enable-background:new 79.2 79.6 28.4 28;" xml:space="preserve">
<style type="text/css">
<![CDATA[
	.st0{fill:#EE3424;}
	.st1{fill:#FFFFFF;}
]]>
</style>
<defs>
	
	
		<inkscape:perspective  id="perspective8589" inkscape:persp3d-origin="100 : 66.666667 : 1" inkscape:vp_x="0 : 100 : 1" inkscape:vp_y="0 : 1000 : 0" sodipodi:type="inkscape:persp3d" inkscape:vp_z="200 : 100 : 1">
		</inkscape:perspective>
</defs>
<sodipodi:namedview  id="base" inkscape:current-layer="g8554" inkscape:window-y="-4" inkscape:window-x="-4" inkscape:window-height="721" inkscape:window-width="1024" inkscape:pageshadow="2" inkscape:pageopacity="0.0" inkscape:cy="96.025272" inkscape:cx="100" bordercolor="#666666" inkscape:zoom="2.54" pagecolor="#ffffff" guidetolerance="10.0" gridtolerance="10.0" objecttolerance="10.0" borderopacity="1.0" showgrid="false">
	</sodipodi:namedview>
<g>
	<path id="path8556" class="st0" d="M107.2,93.6c0,7.7-6.3,14-14,14c-7.7,0-14-6.3-14-14c0-7.7,6.3-14,14-14
		C100.9,79.6,107.2,85.9,107.2,93.6"/>
	<path id="path8558" class="st0" d="M106.5,87.6L106.5,87.6c0.1,0.1,0.1,0.1,0.2,0.1c0,0,0.1,0,0.1,0c0,0,0-0.1,0-0.1
		c0,0,0-0.1-0.1-0.1c-0.1,0-0.1,0-0.2-0.1c-0.1,0-0.1-0.1-0.1-0.1c0-0.1,0-0.1,0-0.1c0,0,0.1,0,0.1,0c0.1,0,0.1,0,0.1,0
		c0,0,0.1,0.1,0.1,0.1l-0.1,0c0-0.1-0.1-0.1-0.2-0.1c0,0-0.1,0-0.1,0c0,0,0,0.1,0,0.1c0,0,0,0,0,0.1c0,0,0.1,0,0.1,0.1
		c0.1,0,0.1,0.1,0.2,0.1c0,0,0,0.1,0,0.1c0,0.1,0,0.1-0.1,0.1c0,0-0.1,0-0.1,0c-0.1,0-0.1,0-0.1,0C106.6,87.7,106.5,87.6,106.5,87.6
		"/>
	<polygon id="polygon8560" class="st0" points="107.1,87.7 107.1,87.7 107.1,87.1 107.2,87.1 107.4,87.6 107.4,87.6 107.5,87.1 
		107.6,87.1 107.6,87.7 107.6,87.7 107.6,87.1 107.4,87.7 107.3,87.7 107.1,87.1 	"/>
	<path id="path8562" class="st1" d="M84,97.8c0.2-1.2,0.5-3.7,0.8-6.8l1.1,0l0.1-0.5l-1.1,0c0.1-0.9,0.3-3,1.2-3.4
		c0.2,0.4,0.5,0.7,1,0.7c0.3,0,0.6-0.1,0.6-0.5c0-0.5-0.8-0.7-1.2-0.7c-0.7,0-2.9,0.3-3.4,3.1L83,90.6l-0.9,0l-0.1,0.5l0.9,0
		c-0.3,2.2-0.7,6.7-0.9,7.3c-0.3,1.4-0.4,1.7-1.1,2c0.1,0.1,0.2,0.3,0.3,0.4C82.4,100.5,83.7,99.5,84,97.8"/>
	<path id="path8564" class="st1" d="M90.1,92.9c0-0.6,0-1.9-0.9-1.9c-1.2,0-1.4,2.4-1.4,3.2c0,0.6,0,1.9,0.9,1.9
		C89.9,96.1,90.1,93.8,90.1,92.9 M85.9,94.6c0-2.2,1.4-4.1,3.8-4.1c1.5,0,2.3,0.6,2.3,2.1c0,2.2-1.4,4.1-3.8,4.1
		C86.8,96.6,85.9,96,85.9,94.6"/>
	<path id="path8566" class="st1" d="M96.7,92.9c0-0.6,0-1.9-0.9-1.9c-1.2,0-1.4,2.4-1.4,3.2c0,0.6,0,1.9,0.9,1.9
		C96.5,96.1,96.7,93.8,96.7,92.9 M92.5,94.6c0-2.2,1.4-4.1,3.8-4.1c1.5,0,2.3,0.6,2.3,2.1c0,2.2-1.4,4.1-3.8,4.1
		C93.4,96.6,92.5,96,92.5,94.6"/>
	<path id="path8568" class="st1" d="M102.8,93.9c0.3-0.8,0.4-1.6,0.6-2.8c-0.1,0-0.1,0-0.2,0c-1.5,0-2.1,2.1-2.1,3.3
		c0,0.3,0.1,1,0.5,1C102.1,95.4,102.6,94.4,102.8,93.9 M105.8,95.9c-0.8,0.4-1.8,0.7-2.5,0.7c-0.4,0-0.3-0.6-0.3-0.8
		c0-0.3,0-0.7,0.1-1.4l0,0c-0.5,1-1.4,2.2-2.6,2.2c-0.9,0-1.3-1-1.3-1.8c0-2.1,1.6-4.2,3.9-4.2h0.5c0.2-1.4,0.2-2,0.2-2.5
		c0-0.1,0-0.3-0.2-0.3c-0.1,0-0.3,0-0.8,0.2l-0.1-0.4c0.9-0.3,2-0.5,2.9-0.6c0.1,0,0.2,0,0.2,0.2c0,1.2-0.9,7.5-0.9,8.1
		c0,0.2,0,0.4,0.2,0.4c0.1,0,0.4-0.1,0.8-0.3L105.8,95.9"/>
	<path id="path8570" class="st1" d="M86.4,99.2v-1.6h0.4v0.2c0.1-0.1,0.3-0.2,0.5-0.2c0.3,0,0.5,0.2,0.5,0.5v1.1h-0.4v-1
		c0-0.2-0.1-0.3-0.2-0.3c-0.2,0-0.3,0.1-0.4,0.2v1.2H86.4L86.4,99.2z"/>
	<path id="path8572" class="st1" d="M89.4,98.2c0-0.2-0.1-0.4-0.3-0.4c-0.2,0-0.3,0.1-0.3,0.4H89.4z M88.8,98.5
		c0,0.3,0.2,0.5,0.3,0.5c0.2,0,0.3-0.1,0.4-0.2l0.3,0.2c-0.1,0.2-0.4,0.3-0.7,0.3c-0.4,0-0.7-0.3-0.7-0.8s0.3-0.8,0.7-0.8
		c0.4,0,0.7,0.4,0.7,0.7v0.2H88.8"/>
	<path id="path8574" class="st1" d="M90.5,97.6v-0.5h0.4v0.5h0.3v0.3h-0.3v0.9c0,0.1,0,0.1,0.1,0.1c0.1,0,0.1,0,0.2,0v0.3
		c-0.1,0-0.2,0-0.3,0c-0.3,0-0.4-0.1-0.4-0.4v-1h-0.2v-0.3H90.5L90.5,97.6z"/>
	<polygon id="polygon8576" class="st1" points="91.7,97.6 92,97.6 92.2,98.6 92.3,98.6 92.5,97.6 92.8,97.6 93.1,98.6 93.1,98.6 
		93.3,97.6 93.7,97.6 93.2,99.2 92.9,99.2 92.7,98.2 92.7,98.2 92.4,99.2 92.1,99.2 	"/>
	<path id="path8578" class="st1" d="M94.8,97.9c-0.2,0-0.3,0.2-0.3,0.5s0.1,0.5,0.3,0.5c0.2,0,0.3-0.2,0.3-0.5S95,97.9,94.8,97.9
		 M94.8,97.6c0.4,0,0.7,0.3,0.7,0.8c0,0.5-0.3,0.8-0.7,0.8s-0.7-0.3-0.7-0.8C94.1,97.9,94.4,97.6,94.8,97.6"/>
	<path id="path8580" class="st1" d="M96.1,99.2v-1.6h0.3v0.3h0c0.1-0.2,0.2-0.3,0.5-0.3V98c0,0,0,0-0.1,0c-0.2,0-0.4,0.2-0.4,0.3v1
		H96.1L96.1,99.2z"/>
	<polygon id="polygon8582" class="st1" points="97.6,99.2 97.6,97 97.9,97 97.9,98.2 98,98.2 98.4,97.6 98.9,97.6 98.4,98.2 
		98.9,99.2 98.5,99.2 98.1,98.5 97.9,98.7 97.9,99.2 	"/>
</g>
</svg>
