<?xml version="1.0" encoding="utf-8"?>
<!-- Generator: Adobe Illustrator 15.0.0, SVG Export Plug-In . SVG Version: 6.00 Build 0)  -->
<!DOCTYPE svg PUBLIC "-//W3C//DTD SVG 1.1//EN" "http://www.w3.org/Graphics/SVG/1.1/DTD/svg11.dtd">
<svg version="1.1" id="svg2" xmlns="http://www.w3.org/2000/svg" xmlns:xlink="http://www.w3.org/1999/xlink" x="0px" y="0px"
	 width="52.8px" height="50px" viewBox="62.2 562 52.8 50" style="enable-background:new 62.2 562 52.8 50;" xml:space="preserve">
<style type="text/css">
<![CDATA[
	.st0{fill:#61BC47;}
]]>
</style>
<g>
	<path id="path3790" class="st0" d="M62.2,610.6v-12.4c0-0.9,0.8-1.3,1.3-1.3h50.4c0.6,0,1.2,0.5,1.2,1.2v12.6
		c0,0.7-0.6,1.3-1.3,1.3H63.3C62.8,612,62.2,611.3,62.2,610.6z"/>
	<path id="path3768" d="M100.6,608.1c-0.4-0.2-0.3-0.8,0-1.1c0.3-0.3,0.6,0,0.9,0.2c0.4,0.3,1,0.6,1.6,0.3c0.4-0.2,0.7-0.6,0.6-1.1
		c0-0.6-0.5-1-1-1.2c-0.7-0.3-1.5-0.8-2-1.4c-0.3-0.3-0.5-0.7-0.4-1.1c0-1.1,0.7-2.2,1.8-2.5c0.4-0.1,0.8,0,1.2,0
		c0.5,0.1,1.1,0.3,1.4,0.8c0.3,0.4-0.1,1-0.6,0.9c-0.4-0.1-0.7-0.6-1.1-0.6c-0.5-0.1-1.1,0.1-1.3,0.6c-0.1,0.3-0.2,0.7,0,1
		c0.3,0.5,0.9,0.7,1.3,1c0.6,0.3,1.4,0.7,1.7,1.3c0.4,0.6,0.3,1.4,0.1,2.1c-0.3,0.8-1.1,1.4-2,1.4
		C101.9,608.7,101.2,608.5,100.6,608.1L100.6,608.1z"/>
	<path id="path3773" d="M86.8,606.5v-4.4c0.3-1.5,1.6-2,2-2c0.2,0,0.5,0,0.8,0c1.1,0.2,1.5,0.5,1.9,1c0.2,0.2-0.3,1.1-0.9,0.7
		c-0.6-0.4-0.8-0.6-1.4-0.6c-0.6-0.1-1.1,0.6-1.1,1v4.3c0.1,0.5,0.2,0.9,1.1,1.1c0.9,0.1,1.1-0.6,1.6-0.7c0.4,0,0.7,0.5,0.7,0.7
		c0,0.7-1.6,1.1-2.1,1.1c-0.2,0-0.5,0-0.6,0C87,608.5,86.8,606.6,86.8,606.5L86.8,606.5z"/>
	<path id="path3778" d="M72.8,600.3c-0.4,0-0.5,0.2-0.5,0.5v7.3c0,0.7,1.2,0.7,1.2,0v-1.9c0-0.1,0-0.3,0.3-0.3h0.5
		c0.2,0,0.2,0.1,0.3,0.2l1.3,2.4c0.3,0.5,1.3-0.1,1-0.7l-1.1-2c-0.1-0.1-0.1-0.2,0-0.2c0.3,0,1.4-1.1,1.4-1.9v-1.3
		c0-0.7-0.9-2.1-2.4-2.1L72.8,600.3L72.8,600.3z M73.9,601.4h1c0.7,0,1,0.8,1,1.3v0.7c0,0.8-0.6,1.3-1.2,1.3h-0.7
		c-0.4,0-0.6-0.1-0.6-0.4v-2.6C73.5,601.4,73.8,601.4,73.9,601.4L73.9,601.4z"/>
	<path id="path3782" d="M81.8,600.1c-1.3,0-2.2,1.5-2.2,2.3l0,3.9c0,0.9,0.9,2.4,2.1,2.4h0.7c1.2,0,2.2-1.3,2.2-2.3v-4.1
		c-0.1-1.2-1.3-2.2-2.3-2.2H81.8L81.8,600.1z M82,601.3c0.6,0,1.2,0.3,1.2,1.2v3.9c0,0.6-0.5,1.2-1.2,1.2c-0.6,0-1.2-0.4-1.2-1.4
		v-3.6C80.8,601.6,81.4,601.3,82,601.3L82,601.3z"/>
	<path id="path3786" d="M93.8,608.1v-7.4c0-0.6,1.3-0.6,1.3,0v2.8c0,0.1,0.1,0.3,0.3,0.3h0.2c0.1,0,0.2-0.1,0.3-0.3l1.5-3.2
		c0.2-0.4,1.2,0,1,0.5l-1.5,3.4c0,0.1-0.1,0.2,0,0.3l1.6,3.4c0.2,0.5-0.8,1-1,0.6l-1.6-3.4c-0.1-0.1-0.2-0.2-0.3-0.2
		c-0.4,0-0.4,0.1-0.4,0.2v3C95.1,608.8,93.8,608.9,93.8,608.1L93.8,608.1z"/>
	<path id="path5" inkscape:connector-curvature="0" d="M62.1,562c6,0,12.1,0,18.1,0c2.1,2.2,4.1,4.4,6.2,6.5c2-2.2,4.1-4.4,6.2-6.5
		c6.1,0,12.1,0,18.2,0c0,4.5,0,9,0,13.5c0,0.2,0,0.4-0.1,0.6c-1.5,2.5-2.8,5-3.8,7.8c-0.1,0.3-0.2,0.6-0.5,0.8
		c-0.2,0.1-0.6,0.1-0.7-0.2c-0.2-0.3-0.2-0.7-0.2-1.1c-0.2-1.4-0.3-2.7-0.5-4.1c-0.1-0.7-0.3-1.4-0.8-2c-0.5-0.5-1.2-0.5-1.9-0.4
		c-0.6,0.1-1.1,0.5-1.4,1c-0.4,0.7-0.4,1.4-0.2,2.2c0.2,1.3,0.7,2.5,1.1,3.7c0.9,2.3,1.7,4.6,2.6,6.8c0.2,0.6,0.6,1.2,1.2,1.4
		c0.5,0.2,1.1,0.2,1.6,0.1c0.5-0.1,0.9-0.4,1.1-0.8c0.4-0.7,0.6-1.6,0.9-2.4c0.5-1.7,1-3.3,1.7-5c0,3.5,0,7.1,0,10.6
		c-3.8,0-7.6,0-11.4,0c-0.1-1.3-0.3-2.7-0.2-4c0-1.3,0.1-2.6,0.1-3.9c0-1.9-0.2-3.7-0.3-5.6c-0.1-1.5,0-2.9-0.1-4.4
		c1.1-0.7,2.2-1.3,3.3-1.9c0.7-0.4,1.5-0.8,2.1-1.4c0.3-0.3,0.6-0.8,0.4-1.3c-0.4-0.9-1.6-1.4-2.5-1c-0.8,0.3-1.2,1.1-1.9,1.5
		c-0.9,0.5-1.7,1.1-2.6,1.6c-0.7-0.4-1.5-0.5-2.2-0.2c-0.4,0.1-0.8,0.4-0.9,0.8c-0.2,0.4,0,0.9-0.1,1.3c-0.1,0.3-0.3,0.5-0.5,0.6
		c-1,0.6-2,1.1-2.9,1.7c-1,0.6-2,1.3-3.1,1.6c-0.7,0.2-1.5,0.4-1.8,1.1c-0.3,0.7,0.1,1.5,0.6,1.9c0.5,0.4,1.2,0.5,1.7,0.3
		c0.8-0.3,1.4-0.8,2-1.3c0.8-0.6,1.6-1.2,2.4-1.8c0.4-0.3,0.9-0.6,1.4-0.8c0.3-0.1,0.8,0,0.9,0.4c0.3,0.8,0.2,1.7,0.3,2.5
		c0,2.8-0.2,5.5-0.3,8.3c0,1.3,0,2.6,0,3.9c-1,0-2,0-3,0c0-3.1,0-6.1,0-9.2c-1.9,1.6-3.8,3.2-5.7,4.8c-1.9-1.6-3.8-3.2-5.7-4.8
		c0,3.1,0,6.1,0,9.2c-6.2,0-12.4,0-18.6,0C62.1,583.8,62.1,572.9,62.1,562L62.1,562z"/>
	<path id="path7" inkscape:connector-curvature="0" d="M81.9,562c1.8,0.8,3.7,1.6,5.5,2.4c0.3,0.1,0.5,0.4,0.7,0.6
		c-0.5,0.6-1.1,1.2-1.7,1.8C84.9,565.2,83.4,563.6,81.9,562z"/>
	<path id="path9" inkscape:connector-curvature="0" d="M112,562c1,0.6,2,1.2,3,1.8c0,2.2,0,4.4,0,6.7c-1.1,1.2-2.1,2.4-3,3.7
		C112,570.1,112,566.1,112,562z"/>
	<path id="path11" inkscape:connector-curvature="0" d="M112.2,581c0.8-1.5,1.7-3,2.8-4.4c0,6.1,0,12.1,0,18.2c-1,0-2,0-3,0
		c0-4.3,0-8.7,0-13.1C112,581.4,112.1,581.2,112.2,581L112.2,581z"/>
	<path id="path13" inkscape:connector-curvature="0" d="M81.9,588.2c0.8,0.7,1.7,1.4,2.5,2.1c0,1.5,0,3,0,4.4c-0.8,0-1.7,0-2.5,0
		C81.9,592.6,81.9,590.4,81.9,588.2z"/>
	<path id="path15" inkscape:connector-curvature="0" d="M88.2,590.5c0.9-0.7,1.8-1.5,2.7-2.2c0,0.6,0,1.2,0,1.8
		c-0.2,0.1-0.4,0.3-0.5,0.4C89.6,590.5,88.9,590.5,88.2,590.5z"/>
</g>
</svg>
