<?xml version="1.0" encoding="utf-8"?>
<!-- Generator: Adobe Illustrator 15.0.0, SVG Export Plug-In . SVG Version: 6.00 Build 0)  -->
<!DOCTYPE svg PUBLIC "-//W3C//DTD SVG 1.1//EN" "http://www.w3.org/Graphics/SVG/1.1/DTD/svg11.dtd">
<svg version="1.1"
	 id="svg4278" inkscape:version="0.47 r22583" sodipodi:docname="Nickelodeon.svg" xmlns:dc="http://purl.org/dc/elements/1.1/" xmlns:cc="http://creativecommons.org/ns#" xmlns:rdf="http://www.w3.org/1999/02/22-rdf-syntax-ns#" xmlns:svg="http://www.w3.org/2000/svg" xmlns:sodipodi="http://sodipodi.sourceforge.net/DTD/sodipodi-0.dtd" xmlns:inkscape="http://www.inkscape.org/namespaces/inkscape"
	 xmlns="http://www.w3.org/2000/svg" xmlns:xlink="http://www.w3.org/1999/xlink" x="0px" y="0px" width="110px" height="16.201px"
	 viewBox="134.22 19.768 110 16.201" style="enable-background:new 134.22 19.768 110 16.201;" xml:space="preserve">
<style type="text/css">
<![CDATA[
	.st0{fill:#F57C14;}
]]>
</style>
<g>
	
		<sodipodi:namedview  id="namedview29" inkscape:current-layer="svg4278" inkscape:window-y="-4" inkscape:window-x="-4" inkscape:window-height="712" inkscape:window-width="1024" inkscape:pageshadow="2" inkscape:pageopacity="0" inkscape:window-maximized="1" pagecolor="#ffffff" bordercolor="#666666" showgrid="false" inkscape:cy="27.86902" guidetolerance="10" gridtolerance="10" inkscape:cx="192.85757" objecttolerance="10" inkscape:zoom="1.3999969" borderopacity="1">
		</sodipodi:namedview>
	<defs>
		
		
			<inkscape:perspective  id="perspective33" inkscape:persp3d-origin="192.85757 : 18.579344 : 1" inkscape:vp_z="385.71515 : 27.869017 : 1" inkscape:vp_y="0 : 1000 : 0" inkscape:vp_x="0 : 27.869017 : 1" sodipodi:type="inkscape:persp3d">
			</inkscape:perspective>
	</defs>
	<path id="path96604" class="st0" d="M139.673,25.057c-1.5-0.002-2.875,0.613-3.856,1.598c-0.982,0.979-1.598,2.355-1.596,3.856
		v4.981h4.138v-2.181v-2.717c0.002-0.597,0.144-1.106,0.386-1.501c0.244-0.39,0.559-0.621,0.928-0.623
		c0.37,0.002,0.684,0.233,0.928,0.623c0.242,0.395,0.384,0.904,0.386,1.501v4.897h4.14V30.51c0-1.501-0.615-2.877-1.598-3.856
		C142.548,25.67,141.172,25.055,139.673,25.057"/>
	<path id="path96608" class="st0" d="M238.767,25.057c-1.5-0.002-2.876,0.613-3.856,1.598c-0.982,0.979-1.598,2.355-1.596,3.856
		v4.981h4.138v-2.181v-2.717c0.002-0.597,0.144-1.106,0.386-1.501c0.244-0.39,0.559-0.621,0.929-0.623
		c0.369,0.002,0.684,0.233,0.928,0.623c0.242,0.395,0.384,0.904,0.386,1.501v4.897h4.14V30.51c0-1.501-0.614-2.877-1.598-3.856
		C241.642,25.67,240.266,25.055,238.767,25.057"/>
	<path id="path96612" class="st0" d="M149.581,23.717c0.417-0.417,0.673-0.992,0.673-1.627c0-0.636-0.257-1.211-0.673-1.626
		c-0.417-0.417-0.992-0.675-1.627-0.675s-1.21,0.258-1.627,0.675c-0.417,0.415-0.675,0.99-0.675,1.626
		c0,0.635,0.258,1.21,0.675,1.627l0.508,0.508c0.848,0.85,0.908,1.073,0.102,1.879l-0.462,0.462
		c-0.378,0.38-0.613,0.902-0.613,1.481v7.442h4.184v-7.442c0-0.579-0.233-1.101-0.611-1.481l-0.462-0.46
		c-0.806-0.806-0.746-1.032,0.102-1.881L149.581,23.717z"/>
	<path id="path96616" class="st0" d="M156.996,32.25c-0.244,0.449-0.561,0.717-0.928,0.719c-0.37-0.002-0.686-0.27-0.93-0.719
		c-0.24-0.455-0.384-1.045-0.384-1.734s0.144-1.277,0.384-1.734c0.244-0.449,0.561-0.716,0.93-0.719
		c0.367,0.002,0.684,0.27,0.928,0.719c0.179,0.339,0.302,0.75,0.355,1.222h4.146c-0.122-1.298-0.703-2.475-1.572-3.343
		c-0.981-0.984-2.358-1.598-3.856-1.598c-1.5,0-2.877,0.613-3.856,1.598c-0.984,0.981-1.6,2.357-1.598,3.856
		c-0.002,1.5,0.613,2.876,1.598,3.856c0.755,0.755,2.069,1.598,3.856,1.598c1.341,0,2.584-0.493,3.534-1.301
		c0.691-0.588,1.718-1.768,1.895-3.64h-4.146C157.299,31.5,157.175,31.912,156.996,32.25"/>
	<path id="path96620" class="st0" d="M176.178,29.533c0.074-0.318,0.175-0.599,0.273-0.808c0.184-0.395,0.559-0.717,0.928-0.719
		c0.373,0.002,0.677,0.266,0.935,0.733c0.113,0.202,0.213,0.554,0.262,0.786L176.178,29.533L176.178,29.533z M177.379,25.053
		c-1.5-0.001-2.875,0.613-3.856,1.596c-0.982,0.981-1.598,2.358-1.598,3.857c0,1.5,0.615,2.876,1.598,3.856
		c0.956,0.956,2.308,1.596,3.88,1.596c1.62,0,2.961-0.722,3.865-1.63c1.139-1.307,1.194-2.704,1.194-2.704h-3.69
		c0,0-0.511,1.288-1.392,1.288c-0.37-0.002-0.685-0.268-0.928-0.719c-0.166-0.312-0.284-0.688-0.342-1.113h6.426
		c0,0,0.44-2.623-1.318-4.397C180.196,25.65,178.895,25.052,177.379,25.053"/>
	<path id="path96624" class="st0" d="M214.928,29.533c0.075-0.318,0.175-0.599,0.272-0.808c0.185-0.395,0.56-0.717,0.929-0.719
		c0.373,0.002,0.677,0.266,0.936,0.733c0.112,0.202,0.213,0.554,0.262,0.786L214.928,29.533z M216.129,25.053
		c-1.5-0.001-2.875,0.613-3.856,1.596c-0.982,0.981-1.598,2.358-1.598,3.857c0,1.5,0.615,2.876,1.598,3.856
		c0.956,0.956,2.308,1.596,3.88,1.596c1.62,0,2.959-0.722,3.865-1.63c1.14-1.307,1.194-2.704,1.194-2.704h-3.691
		c0,0-0.511,1.288-1.392,1.288c-0.369-0.002-0.685-0.268-0.929-0.719c-0.165-0.312-0.283-0.688-0.342-1.113h6.426
		c0,0,0.44-2.623-1.317-4.397C218.947,25.65,217.645,25.052,216.129,25.053"/>
	<path id="path96628" class="st0" d="M185.193,19.768c-1.143,0-2.069,0.928-2.069,2.071l0.005,13.651h4.14l-0.005-13.652
		C187.264,20.695,186.336,19.768,185.193,19.768"/>
	<path id="path96632" class="st0" d="M193.294,32.967c-0.724,0-1.314-1.1-1.314-2.457c0-1.355,0.59-2.455,1.314-2.455
		c0.726,0,1.314,1.1,1.314,2.455C194.608,31.867,194.02,32.967,193.294,32.967 M193.294,25.057c-3.012,0-5.454,2.44-5.454,5.452
		s2.442,5.454,5.454,5.454c3.012,0,5.454-2.442,5.454-5.454S196.306,25.057,193.294,25.057"/>
	<path id="path96636" class="st0" d="M227.348,32.967c-0.724,0-1.313-1.1-1.313-2.457c0-1.355,0.59-2.455,1.313-2.455
		c0.725,0,1.314,1.1,1.314,2.455C228.662,31.867,228.073,32.967,227.348,32.967 M227.348,25.057c-3.012,0-5.453,2.44-5.453,5.452
		s2.441,5.454,5.453,5.454c3.013,0,5.454-2.442,5.454-5.454S230.361,25.057,227.348,25.057"/>
	<path id="path96640" class="st0" d="M204.698,32.967c-0.725,0-1.314-1.1-1.314-2.457c0-1.355,0.59-2.455,1.314-2.455
		c0.726,0,1.313,1.1,1.313,2.455C206.011,31.867,205.423,32.967,204.698,32.967 M210.149,30.511l0.01,0.003l-0.006-8.678
		c-0.002-1.143-0.928-2.069-2.07-2.067c-1.144,0-2.069,0.928-2.069,2.071l0.002,3.385c-0.425-0.105-0.864-0.162-1.318-0.162
		c-1.499-0.002-2.875,0.613-3.855,1.598c-0.983,0.979-1.599,2.357-1.596,3.854c-0.002,1.5,0.612,2.878,1.596,3.856l0,0
		c0.628,0.632,1.977,1.6,3.855,1.598c1.882,0.002,3.229-0.966,3.856-1.598l0,0c0.982-0.979,1.598-2.356,1.598-3.856
		C210.151,30.513,210.149,30.511,210.149,30.511"/>
	<path id="path96644" class="st0" d="M172.526,34.767c0-0.138-0.042-0.268-0.109-0.377l-2.268-3.428l1.57-2.85
		c0.581-0.984,0.253-2.255-0.731-2.835c-0.984-0.58-2.255-0.253-2.835,0.733l-1.874,3.351v-2.235c0-1.143-0.927-2.069-2.069-2.069
		c-1.143,0-2.071,0.926-2.071,2.069v8.366h4.14v-3.275l2.184,3.273l3.343-0.002l0,0C172.204,35.488,172.526,35.166,172.526,34.767"
		/>
</g>
</svg>
