<?xml version="1.0" encoding="utf-8"?>
<!-- Generator: Adobe Illustrator 15.0.0, SVG Export Plug-In . SVG Version: 6.00 Build 0)  -->
<!DOCTYPE svg PUBLIC "-//W3C//DTD SVG 1.1//EN" "http://www.w3.org/Graphics/SVG/1.1/DTD/svg11.dtd">
<svg version="1.1" id="svg2" xmlns="http://www.w3.org/2000/svg" xmlns:xlink="http://www.w3.org/1999/xlink" x="0px" y="0px"
	 width="52.688px" height="50px" viewBox="62.182 562 52.688 50" enable-background="new 62.182 562 52.688 50"
	 xml:space="preserve">
<path id="path2848" d="M62.248,578.277v-16.271h8.943h8.943l3.12,3.269l3.12,3.269l2.572-2.634c1.415-1.448,2.798-2.92,3.073-3.271
	l0.5-0.638l9.04,0.059l9.04,0.06l0.061,6.857l0.061,6.856l-0.7,1.138c-0.845,1.374-2.909,5.709-3.123,6.56
	c-0.084,0.336-0.304,0.736-0.488,0.889c-0.601,0.499-0.918-0.254-1.226-2.913c-0.458-3.954-1.082-4.971-2.844-4.641
	c-1.538,0.289-2.102,1.554-1.657,3.718c0.406,1.973,3.68,10.484,4.254,11.059c0.688,0.688,2.43,0.674,2.996-0.025
	c0.226-0.278,0.895-2.018,1.487-3.865c0.592-1.848,1.126-3.359,1.185-3.359c0.06,0,0.108,2.284,0.108,5.077v5.077h-5.638h-5.638
	l-0.123-1.211c-0.068-0.667-0.184-4.657-0.259-8.869l-0.136-7.656l2.39-1.397c2.857-1.67,3.52-2.294,3.312-3.12
	c-0.187-0.743-1.362-1.378-2.175-1.174c-0.33,0.084-0.981,0.495-1.446,0.916c-0.466,0.42-1.35,1.059-1.965,1.42
	c-0.936,0.548-1.334,0.645-2.438,0.59c-1.597-0.08-2.271,0.416-2.271,1.669c0,0.757-0.096,0.841-2.715,2.387
	c-1.494,0.882-3.251,1.78-3.906,1.998c-0.655,0.219-1.315,0.546-1.468,0.729c-0.438,0.528-0.325,1.461,0.253,2.076
	c0.789,0.84,1.994,0.768,3.26-0.193c4.027-3.059,5.11-3.528,5.407-2.345c0.082,0.323,0.071,3.647-0.022,7.386l-0.17,6.796h-1.469
	H92.03l-0.063-4.488l-0.063-4.488l-2.73,2.298c-1.501,1.264-2.823,2.241-2.936,2.171c-0.114-0.07-1.378-1.116-2.81-2.324
	l-2.603-2.196l-0.063,4.514l-0.063,4.515h-9.227h-9.227v-16.271l0,0L62.248,578.277z M81.865,591.432
	c0-1.714,0.063-3.116,0.141-3.116s0.649,0.426,1.27,0.945l1.128,0.944v2.172v2.171h-1.27h-1.27V591.432L81.865,591.432z
	 M111.869,587.89v-6.658l1.287-2.055c0.707-1.13,1.382-2.153,1.5-2.273c0.131-0.134,0.214,3.224,0.214,8.712v8.933h-1.5h-1.5V587.89
	L111.869,587.89z M89.366,589.359c0.635-0.563,1.493-1.254,1.49-1.158c-0.016,0.528,0.147,2.192-0.147,2.193
	c-0.443,0-0.869,0-1.447,0h-1.05l1.154-1.025l0,0V589.359z M111.869,568.168c0-3.263,0.064-5.932,0.143-5.932s0.754,0.371,1.5,0.824
	l1.357,0.824v3.247v3.246l-1.314,1.642c-0.723,0.902-1.398,1.739-1.5,1.86C111.953,574,111.869,571.43,111.869,568.168
	L111.869,568.168z M84.173,564.429c-1.201-1.206-2.119-2.192-2.041-2.192c0.248,0,5.616,2.499,5.825,2.705
	c0.178,0.178-1.184,1.68-1.481,1.68C86.411,566.621,85.375,565.635,84.173,564.429z"/>
<g id="g3021">
	<path id="path3777" fill="#8F52A0" d="M62.182,610.377v-12.214c0-0.911,1.126-1.301,1.389-1.301h49.857
		c0.654,0,1.341,0.576,1.341,1.38v12.487c0,0.625-0.799,1.271-1.271,1.271H63.401C62.807,612,62.182,611.18,62.182,610.377z"/>
	<path id="path2994" d="M72.146,600.238c-0.357,0-0.452,0.207-0.452,0.452v7.405c0,0.284,0.066,0.515,0.421,0.515h2.261
		c0.95,0,2.292-1.009,2.292-2.276v-3.647c0-1.749-1.693-2.436-2.214-2.448H72.146L72.146,600.238z M73.27,601.407h1.114
		c0.439,0,0.989,0.39,0.989,1.169v3.484c0,0.649-0.325,1.419-1.192,1.419h-0.928c-0.169,0-0.265-0.118-0.265-0.351v-5.426
		C72.989,601.628,73.01,601.407,73.27,601.407L73.27,601.407z"/>
	<path id="path3766" d="M82.141,600.075h-1.087c-0.417,0-0.638,0.614-0.672,0.837l-1.411,7.154
		c-0.146,0.626,1.013,0.911,1.157,0.266l0.221-1.17c0.037-0.233,0.132-0.316,0.265-0.308h2.051c0.127,0,0.24,0.032,0.287,0.253
		l0.254,1.146c0.174,0.741,1.275,0.459,1.124-0.342l-1.448-7.16c-0.034-0.127-0.252-0.675-0.739-0.684L82.141,600.075z
		 M81.657,601.062c0.066,0,0.133,0.082,0.163,0.249l0.794,4.023c0.03,0.219,0.038,0.419-0.199,0.413h-1.604
		c-0.217,0-0.159-0.265-0.133-0.386l0.821-4.051C81.524,601.145,81.591,601.063,81.657,601.062L81.657,601.062z"/>
	<path id="path3771" d="M86.567,608.157v-7.413c0-0.576,1.084-0.702,1.271-0.269l1.933,4.603c0.041,0.091,0.176,0.073,0.175-0.048
		v-4.403c0-0.523,1.259-0.52,1.259,0v7.537c0,0.589-1.188,0.564-1.38,0l-1.777-4.334c-0.094-0.188-0.203-0.173-0.203,0v4.311
		c0,0.651-1.278,0.636-1.278,0.023V608.157z"/>
	<path id="path3773" d="M93.852,606.475v-4.354c0.281-1.473,1.618-2.04,2.04-2.04c0.246-0.022,0.493-0.031,0.75,0.023
		c1.092,0.168,1.508,0.54,1.878,0.978c0.187,0.221-0.301,1.064-0.903,0.745c-0.573-0.354-0.767-0.597-1.363-0.58
		c-0.637-0.089-1.099,0.637-1.111,0.974v4.277c0.065,0.478,0.16,0.944,1.103,1.091c0.851,0.066,1.127-0.623,1.621-0.65
		c0.44,0,0.651,0.466,0.661,0.694c0,0.676-1.602,1.125-2.127,1.125c-0.226,0-0.462,0.022-0.639-0.032
		c-1.689-0.287-1.907-2.16-1.907-2.249V606.475z"/>
	<path id="path3775" d="M100.746,608.079v-7.39c0-0.257,0.112-0.452,0.359-0.452h3.741c0.203,0,0.421,0.266,0.421,0.601
		c0,0.178-0.142,0.585-0.499,0.585h-2.541c-0.131,0-0.218,0.065-0.218,0.202v1.878c0,0.255,0.124,0.305,0.289,0.305h1.481
		c0.147,0,0.444,0.048,0.444,0.521c0,0.212,0.021,0.569-0.507,0.569h-1.411c-0.163,0-0.289,0.043-0.289,0.209v2.105
		c0.009,0.118-0.022,0.251,0.312,0.249h2.51c0.205,0,0.413,0.188,0.413,0.554c0,0.289-0.147,0.615-0.467,0.615h-3.656
		c-0.26,0-0.382-0.298-0.382-0.554V608.079z"/>
</g>
</svg>
