<?xml version="1.0" encoding="utf-8"?>
<!-- Generator: Adobe Illustrator 15.0.0, SVG Export Plug-In . SVG Version: 6.00 Build 0)  -->
<!DOCTYPE svg PUBLIC "-//W3C//DTD SVG 1.1//EN" "http://www.w3.org/Graphics/SVG/1.1/DTD/svg11.dtd">
<svg version="1.1" id="svg2" xmlns="http://www.w3.org/2000/svg" xmlns:xlink="http://www.w3.org/1999/xlink" x="0px" y="0px"
	 width="52.7px" height="50px" viewBox="62.2 562 52.7 50" style="enable-background:new 62.2 562 52.7 50;" xml:space="preserve">
<style type="text/css">
<![CDATA[
	.st0{fill:#8F52A0;}
]]>
</style>
<g id="g3021">
	<path id="path3777" class="st0" d="M62.2,610.4v-12.2c0-0.9,1.1-1.3,1.4-1.3h49.9c0.7,0,1.3,0.6,1.3,1.4v12.5
		c0,0.6-0.8,1.3-1.3,1.3H63.4C62.8,612,62.2,611.2,62.2,610.4z"/>
	<path id="path2994" d="M72.1,600.2c-0.4,0-0.5,0.2-0.5,0.5v7.4c0,0.3,0.1,0.5,0.4,0.5h2.3c1,0,2.3-1,2.3-2.3v-3.6
		c0-1.7-1.7-2.4-2.2-2.4H72.1L72.1,600.2z M73.3,601.4h1.1c0.4,0,1,0.4,1,1.2v3.5c0,0.6-0.3,1.4-1.2,1.4h-0.9
		c-0.2,0-0.3-0.1-0.3-0.4v-5.4C73,601.6,73,601.4,73.3,601.4L73.3,601.4z"/>
	<path id="path3766" d="M82.1,600.1h-1.1c-0.4,0-0.6,0.6-0.7,0.8l-1.4,7.2c-0.1,0.6,1,0.9,1.2,0.3l0.2-1.2c0-0.2,0.1-0.3,0.3-0.3
		h2.1c0.1,0,0.2,0,0.3,0.3l0.3,1.1c0.2,0.7,1.3,0.5,1.1-0.3l-1.4-7.2C82.8,600.6,82.6,600.1,82.1,600.1L82.1,600.1z M81.7,601.1
		c0.1,0,0.1,0.1,0.2,0.2l0.8,4c0,0.2,0,0.4-0.2,0.4h-1.6c-0.2,0-0.2-0.3-0.1-0.4l0.8-4.1C81.5,601.1,81.6,601.1,81.7,601.1
		L81.7,601.1z"/>
	<path id="path3771" d="M86.6,608.2v-7.4c0-0.6,1.1-0.7,1.3-0.3l1.9,4.6c0,0.1,0.2,0.1,0.2,0v-4.4c0-0.5,1.3-0.5,1.3,0v7.5
		c0,0.6-1.2,0.6-1.4,0l-1.8-4.3c-0.1-0.2-0.2-0.2-0.2,0v4.3C87.8,608.8,86.6,608.8,86.6,608.2L86.6,608.2z"/>
	<path id="path3773" d="M93.9,606.5v-4.4c0.3-1.5,1.6-2,2-2c0.2,0,0.5,0,0.7,0c1.1,0.2,1.5,0.5,1.9,1c0.2,0.2-0.3,1.1-0.9,0.7
		c-0.6-0.4-0.8-0.6-1.4-0.6c-0.6-0.1-1.1,0.6-1.1,1v4.3c0.1,0.5,0.2,0.9,1.1,1.1c0.9,0.1,1.1-0.6,1.6-0.7c0.4,0,0.7,0.5,0.7,0.7
		c0,0.7-1.6,1.1-2.1,1.1c-0.2,0-0.5,0-0.6,0C94.1,608.4,93.9,606.6,93.9,606.5L93.9,606.5z"/>
	<path id="path3775" d="M100.7,608.1v-7.4c0-0.3,0.1-0.5,0.4-0.5h3.7c0.2,0,0.4,0.3,0.4,0.6c0,0.2-0.1,0.6-0.5,0.6h-2.5
		c-0.1,0-0.2,0.1-0.2,0.2v1.9c0,0.3,0.1,0.3,0.3,0.3h1.5c0.1,0,0.4,0,0.4,0.5c0,0.2,0,0.6-0.5,0.6h-1.4c-0.2,0-0.3,0-0.3,0.2v2.1
		c0,0.1,0,0.3,0.3,0.2h2.5c0.2,0,0.4,0.2,0.4,0.6c0,0.3-0.1,0.6-0.5,0.6h-3.7C100.9,608.6,100.7,608.3,100.7,608.1L100.7,608.1z"/>
</g>
<g id="g3" transform="translate(-12.75,-6.84)">
	<path id="path5" inkscape:connector-curvature="0" d="M74.9,568.9c6,0,12,0,18,0c2,2.2,4.1,4.3,6.2,6.5c2-2.2,4.1-4.3,6.2-6.5
		c6,0,12.1,0,18.1,0c0,4.5,0,8.9,0,13.4c0,0.2,0,0.4-0.1,0.6c-1.5,2.4-2.8,5-3.8,7.7c-0.1,0.3-0.2,0.6-0.5,0.8
		c-0.2,0.1-0.6,0.1-0.7-0.2c-0.2-0.3-0.2-0.7-0.2-1c-0.2-1.4-0.3-2.7-0.5-4.1c-0.1-0.7-0.3-1.4-0.8-2c-0.5-0.5-1.2-0.5-1.8-0.4
		c-0.6,0.1-1.1,0.5-1.4,1c-0.4,0.6-0.4,1.4-0.2,2.2c0.2,1.3,0.7,2.5,1.1,3.7c0.9,2.3,1.7,4.5,2.6,6.8c0.2,0.6,0.6,1.2,1.1,1.4
		c0.5,0.2,1.1,0.2,1.6,0.1c0.5-0.1,0.9-0.4,1.1-0.8c0.4-0.7,0.6-1.6,0.9-2.4c0.5-1.7,1-3.3,1.7-4.9c0,3.5,0,7.1,0,10.6
		c-3.8,0-7.5,0-11.3,0c-0.1-1.3-0.3-2.6-0.2-4c0-1.3,0.1-2.6,0.1-3.9c0-1.9-0.2-3.7-0.3-5.6c-0.1-1.4,0-2.9-0.1-4.3
		c1.1-0.7,2.2-1.3,3.3-1.9c0.7-0.4,1.5-0.8,2.1-1.4c0.3-0.3,0.6-0.8,0.4-1.3c-0.4-0.9-1.6-1.4-2.5-1c-0.8,0.3-1.2,1.1-1.9,1.5
		c-0.9,0.5-1.7,1.1-2.6,1.5c-0.7-0.3-1.5-0.5-2.2-0.2c-0.4,0.1-0.8,0.4-0.9,0.8c-0.2,0.4,0,0.9-0.1,1.3c-0.1,0.3-0.3,0.5-0.5,0.6
		c-1,0.6-2,1.1-2.9,1.7c-1,0.6-2,1.3-3.1,1.6c-0.7,0.2-1.5,0.4-1.8,1.1c-0.3,0.7,0.1,1.5,0.6,1.9c0.5,0.4,1.1,0.5,1.7,0.3
		c0.8-0.3,1.4-0.8,2-1.2c0.8-0.6,1.6-1.2,2.4-1.7c0.4-0.3,0.9-0.6,1.4-0.8c0.3-0.1,0.8,0,0.9,0.4c0.3,0.8,0.2,1.6,0.3,2.5
		c0,2.7-0.2,5.5-0.3,8.2c0,1.3,0,2.6,0,3.9c-1,0-2,0-3,0c0-3,0-6.1,0-9.1c-1.9,1.6-3.8,3.2-5.7,4.8c-1.9-1.6-3.8-3.2-5.7-4.8
		c0,3,0,6.1,0,9.1c-6.2,0-12.3,0-18.5,0C74.9,590.5,74.9,579.7,74.9,568.9L74.9,568.9z"/>
	<path id="path7" inkscape:connector-curvature="0" d="M94.6,568.9c1.8,0.8,3.6,1.6,5.5,2.4c0.3,0.1,0.5,0.4,0.7,0.6
		c-0.5,0.6-1.1,1.2-1.7,1.8C97.6,572,96.1,570.5,94.6,568.9z"/>
	<path id="path9" inkscape:connector-curvature="0" d="M124.6,568.8c1,0.6,2,1.2,3,1.8c0,2.2,0,4.4,0,6.6c-1.1,1.2-2.1,2.4-3,3.7
		C124.5,576.9,124.6,572.9,124.6,568.8z"/>
	<path id="path11" inkscape:connector-curvature="0" d="M124.8,587.7c0.8-1.5,1.7-3,2.8-4.4c0,6,0,12.1,0,18.1c-1,0-2,0-3,0
		c0-4.3,0-8.6,0-13C124.5,588.2,124.7,587.9,124.8,587.7L124.8,587.7z"/>
	<path id="path13" inkscape:connector-curvature="0" d="M94.6,594.9c0.8,0.7,1.6,1.4,2.5,2.1c0,1.5,0,2.9,0,4.4c-0.8,0-1.7,0-2.5,0
		C94.6,599.2,94.6,597.1,94.6,594.9z"/>
	<path id="path15" inkscape:connector-curvature="0" d="M100.9,597.2c0.9-0.7,1.8-1.5,2.6-2.2c0,0.6,0,1.2,0,1.8
		c-0.2,0.1-0.4,0.3-0.5,0.4C102.3,597.2,101.6,597.2,100.9,597.2z"/>
</g>
</svg>
