<?xml version="1.0" encoding="utf-8"?>
<!-- Generator: Adobe Illustrator 15.0.0, SVG Export Plug-In . SVG Version: 6.00 Build 0)  -->
<!DOCTYPE svg PUBLIC "-//W3C//DTD SVG 1.1//EN" "http://www.w3.org/Graphics/SVG/1.1/DTD/svg11.dtd">
<svg version="1.1"
	 id="svg2" xmlns:dc="http://purl.org/dc/elements/1.1/" xmlns:cc="http://creativecommons.org/ns#" xmlns:rdf="http://www.w3.org/1999/02/22-rdf-syntax-ns#" xmlns:svg="http://www.w3.org/2000/svg"
	 xmlns="http://www.w3.org/2000/svg" xmlns:xlink="http://www.w3.org/1999/xlink" x="0px" y="0px" width="110px" height="21.1px"
	 viewBox="211.7 41.4 110 21.1" style="enable-background:new 211.7 41.4 110 21.1;" xml:space="preserve">
<style type="text/css">
<![CDATA[
	.st0{fill:#00386B;stroke:#01386A;stroke-width:9.375000e-002;}
	.st1{fill:#01B3C1;stroke:#01B3C1;stroke-width:9.375000e-002;}
	.st2{fill:#FFFFFF;}
	.st3{fill:#00386B;stroke:#01B3C1;stroke-width:9.375000e-002;}
	.st4{fill:#00386B;}
	.st5{fill:#01B3C1;}
]]>
</style>
<g>
	<g id="g3790" transform="translate(-1.0272,-23.310934)">
		<path id="path3792" class="st2" d="M321.5,85.8c0.7,0,1.3-0.6,1.3-1.4V66.2c0-0.8-0.6-1.4-1.3-1.4c-37.6,0-73.4,0-107.5,0
			c-0.7,0-1.3,0.6-1.3,1.4v18.2c0,0.8,0.6,1.4,1.3,1.4"/>
	</g>
	<g id="layer4" transform="translate(-1.0272,-23.310934)">
		<path id="rect3721" class="st4" d="M215.4,66.1c-0.7,0-1.2,0.6-1.2,1.2v15.8c0,0.7,0.6,1.2,1.2,1.2h5.7h1.6h0.1v-2.3
			c-3.5-0.3-6.3-3.2-6.3-6.8c0-3.6,2.8-6.5,6.3-6.8v-2.5h-0.1h-1.6H215.4L215.4,66.1z M223.9,66.1v2.5c3.5,0.3,6.3,3.2,6.3,6.8
			c0,3.6-2.8,6.5-6.3,6.8v2.3h0h1.7h94.6c0.7,0,1.2-0.6,1.2-1.2V67.4c0-0.7-0.6-1.2-1.2-1.2h-94.6H223.9L223.9,66.1z M232.5,67.5
			h87.5V83h-87.5V67.5z"/>
	</g>
	<g id="layer6" transform="translate(-1.0272,-23.310934)">
		<path id="path3761" class="st5" d="M222.8,69.6c-3,0.3-5.3,2.8-5.3,5.8s2.4,5.6,5.3,5.8v-4.3c-0.6-0.2-1.1-0.8-1.1-1.5
			s0.4-1.3,1.1-1.5V69.6L222.8,69.6z M223.8,69.6v4.3c0.6,0.2,1.1,0.8,1.1,1.5s-0.4,1.3-1.1,1.5v4.3c3-0.3,5.3-2.8,5.3-5.8
			S226.8,69.8,223.8,69.6z"/>
	</g>
	<g id="layer13" transform="translate(-1.0272,-23.310934)">
		<g id="g3924" transform="matrix(0.79965586,0,0,0.79965586,0.36606882,21.167561)">
			<path id="path3901" class="st0" d="M299.9,63.2c0.6,0,4.2,0,4.6,0c0,0.3,0,1.5,0,1.8c-0.3,0-4,0-4.6,0c-1.4,0-1.3,1.6,0,1.6
				c0.6,0,1.4,0,1.7,0c4.5,0,4.5,5.5,0,5.5c-0.3,0-4.7,0-5,0c0-0.3,0-1.6,0-1.9c0.2,0,4.5,0,5,0c1.5,0,1.5-1.9,0-1.9
				c-0.3,0-1.2,0-1.7,0C295.4,68.3,295.4,63.2,299.9,63.2z"/>
			<path id="path3907" class="st0" d="M333,63.2c0,0.4,0,1.5,0,1.9c-0.3,0-1.4,0-2,0c-1.3,0-1.4,1.2-1.4,1.9c0,0.3,0,4.6,0,5.1
				c-0.2,0-2.1,0-2.4,0c0-0.3,0-4.3,0-5c0-0.8,0.1-1.9,0.7-2.7c0.5-0.7,1.3-1.2,2.1-1.2C330.3,63.2,331.4,63.2,333,63.2z"/>
			<path id="path3897-1" class="st3" d="M336,60c0.8,0,1.6,0,2.4,0c0,1,0,2.3,0,3.2c0.8,0,1.6,0,2.4,0c0,0.6,0,1.2,0,1.9
				c-0.8,0-1.6,0-2.4,0c0,1.4,0,2.7,0,4.2c0,1.1,1.1,0.9,2.4,0.9c0,0.6,0,1.4,0,1.9c-1.2,0-1.9,0-2.4,0c-2.2,0-2.4-1.9-2.4-2.8
				c0-1.5,0-2.7,0-4.2c-0.6,0-0.9,0-1.6,0c0-0.7,0-1.3,0-1.9c0.6,0,1.2,0,1.6,0C336,62.2,336,61.1,336,60L336,60L336,60z"/>
			<path id="path3891-7" class="st4" d="M309,75.3c0-0.7,0-2.9,0-3.2c0.8,0,1.5,0,2,0c3,0,4.3-1.9,4.3-4.4c0-2.5-1.4-4.4-4.3-4.4
				c-0.7,0-3.7,0-4.4,0c0,0.6,0,10.9,0,12.1C307,75.3,308.5,75.3,309,75.3L309,75.3L309,75.3L309,75.3z M309,70.2l0-5.1
				c0.5,0,1.1,0,2,0c2.5,0,2.5,5.1,0,5.1C310.3,70.2,309.6,70.2,309,70.2L309,70.2L309,70.2z"/>
			<path id="path3833" class="st4" d="M321.1,63.1c-2.5,0.1-4.4,2.1-4.4,4.5c0,2.5,2.1,4.6,4.7,4.6c2.6,0,4.7-2,4.7-4.6
				c0-2.5-2.1-4.5-4.7-4.5C321.2,63.1,321.2,63.1,321.1,63.1z M321.3,65c1.2,0,2.2,1.2,2.2,2.6s-1,2.6-2.2,2.6s-2.2-1.2-2.2-2.6
				S320.1,65,321.3,65z"/>
			<path id="path3891" class="st5" d="M348.6,60c0,0.7,0,2.9,0,3.2c-0.8,0-1.5,0-2,0c-3,0-4.3,1.9-4.3,4.4c0,2.5,1.4,4.4,4.3,4.4
				c0.7,0,3.7,0,4.4,0c0-0.6,0-10.9,0-12.1C350.6,60,349.1,60,348.6,60L348.6,60L348.6,60L348.6,60z M348.6,65.1l0,5.1
				c-0.5,0-1.1,0-2,0c-2.5,0-2.5-5.1,0-5.1C347.3,65.1,348,65.1,348.6,65.1L348.6,65.1z"/>
			<path id="path3897" class="st1" d="M374.7,60c0.8,0,1.6,0,2.4,0c0,1,0,2.3,0,3.2c0.8,0,1.6,0,2.4,0c0,0.6,0,1.2,0,1.9
				c-0.8,0-1.6,0-2.4,0c0,1.4,0,2.7,0,4.2c0,1.1,1.1,0.9,2.4,0.9c0,0.6,0,1.4,0,1.9c-1.2,0-1.9,0-2.4,0c-2.2,0-2.4-1.9-2.4-2.8
				c0-1.5,0-2.7,0-4.2c-0.6,0-0.9,0-1.6,0c0-0.7,0-1.3,0-1.9c0.6,0,1.2,0,1.6,0C374.7,62.2,374.7,61.1,374.7,60L374.7,60L374.7,60z"
				/>
			<path id="path3911" class="st1" d="M366.4,63.2c-1.5,0-2.4,0-4.5,0c-3,0-4.3,2-4.3,4.3c0,2.5,1.2,4.6,4.3,4.6c0.3,0,1.6,0,2.2,0
				c0,0.5,0,1-0.9,1c-1.6,0-3.1,0-4.6,0v1.8c1.6,0,3.2,0,4.9,0c0.9,0,2-0.3,2.5-1.2c0.6-1.1,0.4-2.4,0.4-3.5
				C366.4,67.8,366.4,65.6,366.4,63.2L366.4,63.2z M364,65.1c0,1.7,0,3.4,0,5.1c-0.4,0-1.8,0-2.2,0c-2.7,0-2.7-5.1,0-5.1
				C362.3,65.1,362.8,65.1,364,65.1z"/>
			<path id="path3915" class="st1" d="M381.2,63.2c0,0.6,0,1.3,0,1.9c1.8,0,3.3,0,4.9,0c0.8,0.1,1.1,0.8,1.2,1.5c-1.5,0-2.7,0-4.1,0
				c-3.3,0-3.3,5.5,0,5.5c1.9,0,4.6,0,6.5,0c0-1.7,0-3.6,0-5.3c0-2.3-1.4-3.5-3.6-3.5C384.4,63.2,382.8,63.3,381.2,63.2z
				 M387.3,68.3c0,0.6,0,1.3,0,1.9c-0.8,0-1.8,0-2.9,0c-1.6,0-1.7-1.9,0-1.9C384.7,68.3,386,68.3,387.3,68.3L387.3,68.3z"/>
			<rect id="rect2858" x="391.3" y="60" class="st5" width="2.5" height="12.1"/>
			<g id="g3860" transform="translate(0,-3.8411302)">
				<rect id="rect2882" x="353.2" y="67.1" class="st5" width="2.5" height="8.8"/>
				<rect id="rect2884" x="353.2" y="63.8" class="st5" width="2.5" height="2.3"/>
			</g>
			<g id="g3864" transform="translate(0,-3.8411302)">
				<rect id="rect2882-1" x="368.6" y="67.1" class="st5" width="2.5" height="8.8"/>
				<rect id="rect2884-7" x="368.6" y="63.8" class="st5" width="2.5" height="2.3"/>
			</g>
		</g>
	</g>
</g>
</svg>
