<?xml version="1.0" encoding="utf-8"?>
<!-- Generator: Adobe Illustrator 15.0.0, SVG Export Plug-In . SVG Version: 6.00 Build 0)  -->
<!DOCTYPE svg PUBLIC "-//W3C//DTD SVG 1.1//EN" "http://www.w3.org/Graphics/SVG/1.1/DTD/svg11.dtd">
<svg version="1.1"
	 id="svg27521" inkscape:version="0.48.1 " sodipodi:docname="Neues Dokument 3" xmlns:dc="http://purl.org/dc/elements/1.1/" xmlns:cc="http://creativecommons.org/ns#" xmlns:rdf="http://www.w3.org/1999/02/22-rdf-syntax-ns#" xmlns:svg="http://www.w3.org/2000/svg" xmlns:sodipodi="http://sodipodi.sourceforge.net/DTD/sodipodi-0.dtd" xmlns:inkscape="http://www.inkscape.org/namespaces/inkscape"
	 xmlns="http://www.w3.org/2000/svg" xmlns:xlink="http://www.w3.org/1999/xlink" x="0px" y="0px" width="110px" height="27px"
	 viewBox="-46.4 -11 110 27" style="enable-background:new -46.4 -11 110 27;" xml:space="preserve">
<style type="text/css">
<![CDATA[
	.st0{fill:#E50011;}
	.st1{fill:#FFFFFF;}
]]>
</style>
<g id="layer1" transform="translate(-315.83479,-546.04971)" inkscape:groupmode="layer" inkscape:label="Ebene 1">
	<g id="g21334" transform="matrix(1.25,0,0,-1.25,64.65419,653.75359)">
		<g>
			<g id="g21336">
				<g id="g21342" transform="translate(201.3507,85.7632)">
					<path id="path21344" inkscape:connector-curvature="0" class="st0" d="M-37.5,9.2h87.9v-21.6c0,0,0,0,0-0.1h-88c0,0,0,0,0,0.1
						L-37.5,9.2C-37.5,9.2-37.5,9.2-37.5,9.2"/>
				</g>
				<g id="g21346" transform="translate(204.4471,84.5667)">
					<path id="path21348" inkscape:connector-curvature="0" class="st1" d="M-19.5,2.3c0.2-0.4,0.7-0.6,1.2-0.6
						c0.6,0,1.1,0.1,1.6,0.3V3c-0.4,0-0.6,0.1-0.7,0.5c-0.1,0.7,0.1,1.9,0,2.6h0.5c0,0.4,0,0.9,0,1.3c-0.1,0-0.3,0-0.5,0
						c0,0.4,0,0.9,0,1.2h-2.4V7.3h-0.5V6.1h0.6C-19.5,4.8-19.9,3.1-19.5,2.3 M-28.9,2.8C-28.9,2.8-28.9,2.7-28.9,2.8
						c0.4-0.7,1.4-1.1,2.4-1.2c1.1-0.1,2.1,0.3,2.7,0.8V1.9h2.4c0,1.8,0,3.7,0,5.4h-2.3C-23.9,6-23.5,4-24.4,3.4
						C-25,3-26,3.1-26.4,3.7c-0.3,0.4-0.3,1-0.3,1.7v2h-2.3c0,0,0,0,0-0.1C-29,5.8-29.4,3.9-28.9,2.8 M-15-3.6
						c0.4-0.5,1.2-0.3,1.9-0.2V-3c-0.8-0.1-0.3,1.5-0.4,2.1h0.4c0,0.3,0,0.7,0,0.9c-0.1,0-0.3,0-0.3,0v0.8h-1.7v-0.8h-0.4
						c0-0.1,0-0.7,0-0.9c0.1,0,0.3,0,0.4,0C-15.1-1.8-15.4-3.2-15-3.6 M-4.2-3.8v1.3c0,0.4-0.1,1,0.1,1.3c0.2,0.5,1.4,0.4,1.4-0.3
						h1.5c0.2,1.1-0.5,1.9-1.6,1.8c-0.6,0-1-0.4-1.4-0.6v0.4h-1.6c0-1.3,0-2.6,0-3.8C-5.4-3.8-4.7-3.8-4.2-3.8 M-22.9-1.3
						C-23-0.3-24,0.2-25,0.2c-0.7,0-1.2-0.3-1.7-0.5c-0.3,0.2-0.8,0.4-1.4,0.5c-0.8,0.1-1.5-0.2-2-0.4c0,0.1,0.1,0.3-0.1,0.3h-1.4
						v-3.8c0.4-0.1,1.1,0,1.5,0c0.1,0.8-0.2,1.6,0.1,2.2c0.3,0.7,1.6,0.8,1.9,0.1c0.3-0.6-0.1-1.6,0.1-2.3c0.4,0,1.3,0,1.6,0v1.1
						c0,0.4-0.1,0.8,0,1.1c0.2,0.8,1.7,0.8,2,0.1c0.2-0.6,0-1.5,0-2.2c0.4-0.1,1.1,0,1.6,0C-22.9-2.9-22.8-2-22.9-1.3 M1-6.3h0.3
						v0.7c-0.1,0-0.2,0-0.3,0V-5c-0.3,0-1.1,0-1.4,0v-0.7h-0.3c0-0.2,0-0.6,0-0.7c0.1,0,0.3,0,0.3,0C-0.1-7.1-0.5-8-0.1-8.5
						c0.3-0.4,1-0.3,1.5-0.1c0,0.1,0,0.4,0,0.6C0.8-8.1,1.1-6.9,1-6.3 M-17.8-6.6c-0.4,0-1.6-0.2-1.5,0.3c0,0.3,0.6,0.4,0.9,0.2
						c0.1,0,0.2-0.1,0.3-0.2c0.5-0.1,1.1,0.1,1.5,0c-0.1,0.5-0.5,0.6-0.9,0.8c-0.9,0.3-2.7,0.2-3.1-0.4c-0.2-0.3-0.2-0.8,0-1
						c0.3-0.5,0.9-0.5,1.6-0.6c0.3,0,1.1-0.1,1.1-0.3c0-0.3-0.7-0.3-1-0.3c-0.2,0-0.2,0.2-0.4,0.2c-0.2,0.1-0.5,0-0.8,0
						c-0.3,0-0.5,0-0.8,0c0.3-0.7,1-1,2.1-1.1c1-0.1,2.3,0.2,2.3,1.2C-16.4-6.9-17.1-6.7-17.8-6.6 M-2.5-5.3c-0.5,0-0.8-0.3-1.1-0.5
						v0.3h-1.3c-0.1-0.9,0-2.1,0-3.2h1.3v1c0,0.4-0.1,0.8,0,1c0.2,0.5,1.2,0.4,1.2-0.3c0.4,0,0.9,0,1.3,0C-1-5.8-1.6-5.2-2.5-5.3
						 M-23.1-6c-0.1,0.1-0.3,0-0.4-0.1c0,0.1-0.1,0.1-0.2,0.1c0-0.2,0-0.6,0-0.8c0-0.1,0-0.2,0.1-0.2h0.1c0.1,0.3-0.2,1,0.3,0.9
						c0.1-0.2,0-0.6,0.1-0.9h0.2C-23.1-6.7-22.9-6.2-23.1-6 M-24.1-6c-0.1-0.2,0.2-1-0.3-0.9c-0.1,0.2,0,0.6-0.1,0.9h-0.2
						c0-0.3,0-0.7,0-1c0.1-0.1,0.4-0.1,0.5,0c-0.1-0.1,0-0.1,0.1-0.1c0,0.1,0,0.4,0,0.6C-24-6.2-23.9-6-24.1-6 M-11.4,1.6
						c1.2,0,2.4,0.2,3.1,0.8C-7.5,3-7.2,4-7.3,5.1c-0.1,1-0.7,1.7-1.3,2c-0.9,0.5-2.1,0.7-3.5,0.6c-0.4,0-0.8-0.1-1.2-0.2
						c-0.8-0.2-1.4-0.5-1.8-1c-0.6-0.8-0.8-2.3-0.3-3.3C-14.8,2-13.2,1.6-11.4,1.6 M-12.6,5.7c0.2,0.2,0.4,0.2,0.7,0.3
						c0.4,0,1,0,1.3-0.2c0.6-0.3,0.8-1.3,0.3-1.9c-0.5-0.6-2-0.6-2.5,0C-13.2,4.4-13,5.3-12.6,5.7 M-30.5,2.4c0,0.3,0,0.6,0,0.9
						c0,0.3,0,0.6,0,0.9c0,0.6,0,1.2,0,1.7c-0.1,1.7-2.4,1.9-4.1,1.8c-1.4-0.1-2.7-0.3-3.3-1.2c-0.1-0.2-0.2-0.5-0.2-0.8h2.5
						c0.1,0.1,0.2,0.2,0.4,0.3c0.7,0.3,2.3,0.4,2.3-0.6c-1.9-0.3-4.4,0.1-5.3-1.1c-0.1-0.1-0.2-0.3-0.3-0.5
						c-0.6-2.4,3.3-2.8,5.1-1.9c0.2,0.1,0.3,0.3,0.5,0.4c0.1-0.2,0.1-0.4,0.2-0.5h2.4C-30.3,2-30.5,2.2-30.5,2.4 M-34.6,3
						c-0.7,0-1.4,0-1.3,0.6c0.1,0.8,2,0.7,2.9,0.7C-33,3.4-33.7,3.1-34.6,3 M-19.3,0.2c-0.6,0-1.2-0.1-1.6-0.3
						c-0.2-0.1-0.5-0.3-0.7-0.5c-0.6-0.7-0.5-2,0-2.6C-21-3.8-20.1-4-19.1-4c1.2,0,2.2,0.3,2.6,1c0.4,0.8,0.3,1.8-0.2,2.4
						C-17.1-0.1-18.1,0.2-19.3,0.2 M-18.2-2.5c-0.3-0.3-1.2-0.4-1.6-0.1c-0.4,0.2-0.4,0.9-0.1,1.3c0.1,0.1,0.3,0.2,0.5,0.3
						c0.6,0.1,1.1-0.1,1.3-0.5C-18-1.8-18-2.3-18.2-2.5 M-9.8,0.2c-1.1-0.1-2.1-0.4-2.4-1.1c-0.3-0.6-0.3-1.5,0-2
						C-11.8-3.7-10.8-4-9.6-4c1.2,0,2.3,0.3,2.8,1.1c0.3,0.5,0.3,1.5,0,2C-7-0.6-7.3-0.4-7.5-0.2C-8.1,0.1-8.9,0.2-9.8,0.2
						 M-8.6-2.4C-9-3-10.3-2.8-10.5-2.3c-0.3,0.7,0.2,1.2,0.7,1.3c0.5,0.1,1-0.1,1.2-0.3C-8.4-1.6-8.4-2.1-8.6-2.4 M-22.2-6.1
						C-23-5.4-23-7.7-22.2-7c0-0.1,0.1-0.1,0.2-0.1v1.4h-0.2V-6.1z M-22.5-7c-0.3,0-0.3,0.8,0.1,0.8C-22.2-6.2-22.2-7-22.5-7
						 M-12.9-5.3c-0.3,0-0.6,0-1-0.1c-0.2-0.1-0.3-0.2-0.5-0.3c0,0.1,0.1,0.2-0.1,0.2h-1.2v-4h1.3v1.1c0.4-0.3,0.7-0.4,1.2-0.4
						c1.1-0.1,2,0.5,2.1,1.5C-10.9-6.1-11.8-5.4-12.9-5.3 M-14.3-7.4c-0.2,0.6,0.2,1.1,0.7,1.2c0.5,0.1,1.1-0.2,1.1-0.8
						C-12.4-8.1-14-8.2-14.3-7.4 M-8.3-5.3c-1-0.1-1.6-0.4-1.9-0.9c-0.4-0.7-0.1-1.5,0.1-1.8c0.6-0.9,2.9-1,3.9-0.4
						c0.5,0.3,0.9,1.2,0.6,2.1C-6-5.6-7-5.2-8.3-5.3 M-7.4-7.6c-0.3-0.2-1-0.2-1.3,0.1c-0.2,0.3-0.2,0.7,0,1
						c0.1,0.1,0.3,0.2,0.5,0.2c0.5,0.1,1-0.1,1.1-0.5C-7.1-7.1-7.1-7.4-7.4-7.6"/>
				</g>
				<g id="g21350" transform="translate(207.8486,85.6654)">
					<path id="path21352" inkscape:connector-curvature="0" class="st1" d="M0.3,8.7c0-6.7,0-13.9,0-20.4h43V8.7L0.3,8.7
						C0.3,8.7,0.3,8.7,0.3,8.7"/>
				</g>
				<g id="g21354" transform="translate(208.6277,84.3146)">
					<path id="path21356" inkscape:connector-curvature="0" class="st0" d="M4.9,0.8C5,0.7,5,0.6,5.1,0.5c0.1-0.1,0.1-0.2,0.2-0.3
						c0.4,0.1,0.8,0.3,1.2,0.4c-0.2,1-1,1.5-2.2,1.4C3.6,1.9,3,1.6,2.7,1.1c-0.6-1-0.5-2.7,0.4-3.5c0.3-0.2,0.6-0.4,1-0.4
						c1.1-0.1,1.9,0.4,2.2,1.2C6.1-1.4,5.7-1.2,5.3-1C5.2-1.3,5.1-1.5,4.8-1.7C3.6-2.1,3.4,0.2,4.1,0.7C4.3,0.9,4.6,0.9,4.9,0.8
						 M10.6,0.2l-1.4,0v1.7H7.9c0,0.1-0.1,0-0.1-0.1v-4.6c0.3,0,1,0,1.3,0v1.8c0.4,0,1.1,0,1.5,0v-1.8h1.3v4.7h-1.3
						C10.6,1.4,10.6,0.2,10.6,0.2 M16.3,1.9c-0.3,0-0.9,0-1.3,0c-0.5-1.6-1.1-3.1-1.7-4.7c0.4,0,1.4,0,1.4,0L15-1.9l1.4,0l0.2-0.8
						l1.4,0C18-2.8,16.9,0.3,16.3,1.9L16.3,1.9z M15.3-0.9c0.1,0.5,0.3,0.9,0.4,1.4C15.8,0,15.9-0.4,16-0.9H15.3z M22.1,1.9v-2.4
						l-1.7,2.4h-1.1v-4.7c0.3,0,1,0,1.2,0c0,0.8,0,1.9,0,2.6c0.5-0.7,0.9-1.4,1.4-2c0.1-0.2,0.3-0.4,0.5-0.6c0.2,0,0.8,0,1,0v4.7
						C22.9,1.9,22.1,1.9,22.1,1.9 M27.9-0.5c-0.3,0.4-0.5,0.9-0.8,1.3c-0.3,0.4-0.6,0.8-0.9,1.2H25c0,0,0,0-0.1,0v-4.7
						c0.3,0,0.9,0,1.3,0c0,0.9,0,1.8,0,2.6c0.3-0.5,0.6-0.9,0.9-1.3c0.3-0.4,0.6-0.9,0.9-1.3c0.2,0.1,0.8,0,1,0v4.7h-1.3
						C27.8,1.1,27.8,0.2,27.9-0.5 M39.2-1.6c-0.7,0-1.4,0-2.1,0c0,1.2,0,2.4,0,3.5c-0.4,0-0.8,0-1.3,0c0,0.1-0.1,0-0.1-0.1v-4.6
						c1,0,2.3,0,3.4,0C39.2-2.5,39.2-2,39.2-1.6 M32-0.9h1.4v1.1H32c0,0.2,0,0.5,0,0.6h2.3v1.1h-3.6c-0.1-1.5,0-3.1,0-4.7h3.6v1.1
						H32C32-1.4,32-1.1,32-0.9"/>
				</g>
			</g>
		</g>
	</g>
</g>
</svg>
