<?xml version="1.0" encoding="UTF-8" standalone="no"?>
<!-- Created with Inkscape (http://www.inkscape.org/) -->
<svg xmlns:dc="http://purl.org/dc/elements/1.1/" xmlns:cc="http://creativecommons.org/ns#" xmlns:rdf="http://www.w3.org/1999/02/22-rdf-syntax-ns#" xmlns:svg="http://www.w3.org/2000/svg" xmlns="http://www.w3.org/2000/svg" xmlns:xlink="http://www.w3.org/1999/xlink" xmlns:sodipodi="http://sodipodi.sourceforge.net/DTD/sodipodi-0.dtd" xmlns:inkscape="http://www.inkscape.org/namespaces/inkscape" width="1000" height="341.6969" id="svg2" version="1.1" inkscape:version="0.48.2 r9819" sodipodi:docname="New document 1">
  <defs id="defs4">
    <linearGradient y2="0" x2="1" y1="0" x1="0" spreadMethod="pad" gradientTransform="matrix(0,-56,-56,0,231.8894,256.12634)" gradientUnits="userSpaceOnUse" id="linearGradient3172" xlink:href="#linearGradient84" inkscape:collect="always"/>
    <linearGradient y2="0" x2="1" y1="0" x1="0" spreadMethod="pad" gradientTransform="matrix(0,-56,-56,0,231.8894,256.12634)" gradientUnits="userSpaceOnUse" id="linearGradient3170" xlink:href="#linearGradient64" inkscape:collect="always"/>
    <linearGradient y2="0" x2="1" y1="0" x1="0" spreadMethod="pad" gradientTransform="matrix(0,-56,-56,0,231.88943,256.1263)" gradientUnits="userSpaceOnUse" id="linearGradient3168" xlink:href="#linearGradient44" inkscape:collect="always"/>
    <clipPath id="clipPath120" clipPathUnits="userSpaceOnUse">
      <path inkscape:connector-curvature="0" id="path122" d="m 0,0 595.276,0 0,595.276 L 0,595.276 0,0 z"/>
    </clipPath>
    <clipPath id="clipPath96" clipPathUnits="userSpaceOnUse">
      <path inkscape:connector-curvature="0" id="path98" d="m 0,0 595.276,0 0,595.276 L 0,595.276 0,0 z"/>
    </clipPath>
    <linearGradient id="linearGradient84" spreadMethod="pad" gradientTransform="matrix(0,-56,-56,0,231.8894,256.12634)" gradientUnits="userSpaceOnUse" y2="0" x2="1" y1="0" x1="0">
      <stop id="stop86" offset="0" style="stop-opacity:1;stop-color:#00c3ff"/>
      <stop id="stop88" offset="1" style="stop-opacity:1;stop-color:#0028e0"/>
    </linearGradient>
    <linearGradient id="linearGradient64" spreadMethod="pad" gradientTransform="matrix(0,-56,-56,0,231.8894,256.12634)" gradientUnits="userSpaceOnUse" y2="0" x2="1" y1="0" x1="0">
      <stop id="stop66" offset="0" style="stop-opacity:1;stop-color:#00c3ff"/>
      <stop id="stop68" offset="1" style="stop-opacity:1;stop-color:#0028e0"/>
    </linearGradient>
    <linearGradient id="linearGradient44" spreadMethod="pad" gradientTransform="matrix(0,-56,-56,0,231.88943,256.1263)" gradientUnits="userSpaceOnUse" y2="0" x2="1" y1="0" x1="0">
      <stop id="stop46" offset="0" style="stop-opacity:1;stop-color:#00c3ff"/>
      <stop id="stop48" offset="1" style="stop-opacity:1;stop-color:#0028e0"/>
    </linearGradient>
    <clipPath id="clipPath16" clipPathUnits="userSpaceOnUse">
      <path inkscape:connector-curvature="0" id="path18" d="m 0,0 595.276,0 0,595.276 L 0,595.276 0,0 z"/>
    </clipPath>
  </defs>
  <sodipodi:namedview id="base" pagecolor="#ffffff" bordercolor="#666666" borderopacity="1.0" inkscape:pageopacity="0.0" inkscape:pageshadow="2" inkscape:zoom="0.5" inkscape:cx="1307.4159" inkscape:cy="243.49919" inkscape:document-units="px" inkscape:current-layer="layer1" showgrid="false" fit-margin-left="0.5" fit-margin-top="0.5" fit-margin-bottom="0.5" fit-margin-right="0.5" inkscape:window-width="1920" inkscape:window-height="1028" inkscape:window-x="-8" inkscape:window-y="-8" inkscape:window-maximized="1">
    <inkscape:grid type="xygrid" id="grid2996" empspacing="5" visible="true" enabled="true" snapvisiblegridlinesonly="true"/>
  </sodipodi:namedview>
  <metadata id="metadata7">
    <rdf:RDF>
      <cc:Work rdf:about="">
        <dc:format>image/svg+xml</dc:format>
        <dc:type rdf:resource="http://purl.org/dc/dcmitype/StillImage"/>
        <dc:title/>
      </cc:Work>
    </rdf:RDF>
  </metadata>
  <g inkscape:label="Layer 1" inkscape:groupmode="layer" id="layer1" transform="translate(428.18735,-338.64129)">
    <g id="g3360" transform="matrix(0.58948927,0,0,0.58948927,-108.36847,277.90189)">
      <path sodipodi:nodetypes="ccccccc" inkscape:connector-curvature="0" id="path3358" d="m 709,219.36218 0,-75 176,0 c 103.45394,0 163.4661,29.6655 210,75 l -70,24 -307,-16 z" style="fill:#0178ff;fill-opacity:1;stroke:none"/>
      <path sodipodi:nodetypes="ccccccccccc" inkscape:connector-curvature="0" id="path3356" d="m 845,335.36218 -70,32 -66,-32 0,-116 386,0 c 36.0843,40.44506 48.0208,80.33854 54,116 l -67.5,45 -73.5,-45 c -13.17385,-54.02141 -46.8007,-91 -119.6014,-91 l -43.3986,0 z" style="fill:#33cc00;fill-opacity:1;stroke:none"/>
      <path sodipodi:nodetypes="cccccc" inkscape:connector-curvature="0" id="path3352" d="m 778,496.36218 -69,-46 0,-115 136,0 0,115 z" style="fill:#fea401;fill-opacity:1;stroke:none"/>
      <g id="g3285">
        <g transform="matrix(8.4878417,0,0,8.4878417,-782.25024,-3264.5187)" id="g3271" clip-path="url(#clipPath120)" style="fill:#33cc00;fill-opacity:1;stroke:none">
          <g id="g3273" transform="translate(53.7052,463.9935)" style="fill:#33cc00;fill-opacity:1;stroke:none">
            <path inkscape:connector-curvature="0" d="m -2.8793571,-39.87152 c 0.1035643,-1.549362 0.2484545,-3.153669 0.4463571,-4.71748 0.5282349,-4.194482 1.1805172,-7.013935 2.54023149,-8.951131 l -0.19559331,-1.488935 c 0,0 -20.55100418,-7.561303 -23.00394418,1.488935 -0.40303,1.486996 -0.743448,3.154185 -1.059694,5.025131 -0.487883,2.891181 -0.795728,5.880018 -0.978332,8.64348 l 10.687203,7.010027 z" style="fill:#33cc00;fill-opacity:1;fill-rule:nonzero;stroke:none" id="path3275" sodipodi:nodetypes="ccccscccc"/>
          </g>
        </g>
        <g id="g3130" clip-path="url(#clipPath120)" style="fill:#fea401;fill-opacity:1;stroke:none" transform="matrix(8.4878417,0,0,-8.4878417,-782.2854,4050.2424)">
          <g id="g3132" transform="translate(53.7052,463.9935)" style="fill:#fea401;fill-opacity:1;stroke:none">
            <path inkscape:connector-curvature="0" d="M -2.8752205,-26.322729 C -3.0469479,-28.868808 -3.107,-31.272114 -3.107,-33.133 c 0,-1.838099 0.059065,-4.217372 0.2275511,-6.738534 0.1035704,-1.549789 -12.9256191,-4.570197 -12.9256191,-4.570197 l -9.325293,4.57021 c -0.166201,2.515395 -0.228639,4.844314 -0.228639,6.745521 0,1.915988 0.06338,4.266389 0.232408,6.803271" style="fill:#fea401;fill-opacity:1;fill-rule:nonzero;stroke:none" id="path3134" sodipodi:nodetypes="cssccsc"/>
          </g>
        </g>
        <g style="fill:#ff6400;fill-opacity:1;stroke:none" clip-path="url(#clipPath120)" id="g3146" transform="matrix(8.4878417,0,0,-8.4878417,-782.2854,4050.2424)">
          <g style="fill:#ff6400;fill-opacity:1;stroke:none" transform="translate(53.7052,463.9935)" id="g3148">
            <path sodipodi:nodetypes="ccccscc" id="path3150" style="fill:#ff6400;fill-opacity:1;fill-rule:nonzero;stroke:none" d="m -2.8793571,-39.87152 c 0.1035643,-1.549362 0.2484545,-3.153669 0.4463571,-4.71748 0.5282349,-4.194482 1.1805172,-7.013935 2.54023149,-8.951131 l -0.19559331,-1.488935 c 0,0 -20.55100418,-7.561303 -23.00394418,1.488935 -0.40303,1.486996 -0.743448,3.154185 -1.059694,5.025131 -0.487883,2.891181 -0.795728,5.880018 -0.978332,8.64348" inkscape:connector-curvature="0"/>
          </g>
        </g>
        <g style="fill:#ed1d24;fill-opacity:1;stroke:none" clip-path="url(#clipPath120)" id="g118" transform="matrix(8.4878417,0,0,-8.4878417,-782.2854,4050.2424)">
          <g style="fill:#ed1d24;fill-opacity:1;stroke:none" transform="translate(53.7052,463.9935)" id="g124">
            <path sodipodi:nodetypes="cccccc" id="path126" style="fill:#ed1d24;fill-opacity:1;fill-rule:nonzero;stroke:none" d="M 0.10723149,-53.540131 C 1.9525349,-56.16644 5.1038971,-57.175385 11.028,-57.809 c 2.927,-0.314 6.045,-0.501 8.839,-0.601 l 0,-8.733 C 13.974,-67.049 6.71,-66.785 0,-66.251 c -15.859809,1.267685 -20.639324,3.661056 -23.092306,12.710869" inkscape:connector-curvature="0"/>
          </g>
          <g style="fill:#ed1d24;fill-opacity:1;stroke:none" transform="translate(128.9098,430.8674)" id="g128"/>
        </g>
        <g transform="matrix(8.4878417,0,0,8.4878417,-782.25024,-3264.5187)" id="g3277" clip-path="url(#clipPath120)" style="fill:#0178ff;fill-opacity:1;stroke:none">
          <g id="g3279" transform="translate(53.7052,463.9935)" style="fill:#0178ff;fill-opacity:1;stroke:none">
            <path inkscape:connector-curvature="0" d="M 0.10723149,-53.540131 C 1.9525349,-56.16644 5.1038971,-57.175385 11.028,-57.809 c 2.927,-0.314 6.045,-0.501 8.839,-0.601 l 0,-8.733 C 13.974,-67.049 6.71,-66.785 0,-66.251 c -15.859809,1.267685 -20.639324,3.661056 -23.092306,12.710869" style="fill:#0178ff;fill-opacity:1;fill-rule:nonzero;stroke:none" id="path3281" sodipodi:nodetypes="cccccc"/>
          </g>
          <g id="g3283" transform="translate(128.9098,430.8674)" style="fill:#0178ff;fill-opacity:1;stroke:none"/>
        </g>
      </g>
      <path sodipodi:nodetypes="ccccc" inkscape:connector-curvature="0" id="path3346" d="M 549.42197,250.85665 477.651,219.34418 c 4.86867,-28.72854 23.74606,-47.15316 72.83163,-47.15316 51.07516,0 67.50316,19.25735 74.24637,47.15316 z" style="fill:#0178ff;fill-opacity:1;stroke:none"/>
      <g transform="matrix(-1,0,0,1,-230.46839,0)" id="g3304">
        <g style="fill:#33cc00;fill-opacity:1;stroke:none" clip-path="url(#clipPath120)" id="g3306" transform="matrix(8.4878417,0,0,8.4878417,-782.25024,-3264.5187)">
          <g style="fill:#33cc00;fill-opacity:1;stroke:none" transform="translate(53.7052,463.9935)" id="g3308">
            <path sodipodi:nodetypes="ccccscccc" id="path3310" style="fill:#33cc00;fill-opacity:1;fill-rule:nonzero;stroke:none" d="m -2.8793571,-39.87152 c 0.1035643,-1.549362 0.2484545,-3.153669 0.4463571,-4.71748 0.5282349,-4.194482 1.1805172,-7.013935 2.54023149,-8.951131 l -0.19559331,-1.488935 c 0,0 -20.55100418,-7.561343 -23.00394418,1.488895 -0.40303,1.486996 -0.743448,3.154225 -1.059694,5.025171 -0.487883,2.891181 -0.795728,5.880018 -0.978332,8.64348 l 10.687203,7.010027 z" inkscape:connector-curvature="0"/>
          </g>
        </g>
        <g transform="matrix(8.4878417,0,0,-8.4878417,-782.2854,4050.2424)" style="fill:#fea401;fill-opacity:1;stroke:none" clip-path="url(#clipPath120)" id="g3312">
          <g style="fill:#fea401;fill-opacity:1;stroke:none" transform="translate(53.7052,463.9935)" id="g3314">
            <path sodipodi:nodetypes="cssccsc" id="path3316" style="fill:#fea401;fill-opacity:1;fill-rule:nonzero;stroke:none" d="M -2.8752205,-26.322729 C -3.0469479,-28.868808 -3.107,-31.272114 -3.107,-33.133 c 0,-1.838099 0.059065,-4.217372 0.2275511,-6.738534 0.1035704,-1.549789 -12.9256191,-4.570197 -12.9256191,-4.570197 l -9.325293,4.57021 c -0.166201,2.515395 -0.228639,4.844314 -0.228639,6.745521 0,1.915988 0.06338,4.266389 0.232408,6.803271" inkscape:connector-curvature="0"/>
          </g>
        </g>
        <g transform="matrix(8.4878417,0,0,-8.4878417,-782.2854,4050.2424)" id="g3318" clip-path="url(#clipPath120)" style="fill:#ff6400;fill-opacity:1;stroke:none">
          <g id="g3320" transform="translate(53.7052,463.9935)" style="fill:#ff6400;fill-opacity:1;stroke:none">
            <path inkscape:connector-curvature="0" d="m -2.8793571,-39.87152 c 0.1035643,-1.549362 0.2484545,-3.153669 0.4463571,-4.71748 0.5282349,-4.194482 1.1805172,-7.013935 2.54023149,-8.951131 l -0.19559331,-1.488935 c 0,0 -20.55100418,-7.561303 -23.00394418,1.488935 -0.40303,1.486996 -0.743448,3.154185 -1.059694,5.025131 -0.487883,2.891181 -0.795728,5.880018 -0.978332,8.64348" style="fill:#ff6400;fill-opacity:1;fill-rule:nonzero;stroke:none" id="path3322" sodipodi:nodetypes="ccccscc"/>
          </g>
        </g>
        <g transform="matrix(8.4878417,0,0,-8.4878417,-782.2854,4050.2424)" id="g3324" clip-path="url(#clipPath120)" style="fill:#ed1d24;fill-opacity:1;stroke:none">
          <g id="g3326" transform="translate(53.7052,463.9935)" style="fill:#ed1d24;fill-opacity:1;stroke:none">
            <path inkscape:connector-curvature="0" d="M 0.10723149,-53.540131 C 1.9525349,-56.16644 5.1038971,-57.175385 11.028,-57.809 c 2.927,-0.314 6.045,-0.501 8.839,-0.601 l 0,-8.733 C 13.974,-67.049 6.71,-66.785 0,-66.251 c -15.859809,1.267685 -20.639324,3.661056 -23.092306,12.710869" style="fill:#ed1d24;fill-opacity:1;fill-rule:nonzero;stroke:none" id="path3328" sodipodi:nodetypes="cccccc"/>
          </g>
          <g id="g3330" transform="translate(128.9098,430.8674)" style="fill:#ed1d24;fill-opacity:1;stroke:none"/>
        </g>
        <g style="fill:#0178ff;fill-opacity:1;stroke:none" clip-path="url(#clipPath120)" id="g3332" transform="matrix(8.4878417,0,0,8.4878417,-782.25024,-3264.5187)">
          <g style="fill:#0178ff;fill-opacity:1;stroke:none" transform="translate(53.7052,463.9935)" id="g3334">
            <path sodipodi:nodetypes="cccccc" id="path3336" style="fill:#0178ff;fill-opacity:1;fill-rule:nonzero;stroke:none" d="M 0.10723149,-53.540131 C 1.9525349,-56.16644 5.1038971,-57.175385 11.028,-57.809 c 2.927,-0.314 6.045,-0.501 8.839,-0.601 l 0,-8.733 C 13.974,-67.049 6.71,-66.785 0,-66.251 c -15.859809,1.267685 -20.639324,3.661056 -23.092306,12.710869" inkscape:connector-curvature="0"/>
          </g>
          <g style="fill:#0178ff;fill-opacity:1;stroke:none" transform="translate(128.9098,430.8674)" id="g3338"/>
        </g>
        <path sodipodi:nodetypes="cccccc" transform="matrix(-1,0,0,1,-230.46839,0)" inkscape:connector-curvature="0" id="path3344" d="m 551.36651,306.36453 c -62.31019,0 -75.48365,-27.62614 -75.48365,-64.52349 0,-11.48906 1.76814,-22.49686 1.76814,-22.49686 l 147.078,0 c 0,0 1.94438,7.94559 1.94438,20.90587 0,41.67756 -15.01305,66.11448 -75.30687,66.11448 z" style="fill:#33cc00;fill-opacity:1;stroke:none"/>
      </g>
      <path sodipodi:nodetypes="cccccccc" inkscape:connector-curvature="0" id="path3342" d="M 529.97653,580.19163 486,566.37918 c -6.65423,-10.91653 -10.11714,-21.59104 -10.11714,-42.93287 0,-41.88057 18.53136,-67.17514 73.71588,-67.17514 57.9615,0 77.60497,23.44698 77.60497,66.82159 0,22.05477 -4.41914,33.33344 -10.82871,43.28642 l -52.45734,16.99443 z" style="fill:#ff6400;fill-opacity:1;stroke:none"/>
      <path sodipodi:nodetypes="cccc" inkscape:connector-curvature="0" id="path3340" d="m 486,566.37918 130.375,0 c -9.0545,12.96788 -24.71541,24.358 -65.25,24.358 -37.24142,0 -54.11241,-8.64344 -65.125,-24.358 z" style="fill:#ed1d24;fill-opacity:1;stroke:none"/>
      <path sodipodi:nodetypes="cccccccc" inkscape:connector-curvature="0" id="path3354" d="m 1059,474.36218 -58,-24 c 8.7072,-22.20392 12,-43.00732 12,-67.25 0,-21.76173 -3.0025,-39.96506 -5,-47.75 l 141,0 c 0,0 4,19.91503 4,44 0,38.70396 -8,71 -8,71 z" style="fill:#fea401;fill-opacity:1;stroke:none"/>
      <path sodipodi:nodetypes="ccccccccccc" inkscape:connector-curvature="0" id="path3350" d="M 728.875,580.92468 709,566.37918 l 0,-116.017 136,0 0,69 37,0 c 61.45913,0 100.68032,-21.67587 119,-69 l 144,0 c -13.4328,53.90204 -38.4167,85.09467 -74.875,116.017 L 850,597.36218 z" style="fill:#ff6400;fill-opacity:1;stroke:none"/>
      <path sodipodi:nodetypes="ccccc" inkscape:connector-curvature="0" id="path3348" d="m 709,618.36218 0,-51.983 361.125,0 c -43.2723,32.04342 -102.43129,51.983 -174.125,51.983 z" style="fill:#ed1d24;fill-opacity:1;stroke:none"/>
    </g>
  </g>
</svg>