<?xml version="1.0" encoding="utf-8"?>
<!-- Generator: Adobe Illustrator 15.0.0, SVG Export Plug-In . SVG Version: 6.00 Build 0)  -->
<!DOCTYPE svg PUBLIC "-//W3C//DTD SVG 1.1//EN" "http://www.w3.org/Graphics/SVG/1.1/DTD/svg11.dtd">
<svg version="1.1"
	 id="svg13526" inkscape:version="0.48.1 " sodipodi:docname="Neues Dokument 4" xmlns:dc="http://purl.org/dc/elements/1.1/" xmlns:cc="http://creativecommons.org/ns#" xmlns:rdf="http://www.w3.org/1999/02/22-rdf-syntax-ns#" xmlns:svg="http://www.w3.org/2000/svg" xmlns:sodipodi="http://sodipodi.sourceforge.net/DTD/sodipodi-0.dtd" xmlns:inkscape="http://www.inkscape.org/namespaces/inkscape"
	 xmlns="http://www.w3.org/2000/svg" xmlns:xlink="http://www.w3.org/1999/xlink" x="0px" y="0px" width="110px" height="14.3px"
	 viewBox="329.6 42.9 110 14.3" style="enable-background:new 329.6 42.9 110 14.3;" xml:space="preserve">
<style type="text/css">
<![CDATA[
	.st0{fill:#231F20;}
	.st1{fill:#F25323;}
	.st2{fill:#FFFFFF;}
]]>
</style>
<sodipodi:namedview  id="base" inkscape:current-layer="layer1" inkscape:window-y="-8" inkscape:window-x="-8" fit-margin-bottom="0" fit-margin-right="0" inkscape:window-height="1028" inkscape:window-width="1618" inkscape:pageshadow="2" inkscape:pageopacity="0.0" inkscape:window-maximized="1" inkscape:document-units="px" inkscape:cy="75.202626" inkscape:cx="634.97454" bordercolor="#666666" inkscape:zoom="0.7" pagecolor="#ffffff" fit-margin-left="0" fit-margin-top="0" borderopacity="1.0" showgrid="false">
	</sodipodi:namedview>
<g id="layer1" transform="translate(241.25938,-360.84022)" inkscape:groupmode="layer" inkscape:label="Ebene 1">
	<path id="path4427" inkscape:connector-curvature="0" class="st1" d="M109.6,404.6c0-0.5-0.4-0.9-0.9-0.9H89.2
		c-0.5,0-0.9,0.4-0.9,0.9V417c0,0.5,0.4,0.9,0.9,0.9h19.5c0.5,0,0.9-0.4,0.9-0.9V404.6"/>
	<path id="path4431" inkscape:connector-curvature="0" class="st2" d="M88.4,411.6c0.6,1.8,1.9,3.1,3.5,4.2c1.4,0.8,2.9,1.4,4.6,1.3
		c5.7,0,9.3-4.2,9.2-9.2c0-1.3-0.4-2.5-0.9-3.6c-1,0.3-3,0.7-4,0.9c-0.2,1.6-1.6,2.7-3.6,3.1c0,0.3-0.1,2-0.1,2.3
		c0.8-0.1,1.8-0.3,2.6-0.5c-0.9,3.6-4.6,5.2-7.8,3.9c-2.1-0.8-3.5-2.6-3.6-6L88.4,411.6"/>
	<path id="path4435" inkscape:connector-curvature="0" class="st0" d="M193.2,418c-2.1,0-3.7-0.5-5.1-1.9l1.8-1.8
		c0.9,0.9,2.1,1.2,3.4,1.2c1.6,0,2.5-0.6,2.5-1.7c0-0.5-0.1-0.9-0.4-1.2c-0.3-0.3-0.6-0.4-1.2-0.5l-1.7-0.2
		c-1.2-0.2-2.1-0.6-2.7-1.2c-0.7-0.7-1-1.6-1-2.8c0-2.5,1.9-4.3,4.9-4.3c1.9,0,3.3,0.5,4.5,1.6l-1.7,1.7c-0.9-0.8-1.9-1-2.9-1
		c-1.5,0-2.2,0.8-2.2,1.8c0,0.4,0.1,0.7,0.4,1c0.3,0.3,0.7,0.5,1.3,0.5l1.7,0.2c1.3,0.2,2.1,0.5,2.7,1.1c0.7,0.7,1.1,1.7,1.1,3
		C198.4,416.5,196.1,418,193.2,418L193.2,418z M181.9,418c-1.5,0-2.8-0.5-3.8-1.5c-0.6-0.6-1-1.3-1.1-2.1c-0.2-0.8-0.2-2-0.2-3.5
		s0.1-2.7,0.2-3.5c0.2-0.8,0.5-1.5,1.1-2.1c1-1,2.3-1.5,3.8-1.5c2.7,0,4.7,1.6,5.2,4.4h-2.8c-0.3-1.2-1-2-2.4-2
		c-0.8,0-1.3,0.2-1.8,0.7c-0.6,0.6-0.7,1.2-0.7,4c0,2.7,0.1,3.3,0.7,4c0.4,0.5,1,0.7,1.8,0.7c1.3,0,2.1-0.8,2.4-2h2.8
		C186.5,416.4,184.5,418,181.9,418L181.9,418z M174.4,417.9h-2.7v-14h2.7V417.9z M164.5,418c-2.1,0-3.7-0.5-5.1-1.9l1.8-1.8
		c0.9,0.9,2.1,1.2,3.4,1.2c1.6,0,2.5-0.6,2.5-1.7c0-0.5-0.1-0.9-0.4-1.2c-0.3-0.3-0.6-0.4-1.2-0.5l-1.7-0.2
		c-1.2-0.2-2.1-0.6-2.7-1.2c-0.7-0.7-1-1.6-1-2.8c0-2.5,1.9-4.3,4.9-4.3c1.9,0,3.3,0.5,4.5,1.6l-1.7,1.7c-0.9-0.8-2-1-2.9-1
		c-1.5,0-2.2,0.8-2.2,1.8c0,0.4,0.1,0.7,0.4,1c0.3,0.3,0.7,0.5,1.3,0.5l1.7,0.2c1.3,0.2,2.1,0.5,2.7,1.1c0.8,0.7,1.1,1.7,1.1,3
		C169.7,416.5,167.4,418,164.5,418L164.5,418z M153,418c-2.1,0-3.7-0.5-5.1-1.9l1.8-1.8c0.9,0.9,2.1,1.2,3.4,1.2
		c1.6,0,2.5-0.6,2.5-1.7c0-0.5-0.1-0.9-0.4-1.2c-0.3-0.3-0.6-0.4-1.2-0.5l-1.7-0.2c-1.2-0.2-2.1-0.6-2.7-1.2c-0.7-0.7-1-1.6-1-2.8
		c0-2.5,1.8-4.3,4.9-4.3c1.9,0,3.3,0.5,4.5,1.6l-1.7,1.7c-0.9-0.8-2-1-2.9-1c-1.5,0-2.2,0.8-2.2,1.8c0,0.4,0.1,0.7,0.4,1
		c0.3,0.3,0.7,0.5,1.3,0.5l1.7,0.2c1.3,0.2,2.1,0.5,2.7,1.1c0.8,0.7,1.1,1.7,1.1,3C158.2,416.5,156,418,153,418L153,418z M141,408
		l-1.8,5.1h3.5L141,408z M144.3,417.9l-0.8-2.5h-5l-0.8,2.5h-2.9l5.1-14h2.1l5.1,14H144.3z M124.6,417.9v-14h2.7v11.6h6.4v2.4H124.6
		z M117.5,418c-1.5,0-2.8-0.5-3.8-1.5c-0.6-0.6-1-1.3-1.1-2.1c-0.2-0.8-0.2-2-0.2-3.5s0.1-2.7,0.2-3.5c0.2-0.8,0.5-1.5,1.1-2.1
		c1-1,2.3-1.5,3.8-1.5c2.7,0,4.7,1.6,5.2,4.4h-2.8c-0.3-1.2-1-2-2.4-2c-0.7,0-1.3,0.2-1.8,0.7c-0.6,0.6-0.7,1.2-0.7,4
		c0,2.7,0.1,3.3,0.7,4c0.4,0.5,1,0.7,1.8,0.7c1.3,0,2.1-0.8,2.4-2h2.8C122.2,416.4,120.2,418,117.5,418"/>
</g>
</svg>
