<?xml version="1.0" encoding="utf-8"?>
<!-- Generator: Adobe Illustrator 15.0.0, SVG Export Plug-In . SVG Version: 6.00 Build 0)  -->
<!DOCTYPE svg PUBLIC "-//W3C//DTD SVG 1.1//EN" "http://www.w3.org/Graphics/SVG/1.1/DTD/svg11.dtd">
<svg version="1.1"
	 id="svg2" xmlns:dc="http://purl.org/dc/elements/1.1/" xmlns:cc="http://creativecommons.org/ns#" xmlns:rdf="http://www.w3.org/1999/02/22-rdf-syntax-ns#" xmlns:svg="http://www.w3.org/2000/svg"
	 xmlns="http://www.w3.org/2000/svg" xmlns:xlink="http://www.w3.org/1999/xlink" x="0px" y="0px" width="25.8px" height="28px"
	 viewBox="45.1 48.4 25.8 28" style="enable-background:new 45.1 48.4 25.8 28;" xml:space="preserve">
<style type="text/css">
<![CDATA[
	.st0{fill:url(#rect3031_1_);}
	.st1{fill:url(#rect3033_1_);}
	.st2{fill:url(#rect3035_1_);}
	.st3{fill:#FFFFFF;}
]]>
</style>
<g>
	
		<linearGradient id="rect3035_1_" gradientUnits="userSpaceOnUse" x1="288.1074" y1="-252.855" x2="279.0525" y2="-243.197" gradientTransform="matrix(1 0 0 -1 -224.8398 -191.248)">
		<stop  offset="0" style="stop-color:#8F1719"/>
		<stop  offset="1" style="stop-color:#BC151F"/>
	</linearGradient>
	<path id="rect3035" class="st2" d="M45.1,55.9L58,48.4l12.9,7.5l0,0.2L58,63.7L45.1,56L45.1,55.9z"/>
	
		<linearGradient id="rect3033_1_" gradientUnits="userSpaceOnUse" x1="-1055.125" y1="-622.563" x2="-1069.4833" y2="-621.0319" gradientTransform="matrix(-0.8644 0.5027 0 -1 -854.0897 -21.5762)">
		<stop  offset="0" style="stop-color:#8F1719"/>
		<stop  offset="1" style="stop-color:#BC151F"/>
	</linearGradient>
	<path id="rect3033" class="st1" d="M70.9,55.9L58,63.4l-0.8,0.4l0.7,12.5l0.1,0.2l12.9-7.5V55.9z"/>
	
		<linearGradient id="rect3031_1_" gradientUnits="userSpaceOnUse" x1="365.1494" y1="99.4111" x2="379.6072" y2="99.8351" gradientTransform="matrix(0.8644 0.5027 0 -1 -270.59 -21.5762)">
		<stop  offset="0" style="stop-color:#8F1719"/>
		<stop  offset="1" style="stop-color:#BC151F"/>
	</linearGradient>
	<polygon id="rect3031" class="st0" points="45.1,55.9 58,63.4 58,76.4 45.1,68.9 	"/>
	<path id="rect3888" class="st3" d="M46.9,58v4h1.8c1.1,0,2-0.9,2-2s-0.9-2-2-2H46.9z M47.9,59h0.8c0.6,0,1.1,0.5,1.1,1.1
		c0,0.6-0.5,1.1-1.1,1.1h-0.8V59z"/>
	<path id="rect3895" class="st3" d="M51.1,58v4H54v-0.9h-1.9v-0.6h1.5v-0.9h-1.5V59H54V58H51.1z"/>
	<path id="rect3905" class="st3" d="M54.9,58v4h2.8v-0.9h-1.9V58H54.9z"/>
	<path id="rect3910" class="st3" d="M58.1,58v2.2c0,1,0.8,1.8,1.8,1.8c1,0,1.8-0.8,1.8-1.8V58h-0.9v2.2c0,0.5-0.4,0.8-0.8,0.8
		c-0.5,0-0.8-0.4-0.8-0.8V58H58.1z"/>
	<path id="rect3917" class="st3" d="M62,58l1.3,2L62,62h1.2l0.7-1.1l0.7,1.1h1.2l-1.3-2l1.3-2h-1.2l-0.7,1.1L63.2,58H62z"/>
	<path id="path3924" class="st3" d="M66.2,58v4H69v-0.9h-1.9v-0.6h1.5v-0.9h-1.5V59H69V58H66.2z"/>
	<path id="rect3926" class="st3" d="M46.9,62.6v4.9h1.2v-2.8l1,1.6h0.5l1-1.6v2.8h1.2v-4.9h-1.2l-1.3,2l-1.3-2H46.9z"/>
	<path id="rect3930" class="st3" d="M52.8,62.6v2.9c0,1.2,0.9,2.1,2.1,2.1c1.2,0,2.1-0.9,2.1-2.1v-2.9h-1.2v2.9
		c0,0.5-0.4,0.9-0.9,0.9S54,66.1,54,65.6v-2.9H52.8z"/>
	<rect id="rect3941" x="62.3" y="62.6" class="st3" width="1.2" height="4.9"/>
	<path id="path3943" class="st3" d="M66.7,62.5c-0.9,0-1.8,0.6-2.2,1.5c-0.6,1.3-0.1,2.8,1.2,3.5s2.8,0.1,3.5-1.2l-1.1-0.5
		c-0.2,0.5-0.7,0.8-1.3,0.8c-0.8,0-1.4-0.6-1.4-1.4c0-0.8,0.6-1.4,1.4-1.4c0.6,0,1,0.3,1.3,0.8l1.1-0.5c-0.3-0.5-0.7-0.9-1.2-1.2
		C67.5,62.6,67.1,62.5,66.7,62.5z"/>
	<path id="path3969" class="st3" d="M60.5,64.2l1.1-0.3c-0.2-0.5-0.6-1.4-2-1.4c-1.1,0-1.9,0.6-1.9,1.5c0,1.7,2.6,1.5,2.6,2.2
		c0,0.3-0.3,0.5-0.6,0.5c-0.4,0-0.7-0.2-1.1-0.8l-1.1,0.4c0.4,0.8,0.9,1.4,2.1,1.4c1.3,0,1.9-0.6,1.9-1.5c0-1.7-2.6-1.5-2.6-2.3
		c0-0.3,0.2-0.4,0.6-0.3C60.1,63.6,60.4,64,60.5,64.2z"/>
</g>
</svg>
