<?xml version="1.0" encoding="utf-8"?>
<!-- Generator: Adobe Illustrator 15.0.0, SVG Export Plug-In . SVG Version: 6.00 Build 0)  -->
<!DOCTYPE svg PUBLIC "-//W3C//DTD SVG 1.1//EN" "http://www.w3.org/Graphics/SVG/1.1/DTD/svg11.dtd">
<svg version="1.1" id="Layer_1" xmlns="http://www.w3.org/2000/svg" xmlns:xlink="http://www.w3.org/1999/xlink" x="0px" y="0px"
	 width="49.8px" height="28px" viewBox="0 0 49.8 28" style="enable-background:new 0 0 49.8 28;" xml:space="preserve">
<style type="text/css">
<![CDATA[
	.st0{fill-rule:evenodd;clip-rule:evenodd;fill:#FFFFFF;}
	.st1{fill-rule:evenodd;clip-rule:evenodd;fill:#0088FF;}
]]>
</style>
<path class="st0" d="M10.6,19.1c-0.3,0.1-0.1,0.7-0.4,0.8c-0.2,0.1-0.8,0.2-1,0c-0.5-0.2-0.4-1-0.6-1.5c-1-0.7-2.3-1.4-3.2-2.3
	c-0.5-0.5-1.2-1.3-1.2-2c0.1-1.5,3.2-1.9,4.6-2.3C8.9,10.7,9,9.3,9.5,8.5c1.1,0.4,0.9,1.9,1.1,3.2c1.9,0.3,5.7,0.2,5.8,2.3
	c0,0.8-1,2-2.1,1.3c-0.4-0.3,0.6-0.6,0.6-1c-1.1-0.6-2.8-1-4.4-0.9c0,1.1,0,2.8,0,4.1c0.6,0.5,2,0.5,3.3,0.4c2.6-0.2,5.2-1.3,5.1-4
	c-0.2-2.7-2.7-4.6-5.1-5.8C10.5,6.3,6.5,5,2.3,5.9C2.3,6.3,3,5.9,3,6.4c-0.2,0.4-1.2,0.2-1.5,0c-0.1-1.6,1.6-1.9,2.9-2
	c4.2-0.4,7.6,1,10.8,2.9c2.4,1.4,5.1,3.6,5.4,6.3C21.3,18.4,15.4,20,10.6,19.1z M4.7,14.3c0.7,1.5,2.1,2.2,3.8,2.7
	c-0.1-1.2,0.4-2.7,0-3.7C7.3,13.7,5.5,13.5,4.7,14.3z"/>
<path class="st0" d="M23.3,6.7c0.3,0.2,0.6,0.3,0.8,0.5c0.2-0.6,0.4-0.9,0.7-1.1c2.5-1.3,3.1,3.9,0.1,2.7c-0.4,1.5-4.4,2.8-4.9,0.7
	c-0.2-1.1,0.5-1.8,1.2-2.3c-0.3-0.4-0.6-0.5-0.6-0.9C20.2,3.9,24.3,4.4,23.3,6.7z M20.8,9C21,8.6,22,8.1,21.8,7.9
	C21.3,8.1,20.7,8.5,20.8,9z M21.7,9.6c1.3-0.1,2.5-0.3,2.6-1.6C22.9,7.8,22.2,8.8,21.7,9.6z"/>
<path class="st1" d="M21.8,7.9C22,8.1,21,8.6,20.8,9C20.7,8.5,21.3,8.1,21.8,7.9z"/>
<path class="st1" d="M24.3,8.1c-0.1,1.3-1.3,1.5-2.6,1.6C22.2,8.8,22.9,7.8,24.3,8.1z"/>
<path class="st0" d="M32.2,14.4c-0.5,1,0.2,3.8-0.9,4c-0.8,0.1-0.9-1.2-0.9-2.1c0.1-1.3,0.6-4,1.3-4c0.5-0.1,1.3,1.3,1.6,1.8
	c0.4,0.6,0.7,1.4,1.4,2c0.2-2.2-0.9-3.5-0.9-5.3c0.1,0,0.1,0,0.2,0c1.3,0.6,2.1,2.5,2.2,4.4c0,1.1-0.4,3-1.7,2.8
	C33.4,17.8,33,15.2,32.2,14.4z"/>
<path class="st0" d="M44.4,11.6c0.5,1.8-1.5,2.3-1.4,4.2c0.5-0.2,0.8-1,1.2-1.5c0.6-0.7,1.8-2.1,2.7-2.1c1,0,1.3,1.6,1.3,2.5
	c-0.1,2.4-2.4,3.7-4.6,4c-0.7,1.6-1,3.5-1.5,5.4c-2.8-0.4-0.5-4.9,0-6.5c-1-2.4,0.5-4.8,2-5.9C44.3,11.6,44.4,11.6,44.4,11.6z
	 M44.7,16.9c1.5-0.4,2.8-1.3,2.5-3.2C45.8,14.2,45.3,15.6,44.7,16.9z"/>
<path class="st0" d="M22.6,11.9c0.4,1.7,0.7,4.7,0.2,6.5c-0.4,0.2-0.8,0-1.1-0.1c-0.5-0.5-0.3-1.8-0.2-3.1c0.1-1.1,0-2.7,0.3-3.2
	C22,11.7,22.3,11.8,22.6,11.9z"/>
<path class="st0" d="M30.1,12.3c-0.8,1.3-4,0.5-5.4,1.2c1.8,0.9,6.3,0.1,5.1,3.3c-0.3,0.9-1.9,1.5-3.3,1.4c-1.2-0.1-2.8-0.8-2.8-1.9
	c-0.1-1.8,3.4-1.3,4.4-0.6c-0.7,1.6-3-0.6-3.9,0.5c0.7,1.1,3.8,0.3,4.6-0.4c-0.3-1.9-6.3,0.1-5.4-2.6C24,11.6,28.4,11.3,30.1,12.3z"
	/>
<path class="st0" d="M36.8,14.6c0.6-0.1,0.8-0.7,1-1.2c-0.3-0.4-1-0.3-1.1-0.9c0.5-0.5,1.7-0.6,2.7-0.7c0.6,0,1.5,0,1.9,0.1
	c0.4,0.2,0.7,0.5,0.8,1.1c-0.6,0.5-1.9,0.4-3,0.5C39,13.6,38.9,14,39,14.3c0.5,0.2,1.3,0,1.9,0.1c0.1,0.3,0.1,0.8,0,1.1
	c-0.6,0.2-1.6,0-2.3,0.1c-0.3,0.3-0.3,0.9-0.5,1.3c0.8-0.1,3.1-0.9,3.2,0.2c0.1,1.1-4.7,3.1-4.7,0.2C36.4,16.3,37.1,15.7,36.8,14.6z
	"/>
<path class="st1" d="M8.6,13.4c0.4,1-0.1,2.5,0,3.7c-1.7-0.5-3.1-1.3-3.8-2.7C5.5,13.5,7.3,13.7,8.6,13.4z"/>
<path class="st1" d="M47.2,13.7c0.3,1.9-1,2.8-2.5,3.2C45.3,15.6,45.8,14.2,47.2,13.7z"/>
<path class="st0" d="M21.8,19.1c0.2,0.4,0.1,1.2,0.5,1.3c0.1,0.4-0.2,0.4-0.3,0.6c0.1,0.5,0.2,1.3,0,1.6c-0.1,0-0.1,0-0.2,0.1
	c-0.2,0.1-0.3-0.1-0.5-0.1c-0.3-0.3-0.1-1-0.2-1.4c-0.3,0-0.5,0.2-0.8,0.2c0,0.4,0,0.8-0.2,1.1c-0.2-0.1-0.2,0.1-0.4,0.1
	c-0.3-0.1-0.3-0.6-0.4-0.9c-0.1,0-0.1,0.1-0.2,0c-0.3,0-0.2,0.3-0.3,0.5c-1.5,0.5-5.6,0.6-4.2-1.6c0.4-0.6,2.2-1.7,2.9-1.6
	c0.5,0,1.3,0.7,0.5,1.4c-0.4,0.1-0.4-0.4-0.6-0.5c-0.9,0.3-1.8,0.6-2.1,1.5c0.9,0.5,2.2,0,3.3,0c0.2-0.3,0.3-0.6,0.7-0.5
	c0-0.6,0-1.2,0.2-1.6c0.1,0,0.2,0,0.2-0.1c0.5,0.1,0.4,0.6,0.4,1.2c0.1,0.2,0.4-0.2,0.7-0.2C21,19.6,20.9,18.8,21.8,19.1z"/>
<path class="st0" d="M29.1,19.2c0.1,0.9-0.1,2-0.2,3c-1.1,0.7-1.4-0.8-2.1-1.2c-0.1,0.7,0.2,1.6-0.3,1.9c-0.1,0-0.3,0-0.4,0
	c-0.3-0.7-0.1-2-0.2-3c1-0.8,1.5,0.8,2.2,1.2C28.2,20.3,28.1,18.6,29.1,19.2z"/>
<path class="st0" d="M36.6,19.1c0.8,0.3,0.3,1.9,0.5,2.7c0.9,0.1,2.6-0.6,2.7,0.5c-0.1,0-0.1,0.1-0.1,0.2c-1.1-0.2-2.7,0.5-3.5-0.1
	C36.5,21.3,35.8,19.6,36.6,19.1z"/>
<path class="st0" d="M32.4,19.3c0.1,0.9,0.1,1.9,0.2,2.9c-0.2,0.1-0.4,0.2-0.6,0.3c-0.6-0.3-1-0.9-1.6-1.2c-0.3,0.4,0.2,1.1-0.2,1.4
	c-1.1,0.3-0.7-1.5-0.8-2.5c0.2-0.1,0.4-0.2,0.5-0.3c0.6,0.4,1.1,0.9,1.6,1.3C31.8,20.6,31.3,18.6,32.4,19.3z"/>
<path class="st0" d="M24.8,20.3c0.3-0.2,0.5,0,0.7,0.2c0,0.3,0,0.6-0.2,0.5c0.2,0.5,1.1,1.5,0.2,1.6c-0.5,0.1-0.7-0.9-1-1.3
	c-0.3,0.1-0.6,0.2-0.9,0.3c-0.1,0.5-0.1,1.1-0.7,1.2c-0.3-0.2-0.5-0.5-0.2-0.9c-0.2-0.2-0.4-0.2-0.5-0.5c0-0.5,0.5-0.4,0.8-0.6
	c0.1-0.6,0.3-1,0.4-1.6C24.4,19,24.4,19.8,24.8,20.3z"/>
<path class="st0" d="M33.7,20.3c0.5,0.2,1.6-0.2,1.8,0.4c0,0.1,0,0.3,0,0.4c-0.4,0.4-0.9,0.1-1.6,0.2c0,0.2,0,0.3,0,0.5
	c0.5,0.2,1.6-0.4,2.1,0c0,0.1,0,0.2,0.1,0.2c-0.4,0.7-1.9,0.6-2.7,0.6c-0.4-0.7-0.8-2.6-0.2-3.1c0.9,0.1,2.5-0.6,2.6,0.2
	C35.8,20.3,34.5,20.1,33.7,20.3z"/>
<path class="st1" d="M18.8,8.5c0.1-0.8,0.6-1.2,1-1.7c-1.1-3.2,3.7-4,4.6-1.6c3.3-1.4,4.8,3.4,2.2,4.5c-0.7,0.3-1.2,0-1.5,0.8
	c2.4-0.3,5.6-0.3,7.3,0.6c0.1-2.6,3.2-1.4,3.8-0.2c1.7-0.3,4.8-1.3,6.2,0c1.6-1.6,4.8-1,6.1,0.3c2.8,2.8-0.1,7.9-3.7,8
	c-0.2,1.1-0.9,2.5-1.2,3.8c-0.1,0.5-0.1,1.1-0.2,1.4c-0.8,1.5-3.3,0.2-3.7-1c-5.8-0.1-12.5,0.1-18.7,0.1c-3.8,0-8.3,0.9-7.9-3.2
	c-0.6,0-1.4,0.1-1.8-0.2C10,21.4,7.8,20.7,7.5,19c-1.6-1.1-4.1-2.5-4.4-4.7c-0.3-2.3,2.9-2.9,4.5-3.5C7.5,9.6,8,8.4,8.2,7.3
	c-0.8-0.2-2.3-1-3.6-0.5C4.2,6.9,4,7.5,3.6,7.7c-1.4,0.6-3.1,0-3.3-1.2c-0.2-2.1,2.3-3,4.1-3.1C10.5,2.9,15.7,5.8,18.8,8.5z
	 M20.7,13.5c-0.3-2.7-3-4.9-5.4-6.3C12.1,5.3,8.7,4,4.4,4.4c-1.3,0.1-2.9,0.5-2.9,2c0.3,0.2,1.3,0.4,1.5,0c0-0.4-0.7-0.1-0.8-0.5
	C6.5,5,10.5,6.3,13.8,8.1c2.3,1.3,4.9,3.1,5.1,5.8c0.2,2.7-2.4,3.8-5.1,4c-1.2,0.1-2.7,0.1-3.3-0.4c0-1.3,0-3.1,0-4.1
	c1.6-0.1,3.2,0.3,4.4,0.9c0,0.4-1,0.7-0.6,1c1.1,0.7,2.1-0.5,2.1-1.3c-0.1-2-3.9-1.9-5.8-2.3c-0.2-1.2,0-2.8-1.1-3.2
	C9,9.3,8.9,10.7,8.8,11.9c-1.4,0.4-4.4,0.7-4.6,2.3c-0.1,0.7,0.7,1.5,1.2,2c0.9,0.9,2.2,1.5,3.2,2.3c0.2,0.5,0.2,1.2,0.6,1.5
	c0.2,0.2,0.8,0.1,1,0c0.3-0.1,0.1-0.6,0.4-0.8C15.4,20,21.3,18.4,20.7,13.5z M20.5,6.2c0.1,0.4,0.4,0.6,0.6,0.9
	c-0.7,0.5-1.5,1.2-1.2,2.3c0.5,2.1,4.5,0.8,4.9-0.7c3,1.2,2.4-4-0.1-2.7c-0.3,0.2-0.5,0.5-0.7,1.1c-0.2-0.2-0.5-0.3-0.8-0.5
	C24.3,4.4,20.2,3.9,20.5,6.2z M34.6,18c1.3,0.2,1.7-1.7,1.7-2.8c0-1.9-0.9-3.8-2.2-4.4c-0.1,0-0.1,0-0.2,0c-0.1,1.8,1,3.1,0.9,5.3
	c-0.7-0.6-1-1.4-1.4-2c-0.3-0.5-1.1-1.8-1.6-1.8c-0.8,0.1-1.2,2.8-1.3,4c-0.1,0.9,0.1,2.2,0.9,2.1c1.1-0.2,0.3-3,0.9-4
	C33,15.2,33.4,17.8,34.6,18z M44.3,11.6c-1.5,1.1-3,3.6-2,5.9c-0.5,1.6-2.8,6.1,0,6.5c0.5-1.8,0.8-3.8,1.5-5.4
	c2.2-0.3,4.5-1.6,4.6-4c0-0.9-0.4-2.5-1.3-2.5c-0.9,0-2.1,1.4-2.7,2.1c-0.4,0.5-0.8,1.3-1.2,1.5c-0.1-1.9,1.9-2.4,1.4-4.2
	C44.4,11.6,44.3,11.6,44.3,11.6z M21.8,12c-0.3,0.5-0.2,2.1-0.3,3.2c-0.1,1.3-0.2,2.6,0.2,3.1c0.3,0.1,0.7,0.3,1.1,0.1
	c0.4-1.8,0.1-4.7-0.2-6.5C22.3,11.8,22,11.7,21.8,12z M23.5,13.2c-0.9,2.8,5.1,0.8,5.4,2.6c-0.8,0.7-3.9,1.5-4.6,0.4
	c0.9-1.1,3.2,1.1,3.9-0.5c-1-0.7-4.5-1.2-4.4,0.6c0,1.1,1.6,1.8,2.8,1.9c1.4,0.1,2.9-0.5,3.3-1.4c1.2-3.3-3.3-2.4-5.1-3.3
	c1.5-0.7,4.6,0.2,5.4-1.2C28.4,11.3,24,11.6,23.5,13.2z M36.4,17.2c0.1,2.9,4.9,1,4.7-0.2C41,16,38.8,16.8,38,16.9
	c0.2-0.4,0.3-1,0.5-1.3c0.8,0,1.7,0.1,2.3-0.1c0.1-0.3,0.1-0.8,0-1.1c-0.6,0-1.4,0.1-1.9-0.1c0-0.4,0-0.7,0.2-0.9c1-0.1,2.3,0,3-0.5
	c-0.1-0.5-0.4-0.9-0.8-1.1c-0.4-0.1-1.3-0.1-1.9-0.1c-1,0.1-2.3,0.2-2.7,0.7c0.1,0.6,0.8,0.6,1.1,0.9c-0.2,0.5-0.4,1-1,1.2
	C37.1,15.7,36.4,16.3,36.4,17.2z M21.1,20.4c-0.3-0.1-0.6,0.3-0.7,0.2c0-0.6,0.2-1.1-0.4-1.2c0,0.1-0.1,0.1-0.2,0.1
	c-0.2,0.4-0.2,1-0.2,1.6c-0.4,0-0.5,0.3-0.7,0.5c-1.1,0-2.5,0.5-3.3,0c0.3-0.9,1.2-1.1,2.1-1.5c0.3,0.1,0.2,0.5,0.6,0.5
	c0.8-0.7-0.1-1.4-0.5-1.4c-0.7-0.1-2.5,1-2.9,1.6c-1.4,2.1,2.7,2,4.2,1.6c0.1-0.1,0-0.5,0.3-0.5c0,0.1,0.1,0,0.2,0
	c0.1,0.3,0,0.8,0.4,0.9c0.2,0,0.2-0.1,0.4-0.1c0.2-0.2,0.2-0.7,0.2-1.1c0.3,0,0.5-0.2,0.8-0.2c0.2,0.4,0,1.1,0.2,1.4
	c0.2,0,0.2,0.1,0.5,0.1c0-0.1,0.1-0.1,0.2-0.1c0.2-0.4,0.1-1.1,0-1.6c0.1-0.2,0.4-0.2,0.3-0.6c-0.5-0.2-0.3-0.9-0.5-1.3
	C20.9,18.8,21,19.6,21.1,20.4z M28.2,21.2c-0.7-0.4-1.1-2-2.2-1.2c0.1,1-0.2,2.3,0.2,3c0.1,0,0.3,0,0.4,0c0.5-0.2,0.3-1.2,0.3-1.9
	c0.7,0.4,1,1.8,2.1,1.2c0-1,0.3-2.1,0.2-3C28.1,18.6,28.2,20.3,28.2,21.2z M36.3,22.4c0.8,0.6,2.4-0.1,3.5,0.1c0-0.1,0-0.2,0.1-0.2
	c-0.1-1.2-1.8-0.5-2.7-0.5c-0.3-0.8,0.3-2.5-0.5-2.7C35.8,19.6,36.5,21.3,36.3,22.4z M31.7,21.2c-0.6-0.4-1-1-1.6-1.3
	c-0.1,0.2-0.4,0.2-0.5,0.3c0.1,0.9-0.3,2.8,0.8,2.5c0.3-0.3-0.1-1,0.2-1.4c0.6,0.4,1,0.9,1.6,1.2c0.2-0.1,0.4-0.2,0.6-0.3
	c0-1,0-2-0.2-2.9C31.3,18.6,31.8,20.6,31.7,21.2z M23.4,19.3c-0.1,0.6-0.3,1-0.4,1.6c-0.3,0.2-0.8,0.2-0.8,0.6
	c0,0.3,0.3,0.3,0.5,0.5c-0.2,0.4-0.1,0.7,0.2,0.9c0.6-0.1,0.6-0.6,0.7-1.2c0.3-0.1,0.5-0.2,0.9-0.3c0.3,0.5,0.5,1.4,1,1.3
	c0.8-0.1,0-1.2-0.2-1.6c0.3,0,0.2-0.3,0.2-0.5c-0.2-0.1-0.4-0.3-0.7-0.2C24.4,19.8,24.4,19,23.4,19.3z M35.7,19.6
	c-0.1-0.8-1.7,0-2.6-0.2c-0.6,0.5-0.2,2.4,0.2,3.1c0.8,0,2.3,0.1,2.7-0.6c-0.1,0-0.1-0.1-0.1-0.2c-0.5-0.4-1.6,0.2-2.1,0
	c0-0.2,0-0.3,0-0.5c0.7-0.1,1.2,0.2,1.6-0.2c0-0.1,0-0.3,0-0.4c-0.2-0.5-1.3-0.1-1.8-0.4C34.5,20.1,35.8,20.3,35.7,19.6z"/>
</svg>
