<?xml version="1.0" encoding="utf-8"?>
<!-- Generator: Adobe Illustrator 15.0.0, SVG Export Plug-In . SVG Version: 6.00 Build 0)  -->
<!DOCTYPE svg PUBLIC "-//W3C//DTD SVG 1.1//EN" "http://www.w3.org/Graphics/SVG/1.1/DTD/svg11.dtd">
<svg version="1.1"
	 id="svg113359" inkscape:version="0.48.4 r9939" sodipodi:docname="Neues Dokument 6" xmlns:dc="http://purl.org/dc/elements/1.1/" xmlns:cc="http://creativecommons.org/ns#" xmlns:rdf="http://www.w3.org/1999/02/22-rdf-syntax-ns#" xmlns:svg="http://www.w3.org/2000/svg" xmlns:sodipodi="http://sodipodi.sourceforge.net/DTD/sodipodi-0.dtd" xmlns:inkscape="http://www.inkscape.org/namespaces/inkscape"
	 xmlns="http://www.w3.org/2000/svg" xmlns:xlink="http://www.w3.org/1999/xlink" x="0px" y="0px" width="91.25px" height="28px"
	 viewBox="223.666 71.087 91.25 28" style="enable-background:new 223.666 71.087 91.25 28;" xml:space="preserve">
<style type="text/css">
<![CDATA[
	.st0{fill:#FFD200;}
	.st1{fill:#6D6D6C;}
]]>
</style>
<g>
	<g id="g3553" transform="matrix(14.552367,0,0,-14.552367,427.10116,348.88916)">
		<path id="path3555" inkscape:connector-curvature="0" class="st1" d="M-12.076,18.402c0.046-0.272,0.092-0.543,0.136-0.867h0.003
			c0.073,0.317,0.148,0.585,0.223,0.85h0.252c0.078-0.265,0.157-0.532,0.233-0.85h0.003c0.042,0.324,0.083,0.595,0.127,0.867
			l0.266-0.035l-0.24-1.197h-0.338c-0.066,0.226-0.134,0.451-0.198,0.729h-0.003c-0.059-0.278-0.119-0.503-0.18-0.729h-0.339
			l-0.252,1.197"/>
	</g>
	<path id="path3557" inkscape:connector-curvature="0" class="st1" d="M270.334,99.02h4.412V81.351h-4.412V99.02z"/>
	<g id="g3559" transform="matrix(14.552367,0,0,-14.552367,574.83679,350.35895)">
		<path id="path3561" inkscape:connector-curvature="0" class="st1" d="M-20.485,18.486h0.303v-0.987h0.368v-0.227h-0.671"/>
	</g>
	<g id="g3563" transform="matrix(14.552367,0,0,-14.552367,672.6287,350.35895)">
		<path id="path3565" inkscape:connector-curvature="0" class="st1" d="M-26.051,18.486c0.402,0,0.557-0.279,0.557-0.572
			c0-0.444-0.267-0.642-0.569-0.642h-0.379v1.214H-26.051z M-26.139,17.499h0.078c0.174,0,0.256,0.168,0.256,0.413
			c0,0.22-0.113,0.347-0.246,0.347h-0.088"/>
	</g>
	<g id="g3567" transform="matrix(14.552367,0,0,-14.552367,444.02556,339.954)">
		<path id="path3569" inkscape:connector-curvature="0" class="st1" d="M-13.039,17.893h-0.07c-0.092,0.134-0.185,0.267-0.276,0.418
			h-0.001v-0.418h-0.078v0.582h0.071c0.093-0.133,0.184-0.265,0.275-0.415h0.002v0.415h0.078"/>
	</g>
	<g id="g3571" transform="matrix(14.552367,0,0,-14.552367,470.96199,290.57782)">
		<path id="path3573" inkscape:connector-curvature="0" class="st1" d="M-14.572,15.083l0.181-0.582H-14.5l-0.045,0.159h-0.171
			l-0.05-0.159h-0.084l0.196,0.582H-14.572z M-14.559,14.731c-0.021,0.077-0.041,0.147-0.064,0.237h-0.001
			c-0.02-0.09-0.043-0.161-0.066-0.237"/>
	</g>
	<g id="g3575" transform="matrix(14.552367,0,0,-14.552367,494.91519,339.954)">
		<path id="path3577" inkscape:connector-curvature="0" class="st1" d="M-15.936,17.893v0.504h-0.149v0.078h0.395v-0.078h-0.149
			v-0.504"/>
	</g>
	<g id="g3579" transform="matrix(14.552367,0,0,-14.552367,567.89531,318.34374)">
		<path id="path3581" inkscape:connector-curvature="0" class="st1" d="M-20.09,16.663v-0.23c-0.049-0.02-0.101-0.034-0.154-0.034
			c-0.16,0-0.261,0.127-0.261,0.292c0,0.152,0.1,0.285,0.263,0.285c0.051,0,0.102-0.019,0.132-0.043l-0.03-0.066
			c-0.025,0.016-0.064,0.029-0.1,0.029c-0.099,0-0.167-0.08-0.167-0.207c0-0.132,0.078-0.21,0.158-0.21
			c0.025,0,0.045,0.003,0.065,0.014v0.171"/>
	</g>
	<g id="g3583" transform="matrix(14.552367,0,0,-14.552367,597.20378,299.03275)">
		<path id="path3585" inkscape:connector-curvature="0" class="st1" d="M-21.758,15.564h-0.155v-0.153h0.152v-0.075h-0.152v-0.18
			h0.183v-0.075h-0.276v0.557h0.248"/>
	</g>
	<g id="g3587" transform="matrix(14.552367,0,0,-14.552367,-1961.2479,5026.5875)">
		<g>
			<g id="g3589">
				<g id="g3595" transform="translate(176.205,323.723)">
					<path id="path3597" inkscape:connector-curvature="0" class="st1" d="M-22.085,16.51c0,0.156,0.098,0.28,0.23,0.28
						c0.133,0,0.23-0.124,0.23-0.28c0-0.167-0.088-0.296-0.23-0.296C-21.997,16.214-22.085,16.343-22.085,16.51 M-21.724,16.51
						c0,0.103-0.039,0.201-0.131,0.201c-0.092,0-0.131-0.098-0.131-0.201c0-0.107,0.034-0.217,0.131-0.217
						C-21.758,16.293-21.724,16.403-21.724,16.51"/>
				</g>
			</g>
		</g>
	</g>
	<g id="g3599" transform="matrix(14.552367,0,0,-14.552367,-1961.2479,5026.5875)">
		<g>
			<g id="g3601">
				<path id="path3607" inkscape:connector-curvature="0" class="st0" d="M150.141,340.517h1.335v-1.912h-1.335V340.517z
					 M151.283,340.324h-0.949v-1.527h0.949V340.324z"/>
			</g>
		</g>
	</g>
	<g id="g3609" transform="matrix(14.552367,0,0,-14.552367,779.48673,442.32991)">
		<path id="path3611" inkscape:connector-curvature="0" class="st1" d="M-32.133,23.721c-0.032-0.017-0.074-0.021-0.11-0.021h-0.076
			v0.329h0.075c0.046,0,0.099-0.007,0.135-0.038c0.035-0.031,0.054-0.081,0.054-0.127C-32.055,23.807-32.083,23.748-32.133,23.721
			 M-32.388,23.699h-0.061v0.138h-0.118v-0.138h-0.061v0.329h0.061v-0.134h0.118v0.134h0.061V23.699z M-32.755,24.133
			c-0.019-0.298-0.167-0.473-0.36-0.542h1.192v0.542"/>
	</g>
	<g id="g3613" transform="matrix(14.552367,0,0,-14.552367,778.01694,423.39728)">
		<path id="path3615" inkscape:connector-curvature="0" class="st1" d="M-32.05,22.643c-0.031,0.027-0.069,0.028-0.107,0.028v-0.215
			h0.013c0.029,0,0.054,0.001,0.08,0.016c0.032,0.018,0.049,0.055,0.049,0.091C-32.015,22.592-32.027,22.623-32.05,22.643"/>
	</g>
</g>
</svg>
