<?xml version="1.0" encoding="utf-8"?>
<!-- Generator: Adobe Illustrator 15.0.0, SVG Export Plug-In . SVG Version: 6.00 Build 0)  -->
<!DOCTYPE svg PUBLIC "-//W3C//DTD SVG 1.1//EN" "http://www.w3.org/Graphics/SVG/1.1/DTD/svg11.dtd">
<svg version="1.1" id="Layer_1" xmlns="http://www.w3.org/2000/svg" xmlns:xlink="http://www.w3.org/1999/xlink" x="0px" y="0px"
	 width="160.1px" height="50px" viewBox="0 0 160.1 50" style="enable-background:new 0 0 160.1 50;" xml:space="preserve">
<style type="text/css">
<![CDATA[
	.st0{fill-rule:evenodd;clip-rule:evenodd;fill:#BC212D;}
	.st1{fill-rule:evenodd;clip-rule:evenodd;}
]]>
</style>
<g>
	<path class="st0" d="M79.4,15.8C81,1,79.4,15.8,81,1c3.5,0,6.9,0,10.4,0c8,18.9,0,0,8,18.9c8.3-18.9,0,0,8.3-18.9c2.5,0,7,0,10.4,0
		c2.6,29.1,1.8,19.3,2.6,29.1c4.5-9.4,8.5-19.2,12.5-29.1c3.1,0,6.2,0,9.3,0c5.7,14.3,12.1,27.9,17.6,42.3c-3.5,0-7.1,0-10.6,0
		c-3.4-9.1,0,0-3.4-9.1c-5.4,0-10.9,0-16.3,0c-3.9,9.1,0,0-3.9,9.1c-4.7,0-9.3,0-14,0c-2.3-24.9,0,0-2.3-24.9
		c-10.1,20.2,0,0-10.1,20.2c-9.3-20.2,0,0-9.3-20.2c-2.6,24.9,0,0-2.6,24.9c-3.3,0-6.6,0-9.9,0c0-4,0.4-7.5,0.8-11.2
		c-4.5,11.4-23.1,16.6-34.8,6.7c-2.8-2.3-4.4-5.4-6-9.1C33.5,42.7,18.3,44.5,0,43.3C0,29.4,0,15.5,0,1.6c17.4-1.6,33.9,0,37.4,13.2
		C41.1,7,47.4,0.1,58.1,0C69.1-0.1,76.4,6.9,79.4,15.8z M46.2,23.1c0.3,5.6,4.8,11,11.2,11.4c16.9,1.2,17.1-26.7-0.8-24.1
		C49.8,11.4,45.8,16,46.2,23.1z M10.1,11c0,7.5,0,15.5,0,23c9.1,1,16.6-1.5,17.9-8.6c2-11-6.2-16.4-17.4-14.8
		C10.3,10.7,10.1,10.5,10.1,11z M133.4,24.9c8.8,0,0,0,8.8,0c-4.7-10.6,0,0-4.7-10.6C133.4,24.9,137.5,14.3,133.4,24.9z"/>
	<rect x="41.3" y="47.2" class="st1" width="34.1" height="2.8"/>
</g>
</svg>
