<?xml version="1.0" encoding="utf-8"?>
<!-- Generator: Adobe Illustrator 15.0.0, SVG Export Plug-In . SVG Version: 6.00 Build 0)  -->
<!DOCTYPE svg PUBLIC "-//W3C//DTD SVG 1.1//EN" "http://www.w3.org/Graphics/SVG/1.1/DTD/svg11.dtd">
<svg version="1.1"
	 id="svg2" xmlns:dc="http://purl.org/dc/elements/1.1/" xmlns:cc="http://creativecommons.org/ns#" xmlns:rdf="http://www.w3.org/1999/02/22-rdf-syntax-ns#" xmlns:svg="http://www.w3.org/2000/svg" xmlns:sodipodi="http://sodipodi.sourceforge.net/DTD/sodipodi-0.dtd" xmlns:inkscape="http://www.inkscape.org/namespaces/inkscape"
	 xmlns="http://www.w3.org/2000/svg" xmlns:xlink="http://www.w3.org/1999/xlink" x="0px" y="0px" width="32.9px" height="28px"
	 viewBox="212.6 181 32.9 28" style="enable-background:new 212.6 181 32.9 28;" xml:space="preserve">
<style type="text/css">
<![CDATA[
	.st0{fill:#005D2E;}
]]>
</style>
<g id="layer1" transform="translate(-237.66606,-281.32564)" inkscape:groupmode="layer" inkscape:label="Layer 1">
	<path id="path21806" class="st0" d="M460.3,466.8c-0.7-1.2-1.6-2.8-1.3-4.5c1.4,0.5,1.3,2.5,2.1,3.7l-0.2,0.1l0,0.2h-0.1
		c-0.1,0,0,0.3-0.1,0.5l-0.3,0"/>
	<path id="path21810" class="st0" d="M462.1,469.2l0-0.3h0.2c0.1,0,0.2-0.6-0.1-0.6c0.3-0.2,0.7-0.2,1.2-0.2
		c0.5,0.8,2.3,0.3,2.1-0.8c0.2,0.1,0.7-0.1,0.7,0.1l-0.3,0.2l0.3,0.2c-0.1,0.1-0.3,0.6,0.1,0.5h0.1l0,0.3l0.3,0v0.2h0.3l0,0.3l0.3,0
		c0,0.1,0.1,0.1,0.1,0.1l0,0.3l0.3,0v0.3c0.4,0.1,0.3-0.3,0.5-0.4l0.3,0l0-0.3c1.3,0.6,1.8,1.9,3.4,2.2c0.4-0.5,0.7-1.2,1.3-1.6
		l0.1,0.2l0.2,0c0.4,0.3,0.4-0.3,0.8-0.2c0.1,0.2-0.1,0.3-0.1,0.3c0,0.1,0.2,0.1,0.1,0.2c0.3,0.1,0.4-0.1,0.5-0.1
		c0,0.3-0.1,0.6,0.3,0.5c0.1,0.3,0.1,0.6,0.5,0.5c0.1,0.5,0.3,1,0.7,1.2c-0.1,0.7-0.2,1.3-0.5,1.7h-2.4c-0.2,0,0,0.3-0.2,0.2l-0.2,0
		l-0.1,0.2c-0.1,0-0.1-0.1-0.1-0.1c-0.9,1-2.6,1.2-3.6,2.2v0.1l-0.2,0l-0.1,0.2c-0.2-0.1-0.3-0.2-0.5-0.3c-0.8,0.5-1.8,0.8-3,1.1
		l-0.2-0.3l0.1-0.3c0.1,0,0.3,0,0.3-0.2c0-0.1-0.1,0-0.1-0.1l0.2-0.2l-0.2-0.2c0.8-0.3,1.2-1,1.6-1.6c-0.3-3.1-3.9-3-4.9-5.4"/>
	<path id="path21814" class="st0" d="M474.7,479.2l0.3,0c0.2,0.3,0.1,1,0.5,1.1l-0.1,0.3l0,0.3c-0.1,0.1-0.3,0.1-0.3,0.3l-0.3,0
		l0,0.3c-1-0.5-2.4-0.6-2.6-1.9c0.8-0.1,1.1,0.8,2.1,0.7c0-0.2-0.2-0.1-0.3-0.3l0-0.2l0-0.2h0.4c0.1-0.3-0.4-0.4,0-0.5"/>
	<path id="path21818" class="st0" d="M475.6,480.7v-0.3c0.3,0.1,0.8,0.2,0.8,0.7l-0.3,0l-0.1,0.3c-0.2-0.2-0.6-0.1-0.7-0.4"/>
	<path id="path21822" class="st0" d="M461.9,477.9c-0.7,0.5-2.5,1.4-3.4,0.5c0.2-0.6,0.9-0.6,1.2-1l0.1,0l0-0.1
		c0.3,0.1,0.6,0.1,0.9,0.1v-0.1l0.3,0l0.2-0.2c0.3,0,0.3,0.2,0.5,0.3l-0.1,0.3"/>
	<path id="path21826" class="st0" d="M458.5,477.3l0.1,0.1c-0.4,1.1-1.4,2.3-2.8,2c0-0.9,0.7-1.1,1.1-1.7c-0.6,0-1.9,0.8-2.5,0
		c0.3-1.5,2.6-0.9,3.4-0.5l0.1,0.1v-0.2c0.2,0.1,0.4,0.1,0.6,0.1"/>
	<path id="path21830" class="st0" d="M457.7,476.7l0,0.2c-1-0.3-3.1-1-1.8-2.3c1.3,0.1,1.8,0.9,2.1,2"/>
	<path id="path21834" class="st0" d="M460.6,476.8l-0.1,0.3c-0.5-0.2-1-0.5-0.9-1.3c0.3-0.1,0.4-0.3,0.8-0.2c0.1,0.4,0.3,0.6,0.4,1"
		/>
	<path id="path21838" class="st0" d="M462,476.9l-0.2,0.2c-0.8-0.2-1.5-1.6-0.8-2.4c1,0.1,1.2,1.2,1.3,2.2"/>
	<path id="path21842" class="st0" d="M465.6,480.3c-0.1,1.1-0.6,1.7-1.4,2c-0.3,0-0.3-0.3-0.5-0.5c0.1-1,1.1-1.2,1.6-1.8l0.1,0.3"/>
	<path id="path21846" class="st0" d="M464.8,479.4l0.2,0.2c-0.7,0.7-1.1,2-2.6,1.6c-0.5-1.5,1.1-2,2.4-2.1"/>
	<path id="path21850" class="st0" d="M468.9,479.5l0-0.2c0.6,0.2,1.3,0.4,1.6,0.9l0,0.2l0,0.2c-0.4,0.1-0.8,0.3-1.3,0.2l-0.2-0.1
		l0,0.3c-0.6,0-1.4,0.1-1.6-0.3c0-0.8,0.8-0.7,1.3-0.9v-0.1"/>
	<path id="path21854" class="st0" d="M471.3,480.4l-0.3,0c-0.4-0.9-0.9-1.7-0.8-3.1c1.5-0.3,1.6,1.8,1.7,3.2l-0.3,0l-0.1,0.3
		c-0.1,0-0.3,0-0.3-0.2"/>
	<path id="path21858" class="st0" d="M471.8,480.9l0.2-0.2c0.1,0,0.2,0.1,0.3,0.3l-0.2,0.2l0,0.2h-0.4l0-0.3l-0.3,0v-0.2"/>
	<path id="path21862" class="st0" d="M473.9,482.5l0.1,0c0.5,0.4,1.2,0.7,1.7,1.1l-0.2,0.1l0,0.3h-0.2c-0.1,0.1-0.1,0.7,0.1,0.7
		c1.2,0.2,2.7,0.1,4.2,0.1v1.5c-1.4,0-2.8,0-4.2-0.1c-0.2,0.2-0.2,0.9-0.1,1.1c1.4,0.2,3.1,0.1,4.7,0.1v1.5H473v-6.5h0.8"/>
	<path id="path21866" class="st0" d="M476.7,483.7l0-0.3c0.2,0.1,0-0.2,0.3-0.1c-0.1-0.3-0.6-0.2-0.7-0.5l0.2-0.2l0-0.3h3.6
		c0,0.5,0.1,1.1-0.1,1.5c-0.8,0.3-2.4,0.1-3.4,0.1"/>
	<path id="path21870" class="st0" d="M471.1,481.4l0.2,0.1c-0.3,0.5-0.6,1-1.3,1.1l-0.2-0.1l-0.1,0.2c-0.5-0.3-1.5-0.1-2-0.5
		c0.1-0.8,0.8-1,1.5-1.2l0.2,0.1l0-0.3c0.6,0,1.2,0.2,1.7,0.3"/>
	<path id="path21874" class="st0" d="M465.3,485.6c-0.1,2.2,3.9,2.4,4.3,0.6c0.1-1.2-0.2-2-1.1-2.2c-0.5,0.1-1-0.1-1.2-0.1
		C466.1,483.8,465.5,484.5,465.3,485.6 M469.8,482.7l0.1,0c1.3,0.5,2.4,1.4,2.1,3.6c-0.7,3.5-8.1,3.5-9,0.2
		c-0.4-3.3,1.8-4.1,4.6-4.2c0.1,0.7,1.5,0.8,2,0.4"/>
	<path id="path21878" class="st0" d="M461.4,479c0,1-0.4,1.4-0.9,1.9c-0.3,0.1-0.3-0.2-0.5-0.2c0-1,0-2,0.9-2l0.1,0.3"/>
	<path id="path21882" class="st0" d="M460,478.9c-0.4,0.9-0.7,2-1.8,2.1c-0.1-0.1-0.1-0.2-0.3-0.2C457.8,479.3,458.9,479,460,478.9"
		/>
	<path id="path21886" class="st0" d="M456.6,482.4c1,1.1,2.1,2.2,3.2,3.4c0.3-0.9,0-2.3,0.1-3.4h2.1v6.5h-2.1
		c-1.1-1.1-2-2.3-3.1-3.4c-0.2,1,0,2.2-0.1,3.3c-0.6,0.1-1.5,0-2.2,0.1v-6.5"/>
	<path id="path21890" class="st0" d="M461.3,466.7c-0.2-0.2-0.2-0.5-0.4-0.5c-0.1,0-0.1-0.1-0.1-0.2c0-0.1,0.1-0.1,0.2-0.1
		c0.3,0.1,0.4,0.4,0.5,0.6c0,0,0,0.1,0,0.2C461.5,466.8,461.4,466.8,461.3,466.7C461.4,466.8,461.3,466.7,461.3,466.7"/>
	<path id="path21894" class="st0" d="M466.4,468.2c-0.1-0.1-0.1-0.3-0.2-0.3c-0.1-0.1-0.2-0.1-0.3-0.1c0,0,0,0-0.1,0l0,0
		c-0.1,0-0.2-0.1-0.2-0.1c0-0.1,0.1-0.2,0.1-0.2c0,0,0.1,0,0.1,0c0.2,0,0.4,0.1,0.5,0.2c0.1,0.1,0.2,0.3,0.3,0.4
		c0,0.1,0,0.2-0.1,0.2c0,0,0,0-0.1,0C466.5,468.3,466.4,468.3,466.4,468.2"/>
	<path id="path21898" class="st0" d="M466.8,468.7c-0.1-0.2-0.2-0.3-0.3-0.3l0,0c-0.1,0-0.2-0.1-0.2-0.3c0-0.1,0.1-0.2,0.3-0.2
		c0.3,0,0.6,0.3,0.7,0.6c0.1,0.1,0,0.3-0.1,0.3c0,0-0.1,0-0.1,0C467,468.8,466.9,468.8,466.8,468.7"/>
	<path id="path21902" class="st0" d="M467.4,469c0-0.1,0-0.1-0.1-0.1c-0.1,0-0.2-0.1-0.3-0.1l0,0c-0.1,0-0.2-0.2-0.1-0.3
		c0-0.1,0.2-0.2,0.3-0.1c0.1,0,0.2,0.1,0.3,0.2c0.1,0.1,0.3,0.2,0.3,0.4c0,0.1,0,0.2-0.2,0.3c0,0,0,0-0.1,0
		C467.5,469.2,467.4,469.1,467.4,469"/>
	<path id="path21906" class="st0" d="M468.1,469.6c-0.2-0.2-0.3-0.4-0.6-0.5l0,0c-0.1,0-0.2-0.1-0.1-0.2c0-0.1,0.1-0.2,0.2-0.1
		c0.4,0.1,0.6,0.4,0.8,0.6c0.1,0.1,0,0.2,0,0.2c0,0-0.1,0-0.1,0C468.2,469.7,468.1,469.7,468.1,469.6"/>
	<path id="path21910" class="st0" d="M472.8,470.2c-0.1,0-0.1-0.1,0-0.2c0.1-0.1,0.1-0.2,0.2-0.4c0.1,0,0.1,0,0.2,0
		c0,0.1,0,0.1,0,0.2c-0.1,0-0.1,0.1-0.2,0.3C473,470.2,472.9,470.2,472.8,470.2C472.9,470.2,472.8,470.2,472.8,470.2"/>
	<path id="path21914" class="st0" d="M474.6,481.3c-0.1-0.1,0-0.2,0-0.3c0.1-0.1,0.2,0,0.3,0c0.2,0.2,0.6,0.4,1,0.4c0,0,0.1,0,0.1,0
		c0-0.1-0.1-0.2-0.1-0.3l0,0c-0.1-0.1,0-0.2,0.1-0.3c0.1-0.1,0.2,0,0.3,0.1c0.1,0.2,0.2,0.3,0.2,0.6c0,0,0,0.1,0,0.1l0,0.1l-0.1,0
		c-0.1,0-0.3,0.1-0.4,0.1C475.4,481.8,474.9,481.7,474.6,481.3"/>
	<path id="path21918" class="st0" d="M474,479.9c-0.4-0.2-1-0.3-1.4-0.6c0,0,0-0.1,0-0.2c0,0,0.1,0,0.2,0c0.3,0.3,0.9,0.4,1.4,0.6
		l0,0c0.1,0,0.1,0.1,0,0.1C474.1,479.9,474.1,479.9,474,479.9C474,479.9,474,479.9,474,479.9"/>
	<path id="path21922" class="st0" d="M474.5,479.3c-0.1-0.5-0.2-1.1-0.2-1.6c-0.7-0.2-1.1-0.7-1.4-1.2c-0.3-0.6-0.4-1.3-0.5-1.9
		c0-0.1,0-0.2,0.1-0.2c0.1,0,0.2,0,0.2,0.1c0.1,0.6,0.3,1.3,0.5,1.8c0.3,0.5,0.6,0.9,1.3,1l0.2,0l0,0.2c0,0.6,0.2,1.1,0.2,1.8h0
		c0,0.1-0.1,0.2-0.2,0.2c0,0,0,0,0,0C474.6,479.4,474.5,479.4,474.5,479.3"/>
	<path id="path21926" class="st0" d="M469.7,478.1c-0.5-0.4-1-0.7-1.3-1.3c0-0.1,0-0.1,0.1-0.2c0.1,0,0.1,0,0.2,0.1
		c0.2,0.5,0.7,0.9,1.2,1.2l0,0c0.1,0,0.1,0.1,0,0.2C469.9,478.1,469.8,478.1,469.7,478.1C469.8,478.1,469.7,478.1,469.7,478.1"/>
	<path id="path21930" class="st0" d="M464.5,477.9c-0.1-0.1-0.1-0.2,0-0.3c0.1-0.1,0.1-0.1,0.2-0.2c0.1-0.1,0.2-0.2,0.3-0.1
		c0.1,0.1,0.2,0.2,0.1,0.3c-0.1,0.1-0.1,0.2-0.3,0.3c0,0-0.1,0.1-0.2,0.1C464.6,477.9,464.5,477.9,464.5,477.9"/>
	<path id="path21934" class="st0" d="M464.7,477.5c-0.1-0.1-0.1-0.2-0.1-0.3l0,0v0c0-0.2,0-0.4,0.1-0.5c0.1-0.2,0.3-0.3,0.5-0.3
		c0,0,0,0,0,0c0.1,0,0.2,0.1,0.2,0.2c0,0.1-0.1,0.2-0.2,0.2c-0.1,0-0.2,0-0.2,0.1c-0.1,0.1-0.1,0.2-0.1,0.3c0,0.1,0.1,0.1,0.1,0.1v0
		c0.1,0.1,0,0.2,0,0.2c0,0-0.1,0-0.1,0C464.8,477.6,464.8,477.6,464.7,477.5"/>
	<path id="path21938" class="st0" d="M461.9,469.3c-0.8-0.7-1.1-1.7-1.5-2.5c-0.1-0.1,0-0.2,0.1-0.3c0.1-0.1,0.2,0,0.3,0.1
		c0.4,0.9,0.8,1.8,1.4,2.4l0,0c0.1,0.1,0.1,0.2,0,0.3c0,0-0.1,0.1-0.2,0.1C462,469.4,462,469.4,461.9,469.3"/>
	<path id="path21942" class="st0" d="M466.1,468.8c-0.1-0.1-0.1-0.2,0-0.3c0.1-0.1,0.2-0.3,0.3-0.4l0,0c0.1-0.1,0.2-0.2,0.3-0.1
		c0.1,0.1,0.2,0.2,0.1,0.3c-0.1,0.2-0.2,0.4-0.4,0.5c0,0-0.1,0.1-0.2,0.1C466.2,468.8,466.1,468.8,466.1,468.8"/>
	<path id="path21946" class="st0" d="M466.6,469.2c-0.1-0.1,0-0.2,0-0.2c0,0,0.1-0.1,0.1-0.2c0-0.1,0.1-0.3,0.2-0.4
		c0.1-0.1,0.2,0,0.2,0c0.1,0.1,0,0.2,0,0.2c0,0-0.1,0.1-0.1,0.2c0,0.1-0.1,0.3-0.2,0.4c0,0-0.1,0-0.1,0
		C466.7,469.3,466.6,469.3,466.6,469.2"/>
	<path id="path21950" class="st0" d="M467,469.7c-0.1-0.1-0.1-0.2,0-0.3c0.2-0.2,0.4-0.3,0.4-0.5l0,0c0-0.1,0.2-0.2,0.3-0.1
		c0.1,0,0.2,0.2,0.1,0.3c-0.1,0.3-0.3,0.5-0.5,0.6c0,0-0.1,0.1-0.2,0.1C467.1,469.8,467,469.7,467,469.7"/>
	<path id="path21954" class="st0" d="M475.5,481c0,0-0.1,0-0.2,0c-0.2,0-0.3-0.2-0.2-0.3c0-0.2,0.2-0.3,0.3-0.2c0.1,0,0.2,0,0.4,0.1
		c0.1,0.1,0.2,0.2,0.1,0.4c0,0.1-0.1,0.2-0.3,0.2C475.6,481,475.5,481,475.5,481"/>
	<path id="path21958" class="st0" d="M461.1,464.7c-0.2-0.2-0.2-0.4-0.3-0.6c0,0,0-0.1,0-0.1c0,0,0.1,0,0.1,0
		c0.1,0.2,0.1,0.4,0.3,0.5c0,0,0,0.1,0,0.1C461.2,464.7,461.2,464.7,461.1,464.7C461.1,464.7,461.1,464.7,461.1,464.7"/>
	<path id="path21962" class="st0" d="M463,465.4c0-0.1-0.1-0.2-0.2-0.3c-0.1-0.1-0.2-0.1-0.3-0.1c0,0,0,0-0.1,0l0,0
		c-0.1,0-0.2,0-0.2-0.1c0-0.1,0-0.2,0.1-0.2c0,0,0.1,0,0.1,0c0.2,0,0.4,0.1,0.5,0.2c0.1,0.1,0.2,0.3,0.2,0.4c0,0.1,0,0.2-0.1,0.2
		c0,0,0,0-0.1,0C463.1,465.5,463,465.5,463,465.4"/>
	<path id="path21966" class="st0" d="M463.7,466.3c-0.1-0.3,0-0.6-0.1-0.8c-0.1,0-0.1-0.1-0.2-0.1c0,0-0.1,0-0.1,0
		c-0.1,0-0.1,0-0.2,0c0-0.1,0-0.1,0-0.2c0.1-0.1,0.2-0.1,0.3-0.1c0.1,0,0.3,0.1,0.4,0.1l0,0l0,0c0.2,0.3,0.1,0.7,0.2,0.9
		c0,0.1,0,0.1-0.1,0.1c0,0,0,0,0,0C463.7,466.4,463.7,466.3,463.7,466.3"/>
	<path id="path21970" class="st0" d="M463.2,466.1c-0.1,0-0.1-0.1-0.1-0.2c0,0,0,0,0-0.1c0-0.1-0.1-0.2-0.1-0.4c0,0,0,0,0,0
		c0-0.1,0.1-0.2,0.2-0.1c0.1,0,0.2,0.1,0.1,0.2c0,0,0,0,0,0c0,0.1,0.1,0.2,0.1,0.4c0,0,0,0.1,0,0.1
		C463.3,466,463.3,466.1,463.2,466.1C463.2,466.1,463.2,466.1,463.2,466.1"/>
	<path id="path21974" class="st0" d="M462.5,465.8c-0.1,0-0.1-0.1-0.1-0.1c0,0,0-0.1,0-0.1c0-0.2-0.1-0.3-0.1-0.5
		c0-0.1,0-0.2,0.1-0.3c0-0.1,0.1-0.1,0.1,0c0.1,0,0.1,0.1,0,0.1c0,0.1,0,0.1,0,0.2c0,0.1,0.1,0.3,0.1,0.5c0,0,0,0.1,0,0.1
		C462.6,465.7,462.5,465.8,462.5,465.8C462.5,465.8,462.5,465.8,462.5,465.8"/>
	<path id="path21978" class="st0" d="M461.7,465C461.7,465,461.7,465,461.7,465L461.7,465L461.7,465c-0.1-0.1-0.1-0.2-0.1-0.3
		c0-0.1,0-0.1,0-0.2l0-0.1l0,0c0.1-0.1,0.2-0.1,0.2-0.1c0.1,0,0.3,0.1,0.4,0.1c0.1,0.1,0.2,0.1,0.2,0.2c0.1,0,0.1,0.1,0.1,0.2
		s-0.1,0.1-0.2,0.1c-0.1-0.1-0.2-0.1-0.3-0.2c-0.1-0.1-0.2-0.1-0.2-0.1c0,0,0,0,0,0c0,0,0,0.1,0,0.1c0,0,0,0.1,0,0.1c0,0,0,0,0,0
		l0,0c0,0.1,0,0.1,0,0.2c0,0,0,0-0.1,0C461.8,465.1,461.7,465,461.7,465"/>
	<path id="path21982" class="st0" d="M464.8,467.2C464.8,467.2,464.8,467.2,464.8,467.2c0-0.2,0-0.3,0-0.4c0-0.1,0-0.1,0-0.2
		c0,0,0,0,0-0.1c-0.1,0-0.3,0-0.4-0.1l0,0l0,0c0-0.1,0-0.1,0-0.2c0-0.1,0-0.1,0-0.2c0,0,0-0.1,0-0.1c0-0.1,0-0.1,0-0.2
		c0.1,0,0.1,0,0.2,0c0,0.1,0.1,0.2,0.1,0.2c0,0.1,0,0.1,0,0.2c0,0,0,0,0,0c0.1,0,0.2,0,0.3,0.1l0,0l0,0c0.1,0.1,0.1,0.1,0.1,0.1l0,0
		l0,0c0,0.1,0,0.2,0,0.3c0,0.1,0,0.2,0,0.3c0,0,0,0.1,0,0.1c0,0.1,0,0.1-0.1,0.1c0,0,0,0,0,0C464.9,467.4,464.8,467.3,464.8,467.2"
		/>
	<path id="path21986" class="st0" d="M459.8,477.5c-0.3,0-0.6-0.1-0.9-0.1c-0.1,0-0.3,0-0.4,0c-0.1,0-0.1,0-0.1-0.1
		c0-0.1,0-0.1,0.1-0.1c0.1,0,0.3-0.1,0.4-0.1c0.3,0,0.6,0.1,0.9,0.1c0.1,0,0.1,0.1,0.1,0.1C459.9,477.4,459.8,477.5,459.8,477.5
		C459.8,477.5,459.8,477.5,459.8,477.5"/>
	<path id="path21990" class="st0" d="M457.8,477.3c-0.1-0.2-0.1-0.4-0.2-0.5c0-0.1,0-0.1,0-0.2c0.1,0,0.1,0,0.2,0
		c0.1,0.2,0.2,0.4,0.2,0.5l0,0c0,0.1,0,0.1-0.1,0.2c0,0,0,0-0.1,0C457.9,477.4,457.8,477.4,457.8,477.3"/>
	<path id="path21994" class="st0" d="M460.8,477.4c-0.1-0.1-0.2-0.2-0.3-0.4c-0.1-0.1-0.1-0.3,0-0.4c0.1-0.1,0.3-0.1,0.4,0
		c0.1,0.1,0.3,0.3,0.4,0.5c0.1,0.1,0,0.3-0.1,0.4c0,0-0.1,0-0.1,0C460.9,477.5,460.8,477.5,460.8,477.4"/>
	<path id="path21998" class="st0" d="M462.1,477.5c0-0.2-0.1-0.3-0.3-0.6c-0.1-0.1,0-0.2,0.1-0.3c0.1-0.1,0.2,0,0.3,0.1
		c0.1,0.2,0.3,0.4,0.3,0.8c0,0.1-0.1,0.2-0.2,0.2c0,0,0,0,0,0C462.2,477.8,462.1,477.7,462.1,477.5"/>
	<path id="path22002" class="st0" d="M463.9,478.1c-0.5-0.1-1.1-0.2-1.6-0.4l0,0c-0.1,0-0.1-0.1-0.1-0.2c0-0.1,0.1-0.1,0.2-0.1
		c0.5,0.2,1,0.3,1.6,0.4c0.1,0,0.1,0.1,0.1,0.2C464,478,464,478.1,463.9,478.1C463.9,478.1,463.9,478.1,463.9,478.1"/>
	<path id="path22006" class="st0" d="M461.5,477.7c0-0.1,0.1-0.2,0.2-0.2c0.2,0,0.4,0,0.5-0.1c0.1-0.1,0.2,0,0.3,0.1
		c0.1,0.1,0,0.2-0.1,0.3c-0.3,0.2-0.5,0.1-0.7,0.2c0,0,0,0,0,0C461.6,477.9,461.5,477.8,461.5,477.7"/>
	<path id="path22010" class="st0" d="M464.6,479.5c-0.1-0.1,0-0.3,0.1-0.3c0.2-0.1,0.3-0.1,0.4-0.1c0,0,0,0,0,0c0,0,0,0,0.1,0
		c0.1,0,0.2,0.2,0.2,0.3c0,0.1-0.1,0.2-0.2,0.2c0,0,0,0,0,0c-0.1,0-0.2,0-0.2,0l0,0c0,0-0.1,0-0.1,0
		C464.7,479.7,464.7,479.6,464.6,479.5"/>
	<path id="path22014" class="st0" d="M465.2,479.5c-0.1,0-0.1-0.1,0-0.2c0.2-0.2,0.4-0.3,0.6-0.3c0.2,0,0.4-0.1,0.5-0.2
		c0-0.1,0.1-0.1,0.2,0c0.1,0,0.1,0.1,0,0.2c-0.2,0.3-0.4,0.3-0.6,0.4c-0.2,0-0.4,0.1-0.5,0.2C465.3,479.5,465.3,479.5,465.2,479.5
		C465.2,479.5,465.2,479.5,465.2,479.5"/>
	<path id="path22018" class="st0" d="M466.2,478.9c-0.3-0.3-0.8-0.4-1.2-0.5c-0.1,0-0.1-0.1-0.1-0.2c0-0.1,0.1-0.1,0.2-0.1
		c0.4,0.1,1,0.2,1.4,0.6l0,0c0.1,0.1,0,0.1,0,0.2c0,0-0.1,0-0.1,0C466.3,478.9,466.3,478.9,466.2,478.9"/>
	<path id="path22022" class="st0" d="M468.9,479.7c-0.8-0.4-1.6-0.8-2.4-0.8c0,0-0.1,0-0.1,0l0,0c-0.1,0-0.2-0.1-0.2-0.2
		c0-0.1,0.1-0.2,0.2-0.2c0,0,0.1,0,0.1,0c0.9,0,1.8,0.4,2.6,0.8c0.1,0,0.1,0.1,0.1,0.2C469.1,479.7,469,479.7,468.9,479.7
		C468.9,479.7,468.9,479.7,468.9,479.7"/>
	<path id="path22026" class="st0" d="M471,480.6c-0.2,0-0.3-0.1-0.5-0.1c-0.1,0-0.1-0.1-0.1-0.2c0-0.1,0.1-0.1,0.2-0.1
		c0.1,0,0.3,0.1,0.4,0.1c0.1,0,0.1,0,0.2-0.1c0-0.1,0.1-0.1,0.2,0c0.1,0,0.1,0.1,0,0.2C471.3,480.6,471.1,480.6,471,480.6"/>
	<path id="path22030" class="st0" d="M474.5,482.4c-0.2-0.1-0.4-0.1-0.6-0.1c-0.1,0-0.1-0.1-0.1-0.2c0-0.1,0.1-0.1,0.2-0.1
		c0.2,0,0.4,0.1,0.7,0.1c0.1,0,0.1,0.1,0.1,0.2C474.7,482.4,474.6,482.4,474.5,482.4C474.6,482.4,474.6,482.4,474.5,482.4"/>
	<path id="path22034" class="st0" d="M473.9,482.6c-0.1,0-0.1-0.1-0.1-0.1c0-0.1,0-0.2,0.1-0.3c0-0.1,0.1-0.1,0.2-0.1
		s0.1,0.1,0.1,0.2c0,0.1,0,0.2-0.1,0.3C474,482.5,474,482.6,473.9,482.6C473.9,482.6,473.9,482.6,473.9,482.6"/>
	<path id="path22038" class="st0" d="M476.4,482.9c-0.3,0-0.6-0.1-0.8-0.2c-0.1,0-0.2-0.1-0.2-0.2c0-0.1,0.1-0.2,0.2-0.2
		c0.3,0,0.6,0.1,0.8,0.2l0,0c0.1,0,0.2,0.1,0.2,0.2C476.6,482.8,476.5,482.9,476.4,482.9C476.4,482.9,476.4,482.9,476.4,482.9"/>
	<path id="path22042" class="st0" d="M475.4,483.8c-0.1,0-0.1-0.1-0.1-0.2c0-0.1,0.1-0.1,0.2-0.1c0.1,0.1,0.3,0.1,0.4,0.1
		c0.2,0,0.4,0,0.7-0.1c0.1,0,0.2,0.1,0.2,0.1c0,0.1-0.1,0.2-0.1,0.2c-0.2,0-0.4,0.1-0.7,0.1h0C475.8,484,475.6,483.9,475.4,483.8"/>
	<path id="path22046" class="st0" d="M473.9,482.3c-0.6-0.4-1.2-0.8-1.8-1.1c-0.1,0-0.1-0.1-0.1-0.2c0-0.1,0.1-0.1,0.2-0.1
		c0.7,0.3,1.2,0.7,1.8,1.1v0c0.1,0,0.1,0.2,0.1,0.2C474.1,482.3,474,482.3,473.9,482.3C473.9,482.3,473.9,482.3,473.9,482.3"/>
	<path id="path22050" class="st0" d="M469.8,482.9c-0.1,0-0.1-0.1-0.1-0.1c0,0,0,0,0,0c0,0,0-0.1-0.1-0.2c0-0.1,0-0.1,0.1-0.2
		c0.1,0,0.1,0,0.2,0.1c0,0.1,0.1,0.2,0.1,0.3c0,0,0,0,0,0v0C469.9,482.8,469.9,482.9,469.8,482.9
		C469.8,482.9,469.8,482.9,469.8,482.9"/>
	<path id="path22054" class="st0" d="M469.3,481.2c-0.1-0.2-0.2-0.3-0.3-0.5c0,0,0-0.1,0-0.1c0,0,0.1,0,0.1,0
		c0.1,0.2,0.2,0.3,0.3,0.4l0,0c0,0,0,0.1,0,0.1C469.4,481.2,469.4,481.2,469.3,481.2C469.3,481.2,469.3,481.2,469.3,481.2"/>
	<path id="path22058" class="st0" d="M465.2,480.4c-0.1,0-0.1-0.1-0.1-0.2c0.1-0.2,0.1-0.3,0.1-0.4c0-0.1,0-0.2-0.1-0.2l0,0
		c-0.1,0-0.1-0.1-0.1-0.2s0.1-0.1,0.2-0.1c0.2,0.1,0.3,0.3,0.3,0.5c0,0.2-0.1,0.4-0.1,0.6C465.4,480.4,465.4,480.4,465.2,480.4
		C465.3,480.4,465.3,480.4,465.2,480.4"/>
	<path id="path22062" class="st0" d="M470.9,481.4c0-0.1,0-0.1,0.1-0.2c0.2-0.1,0.3-0.1,0.4-0.1c0.1,0,0.2-0.1,0.3-0.2
		c0-0.1,0.1-0.1,0.2,0c0.1,0,0.1,0.1,0,0.2c-0.1,0.2-0.3,0.2-0.4,0.3c-0.1,0-0.3,0.1-0.4,0.1l0,0c0,0,0,0-0.1,0
		C471,481.5,471,481.5,470.9,481.4"/>
	<path id="path22066" class="st0" d="M471.6,481c-0.1-0.1-0.1-0.2-0.2-0.3c-0.1-0.1-0.1-0.3,0.1-0.4c0.1-0.1,0.3-0.1,0.4,0.1
		c0.1,0.1,0.2,0.2,0.3,0.4c0.1,0.1,0,0.3-0.1,0.4c0,0-0.1,0-0.1,0C471.7,481.1,471.6,481.1,471.6,481"/>
	<path id="path22070" class="st0" d="M460.9,479.2c-0.1-0.1-0.1-0.2,0-0.3c0-0.1,0.1-0.1,0.1-0.2c0.1-0.1,0.2-0.2,0.3-0.1
		c0.1,0.1,0.2,0.2,0.1,0.3c0,0.1-0.1,0.2-0.2,0.3c0,0.1-0.1,0.1-0.2,0.1C461,479.2,460.9,479.2,460.9,479.2"/>
	<path id="path22076" class="st0" d="M481.9,467.9h-14.2l0.2,0.4h14c0.5,0,0.9,0.4,0.9,0.9v19.9c0,0.5-0.4,0.9-0.9,0.9h-30.4
		c-0.5,0-0.9-0.4-0.9-0.9v-19.9c0-0.5,0.4-0.9,0.9-0.9h9.2l-0.2-0.4h-9c-0.7,0-1.2,0.6-1.2,1.2v19.9c0,0.7,0.5,1.2,1.2,1.2h30.4
		c0.7,0,1.2-0.6,1.2-1.2h0v-19.9C483.1,468.5,482.6,467.9,481.9,467.9"/>
</g>
</svg>
