<?xml version="1.0" encoding="utf-8"?>
<!-- Generator: Adobe Illustrator 15.0.0, SVG Export Plug-In . SVG Version: 6.00 Build 0)  -->
<!DOCTYPE svg PUBLIC "-//W3C//DTD SVG 1.1//EN" "http://www.w3.org/Graphics/SVG/1.1/DTD/svg11.dtd">
<svg version="1.1"
	 id="svg2816" inkscape:version="0.47 r22583" sodipodi:docname="sixx.svg" xmlns:dc="http://purl.org/dc/elements/1.1/" xmlns:cc="http://creativecommons.org/ns#" xmlns:rdf="http://www.w3.org/1999/02/22-rdf-syntax-ns#" xmlns:svg="http://www.w3.org/2000/svg" xmlns:sodipodi="http://sodipodi.sourceforge.net/DTD/sodipodi-0.dtd" xmlns:inkscape="http://www.inkscape.org/namespaces/inkscape"
	 xmlns="http://www.w3.org/2000/svg" xmlns:xlink="http://www.w3.org/1999/xlink" x="0px" y="0px" width="29.2px" height="28px"
	 viewBox="381.4 292 29.2 28" style="enable-background:new 381.4 292 29.2 28;" xml:space="preserve">
<style type="text/css">
<![CDATA[
	.st0{fill:url(#path3675_1_);}
	.st1{fill:#FFFFFF;}
]]>
</style>
<defs>
	
	
		<inkscape:perspective  id="perspective2824" inkscape:persp3d-origin="0.5 : 0.33333333 : 1" inkscape:vp_x="0 : 0.5 : 1" inkscape:vp_y="0 : 1000 : 0" sodipodi:type="inkscape:persp3d" inkscape:vp_z="1 : 0.5 : 1">
		</inkscape:perspective>
	
		<inkscape:perspective  id="perspective3669" inkscape:persp3d-origin="0.5 : 0.33333333 : 1" inkscape:vp_x="0 : 0.5 : 1" inkscape:vp_y="0 : 1000 : 0" sodipodi:type="inkscape:persp3d" inkscape:vp_z="1 : 0.5 : 1">
		</inkscape:perspective>
	
		<inkscape:perspective  id="perspective3745" inkscape:persp3d-origin="0.5 : 0.33333333 : 1" inkscape:vp_x="0 : 0.5 : 1" inkscape:vp_y="0 : 1000 : 0" sodipodi:type="inkscape:persp3d" inkscape:vp_z="1 : 0.5 : 1">
		</inkscape:perspective>
</defs>
<sodipodi:namedview  id="namedview2818" inkscape:current-layer="svg2816" inkscape:window-y="-4" inkscape:window-x="-4" inkscape:window-height="998" inkscape:window-width="1280" inkscape:pageshadow="2" inkscape:pageopacity="0" inkscape:window-maximized="1" inkscape:cy="53.193316" inkscape:cx="55.400064" bordercolor="#666666" inkscape:zoom="4.705" pagecolor="#ffffff" guidetolerance="10" gridtolerance="10" objecttolerance="10" borderopacity="1" showgrid="false" inkscape:snap-object-midpoints="true" inkscape:snap-intersection-paths="true" showguides="true" inkscape:object-paths="false" inkscape:guide-bbox="true">
	</sodipodi:namedview>
<g id="g3751" transform="matrix(0.28474174,0,0,0.28474174,-13.8545,37.959598)">
	
		<radialGradient id="path3675_1_" cx="824.6123" cy="1993.0891" r="9.622" gradientTransform="matrix(1.6586 1.257 1.2405 -1.6368 -2426.908 3147.4995)" gradientUnits="userSpaceOnUse">
		<stop  offset="0" style="stop-color:#A7F702"/>
		<stop  offset="1" style="stop-color:#74DE0A"/>
	</radialGradient>
	<path id="path3675" class="st0" d="M1439.4,892.2c-28.3,0-51.2,22-51.2,49.2s22.9,49.2,51.2,49.2h51.2v-49.2
		C1490.6,914.2,1467.7,892.2,1439.4,892.2z"/>
	<path id="path3630" class="st1" d="M1459.2,933c-0.9,0.1-1.7,0.9-1.6,1.8c0,0.5,0.2,0.9,0.6,1.2l6.1,5.3l-6.1,5.3
		c-0.7,0.6-0.8,1.7-0.2,2.4c0.6,0.7,1.7,0.8,2.4,0.2c0,0,0,0,0,0l6.5-5.7l6.5,5.7c0.7,0.6,1.8,0.6,2.4-0.1c0.6-0.7,0.6-1.8-0.1-2.4
		c0,0,0,0,0,0l-6.1-5.3l6.1-5.3c0.7-0.6,0.8-1.7,0.2-2.4c-0.3-0.4-0.9-0.6-1.4-0.6c-0.4,0-0.8,0.2-1,0.4l-6.5,5.7l-6.5-5.7
		C1460.1,933.1,1459.7,933,1459.2,933z M1437.3,933c-0.9,0.1-1.7,0.9-1.6,1.8c0,0.5,0.2,0.9,0.6,1.2l6.1,5.3l-6.1,5.3
		c-0.7,0.6-0.8,1.7-0.2,2.4c0.6,0.7,1.7,0.8,2.4,0.2c0,0,0,0,0,0l6.5-5.7l6.5,5.7c0.7,0.6,1.8,0.6,2.4-0.1c0.6-0.7,0.6-1.8-0.1-2.4
		c0,0,0,0,0,0l-6.1-5.3l6.1-5.3c0.7-0.6,0.8-1.7,0.2-2.4c-0.3-0.4-0.9-0.6-1.4-0.6c-0.4,0-0.8,0.2-1,0.4l-6.5,5.7l-6.5-5.7
		C1438.2,933.1,1437.8,933,1437.3,933z M1430.3,933c-0.9,0-1.7,0.8-1.7,1.7l0,0V948c0,0.9,0.7,1.7,1.7,1.7c0.9,0,1.7-0.7,1.7-1.7
		c0,0,0,0,0,0v-13.3C1432,933.8,1431.3,933,1430.3,933C1430.3,933,1430.3,933,1430.3,933z M1420,933c-3.1,0-5.4,2.7-5.4,5.8v4.8
		c0,0.9-0.3,1.4-0.7,1.9c-0.5,0.4-1.2,0.7-2.3,0.7h-7.3c-0.9,0-1.7,0.7-1.7,1.7c0,0.9,0.7,1.7,1.7,1.7c0,0,0,0,0,0h7.3
		c1.8,0,3.4-0.5,4.6-1.6c1.2-1.1,1.9-2.7,1.9-4.4v-4.8c0-1.2,1.3-2.4,2-2.4h3.6c0.9,0,1.7-0.7,1.7-1.7c0-0.9-0.7-1.7-1.7-1.7
		c0,0,0,0,0,0H1420z"/>
</g>
</svg>
