<?xml version="1.0" encoding="utf-8"?>
<!-- Generator: Adobe Illustrator 15.0.0, SVG Export Plug-In . SVG Version: 6.00 Build 0)  -->
<!DOCTYPE svg PUBLIC "-//W3C//DTD SVG 1.1//EN" "http://www.w3.org/Graphics/SVG/1.1/DTD/svg11.dtd">
<svg version="1.1" id="Layer_1" xmlns="http://www.w3.org/2000/svg" xmlns:xlink="http://www.w3.org/1999/xlink" x="0px" y="0px"
	 width="110px" height="40.6px" viewBox="0 0 110 40.6" style="enable-background:new 0 0 110 40.6;" xml:space="preserve">
<style type="text/css">
<![CDATA[
	.st0{fill:#F80000;}
]]>
</style>
<g>
	<g>
		<polygon points="26.8,23.3 26.8,23.3 0,23.3 0,30.9 24.3,30.9 		"/>
		<polygon points="26.8,0 26.8,0 0,0 0,7.6 24.3,7.6 		"/>
		<polygon points="0,11.7 0,19.3 17.4,19.3 19.9,11.7 19.9,11.7 		"/>
	</g>
	<polygon points="110,23.3 110,23.3 83.2,23.3 83.2,30.9 107.5,30.9 	"/>
	<polygon points="110,0 110,0 83.2,0 83.2,7.6 107.5,7.6 	"/>
	<polygon points="83.2,11.7 83.2,19.3 100.6,19.3 103.1,11.7 103.1,11.7 	"/>
	<path d="M40.1,0H29.8v7.6h10.3v0c3.5,0.4,6.1,3.3,6.1,6.9v1.9c0,3.6-2.7,6.5-6.1,6.9v0H29.8v7.6h10.3c7.5,0,13.6-6.1,13.6-13.6
		v-3.8C53.6,6.1,47.6,0,40.1,0z"/>
	<g>
		<path class="st0" d="M88.1,38.7c-0.1,0.6-0.3,1-0.7,1.4c-0.4,0.3-1,0.5-1.6,0.5c-0.4,0-0.7,0-1-0.1c-0.3-0.1-0.5-0.2-0.8-0.3
			l0.2-1.4h0.1c0.2,0.2,0.5,0.4,0.8,0.6c0.3,0.1,0.6,0.2,0.8,0.2c0.1,0,0.2,0,0.3,0c0.1,0,0.2,0,0.3-0.1c0.1,0,0.2-0.1,0.2-0.2
			c0.1-0.1,0.1-0.2,0.1-0.3c0-0.1,0-0.2-0.1-0.3c-0.1-0.1-0.2-0.2-0.3-0.2c-0.2-0.1-0.3-0.1-0.5-0.1c-0.2,0-0.4-0.1-0.5-0.2
			c-0.4-0.2-0.6-0.4-0.8-0.6c-0.1-0.3-0.2-0.6-0.1-1c0.1-0.5,0.3-1,0.7-1.3c0.4-0.3,0.9-0.5,1.5-0.5c0.3,0,0.6,0,0.9,0.1
			c0.3,0.1,0.5,0.2,0.7,0.3l-0.2,1.3h-0.1c-0.2-0.2-0.4-0.3-0.6-0.5c-0.3-0.1-0.5-0.2-0.8-0.2c-0.1,0-0.2,0-0.3,0
			c-0.1,0-0.2,0-0.3,0.1c-0.1,0-0.2,0.1-0.2,0.2c-0.1,0.1-0.1,0.2-0.1,0.3c0,0.1,0,0.3,0.1,0.3c0.1,0.1,0.2,0.2,0.5,0.2
			c0.2,0,0.3,0.1,0.5,0.1c0.2,0,0.3,0.1,0.5,0.2c0.3,0.1,0.6,0.3,0.7,0.6C88.1,37.9,88.2,38.3,88.1,38.7z"/>
		<path class="st0" d="M93,36.6c0,0.3-0.1,0.5-0.2,0.7c-0.1,0.2-0.2,0.4-0.4,0.6c-0.2,0.2-0.4,0.4-0.7,0.5c-0.2,0.1-0.5,0.2-0.9,0.2
			h-0.7l-0.2,1.8h-1.2l0.7-5.7h1.9c0.3,0,0.5,0,0.7,0.1s0.4,0.2,0.5,0.3c0.2,0.2,0.3,0.3,0.4,0.6C93,35.9,93,36.2,93,36.6z
			 M91.7,36.6c0-0.2,0-0.3-0.1-0.4c-0.1-0.1-0.1-0.2-0.2-0.2c-0.1-0.1-0.2-0.1-0.3-0.1c-0.1,0-0.3,0-0.5,0h-0.2l-0.2,1.7h0.3
			c0.2,0,0.4,0,0.5,0c0.1,0,0.3-0.1,0.3-0.2c0.1-0.1,0.2-0.2,0.2-0.3S91.7,36.7,91.7,36.6z"/>
		<path class="st0" d="M98.1,37.6c-0.1,0.9-0.4,1.6-0.9,2.2c-0.5,0.5-1.1,0.8-1.8,0.8c-0.7,0-1.3-0.3-1.6-0.8
			c-0.4-0.5-0.5-1.3-0.4-2.2c0.1-0.9,0.4-1.6,0.9-2.2c0.5-0.5,1.1-0.8,1.8-0.8c0.7,0,1.3,0.3,1.6,0.8C98.1,36,98.2,36.7,98.1,37.6z
			 M96.4,39c0.1-0.2,0.2-0.4,0.3-0.6c0.1-0.2,0.1-0.5,0.2-0.8c0-0.3,0-0.6,0-0.9c0-0.2-0.1-0.4-0.2-0.6c-0.1-0.2-0.2-0.3-0.3-0.3
			c-0.1-0.1-0.3-0.1-0.4-0.1c-0.1,0-0.3,0-0.4,0.1c-0.1,0.1-0.3,0.2-0.4,0.3c-0.1,0.1-0.2,0.3-0.3,0.6c-0.1,0.3-0.2,0.5-0.2,0.9
			c0,0.3,0,0.6,0,0.9c0,0.2,0.1,0.4,0.2,0.6c0.1,0.2,0.2,0.3,0.3,0.3c0.1,0.1,0.3,0.1,0.4,0.1s0.3,0,0.4-0.1
			C96.1,39.3,96.3,39.2,96.4,39z"/>
		<path class="st0" d="M103.1,40.4h-1.4l-1-2.1h-0.5l-0.3,2.1h-1.2l0.7-5.7h2c0.3,0,0.5,0,0.7,0.1c0.2,0,0.4,0.1,0.5,0.2
			c0.2,0.1,0.3,0.3,0.3,0.5c0.1,0.2,0.1,0.5,0.1,0.8c-0.1,0.4-0.2,0.8-0.4,1c-0.2,0.3-0.4,0.5-0.8,0.7L103.1,40.4z M101.7,36.5
			c0-0.1,0-0.3,0-0.4s-0.1-0.2-0.2-0.2c-0.1,0-0.2-0.1-0.3-0.1c-0.1,0-0.2,0-0.4,0h-0.4l-0.2,1.5h0.4c0.2,0,0.3,0,0.5,0
			c0.1,0,0.2-0.1,0.3-0.2c0.1-0.1,0.2-0.2,0.2-0.3S101.7,36.7,101.7,36.5z"/>
		<path class="st0" d="M107.8,35.9h-1.4l-0.6,4.6h-1.2l0.6-4.6h-1.4l0.1-1.1h4L107.8,35.9z"/>
	</g>
	<path d="M68,11.7l-2.5,7.6l0,0h7c-1,2.2-3.1,3.8-5.5,4v0H56.7v7.6h10.3c6.8,0,12.5-5.1,13.4-11.7v-7.6H68z"/>
	<path d="M73.6,9.4l2.9-6.9c-2.9-2.1-6-2.5-9.6-2.5H56.7v7.6l10.3,0C67,7.6,71.5,7.6,73.6,9.4L73.6,9.4z"/>
</g>
</svg>
