<?xml version="1.0" encoding="UTF-8" standalone="no"?>
<!-- Created with Inkscape (http://www.inkscape.org/) -->
<svg
   xmlns:svg="http://www.w3.org/2000/svg"
   xmlns="http://www.w3.org/2000/svg"
   xmlns:xlink="http://www.w3.org/1999/xlink"
   version="1.0"
   width="897.59998"
   height="166.81"
   id="Super-RTL_logo2007"
   xml:space="preserve"><defs
     id="defs5"><linearGradient
       id="linearGradient7157"><stop
         id="stop7161"
         style="stop-color:#fb8c01;stop-opacity:1"
         offset="0" /><stop
         id="stop7169"
         style="stop-color:#e35202;stop-opacity:1"
         offset="1" /></linearGradient><linearGradient
       x1="143.44417"
       y1="422.30911"
       x2="313.14142"
       y2="422.30911"
       id="linearGradient3246"
       xlink:href="#linearGradient7157"
       gradientUnits="userSpaceOnUse"
       gradientTransform="matrix(1.25,0,0,-1.25,67.889496,611.29138)" /></defs><g
     id="box_links"><path
       d="M 46.560082,7.501505 C 26.087763,7.501505 9.4981247,24.091142 9.4981247,44.563455 L 9.4981247,122.2465 C 9.4981247,142.71882 26.087763,159.30845 46.560082,159.30845 L 417.97385,159.30845 C 442.03471,159.30845 461.53636,139.8068 461.53636,115.77537 L 461.53636,51.064005 C 461.53636,32.856592 470.83126,16.85523 484.89127,7.501505 L 46.560082,7.501505"
       id="box_links_bg"
       style="fill:url(#linearGradient3246);fill-opacity:1;fill-rule:nonzero;stroke:none" /><path
       d="M 373.38185,76.360268 L 365.6459,76.213193 L 365.6459,60.770717 L 374.9408,60.623642 C 379.52942,60.623642 382.35318,63.918043 382.35318,68.33018 C 382.35318,73.18353 379.79415,76.360268 373.38185,76.360268 M 391.91282,94.773593 C 390.50093,93.038142 388.23603,90.479105 385.94173,90.479105 C 397.06032,87.33178 403.94325,79.18403 403.94325,67.330092 C 403.94325,52.475893 391.35395,42.063242 375.23495,42.210317 L 343.79111,42.504467 L 343.79111,124.33492 L 365.49882,124.33492 L 365.49882,117.18726 C 365.49882,115.62829 365.6459,99.92108 365.2341,96.773755 C 366.20476,97.33263 367.9108,98.332717 369.79331,100.77409 L 382.64733,116.18717 C 385.35345,119.48156 388.23603,121.33466 389.23612,122.18767 C 391.35395,123.59956 394.64835,124.33492 398.20747,124.33492 L 417.6503,124.33492 L 391.91282,94.773593 M 270.34372,124.33492 L 329.46636,124.33492 L 329.46636,105.06858 L 291.90436,105.18623 L 291.90436,91.626267 L 310.17061,91.77333 C 318.46543,91.890993 324.61301,88.03773 324.46595,80.066467 L 324.1718,72.47758 L 291.90436,72.624655 L 291.90436,61.770793 L 314.61217,61.917868 C 323.05406,61.917868 328.9075,58.182255 328.9075,50.210993 L 328.9075,42.504467 L 270.34372,42.504467 L 270.34372,124.33492 M 225.60463,78.03688 C 224.04568,78.03688 222.78087,78.03688 220.60421,77.919218 C 220.75128,75.066042 220.75128,67.62423 220.75128,65.77113 L 220.75128,60.358918 L 226.60472,60.035355 C 232.92878,59.917705 238.34101,60.035355 238.34101,68.03603 C 238.34101,75.213105 236.19377,78.183955 225.60463,78.03688 M 245.60633,45.651793 C 240.60591,43.06333 237.01737,42.210317 228.89903,42.210317 L 199.33771,42.504467 L 199.33771,124.33492 L 220.89836,124.33492 L 220.89836,110.48081 C 220.89836,103.33313 220.75128,99.626943 220.33948,95.920742 C 222.89852,96.067817 225.33991,96.185468 227.04593,96.185468 C 246.31227,96.185468 259.46045,85.625755 259.46045,68.183105 C 259.46045,58.064605 254.34236,49.76978 245.60633,45.651793 M 151.03951,125.7762 C 171.30593,125.7762 183.6305,115.33415 183.6305,96.626693 L 183.6305,42.504467 L 162.04044,42.504467 L 162.04044,97.067905 C 162.04044,103.18607 158.77546,106.62753 150.89244,106.62753 C 143.48004,106.62753 139.77385,102.89192 139.77385,97.067905 L 139.77385,56.623305 C 139.77385,48.21083 135.89117,42.504467 127.77283,42.504467 L 118.03672,42.504467 L 118.03672,96.626693 C 118.03672,114.92236 130.89074,125.7762 151.03951,125.7762 M 71.532783,125.62914 C 91.093261,125.62914 104.94737,117.04018 104.94737,101.18589 C 104.94737,91.479193 99.093937,83.743243 88.093007,77.330943 L 75.944921,70.330343 C 70.826841,67.21243 69.944413,65.506405 69.944413,64.035692 C 69.944413,62.064943 71.797511,59.623555 78.651032,59.623555 C 83.504383,59.623555 87.945936,60.358918 96.387826,63.329755 L 101.24118,44.50463 C 90.94619,41.91618 84.533882,41.063168 78.35689,41.063168 C 61.384866,41.063168 48.089623,50.210993 48.089623,64.771055 C 48.089623,73.477668 52.648833,80.066467 61.384866,85.213955 L 76.091992,93.773505 C 81.092415,96.626693 82.798442,99.332793 82.798442,101.77418 C 82.798442,103.892 80.533545,106.62753 71.532783,106.62753 C 66.53236,106.62753 62.237879,105.92159 52.531176,103.18607 L 47.942552,121.89353 C 58.796412,124.74672 65.091062,125.62914 71.532783,125.62914"
       id="text_SUPER"
       style="fill:#ffffff;fill-opacity:1;fill-rule:nonzero;stroke:none" /></g><g
     id="box_rechts"><path
       d="M 846.98072,7.501505 L 522.48268,7.501505 C 498.42183,7.501505 478.9496,27.003155 478.9496,51.064005 L 478.9496,115.77537 C 478.9496,133.92396 469.6547,149.95473 455.56526,159.30845 L 846.98072,159.30845 C 869.68852,159.30845 888.10185,140.92456 888.10185,118.21674 L 888.10185,50.18158 C 888.10185,27.47378 869.68852,7.501505 846.98072,7.501505"
       id="box_rechts_bg_orange"
       style="fill:#e04d04;fill-opacity:1;fill-rule:nonzero;stroke:none" /><path
       d="M 468.65461,154.48452 C 478.30248,144.04247 483.80295,130.30601 483.80295,115.77537 L 483.80295,51.064005 C 483.80295,40.710193 487.80328,31.003493 495.12743,23.708755 C 502.42217,16.384605 512.15828,12.354855 522.48268,12.354855 L 846.98072,12.354855 C 856.54036,12.354855 865.59995,16.384605 872.5123,23.679343 C 879.3364,30.827005 883.2485,40.504293 883.2485,50.18158 L 883.2485,118.21674 C 883.2485,127.89404 879.45406,136.98304 872.62995,143.86598 C 865.77643,150.69008 856.65801,154.48452 846.98072,154.48452 L 468.65461,154.48452"
       id="box_rechts_bg_weiss"
       style="fill:#ffffff;fill-opacity:1;fill-rule:nonzero;stroke:none" /><path
       d="M 797.09415,58.299918 L 797.09415,100.39171 L 856.36387,100.39171 L 856.36387,113.03984 L 750.94318,113.03984 L 750.94318,58.299918 L 797.09415,58.299918 M 736.79493,58.299918 L 736.85376,71.183355 L 706.64532,71.183355 L 706.64532,113.03984 L 663.55345,113.03984 L 663.58286,71.183355 L 633.05086,71.183355 L 633.05086,58.299918 L 736.79493,58.299918 M 577.31086,83.125543 L 558.33866,83.09613 L 558.36807,70.91863 L 576.89906,70.889218 C 580.54642,70.889218 582.66425,74.00713 582.66425,76.860305 C 582.66425,80.184118 580.4876,82.772568 577.31086,83.125543 M 603.10716,94.067642 L 604.25431,93.979405 C 612.78445,94.185305 621.02043,86.59643 621.02043,76.830892 C 620.99102,63.682718 611.28432,58.299918 602.3718,58.299918 L 518.07055,58.299918 L 518.04113,113.03984 L 558.33866,113.03984 L 558.33866,95.126555 L 566.60407,95.097142 L 587.48818,113.06926 L 629.66822,113.06926 L 603.10716,94.067642"
       id="text_RTL"
       style="fill:#e04d04;fill-opacity:1;fill-rule:nonzero;stroke:none" /></g></svg>