<?xml version="1.0" encoding="utf-8"?>
<!-- Generator: Adobe Illustrator 15.0.0, SVG Export Plug-In . SVG Version: 6.00 Build 0)  -->
<!DOCTYPE svg PUBLIC "-//W3C//DTD SVG 1.1//EN" "http://www.w3.org/Graphics/SVG/1.1/DTD/svg11.dtd">
<svg version="1.1" id="Layer_1" xmlns="http://www.w3.org/2000/svg" xmlns:xlink="http://www.w3.org/1999/xlink" x="0px" y="0px"
	 width="97.8px" height="28px" viewBox="347.2 292 97.8 28" style="enable-background:new 347.2 292 97.8 28;" xml:space="preserve"
	>
<style type="text/css">
<![CDATA[
	.st0{fill:#FF9F00;}
]]>
</style>
<path class="st0" d="M426.4,301.5v5.8h3.5v-13.4h-3.5v5h-5.3v-5h-3.5v13.4h3.5v-5.8H426.4 M432.8,307.4h4.7c4.6,0,7.6-2.4,7.6-6.7
	c0-4.4-3-6.7-7.6-6.7h-4.7V307.4 M436.3,296.5h1.5c2.4,0,3.8,1.5,3.8,4.1s-1.4,4.1-3.8,4.1h-1.5V296.5"/>
<g id="g10" transform="matrix(1.25,0,0,-1.25,-7.4177208,338.97523)" inkscape:groupmode="layer" inkscape:label="manual">
	<g id="g92" transform="matrix(0.53055311,0,0,0.53055311,-9.0249879,78.597319)">
		<g>
			<g id="g94">
				<g id="g100" transform="translate(164.6518,313.6466)">
					<path id="path102" inkscape:connector-curvature="0" class="st0" d="M471.7-421.5c1.3,4.4,16.5,6.9,16.5,18
						c0,7.3-6.5,10.4-13.8,10.4c-5,0-9.5-1.6-13.3-4.1l2.6-6.6c3,1.7,6.2,2.9,9.2,2.9c2.9,0,5.3-1.1,5.3-3.4
						c0-7.4-16.8-7.2-16.8-21.3c0-0.9,0.1-1.9,0.2-3h26.5v7.1H471.7z"/>
				</g>
				<g id="g104" transform="translate(53.7052,361.9463)">
					<path id="path106" inkscape:connector-curvature="0" class="st0" d="M513.8-439.8c4.2,0.3,8.7,0.5,12.3,0.6v-5.4
						c-1.7-0.1-3.7-0.2-5.5-0.4c-6.4-0.7-7.6-2.1-8.4-8.2c-0.3-2.6-0.4-5.3-0.4-7.1c0-1.8,0.1-4.6,0.4-7.1c0.8-6.1,2-7.5,8.4-8.2
						c1.8-0.2,3.8-0.3,5.5-0.4v-5.4c-3.7,0.1-8.2,0.2-12.3,0.6c-11.5,0.9-13.6,2.8-15,11c-0.6,3.4-0.7,7.1-0.7,9.5
						c0,2.5,0.2,6.1,0.7,9.6C500.2-442.6,502.3-440.7,513.8-439.8"/>
				</g>
				<g id="g108" transform="translate(128.9098,328.8202)">
					<path id="path110" inkscape:connector-curvature="0" class="st0" d="M485.3-427.2c0-2.5-0.2-6.1-0.7-9.5
						c-1.4-8.2-3.5-10.1-15-11c-4.2-0.3-8.7-0.5-12.3-0.6v5.4c1.7,0.1,3.7,0.2,5.5,0.4c6.4,0.7,7.6,2.1,8.4,8.2
						c0.3,2.6,0.4,5.3,0.4,7.1c0,1.8-0.1,4.6-0.4,7.1c-0.8,6.1-2,7.5-8.4,8.2c-1.8,0.2-3.8,0.3-5.5,0.4v5.4
						c3.7-0.1,8.2-0.2,12.3-0.6c11.5-0.9,13.6-2.8,15-11C485.1-421.1,485.3-424.8,485.3-427.2"/>
				</g>
			</g>
		</g>
	</g>
</g>
</svg>
