<?xml version="1.0" encoding="utf-8"?>
<!-- Generator: Adobe Illustrator 15.0.0, SVG Export Plug-In . SVG Version: 6.00 Build 0)  -->
<!DOCTYPE svg PUBLIC "-//W3C//DTD SVG 1.1//EN" "http://www.w3.org/Graphics/SVG/1.1/DTD/svg11.dtd">
<svg version="1.1"
	 id="svg14315" inkscape:version="0.48.2 r9819" sodipodi:docname="Eurosport HD.svg" xmlns:dc="http://purl.org/dc/elements/1.1/" xmlns:cc="http://creativecommons.org/ns#" xmlns:rdf="http://www.w3.org/1999/02/22-rdf-syntax-ns#" xmlns:svg="http://www.w3.org/2000/svg" xmlns:sodipodi="http://sodipodi.sourceforge.net/DTD/sodipodi-0.dtd" xmlns:inkscape="http://www.inkscape.org/namespaces/inkscape"
	 xmlns="http://www.w3.org/2000/svg" xmlns:xlink="http://www.w3.org/1999/xlink" x="0px" y="0px" width="76.614px" height="50px"
	 viewBox="99.123 64.69 76.614 50" style="enable-background:new 99.123 64.69 76.614 50;" xml:space="preserve">
<style type="text/css">
<![CDATA[
	.st0{fill:#AA0C31;}
	.st1{fill:#B3B5B7;}
	.st2{fill:url(#path5625_1_);}
	.st3{fill:#FFFFFF;}
]]>
</style>
<g id="layer1" transform="translate(-325.50437,-622.97642)" inkscape:label="Ebene 1" inkscape:groupmode="layer">
	<g id="g5609" transform="matrix(15.706243,0,0,-15.706243,-377.24006,9335.4493)">
		<g id="g5611">
			<g id="g5617">
				
					<linearGradient id="path5625_1_" gradientUnits="userSpaceOnUse" x1="28.6505" y1="529.2953" x2="28.9292" y2="529.2953" gradientTransform="matrix(-55.721 -113.8137 -113.8137 55.721 61890.293 -25682.0156)">
					<stop  offset="0" style="stop-color:#2E4988"/>
					<stop  offset="1" style="stop-color:#0A0D0F"/>
				</linearGradient>
				<path id="path5625" inkscape:connector-curvature="0" class="st2" d="M51.297,549.425h2.216l-0.24-0.854h-2.219L51.297,549.425"
					/>
			</g>
		</g>
	</g>
	<g id="g5627" transform="matrix(15.706243,0,0,-15.706243,-377.24006,9335.4493)">
		<g id="g5629" transform="translate(53.564,550.516)">
			<g id="g5633" transform="translate(-7.544,-0.545)">
				<path id="path5635" inkscape:connector-curvature="0" class="st3" d="M5.39-0.698h0.346l-0.03-0.107H5.481L5.451-0.91h0.207
					l-0.03-0.106H5.421L5.386-1.14H5.61L5.58-1.247H5.234L5.39-0.698"/>
				<g id="g5637" transform="translate(1.195,-1.5)">
					<path id="path5639" inkscape:connector-curvature="0" class="st3" d="M4.528,0.384c0.001,0.009,0.003,0.019,0.006,0.028
						l0.11,0.39h0.121L4.659,0.429C4.656,0.419,4.655,0.411,4.654,0.403C4.65,0.37,4.666,0.352,4.723,0.352
						c0.066,0,0.093,0.026,0.106,0.072l0.107,0.379h0.121l-0.11-0.39C4.921,0.32,4.867,0.245,4.7,0.245
						C4.567,0.245,4.52,0.311,4.528,0.384"/>
					<g id="g5641" transform="translate(3.155,0.891)">
						<path id="path5643" inkscape:connector-curvature="0" class="st3" d="M2.253-0.259C2.255-0.249,2.257-0.24,2.258-0.235
							c0.003,0.028-0.013,0.04-0.055,0.04H2.102L2.055-0.362h0.104c0.054,0,0.07,0.02,0.082,0.062L2.253-0.259z M2.108-0.467H2.025
							L1.977-0.638H1.856l0.155,0.549h0.21c0.118,0,0.171-0.045,0.162-0.125C2.382-0.225,2.38-0.235,2.377-0.248L2.358-0.314
							C2.339-0.382,2.31-0.426,2.239-0.45l0.084-0.188H2.186L2.108-0.467"/>
						<g id="g5645" transform="translate(1.915,0.059)">
							<path id="path5647" inkscape:connector-curvature="0" class="st3" d="M0.871-0.301c0.004,0.034-0.016,0.054-0.075,0.054
								c-0.063,0-0.099-0.027-0.111-0.071l-0.06-0.21C0.624-0.534,0.622-0.54,0.622-0.546C0.618-0.579,0.637-0.598,0.697-0.598
								c0.063,0,0.098,0.024,0.111,0.071l0.06,0.21C0.869-0.312,0.871-0.306,0.871-0.301z M0.497-0.559
								C0.498-0.551,0.5-0.542,0.503-0.534l0.064,0.227C0.595-0.205,0.665-0.14,0.82-0.14c0.13,0,0.183-0.074,0.175-0.149
								C0.995-0.296,0.993-0.305,0.99-0.313L0.927-0.538C0.898-0.643,0.829-0.705,0.666-0.705C0.537-0.705,0.489-0.634,0.497-0.559"
								/>
							<g id="g5649" transform="translate(1.044,-1.32)">
								<path id="path5651" inkscape:connector-curvature="0" class="st0" d="M0.118,0.651l0.036,0.093
									c0.051-0.016,0.094-0.027,0.147-0.027c0.064,0,0.08,0.012,0.094,0.06c0.004,0.011,0.006,0.022,0.006,0.029
									c0.003,0.025-0.013,0.032-0.078,0.049C0.234,0.878,0.204,0.91,0.211,0.974c0.002,0.017,0.006,0.037,0.013,0.059
									C0.261,1.156,0.296,1.18,0.446,1.18c0.042,0,0.11-0.009,0.158-0.021L0.571,1.058C0.524,1.069,0.462,1.077,0.425,1.077
									c-0.059,0-0.072-0.008-0.084-0.052c-0.003-0.012-0.006-0.022-0.007-0.03C0.331,0.968,0.347,0.964,0.41,0.948
									c0.1-0.025,0.124-0.057,0.118-0.113C0.526,0.817,0.522,0.799,0.515,0.776C0.483,0.663,0.439,0.615,0.283,0.615
									C0.237,0.615,0.159,0.63,0.118,0.651"/>
								<g id="g5653" transform="translate(3.013,1.252)">
									<path id="path5655" inkscape:connector-curvature="0" class="st0" d="M-2.055-0.252c0.003,0.01,0.004,0.018,0.005,0.024
										C-2.047-0.2-2.062-0.187-2.099-0.187h-0.102l-0.048-0.17h0.1c0.056,0,0.071,0.02,0.082,0.061L-2.055-0.252z M-2.279-0.462
										l-0.048-0.167h-0.121l0.156,0.549h0.21c0.118,0,0.17-0.045,0.161-0.124c-0.001-0.012-0.006-0.029-0.01-0.042l-0.017-0.062
										C-1.978-0.41-2.025-0.462-2.171-0.462H-2.279"/>
									<g id="g5657" transform="translate(1.83,0.068)">
										<path id="path5659" inkscape:connector-curvature="0" class="st0" d="M-3.375-0.301c0.004,0.034-0.016,0.054-0.075,0.054
											c-0.063,0-0.099-0.027-0.111-0.071l-0.06-0.21C-3.623-0.534-3.624-0.54-3.625-0.546c-0.004-0.033,0.016-0.052,0.075-0.052
											c0.063,0,0.098,0.024,0.111,0.071l0.06,0.21C-3.377-0.312-3.375-0.306-3.375-0.301z M-3.749-0.559
											c0.001,0.008,0.003,0.017,0.005,0.026l0.064,0.227C-3.651-0.205-3.581-0.14-3.426-0.14c0.13,0,0.183-0.074,0.175-0.149
											c-0.001-0.007-0.003-0.016-0.005-0.025l-0.063-0.224c-0.03-0.105-0.098-0.168-0.261-0.168
											C-3.709-0.705-3.757-0.634-3.749-0.559"/>
										<g id="g5661" transform="translate(1.802,-0.059)">
											<path id="path5663" inkscape:connector-curvature="0" class="st0" d="M-4.675-0.259C-4.672-0.249-4.67-0.24-4.67-0.235
												c0.003,0.028-0.013,0.04-0.055,0.04h-0.101l-0.047-0.166h0.104c0.054,0,0.07,0.02,0.082,0.062L-4.675-0.259z
												 M-4.819-0.467h-0.083L-4.95-0.638h-0.121l0.155,0.549h0.21c0.118,0,0.171-0.045,0.162-0.125
												c-0.001-0.011-0.004-0.021-0.007-0.034l-0.019-0.066C-4.588-0.382-4.617-0.426-4.688-0.45l0.084-0.188h-0.136
												L-4.819-0.467"/>
											<g id="g5665" transform="translate(1.179,-1.362)">
												<path id="path5667" inkscape:connector-curvature="0" class="st0" d="M-5.525,0.724h-0.122l0.125,0.442H-5.67
													l0.03,0.107h0.419l-0.03-0.107H-5.4L-5.525,0.724"/>
												<g id="g5669" transform="translate(-10.307,3.109)">
													<path id="path5671" inkscape:connector-curvature="0" class="st1" d="M1.909-1.519L1.766-1.417L1.543-1.518
														l0.139,0.163L1.543-1.257h0.223L1.909-1.09v-0.167h0.205L1.909-1.351V-1.519"/>
													<g id="g5673" transform="translate(2.378,1.413)">
														<path id="path5675" inkscape:connector-curvature="0" class="st1" d="M0.194-2.538L0.051-2.436l-0.223-0.102
															l0.138,0.163l-0.138,0.099h0.223l0.143,0.168v-0.168h0.205L0.194-2.37V-2.538"/>
														<g id="g5677" transform="translate(2.642,0.653)">
															<path id="path5679" inkscape:connector-curvature="0" class="st1" d="M-1.712-3.009l-0.143,0.102l-0.223-0.102
																l0.139,0.163l-0.139,0.099h0.223l0.143,0.167v-0.167h0.205l-0.205-0.094V-3.009"/>
															<g id="g5681" transform="translate(2.414,-0.654)">
																<path id="path5683" inkscape:connector-curvature="0" class="st1" d="M-3.453-2.537l-0.143,0.102l-0.223-0.102
																	l0.139,0.163l-0.139,0.099h0.223l0.143,0.168v-0.168h0.205L-3.453-2.37V-2.537"/>
																<g id="g5685" transform="translate(1.655,-1.412)">
																	<path id="path5687" inkscape:connector-curvature="0" class="st1" d="M-4.646-1.519l-0.143,0.102l-0.223-0.102
																		l0.139,0.163l-0.139,0.099h0.223l0.143,0.168v-0.168h0.205l-0.205-0.094V-1.519"/>
																	<g id="g5689" transform="translate(-2.168,-5.75)">
																		<path id="path5691" inkscape:connector-curvature="0" class="st1" d="M-3.083,2.629l-0.143,0.102l-0.223-0.102
																			l0.139,0.163L-3.448,2.89h0.223l0.143,0.168V2.89h0.205l-0.205-0.094V2.629"/>
																		<g id="g5693" transform="translate(-5.055,-2.066)">
																			<path id="path5695" inkscape:connector-curvature="0" class="st1" d="M0.563,4.119L0.421,4.221L0.198,4.119
																				l0.139,0.163L0.198,4.38h0.223l0.143,0.167V4.38h0.205L0.563,4.286V4.119"/>
																			<g id="g5697" transform="translate(-4.065,2.064)">
																				<path id="path5699" inkscape:connector-curvature="0" class="st1" d="M3.495,2.63L3.353,2.732L3.13,2.63
																					l0.138,0.163L3.13,2.892h0.223l0.143,0.168V2.892H3.7L3.495,2.798V2.63"/>
																				<g id="g5701" transform="translate(6.71,-1.516)">
																					<path id="path5703" inkscape:connector-curvature="0" class="st1" d="M-1.344,3.723l-0.143,0.102L-1.71,3.724
																						l0.138,0.163L-1.71,3.985h0.223l0.143,0.168V3.985h0.205l-0.205-0.094V3.723"/>
																					<g id="g5705" transform="translate(-5.083,0)">
																						<path id="path5707" inkscape:connector-curvature="0" class="st1" d="M2.322,3.723L2.179,3.826L1.956,3.724
																							l0.138,0.163L1.956,3.985h0.223l0.143,0.168V3.985h0.205L2.322,3.891V3.723"/>
																					</g>
																				</g>
																			</g>
																		</g>
																	</g>
																</g>
															</g>
														</g>
													</g>
												</g>
											</g>
										</g>
									</g>
								</g>
							</g>
						</g>
					</g>
				</g>
			</g>
		</g>
	</g>
</g>
</svg>
