<?xml version="1.0" encoding="utf-8"?>
<!-- Generator: Adobe Illustrator 15.0.0, SVG Export Plug-In . SVG Version: 6.00 Build 0)  -->
<!DOCTYPE svg PUBLIC "-//W3C//DTD SVG 1.1//EN" "http://www.w3.org/Graphics/SVG/1.1/DTD/svg11.dtd">
<svg version="1.1"
	 id="svg10913" inkscape:version="0.48.0 r9654" sodipodi:docname="Neues Dokument 56" xmlns:dc="http://purl.org/dc/elements/1.1/" xmlns:cc="http://creativecommons.org/ns#" xmlns:rdf="http://www.w3.org/1999/02/22-rdf-syntax-ns#" xmlns:svg="http://www.w3.org/2000/svg" xmlns:sodipodi="http://sodipodi.sourceforge.net/DTD/sodipodi-0.dtd" xmlns:inkscape="http://www.inkscape.org/namespaces/inkscape"
	 xmlns="http://www.w3.org/2000/svg" xmlns:xlink="http://www.w3.org/1999/xlink" x="0px" y="0px" width="83.7px" height="28px"
	 viewBox="70.3 23.5 83.7 28" style="enable-background:new 70.3 23.5 83.7 28;" xml:space="preserve">
<style type="text/css">
<![CDATA[
	.st0{fill:#231F20;}
]]>
</style>
<sodipodi:namedview  id="base" inkscape:current-layer="layer1" inkscape:window-y="-8" inkscape:window-x="-8" fit-margin-bottom="0" fit-margin-right="0" inkscape:window-height="1028" inkscape:window-width="1618" inkscape:pageshadow="2" inkscape:pageopacity="0.0" inkscape:window-maximized="1" inkscape:document-units="px" inkscape:cy="203.34938" inkscape:cx="122.87464" bordercolor="#666666" inkscape:zoom="0.35" pagecolor="#ffffff" fit-margin-left="0" fit-margin-top="0" borderopacity="1.0" showgrid="false">
	</sodipodi:namedview>
<g id="layer1" transform="translate(-227.12536,-660.71156)" inkscape:groupmode="layer" inkscape:label="Ebene 1">
	<path id="path8241" inkscape:connector-curvature="0" class="st0" d="M307.6,697.2c2.9,0.7,4.2,2.1,4.2,4.6c0,2.5-1.7,4.5-5.8,4.5
		h-7.7c-0.4,0-0.6-0.3-0.6-0.7V704c0-0.8,0.5-1.5,1.6-1.5h7c0.8,0,1.1-0.4,1.1-0.6c0-0.4-0.3-0.7-1.2-0.9l-4.4-1
		c-2.8-0.6-4.2-2.1-4.2-4.4c0-2.6,1.8-4.7,5.3-4.7h7.8c0.4,0,0.7,0.3,0.7,0.7v1.5c0,0.8-0.4,1.6-1.6,1.6h-6.7
		c-0.9,0-1.2,0.3-1.2,0.6c0,0.4,0.3,0.6,1.3,0.9L307.6,697.2L307.6,697.2z M317.6,704.7c0,1-0.7,1.6-1.6,1.6h-2.4
		c-0.3,0-0.6-0.3-0.6-0.7v-19.7c0-1.2,0.6-1.6,1.7-1.6h2.1c0.4,0,0.7,0.3,0.7,0.7V704.7L317.6,704.7z M334.6,711.6
		c-0.1,0.2-0.3,0.6-0.9,0.6h-2.8c-0.3,0-0.6-0.2-0.6-0.6c0-0.3,0.1-0.4,0.1-0.6l3.1-6.3l-6.9-10.3l-3.5,3.8l4.5,6.8
		c0.3,0.4,0.3,0.5,0.3,0.7c0,0.3-0.3,0.6-0.7,0.6h-3.1c-0.4,0-0.7-0.3-1-0.7l-5.3-7.6l5.8-6.3c0.4-0.5,0.8-0.7,1.5-0.7h3.4
		c0.7,0,1.1,0.3,1.5,0.8l5.5,8.7l3.9-8.9c0.2-0.5,0.4-0.7,1-0.7h2.8c0.3,0,0.6,0.3,0.6,0.6c0,0.2-0.1,0.4-0.2,0.6L334.6,711.6"/>
	<path id="path8245" inkscape:connector-curvature="0" class="st0" d="M353.9,706.8c-2.9,0-4.8-0.9-6.4-2.3
		c-0.4-0.4-0.7-0.8-0.7-1.2c0-0.6,0.4-0.8,0.9-0.8c0.3,0,0.5,0.2,0.7,0.3c1.4,1.4,2.9,2.3,5.5,2.3c3.1,0,5.4-1.8,5.4-4.7
		c0-2.9-2-4.8-5.7-4.8h-1.9c-0.5,0-0.9-0.4-0.9-0.8c0-0.5,0.4-0.9,0.9-0.9h1.8c3,0,4.9-1.9,4.9-4.3s-1.7-3.8-4.4-3.8
		c-1.6,0-2.8,0.4-4,1.2c-0.3,0.2-0.5,0.3-0.8,0.3c-0.5,0-0.8-0.4-0.8-0.8c0-0.5,0.3-0.8,0.7-1c1.5-1,3.3-1.4,5-1.4
		c3.9,0,6.3,2,6.3,5.3c0,2.2-1.3,4.1-3.6,5.1c2.5,0.6,4.6,2.6,4.6,5.7C361.2,703.9,358.6,706.8,353.9,706.8"/>
	<path id="path8249" inkscape:connector-curvature="0" class="st0" d="M371.6,706.4h-4.8c-0.6,0-1-0.4-1-1v-19.9c0-0.5,0.4-1,0.9-1
		h4.8c6.3,0,9.6,4.7,9.6,10.9C381.2,701.7,377.9,706.4,371.6,706.4L371.6,706.4z M371.4,686.3h-3.8v18.4h3.8c5.5,0,7.8-4.3,7.8-9.2
		C379.3,690.6,376.9,686.3,371.4,686.3"/>
</g>
</svg>
