<?xml version="1.0" encoding="utf-8"?>
<!-- Generator: Adobe Illustrator 15.0.0, SVG Export Plug-In . SVG Version: 6.00 Build 0)  -->
<!DOCTYPE svg PUBLIC "-//W3C//DTD SVG 1.1//EN" "http://www.w3.org/Graphics/SVG/1.1/DTD/svg11.dtd">
<svg version="1.1" id="Layer_1" xmlns="http://www.w3.org/2000/svg" xmlns:xlink="http://www.w3.org/1999/xlink" x="0px" y="0px"
	 width="63.3px" height="50px" viewBox="0 0 63.3 50" style="enable-background:new 0 0 63.3 50;" xml:space="preserve">
<style type="text/css">
<![CDATA[
	.st0{fill:#FFFFFF;}
	.st1{fill-rule:evenodd;clip-rule:evenodd;fill:#FFF200;}
	.st2{fill-rule:evenodd;clip-rule:evenodd;fill:#FFFFFF;}
]]>
</style>
<g>
	<path class="st0" d="M31.7,38.1V50L0,30.9V19 M31.7,38.1L0,19"/>
	<path class="st0" d="M63.3,19v11.9L31.6,50V38.1 M63.3,19L31.6,38.1"/>
	<path class="st1" d="M31.4,0c31.9,19,0,0,31.9,19c-31.7,19.1,0,0-31.7,19.1C0,19,31.7,38.1,0,19C31.4,0,0,19,31.4,0z M49.1,23.1
		c1.6-0.8,3.3-1.8,3.5-3.7c0.1-1.5-0.9-2.6-1.7-3.4c-1.2-1.1-2.9-1.9-4.5-2.9c-3-1.8-6.4-3.7-9.4-5.5c-1.5-0.8-3.1-2.3-4.7-2.7
		c-2.4-0.7-4,0.9-5.5,1.8c-5.5,3.3-10.9,6.5-16.4,9.8C9.4,17.1,8,17.8,8,18.7c0.1,1,2.4,1.9,3.5,2.6c3.9,2.3,7.8,4.6,11.5,6.9
		c2.6,1.6,5,3.2,8.6,3.6c3.8,0.4,7.7-0.7,9.4-2.6c1.1-1.3,1.1-3.9,0.2-5C44,24.7,46.8,24.2,49.1,23.1z"/>
	<path class="st2" d="M26.7,6.7c-5.5,3.3-10.9,6.5-16.4,9.8C9.4,17.1,8,17.8,8,18.7c0.1,1,2.4,1.9,3.5,2.6c3.9,2.3,7.8,4.6,11.5,6.9
		c2.6,1.6,5,3.2,8.6,3.6c3.8,0.4,7.7-0.7,9.4-2.6c1.1-1.3,1.1-3.9,0.2-5c2.9,0.7,5.6,0.3,7.9-0.9c1.6-0.8,3.3-1.8,3.5-3.7
		c0.1-1.5-0.9-2.6-1.7-3.4c-1.2-1.1-2.9-1.9-4.5-2.9c-3-1.8-6.4-3.7-9.4-5.5c-1.5-0.8-3.1-2.3-4.7-2.7C29.8,4.2,28.2,5.8,26.7,6.7z"
		/>
	<path class="st1" d="M34.7,14c0.6-0.1,4.3,1.9,4.3,2.8c0,1.1-2.1,1.6-3.3,1.2c-0.6-0.2-1.2-0.5-2-1c-0.5-0.3-1.9-1.2-1.4-1.7
		C32.7,15.1,34.1,14,34.7,14z"/>
	<path class="st1" d="M25.8,18.9c0.9-0.2,2,0.7,2.8,1.2c0.9,0.5,2,1,2,1.9c0,1.4-2.5,1.6-3.6,1.2c-0.4-0.1-1.5-0.8-2-1.1
		c-0.4-0.2-2.1-1.2-1.5-1.7C23.8,20,25.5,19,25.8,18.9z"/>
	<path class="st1" d="M6.6,28.8C7.2,29.4,8.3,32,7,32.6c-1,0.5-2-0.4-2.8-0.9c-1.3-0.8-3-1.4-3.2-3.4c-0.2-1.8,0-4.5,0.2-6.3
		c1.3-0.3,2.8,0.8,4.2,1.8c1.3,0.9,2.1,2.1,2.2,3.2C7.7,28.1,7.5,29.1,6.6,28.8z M3.6,26.2c0.3,0.2,0.6,0.5,1.1,0.6
		c0.5-0.9-0.4-1.5-1.1-1.7C3.6,25.4,3.6,25.8,3.6,26.2z M3.6,29.3c0.4,0.1,0.5,0.3,1.2,0.5c0.3-1-0.6-1.4-1.2-1.7
		C3.6,28.4,3.6,28.8,3.6,29.3z"/>
	<path class="st1" d="M61.7,22.1c0.2,0.1,0.2,0.4,0.2,0.6c0.1,1.2-1,1.5-1.9,2.1c-1.1,0.8-1.5,2.2-0.7,3.5c0.7-0.1,1-0.6,1.2-1.2
		c-0.1-0.2-0.5,0.4-0.7,0.1c-0.4-1.7,1.1-2.3,2.3-2.7c0.3,3.2-0.8,6.4-3.1,7.1c-1.5,0.4-2.3-1.1-2.4-2.6c-0.2-2.1,0.8-4.8,2.1-6
		C59.4,22.5,60.9,21.6,61.7,22.1z"/>
	<path class="st1" d="M53.2,32.1c0.2,1.4-0.2,4.2-1.5,4c-0.8-0.1-0.6-2-0.6-3.2c0-2-0.3-5.7,1.3-5.7c0.8,0,1,1.4,1.8,1.9
		c0-1.9-0.1-3.4,1.2-3.8c0.4-0.1,0.7,0.5,0.7,0.9c0.2,1.3,0.2,4,0,6c-0.1,0.9-0.7,2.1-1.2,2.1C54.2,34.1,54,32.5,53.2,32.1z"/>
	<path class="st1" d="M9.4,27c3-0.7,6,4.2,5.6,7.7c-0.3,2.9-2.8,2.6-4.5,1C9,34.4,8,32.5,7.9,30.5C7.7,28.9,8.1,27.3,9.4,27z
		 M10.7,30.6c-1,0.7,0.1,3.1,1.2,2.8C13,33,11.9,29.8,10.7,30.6z"/>
	<path class="st1" d="M48.8,36.5c-0.8,0.4-1.4,0.9-2.1,1.2c-0.3,1.3-0.6,2.8-1.8,2.4c-1.3-0.4,0.2-4,0.5-4.8
		c0.2-0.7,0.5-1.6,0.7-2.5c0.3-1.1,0.8-3.1,2-3.1c0.8,0,1.1,1.5,1.6,2.3c0.5,0.9,1.4,1.9,1.4,3C51,36.5,49.2,38.6,48.8,36.5z
		 M47.3,35.6c0.3-0.3,0.9-0.4,1.2-0.7c-0.3-0.5-0.3-1.3-0.7-1.7C47.7,34,47.2,34.9,47.3,35.6z"/>
	<path class="st1" d="M43.2,36.9c0.2,0.2,0.5,0.2,0.7,0.6c0.3,2.1,0,4.2-2,4.3c-0.5-0.7-0.1-2-0.3-3c-0.5,0.2-0.5,0.3-0.8,0.4
		c-0.1,0.7,0.1,1.4,0,2.1c-0.1,1.1-1,2.6-2,2.4c-0.9-0.2-0.7-5.3-0.6-6.6c0.2-1.8,3-3.5,4.4-4C44.7,32.2,44.4,36,43.2,36.9z
		 M40.5,36.3c0,0.5,0,0.9,0,1.4c0.7-0.3,1.8-1,1.2-2.1C41.1,35.9,41,36,40.5,36.3z"/>
	<path class="st1" d="M26.8,39.2c1-0.8,2-2.1,3.2-0.7c0.2,0.2,0.7,1.2,0.7,1.8c0.2,2,0.3,6.8-0.7,7c-1.7,0.3-2-2.6-1.8-4.4
		c-0.5,0.2-0.7,0.7-1.3,0.7c-0.9-0.1-1.1-1.9-1.8-2.5c0.4,2.4-1.1,3.7-2.1,1.7c-0.4-0.8-0.5-5.8-0.2-7.3c0.4-2.2,2.5,0.5,2.9,1.2
		C25.9,37.4,26.3,38.3,26.8,39.2z"/>
	<path class="st1" d="M37.3,36.4c0.8,0.6,0.4,2-0.2,2.6c-0.7,0.7-2.2,0.7-2.1,1.9c0.7-0.1,1.3-0.9,2.2-1.1c0.4,0.5,0.2,1.3,0,1.6
		c-0.5,0.8-2.3,0.8-2.2,2.1c0.7-0.1,1.3-1.1,2.5-1.1c1,1.9-0.8,2.9-2.2,3.7c-0.6,0.3-1.7,1.1-2.2,1c-0.8-0.3-0.6-1.8-0.6-3.1
		c0-2-0.2-4,0.6-5C33.5,38.3,36.5,36.7,37.3,36.4z"/>
	<path class="st1" d="M16.7,31.3c3-0.7,6,4.2,5.6,7.7c-0.3,2.9-2.8,2.6-4.5,1c-1.4-1.3-2.4-3.2-2.6-5.2C15,33.1,15.4,31.6,16.7,31.3
		z M18,34.8c-1,0.7,0.1,3.1,1.2,2.8C20.4,37.2,19.2,34,18,34.8z"/>
</g>
</svg>
