<?xml version="1.0" encoding="utf-8"?>
<!-- Generator: Adobe Illustrator 15.0.2, SVG Export Plug-In . SVG Version: 6.00 Build 0)  -->
<!DOCTYPE svg PUBLIC "-//W3C//DTD SVG 1.1//EN" "http://www.w3.org/Graphics/SVG/1.1/DTD/svg11.dtd">
<svg version="1.1" id="Layer_3" xmlns="http://www.w3.org/2000/svg" xmlns:xlink="http://www.w3.org/1999/xlink" x="0px" y="0px"
	 width="354px" height="500px" viewBox="0 0 354 500" enable-background="new 0 0 354 500" xml:space="preserve">
<linearGradient id="SVGID_1_" gradientUnits="userSpaceOnUse" x1="4.5928" y1="350.3354" x2="345.9204" y2="9.0078">
	<stop  offset="0" style="stop-color:#262962"/>
	<stop  offset="0.1191" style="stop-color:#242E68"/>
	<stop  offset="0.2845" style="stop-color:#203A7A"/>
	<stop  offset="0.4761" style="stop-color:#184F98"/>
	<stop  offset="0.5065" style="stop-color:#17539D"/>
	<stop  offset="0.9943" style="stop-color:#94CDEB"/>
</linearGradient>
<polygon fill-rule="evenodd" clip-rule="evenodd" fill="url(#SVGID_1_)" points="7.256,6.167 7.256,347.667 124.333,347.667 
	124.333,294.667 231.667,294.667 231.667,348.109 348.325,348.109 348.412,6.167 231.667,58.167 231.667,193.667 124.333,193.667 
	124.333,57.167 "/>
<rect x="7.047" y="359.305" fill="#949599" width="341.26" height="66.082"/>
<g>
	<path fill="#FFFFFF" d="M12.744,290.631h14.538v19.638h18.661v-19.638h14.539v52.46H45.943v-19.935H27.282v19.935H12.744V290.631z"
		/>
	<path fill="#FFFFFF" d="M65.806,290.631h20.309c18.66,0,29.528,10.794,29.528,25.93v0.151c0,15.14-11.018,26.379-29.828,26.379
		h-20.01V290.631z M80.345,303.447v26.757h5.918c8.769,0,14.542-4.796,14.542-13.266v-0.153c0-8.39-5.773-13.338-14.542-13.338
		H80.345z"/>
</g>
<g>
	<path fill="#FFFFFF" d="M91.719,372.3c-0.268,0.709-9.617,25.68-9.617,25.68s-9.376-24.971-9.638-25.68c-0.685,0-10.189,0-11.621,0
		c0.631,1.489,16.948,39.433,17.225,40.081c0.652,0,7.321,0,7.973,0c0.274-0.648,16.591-38.592,17.227-40.081
		C101.83,372.3,92.399,372.3,91.719,372.3z"/>
	<path fill="#FFFFFF" d="M110.516,372.3c0,1.078,0,38.858,0,39.927c0.974,0,10.235,0,11.204,0c0-1.068,0-38.849,0-39.927
		C120.751,372.3,111.49,372.3,110.516,372.3z"/>
	<path fill="#FFFFFF" d="M146.016,372.306c-0.286,0.65-16.603,38.591-17.234,40.075c1.437,0,10.949,0,11.621,0
		c0.227-0.609,1.682-4.495,1.682-4.495h15.89c0,0,1.457,3.886,1.69,4.495c0.675,0,10.112,0,11.546,0
		c-0.645-1.484-16.95-39.425-17.232-40.075C153.322,372.306,146.666,372.306,146.016,372.306z M150.031,386.708l5.147,13.738
		h-10.295L150.031,386.708z"/>
	<path fill="#FFFFFF" d="M232.454,372.306c-0.276,0.65-16.588,38.591-17.227,40.075c1.426,0,10.943,0,11.621,0
		c0.227-0.609,1.688-4.495,1.688-4.495h15.889c0,0,1.45,3.886,1.683,4.495c0.677,0,10.114,0,11.542,0
		c-0.639-1.484-16.942-39.425-17.221-40.075C239.775,372.306,233.102,372.306,232.454,372.306z M236.47,386.708l5.159,13.738
		h-10.296L236.47,386.708z"/>
	<path fill="#FFFFFF" d="M190.331,371.945c-10.111,0-15.028,3.362-15.028,10.275v4.759c0,3.654,1.47,6.388,4.134,7.676
		c2.014,1.044,4.341,1.346,10.351,1.346h7.875c2.514,0,3.53,0.978,3.53,3.368v0.551c0,2.419-1.051,3.447-3.53,3.447h-8.58
		c-1.277,0-2.15-0.269-2.717-0.858c-0.434-0.448-0.653-1.097-0.714-1.922c-0.974,0.044-9.183,0.385-10.25,0.419
		c1.239,8.266,5.345,11.37,14.929,11.37h6.244c10.112,0,15.026-3.389,15.026-10.352v-4.751c0-3.656-1.463-6.386-4.127-7.684
		c-2.022-1.045-4.337-1.339-10.359-1.339h-7.876c-2.504,0-3.527-0.98-3.527-3.377v-0.543c0-2.423,1.059-3.454,3.527-3.454h8.584
		c1.283,0,2.149,0.273,2.715,0.867c0.435,0.452,0.659,1.085,0.711,1.891c1.018-0.082,9.158-0.748,10.238-0.836
		c-1.587-7.983-5.552-10.854-14.912-10.854H190.331z"/>
	<path fill="#FFFFFF" d="M254.548,372.3c0,0.953,0,8.642,0,9.584c1.026,0,14.361,0,14.361,0v15.506c0-0.009,0,0.059,0,0.059v0.073
		c0,0,0,13.668,0,14.705c0.974,0,10.231,0,11.207,0c0-1.078,0-30.343,0-30.343s13.336,0,14.378,0c0-0.942,0-8.631,0-9.584
		C293.418,372.3,255.615,372.3,254.548,372.3z"/>
</g>
<g>
	<path fill="#17539D" d="M6.552,438.659h12.094v21.754h22.303v-21.754h12.095v54.973H40.949v-22.067H18.646v22.067H6.552V438.659z"
		/>
	<path fill="#17539D" d="M64.664,438.659h12.094v54.973H64.664V438.659z"/>
	<path fill="#17539D" d="M84.61,485.622l7.146-8.561c4.948,4.084,10.131,6.676,16.413,6.676c4.948,0,7.932-1.963,7.932-5.184v-0.157
		c0-3.063-1.885-4.633-11.073-6.989c-11.073-2.827-18.22-5.89-18.22-16.806v-0.157c0-9.974,8.011-16.57,19.241-16.57
		c8.01,0,14.842,2.514,20.418,6.989l-6.282,9.109c-4.87-3.376-9.66-5.418-14.293-5.418c-4.633,0-7.068,2.12-7.068,4.79v0.157
		c0,3.612,2.356,4.79,11.858,7.225c11.152,2.906,17.435,6.911,17.435,16.492v0.157c0,10.917-8.325,17.042-20.183,17.042
		C99.61,494.417,91.207,491.511,84.61,485.622z"/>
	<path fill="#17539D" d="M148.142,449.811h-16.727v-11.152h45.548v11.152h-16.727v43.82h-12.094V449.811z"/>
	<path fill="#17539D" d="M179.317,466.302v-0.156c0-15.628,12.33-28.43,29.293-28.43c16.964,0,29.136,12.644,29.136,28.271v0.158
		c0,15.628-12.33,28.429-29.293,28.429S179.317,481.931,179.317,466.302z M225.101,466.302v-0.156
		c0-9.425-6.909-17.278-16.648-17.278c-9.738,0-16.492,7.696-16.492,17.12v0.158c0,9.424,6.911,17.276,16.649,17.276
		S225.101,475.727,225.101,466.302z"/>
	<path fill="#17539D" d="M246.381,438.659h25.131c6.988,0,12.408,1.963,16.021,5.576c3.063,3.063,4.711,7.382,4.711,12.565v0.156
		c0,8.874-4.79,14.45-11.779,17.042l13.43,19.633h-14.137l-11.779-17.591h-9.503v17.591h-12.094V438.659z M270.727,465.36
		c5.889,0,9.267-3.142,9.267-7.775v-0.156c0-5.184-3.612-7.854-9.503-7.854h-12.016v15.785H270.727z"/>
	<path fill="#17539D" d="M314.545,471.958l-21.126-33.299h14.137l13.115,22.067l13.351-22.067h13.743l-21.125,33.063v21.91h-12.095
		V471.958z"/>
</g>
</svg>
