<?xml version="1.0" encoding="utf-8"?>
<!-- Generator: Adobe Illustrator 15.0.2, SVG Export Plug-In . SVG Version: 6.00 Build 0)  -->
<!DOCTYPE svg PUBLIC "-//W3C//DTD SVG 1.1//EN" "http://www.w3.org/Graphics/SVG/1.1/DTD/svg11.dtd">
<svg version="1.1" id="Layer_3" xmlns="http://www.w3.org/2000/svg" xmlns:xlink="http://www.w3.org/1999/xlink" x="0px" y="0px"
	 width="354px" height="500px" viewBox="0 0 354 500" enable-background="new 0 0 354 500" xml:space="preserve">
<linearGradient id="SVGID_1_" gradientUnits="userSpaceOnUse" x1="2.5879" y1="334.5571" x2="349.8975" y2="22.4995">
	<stop  offset="0.0806" style="stop-color:#52602B"/>
	<stop  offset="1" style="stop-color:#B9C932"/>
</linearGradient>
<polygon fill-rule="evenodd" clip-rule="evenodd" fill="url(#SVGID_1_)" points="7.256,6.167 7.256,347.667 119.827,347.667 
	119.827,192.667 246.144,348.109 348.325,348.109 348.325,6.167 235.267,6.167 235.267,122.167 262.167,189.667 113.167,6.167 "/>
<rect x="7.047" y="359.305" fill="#949599" width="341.26" height="66.082"/>
<g>
	<path fill="#FFFFFF" d="M12.744,290.631h14.538v19.638h18.661v-19.638h14.539v52.46H45.943v-19.935H27.282v19.935H12.744V290.631z"
		/>
	<path fill="#FFFFFF" d="M65.806,290.631h20.309c18.66,0,29.528,10.794,29.528,25.93v0.151c0,15.14-11.018,26.379-29.828,26.379
		h-20.01V290.631z M80.345,303.447v26.757h5.918c8.769,0,14.542-4.796,14.542-13.266v-0.153c0-8.39-5.773-13.338-14.542-13.338
		H80.345z"/>
</g>
<g>
	<path fill="#52602B" d="M6.953,438.481h11.189l25.845,33.961v-33.961h11.977v55.157H45.642L18.93,458.574v35.064H6.953V438.481z"/>
	<path fill="#52602B" d="M90.954,438.086h11.189l23.639,55.552h-12.686l-5.043-12.371H84.729l-5.043,12.371H67.314L90.954,438.086z
		 M103.718,470.551l-7.328-17.887l-7.328,17.887H103.718z"/>
	<path fill="#52602B" d="M142.884,449.669H126.1v-11.188h45.702v11.188h-16.784v43.969h-12.134V449.669z"/>
	<path fill="#52602B" d="M183.073,470v-31.519h12.135v31.203c0,8.982,4.491,13.632,11.898,13.632
		c7.406,0,11.898-4.491,11.898-13.238v-31.597h12.135v31.124c0,16.705-9.377,24.9-24.191,24.9
		C192.134,494.505,183.073,486.231,183.073,470z"/>
	<path fill="#52602B" d="M246.35,438.481h25.215c7.013,0,12.449,1.97,16.074,5.595c3.073,3.072,4.728,7.406,4.728,12.607v0.157
		c0,8.904-4.807,14.498-11.819,17.099l13.475,19.699h-14.184l-11.819-17.65h-9.534v17.65H246.35V438.481z M270.777,465.272
		c5.909,0,9.298-3.152,9.298-7.802v-0.157c0-5.2-3.625-7.88-9.534-7.88h-12.056v15.839H270.777z"/>
	<path fill="#52602B" d="M306.161,438.481h41.604v10.795h-29.549v11.189h26.003v10.795h-26.003v11.583h29.942v10.795h-41.998
		V438.481z"/>
</g>
<g>
	<path fill="#FFFFFF" d="M91.719,372.3c-0.268,0.709-9.617,25.68-9.617,25.68s-9.376-24.971-9.638-25.68c-0.685,0-10.189,0-11.621,0
		c0.631,1.489,16.948,39.433,17.225,40.081c0.652,0,7.321,0,7.973,0c0.274-0.648,16.591-38.592,17.227-40.081
		C101.83,372.3,92.399,372.3,91.719,372.3z"/>
	<path fill="#FFFFFF" d="M110.516,372.3c0,1.078,0,38.858,0,39.927c0.974,0,10.235,0,11.204,0c0-1.068,0-38.849,0-39.927
		C120.751,372.3,111.49,372.3,110.516,372.3z"/>
	<path fill="#FFFFFF" d="M146.016,372.306c-0.286,0.65-16.603,38.591-17.234,40.075c1.437,0,10.949,0,11.621,0
		c0.227-0.609,1.682-4.495,1.682-4.495h15.89c0,0,1.457,3.886,1.69,4.495c0.675,0,10.112,0,11.546,0
		c-0.645-1.484-16.95-39.425-17.232-40.075C153.322,372.306,146.666,372.306,146.016,372.306z M150.031,386.708l5.147,13.738
		h-10.295L150.031,386.708z"/>
	<path fill="#FFFFFF" d="M232.454,372.306c-0.276,0.65-16.588,38.591-17.227,40.075c1.426,0,10.943,0,11.621,0
		c0.227-0.609,1.688-4.495,1.688-4.495h15.889c0,0,1.45,3.886,1.683,4.495c0.677,0,10.114,0,11.542,0
		c-0.639-1.484-16.942-39.425-17.221-40.075C239.775,372.306,233.102,372.306,232.454,372.306z M236.47,386.708l5.159,13.738
		h-10.296L236.47,386.708z"/>
	<path fill="#FFFFFF" d="M190.331,371.945c-10.111,0-15.028,3.362-15.028,10.275v4.759c0,3.654,1.47,6.388,4.134,7.676
		c2.014,1.044,4.341,1.346,10.351,1.346h7.875c2.514,0,3.53,0.978,3.53,3.368v0.551c0,2.419-1.051,3.447-3.53,3.447h-8.58
		c-1.277,0-2.15-0.269-2.717-0.858c-0.434-0.448-0.653-1.097-0.714-1.922c-0.974,0.044-9.183,0.385-10.25,0.419
		c1.239,8.266,5.345,11.37,14.929,11.37h6.244c10.112,0,15.026-3.389,15.026-10.352v-4.751c0-3.656-1.463-6.386-4.127-7.684
		c-2.022-1.045-4.337-1.339-10.359-1.339h-7.876c-2.504,0-3.527-0.98-3.527-3.377v-0.543c0-2.423,1.059-3.454,3.527-3.454h8.584
		c1.283,0,2.149,0.273,2.715,0.867c0.435,0.452,0.659,1.085,0.711,1.891c1.018-0.082,9.158-0.748,10.238-0.836
		c-1.587-7.983-5.552-10.854-14.912-10.854H190.331z"/>
	<path fill="#FFFFFF" d="M254.548,372.3c0,0.953,0,8.642,0,9.584c1.026,0,14.361,0,14.361,0v15.506c0-0.009,0,0.059,0,0.059v0.073
		c0,0,0,13.668,0,14.705c0.974,0,10.231,0,11.207,0c0-1.078,0-30.343,0-30.343s13.336,0,14.378,0c0-0.942,0-8.631,0-9.584
		C293.418,372.3,255.615,372.3,254.548,372.3z"/>
</g>
</svg>
