<?xml version="1.0" encoding="utf-8"?>
<!-- Generator: Adobe Illustrator 15.0.0, SVG Export Plug-In . SVG Version: 6.00 Build 0)  -->
<!DOCTYPE svg PUBLIC "-//W3C//DTD SVG 1.1//EN" "http://www.w3.org/Graphics/SVG/1.1/DTD/svg11.dtd">
<svg version="1.1"
	 id="svg2985" inkscape:version="0.48.1 " sodipodi:docname="Jednotka.svg" xmlns:dc="http://purl.org/dc/elements/1.1/" xmlns:cc="http://creativecommons.org/ns#" xmlns:rdf="http://www.w3.org/1999/02/22-rdf-syntax-ns#" xmlns:svg="http://www.w3.org/2000/svg" xmlns:sodipodi="http://sodipodi.sourceforge.net/DTD/sodipodi-0.dtd" xmlns:inkscape="http://www.inkscape.org/namespaces/inkscape"
	 xmlns="http://www.w3.org/2000/svg" xmlns:xlink="http://www.w3.org/1999/xlink" x="0px" y="0px" width="29.7px" height="28px"
	 viewBox="35.2 33.2 29.7 28" style="enable-background:new 35.2 33.2 29.7 28;" xml:space="preserve">
<style type="text/css">
<![CDATA[
	.st0{fill:#231F20;}
	.st1{fill:#FFFFFF;}
]]>
</style>
<g id="g2993" transform="matrix(1.25,0,0,-1.25,290.58412,261.55004)" inkscape:groupmode="layer" inkscape:label="jednotka_whiteOnPurple">
	<g id="g3906" transform="matrix(0.25028046,0,0,0.25028046,-299.69858,97.204187)" inkscape:label="dvojka_whiteOnBlack">
		<path id="path3908" inkscape:connector-curvature="0" class="st0" d="M475.9,252.1H381v89.5h94.9V252.1z"/>
		<g id="g3910">
			<g>
				<g id="g3912">
					<g id="g3918" transform="translate(509.1689,248.8428)">
						<path id="path3920" inkscape:connector-curvature="0" class="st1" d="M-56.5,33.6l-21.6,0c0,2.4,6.9,5.5,12.7,8.9
							c2.5,1.5,12.4,6,12.4,16.5c0,9.7-9.1,17.1-19.4,17.1c-9.8,0-18.3-7-18.3-7s0.1-0.3,2.5-6.3c0.9-2.3,3.2-3.4,5.5-2.2
							c3.2,1.6,7.1,3.7,10.3,3.7c4.2,0,7.2-2.8,7.2-5.9c0-4-4.2-5.8-11.3-9.7c-6.9-3.8-14.9-9.8-14.9-20.2V26c0-2.1,1.7-3.8,3.8-3.8
							h34.2v8.3C-53.4,32.2-54.8,33.6-56.5,33.6"/>
					</g>
					<g id="g3922" transform="translate(346.8916,355.4326)">
						<path id="path3924" inkscape:connector-curvature="0" class="st1" d="M57.1-41c-4,0-7.2-3.2-7.2-7.2c0-4,3.2-7.2,7.2-7.2
							c4,0,7.2,3.3,7.2,7.2C64.3-44.3,61.1-41,57.1-41"/>
					</g>
					<g id="g3926" transform="translate(346.8916,282.3311)">
						<path id="path3928" inkscape:connector-curvature="0" class="st1" d="M57.1,10.1c-4,0-7.2-3.2-7.2-7.2c0-4,3.2-7.2,7.2-7.2
							c4,0,7.2,3.2,7.2,7.2C64.3,6.9,61.1,10.1,57.1,10.1"/>
					</g>
				</g>
			</g>
		</g>
	</g>
</g>
</svg>
