<?xml version="1.0" encoding="utf-8"?>
<!-- Generator: Adobe Illustrator 15.0.0, SVG Export Plug-In . SVG Version: 6.00 Build 0)  -->
<!DOCTYPE svg PUBLIC "-//W3C//DTD SVG 1.1//EN" "http://www.w3.org/Graphics/SVG/1.1/DTD/svg11.dtd">
<svg version="1.1"
	 id="svg2" inkscape:version="0.48.2 r9819" sodipodi:docname="ÄŚT1.svg" xmlns:dc="http://purl.org/dc/elements/1.1/" xmlns:cc="http://creativecommons.org/ns#" xmlns:rdf="http://www.w3.org/1999/02/22-rdf-syntax-ns#" xmlns:svg="http://www.w3.org/2000/svg" xmlns:sodipodi="http://sodipodi.sourceforge.net/DTD/sodipodi-0.dtd" xmlns:inkscape="http://www.inkscape.org/namespaces/inkscape"
	 xmlns="http://www.w3.org/2000/svg" xmlns:xlink="http://www.w3.org/1999/xlink" x="0px" y="0px" width="67px" height="28px"
	 viewBox="20.6 8.7 67 28" style="enable-background:new 20.6 8.7 67 28;" xml:space="preserve">
<style type="text/css">
<![CDATA[
	.st0{fill:#FF9F00;}
]]>
</style>
<sodipodi:namedview  id="namedview4" inkscape:window-y="-16" inkscape:window-x="754" inkscape:window-height="1034" inkscape:window-width="1165" fit-margin-right="0.1" fit-margin-bottom="0.1" inkscape:current-layer="g10" inkscape:pageshadow="2" inkscape:pageopacity="0" inkscape:window-maximized="0" inkscape:cy="52.99217" inkscape:cx="177.33867" inkscape:zoom="1.7941495" fit-margin-top="0.1" borderopacity="1" fit-margin-left="0.1" bordercolor="#666666" showgrid="false" pagecolor="#ffffff" gridtolerance="10" objecttolerance="10" guidetolerance="10">
	</sodipodi:namedview>
<g id="g10" transform="matrix(1.25,0,0,-1.25,-7.4177208,338.97523)" inkscape:groupmode="layer" inkscape:label="manual">
	<g id="g92" transform="matrix(0.53055311,0,0,0.53055311,-9.0249879,78.597319)">
		<g>
			<g id="g94">
				<g id="g100" transform="translate(164.6518,313.6466)">
					<path id="path102" inkscape:connector-curvature="0" class="st0" d="M-20.8,5.8c1.3,4.4,16.5,6.9,16.5,18
						c0,7.3-6.5,10.4-13.8,10.4c-5,0-9.5-1.6-13.3-4.1l2.6-6.6c3,1.7,6.2,2.9,9.2,2.9c2.9,0,5.3-1.1,5.3-3.4
						c0-7.4-16.8-7.2-16.8-21.3c0-0.9,0.1-1.9,0.2-3h26.5v7.1H-20.8z"/>
				</g>
				<g id="g104" transform="translate(53.7052,361.9463)">
					<path id="path106" inkscape:connector-curvature="0" class="st0" d="M21.3-12.6c4.2,0.3,8.7,0.5,12.3,0.6v-5.4
						c-1.7-0.1-3.7-0.2-5.5-0.4c-6.4-0.7-7.6-2.1-8.4-8.2c-0.3-2.6-0.4-5.3-0.4-7.1c0-1.8,0.1-4.6,0.4-7.1c0.8-6.1,2-7.5,8.4-8.2
						c1.8-0.2,3.8-0.3,5.5-0.4v-5.4c-3.7,0.1-8.2,0.2-12.3,0.6c-11.5,0.9-13.6,2.8-15,11c-0.6,3.4-0.7,7.1-0.7,9.6
						c0,2.5,0.2,6.1,0.7,9.6C7.7-15.3,9.8-13.5,21.3-12.6"/>
				</g>
				<g id="g108" transform="translate(128.9098,328.8202)">
					<path id="path110" inkscape:connector-curvature="0" class="st0" d="M-7.3,0c0-2.5-0.2-6.1-0.7-9.6c-1.4-8.2-3.5-10.1-15-11
						c-4.2-0.3-8.7-0.5-12.3-0.6v5.4c1.7,0.1,3.7,0.2,5.5,0.4c6.4,0.7,7.6,2.1,8.4,8.2c0.3,2.6,0.4,5.3,0.4,7.1
						c0,1.8-0.1,4.6-0.4,7.1c-0.8,6.1-2,7.5-8.4,8.2c-1.8,0.2-3.7,0.3-5.5,0.4v5.4c3.7-0.1,8.2-0.2,12.3-0.6
						c11.5-0.9,13.6-2.8,15-11C-7.4,6.1-7.3,2.5-7.3,0"/>
				</g>
			</g>
		</g>
	</g>
</g>
</svg>
