<?xml version="1.0" encoding="utf-8"?>
<!-- Generator: Adobe Illustrator 15.0.0, SVG Export Plug-In . SVG Version: 6.00 Build 0)  -->
<!DOCTYPE svg PUBLIC "-//W3C//DTD SVG 1.1//EN" "http://www.w3.org/Graphics/SVG/1.1/DTD/svg11.dtd">
<svg version="1.1"
	 id="svg2" inkscape:version="0.48.2 r9819" sodipodi:docname="AJAX1.svg" xmlns:dc="http://purl.org/dc/elements/1.1/" xmlns:cc="http://creativecommons.org/ns#" xmlns:rdf="http://www.w3.org/1999/02/22-rdf-syntax-ns#" xmlns:svg="http://www.w3.org/2000/svg" xmlns:sodipodi="http://sodipodi.sourceforge.net/DTD/sodipodi-0.dtd" xmlns:inkscape="http://www.inkscape.org/namespaces/inkscape"
	 xmlns="http://www.w3.org/2000/svg" xmlns:xlink="http://www.w3.org/1999/xlink" x="0px" y="0px" width="23.6px" height="28px"
	 viewBox="69.7 82.5 23.6 28" style="enable-background:new 69.7 82.5 23.6 28;" xml:space="preserve">
<style type="text/css">
<![CDATA[
	.st0{fill:#9C1F23;}
]]>
</style>
<sodipodi:namedview  id="namedview6" inkscape:current-layer="svg2" inkscape:window-y="-8" inkscape:window-x="-8" fit-margin-bottom="0" fit-margin-right="0" inkscape:window-height="1004" inkscape:window-width="1280" inkscape:pageshadow="2" inkscape:pageopacity="0" inkscape:window-maximized="1" inkscape:cy="96.484308" inkscape:cx="0.28872283" bordercolor="#666666" inkscape:zoom="0.94540784" pagecolor="#ffffff" guidetolerance="10" gridtolerance="10" fit-margin-left="0" objecttolerance="10" fit-margin-top="0" borderopacity="1" showgrid="false">
	</sodipodi:namedview>
<path id="polygon2391" inkscape:connector-curvature="0" sodipodi:nodetypes="cccccccccccccccccccccccccccccccccccccccccccccccccscccccccscccsccccccccscccscccccccscccscccccccccccccccccccccccccccscccccccccccccccscccscccccccccccccccccccccssscscc" class="st0" d="
	M81.5,82.5c-6.5,0-11.8,5.3-11.8,11.8c0,6.5,5.3,11.8,11.8,11.8c6.5,0,11.8-5.3,11.8-11.8S88,82.5,81.5,82.5z M81.5,84.3
	c2.8,0,5.3,1.1,7.1,2.9c1.8,1.8,2.9,4.3,2.9,7.1c0,2.8-1.1,5.3-2.9,7.1c-1.8,1.8-4.3,2.9-7.1,2.9c-2.8,0-5.3-1.1-7.1-2.9
	c-1.8-1.8-2.9-4.3-2.9-7.1c0-2.8,1.1-5.3,2.9-7.1C76.2,85.4,78.7,84.3,81.5,84.3z M73.1,91.8l0,1.4h1.8l0,4.6h1.5l0-4.6h1.8l0-1.4
	H73.1L73.1,91.8z M78.9,91.8v6h1.4l0-3.5l2.1,3.5H84v-6h-1.4l0.1,3.7l-2.2-3.7H78.9z M84.8,91.8l0,1.4h1.8l0,4.6H88l0-4.6h1.8l0-1.4
	H84.8L84.8,91.8z M76.3,107.2c-0.1,0-0.3,0-0.4,0.1c-0.1,0-0.3,0.1-0.4,0.2s-0.2,0.2-0.3,0.3c-0.1,0.1-0.1,0.3-0.1,0.4
	c0,0.1,0,0.3,0.1,0.4s0.1,0.2,0.2,0.3c0.1,0.1,0.2,0.1,0.3,0.2s0.2,0.1,0.3,0.1c0.1,0,0.2,0.1,0.3,0.1c0.1,0,0.2,0.1,0.3,0.1
	c0.1,0,0.2,0.1,0.2,0.1c0.1,0.1,0.1,0.1,0.1,0.2c0,0.1,0,0.1-0.1,0.2c0,0.1-0.1,0.1-0.2,0.1s-0.1,0-0.2,0.1c-0.1,0-0.1,0-0.2,0
	c-0.1,0-0.2,0-0.3,0c-0.1,0-0.2-0.1-0.2-0.1c-0.1,0-0.1-0.1-0.2-0.2c0-0.1-0.1-0.2-0.1-0.3H75c0,0.2,0,0.4,0.1,0.5
	c0.1,0.1,0.2,0.3,0.3,0.3s0.3,0.2,0.4,0.2c0.2,0,0.3,0.1,0.5,0.1c0.2,0,0.4,0,0.6-0.1c0.2,0,0.3-0.1,0.4-0.2
	c0.1-0.1,0.2-0.2,0.2-0.3s0.1-0.3,0.1-0.4c0-0.2,0-0.3-0.1-0.4c-0.1-0.1-0.2-0.2-0.3-0.3c-0.1-0.1-0.2-0.1-0.3-0.1s-0.2-0.1-0.2-0.1
	c-0.2-0.1-0.4-0.1-0.5-0.1s-0.2-0.1-0.3-0.1c-0.1,0-0.1-0.1-0.1-0.1c0,0,0-0.1,0-0.1c0-0.1,0-0.1,0-0.2c0,0,0.1-0.1,0.1-0.1
	c0,0,0.1-0.1,0.1-0.1s0.1,0,0.2,0c0.1,0,0.2,0,0.2,0c0.1,0,0.1,0,0.2,0.1s0.1,0.1,0.1,0.1c0,0.1,0.1,0.1,0.1,0.2h0.7
	c0-0.2,0-0.3-0.1-0.5c-0.1-0.1-0.2-0.2-0.3-0.3s-0.3-0.1-0.4-0.2C76.6,107.2,76.5,107.2,76.3,107.2L76.3,107.2z M78.1,107.3v3.2h2.4
	v-0.6h-1.7v-0.8h1.5v-0.5h-1.5v-0.7h1.7v-0.6H78.1z M81,107.3v3.2h0.7v-1.2h0.7c0.2,0,0.3,0,0.4,0.1c0.1,0.1,0.1,0.2,0.2,0.4
	c0,0.1,0,0.3,0,0.4s0,0.3,0.1,0.4h0.7c0,0-0.1-0.1-0.1-0.2c0-0.1,0-0.1,0-0.2c0-0.1,0-0.1,0-0.2c0-0.1,0-0.1,0-0.2
	c0-0.1,0-0.2,0-0.2c0-0.1,0-0.2-0.1-0.2c0-0.1-0.1-0.1-0.1-0.2c-0.1,0-0.1-0.1-0.2-0.1v0c0.2-0.1,0.3-0.2,0.4-0.3s0.1-0.3,0.1-0.5
	c0-0.1,0-0.2-0.1-0.3c0-0.1-0.1-0.2-0.2-0.3c-0.1-0.1-0.2-0.1-0.3-0.2c-0.1,0-0.2-0.1-0.4-0.1H81L81,107.3z M84.2,107.3v3.2h0.7
	v-3.2H84.2z M85.5,107.3v3.2h2.4v-0.6h-1.7v-0.8h1.5v-0.5h-1.5v-0.7h1.7v-0.6H85.5z M81.7,107.8h0.8c0.2,0,0.3,0,0.4,0.1
	c0.1,0.1,0.1,0.2,0.1,0.3c0,0.2,0,0.3-0.1,0.3c-0.1,0.1-0.2,0.1-0.4,0.1h-0.8V107.8z"/>
</svg>
