<?xml version="1.0" encoding="utf-8"?>
<!-- Generator: Adobe Illustrator 15.0.0, SVG Export Plug-In . SVG Version: 6.00 Build 0)  -->
<!DOCTYPE svg PUBLIC "-//W3C//DTD SVG 1.1//EN" "http://www.w3.org/Graphics/SVG/1.1/DTD/svg11.dtd">
<svg version="1.1" id="svg14620" xmlns:svg="http://www.w3.org/2000/svg"
	 xmlns="http://www.w3.org/2000/svg" xmlns:xlink="http://www.w3.org/1999/xlink" x="0px" y="0px" width="79.438px" height="28px"
	 viewBox="472.281 166.465 79.438 28" style="enable-background:new 472.281 166.465 79.438 28;" xml:space="preserve">
<style type="text/css">
<![CDATA[
	.st0{fill:#4F4C4C;}
	.st1{fill:#231F20;}
	.st2{fill:#FDD005;}
	.st3{fill:#FFFFFF;}
]]>
</style>
<g id="layer1" transform="translate(-328.73396,-510.46018)">
	<g id="g14614" transform="matrix(24.076131,0,0,24.076131,-8741.0636,-21861.856)">
		<path id="path2462" class="st2" d="M396.445,937.187h0.573v-0.921h-0.573V937.187z M397.135,937.304h-0.805v-1.154h0.805V937.304z
			"/>
		<path id="path2464" class="st1" d="M399.403,937.073h0.014c0.039,0,0.058,0.021,0.058,0.065c0,0.054-0.02,0.075-0.053,0.075
			h-0.018V937.073z M399.033,936.981h0.576v0.323h-0.576V936.981z M399.182,937.115v-0.087h-0.051v0.229h0.051v-0.098h0.066v0.098
			h0.051v-0.229h-0.051v0.087H399.182z M399.409,937.029h-0.058v0.229h0.073c0.068,0,0.103-0.05,0.103-0.114
			C399.527,937.078,399.496,937.029,399.409,937.029"/>
		<path id="path2466" class="st3" d="M399.182,937.115h0.066v-0.087h0.051v0.229h-0.051v-0.098h-0.066v0.098h-0.051v-0.229h0.051
			V937.115z M399.409,937.029c0.087,0,0.118,0.049,0.118,0.114c0,0.064-0.034,0.114-0.103,0.114h-0.073v-0.229H399.409
			L399.409,937.029z M399.403,937.073v0.14h0.018c0.033,0,0.053-0.021,0.053-0.075c0-0.044-0.019-0.065-0.058-0.065H399.403"/>
		<path id="path2468" class="st0" d="M398.768,937.027h-0.091v0.088h0.09v0.043h-0.09v0.103h0.108v0.043h-0.163v-0.32h0.146V937.027
			L398.768,937.027z M398.578,937.304h-0.04c-0.052-0.073-0.104-0.147-0.156-0.229l0,0.229h-0.044v-0.32h0.04
			c0.052,0.073,0.104,0.146,0.155,0.228l0.001-0.228h0.044V937.304L398.578,937.304z M398.287,937.304h-0.04
			c-0.052-0.073-0.104-0.147-0.156-0.229l0,0.229h-0.044v-0.32h0.04c0.052,0.073,0.104,0.146,0.155,0.228l0.001-0.228h0.044V937.304
			L398.287,937.304z M397.88,936.984h0.046l0.102,0.32h-0.061l-0.025-0.087h-0.096l-0.028,0.087h-0.048L397.88,936.984z
			 M397.859,937.177h0.074c-0.012-0.042-0.023-0.081-0.036-0.13C397.885,937.096,397.872,937.135,397.859,937.177z M397.75,937.304
			h-0.055v-0.154h-0.114v0.154h-0.054v-0.32h0.054v0.123h0.114v-0.122h0.055V937.304z M397.493,937.042
			c-0.013-0.008-0.035-0.018-0.056-0.018c-0.056,0-0.096,0.046-0.096,0.119c0,0.076,0.045,0.121,0.098,0.121
			c0.021,0,0.041-0.007,0.055-0.016l0.015,0.04c-0.017,0.011-0.046,0.022-0.072,0.022c-0.094,0-0.154-0.073-0.154-0.167
			c0-0.087,0.059-0.164,0.154-0.164c0.028,0,0.055,0.012,0.074,0.025L397.493,937.042z M399.611,936.625
			c-0.013-0.008-0.035-0.018-0.056-0.018c-0.056,0-0.097,0.046-0.097,0.119c0,0.076,0.045,0.121,0.098,0.121
			c0.021,0,0.041-0.007,0.055-0.016l0.015,0.04c-0.017,0.012-0.046,0.022-0.072,0.022c-0.094,0-0.154-0.073-0.154-0.168
			c0-0.087,0.059-0.164,0.155-0.164c0.028,0,0.055,0.012,0.074,0.025L399.611,936.625L399.611,936.625z M399.364,936.888h-0.055
			v-0.321h0.055V936.888z M399.257,936.888h-0.055v-0.154h-0.114v0.154h-0.054v-0.321h0.054v0.123h0.114v-0.122h0.055V936.888z
			 M398.872,936.888h-0.055v-0.321h0.086c0.061,0,0.099,0.03,0.099,0.093c0,0.054-0.04,0.107-0.105,0.107h-0.025V936.888z
			 M398.872,936.727c0.004,0,0.017-0.001,0.023-0.001c0.026-0.001,0.052-0.021,0.052-0.064c0-0.033-0.018-0.052-0.05-0.052h-0.025
			V936.727z M398.651,936.567h0.046l0.102,0.321h-0.061l-0.025-0.087h-0.097l-0.028,0.087h-0.048L398.651,936.567z M398.63,936.761
			h0.074c-0.012-0.042-0.023-0.081-0.036-0.13C398.656,936.68,398.643,936.719,398.63,936.761z M398.539,936.888h-0.063
			l-0.052-0.121H398.4v0.121h-0.055v-0.321h0.086c0.061,0,0.099,0.03,0.099,0.093c0,0.039-0.02,0.077-0.055,0.095L398.539,936.888z
			 M398.4,936.61v0.117c0.005,0,0.017-0.001,0.023-0.001c0.026-0.001,0.052-0.021,0.052-0.064c0-0.033-0.018-0.052-0.051-0.052
			H398.4z M398.295,936.741v0.132c-0.029,0.011-0.06,0.02-0.091,0.02c-0.094,0-0.154-0.073-0.154-0.168
			c0-0.087,0.06-0.164,0.156-0.164c0.03,0,0.06,0.011,0.078,0.025l-0.018,0.038c-0.015-0.009-0.038-0.017-0.059-0.017
			c-0.059,0-0.099,0.046-0.099,0.119c0,0.076,0.046,0.121,0.093,0.121c0.015,0,0.027-0.002,0.038-0.008v-0.099H398.295
			L398.295,936.741z M397.894,936.893c-0.084,0-0.136-0.075-0.136-0.17c0-0.09,0.058-0.161,0.136-0.161
			c0.078,0,0.136,0.072,0.136,0.161C398.031,936.818,397.978,936.893,397.894,936.893z M397.894,936.847
			c0.057,0,0.077-0.063,0.077-0.125c0-0.059-0.023-0.115-0.077-0.115c-0.055,0-0.077,0.056-0.077,0.115
			C397.817,936.784,397.837,936.847,397.894,936.847z M397.725,936.61h-0.092v0.088h0.09v0.043h-0.09v0.104h0.108v0.043h-0.163
			v-0.321h0.147V936.61L397.725,936.61z M397.528,936.741v0.133c-0.029,0.011-0.06,0.02-0.091,0.02
			c-0.094,0-0.154-0.073-0.154-0.168c0-0.087,0.06-0.164,0.156-0.164c0.03,0,0.06,0.011,0.078,0.025l-0.018,0.038
			c-0.015-0.009-0.038-0.017-0.059-0.017c-0.059,0-0.099,0.046-0.099,0.119c0,0.076,0.046,0.121,0.093,0.121
			c0.015,0,0.027-0.002,0.038-0.008v-0.099L397.528,936.741L397.528,936.741z M398.968,936.152h0.055v0.278h0.109v0.043h-0.163
			V936.152L398.968,936.152z M398.804,936.152h0.046l0.102,0.321h-0.061l-0.025-0.088h-0.097l-0.028,0.088h-0.048L398.804,936.152z
			 M398.783,936.346h0.074c-0.012-0.042-0.023-0.081-0.036-0.131C398.809,936.265,398.796,936.303,398.783,936.346z
			 M398.679,936.473h-0.04c-0.052-0.074-0.104-0.147-0.156-0.23l0,0.23h-0.044v-0.321h0.04c0.052,0.073,0.104,0.146,0.155,0.229
			l0.001-0.229h0.044V936.473L398.679,936.473z M398.269,936.478c-0.084,0-0.136-0.075-0.136-0.17c0-0.09,0.058-0.161,0.136-0.161
			c0.078,0,0.136,0.071,0.136,0.161C398.405,936.403,398.353,936.478,398.269,936.478z M398.269,936.432
			c0.057,0,0.077-0.063,0.077-0.125c0-0.059-0.023-0.115-0.077-0.115c-0.054,0-0.077,0.056-0.077,0.115
			C398.191,936.369,398.212,936.432,398.269,936.432z M398.099,936.473h-0.055v-0.321h0.055V936.473z M397.887,936.473v-0.278
			h-0.084v-0.043h0.224v0.043h-0.084v0.278H397.887L397.887,936.473z M397.688,936.152h0.046l0.102,0.321h-0.061l-0.025-0.088
			h-0.097l-0.028,0.088h-0.048L397.688,936.152z M397.667,936.346h0.074c-0.012-0.042-0.023-0.081-0.036-0.131
			C397.692,936.265,397.679,936.303,397.667,936.346z M397.562,936.473h-0.04c-0.052-0.074-0.104-0.147-0.156-0.23l0,0.23h-0.044
			v-0.321h0.04c0.052,0.073,0.104,0.146,0.155,0.229l0.001-0.229h0.044V936.473z M398.815,936.984h0.054v0.277h0.108v0.043h-0.163
			V936.984"/>
	</g>
</g>
</svg>
