<?xml version="1.0" encoding="utf-8"?>
<!-- Generator: Adobe Illustrator 15.0.0, SVG Export Plug-In . SVG Version: 6.00 Build 0)  -->
<!DOCTYPE svg PUBLIC "-//W3C//DTD SVG 1.1//EN" "http://www.w3.org/Graphics/SVG/1.1/DTD/svg11.dtd">
<svg version="1.1" id="Layer_1" xmlns="http://www.w3.org/2000/svg" xmlns:xlink="http://www.w3.org/1999/xlink" x="0px" y="0px"
	 width="175.9px" height="50px" viewBox="0 0 175.9 50" style="enable-background:new 0 0 175.9 50;" xml:space="preserve">
<style type="text/css">
<![CDATA[
	.st0{fill:#14DC14;}
	.st1{fill-rule:evenodd;clip-rule:evenodd;fill:#14DC14;}
	.st2{fill:#231F20;}
	.st3{font-family:'MyriadPro-Regular';}
	.st4{display:none;fill-rule:evenodd;clip-rule:evenodd;fill:#B2C2CC;}
	.st5{display:none;fill-rule:evenodd;clip-rule:evenodd;fill:#555554;}
	.st6{display:none;fill-rule:evenodd;clip-rule:evenodd;fill:#5BB6E6;}
	.st7{font-size:12;}
	.st8{font-size:14;}
	.st9{display:none;fill-rule:evenodd;clip-rule:evenodd;fill:#FFFFFF;}
	.st10{font-family:'MyriadPro-BoldCond';}
]]>
</style>
<path class="st5" d="M75.4,1.4c4.9-0.1,10.1-0.1,15,0C85.4,1.4,80.4,1.4,75.4,1.4z"/>
<path class="st6" d="M47.8,1.4c2.9-0.1,5.9,0,8.9-0.1C53.8,1.5,50.7,1.4,47.8,1.4z"/>
<path class="st5" d="M109,4.3c0.1-0.1,0.6-0.1,0.8,0C109.5,4.3,109.3,4.3,109,4.3z"/>
<path class="st6" d="M60.2,4.4c0.2-0.1,0.7-0.1,0.9,0C60.8,4.4,60.5,4.4,60.2,4.4z"/>
<path class="st5" d="M87,4.5c-3.9,0-7.9,0.1-11.7-0.1C79.2,4.4,83.1,4.4,87,4.5C87,4.5,87,4.5,87,4.5z"/>
<path class="st6" d="M54.7,5.1c0,0.4,0,0.9,0,1.3C54.7,6.1,54.7,5.4,54.7,5.1z"/>
<path class="st6" d="M64.4,9.9c0.1,0.3,0.1,1,0,1.3C64.4,10.8,64.4,10.3,64.4,9.9z"/>
<path class="st5" d="M98.9,11.3c0-0.2-0.1-0.5,0.1-0.6C98.9,10.9,99,11.2,98.9,11.3z"/>
<path class="st4" d="M120,10.8c0.1,0.3,0.1,0.9,0,1.2C120,11.6,120,11.2,120,10.8z"/>
<path class="st5" d="M102.6,11.1c0,0.2,0,0.4,0,0.7C102.5,11.6,102.5,11.2,102.6,11.1z"/>
<path class="st5" d="M116.3,11.8c-0.1-0.1-0.1-0.5,0-0.6C116.3,11.4,116.3,11.6,116.3,11.8z"/>
<path class="st4" d="M58.5,11.2c2,0,3.9,0,5.9,0C62.5,11.3,60.3,11.3,58.5,11.2z"/>
<path class="st5" d="M98.9,11.6c0.1,0.1,0,0.4,0.1,0.6C98.8,12.1,99,11.8,98.9,11.6z"/>
<path class="st6" d="M54.7,14.1c0,0.3,0,0.6,0,0.8C54.7,14.7,54.7,14.2,54.7,14.1z"/>
<path class="st6" d="M54.7,19.8c0,0.2,0,0.5,0,0.7C54.7,20.4,54.7,19.9,54.7,19.8z"/>
<path class="st6" d="M58.9,20.1c1.7-0.1,3.7,0,5.5-0.1c0,0.9,0,1.9,0,2.8c-1.5,0-3.2,0.1-4.7-0.1c1.5,0,3,0,4.6,0
	c0.1-0.8,0-1.8,0.1-2.7C62.5,20.1,60.7,20.1,58.9,20.1z"/>
<path class="st4" d="M56.3,22.9c0,0.2-0.9,0.1-1.3,0.1c0,0,0,0,0-0.1C55.4,22.9,56,23,56.3,22.9z"/>
<path class="st4" d="M81.9,28.1c0.2-0.1,0.9-0.1,1.1,0C82.7,28.1,82.3,28.1,81.9,28.1z"/>
<path class="st4" d="M101.5,28.3c0.1-0.1,0.7-0.1,0.8,0C102,28.3,101.7,28.3,101.5,28.3z"/>
<path class="st4" d="M116.6,28.3c0.2-0.1,0.7-0.1,0.9,0C117.2,28.3,116.9,28.3,116.6,28.3z"/>
<path class="st6" d="M51.5,29.1c0.6-0.1,1.6-0.1,2.3,0C53,29.1,52.2,29.1,51.5,29.1z"/>
<path class="st4" d="M54.5,29.6c0.9-0.1,2.1-0.1,2.9,0C56.5,29.6,55.5,29.6,54.5,29.6z"/>
<path class="st5" d="M119,29.8c0.1,5.6,0.1,11.7,0,17.3C119,41.4,119,35.6,119,29.8z"/>
<path class="st6" d="M54.4,30.1c0,0.2,0,0.4,0,0.6C54.3,30.6,54.3,30.2,54.4,30.1z"/>
<path class="st5" d="M103.4,35c0.1,3.9,0.1,8.2,0,12.1C103.4,43.1,103.4,39,103.4,35z"/>
<path class="st6" d="M64.4,35.4c0.1,2.1,0.1,4.6,0,6.8C64.4,39.9,64.4,37.6,64.4,35.4z"/>
<path class="st4" d="M71.9,38c0,0.3,0,0.7,0,1C71.8,38.8,71.8,38.2,71.9,38z"/>
<path class="st4" d="M93,38.1c0.1,0.1,0.1,0.6,0,0.7C93,38.6,93,38.3,93,38.1z"/>
<path class="st6" d="M64.4,45.4c0.1,0.9,0,2,0.1,2.9c0,0,0,0-0.1,0C64.4,47.4,64.4,46.4,64.4,45.4z"/>
<path class="st5" d="M82.1,45.6c0.3,0,0.5,0,0.8,0C82.7,45.7,82.2,45.7,82.1,45.6z"/>
<path class="st6" d="M42.6,48.4c0-0.4-0.1-1,0.1-1.3C42.6,47.5,42.6,48,42.6,48.4C42.6,48.4,42.6,48.4,42.6,48.4z"/>
<path class="st4" d="M42.6,48.4C42.6,48.4,42.6,48.4,42.6,48.4c7.3,0,14.5,0,21.8,0c0,0,0,0,0.1,0C57.3,48.5,49.7,48.5,42.6,48.4z"
	/>
<path class="st4" d="M82.1,48.9c0.2,0,0.4,0,0.6,0C82.7,49,82.2,49,82.1,48.9z"/>
<path class="st4" d="M101.3,4.7c0.4-0.5,0.7-0.9,1.2-1.2C102.1,3.9,101.7,4.3,101.3,4.7z"/>
<path class="st4" d="M101.6,18.6c0.2,0.2,0.5,0.4,0.7,0.7C102,19,101.8,18.8,101.6,18.6z"/>
<path class="st5" d="M116.6,19.2c0.2-0.2,0.4-0.5,0.7-0.7C117.1,18.7,116.9,19,116.6,19.2z"/>
<path class="st9" d="M39.6,0c27.8,0,55.5,0,83.3,0c0,16.7,0,33.3,0,50c-27.8,0-55.6,0-83.3,0c0-16.6,0-33.2,0-49.8
	C39.6,0.1,39.6,0,39.6,0z M87,4.5c-3.4,3.9-7.9,8.6-11.7,12.8c-0.5,0.6-1.4,1.3-1.6,2c-0.3,1.3,0.3,1.9,1.2,2.2
	c5,0.1,10.5,0.1,15.5,0c0.8-0.2,1.3-0.7,1.3-1.5c0-1.9-2.1-1.6-4.1-1.6c-3,0-6.6,0-9.2,0c3.4-3.9,7.8-8.5,11.6-12.6
	c0.6-0.6,1.3-1.3,1.6-1.9c0.5-1.2-0.1-2.4-1.2-2.5c-4.9-0.1-10.1-0.1-15,0c-1.7,0-1.8,2.9-0.1,3.1C79.1,4.6,83.1,4.5,87,4.5z
	 M120,10.8c-0.3-4.2-2.6-7.4-5.9-8.9c-4-1.8-9.1-0.7-11.5,1.6c-0.5,0.3-0.9,0.8-1.2,1.2c-1.2,1.6-2.2,3.4-2.3,6
	c-0.1,0.1,0,0.4-0.1,0.6c0,0.1,0,0.2,0,0.3c0,0.2-0.1,0.5,0.1,0.6c0.2,2.8,1.3,4.7,2.6,6.3c0.2,0.2,0.4,0.5,0.7,0.7
	c1.7,1.4,4.2,2.7,7.2,2.7c3,0,5.5-1.3,7.2-2.7c0.2-0.2,0.5-0.4,0.7-0.7c1.4-1.6,2.5-3.6,2.7-6.5C120.1,11.7,120.1,11.1,120,10.8z
	 M47.8,1.4c0,6.4,0,12.7,0,19.1c0,2.1,0.2,4.3,0,6.4c-0.1,0.8-0.4,1.6-0.7,2.4c-1.5,5.9-3,12.1-4.5,17.8c-0.1,0.3,0,0.9-0.1,1.3
	c7.1,0.1,14.7,0.1,21.8,0c0-1,0.1-2.1-0.1-2.9c-4.7,0-9.6,0.1-14.3-0.1c0.8-2.7,0.3-6.5,2.1-8.3c1.5-1.5,5.6-2,7.3-0.2
	c1,1.1,0.7,3.5,0.7,5.3c1.4,0,2.8,0,4.2,0c0.1-2.1,0.1-4.6,0-6.8c0,0,0-0.1,0-0.1c0-0.3-2-0.2-2.6-0.2c-2.7,0-5.7,0-8-0.1
	c0,0,0,0,0-0.1c0.1-0.8,0.2-1.5,0.3-2.4c0,0,0.1,0,0.1-0.1c0.4-0.2,1.6,0.1,1.7-0.2c-0.8-0.3-1.3-0.8-1.4-1.7c0-0.2,0-0.4,0-0.6
	c0-0.2,0-0.4,0.1-0.6c1,0,2,0,2.9,0c-1,4,3.9,2.6,6.9,2.8c0-0.1,0-0.2-0.1-0.2c0.1-0.4,0.1-0.9,0.1-1.6c0-0.2,0.2-1.4-0.1-1.6
	c-0.1,0-0.9,0-1.2,0c-2.8,0-6.1,0-8.5,0c0.1-0.7,0.2-1.3,0.3-2.1c0,0,0.1,0,0.1-0.1c2.2-0.2,4.7-0.1,7.1-0.1c0.6,0,2.2,0.2,2.3-0.2
	c0-0.2,0-0.5,0-0.7c-3.1,0-6.3,0-9.4,0c0-1,0-1.9,0-2.9c0.4-0.1,1.3,0.1,1.3-0.1c-0.8-0.5-1.4-1.2-1.6-2.4c0-0.2,0-0.5,0-0.7
	c0-1.2,0.8-1.8,1.6-2.3c-0.9-0.5-1.4-1.3-1.6-2.6c0-0.3,0-0.6,0-0.8c0.1-2,1.6-2.8,3.7-2.8c1.8,0.1,4.1,0.1,5.9,0
	c0.1-0.3,0.1-1,0-1.3c0-0.1,0-0.1,0.1-0.1c-1.2,1.3-3.8,1.4-4.7-0.3c-0.4-0.7-0.5-1.5-0.7-2.6c-0.2-1.1-0.2-2.9-1.5-2.6
	c-1.2,0.3-0.9,3.3,0.5,3.1c0,1,0.1,2.1-0.1,3c-2.2-0.2-3.1-1.9-3.2-4c0-0.4,0-0.9,0-1.3c0-1.1,0.5-2.6,1.3-3.2
	c0.1-0.1,1.2-0.5,0.6-0.4C53.7,1.4,50.7,1.3,47.8,1.4z M60.2,4.4c0.5,1,0.3,2.7,1.2,3.1c1.4,0.6,2-1.2,1.4-2.3
	c-0.4-0.7-1.1-0.8-1.8-0.8C61,4.3,60.4,4.3,60.2,4.4z M58.9,14.3C56.8,14,57,17.5,59.2,17c1.6,0.1,3.5,0,5.2,0.1c0-0.9,0-1.9,0-2.8
	C62.7,14.2,60.6,14.2,58.9,14.3z M58.9,20.1c-0.7,0-1.2,0.2-1.4,0.6c-0.6,1.3,0.8,2.4,2.3,2.1c1.4,0.1,3.1,0,4.7,0.1
	c0-0.9,0-1.9,0-2.8C62.6,20.1,60.6,20,58.9,20.1z M81.9,28.1c-5.8,0.6-9.4,3.9-9.9,9.9c0,0,0,0-0.1,0c-0.1,0.2-0.1,0.8,0,1
	c0.7,6,4,9.4,10.2,9.9c0.1,0.1,0.5,0.1,0.6,0c2.9-0.1,5-1.1,6.7-2.5c0.4-0.3,0.8-0.6,1.1-1.1c1.4-1.7,2.4-3.7,2.5-6.6
	c0.1-0.1,0.1-0.6,0-0.7C92.4,32,89,28.7,83,28.1C82.8,28,82.2,28,81.9,28.1z M101.5,28.3c-2,0.1-1.6,3.1-1.6,5.5c0,3.2,0,6.3,0,9.4
	c0,1.5-0.2,3.7,0.2,4.6c0.7,1.5,3.3,0.9,3.3-0.7c0.1-3.9,0.1-8.2,0-12.1c0.4,0.2,1,1.4,1.4,1.9c1,1.6,1.8,2.6,2.8,4.1
	c0.5,0.7,1,1.6,1.9,1.6c0.9,0,1.4-0.8,1.9-1.6c1.5-2.2,2.7-4.1,4.2-6.2c0,2.9,0,6.5,0,9.7c0,1.1-0.1,2.4,0.2,3.1
	c0.6,1.3,3.1,1.4,3.3-0.5c0.1-5.6,0.1-11.7,0-17.3c-0.1-0.9-0.7-1.4-1.5-1.6c-0.2-0.1-0.7-0.1-0.9,0c-1.1,0.2-1.8,1.6-2.4,2.5
	c-1.6,2.5-3.3,5.3-4.7,7.4c-1.6-2.3-3.3-5-4.8-7.5c-0.6-0.9-1.2-2.3-2.3-2.4C102.2,28.2,101.6,28.2,101.5,28.3z M57.3,39.2
	c-0.5-1-2.8-0.9-3.3,0.3c-0.4,0.8-0.1,1.7-0.4,2.7c1.2,0,2.4,0,3.7,0C57.1,41.2,57.8,40.1,57.3,39.2z"/>
<path class="st6" d="M53.8,35C53.8,35,53.8,35,53.8,35c2.3,0.2,5.3,0.1,8,0.1c0.6,0,2.6-0.1,2.6,0.2c-0.6-0.2-1.6-0.1-2.6-0.1
	c-1.8,0-3.5,0-5.2,0c-1,0-2,0.2-2.7,0C53.8,35.1,53.8,35.2,53.8,35C53.8,35,53.8,35,53.8,35z"/>
<path class="st6" d="M54.1,32.6c0.3-0.4,1.3,0,1.8-0.2C55.7,32.7,54.5,32.4,54.1,32.6C54.1,32.6,54.1,32.6,54.1,32.6z"/>
<path class="st4" d="M55,27c0.1-0.4,1.6-0.2,2.2-0.2c1.8,0,3.1,0,4.8,0c0.8,0,1.9,0.2,2.4-0.1c0,0,0-0.1,0-0.1c0,0,0,0,0.1,0
	c0,0.4-1.7,0.2-2.3,0.2C59.7,26.8,57.3,26.7,55,27C55,27,55,27,55,27z"/>
<path class="st6" d="M55,22.9C55,23,55,23,55,22.9c0,1,0,2,0,2.9c3.1,0,6.3,0,9.4,0c0,0.2,0,0.5,0,0.7c0,0,0,0-0.1,0
	c0-0.2,0-0.4,0-0.7c-3.1,0-6.2,0-9.3,0C54.9,25.1,54.9,23.8,55,22.9z"/>
<path class="st6" d="M58,10.4c0.1-0.9,0-2,0.1-3C58.1,8.2,58.2,9.6,58,10.4z"/>
<path class="st6" d="M54.7,29.1c2.4,0,5.7,0,8.5,0c0.3,0,1.1,0,1.2,0c0.2,0.2,0.1,1.3,0.1,1.6c0,0.7,0,1.1-0.1,1.6c0-1,0-2,0-3.1
	C61.1,29.1,57.9,29.1,54.7,29.1C54.7,29.1,54.7,29.1,54.7,29.1z"/>
<path class="st9" d="M108.7,18.6c-3.7-0.6-5.8-2.8-6.1-6.8c0-0.2,0-0.4,0-0.7c0.4-4,2.4-6.3,6.4-6.8c0.3,0,0.5,0,0.8,0
	c4,0.4,6.1,2.8,6.5,6.9c-0.1,0.1-0.1,0.5,0,0.6c-0.1,2-0.8,3.5-1.8,4.6c-0.2,0.2-0.4,0.4-0.6,0.6c-1,0.8-2.1,1.4-3.7,1.6
	C109.7,18.6,109.2,18.6,108.7,18.6z"/>
<path class="st5" d="M113.9,17c0.2-0.2,0.4-0.4,0.6-0.6C114.3,16.6,114.1,16.8,113.9,17z"/>
<path class="st6" d="M58.9,14.3c1.7-0.1,3.8-0.1,5.5,0c0,0.9,0,1.9,0,2.8c-1.7,0-3.6,0.1-5.2-0.1c1.7,0,3.4,0,5.2,0
	c0-0.9,0-1.8,0-2.7C62.5,14.3,60.7,14.3,58.9,14.3z"/>
<path class="st4" d="M89.4,46.4c0.4-0.3,0.7-0.7,1.1-1.1C90.2,45.7,89.8,46.1,89.4,46.4z"/>
<path class="st9" d="M82.1,45.6c-3.8-0.2-6.5-3.2-6.5-7.2c0-2.9,1.6-5.3,3.6-6.4c2.1-1.1,5.8-1.1,7.6,0.8c0.2,0.3,0.5,0.5,0.7,0.7
	c0.9,1.1,1.6,2.3,1.7,4.2c0,0.5,0,1,0,1.4c-0.1,1.8-0.8,3.1-1.7,4.2c-0.2,0.2-0.4,0.4-0.6,0.6c-1,0.9-2.2,1.5-4.1,1.6
	C82.6,45.6,82.3,45.6,82.1,45.6z"/>
<path class="st4" d="M86.9,44c0.2-0.2,0.4-0.4,0.6-0.6C87.3,43.6,87.1,43.8,86.9,44z"/>
<path class="st4" d="M86.8,32.9c0.3,0.2,0.5,0.5,0.7,0.7C87.3,33.4,87,33.2,86.8,32.9z"/>
<path class="st4" d="M75,21.5c5.2,0,10.3,0,15.5,0C85.4,21.6,80,21.6,75,21.5z"/>
<path class="st9" d="M51.5,29.1c0,0-0.1-0.1-0.2-0.1c0.1-0.7,0.3-1.5,0.4-2.2c0.8,0,1.6,0,2.4,0c0,0.8-0.2,1.4-0.3,2.2
	c0,0-0.1,0.1-0.1,0.1C53.1,29,52.1,29,51.5,29.1z"/>
<path class="st5" d="M108.7,18.6c0.5,0,1,0,1.5,0C109.9,18.6,109.1,18.6,108.7,18.6z"/>
<path class="st4" d="M89.2,37.8c0.1,0.4,0.1,1.1,0,1.4C89.2,38.7,89.2,38.3,89.2,37.8z"/>
<g>
	<g>
		<path class="st1" d="M5.1,1.9c3,0,6,0,9.1,0c-3.3,0.8-3.1,9,0.9,8.8c0.1-0.8,0-1.9,0-2.8c-0.4-0.2-0.7-0.3-1-0.7
			c-0.6-0.9,0-3.1,1.3-2.4C16,5.2,16,6.5,16.1,7.4c0.2,1.4,0.5,2.8,1.6,3.4c1.1,0.6,2.9,0.4,3.7-0.6c0,0.5,0,0.9,0,1.4
			c-3.3,0.3-7.8-0.8-9.1,1.4c-0.9,1.6-0.2,4.1,1.2,4.7c-1,0.5-1.7,1.5-1.6,3c0.1,1.2,0.9,1.9,1.5,2.4c-0.4,0-0.8,0-1.2,0
			c0,1,0,2,0,2.9c3,0,6.3,0,9.2,0c0,0.3,0,0.6,0,0.8c-3.1,0-6.1,0-9.2,0c-0.2,0.7-0.2,1.5-0.3,2.2c3.1,0.1,6.3,0,9.5,0
			c0,1.1,0,2.2,0,3.3c-2.9-0.3-7.8,1.2-6.8-2.8c-0.9-0.1-1.9,0-2.9,0c-0.5,1.4,0.2,2.6,1.4,2.8c-0.4,0.2-1.2-0.1-1.7,0.1
			c-0.2,0.8-0.2,1.7-0.4,2.5c3.4,0.1,7,0,10.4,0c0,2.3,0,4.6,0,6.9c-1.2,0-2.8,0-4.2,0c0.3-2.3,0.3-4.7-1.2-5.7
			c-0.9-0.6-2.3-0.7-3.4-0.6c-1.6,0.1-3,0.9-3.7,2c-0.6,1-0.7,2.4-0.9,3.6c-0.2,1.3-0.4,2.7-0.6,3.9c4.6,0.1,9.4,0,14.1,0
			c0,1,0,1.9,0,2.9c-7,0-14.3,0-21.4,0c0-0.4,0-0.8,0-1.3c1.5-5.6,3-11.7,4.5-17.5c0.2-0.9,0.6-1.7,0.7-2.5c0.1-1,0-2.1,0-3.1
			C5.1,16.4,5.1,9.2,5.1,1.9z M9,26.9c-0.2,0.7-0.3,1.5-0.4,2.2c0.8,0,1.6,0,2.5,0c0.1-0.7,0.2-1.5,0.3-2.2
			C10.6,26.9,9.8,26.9,9,26.9z"/>
		<path class="st1" d="M18.6,7.9c1.6,0.6,1.9-1.8,1.1-2.6c-0.6-0.6-1.2-0.4-2.4-0.5C17.9,5.8,17.6,7.6,18.6,7.9z"/>
		<path class="st1" d="M14.7,15.1c-0.3,0.4-0.3,1.3,0.1,1.7c0.3,0.3,0.9,0.4,1.4,0.5c1.6,0.1,3.6-0.1,5.2,0c0-0.9,0-1.8,0-2.7
			C19.7,14.9,15.6,13.9,14.7,15.1z"/>
		<path class="st1" d="M16.2,20.3c-0.6,0-1.2,0.1-1.5,0.5c-0.3,0.3-0.3,1.2,0,1.6c1,1.3,4.7,0.3,6.7,0.6c0-0.9,0-1.8,0-2.7
			C20.4,20.3,17.9,20.3,16.2,20.3z"/>
		<path class="st1" d="M14.3,38.9c-0.6-0.9-2.5-0.5-3,0.2C10.8,40,11.1,41,10.8,42c1.2,0,2.4,0,3.6,0C14.4,40.9,14.9,39.6,14.3,38.9
			z"/>
		<path class="st1" d="M17.4,4.8c1.1,0.1,1.7-0.1,2.4,0.5c0.8,0.8,0.6,3.2-1.1,2.6C17.6,7.6,17.9,5.8,17.4,4.8z"/>
		<path class="st1" d="M21.4,14.5c0,0.9,0,1.8,0,2.7c-1.6-0.1-3.6,0.1-5.2,0c-0.5,0-1.2-0.2-1.4-0.5c-0.4-0.4-0.4-1.3-0.1-1.7
			C15.6,13.9,19.7,14.9,21.4,14.5z"/>
		<path class="st1" d="M21.4,20.3c0,0.9,0,1.8,0,2.7c-1.9-0.4-5.7,0.7-6.7-0.6c-0.3-0.4-0.3-1.3,0-1.6c0.3-0.3,1-0.5,1.5-0.5
			C17.9,20.3,20.4,20.3,21.4,20.3z"/>
		<path class="st1" d="M14.4,42c-1.2,0-2.4,0-3.6,0c0.3-0.9,0-2,0.5-2.8c0.5-0.7,2.4-1.1,3-0.2C14.9,39.6,14.4,40.9,14.4,42z"/>
	</g>
	<g>
		<path class="st0" d="M59.2,43.8c-2.3,3.6-5.7,6.2-12.1,6.2h-3.8c-8.7,0-14.2-5.6-14.2-13.6V13.6c0-8,5.5-13.6,14.2-13.6h3.8
			c6.4,0,9.8,2.6,12.1,6.2c0.7,1.2,1.5,2.4,1.5,2.8c0,0.2-0.2,0.4-0.5,0.5L54,12.8c-0.3,0.2-0.6,0.4-0.9,0.4c-0.2,0-0.5-0.2-0.6-0.5
			c-1.4-3.3-3.4-4.5-5.4-4.5h-3.8c-3,0-5.5,2.5-5.5,5.5v22.8c0,3,2.5,5.5,5.5,5.5h3.8c2.1,0,4.1-1.2,5.4-4.5
			c0.2-0.4,0.4-0.5,0.6-0.5c0.3,0,0.6,0.2,0.9,0.4l6.1,3.2c0.3,0.2,0.5,0.3,0.5,0.5C60.6,41.4,59.9,42.6,59.2,43.8z"/>
		<path class="st0" d="M175.2,49.2h-27c-0.5,0-0.8-0.2-0.8-0.8V1.5c0-0.5,0.2-0.8,0.8-0.8h7.3c0.5,0,0.8,0.2,0.8,0.8v38.8
			c0,0.5,0.2,0.8,0.8,0.8h18.2c0.5,0,0.8,0.2,0.8,0.8v6.5C175.9,49,175.7,49.2,175.2,49.2z"/>
		<g>
			<path class="st0" d="M78.2,41.5c-2-0.9-3.4-2.8-3.4-5.1V13.6c0-2.2,1.4-4.2,3.4-5.1V0.1C70.8,1,66.1,6.3,66.1,13.6v22.8
				c0,7.3,4.6,12.6,12.1,13.5V41.5z"/>
			<path class="st0" d="M86.3,0.1v8.4c2,0.8,3.3,2.8,3.3,5.1v22.8c0,2.3-1.3,4.3-3.3,5.1v8.4c7.4-0.9,12.1-6.2,12.1-13.5V13.6
				C98.4,6.3,93.7,1,86.3,0.1z"/>
		</g>
		<g>
			<path class="st0" d="M118.6,41.5c-2-0.9-3.4-2.8-3.4-5.1V13.6c0-2.2,1.4-4.2,3.4-5.1V0.1c-7.5,0.8-12.1,6.2-12.1,13.5v22.8
				c0,7.3,4.6,12.6,12.1,13.5V41.5z"/>
			<path class="st0" d="M126.6,0.1v8.4c2,0.8,3.3,2.8,3.3,5.1v22.8c0,2.3-1.3,4.3-3.3,5.1v8.4c7.4-0.9,12.1-6.2,12.1-13.5V13.6
				C138.7,6.3,134.1,1,126.6,0.1z"/>
		</g>
		<g>
			<path class="st0" d="M164,1.8h-1c-0.1,0-0.1,0-0.1,0.1v4.5c0,0.1,0,0.1-0.1,0.1H162c-0.1,0-0.1,0-0.1-0.1V1.9
				c0-0.1,0-0.1-0.1-0.1h-1c-0.1,0-0.1,0-0.1-0.1V1c0-0.1,0-0.1,0.1-0.1h3.1c0.1,0,0.1,0,0.1,0.1L164,1.8
				C164.1,1.8,164.1,1.8,164,1.8z"/>
			<path class="st0" d="M168.4,1.1l-1.6,5.4c0,0,0,0.1-0.1,0.1h-0.6c0,0-0.1,0-0.1-0.1l-1.6-5.4c0-0.1,0-0.1,0-0.2s0-0.1,0.1-0.1
				h0.9c0,0,0.1,0,0.1,0.1l0.9,3.2c0,0.1,0.1,0.3,0.1,0.4h0c0-0.1,0.1-0.3,0.1-0.4l0.9-3.3c0,0,0-0.1,0.1-0.1h0.9
				c0.1,0,0.1,0,0.1,0.1C168.4,1,168.4,1.1,168.4,1.1z"/>
		</g>
	</g>
</g>
<text transform="matrix(1 0 0 1 21.4302 73.2305)"><tspan x="0" y="0" class="st2 st10 st8">Font :</tspan><tspan x="27.8" y="0" class="st2 st3 st8"> </tspan><tspan x="30.7" y="0" class="st2 st3 st7">Original font “Conduit”.</tspan></text>
</svg>
