<?xml version="1.0" encoding="utf-8"?>
<!-- Generator: Adobe Illustrator 15.0.0, SVG Export Plug-In . SVG Version: 6.00 Build 0)  -->
<!DOCTYPE svg PUBLIC "-//W3C//DTD SVG 1.1//EN" "http://www.w3.org/Graphics/SVG/1.1/DTD/svg11.dtd">
<svg version="1.1" id="Layer_1" xmlns="http://www.w3.org/2000/svg" xmlns:xlink="http://www.w3.org/1999/xlink" x="0px" y="0px"
	 width="236.8px" height="50px" viewBox="0 0 236.8 50" style="enable-background:new 0 0 236.8 50;" xml:space="preserve">
<style type="text/css">
<![CDATA[
	.st0{fill:#7BC35D;}
	.st1{fill:#25A7E0;}
	.st2{fill:#F5E41E;}
	.st3{fill:#F7902D;}
	.st4{fill:#C3D337;}
	.st5{fill:#D61C66;}
	.st6{fill:#787A7C;}
]]>
</style>
<g>
	<path class="st4" d="M23.6,37.2c0,3.7-1.2,6.7-3.6,8.9c-2.2,2.1-4.9,3.1-8.2,3.1c-3.7,0-6.6-1.2-8.8-3.5c-2-2.2-3-4.8-3-8h7.3
		c0.4,2.8,1.9,4.2,4.5,4.2c1.3,0,2.4-0.4,3.2-1.3c0.8-0.8,1.2-1.9,1.2-3.2c0-1.8-1-3.2-2.9-4.1l3.4-6.7c2.2,1,3.8,2.3,4.9,3.7
		C22.9,32.1,23.6,34.4,23.6,37.2z"/>
	<path class="st3" d="M22,21.7h-7.7c-0.4-2.1-1.4-3.1-3-3.1c-0.9,0-1.6,0.3-2.2,0.8c-0.6,0.5-0.9,1.3-0.9,2.4c0,0.8,0.3,1.4,0.8,1.9
		c0.6,0.5,1.6,1,3.1,1.5l-3.4,6.6C6,31.1,4.1,30,2.8,28.5c-1.4-1.6-2.1-3.8-2.1-6.6c0-2.9,1-5.4,3.1-7.5c2-2.1,4.6-3.1,7.5-3.1
		c3,0,5.5,0.8,7.3,2.4C20.9,15.5,22,18.2,22,21.7z"/>
	<polygon class="st2" points="63.9,48.4 56.5,48.4 56.5,26.5 46.2,34.9 28.5,20.4 28.5,10.7 46.3,25.3 63.9,10.7 	"/>
	<polygon class="st1" points="35.9,48.4 28.5,48.4 28.5,26.6 35.9,32.7 	"/>
	<path class="st4" d="M81.5,0l-5.1,8.7h-6.3L75.3,0L81.5,0z M77.6,48.4h-7.4V12h7.4V48.4z"/>
	<path class="st5" d="M99.2,49.4c-4.7-0.7-8.5-2.6-11.6-5.8c-3.4-3.5-5.1-7.9-5.1-13.3c0-4.9,1.5-9.2,4.6-12.8
		c3-3.6,7.1-5.7,12.1-6.4v7.6c-2.8,0.8-5.1,2.2-6.7,4.2c-1.7,2-2.5,4.5-2.5,7.4c0,2.8,0.8,5.2,2.4,7.2c1.6,2.1,3.9,3.5,6.8,4.3V49.4
		z"/>
	<path class="st6" d="M116.5,18.3l-5.8,4.7c-0.9-1.2-1.8-2-2.8-2.7c-1-0.6-2.3-1.2-3.9-1.6v-7.7C109.1,11.8,113.3,14.2,116.5,18.3z"
		/>
	<path class="st6" d="M116.6,42.2c-1.9,2.2-3.5,3.8-5.1,4.7c-1.8,1.1-4.3,1.9-7.6,2.5v-7.6c1.7-0.5,2.9-0.9,3.6-1.3
		c1-0.6,2-1.6,3.1-3L116.6,42.2z"/>
	<rect x="121.4" y="12" class="st1" width="7.4" height="36.4"/>
	<rect x="132.3" y="26.6" class="st0" width="9.7" height="7.3"/>
	<rect x="145.6" y="12" class="st0" width="7.4" height="36.4"/>
	<path class="st2" d="M195.5,27.9h-7.5c-0.7-2.8-2-5-4.1-6.7c-2-1.7-4.4-2.5-7.2-2.5c-2.7,0-5.1,0.8-7.2,2.4
		c-2.1,1.6-3.4,3.9-4.1,6.9H158c0.5-5.2,2.7-9.4,6.6-12.5c3.5-2.8,7.6-4.2,12.2-4.2c4.6,0,8.5,1.3,11.9,4
		C192.5,18.1,194.8,22.4,195.5,27.9z"/>
	<path class="st4" d="M195.5,32.7c-0.7,4.6-2.5,8.5-5.6,11.5c-3.4,3.4-7.8,5.1-13.1,5.1c-4.5,0-8.5-1.4-12-4.1
		c-3.8-3.1-6.1-7.3-6.8-12.5h7.5c0.7,2.9,2,5.2,3.9,6.8c2,1.6,4.4,2.4,7.3,2.4c2.6,0,4.9-0.7,6.8-2.1c2.1-1.6,3.6-4,4.4-7.1H195.5z"
		/>
	<polygon class="st5" points="221.7,41.9 217.6,50 198.3,12 206.6,12 	"/>
	<polygon class="st3" points="236.8,12 224.4,36.6 220.2,28.4 228.5,12 	"/>
</g>
</svg>
