<?xml version="1.0" encoding="utf-8"?>
<!-- Generator: Adobe Illustrator 15.0.0, SVG Export Plug-In . SVG Version: 6.00 Build 0)  -->
<!DOCTYPE svg PUBLIC "-//W3C//DTD SVG 1.1//EN" "http://www.w3.org/Graphics/SVG/1.1/DTD/svg11.dtd">
<svg version="1.1"
	 id="svg2" xmlns:dc="http://purl.org/dc/elements/1.1/" xmlns:cc="http://creativecommons.org/ns#" xmlns:rdf="http://www.w3.org/1999/02/22-rdf-syntax-ns#" xmlns:svg="http://www.w3.org/2000/svg" xmlns:sodipodi="http://sodipodi.sourceforge.net/DTD/sodipodi-0.dtd" xmlns:inkscape="http://www.inkscape.org/namespaces/inkscape"
	 xmlns="http://www.w3.org/2000/svg" xmlns:xlink="http://www.w3.org/1999/xlink" x="0px" y="0px" width="59.3px" height="28px"
	 viewBox="215.9 102 59.3 28" style="enable-background:new 215.9 102 59.3 28;" xml:space="preserve">
<style type="text/css">
<![CDATA[
	.st0{fill:#231F20;}
	.st1{fill:#0077C0;}
]]>
</style>
<g id="layer1" transform="translate(-168.3581,-288.61505)" inkscape:groupmode="layer" inkscape:label="Layer 1">
	<path id="path21428" class="st0" d="M390.7,403.6c-0.5-1-0.7-1.4-2-1.4c-0.9,0-1.7,0.7-1.7,1.6c0,0.8,0.5,1.3,2.3,2
		c1.6,0.7,2.1,0.9,2.7,1.4c1,0.7,1.6,1.8,1.6,3.1c0,2.6-2.1,4.6-4.9,4.6c-4.1,0-4.3-3.2-4.5-5.1h2.4c-0.1,1.8,0.8,2.9,2.1,2.9
		c1.3,0,2.3-1,2.3-2.2c0-1.1-0.5-1.6-2.3-2.3c-3.3-1.4-4.1-2.2-4.1-4.1c0-2.2,1.8-3.9,4.1-3.9c2.8,0,3.8,1.5,4.2,3.6L390.7,403.6"/>
	<path id="path21434" class="st0" d="M441.6,414.4h-2.4v-11.9h-1.5v-2.2h1.5v-5.1h2.4v5.1h1.9v2.2h-1.9V414.4"/>
	<path id="path21438" class="st1" d="M414.6,406.8c0-2.5,2-4.5,4.5-4.5c2.5,0,4.5,2,4.5,4.5s-2,4.5-4.5,4.5
		C416.6,411.3,414.6,409.3,414.6,406.8"/>
	<path id="path21442" class="st1" d="M419.2,397.6c-2,0-3.9,0.6-5.4,1.7c0.5-2.5,1.1-5.9,1.3-6.7c1.4,0,11.1,0,11.1,0v-2h-12.7
		l-2.2,11.3c0,0-0.1,0.1-0.1,0.1l2.2,0.4c1.4-1.7,3.5-2.9,5.8-2.9c4.1,0,7.4,3.3,7.4,7.4c0,4.1-3.3,7.4-7.4,7.4
		c-3.9,0-7.1-3-7.4-6.8l-2,0c0.3,4.9,4.4,8.8,9.4,8.8c5.2,0,9.4-4.2,9.4-9.3C428.6,401.8,424.4,397.6,419.2,397.6"/>
	<path id="path21446" class="st0" d="M435.9,400c-0.2-0.1-1.1-0.2-3.3,0.7c-0.2,0.1-0.4,0.2-0.6,0.3v-0.7h-2.4v5.3
		c0,0.4,0,0.6,0,0.7h0v8.2h2.4v-8.8c0.1-0.8,0.3-2.2,1.5-2.7c1.5-0.6,1.9-0.5,1.9-0.5l0.4,0L435.9,400"/>
	<path id="path21450" class="st0" d="M402.2,412.3c-2.7,0-5-2.2-5-4.9c0-2.7,2.2-4.9,5-4.9s5,2.2,5,4.9
		C407.2,410.1,405,412.3,402.2,412.3z M402.2,400c-1.9,0-3.7,0.7-5,2v-1.5h-2.4v18.2h2.4v-5.9c1.3,1.2,3.1,2,5,2
		c4.1,0,7.4-3.3,7.4-7.3C409.6,403.3,406.3,400,402.2,400"/>
</g>
</svg>
