<?xml version="1.0" encoding="utf-8"?>
<!-- Generator: Adobe Illustrator 15.0.0, SVG Export Plug-In . SVG Version: 6.00 Build 0)  -->
<!DOCTYPE svg PUBLIC "-//W3C//DTD SVG 1.1//EN" "http://www.w3.org/Graphics/SVG/1.1/DTD/svg11.dtd">
<svg version="1.1"
	 id="svg12366" inkscape:version="0.48.4 r9939" sodipodi:docname="5-TO-10-Logo.svg" xmlns:dc="http://purl.org/dc/elements/1.1/" xmlns:cc="http://creativecommons.org/ns#" xmlns:rdf="http://www.w3.org/1999/02/22-rdf-syntax-ns#" xmlns:svg="http://www.w3.org/2000/svg" xmlns:sodipodi="http://sodipodi.sourceforge.net/DTD/sodipodi-0.dtd" xmlns:inkscape="http://www.inkscape.org/namespaces/inkscape"
	 xmlns="http://www.w3.org/2000/svg" xmlns:xlink="http://www.w3.org/1999/xlink" x="0px" y="0px" width="110.4px" height="28px"
	 viewBox="940.7 246 110.4 28" style="enable-background:new 940.7 246 110.4 28;" xml:space="preserve">
<style type="text/css">
<![CDATA[
	.st0{fill:#485158;}
	.st1{fill:#485258;}
	.st2{fill:#F9A83C;}
]]>
</style>
<g id="layer1" transform="translate(-433.77471,389.34387)" inkscape:groupmode="layer" inkscape:label="Ebene 1">
	<g id="g3964" transform="matrix(7.0451984,0,0,7.0451984,-1108.0559,-2057.0672)">
		
			<path id="path3037" inkscape:connector-curvature="0" sodipodi:nodetypes="cccsccsssccccsccsssccc" inkscape:path-effect="#path-effect3039" inkscape:original-d="m 280.32631,252.87266 -2.83047,10.04143 -38.45337,0.3648 c -1.56927,1.14566 -2.63899,2.29134 -2.69569,3.43701 -0.0512,1.03334 0.72183,2.06668 2.69569,3.10002 l 26.31077,-0.29739 c 3.34852,1.15911 5.92342,2.69777 7.29209,4.66041 1.84164,2.64085 2.09732,6.01616 1.04324,9.1218 -1.29489,3.81513 -3.44211,7.32575 -6.37,9.68387 -1.45818,1.17441 -3.13124,2.08775 -4.99797,2.68209 l -42.05272,0 3.03265,-10.64797 37.80701,0.0674 c 1.34667,-1.18533 2.91916,-2.00874 2.20003,-2.62029 -1.29334,-1.09984 -0.35203,-2.09844 -2.20003,-2.97326 l -25.74382,0 c -3.08704,-1.80351 -6.14516,-3.59507 -7.81034,-5.81092 -1.60885,-2.14089 -2.67087,-4.40024 -1.54059,-6.63504 1.56178,-3.08799 1.68348,-7.2718 4.99057,-10.15787 2.10038,-1.83299 5.53364,-3.62994 9.28,-4.51958 l 40.19356,-0.13478 z" class="st1" d="
			M355.7,272.5c0,0.2-0.1,0.4-0.2,0.6l-2.2,0c0,0-0.1,0-0.1,0.1c0,0,0,0.1,0,0.1c0,0,0,0.1,0,0.1s0.1,0.1,0.1,0.1l1.5,0
			c0.2,0,0.3,0.1,0.4,0.3c0.1,0.2,0.1,0.3,0.1,0.5c-0.1,0.2-0.2,0.4-0.4,0.5c-0.1,0.1-0.2,0.1-0.3,0.2h-2.4l0.2-0.6l2.1,0
			c0,0,0.1,0,0.1-0.1c0,0,0-0.1,0-0.1c0,0,0-0.1,0-0.1c0,0-0.1-0.1-0.1-0.1h-1.4c-0.2,0-0.3-0.2-0.4-0.3c-0.1-0.1-0.1-0.2-0.1-0.4
			c0-0.2,0.1-0.4,0.3-0.6c0.1-0.1,0.3-0.2,0.5-0.3L355.7,272.5C355.7,272.4,355.7,272.4,355.7,272.5"/>
		<path id="path3809" inkscape:connector-curvature="0" class="st0" d="M356.1,272.4l-0.9,3.2h0.6l0.2-0.8l1.4,0
			c0.3,0,0.5-0.1,0.7-0.4c0.2-0.2,0.3-0.5,0.4-0.8c0.1-0.2,0.1-0.5,0-0.8c-0.1-0.1-0.1-0.2-0.2-0.3c-0.1-0.1-0.3-0.2-0.5-0.2H356.1
			L356.1,272.4z M357.8,273c0.1,0,0.2,0.1,0.3,0.2c0,0.1,0,0.3,0,0.4c0,0.1-0.1,0.2-0.1,0.3c0,0-0.1,0.1-0.1,0.1
			c-0.1,0.1-0.2,0.2-0.3,0.2l-1.2,0l0.3-1.3L357.8,273L357.8,273z"/>
		<path id="path3819" inkscape:connector-curvature="0" class="st0" d="M359.9,272.4c-0.1,0-0.2,0-0.3,0.1c-0.2,0.1-0.3,0.2-0.4,0.3
			c-0.2,0.2-0.3,0.5-0.4,0.7c-0.1,0.3-0.1,0.6,0.1,0.9c0.1,0.2,0.3,0.3,0.6,0.4h1.2c0.2,0,0.4-0.1,0.6-0.2c0.1-0.1,0.3-0.2,0.4-0.4
			c0.1-0.2,0.1-0.3,0.2-0.5c0.1-0.3,0.1-0.6,0-0.8c-0.1-0.2-0.3-0.4-0.6-0.5L359.9,272.4L359.9,272.4z M360,273h1.1
			c0.1,0,0.2,0.1,0.2,0.2c0.1,0.1,0.1,0.2,0,0.3c0,0.2-0.1,0.4-0.3,0.6c0,0-0.1,0.1-0.1,0.1c0,0-0.1,0.1-0.1,0.1l-1.1,0
			c-0.1,0-0.1,0-0.2-0.1c0,0-0.1-0.1-0.1-0.2c0-0.1,0-0.3,0.1-0.5c0-0.1,0.1-0.2,0.2-0.3C359.8,273.1,359.9,273,360,273L360,273z"/>
		
			<path id="path3848" inkscape:connector-curvature="0" sodipodi:nodetypes="cccsccccscc" inkscape:path-effect="#path-effect3850" inkscape:original-d="m 388.94358,295.41188 10.35287,0.0835 6.92974,-25.21425 c 0.99101,-2.23917 2.16137,-3.86848 3.4611,-5.05798 1.41417,-1.29424 2.98148,-2.06779 4.63752,-2.53969 l 14.6109,-0.0835 2.67171,-9.43447 -18.78544,-0.16698 c -3.45185,0.27044 -6.19467,1.40747 -8.48917,3.09245 -2.64122,1.93959 -4.35444,4.60523 -6.20524,7.51089 z" class="st0" d="
			M361.8,274.8l0.6,0l0.4-1.4c0-0.1,0.1-0.2,0.2-0.3c0.1-0.1,0.2-0.1,0.3-0.1l0.8,0l0.1-0.5l-1.1,0c-0.2,0-0.3,0.1-0.5,0.2
			c-0.2,0.1-0.3,0.3-0.3,0.4L361.8,274.8"/>
		
			<path id="path3852" inkscape:connector-curvature="0" inkscape:path-effect="#path-effect3854" inkscape:original-d="m 425.51259,295.49537 15.36232,-56.7738 10.1024,0 -3.42313,13.6925 17.53309,0.16699 -3.00567,10.0189 -16.94865,-0.0835 -9.35098,32.9789 z" class="st0" d="
			M363.9,274.8l0.9-3.2h0.6l-0.2,0.8l1,0l-0.2,0.6l-0.9,0l-0.5,1.8H363.9"/>
		
			<path id="path3856" inkscape:connector-curvature="0" sodipodi:nodetypes="ccccsccccc" inkscape:path-effect="#path-effect3858" inkscape:original-d="m 470.43068,295.41188 14.36044,0.0835 15.36232,-57.27474 -10.68683,-0.0835 c -1.5409,3.64048 -3.57059,6.87945 -6.46047,9.41184 -2.64968,2.32191 -6.02249,4.04983 -10.40469,4.9486 l -3.33964,0 -2.33774,10.0189 12.35665,0.0835 z" class="st2" d="
			M366.4,274.8l0.8,0l0.9-3.2l-0.6,0c-0.1,0.2-0.2,0.4-0.4,0.5c-0.2,0.1-0.4,0.2-0.6,0.3h-0.2l-0.1,0.6l0.7,0L366.4,274.8"/>
	</g>
</g>
</svg>
