<?xml version="1.0" encoding="utf-8"?>
<!-- Generator: Adobe Illustrator 15.0.0, SVG Export Plug-In . SVG Version: 6.00 Build 0)  -->
<!DOCTYPE svg PUBLIC "-//W3C//DTD SVG 1.1//EN" "http://www.w3.org/Graphics/SVG/1.1/DTD/svg11.dtd">
<svg version="1.1"
	 id="svg2985" inkscape:version="0.48.2 r9819" sodipodi:docname="A.svg" xmlns:dc="http://purl.org/dc/elements/1.1/" xmlns:cc="http://creativecommons.org/ns#" xmlns:rdf="http://www.w3.org/1999/02/22-rdf-syntax-ns#" xmlns:svg="http://www.w3.org/2000/svg" xmlns:sodipodi="http://sodipodi.sourceforge.net/DTD/sodipodi-0.dtd" xmlns:inkscape="http://www.inkscape.org/namespaces/inkscape"
	 xmlns="http://www.w3.org/2000/svg" xmlns:xlink="http://www.w3.org/1999/xlink" x="0px" y="0px" width="212.4px" height="300px"
	 viewBox="391.4 563.5 212.4 300" style="enable-background:new 391.4 563.5 212.4 300;" xml:space="preserve">
<style type="text/css">
<![CDATA[
	.st0{fill:#B52025;}
	.st1{fill:#949599;}
	.st2{fill:#FFFFFF;}
	.st3{fill:url(#path3017_1_);}
]]>
</style>
<g id="g2993" transform="matrix(1.25,0,0,-1.25,-8.2481253,1435.4322)" inkscape:label="Viasat_Explore_HD" inkscape:groupmode="layer">
	<g id="g2995" transform="matrix(2.3392943,0,0,2.3392943,-9.3730509,-7.2773232)">
		<g id="g2997">
			<g id="g3003">
				<g id="g3005">
					
						<linearGradient id="path3017_1_" gradientUnits="userSpaceOnUse" x1="42.7291" y1="144.7595" x2="42.9342" y2="144.7595" gradientTransform="matrix(998.0823 998.0823 998.0823 -998.0823 -186986.9063 102064.6719)">
						<stop  offset="0" style="stop-color:#2D1111"/>
						<stop  offset="0.3758" style="stop-color:#A62523"/>
						<stop  offset="0.9943" style="stop-color:#EE272B"/>
						<stop  offset="1" style="stop-color:#EE272B"/>
					</linearGradient>
					<path id="path3017" inkscape:connector-curvature="0" class="st3" d="M142.2,300V230l70-0.1l-10.4,19.6h-33.4v7.4h26.6V274
						h-26.6v6.8h33.4l10.4,19.3H142.2L142.2,300z"/>
				</g>
			</g>
		</g>
	</g>
	<path id="path3019" inkscape:connector-curvature="0" class="st1" d="M486.9,493.4H323.1v31.7h163.8V493.4z"/>
	<g id="g3025" transform="matrix(2.3392943,0,0,2.3392943,-9.3730509,-7.2773232)">
		<g>
			<g id="g3027">
				<g id="g3037" transform="translate(91.7188,127.7002)">
					<path id="path3039" inkscape:connector-curvature="0" class="st2" d="M67.8,97.2c-0.1-0.1-2-5.3-2-5.3s-1.9,5.1-2,5.3h-2.4
						c0.1-0.3,3.5-8.1,3.5-8.2h1.6c0.1,0.1,3.4,7.9,3.5,8.2H67.8z"/>
				</g>
				<path id="path3041" inkscape:connector-curvature="0" class="st2" d="M163.4,216.7h2.3v8.2h-2.3V216.7z"/>
				<g id="g3043" transform="translate(150.0308,113.292)">
					<path id="path3045" inkscape:connector-curvature="0" class="st2" d="M21.4,108.7l1.1-2.8h-2.1L21.4,108.7z M20.6,111.6
						c-0.1-0.1-3.4-7.9-3.5-8.2h2.4c0,0.1,0.3,0.9,0.3,0.9h3.3c0,0,0.3-0.8,0.3-0.9h2.4c-0.1,0.3-3.5,8.1-3.5,8.2H20.6z"/>
				</g>
				<g id="g3047" transform="translate(236.4702,113.292)">
					<path id="path3049" inkscape:connector-curvature="0" class="st2" d="M-47.3,108.7l1.1-2.8h-2.1L-47.3,108.7z M-48.1,111.6
						c-0.1-0.1-3.4-7.9-3.5-8.2h2.4c0,0.1,0.3,0.9,0.3,0.9h3.3c0,0,0.3-0.8,0.3-0.9h2.4c-0.1,0.3-3.5,8.1-3.5,8.2H-48.1z"/>
				</g>
				<g id="g3051" transform="translate(190.3306,128.0557)">
					<path id="path3053" inkscape:connector-curvature="0" class="st2" d="M-10.6,96.9c-2.1,0-3.1-0.7-3.1-2.1v-1
						c0-0.7,0.3-1.3,0.8-1.6c0.4-0.2,0.9-0.3,2.1-0.3h1.6c0.5,0,0.7-0.2,0.7-0.7v-0.1c0-0.5-0.2-0.7-0.7-0.7h-1.8
						c-0.3,0-0.4,0.1-0.6,0.2c-0.1,0.1-0.1,0.2-0.1,0.4c-0.2,0-1.9-0.1-2.1-0.1c0.3-1.7,1.1-2.3,3.1-2.3h1.3c2.1,0,3.1,0.7,3.1,2.1
						v1c0,0.8-0.3,1.3-0.8,1.6c-0.4,0.2-0.9,0.3-2.1,0.3h-1.6c-0.5,0-0.7,0.2-0.7,0.7v0.1c0,0.5,0.2,0.7,0.7,0.7h1.8
						c0.3,0,0.4-0.1,0.6-0.2c0.1-0.1,0.1-0.2,0.1-0.4c0.2,0,1.9,0.2,2.1,0.2c-0.3,1.6-1.1,2.2-3.1,2.2H-10.6z"/>
				</g>
				<g id="g3055" transform="translate(254.5483,127.7002)">
					<path id="path3057" inkscape:connector-curvature="0" class="st2" d="M-61.6,97.2v-2h2.9v-3.2v0v0v-3h2.3v6.2h2.9v2H-61.6z"/>
				</g>
				<g id="g3059" transform="translate(6.9985,60.9707)">
					<path id="path3061" inkscape:connector-curvature="0" class="st0" d="M135.1,150.2h8.5V148h-6v-2.3h5.3v-2.2h-5.3v-2.4h6.1V139
						h-8.5V150.2z"/>
				</g>
				<g id="g3063" transform="translate(101.458,60.9707)">
					<path id="path3065" inkscape:connector-curvature="0" class="st0" d="M60,150.2l-3.7-5.5l3.9-5.7h-2.9l-2.5,3.8l-2.5-3.8h-2.8
						l3.9,5.7l-3.7,5.5h2.9l2.3-3.6l2.4,3.6H60z"/>
				</g>
				<g id="g3067" transform="translate(127.5869,33.4365)">
					<path id="path3069" inkscape:connector-curvature="0" class="st0" d="M39.3,172.1c1.2,0,2,0.7,2,1.7v0c0,1.1-0.8,1.7-2,1.7
						h-1.9v-3.4H39.3z M34.9,177.8h4.6c2.7,0,4.3-1.6,4.3-3.9v0c0-2.6-2-3.9-4.5-3.9h-1.9v-3.4h-2.5V177.8L34.9,177.8z"/>
				</g>
				<g id="g3071" transform="translate(153.0142,60.9707)">
					<path id="path3073" inkscape:connector-curvature="0" class="st0" d="M19.1,150.2h2.5v-9h5.6V139h-8.1V150.2z"/>
				</g>
				<g id="g3075" transform="translate(237.7241,33.5137)">
					<path id="path3077" inkscape:connector-curvature="0" class="st0" d="M-48.3,172.1L-48.3,172.1c0,2-1.4,3.6-3.4,3.6
						c-2,0-3.4-1.6-3.4-3.5v0c0-1.9,1.4-3.5,3.4-3.5C-49.6,168.6-48.3,170.1-48.3,172.1 M-57.6,172.1L-57.6,172.1
						c0,3.2,2.5,5.8,6,5.8c3.5,0,5.9-2.6,5.9-5.8v0c0-3.2-2.5-5.8-6-5.8C-55.1,166.3-57.6,168.9-57.6,172.1"/>
				</g>
				<g id="g3079" transform="translate(279.9995,34.4502)">
					<path id="path3081" inkscape:connector-curvature="0" class="st0" d="M-81.9,171.3c1.2,0,1.9,0.6,1.9,1.6v0
						c0,1.1-0.7,1.6-1.9,1.6h-2.4v-3.2H-81.9z M-86.8,176.8h5.1c1.4,0,2.5-0.4,3.3-1.1c0.6-0.6,1-1.5,1-2.6v0c0-1.8-1-2.9-2.4-3.5
						l2.7-4H-80l-2.4,3.6h-1.9v-3.6h-2.5V176.8z"/>
				</g>
				<g id="g3083" transform="translate(307.064,60.9707)">
					<path id="path3085" inkscape:connector-curvature="0" class="st0" d="M-103.4,150.2h8.5V148h-6v-2.3h5.3v-2.2h-5.3v-2.4h6.1
						V139h-8.5V150.2z"/>
				</g>
			</g>
		</g>
	</g>
</g>
</svg>
