<?xml version="1.0" encoding="utf-8"?>
<!-- Generator: Adobe Illustrator 15.0.0, SVG Export Plug-In . SVG Version: 6.00 Build 0)  -->
<!DOCTYPE svg PUBLIC "-//W3C//DTD SVG 1.1//EN" "http://www.w3.org/Graphics/SVG/1.1/DTD/svg11.dtd">
<svg version="1.1" id="Layer_1" xmlns:svg="http://www.w3.org/2000/svg"
	 xmlns="http://www.w3.org/2000/svg" xmlns:xlink="http://www.w3.org/1999/xlink" x="0px" y="0px" width="110px" height="23.7px"
	 viewBox="238.5 59.2 110 23.7" style="enable-background:new 238.5 59.2 110 23.7;" xml:space="preserve">
<style type="text/css">
<![CDATA[
	.st0{fill:#85C555;}
	.st1{fill:#F7EF6E;}
	.st2{fill:#FBAC33;}
	.st3{fill:#FFFFFF;}
]]>
</style>
<g id="layer1" transform="translate(-7.7165905,-7.7208637)">
	<g id="g14697" transform="matrix(0.999985,0,0,0.999993,-50.25114,-390.7146)">
		<rect id="rect9314" x="296.4" y="466.7" class="st1" width="37.8" height="14.7"/>
		<path id="polyline9316" class="st2" d="M296.4,457.7v7.7h12.2v-7.7H296.4z M309.2,457.7v7.7h12.2v-7.7H309.2z M322,457.7v7.7h12.2
			v-7.7H322z M296.4,466.7v5.5c0.6,0.1,1.2,0.1,1.8,0c0.5-0.1,1.1-0.3,1.6-0.5c0.2,0.6,0.7,2.2,1.3,3.1c0.2,0.2,0.4,0.5,0.6,0.7
			c-0.3,0.5-0.5,0.9-0.7,1.4c-0.3-0.1-0.7-0.2-1-0.3c-1.2-0.2-2.9-0.1-3.5,0v0.3c0.5,0.3,1.9,1,3,1.2c-1.1,0.8-2.1,1.6-3,2.5v0.6
			c1-1.1,2.2-2.1,3.5-3c0.1,0,0.3,0,0.4,0c-0.3,0.8-0.6,1.6-0.9,2.4c-0.3,0.2-0.5,0.5-0.7,0.7h2.5c1.1-0.9,2.3-2.4,2.3-2.4l0.2-0.2
			l-0.2,0.1c-0.1,0-2.2,0.6-3.4,1.4c0,0-0.1,0-0.1,0.1c0.2-0.7,0.5-1.3,0.7-2c1.2,0,2.5-0.1,2.6-0.1l0.2,0l-0.2-0.1
			c-0.1,0-0.8-0.5-1.8-0.9c0.4-0.2,0.7-0.5,1.1-0.7c0.6,0.5,1,0.9,1.1,0.9l0.2,0.1l-0.1-0.2c0,0-0.2-0.6-0.4-1.3
			c0.3-0.2,0.6-0.4,1-0.5c0,0.9,0.1,1.7,0.1,1.7l0,0.2l0.1-0.2c0-0.1,0.6-1.1,1-2.1c0.3,0.4,0.5,0.7,0.8,1.1
			c-0.7,0.7-1.2,1.4-1.2,1.4l-0.1,0.2l0.2-0.1c0.1,0,0.9-0.2,1.8-0.6c0.3,0.4,0.5,0.8,0.8,1.2c-1.2,0-2.5,0.1-2.5,0.2l-0.2,0
			l0.2,0.1c0.1,0,2,1.1,3.4,1.4c0.1,0,0.1,0,0.2,0c0.2,0.4,0.5,0.9,0.7,1.3h0.4c-0.2-0.4-0.4-0.9-0.6-1.3c1.4,0.1,3-0.1,3.1-0.1
			l0.2,0l-0.2-0.1c-0.1,0-2-1.2-3.4-1.4c-0.2,0-0.5-0.1-0.7-0.1c-0.3-0.5-0.6-0.9-0.9-1.4c0.4-0.2,0.9-0.4,1.2-0.6
			c1.2-0.8,2.6-2.6,2.6-2.7l0.1-0.2l-0.2,0.1c-0.1,0-2.2,0.6-3.4,1.4c-0.4,0.3-0.8,0.6-1.1,1c-0.3-0.4-0.6-0.8-0.9-1.2c0,0,0,0,0,0
			c0.5-0.3,1-0.5,1.4-0.8c1.6-0.9,3.2-1.7,4.8-2.6c1.5,2,2.2,5.9,5.3,7.6c2.3,1.3,5.3,1,7.8,0.3c0.3,0.7,0.6,1.5,0.9,2.2h0.4
			c-0.3-0.8-0.6-1.6-0.9-2.3c2.9-0.8,5.3-2.2,5.3-2.2c-2,0.4-4.4-0.3-7.1-1.4c-0.6-1-1.2-2.1-1.8-3.1c-0.1-0.1-0.1-0.2-0.2-0.3
			c2-0.2,3.9-0.2,5.9-2.4c0.7-0.8,1.1-1.7,1.4-2.8c0.5,0.4,1,0.8,1.6,1.2c-0.7,3.2,0.2,6.5,0.9,9c-1.2,1.4-2.2,2.8-2.9,4.4h0.4
			c0.7-1.4,1.6-2.7,2.6-3.9c0.1,0.3,0.1,0.6,0.2,0.8c0,0,0.7-1.1,1.4-2.6c0.3-0.3,0.6-0.6,0.9-0.9v-8h-3.5l0.2,0.6
			c0,0.1-0.1,0.3-0.1,0.4c-0.4-0.3-0.9-0.6-1.3-1h-4.5c-0.2,0.3-0.4,0.6-0.6,0.9c-1.1,1.5-2.2,2.7-3.2,3.5c-0.9-1.5-1.7-2.9-2.4-4.4
			h-0.4c0.7,1.6,1.6,3.1,2.5,4.7c-1,0.8-1.7,1.2-1.8,1.3c0.8-0.3,1.5-0.5,2.3-0.6c0.1,0.1,0.2,0.3,0.3,0.4c0.5,0.9,1,1.7,1.5,2.6
			c-2.2-0.9-4.6-2-7.2-3c-1.1-0.4-2.4-0.9-3.5-1.3c2.1-1.3,4-2.6,5.5-4.3h-0.5c-1.5,1.5-3.4,2.8-5.4,4.1c-0.6-0.2-1-0.4-1-0.4
			c0.3,0.1,0.5,0.3,0.7,0.6c-1.5,0.9-3.1,1.7-4.7,2.6c-0.4,0.2-0.7,0.4-1.1,0.6c0-0.1,0.1-0.2,0.1-0.3c0.3-1.4,0-3.6,0-3.7l0-0.2
			L306,470c0,0.1-0.9,1.7-1.3,3c-0.1-0.2-0.3-0.3-0.4-0.5c-0.1-0.1-0.2-0.2-0.3-0.4c0,0,0,0,0-0.1c1-1.8,2.1-3.5,2.9-5.4h-0.4
			c-0.8,1.8-1.8,3.5-2.8,5.2c-0.5-0.6-1-1.3-1.5-1.9c1.1-1,2-2.1,2.9-3.3H296.4z M308.1,466.7c1.1,1.5,1.9,3,2.1,4
			c0,0-0.1-1.8-0.6-4H308.1z M302,470.2c0.5,0.7,1,1.3,1.6,2c-0.3,0.6-0.7,1.1-1,1.7c0,0,0,0,0-0.1c-0.6-0.9-1.8-2-2.4-2.4
			C300.8,471.1,301.4,470.7,302,470.2z M303.8,472.5c0.1,0.1,0.1,0.2,0.2,0.2c0.2,0.2,0.4,0.5,0.6,0.7c-0.1,0.5-0.1,1-0.1,1.5
			c-0.4,0.2-0.7,0.4-1.1,0.6c-0.2-0.5-0.4-0.9-0.6-1.4C303.1,473.7,303.5,473.1,303.8,472.5z M302,475.7c0.1,0.2,0.3,0.3,0.4,0.4
			c-0.3,0.2-0.7,0.4-1,0.6C301.6,476.4,301.8,476.1,302,475.7z M304.5,477.5c-0.4,0-0.7,0.3-0.8,0.6c-0.1,0.4,0.2,0.9,0.6,0.9
			c0.4,0.1,0.9-0.2,0.9-0.6c0.1-0.4-0.2-0.9-0.6-0.9C304.6,477.5,304.5,477.5,304.5,477.5z M305,479l0.1,0.2c0,0.1,0.3,1.1,0.7,2.1
			h1.8c-0.9-1.1-2.3-2.1-2.4-2.2L305,479z M304.3,479.1l-0.1,0.2c0,0.1-0.6,1-1,2h1.3c0-1-0.1-2-0.2-2L304.3,479.1z"/>
		<path id="rect9312" class="st3" d="M335.5,457.7v23.7h70.9v-23.7H335.5z M298.4,459.4v4.1h3v-1.4h0.6l1.6,1.4h3.2l-2-1.4l0.1,0
			c0.6,0,1.3-0.6,1.3-1.3c0-1-0.7-1.4-1.4-1.4H298.4z M319.2,459.4l-7.9,0v1h2.3l0,3.2h3.3v-3.2h2.3V459.4L319.2,459.4z
			 M324.1,459.5v4.1h8v-1h-4.5v-3.2H324.1z M302.8,460.4c0.3,0,0.4,0.2,0.4,0.4c0,0.3-0.2,0.4-0.4,0.5h-1.4v-0.9L302.8,460.4
			L302.8,460.4z"/>
		<path id="path9330" class="st0" d="M335.5,457.7v23.7h56.2l0.5-2c0,0,1.5,0.9,3.1,0.8c0.7,0,1.7-0.4,2-1.5l1.1-3c0,0-1.7,2-4,0.8
			c-2-1-1.4-3.1-1.2-4.2l0.9-3.9c0.5-2.4,2.4-3.7,5.1-3.7c1.2,0,2.3,0.7,2.9,1.2c0.9,0.8,2.1,0.7,2.1,0.7s-0.3,0.6-0.4,1.4
			l-2.6,10.5c-0.1,0.6-0.5,1.9-1.5,3h6.9v-23.7H335.5z M355.6,460.8c1.1,0,1.8,0.7,1.7,1.6c-0.2,0.9-1.2,1.6-2.3,1.6
			c-1.1,0-1.8-0.7-1.6-1.6C353.5,461.5,354.5,460.8,355.6,460.8z M376.5,460.8c1.1,0,1.8,0.7,1.7,1.6c-0.2,0.9-1.2,1.6-2.3,1.6
			c-1.1,0-1.8-0.7-1.6-1.6C374.4,461.5,375.4,460.8,376.5,460.8z M342.4,461.8h3.6l-2.8,12.7h4.5l-0.6,2.8h-8.1L342.4,461.8z
			 M386.7,464.5c0.3,0,0.7,0,1,0.1c1.9,0.3,3,1.9,2.4,4.8l-1.7,7.8h-3.7l1.8-8.3c0.2-0.8,0.2-1.6-0.7-1.6c-0.9,0-1.3,0.7-1.5,1.6
			l-1.8,8.3h-3.6c2-9.6,2.1-9.8,2.1-9.8c0.1-0.4,0-1,0-1s0.9,0.3,2.8-1C384.8,464.9,385.7,464.5,386.7,464.5z M359.7,464.9h3.7
			l0.2,6.9c0,0.3,0.2,0.3,0.4,0.1l3.1-6.9h3.8l-6.6,12.4h-3.6L359.7,464.9z M353.1,465h3.6l-2.7,12.2h-3.6L353.1,465z M374,465h3.6
			l-2.7,12.2h-3.6L374,465z M398.8,467.3c-0.8,0-1,0.7-1.3,1.7l-0.7,3.2c-0.3,1.3,0.2,1.8,0.8,1.8c0.9,0,1.2-0.8,1.3-1.8l0.7-3.3
			C399.9,468,399.7,467.3,398.8,467.3z"/>
	</g>
</g>
</svg>
