<?xml version="1.0" encoding="utf-8"?>
<!-- Generator: Adobe Illustrator 15.0.0, SVG Export Plug-In . SVG Version: 6.00 Build 0)  -->
<!DOCTYPE svg PUBLIC "-//W3C//DTD SVG 1.1//EN" "http://www.w3.org/Graphics/SVG/1.1/DTD/svg11.dtd">
<svg version="1.1"
	 id="svg2" inkscape:version="0.48.2 r9819" sodipodi:docname="13th Street Universal HD.svg" xmlns:dc="http://purl.org/dc/elements/1.1/" xmlns:cc="http://creativecommons.org/ns#" xmlns:rdf="http://www.w3.org/1999/02/22-rdf-syntax-ns#" xmlns:svg="http://www.w3.org/2000/svg" xmlns:sodipodi="http://sodipodi.sourceforge.net/DTD/sodipodi-0.dtd" xmlns:inkscape="http://www.inkscape.org/namespaces/inkscape"
	 xmlns="http://www.w3.org/2000/svg" xmlns:xlink="http://www.w3.org/1999/xlink" x="0px" y="0px" width="24.178px" height="28px"
	 viewBox="280.799 325.192 24.178 28" style="enable-background:new 280.799 325.192 24.178 28;" xml:space="preserve">
<sodipodi:namedview  id="namedview45" inkscape:current-layer="svg2" inkscape:window-y="-8" inkscape:window-x="-8" fit-margin-bottom="0" fit-margin-right="0" inkscape:window-height="1004" inkscape:window-width="1280" inkscape:pageshadow="2" inkscape:pageopacity="0" inkscape:window-maximized="1" inkscape:cy="161.85197" borderopacity="1" inkscape:cx="269.97148" bordercolor="#666666" showgrid="false" pagecolor="#ffffff" inkscape:zoom="0.69513991" guidetolerance="10" gridtolerance="10" fit-margin-left="0" objecttolerance="10" fit-margin-top="0">
	</sodipodi:namedview>
<g id="_x23_000000ff" transform="translate(-33.41,-29.322193)">
	<path id="path5" inkscape:connector-curvature="0" d="M326.497,354.582c0.044-0.056,0.122-0.105,0.172-0.025
		c0.593,0.593,1.187,1.187,1.783,1.778c0.033,0.039,0.117,0.102,0.049,0.151c-3.89,3.9-7.778,7.804-11.664,11.708
		c-0.232,0.219-0.435,0.47-0.686,0.668c-0.662-0.63-1.281-1.306-1.942-1.937c0.713-0.751,1.472-1.459,2.176-2.218
		c0.268-0.232,0.51-0.492,0.763-0.741C320.264,360.838,323.378,357.708,326.497,354.582z"/>
	<path id="path7" inkscape:connector-curvature="0" d="M328.759,358.768c0.771-0.122,1.584-0.048,2.299,0.282
		c0.97,0.43,1.75,1.271,2.106,2.271c0.279,0.803,0.257,1.701-0.021,2.5c-0.352,0.891-1.029,1.598-1.688,2.274
		c-0.498,0.497-0.987,1.012-1.569,1.415c-0.283,0.185-0.6,0.34-0.941,0.371c-0.362,0.042-0.725-0.024-1.079-0.088
		c0.099,0.519,0.146,1.08-0.058,1.58c-0.249,0.61-0.726,1.083-1.174,1.55c-0.204,0.226-0.441,0.421-0.61,0.675
		c-0.109,0.098-0.235,0.176-0.338,0.281c-0.514,0.504-1.039,1.006-1.654,1.386c-0.726,0.399-1.586,0.517-2.402,0.409
		c-0.937-0.15-1.771-0.713-2.373-1.432c-0.598-0.716-0.945-1.639-0.946-2.572c0.041-0.38,0.09-0.765,0.233-1.122
		c0.213-0.559,0.564-1.057,0.984-1.48c0.384-0.382,0.765-0.768,1.149-1.149c0.627,0.645,1.266,1.28,1.905,1.915
		c0.038,0.042,0.125,0.108,0.054,0.165c-0.343,0.367-0.715,0.705-1.056,1.073c-0.172,0.193-0.312,0.438-0.313,0.703
		c-0.055,0.605,0.571,1.178,1.171,1.043c0.301-0.076,0.553-0.271,0.76-0.495c0.542-0.542,1.081-1.088,1.626-1.627
		c0.252-0.257,0.526-0.522,0.63-0.877c0.055-0.17-0.001-0.349-0.077-0.502c-0.205-0.397-0.537-0.704-0.838-1.025
		c-0.06-0.049,0.024-0.104,0.053-0.141c0.572-0.573,1.14-1.151,1.717-1.719c0.311,0.309,0.613,0.635,0.994,0.858
		c0.179,0.105,0.397,0.171,0.603,0.105c0.292-0.091,0.52-0.309,0.732-0.518c0.489-0.491,0.977-0.983,1.468-1.472
		c0.174-0.167,0.341-0.359,0.392-0.601c0.174-0.705-0.612-1.463-1.307-1.2c-0.193,0.063-0.36,0.187-0.502,0.332
		c-0.316,0.319-0.637,0.636-0.95,0.958c-0.041,0.036-0.105,0.126-0.16,0.054c-0.654-0.658-1.314-1.313-1.962-1.978
		c0.4-0.387,0.79-0.787,1.179-1.185C327.327,359.258,328.022,358.903,328.759,358.768L328.759,358.768z"/>
	<path id="path9" inkscape:connector-curvature="0" d="M334.907,363.674c0.137-0.142,0.258-0.306,0.427-0.413
		c0.447,0.425,0.876,0.872,1.314,1.307c-0.131,0.133-0.249,0.279-0.396,0.394c-0.017,0-0.048-0.003-0.064-0.004
		c-0.137-0.113-0.25-0.25-0.378-0.373c-0.632,0.634-1.258,1.275-1.89,1.909c-0.047,0.052-0.13,0.118-0.192,0.049
		c-0.148-0.14-0.298-0.281-0.428-0.438c0.65-0.686,1.332-1.345,1.998-2.018C335.174,363.944,335.04,363.81,334.907,363.674
		L334.907,363.674z"/>
	<path id="path11" inkscape:connector-curvature="0" d="M334.496,367.303c0.818-0.811,1.622-1.636,2.441-2.446
		c0.174,0.166,0.343,0.336,0.504,0.515c-0.323,0.313-0.646,0.627-0.952,0.957c0.088,0.182,0.274,0.296,0.408,0.445
		c0.34-0.308,0.651-0.646,0.977-0.97c0.175,0.166,0.344,0.338,0.513,0.511c-0.815,0.807-1.613,1.632-2.435,2.432
		c-0.201-0.126-0.339-0.33-0.519-0.482c0.341-0.36,0.704-0.7,1.043-1.063c-0.135-0.136-0.257-0.286-0.414-0.395
		c-0.076-0.006-0.121,0.071-0.176,0.111c-0.3,0.299-0.595,0.603-0.896,0.9C334.829,367.644,334.657,367.478,334.496,367.303
		L334.496,367.303z"/>
	<path id="path13" inkscape:connector-curvature="0" d="M332.762,366.627c0.071-0.058,0.16-0.211,0.254-0.097
		c0.136,0.145,0.325,0.269,0.404,0.45c-0.119,0.15-0.269,0.273-0.399,0.415c0.146,0.146,0.294,0.291,0.449,0.427
		c0.543,0.597,1.144,1.141,1.691,1.733c-0.184,0.183-0.367,0.365-0.552,0.547c-0.729-0.702-1.429-1.435-2.151-2.142
		c-0.144,0.14-0.284,0.282-0.424,0.425c-0.171-0.168-0.344-0.335-0.508-0.511C331.931,367.451,332.355,367.048,332.762,366.627
		L332.762,366.627z"/>
	<path id="path15" inkscape:connector-curvature="0" d="M330.001,369.413c0.421-0.42,0.834-0.848,1.261-1.261
		c0.165,0.167,0.333,0.332,0.5,0.497c-0.227,0.244-0.469,0.471-0.698,0.711c0.176,0.18,0.356,0.354,0.528,0.537
		c0.223-0.201,0.42-0.428,0.646-0.625c0.163,0.161,0.329,0.321,0.48,0.494c-0.204,0.213-0.415,0.419-0.623,0.627
		c0.2,0.205,0.4,0.409,0.61,0.605c0.233-0.213,0.433-0.465,0.681-0.662l0.039-0.009c0.171,0.148,0.322,0.318,0.481,0.479
		c-0.395,0.402-0.794,0.801-1.189,1.201c-0.074,0.075-0.158-0.019-0.211-0.071C331.676,371.091,330.835,370.255,330.001,369.413
		L330.001,369.413z"/>
	<path id="path17" inkscape:connector-curvature="0" d="M329.344,370.073c0.118-0.117,0.224-0.248,0.363-0.34
		c0.163,0.162,0.341,0.313,0.476,0.5c-0.212,0.244-0.458,0.456-0.683,0.688c0.175,0.186,0.357,0.363,0.537,0.544
		c0.21-0.194,0.391-0.423,0.617-0.602c0.123,0.046,0.2,0.171,0.3,0.254c0.063,0.075,0.168,0.131,0.186,0.234
		c-0.19,0.218-0.417,0.402-0.605,0.622c0.206,0.181,0.382,0.393,0.589,0.573l0.032,0.003c0.253-0.21,0.453-0.479,0.713-0.683
		c0.14,0.188,0.31,0.351,0.465,0.526c-0.425,0.413-0.831,0.846-1.263,1.254c-0.862-0.905-1.773-1.765-2.632-2.675
		C328.75,370.682,329.045,370.376,329.344,370.073L329.344,370.073z"/>
	<path id="path19" inkscape:connector-curvature="0" d="M327.333,372.085c0.239-0.254,0.555-0.521,0.932-0.434
		c0.398,0.111,0.699,0.438,0.919,0.773c0.103,0.146,0.081,0.328,0.074,0.495c0.352-0.071,0.636,0.196,0.868,0.421
		c0.207,0.221,0.461,0.391,0.734,0.521c-0.188,0.207-0.394,0.399-0.589,0.602c-0.279-0.128-0.502-0.339-0.71-0.559
		c-0.145-0.143-0.328-0.329-0.552-0.26c-0.122,0.063-0.213,0.169-0.313,0.261c0.359,0.351,0.711,0.71,1.063,1.067
		c-0.19,0.178-0.354,0.386-0.564,0.541c-0.054-0.033-0.103-0.075-0.147-0.119c-0.725-0.735-1.461-1.459-2.184-2.197
		c-0.101-0.104-0.206-0.204-0.313-0.301C326.785,372.601,327.078,372.361,327.333,372.085 M327.579,372.776
		c0.207,0.236,0.441,0.447,0.656,0.677c0.137-0.142,0.347-0.267,0.366-0.478c-0.075-0.216-0.271-0.372-0.449-0.504
		C327.899,372.372,327.738,372.63,327.579,372.776L327.579,372.776z"/>
	<path id="path21" inkscape:connector-curvature="0" d="M324.914,374.521c0.46-0.471,0.923-0.941,1.398-1.396
		c0.174,0.152,0.377,0.305,0.48,0.513c-0.125,0.141-0.269,0.264-0.393,0.407c0.71,0.711,1.426,1.418,2.127,2.137
		c-0.154,0.211-0.351,0.399-0.555,0.563c-0.713-0.71-1.42-1.426-2.132-2.136c-0.146,0.133-0.284,0.272-0.417,0.418
		C325.245,374.867,325.06,374.711,324.914,374.521L324.914,374.521z"/>
	<path id="path23" inkscape:connector-curvature="0" d="M323.87,375.531c0.203-0.277,0.477-0.57,0.845-0.584
		c0.351,0,0.628,0.252,0.856,0.489c-0.172,0.175-0.346,0.347-0.514,0.523c-0.156-0.105-0.284-0.312-0.496-0.283
		c-0.143,0.041-0.246,0.19-0.19,0.34c0.097,0.176,0.289,0.311,0.496,0.285c0.397-0.026,0.779-0.196,1.182-0.157
		c0.494,0.037,0.897,0.435,1.063,0.884c0.129,0.324-0.04,0.68-0.256,0.926c-0.209,0.23-0.464,0.491-0.801,0.479
		c-0.408,0.02-0.714-0.301-0.98-0.566c0.173-0.174,0.337-0.356,0.521-0.519c0.164,0.059,0.241,0.252,0.402,0.327
		c0.191,0.141,0.494-0.085,0.426-0.309c-0.081-0.263-0.357-0.438-0.626-0.431c-0.38,0.044-0.75,0.195-1.139,0.155
		c-0.384-0.036-0.705-0.314-0.884-0.643C323.611,376.16,323.674,375.789,323.87,375.531L323.87,375.531z"/>
	<path id="path25" inkscape:connector-curvature="0" d="M325.591,380.485c0.138,0.01,0.271-0.029,0.397-0.079
		c-0.002,0.203-0.001,0.405-0.004,0.608c-0.093-0.045-0.181-0.115-0.289-0.113c-0.361-0.007-0.722,0-1.083,0
		c-0.001,0.1-0.002,0.199-0.003,0.3c0.313-0.008,0.642,0.057,0.938-0.076c0.002,0.189,0.002,0.379,0.001,0.568
		c-0.297-0.128-0.626-0.07-0.939-0.075c0.002,0.125,0.004,0.251,0.008,0.377c0.359-0.007,0.718,0.001,1.078-0.003
		c0.114,0.013,0.191-0.082,0.28-0.135c0.014,0.215,0.011,0.432,0.01,0.647c-0.107-0.054-0.217-0.116-0.342-0.106
		c-0.586,0.003-1.173-0.002-1.76,0.006c0.049-0.094,0.118-0.186,0.111-0.296c0.004-0.432,0-0.864,0.001-1.296
		c0.009-0.124-0.057-0.231-0.11-0.337C324.454,380.493,325.023,380.478,325.591,380.485L325.591,380.485z"/>
	<path id="path27" inkscape:connector-curvature="0" d="M314.914,380.475c0.253,0.011,0.507,0.01,0.761,0.001
		c-0.063,0.12-0.107,0.25-0.095,0.389c0.012,0.286-0.022,0.577,0.019,0.862c0.099,0.252,0.426,0.252,0.645,0.188
		c0.209-0.092,0.205-0.339,0.196-0.531c-0.018-0.302,0.052-0.62-0.083-0.902c0.243,0.003,0.487,0.006,0.73-0.004
		c-0.16,0.434-0.017,0.904-0.094,1.351c-0.054,0.233-0.226,0.431-0.449,0.517c-0.343,0.136-0.745,0.137-1.085-0.009
		c-0.238-0.096-0.42-0.331-0.436-0.59c-0.015-0.328,0.008-0.655-0.006-0.983C315.015,380.657,314.956,380.567,314.914,380.475
		L314.914,380.475z"/>
	<path id="path29" inkscape:connector-curvature="0" d="M317.489,380.478c0.356,0.008,0.712-0.001,1.068,0.009
		c-0.029,0.057-0.059,0.114-0.087,0.172c0.231,0.247,0.445,0.512,0.698,0.737c-0.004-0.305,0.08-0.641-0.096-0.914
		c0.263,0.002,0.525,0.001,0.788-0.004c-0.056,0.104-0.141,0.206-0.127,0.333c0,0.433-0.002,0.865,0.001,1.297
		c-0.01,0.115,0.073,0.204,0.124,0.299c-0.275-0.01-0.551-0.011-0.826,0.002c0.031-0.067,0.063-0.133,0.095-0.199
		c-0.316-0.34-0.648-0.666-0.958-1.012c0.002,0.304,0,0.606,0.002,0.909c-0.006,0.109,0.05,0.205,0.089,0.303
		c-0.254-0.015-0.509-0.012-0.764-0.004c0.048-0.096,0.126-0.185,0.12-0.298c0.004-0.432,0-0.863,0.002-1.295
		C317.631,380.685,317.545,380.584,317.489,380.478L317.489,380.478z"/>
	<path id="path31" inkscape:connector-curvature="0" d="M321.414,380.481c0.284,0.002,0.568,0.003,0.854,0.001
		c-0.027,0.081-0.098,0.161-0.059,0.25c0.104,0.292,0.198,0.59,0.33,0.87c0.134-0.278,0.24-0.57,0.364-0.854
		c0.058-0.092-0.004-0.188-0.033-0.277c0.247,0.016,0.495,0.011,0.742,0.012c-0.109,0.194-0.203,0.397-0.278,0.607
		c-0.126,0.35-0.297,0.683-0.417,1.035c-0.044,0.093,0.007,0.189,0.024,0.282c-0.303-0.012-0.605-0.014-0.908,0.001
		c0.091-0.224-0.04-0.439-0.105-0.649C321.769,381.33,321.666,380.871,321.414,380.481L321.414,380.481z"/>
	<path id="path33" inkscape:connector-curvature="0" d="M329.3,380.562c0.371-0.17,0.792-0.104,1.178-0.026
		c0.125,0.031,0.254,0.016,0.38-0.004c-0.082,0.2-0.174,0.396-0.263,0.593c-0.284-0.276-0.731-0.283-1.087-0.164
		c0.001,0.043,0.004,0.129,0.005,0.171c0.36,0.104,0.754,0.071,1.097,0.243c0.208,0.094,0.319,0.357,0.232,0.571
		c-0.085,0.264-0.354,0.412-0.612,0.461c-0.365,0.086-0.736-0.012-1.092-0.093c-0.104-0.032-0.211-0.008-0.313,0.014
		c0.058-0.202,0.112-0.403,0.171-0.604c0.251,0.264,0.641,0.283,0.981,0.281c0.117-0.002,0.331-0.05,0.277-0.208
		c-0.273-0.17-0.618-0.105-0.918-0.199c-0.221-0.049-0.474-0.215-0.452-0.472C328.874,380.868,329.084,380.666,329.3,380.562
		L329.3,380.562z"/>
	<path id="path35" inkscape:connector-curvature="0" d="M320.26,380.484c0.287-0.003,0.573,0.001,0.86-0.005
		c-0.053,0.104-0.117,0.209-0.104,0.331c0.014,0.53-0.024,1.063,0.027,1.591c-0.236-0.003-0.473-0.003-0.708,0.002
		c0.117-0.238,0.068-0.507,0.077-0.762c-0.007-0.319,0.013-0.639-0.007-0.957C320.365,380.611,320.308,380.55,320.26,380.484z"/>
	<path id="path37" inkscape:connector-curvature="0" d="M326.36,380.502c0.396-0.039,0.793-0.007,1.191-0.02
		c0.247,0.001,0.533-0.008,0.724,0.178c0.229,0.19,0.263,0.57,0.069,0.798c-0.09,0.105-0.217,0.169-0.335,0.238
		c0.163,0.243,0.311,0.501,0.529,0.7c-0.308,0.008-0.615,0-0.923,0.008c0.03-0.06,0.062-0.119,0.092-0.179
		c-0.109-0.172-0.186-0.367-0.325-0.519c-0.113-0.012-0.229-0.009-0.343-0.01c0.001,0.239-0.053,0.502,0.096,0.711
		c-0.252-0.011-0.505-0.01-0.758-0.003c0.054-0.109,0.105-0.224,0.096-0.348c-0.003-0.432,0.003-0.863-0.002-1.295
		C326.475,380.662,326.404,380.585,326.36,380.502 M327.033,380.9c0.001,0.142,0.002,0.283,0.007,0.426
		c0.236-0.013,0.48,0.027,0.71-0.033c0.183-0.063,0.173-0.318-0.004-0.385C327.51,380.881,327.27,380.901,327.033,380.9z"/>
	<path id="path39" inkscape:connector-curvature="0" d="M331.796,380.485c0.283-0.002,0.565-0.002,0.848,0
		c0.003,0.314,0.203,0.57,0.318,0.851c0.181,0.354,0.322,0.727,0.53,1.065c-0.236,0-0.473-0.005-0.708,0.005
		c-0.001-0.135-0.016-0.288-0.127-0.38c-0.312-0.02-0.625-0.004-0.938-0.003c-0.06,0.118-0.099,0.247-0.075,0.38
		c-0.219-0.005-0.438-0.003-0.657,0.001c0.22-0.373,0.363-0.784,0.552-1.172C331.644,380.991,331.784,380.755,331.796,380.485
		 M332.202,381.005c-0.121,0.221-0.22,0.453-0.318,0.684c0.203-0.004,0.408-0.003,0.612-0.003
		C332.42,381.45,332.304,381.23,332.202,381.005z"/>
	<path id="path41" inkscape:connector-curvature="0" d="M333.77,380.481c0.27,0.004,0.54,0.002,0.811,0.002
		c-0.042,0.091-0.115,0.175-0.108,0.281c-0.006,0.392-0.001,0.784,0,1.176c0.324-0.004,0.649,0.002,0.975,0
		c0.109,0.006,0.209-0.044,0.309-0.081c-0.007,0.219-0.003,0.438,0.017,0.655c-0.116-0.063-0.239-0.13-0.377-0.116
		c-0.548,0.006-1.097-0.007-1.645,0.009c0.051-0.094,0.127-0.185,0.115-0.299c0-0.431,0-0.862,0.001-1.293
		C333.875,380.694,333.813,380.588,333.77,380.481L333.77,380.481z"/>
</g>
</svg>
