<?xml version="1.0" encoding="utf-8"?>
<!-- Generator: Adobe Illustrator 15.0.0, SVG Export Plug-In . SVG Version: 6.00 Build 0)  -->
<!DOCTYPE svg PUBLIC "-//W3C//DTD SVG 1.1//EN" "http://www.w3.org/Graphics/SVG/1.1/DTD/svg11.dtd">
<svg version="1.1"
	 id="svg2" sodipodi:docname="13th Street Universal HD.svg" inkscape:version="0.48.2 r9819" xmlns:inkscape="http://www.inkscape.org/namespaces/inkscape" xmlns:sodipodi="http://sodipodi.sourceforge.net/DTD/sodipodi-0.dtd" xmlns:svg="http://www.w3.org/2000/svg" xmlns:rdf="http://www.w3.org/1999/02/22-rdf-syntax-ns#" xmlns:cc="http://creativecommons.org/ns#" xmlns:dc="http://purl.org/dc/elements/1.1/"
	 xmlns="http://www.w3.org/2000/svg" xmlns:xlink="http://www.w3.org/1999/xlink" x="0px" y="0px" width="43.17px" height="50px"
	 viewBox="271.3 314.19 43.17 50" style="enable-background:new 271.3 314.19 43.17 50;" xml:space="preserve">
<sodipodi:namedview  id="namedview45" inkscape:window-maximized="1" inkscape:current-layer="svg2" inkscape:window-y="-8" inkscape:pageopacity="0" inkscape:pageshadow="2" inkscape:window-width="1280" inkscape:window-height="1004" fit-margin-right="0" fit-margin-bottom="0" inkscape:window-x="-8" fit-margin-top="0" objecttolerance="10" fit-margin-left="0" gridtolerance="10" guidetolerance="10" inkscape:zoom="0.69513991" pagecolor="#ffffff" showgrid="false" bordercolor="#666666" inkscape:cx="269.97148" borderopacity="1" inkscape:cy="161.85197">
	</sodipodi:namedview>
<g id="_x23_000000ff" transform="translate(-33.41,-29.322193)">
	<path id="path5" inkscape:connector-curvature="0" d="M326.65,343.63c0.08-0.1,0.22-0.19,0.31-0.05c1.06,1.06,2.12,2.12,3.18,3.17
		c0.06,0.07,0.21,0.18,0.09,0.27c-6.95,6.96-13.89,13.94-20.83,20.91c-0.41,0.39-0.78,0.84-1.23,1.19
		c-1.18-1.13-2.29-2.33-3.47-3.46c1.27-1.34,2.63-2.61,3.89-3.96c0.48-0.42,0.91-0.88,1.36-1.32
		C315.52,354.81,321.08,349.22,326.65,343.63z"/>
	<path id="path7" inkscape:connector-curvature="0" d="M330.69,351.11c1.38-0.22,2.83-0.09,4.11,0.5c1.73,0.77,3.13,2.27,3.76,4.05
		c0.5,1.43,0.46,3.04-0.04,4.46c-0.63,1.59-1.84,2.85-3.01,4.06c-0.89,0.89-1.76,1.81-2.8,2.53c-0.51,0.33-1.07,0.61-1.68,0.66
		c-0.65,0.07-1.29-0.04-1.93-0.16c0.18,0.93,0.26,1.93-0.1,2.82c-0.44,1.09-1.3,1.93-2.1,2.77c-0.36,0.4-0.79,0.75-1.09,1.21
		c-0.19,0.17-0.42,0.31-0.6,0.5c-0.92,0.9-1.85,1.8-2.95,2.47c-1.3,0.71-2.83,0.92-4.29,0.73c-1.67-0.27-3.16-1.27-4.24-2.56
		c-1.07-1.28-1.69-2.93-1.69-4.59c0.07-0.68,0.16-1.37,0.42-2c0.38-1,1.01-1.89,1.76-2.64c0.69-0.68,1.37-1.37,2.05-2.05
		c1.12,1.15,2.26,2.29,3.4,3.42c0.07,0.08,0.22,0.19,0.1,0.29c-0.61,0.65-1.28,1.26-1.89,1.92c-0.31,0.35-0.56,0.78-0.56,1.26
		c-0.1,1.08,1.02,2.1,2.09,1.86c0.54-0.14,0.99-0.48,1.36-0.88c0.97-0.97,1.93-1.94,2.9-2.91c0.45-0.46,0.94-0.93,1.13-1.57
		c0.1-0.3,0-0.62-0.14-0.9c-0.37-0.71-0.96-1.26-1.5-1.83c-0.11-0.09,0.04-0.19,0.09-0.25c1.02-1.02,2.03-2.05,3.07-3.07
		c0.55,0.55,1.1,1.13,1.78,1.53c0.32,0.19,0.71,0.31,1.08,0.19c0.52-0.16,0.93-0.55,1.31-0.93c0.87-0.88,1.74-1.75,2.62-2.63
		c0.31-0.3,0.61-0.64,0.7-1.07c0.31-1.26-1.09-2.61-2.33-2.14c-0.35,0.11-0.64,0.33-0.9,0.59c-0.57,0.57-1.14,1.14-1.7,1.71
		c-0.07,0.06-0.19,0.23-0.29,0.1c-1.17-1.18-2.35-2.35-3.5-3.53c0.71-0.69,1.41-1.4,2.1-2.12
		C328.14,351.99,329.38,351.35,330.69,351.11L330.69,351.11z"/>
	<path id="path9" inkscape:connector-curvature="0" d="M341.67,359.87c0.24-0.25,0.46-0.55,0.76-0.74c0.8,0.76,1.56,1.56,2.35,2.33
		c-0.23,0.24-0.44,0.5-0.71,0.7c-0.03,0-0.09-0.01-0.12-0.01c-0.24-0.2-0.45-0.45-0.67-0.67c-1.13,1.13-2.25,2.28-3.37,3.41
		c-0.08,0.09-0.23,0.21-0.34,0.09c-0.27-0.25-0.53-0.5-0.76-0.78c1.16-1.22,2.38-2.4,3.57-3.6
		C342.15,360.35,341.91,360.11,341.67,359.87L341.67,359.87z"/>
	<path id="path11" inkscape:connector-curvature="0" d="M340.94,366.35c1.46-1.45,2.9-2.92,4.36-4.37c0.31,0.3,0.61,0.6,0.9,0.92
		c-0.58,0.56-1.15,1.12-1.7,1.71c0.16,0.32,0.49,0.53,0.73,0.79c0.61-0.55,1.16-1.15,1.74-1.73c0.31,0.3,0.61,0.6,0.92,0.91
		c-1.46,1.44-2.88,2.91-4.35,4.34c-0.36-0.23-0.61-0.59-0.93-0.86c0.61-0.64,1.26-1.25,1.86-1.9c-0.24-0.24-0.46-0.51-0.74-0.71
		c-0.14-0.01-0.22,0.13-0.31,0.2c-0.54,0.53-1.06,1.08-1.6,1.61C341.53,366.96,341.23,366.66,340.94,366.35L340.94,366.35z"/>
	<path id="path13" inkscape:connector-curvature="0" d="M337.84,365.14c0.13-0.1,0.29-0.38,0.45-0.17c0.24,0.26,0.58,0.48,0.72,0.8
		c-0.21,0.27-0.48,0.49-0.71,0.74c0.26,0.26,0.52,0.52,0.8,0.76c0.97,1.07,2.04,2.04,3.02,3.1c-0.33,0.33-0.66,0.65-0.99,0.98
		c-1.3-1.25-2.55-2.56-3.84-3.83c-0.26,0.25-0.51,0.5-0.76,0.76c-0.3-0.3-0.61-0.6-0.91-0.91
		C336.36,366.62,337.12,365.9,337.84,365.14L337.84,365.14z"/>
	<path id="path15" inkscape:connector-curvature="0" d="M332.91,370.12c0.75-0.75,1.49-1.51,2.25-2.25c0.29,0.3,0.59,0.59,0.89,0.89
		c-0.4,0.44-0.84,0.84-1.25,1.27c0.31,0.32,0.64,0.63,0.94,0.96c0.4-0.36,0.75-0.76,1.15-1.12c0.29,0.29,0.59,0.57,0.86,0.88
		c-0.36,0.38-0.74,0.75-1.11,1.12c0.36,0.37,0.71,0.73,1.09,1.08c0.42-0.38,0.77-0.83,1.22-1.18l0.07-0.02
		c0.31,0.26,0.58,0.57,0.86,0.86c-0.71,0.72-1.42,1.43-2.12,2.14c-0.13,0.13-0.28-0.03-0.38-0.13
		C335.9,373.12,334.4,371.62,332.91,370.12L332.91,370.12z"/>
	<path id="path17" inkscape:connector-curvature="0" d="M331.74,371.3c0.21-0.21,0.4-0.44,0.65-0.61c0.29,0.29,0.61,0.56,0.85,0.89
		c-0.38,0.44-0.82,0.81-1.22,1.23c0.31,0.33,0.64,0.65,0.96,0.97c0.37-0.35,0.7-0.76,1.1-1.07c0.22,0.08,0.36,0.3,0.54,0.45
		c0.11,0.13,0.3,0.23,0.33,0.42c-0.34,0.39-0.75,0.72-1.08,1.11c0.37,0.32,0.68,0.7,1.05,1.02l0.06,0.01
		c0.45-0.38,0.81-0.85,1.27-1.22c0.25,0.34,0.55,0.63,0.83,0.94c-0.76,0.74-1.48,1.51-2.25,2.24c-1.54-1.62-3.17-3.15-4.7-4.78
		C330.68,372.39,331.2,371.84,331.74,371.3L331.74,371.3z"/>
	<path id="path19" inkscape:connector-curvature="0" d="M328.15,374.89c0.43-0.45,0.99-0.93,1.66-0.77c0.71,0.2,1.25,0.78,1.64,1.38
		c0.18,0.26,0.14,0.59,0.13,0.88c0.63-0.13,1.13,0.35,1.55,0.75c0.37,0.39,0.82,0.7,1.31,0.93c-0.34,0.37-0.7,0.71-1.05,1.07
		c-0.5-0.23-0.9-0.61-1.27-1c-0.26-0.25-0.59-0.59-0.99-0.46c-0.22,0.11-0.38,0.3-0.56,0.47c0.64,0.63,1.27,1.27,1.9,1.91
		c-0.34,0.32-0.63,0.69-1.01,0.97c-0.1-0.06-0.18-0.13-0.26-0.21c-1.29-1.31-2.61-2.61-3.9-3.92c-0.18-0.18-0.37-0.36-0.56-0.54
		C327.17,375.81,327.69,375.38,328.15,374.89 M328.59,376.12c0.37,0.42,0.79,0.8,1.17,1.21c0.24-0.25,0.62-0.48,0.65-0.85
		c-0.13-0.39-0.48-0.66-0.8-0.9C329.16,375.4,328.87,375.86,328.59,376.12L328.59,376.12z"/>
	<path id="path21" inkscape:connector-curvature="0" d="M323.83,379.24c0.82-0.84,1.65-1.68,2.5-2.49c0.31,0.27,0.67,0.54,0.86,0.92
		c-0.22,0.25-0.48,0.47-0.7,0.73c1.27,1.27,2.55,2.53,3.8,3.82c-0.28,0.38-0.63,0.71-0.99,1c-1.27-1.27-2.54-2.55-3.81-3.81
		c-0.26,0.24-0.51,0.49-0.75,0.75C324.42,379.86,324.09,379.58,323.83,379.24L323.83,379.24z"/>
	<path id="path23" inkscape:connector-curvature="0" d="M321.96,381.04c0.36-0.5,0.85-1.02,1.51-1.04c0.63,0,1.12,0.45,1.53,0.87
		c-0.31,0.31-0.62,0.62-0.92,0.93c-0.28-0.19-0.51-0.56-0.89-0.51c-0.26,0.07-0.44,0.34-0.34,0.61c0.17,0.31,0.52,0.55,0.88,0.51
		c0.71-0.05,1.39-0.35,2.11-0.28c0.88,0.07,1.6,0.78,1.9,1.58c0.23,0.58-0.07,1.21-0.46,1.65c-0.37,0.41-0.83,0.88-1.43,0.86
		c-0.73,0.03-1.28-0.54-1.75-1.01c0.31-0.31,0.6-0.64,0.93-0.93c0.29,0.1,0.43,0.45,0.72,0.58c0.34,0.25,0.88-0.15,0.76-0.55
		c-0.14-0.47-0.64-0.78-1.12-0.77c-0.68,0.08-1.34,0.35-2.03,0.28c-0.69-0.06-1.26-0.56-1.58-1.15
		C321.5,382.17,321.61,381.5,321.96,381.04L321.96,381.04z"/>
	<path id="path25" inkscape:connector-curvature="0" d="M325.04,389.89c0.25,0.02,0.48-0.05,0.71-0.14c0,0.36,0,0.72-0.01,1.09
		c-0.17-0.08-0.32-0.21-0.52-0.2c-0.64-0.01-1.29,0-1.93,0c0,0.18,0,0.36,0,0.54c0.56-0.01,1.15,0.1,1.67-0.14c0,0.34,0,0.68,0,1.01
		c-0.53-0.23-1.12-0.13-1.68-0.13c0,0.22,0.01,0.45,0.01,0.67c0.64-0.01,1.28,0,1.92,0c0.2,0.02,0.34-0.15,0.5-0.24
		c0.02,0.38,0.02,0.77,0.02,1.16c-0.19-0.1-0.39-0.21-0.61-0.19c-1.05,0-2.1,0-3.14,0.01c0.09-0.17,0.21-0.33,0.2-0.53
		c0.01-0.77,0-1.54,0-2.31c0.02-0.22-0.1-0.41-0.2-0.6C323.01,389.9,324.02,389.88,325.04,389.89L325.04,389.89z"/>
	<path id="path27" inkscape:connector-curvature="0" d="M305.97,389.87c0.45,0.02,0.91,0.02,1.36,0c-0.11,0.21-0.19,0.45-0.17,0.69
		c0.02,0.51-0.04,1.03,0.03,1.54c0.18,0.45,0.76,0.45,1.15,0.33c0.37-0.16,0.37-0.61,0.35-0.95c-0.03-0.54,0.09-1.11-0.15-1.61
		c0.43,0.01,0.87,0.01,1.3-0.01c-0.29,0.77-0.03,1.62-0.17,2.41c-0.1,0.42-0.4,0.77-0.8,0.92c-0.61,0.24-1.33,0.24-1.94-0.02
		c-0.43-0.17-0.75-0.59-0.78-1.05c-0.03-0.59,0.01-1.17-0.01-1.76C306.15,390.2,306.04,390.04,305.97,389.87L305.97,389.87z"/>
	<path id="path29" inkscape:connector-curvature="0" d="M310.57,389.88c0.64,0.01,1.27,0,1.91,0.02c-0.05,0.1-0.1,0.2-0.16,0.31
		c0.41,0.44,0.8,0.91,1.25,1.32c-0.01-0.54,0.14-1.14-0.17-1.63c0.47,0,0.94,0,1.41-0.01c-0.1,0.19-0.25,0.37-0.23,0.59
		c0,0.77,0,1.54,0,2.32c-0.02,0.21,0.13,0.36,0.22,0.53c-0.49-0.02-0.98-0.02-1.48,0c0.06-0.12,0.11-0.24,0.17-0.36
		c-0.56-0.61-1.16-1.19-1.71-1.81c0,0.54,0,1.08,0,1.62c-0.01,0.2,0.09,0.37,0.16,0.54c-0.45-0.03-0.91-0.02-1.36-0.01
		c0.09-0.17,0.23-0.33,0.21-0.53c0.01-0.77,0-1.54,0-2.31C310.82,390.25,310.67,390.07,310.57,389.88L310.57,389.88z"/>
	<path id="path31" inkscape:connector-curvature="0" d="M317.58,389.88c0.51,0,1.02,0.01,1.52,0c-0.05,0.14-0.17,0.29-0.11,0.45
		c0.19,0.52,0.35,1.05,0.59,1.55c0.24-0.5,0.43-1.02,0.65-1.52c0.1-0.16-0.01-0.33-0.06-0.5c0.44,0.03,0.88,0.02,1.33,0.02
		c-0.19,0.35-0.36,0.71-0.5,1.08c-0.23,0.63-0.53,1.22-0.74,1.85c-0.08,0.17,0.01,0.34,0.04,0.5c-0.54-0.02-1.08-0.02-1.62,0
		c0.16-0.4-0.07-0.78-0.19-1.16C318.21,391.4,318.03,390.58,317.58,389.88L317.58,389.88z"/>
	<path id="path33" inkscape:connector-curvature="0" d="M331.66,390.03c0.66-0.3,1.42-0.19,2.1-0.05c0.22,0.06,0.45,0.03,0.68-0.01
		c-0.15,0.36-0.31,0.71-0.47,1.06c-0.51-0.49-1.31-0.51-1.94-0.29c0,0.08,0.01,0.23,0.01,0.3c0.64,0.19,1.35,0.13,1.96,0.43
		c0.37,0.17,0.57,0.64,0.42,1.02c-0.15,0.47-0.63,0.74-1.09,0.82c-0.65,0.15-1.31-0.02-1.95-0.17c-0.19-0.06-0.38-0.01-0.56,0.02
		c0.1-0.36,0.2-0.72,0.3-1.08c0.45,0.47,1.14,0.51,1.75,0.5c0.21,0,0.59-0.09,0.5-0.37c-0.49-0.3-1.1-0.19-1.64-0.36
		c-0.39-0.09-0.85-0.38-0.81-0.84C330.9,390.57,331.27,390.21,331.66,390.03L331.66,390.03z"/>
	<path id="path35" inkscape:connector-curvature="0" d="M315.52,389.89c0.51-0.01,1.02,0,1.54-0.01c-0.09,0.19-0.21,0.37-0.19,0.59
		c0.03,0.95-0.04,1.9,0.05,2.84c-0.42,0-0.84,0-1.27,0c0.21-0.43,0.12-0.91,0.14-1.36c-0.01-0.57,0.02-1.14-0.01-1.71
		C315.7,390.12,315.6,390.01,315.52,389.89z"/>
	<path id="path37" inkscape:connector-curvature="0" d="M326.41,389.92c0.71-0.07,1.42-0.01,2.13-0.04c0.44,0,0.95-0.01,1.29,0.32
		c0.41,0.34,0.47,1.02,0.12,1.42c-0.16,0.19-0.39,0.3-0.6,0.43c0.29,0.43,0.55,0.89,0.94,1.25c-0.55,0.01-1.1,0-1.65,0.01
		c0.05-0.11,0.11-0.21,0.16-0.32c-0.2-0.31-0.33-0.66-0.58-0.93c-0.2-0.02-0.41-0.02-0.61-0.02c0,0.43-0.09,0.9,0.17,1.27
		c-0.45-0.02-0.9-0.02-1.35,0c0.1-0.2,0.19-0.4,0.17-0.62c-0.01-0.77,0.01-1.54,0-2.31C326.62,390.21,326.49,390.07,326.41,389.92
		 M327.61,390.63c0,0.25,0,0.51,0.01,0.76c0.42-0.02,0.86,0.05,1.27-0.06c0.33-0.11,0.31-0.57-0.01-0.69
		C328.46,390.6,328.04,390.63,327.61,390.63z"/>
	<path id="path39" inkscape:connector-curvature="0" d="M336.12,389.89c0.5,0,1.01,0,1.51,0c0,0.56,0.36,1.02,0.57,1.52
		c0.32,0.63,0.58,1.3,0.95,1.9c-0.42,0-0.84-0.01-1.26,0.01c0-0.24-0.03-0.51-0.23-0.68c-0.56-0.03-1.12-0.01-1.67,0
		c-0.11,0.21-0.18,0.44-0.13,0.68c-0.39-0.01-0.78-0.01-1.17,0c0.39-0.67,0.65-1.4,0.99-2.09
		C335.85,390.79,336.09,390.37,336.12,389.89 M336.84,390.82c-0.22,0.39-0.39,0.81-0.57,1.22c0.36-0.01,0.73,0,1.09,0
		C337.23,391.61,337.02,391.22,336.84,390.82z"/>
	<path id="path41" inkscape:connector-curvature="0" d="M339.64,389.88c0.48,0.01,0.96,0,1.45,0c-0.08,0.16-0.21,0.31-0.19,0.5
		c-0.01,0.7,0,1.4,0,2.1c0.58-0.01,1.16,0,1.74,0c0.2,0.01,0.37-0.08,0.55-0.14c-0.01,0.39-0.01,0.78,0.03,1.17
		c-0.21-0.11-0.43-0.23-0.67-0.21c-0.98,0.01-1.96-0.01-2.94,0.02c0.09-0.17,0.23-0.33,0.21-0.53c0-0.77,0-1.54,0-2.31
		C339.83,390.26,339.72,390.07,339.64,389.88L339.64,389.88z"/>
</g>
</svg>
