<?xml version="1.0" encoding="utf-8"?>
<!-- Generator: Adobe Illustrator 15.0.0, SVG Export Plug-In . SVG Version: 6.00 Build 0)  -->
<!DOCTYPE svg PUBLIC "-//W3C//DTD SVG 1.1//EN" "http://www.w3.org/Graphics/SVG/1.1/DTD/svg11.dtd">
<svg version="1.1"
	 id="Layer_1" xmlns:dc="http://purl.org/dc/elements/1.1/" xmlns:cc="http://creativecommons.org/ns#" xmlns:rdf="http://www.w3.org/1999/02/22-rdf-syntax-ns#" xmlns:svg="http://www.w3.org/2000/svg" xmlns:sodipodi="http://sodipodi.sourceforge.net/DTD/sodipodi-0.dtd" xmlns:inkscape="http://www.inkscape.org/namespaces/inkscape"
	 xmlns="http://www.w3.org/2000/svg" xmlns:xlink="http://www.w3.org/1999/xlink" x="0px" y="0px" width="760px" height="222px"
	 viewBox="0 0 760 222" style="enable-background:new 0 0 760 222;" xml:space="preserve">
<style type="text/css">
<![CDATA[
	.st0{fill:#BE2026;}
	.st1{fill:#FAAC19;}
]]>
</style>
<g>
	<path id="path6857" class="st0" d="M210.2,156.8h0.6c3.1,4.5,6.5,7.9,10.4,10.1c3.8,2.2,8.5,3.4,13.9,3.4c11.9,0,20.6-4.7,26.2-14
		c5.6-9.3,8.4-24.5,8.4-45.6c0-21-2.8-36.2-8.4-45.5c-5.6-9.3-14.3-14-26.2-14c-5.7,0-10.6,1.2-14.7,3.5c-4,2.3-7.7,6.1-10.9,11.5
		h-0.3V54.2h-27.9v167.4h29L210.2,156.8 M213.1,82.9c1.9-6.2,6-9.4,12.4-9.4c6.3,0,10.3,3.1,12.2,9.4c1.9,6.2,2.8,15.5,2.8,27.9
		c0,12.3-0.9,21.6-2.8,27.9c-1.9,6.2-5.9,9.4-12.2,9.4c-6.4,0-10.5-3.1-12.4-9.4c-1.9-6.2-2.8-15.5-2.8-27.9S211.2,89.1,213.1,82.9z
		"/>
</g>
<g>
	<path id="path6859" class="st0" d="M278.6,88.8v-2.7c0-6.5,1.1-11.9,3.2-16.4c2.1-4.5,5-8.1,8.5-10.8c3.6-2.7,7.8-4.7,12.6-5.9
		c4.8-1.2,10-1.8,15.5-1.8c8.6,0,15.6,0.8,21,2.5c5.4,1.7,9.6,4.1,12.5,7.2c3,3.1,5,6.8,6,11c1,4.3,1.6,8.9,1.6,14v59.5
		c0,2.7,0,5,0.1,6.9c0.1,2,0.2,3.8,0.5,5.5c0.3,1.7,0.7,3.2,1.1,4.7c0.5,1.5,1.1,3.1,1.8,4.7h-27.8c-1-1.8-1.7-3.7-2.2-5.7
		c-0.5-2-0.9-4-1.4-6h-0.4c-3.4,5.9-7.3,9.8-11.7,11.8c-4.4,2-10.1,3-17.2,3c-5,0-9.3-1-12.8-3c-3.5-2-6.3-4.5-8.4-7.6
		c-2.1-3.1-3.7-6.6-4.6-10.4c-1-3.9-1.5-7.7-1.5-11.5c0-5.3,0.6-9.9,1.7-13.8c1.1-3.9,2.9-7.2,5.2-9.9c2.3-2.7,5.3-5,8.9-6.8
		c3.6-1.8,7.9-3.4,13-4.8l16.5-4.4c4.4-1.1,7.4-2.7,9.1-4.6c1.7-2,2.5-4.8,2.5-8.6c0-4.3-1-7.7-3.1-10.2c-2.1-2.5-5.6-3.7-10.5-3.7
		c-4.5,0-7.9,1.3-10.2,4c-2.3,2.7-3.4,6.2-3.4,10.7v3.2L278.6,88.8 M331.9,110.7c-2,1.6-4.1,2.8-6.4,3.7c-2.3,0.9-4.3,1.6-6.2,2
		c-5.9,1.3-10.2,3.4-12.7,6.3c-2.5,2.9-3.8,6.9-3.8,12c0,4.3,0.8,8.1,2.5,11.1c1.7,3.1,4.5,4.6,8.5,4.6c2,0,4-0.3,6.2-0.9
		c2.1-0.6,4.1-1.6,5.8-3s3.2-3.2,4.3-5.5c1.1-2.3,1.7-4.9,1.7-8L331.9,110.7L331.9,110.7z"/>
</g>
<g>
	<path id="path6861" class="st0" d="M398.8,156.8h0.6c3.1,4.5,6.5,7.9,10.4,10.1c3.8,2.2,8.5,3.4,13.9,3.4c11.9,0,20.6-4.7,26.2-14
		c5.6-9.3,8.4-24.5,8.4-45.6c0-21-2.8-36.2-8.4-45.5c-5.6-9.3-14.3-14-26.2-14c-5.7,0-10.6,1.2-14.7,3.5c-4.1,2.3-7.7,6.1-10.9,11.5
		h-0.3V54.2h-27.9v167.4h29L398.8,156.8 M401.8,82.9c1.9-6.2,6-9.4,12.4-9.4c6.3,0,10.3,3.1,12.2,9.4c1.9,6.2,2.8,15.5,2.8,27.9
		c0,12.3-0.9,21.6-2.8,27.9c-1.9,6.2-5.9,9.4-12.2,9.4c-6.4,0-10.5-3.1-12.4-9.4c-1.9-6.2-2.8-15.5-2.8-27.9S399.9,89.1,401.8,82.9z
		"/>
</g>
<g>
	<path id="path6863" class="st0" d="M467.5,54.2h27.9v15.2h0.3c2.9-5.5,6.5-9.9,10.7-13.2c4.2-3.3,9.3-5,15.4-5c0.8,0,1.7,0,2.6,0.1
		c0.9,0.1,1.8,0.2,2.6,0.3v27.9c-1.5-0.1-3.1-0.2-4.5-0.3c-1.5-0.1-3-0.1-4.5-0.1c-2.5,0-5,0.4-7.6,1.1c-2.5,0.7-4.8,1.9-6.9,3.5
		c-2.1,1.6-3.8,3.7-5,6.3c-1.3,2.6-1.9,5.8-1.9,9.6v67.8h-29.1L467.5,54.2"/>
</g>
<g>
	<path id="path6865" class="st0" d="M536.8,53c0,0,4.8-3.1,14.9-3.1c10.1,0,14.2,3.1,14.2,3.1v114.2h-29.1V53"/>
</g>
<g>
	<path id="path6867" class="st0" d="M590.5,0c8.5,0,14.4,2.3,14.4,2.3v94.1h0.4l29.2-42.2l32,0l-32.6,44.5l37.4,68.5h-32l-24.2-46.4
		l-10.3,13.5v33h-29.1V2.3C575.8,2.3,582,0,590.5,0"/>
</g>
<g>
	<path id="path6877" class="st0" d="M674.5,88.8v-2.7c0-6.5,1.1-11.9,3.2-16.4c2.1-4.5,4.9-8.1,8.5-10.8c3.6-2.7,7.8-4.7,12.6-5.9
		c4.8-1.2,10-1.8,15.5-1.8c8.6,0,15.6,0.8,21,2.5c5.4,1.7,9.6,4.1,12.5,7.2c3,3.1,5,6.8,6,11c1,4.3,1.6,8.9,1.6,14v59.5
		c0,2.7,0,5,0.1,6.9c0.1,2,0.2,3.8,0.5,5.5c0.3,1.7,0.7,3.2,1.2,4.7c0.5,1.5,1.1,3.1,1.8,4.7h-27.8c-1-1.8-1.7-3.7-2.2-5.7
		c-0.5-2-0.9-4-1.4-6h-0.4c-3.4,5.9-7.3,9.8-11.7,11.8c-4.4,2-10.1,3-17.2,3c-5.1,0-9.3-1-12.9-3c-3.5-2-6.3-4.5-8.4-7.6
		c-2.1-3.1-3.7-6.6-4.6-10.4c-1-3.9-1.5-7.7-1.5-11.5c0-5.3,0.6-9.9,1.7-13.8c1.1-3.9,2.9-7.2,5.2-9.9c2.3-2.7,5.3-5,8.9-6.8
		c3.6-1.8,7.9-3.4,13-4.8l16.5-4.4c4.3-1.1,7.4-2.7,9.1-4.6c1.7-2,2.5-4.8,2.5-8.6c0-4.3-1-7.7-3.1-10.2c-2.1-2.5-5.6-3.7-10.5-3.7
		c-4.5,0-7.9,1.3-10.2,4c-2.3,2.7-3.4,6.2-3.4,10.7v3.2L674.5,88.8 M727.8,110.7c-2,1.6-4.1,2.8-6.4,3.7c-2.3,0.9-4.3,1.6-6.1,2
		c-5.9,1.3-10.2,3.4-12.7,6.3c-2.5,2.9-3.8,6.9-3.8,12c0,4.4,0.8,8.1,2.5,11.1c1.7,3.1,4.5,4.6,8.5,4.6c2,0,4-0.3,6.1-0.9
		c2.1-0.6,4.1-1.6,5.9-3c1.8-1.4,3.2-3.2,4.3-5.5c1.1-2.3,1.7-4.9,1.7-8V110.7L727.8,110.7z"/>
</g>
<g>
	<path id="path6879" class="st1" d="M56.5,135.4c-1.4-1.8-2.4-4.1-2.9-6.9c-0.5-2.9-0.8-6.5-0.8-10.8V68.7H41.6V53.8h11.1V24.4
		c-21.7,1.9-40,6.1-46.1,12.6c-15.8,16.6-0.2,78.2,13.6,91.6c4.8,4.6,20.1,7.5,38.2,8.7C57.7,136.7,57,136.1,56.5,135.4"/>
</g>
<g>
	<path id="path6881" class="st1" d="M74.5,68.7v46.2c0,3.4,0.5,5.8,1.5,7.2c1,1.4,3.1,2.1,6.3,2.1c0.8,0,1.7,0,2.5-0.1
		c0.8-0.1,1.6-0.2,2.4-0.2l3.2,13.6c3.9-0.1,7.7-0.4,11.4-0.7L84.2,68.7L74.5,68.7"/>
</g>
<g>
	<path id="path6883" class="st1" d="M151.5,36.9c-8-9.9-43-14.3-76.9-13.7v30.6h5.8v0h22.8l12.2,61.1h0.3l11.6-61.1h21.9l-19.7,78.5
		c3.5-1.1,6.2-2.4,8-3.8C153.5,115.2,165.5,54.3,151.5,36.9"/>
</g>
<g>
	<path id="path6885" class="st0" d="M540.6,218.9l13.5-19.6v-0.1h-12.3v-4h18.5v2.8l-13.3,19.4v0.1h13.5v4h-19.9V218.9 M549.2,193.8
		l-4-4.7h3.6l2.2,2.6h0.1l2.1-2.6h3.6l-4,4.7H549.2z"/>
</g>
<g>
	<path id="path6887" class="st0" d="M581.5,193.8v22.5c0,2,0.1,4.1,0.2,5.4h-4.3l-0.2-3H577c-1.1,2.1-3.4,3.4-6.2,3.4
		c-4.6,0-8.2-3.9-8.2-9.7c0-6.4,4-10.2,8.5-10.2c2.6,0,4.5,1.1,5.4,2.5h0.1v-10.8L581.5,193.8 M576.7,210.5c0-0.4,0-0.9-0.1-1.3
		c-0.4-1.8-2-3.4-4.1-3.4c-3.1,0-4.8,2.7-4.8,6.3c0,3.5,1.7,6.1,4.8,6.1c2,0,3.7-1.3,4.2-3.4c0.1-0.4,0.2-0.9,0.2-1.4L576.7,210.5
		L576.7,210.5z"/>
</g>
<g>
	<path id="path6889" class="st0" d="M589,199.8c-1.6,0-2.7-1.2-2.7-2.6c0-1.5,1.1-2.6,2.7-2.6c1.6,0,2.7,1.1,2.7,2.6
		C591.8,198.6,590.7,199.8,589,199.8L589,199.8 M586.6,221.6v-19.1h4.8v19.1H586.6z"/>
</g>
<g>
	<path id="path6891" class="st0" d="M596.7,193.8h4.8v11.4h0.1c1.2-1.8,3.2-3.1,6.1-3.1c4.7,0,8,3.9,7.9,9.7
		c0,6.8-4.3,10.2-8.6,10.2c-2.5,0-4.7-0.9-6-3.3h-0.1l-0.2,2.9h-4.1c0.1-1.3,0.2-3.4,0.2-5.3L596.7,193.8 M601.5,213.7
		c0,0.4,0,0.8,0.1,1.1c0.5,2,2.2,3.4,4.3,3.4c3,0,4.9-2.4,4.9-6.3c0-3.4-1.6-6.1-4.8-6.1c-2,0-3.8,1.4-4.3,3.5
		c-0.1,0.4-0.2,0.8-0.2,1.3L601.5,213.7L601.5,213.7z"/>
</g>
<g>
	<path id="path6893" class="st0" d="M622.9,213.4c0.1,3.4,2.8,4.9,5.9,4.9c2.2,0,3.8-0.3,5.3-0.9l0.7,3.3c-1.6,0.7-3.9,1.2-6.6,1.2
		c-6.2,0-9.8-3.8-9.8-9.6c0-5.3,3.2-10.3,9.3-10.3c6.2,0,8.2,5.1,8.2,9.3c0,0.9-0.1,1.6-0.2,2H622.9 M631.3,210c0-1.8-0.7-4.7-4-4.7
		c-3,0-4.2,2.7-4.4,4.7H631.3z"/>
</g>
<g>
	<path id="path6895" class="st0" d="M653.7,221c-1,0.5-3,1-5.4,1c-5.9,0-9.8-3.8-9.8-9.7c0-5.7,3.9-10.1,10.6-10.1
		c1.8,0,3.6,0.4,4.7,0.9l-0.9,3.6c-0.8-0.4-1.9-0.7-3.6-0.7c-3.7,0-5.9,2.7-5.8,6.2c0,3.9,2.5,6.1,5.8,6.1c1.6,0,2.8-0.4,3.8-0.7
		L653.7,221"/>
</g>
<g>
	<path id="path6897" class="st0" d="M665.2,217.1c1.1,0.7,3.1,1.4,4.9,1.4c2.1,0,3.1-0.9,3.1-2.2c0-1.3-0.8-1.9-3.1-2.8
		c-3.7-1.2-5.2-3.3-5.2-5.6c0-3.4,2.8-5.9,7.2-5.9c2.1,0,3.9,0.5,5.1,1.1l-1,3.4c-0.8-0.5-2.3-1.1-4-1.1c-1.7,0-2.7,0.9-2.7,2
		c0,1.2,0.9,1.8,3.3,2.7c3.5,1.2,5,3,5.1,5.8c0,3.5-2.7,6-7.7,6c-2.3,0-4.4-0.5-5.8-1.3L665.2,217.1 M669.5,200.1l-3.8-5.8h3.3
		l2.1,3.6h0.1l2.2-3.6h3.3l-3.8,5.8H669.5z"/>
</g>
<g>
	<path id="path6899" class="st0" d="M687.2,197.6v4.9h4.6v3.6h-4.6v8.4c0,2.3,0.6,3.5,2.5,3.5c0.9,0,1.3,0,1.9-0.2l0.1,3.6
		c-0.7,0.3-2,0.5-3.5,0.5c-1.8,0-3.2-0.6-4.1-1.6c-1.1-1.1-1.5-2.9-1.5-5.4v-8.9h-2.7v-3.6h2.7V199L687.2,197.6"/>
</g>
<g>
	<path id="path6901" class="st0" d="M698.6,213.4c0.1,3.4,2.8,4.9,5.9,4.9c2.2,0,3.8-0.3,5.3-0.9l0.7,3.3c-1.6,0.7-3.9,1.2-6.7,1.2
		c-6.2,0-9.8-3.8-9.8-9.6c0-5.3,3.2-10.3,9.3-10.3c6.2,0,8.2,5.1,8.2,9.3c0,0.9-0.1,1.6-0.2,2H698.6 M701.2,200.1l-3.8-5.8h3.3
		l2.1,3.6h0.1l2.2-3.6h3.3l-3.8,5.8H701.2z M707,210c0-1.8-0.7-4.7-4-4.7c-3,0-4.2,2.7-4.4,4.7H707z"/>
</g>
<g>
	<path id="path6903" class="st0" d="M715.2,217.1c1.1,0.7,3.1,1.4,4.9,1.4c2.1,0,3.1-0.9,3.1-2.2c0-1.3-0.8-1.9-3.1-2.8
		c-3.7-1.2-5.2-3.3-5.2-5.6c0-3.4,2.8-5.9,7.2-5.9c2.1,0,4,0.5,5.1,1.1l-1,3.4c-0.8-0.5-2.3-1.1-4-1.1c-1.7,0-2.7,0.9-2.7,2
		c0,1.2,0.9,1.8,3.3,2.7c3.5,1.2,5,3,5.1,5.8c0,3.5-2.7,6-7.7,6c-2.3,0-4.4-0.5-5.8-1.3L715.2,217.1"/>
</g>
<g>
	<path id="path6905" class="st0" d="M737.2,197.6v4.9h4.6v3.6h-4.6v8.4c0,2.3,0.6,3.5,2.5,3.5c0.9,0,1.3,0,1.9-0.2l0.1,3.6
		c-0.7,0.3-2,0.5-3.5,0.5c-1.8,0-3.2-0.6-4.1-1.6c-1.1-1.1-1.5-2.9-1.5-5.4v-8.9h-2.7v-3.6h2.7V199L737.2,197.6"/>
</g>
<g>
	<path id="path6907" class="st0" d="M745.4,221.6v-19.1h4.8v19.1H745.4 M753.7,194.3l-4.8,5.8h-3.3l3.4-5.8H753.7L753.7,194.3z"/>
</g>
<g>
	<path id="path6909" class="st0" d="M757,222c-1.7,0-2.9-1.3-2.9-3.1c0-1.8,1.3-3.1,3-3.1c1.8,0,3,1.3,3,3.1
		C760,220.7,758.8,222,757,222L757,222"/>
</g>
</svg>
