<?xml version="1.0" encoding="utf-8"?>
<!-- Generator: Adobe Illustrator 15.0.0, SVG Export Plug-In . SVG Version: 6.00 Build 0)  -->
<!DOCTYPE svg PUBLIC "-//W3C//DTD SVG 1.1//EN" "http://www.w3.org/Graphics/SVG/1.1/DTD/svg11.dtd">
<svg version="1.1" id="Layer_1" xmlns="http://www.w3.org/2000/svg" xmlns:xlink="http://www.w3.org/1999/xlink" x="0px" y="0px"
	 width="592.5px" height="162px" viewBox="0 0 592.5 162" style="enable-background:new 0 0 592.5 162;" xml:space="preserve">
<style type="text/css">
<![CDATA[
	.st0{fill:#BE2026;}
	.st1{fill:#FAAC19;}
]]>
</style>
<g>
	<path class="st0" d="M141.8,35h18.5v13.5c2.5-4.8,5.9-8.6,10-11.4S179,33,183.8,33c8.6,0,14.6,4.1,20.8,12.3s5.2,19.8,5.2,34.9
		c0,15.8,1,26.5-5.2,34.9s-12.2,12.6-20.8,12.6c-4,0-7.7-1-11.1-2.9c-3.4-1.9-7-4-10.8-9.1V162h-20V35z M161.5,79.5
		c0,10.4,1.3,18,4,22.9c2.7,4.9,5.9,7.3,9.7,7.3c3.6,0,6.7-2.3,9.1-6.8c2.5-4.5,3.7-11.9,3.7-22.2c0-9.7-1.3-16.9-3.8-21.6
		c-2.5-4.6-5.6-7-9.3-7c-3.8,0-7.1,2.3-9.6,6.8S161.5,70.4,161.5,79.5z"/>
	<path class="st0" d="M287.8,35h18.5v13.5c2.5-4.8,5.9-8.6,10-11.4S325,33,329.8,33c8.6,0,14.6,4.1,20.8,12.3s5.2,19.8,5.2,34.9
		c0,15.8,1,26.5-5.2,34.9s-12.2,12.6-20.8,12.6c-4,0-7.7-1-11.1-2.9c-3.4-1.9-7-4-10.8-9.1V162h-20V35z M307.5,79.5
		c0,10.4,1.3,18,4,22.9c2.7,4.9,5.9,7.3,9.7,7.3c3.6,0,6.7-2.3,9.1-6.8c2.5-4.5,3.7-11.9,3.7-22.2c0-9.7-1.3-16.9-3.8-21.6
		c-2.5-4.6-5.6-7-9.3-7c-3.8,0-7.1,2.3-9.6,6.8C308.8,63.6,307.5,70.4,307.5,79.5z"/>
	<path class="st0" d="M235.3,63l-18-0.9c2.2-9.3,4.4-18.9,9.4-23c5-4.1,12.3-6.1,21.8-6.1c8.4,0,14.8,1.2,19.3,3.6s7.6,5.6,9.5,9.6
		c1.9,4.1,2.9,11.5,2.9,22.2l-0.2,28.4c0,8,0.3,13.9,0.9,17.8s0.9,8,2.6,12.4H262l-1.7-10c-3.4,4-5.4,7.1-9.3,9.1c-3.9,2-8,3-12.4,3
		c-7.3,0-13.3-2.5-18-7.4s-7-11.5-7-19.7c0-5.2,1-9.7,2.9-13.6c1.9-3.9,4.6-6.9,8.1-9.2s9-4.4,16.7-6.1c9.3-2.1,15.7-4.1,19.4-6
		c0-5.1-0.4-9-1.1-10.6c-0.7-1.6-2.1-4.5-4-5.5c-1.9-1-4.7-1.5-8.2-1.5c-3.6,0-6.4,2.2-8.5,3.8C236.8,54.8,236.5,58.6,235.3,63z
		 M260.6,82.7c-2.6,1-6.5,2.2-11.9,3.6c-6.2,1.6-10.3,3.4-12.2,5.4c-1.9,2-2.9,4.5-2.9,7.6c0,3.5,1.1,6.5,3.2,8.8
		c2.1,2.4,4.8,3.6,8,3.6c2.8,0,5.7-1,8.4-2.9c2.8-1.9,4.7-4.2,5.8-6.9s1.6-7.5,1.6-14.4V82.7z"/>
	<path class="st0" d="M544.3,63l-18-0.9c2.2-9.3,4.4-18.9,9.4-23c5-4.1,12.3-6.1,21.8-6.1c8.4,0,14.8,1.2,19.3,3.6s7.6,5.6,9.5,9.6
		c1.9,4.1,2.9,11.5,2.9,22.2L589,96.8c0,8,0.3,13.9,0.9,17.8s0.9,8,2.6,12.4h-21.4l-1.7-10c-3.4,4-5.4,7.1-9.3,9.1
		c-3.9,2-8,3-12.4,3c-7.3,0-13.3-2.5-18-7.4s-7-11.5-7-19.7c0-5.2,1-9.7,2.9-13.6c1.9-3.9,4.6-6.9,8.1-9.2s9-4.4,16.7-6.1
		c9.3-2.1,15.7-4.1,19.4-6c0-5.1-0.4-9-1.1-10.6c-0.7-1.6-2.1-4.5-4-5.5c-1.9-1-4.7-1.5-8.2-1.5c-3.6,0-6.4,2.2-8.5,3.8
		C545.8,54.8,545.6,58.6,544.3,63z M569.6,82.7c-2.6,1-6.5,2.2-11.9,3.6c-6.2,1.6-10.3,3.4-12.2,5.4c-1.9,2-2.9,4.5-2.9,7.6
		c0,3.5,1.1,6.5,3.2,8.8c2.1,2.4,4.8,3.6,8,3.6c2.8,0,5.7-1,8.4-2.9c2.8-1.9,4.7-4.2,5.8-6.9s1.6-7.5,1.6-14.4V82.7z"/>
	<path class="st0" d="M386.7,127h-21V35h18.5v13.1c3.2-6.1,6.1-10.2,8.6-12.1s5.5-2.7,8.8-2.9c4.3-0.3,5.1-0.3,9.5,0L411,55.3
		c-3.3-1.3-9-0.6-12-0.6c-2.8,0-5.3,1-7.4,3.1c-2.1,2.1-2.7,5.8-3.6,11.1s-1.4,15.2-1.4,29.6V127z"/>
	<polygon class="st0" points="421.4,127 421.4,35 441.4,35 441.4,127 	"/>
	<path class="st0" d="M452.2,127V0h20v67.1L495.5,35H520l-25.8,33.6l27.5,58.4h-21.2l-19.2-41.4l-9.1,11.9V127H452.2z"/>
	<g>
		<path class="st1" d="M42.3,95.2c-0.6-2.7-1-8.1-1-16.2V47.1H34V31.9h7.3V11.5c-17.9,1.1-30.7,3.8-36.8,9.9
			c-8.3,8.3-5.7,54.5,11.1,71.4c6.4,6.4,17.3,8,29.2,8.3C43.7,99.5,42.9,97.5,42.3,95.2z"/>
		<path class="st1" d="M119.1,21.4c-8.2-8.2-27.3-10.4-55.8-10.5v0c-0.2,0-0.5,0-0.7,0c-0.2,0-0.5,0-0.7,0v0c-1.6,0-3.1,0-4.6,0
			v20.9h7.1h3.6h10l9,40l2.8,13.3l2.8-13.3l9.2-40h13.2L98.4,98.5c3.7-1.2,7-3,9.5-5.6C124.8,75.9,127.4,29.7,119.1,21.4z"/>
		<path class="st1" d="M67.9,46.2v1H57.2v29.4c0,6.4,0.2,10.1,0.5,11.1c0.6,1.8,1.9,2.7,3.9,2.7c1.5,0,3.4,0,6.3-0.4l0,11.2
			c4.7,0,9.3,0,13.7-0.1L67.9,46.2z"/>
	</g>
</g>
</svg>
