<?xml version="1.0" encoding="utf-8"?>
<!-- Generator: Adobe Illustrator 15.0.0, SVG Export Plug-In . SVG Version: 6.00 Build 0)  -->
<!DOCTYPE svg PUBLIC "-//W3C//DTD SVG 1.1//EN" "http://www.w3.org/Graphics/SVG/1.1/DTD/svg11.dtd">
<svg version="1.1" id="Layer_1" xmlns="http://www.w3.org/2000/svg" xmlns:xlink="http://www.w3.org/1999/xlink" x="0px" y="0px"
	 width="81.2px" height="28px" viewBox="0 0 81.2 28" style="enable-background:new 0 0 81.2 28;" xml:space="preserve">
<style type="text/css">
<![CDATA[
	.st0{fill:#FFFFFF;}
	.st1{fill:#00B4E9;}
]]>
</style>
<g>
	<g>
		<polygon class="st1" points="65.2,0 61.5,0 67.9,14 61.3,28 65,28 71.3,14 		"/>
		<path class="st1" d="M66.2,14L66.2,14L59.9,0H0v17.1C0,23.1,4.9,28,10.9,28v0h48.9L66.2,14L66.2,14L66.2,14L66.2,14z"/>
		<g>
			<path class="st0" d="M8.2,15.3c0,3.4,2.6,3.9,3.5,3.9c0.7,0,2,0,2.2,0c0.2,0,0.3-0.1,0.3-0.3c0-0.2,0-1.8,0-2
				c0-0.2-0.1-0.4-0.2-0.4c-0.2,0-1.2,0-1.6,0c-0.7,0-1-0.6-1-1c0-0.4,0-3.8,0-3.8s2.2,0,2.4,0s0.3-0.2,0.3-0.2s0-1.9,0-2.2
				C14.1,9,13.8,9,13.8,9h-2.3c0,0,0-3.3,0-3.6s-0.4-0.2-0.4-0.2S8.6,6,8.4,6S8.2,6.1,8.2,6.3V15.3z"/>
			<path class="st0" d="M15,9.3C15,9,15.2,9,15.4,9s1.6,0,1.9,0c0.2,0,0.3,0.2,0.3,0.3c0,0.1,0.5,1.2,0.5,1.2s0.9-1.6,3.1-1.6
				c0.3,0,0.3,0.3,0.3,0.5c0,0.3,0,2.1,0,2.2c0,0.1-0.1,0.3-0.3,0.3s-2.3,0.1-2.9,0.8c0,0,0,6.2,0,6.5c0,0.2-0.1,0.1-0.4,0.1
				s-2.6,0-2.8,0c-0.1,0-0.2-0.2-0.2-0.4S15,9.3,15,9.3z"/>
			<path class="st0" d="M22.4,11.7c-0.2,0-0.3-0.2-0.3-0.4s0-2,0-2.2c0-0.1,0.2-0.2,0.3-0.2c0.1,0,2.1,0,2.6,0c0.5,0,4-0.6,4,4
				c0,4.5,0,5.8,0,6s0,0.3-0.2,0.3c-0.2,0-2.2,0-2.2,0l-0.4-1c0,0-1.1,1.2-2.7,1.2c-1.9,0-3.1-1.4-3.1-3.4c0-2.6,2.2-3,4.1-3
				c0.7,0,1.2,0,1.2,0s0-0.4,0-0.6c0-0.2-0.2-0.8-1.1-0.8C23.7,11.7,22.4,11.7,22.4,11.7z M25.8,15.2c0,0-0.5,0-0.7,0
				c-0.4,0-1.5,0.3-1.2,1.4c0.2,0.9,1.8,0.2,1.9-0.1C25.8,16.4,25.8,15.2,25.8,15.2z"/>
			<path class="st0" d="M29.3,9.4c-0.1-0.2,0-0.4,0.3-0.4s2.8,0,3,0s0.2,0.1,0.3,0.4c0,0.2,1.4,7.4,1.4,7.4s1.4-7.3,1.4-7.5
				S35.9,9,36.1,9c0.2,0,2.6,0,2.8,0c0.2,0,0.2,0.2,0.1,0.3c0,0.1-3,10-3,10h-3.9L29.3,9.4z"/>
			<path class="st0" d="M48.6,6.3c0-0.1,0.1-0.3,0.3-0.4C49,5.9,51.5,5.1,51.7,5C51.9,5,52,5.1,52,5.3c0,0.2,0,9.9,0,10.2
				c0,0.4,0.3,1,1,1c0.7,0,0.9,0,1,0s0.2,0.2,0.2,0.4c0,0.2,0,1.9,0,2.1s-0.1,0.3-0.3,0.3s-1.1,0-1.7,0s-3.5-0.5-3.5-3.8
				S48.6,6.3,48.6,6.3z"/>
			<path class="st0" d="M48,15.2h-5.8c0,0-0.1,1.4,1.8,1.4c1.2,0,1.9-0.4,2.1-0.4s0.3-0.1,0.3,0.1c0.4,1,0.4,1,0.8,2
				c0.1,0.2,0,0.3-0.2,0.4c-0.2,0.1-1.4,0.8-3,0.8c-1.6,0-5.1-0.8-5.1-5c0-4.6,3-5.6,4.7-5.6C45.3,8.8,48.1,9.3,48,15.2z M43.5,11.2
				c-1.3,0-1.3,1.9-1.3,1.9l2.5,0C44.6,13.2,44.7,11.2,43.5,11.2z"/>
			<path class="st0" d="M35.1,21.6l0.3-0.5c0,0-0.8-0.5-1.6-0.1c-1,0.5-0.8,2.2-0.6,2.6c0.2,0.4,0.7,1.3,2.2,0.6l-0.2-0.5
				c0,0-0.6,0.4-1.2,0s-0.4-1.6-0.2-1.9S34.7,21.3,35.1,21.6z"/>
			<polygon class="st0" points="35.9,20.9 36.5,20.9 36.5,22.3 37.8,22.3 37.8,20.9 38.5,20.9 38.5,24.4 37.8,24.4 37.8,22.9 
				36.5,22.9 36.5,24.4 35.9,24.4 			"/>
			<path class="st0" d="M40.1,20.9h0.7l1.1,3.5h-0.7L41,23.6h-1.2l-0.2,0.8H39L40.1,20.9z M40,23.1c0,0,0.9,0,0.9,0l-0.4-1.5
				C40.4,21.6,40,23.1,40,23.1z"/>
			<polygon class="st0" points="42.5,20.9 43.1,20.9 44.4,23.2 44.4,20.9 45,20.9 45,24.4 44.4,24.4 43.1,22 43.1,24.4 42.5,24.4 
							"/>
			<polygon class="st0" points="46.5,24.4 45.9,24.4 45.9,20.9 46.5,20.9 47.8,23.2 47.8,20.9 48.5,20.9 48.5,24.4 47.8,24.4 
				46.5,22 			"/>
			<polygon class="st0" points="49.3,24.4 49.3,20.9 51.5,20.9 51.5,21.4 50,21.4 50,22.3 51.1,22.3 51.1,22.9 50,22.9 50,23.8 
				51.5,23.8 51.5,24.4 			"/>
			<polygon class="st0" points="52.2,20.9 52.8,20.9 52.8,23.8 54.2,23.8 54.2,24.4 52.2,24.4 			"/>
		</g>
	</g>
	<g>
		<path class="st1" d="M71.5,4.2v2.6c0,0.1,0,0.1-0.1,0.1h-1.3c-0.1,0-0.1,0-0.1-0.1V0.1C70,0,70,0,70.1,0h1.3c0.1,0,0.1,0,0.1,0.1
			v2.6c0,0.1,0,0.1,0.1,0.1h2.1c0.1,0,0.1,0,0.1-0.1V0.1c0-0.1,0-0.1,0.1-0.1h1.3c0.1,0,0.1,0,0.1,0.1v6.6c0,0.1,0,0.1-0.1,0.1h-1.3
			c-0.1,0-0.1,0-0.1-0.1V4.2c0-0.1,0-0.1-0.1-0.1L71.5,4.2C71.5,4.1,71.5,4.1,71.5,4.2z"/>
		<path class="st1" d="M76,6.9c-0.1,0-0.1,0-0.1-0.1V0.1C75.9,0,75.9,0,76,0h2.2c1.9,0,2.9,1.2,2.9,3.4c0,2.2-1,3.4-2.9,3.4H76z
			 M79.6,3.4c0-1.5-0.6-2.1-1.5-2.1h-0.6c-0.1,0-0.1,0-0.1,0.1v4c0,0.1,0,0.1,0.1,0.1h0.6C79,5.5,79.6,5,79.6,3.4z"/>
	</g>
</g>
</svg>
