<?xml version="1.0" encoding="utf-8"?>
<!-- Generator: Adobe Illustrator 15.0.0, SVG Export Plug-In . SVG Version: 6.00 Build 0)  -->
<!DOCTYPE svg PUBLIC "-//W3C//DTD SVG 1.1//EN" "http://www.w3.org/Graphics/SVG/1.1/DTD/svg11.dtd">
<svg version="1.1" id="Layer_1" xmlns="http://www.w3.org/2000/svg" xmlns:xlink="http://www.w3.org/1999/xlink" x="0px" y="0px"
	 width="138.8px" height="50px" viewBox="0 0 138.8 50" style="enable-background:new 0 0 138.8 50;" xml:space="preserve">
<style type="text/css">
<![CDATA[
	.st0{fill-rule:evenodd;clip-rule:evenodd;fill:#EC214F;}
]]>
</style>
<g>
	<path class="st0" d="M132,0c0,0.5,0,1.1,0,1.6c-0.4,0-0.9,0-1.4,0c0,1.9,0,4,0,6.2c-0.7,0-1.4,0-2.1,0c0-2,0-4.1,0-6.2
		c-0.4,0-0.9,0-1.4,0c0-0.5,0-1.1,0-1.6C128.7,0,130.4,0,132,0z"/>
	<path class="st0" d="M138.8,0c-1.8,7.8,0,0-1.8,7.8c-1,0-2.1,0-3.1,0c-1.6-7.8,0,0-1.6-7.8c0.7,0,1.4,0,2.1,0c1.2,6.1,0,0,1.2,6.1
		c1.1-6.1,0,0,1.1-6.1C137.5,0,138.1,0,138.8,0z"/>
	<path class="st0" d="M44.5,28.1c0.7-0.8,1-1.9,1.4-3c2.5-6,5.2-12.1,7.8-18.3c0.4-1.1,0.8-2.3,1.6-2.7c1-0.5,3.6-0.3,5.4-0.3
		c1.7,0,4.4-0.1,4.8,0.1C66,4.2,65.9,4.2,66,4.3c0,0.2,0.1,0.3,0.1,0.5c0,0.4-0.7,1.8-1.1,2.6C59,20.7,52.8,34.1,46.7,47.5
		c-0.5,1.1-0.8,2.4-1.9,2.4c-1.3,0.1-1.6-1.3-2.1-2.4c-2.8-6.2-5.3-12.1-8.1-18.4c-0.5-1-1-2.7-1.6-2.8c-0.6-0.1-1.4,2.3-1.7,2.9
		c-2.8,6.1-5.3,12-8,18.2c-0.5,1.1-0.7,2.7-2.2,2.5c-1-0.1-1.3-1.4-1.8-2.4C13.2,34.2,7,20.8,0.9,7.5C0.5,6.5,0.2,5.9,0,5.1
		c-0.1-0.6,0.1-0.8,0.2-0.9c0.4-0.3,1.4-0.3,2.1-0.3c0.9,0,1.8,0,2.8,0c1.1,0,2.3,0,3.4,0c0.9,0,1.6,0.2,2.1,0.4
		c0.8,0.4,1.2,1.6,1.6,2.7c1.3,3,2.6,6.2,3.9,9.1c1.8,4.2,3.5,8.1,5.2,11.9c0.7-1.6,0.8-1.9,1.3-3c2.3-5.3,7.1-16.4,8.1-18.8
		c0.4-1,1.1-3.5,3-2.6c0.7,0.4,1.2,2,1.6,2.9c1.3,3.2,2.7,6.3,3.9,9.3C41.1,20.2,42.6,24.3,44.5,28.1z"/>
	<path class="st0" d="M48.6,49.5c-0.5-0.5,0.5-2.1,0.9-3.1c6-13.2,12.1-26.6,18.2-40c0.5-1.2,1.1-3,2.8-2.4c0.8,0.3,1.3,1.7,1.7,2.5
		C78.5,20.4,84.8,34,91.1,48c0.2,0.4,0.5,1.4,0.2,1.7C91,50.1,89.7,50,88.9,50c-1.9,0-3.6,0-5.5,0c-0.8,0-2,0-2.6-0.2
		c-0.6-0.2-1-1.3-1.3-2.1c-0.7-1.7-1.2-3-1.9-4.8c-0.2-0.4-0.5-1.9-1.2-2.2c-0.7-0.3-2.2-0.2-3.2-0.2c-2.5,0-4,0-6.6,0
		c-1.1,0-2.6,0-3.1,0.2c-0.5,0.2-0.8,1.4-1.1,2.2c-0.7,1.8-1.1,3-1.8,4.7c-0.3,0.8-0.7,1.7-1.2,2c-0.8,0.5-3.8,0.3-5.4,0.3
		c-1,0-2.1,0-3,0C50.1,50,49.2,50.1,48.6,49.5z"/>
	<path class="st0" d="M123.4,6.5c0-0.7,0.1-1.7-0.3-2c-0.5-0.5-1-0.6-2.5-0.6c-0.8,0-1.7,0.1-2.5,0c-3.5,0-4.3-0.2-5,0.5
		c-0.3,0.4-0.3,1.3-0.3,2c0,5.9,0,11.6,0,17.2c0,3.4,0.1,8.2-0.2,9.6c-0.5,2.7-1.8,4.9-3.7,6.1c-3.3,2.1-7.3,0.7-9-1.1
		c-2.2-2.3-2.7-5.2-2.7-9.6c0-6.9,0-14.3,0-21.4c0-1.1,0.1-2.4-0.3-2.8c-0.6-0.7-2.9-0.4-4.1-0.4c-1.7,0-3.7-0.1-4.7,0.1
		c0,0-0.1,0-0.1,0c-1.6,0-1.2,2.4-1.2,4.1c0,6.7,0,13.4,0,20c0,2.7,0,5.4,0.5,7.6C89,44.3,94.9,50,105.1,50c10,0,16.3-5.8,17.8-14.3
		c0.4-2.2,0.5-5.2,0.5-7.7C123.4,21.4,123.4,6.7,123.4,6.5z"/>
</g>
</svg>
