<?xml version="1.0" encoding="utf-8"?>
<!-- Generator: Adobe Illustrator 15.0.0, SVG Export Plug-In . SVG Version: 6.00 Build 0)  -->
<!DOCTYPE svg PUBLIC "-//W3C//DTD SVG 1.1//EN" "http://www.w3.org/Graphics/SVG/1.1/DTD/svg11.dtd">
<svg version="1.1" id="svg1894" xmlns:svg="http://www.w3.org/2000/svg"
	 xmlns="http://www.w3.org/2000/svg" xmlns:xlink="http://www.w3.org/1999/xlink" x="0px" y="0px" width="110px" height="23.695px"
	 viewBox="246.181 66.938 110 23.695" style="enable-background:new 246.181 66.938 110 23.695;" xml:space="preserve">
<style type="text/css">
<![CDATA[
	.st0{fill:#2F92CB;}
	.st1{fill:#FFFFFF;}
	.st2{fill:none;}
	.st3{fill:#012557;}
	.st4{fill:#025FA5;}
]]>
</style>
<g id="layer1">
	<g id="g6348" transform="matrix(1.249999,0,0,1.249999,-109.5334,-622.381)">
		<rect id="rect3" x="318.249" y="553.031" class="st1" width="51.417" height="15.328"/>
		<path id="path17" class="st3" d="M315.861,551.457v18.954h56.711v-18.954H315.861z M325.757,554.246
			c2.162,0,4.092,1.324,3.607,3.523l-0.212,0.964h-2.983l0.157-0.837c0.195-1.017-0.248-1.322-0.855-1.322
			c-0.447,0-1.129,0.139-1.431,1.516l-1.195,5.451c-0.196,0.913-0.02,1.591,0.873,1.68c0.965,0.091,1.251-0.907,1.376-1.516
			l0.212-1.073h2.983l-0.303,1.467c-0.5,2.395-2.284,3.341-4.445,3.341c-0.609,0-1.738-0.143-2.686-1.037
			c-0.625-0.589-1.643-0.466-1.643-0.466s0.215-0.304,0.303-0.77l1.558-7.13C321.826,554.569,324.203,554.246,325.757,554.246z
			 M332.051,554.465h3.734c2.698,0,4.216,1.928,3.735,4.347c-0.411,2.013-1.537,3.014-2.341,3.371l0.552,5.02h-3.092l-0.249-4.469
			l-1.127,0.024l-0.946,4.445h-3.02L332.051,554.465z M342.425,554.465h2.983l-2.771,12.739h-2.983L342.425,554.465z
			 M348.04,554.465h4.268l0.146,7.67l2.752-7.67h4.462l-2.752,12.739h-2.82l1.734-7.458c0.053-0.268-0.232-0.358-0.358-0.037
			l-2.916,7.495h-2.359l-0.122-7.44c-0.019-0.447-0.323-0.321-0.376-0.036l-1.631,7.476h-2.855L348.04,554.465z M362.301,554.465
			c5.253,0,6.621,0,6.621,0l-0.467,2.268h-3.577l-0.643,2.789h3.172l-0.534,2.304h-3.123l-0.661,3.11h3.055l-0.448,2.268h-6.112
			L362.301,554.465z M334.5,556.751l-0.806,3.717h1.43c1.108-0.141,1.571-1.583,1.571-1.583c0.376-1.511-0.43-2.134-1.038-2.134
			C335.658,556.751,334.66,556.751,334.5,556.751z M284.58,558.661v11.745h30.226v-11.745H284.58z"/>
		<path id="path25" class="st0" d="M285.29,564.007c0.233-0.13,0.55-0.073,0.77-0.194c0.778-0.412,1.301-1.402,2.019-1.891
			c0.257-0.195,0.606,0.022,0.805-0.209c0.243-0.202,0.058-0.44,0.333-0.673c0.666-0.507,1.37-0.77,2.02-1.261
			c0.332-0.249,0.671-0.732,1.001-1.119h-0.452c-0.65,0.619-1.293,1.234-1.939,1.749c-0.538,0.431-1.22,0.586-1.768,1.009
			c-0.645,0.499-1.22,1.31-1.893,1.766c-0.38,0.266-0.757,0.159-1.011,0.377c-0.173,0.108-0.386,0.361-0.593,0.55v0.53
			C284.834,564.418,285.044,564.139,285.29,564.007 M291.868,569.991c-0.114,0.155-0.135,0.323,0.126,0.378
			c0.037,0.011,0.075,0.024,0.113,0.037h0.847c-0.321-0.12-0.569-0.26-0.708-0.415C292.139,569.866,291.928,569.866,291.868,569.991
			z M294.254,561.67c-0.265-0.008-0.4,0.084-0.296,0.195c0.089,0.137,0.314-0.11,0.308,0.057c-0.134,1.177-1.825,3.045-1.026,4.781
			c0.995,1.666,1.348,1.066,2.37,1.796c0.411,0.245,0.848,0.166,0.929,0.105c0.158-0.08,0.129-0.196,0-0.252
			c-1.322-0.502-2.596-0.648-3.029-2.017c-0.239-0.827-0.031-1.769,0.126-2.143c0.534-1.273,1.44-2.637,2.399-3.53
			c0.9-0.838,1.83-1.473,2.873-2.001h-1.221c-0.275,0.164-0.532,0.328-0.768,0.489C296.063,559.731,295.425,561.588,294.254,561.67z
			 M287.575,567.849c-0.151-0.202-0.151-0.067-0.126,0.124c0.165,1.202,1.197,1.592,1.768,2.395
			c0.008,0.013,0.016,0.024,0.026,0.037h0.352c-0.729-0.843-1.4-1.773-1.894-2.433C287.658,567.932,287.616,567.889,287.575,567.849
			z M314.81,563.907c-0.024,0.02-0.05,0.034-0.088,0.032c-0.126,0-0.194,0.046-0.303,0.006c-0.097-0.025-0.159-0.091-0.202-0.132
			c-0.121-0.163-0.164-0.305-0.002-0.447c0.081-0.066,0.179-0.07,0.32-0.042c0.065,0.02,0.146,0.069,0.188,0.112
			c0.034,0.027,0.063,0.066,0.088,0.112v-1.297c-0.637-0.546-1.353-2.096-1.855-2.597c-0.362-0.363-0.75-0.692-1.161-0.994h-0.859
			c0.566,0.534,1.109,1.1,1.769,1.372c0.279,0.117,0.223,0.521-0.261,0.398c-1.02-0.472-1.305-1.152-2.013-1.659
			c-0.052-0.038-0.106-0.074-0.162-0.111h-0.949c1.62,0.745,3.548,2.825,4.141,3.893c0.417,0.751,0.293,1.719,0.883,2.269
			c0.149,0.124,0.17,0.32,0,0.378c-0.21,0.041-0.63,0.148-0.651-0.319c-0.031-3.359-2.845-4.858-5.051-6.131
			c-0.072-0.032-0.131-0.063-0.18-0.091h-1.521c2.822,0.672,4.87,2.402,5.888,4.777c0.829,1.93,1.081,4.506,0.834,6.969h0.233
			c0.168-0.633,0.553-1.38,0.198-1.927c-0.294-0.371,0-0.757,0-1.136c-0.018-0.262,0.135-0.291,0.252,0
			c0.296,0.874,0.232,2.027,0.058,3.063h0.409l-0.002-3.311c-0.036-0.252-0.132-0.477-0.338-0.761c-0.319-0.466-0.234-0.675,0-0.504
			c0.121,0.078,0.238,0.273,0.34,0.529V563.907L314.81,563.907z M314.366,566.546c0.075,0.272,0.064,0.502-0.023,0.545
			c-0.08,0.034-0.155-0.045-0.195-0.173c-0.144-0.531-0.152-0.681-0.259-1.076C313.77,565.417,314.229,566.127,314.366,566.546z
			 M313.388,561.566c-0.03,0.399-0.211-0.152-0.433-0.273c-0.145-0.132-0.243-0.194-0.052-0.334
			c0.093-0.105,0.052-0.213,0.052-0.297c0.047-0.262,0.292-0.262,0.378,0c0.055,0.162,0.143,0.21,0.257,0.327
			c0.191,0.141,0.098,0.141-0.099,0.27C313.449,561.296,313.388,561.413,313.388,561.566z M314.343,562.805
			c-0.132,0.287-0.3,0.158-0.378,0c-0.108-0.235,0.051-0.445-0.252-0.631c-0.223-0.15-0.355-0.273-0.127-0.252
			c0.041,0,0.082,0.027,0.127,0c0.033-0.034,0-0.083,0-0.126c-0.067-0.385,0.461,0.143,0.63,0.378
			C314.463,562.284,314.53,562.583,314.343,562.805z M313.241,558.66h-0.782c0.593,0.441,1.118,0.947,1.506,1.497
			c0.318,0.452,0.517,0.961,0.845,1.368v-0.841c-0.484-0.672-0.99-1.314-1.477-1.913
			C313.289,558.723,313.259,558.687,313.241,558.66z M313.364,558.66c0.416,0.214,0.934,0.741,1.446,1.372v-0.774
			c-0.347-0.134-0.648-0.348-0.926-0.598L313.364,558.66L313.364,558.66z M312.827,565.83c-0.176-0.214,0.25-0.349,0.127-0.756
			c-0.139-0.516-0.465-1.459-0.759-2.017c-2.406-4.586-10.486-5.939-14.52-1.891c-0.082,0.086-0.191,0.207-0.39,0.05
			c-0.411-0.43-1.288,1.111-1.418,2.14c-0.014,0.979-0.138,1.455,0.293,1.971c0.043,0.043,0.07,0.07,0.137,0.114
			c0.43,0.263,0.112-0.535,0.495-0.492c0.2,0.062,0.642,0.235,1.011,0.126c0.176-0.052,0.455-0.474,0.757-0.379
			c0.762,0.18,2.077,0.068,3.477-0.391c0.866-0.233,1.425-0.233,1.933-0.064c0.264,0.069,0.296,0.347,0.264,0.591
			c-0.272,1.826-1.715,1.233-2.588,2.362c-0.359,0.402-0.465-0.307-0.919-0.252c-0.191,0.041-0.181,0.199-0.56,0.346
			c-1.237,0.395-3.131,0.562-4.386,0.055c-0.496-0.179-0.871-0.395-1.01-1.008c-0.156-0.668-0.309-1.521-0.252-2.016
			c0.048-0.411,0.724-0.802,0.884-1.134c1.14-2.367,3.132-3.637,5.578-4.524h-1.233c-1.72,0.833-3.17,1.935-3.967,3.01
			c-1.343,1.816-2.406,4.008-0.871,5.639c0.866,0.694,4.023,1.263,5.417,0.16c0.337-0.277,0.63-0.259,0.653-0.045
			c0.009,0.125-0.011,0.296-0.296,0.391c-0.845,0.378-1.766,0.595-3.539,0.547c-0.368,0.032-0.391,0.212,0.138,0.242
			c3.78,0.259,6.306-1.739,7.172-3.416c0.243-0.452,0.391-1.065-0.148-1.295c-1.228-0.495-2.661-0.297-4.33,0.441
			c-0.391,0.18-0.813,0.191-1.038,0.109c-0.262-0.055-0.114-0.298,0.126-0.377c0.8-0.295,1.063-0.409,1.863-0.703
			c0.844-0.167,1.499,0.117,2.179-0.054c1.105-0.145,2.414,0.308,2.13,0.773c-0.397,0.556-0.052,1.291-0.49,2.001
			c-0.201,0.326-0.787,0.349-1.01,0.63c-0.19,0.248-0.031,0.427-0.201,0.669c-0.209,0.306-0.996,0.523-1.314,0.717
			c-0.334,0.159-0.154,0.284,0.126,0.252c1.405-0.055,3.623-2.141,3.064-3.715c-0.144-0.478,0.037-0.549,0.191-0.584
			c0.272-0.065,0.3,0.19,0.28,0.642c-0.062,3.505-3.684,4.854-6.79,5.711h2.175c0.277-0.208,0.503-0.448,0.7-0.541
			c1.574-0.737,2.92-1.502,3.788-2.899c0.263-0.422,0.446-1.219,0.468-1.696c0.073-1.577-0.705-2.185-1.316-2.209
			c-0.41-0.031-0.468-0.213-0.668-0.256c-0.675-0.143-0.933,0.327-1.831,0.304c-0.275-0.024-0.371-0.072-0.442-0.178
			c-0.084-0.145-0.025-0.288,0.179-0.384c1.077-0.454,0.932,0.191,2.095-0.121c0.849-0.262,2.219,1.018,2.398,2.017
			c0.088,0.504-0.272,1.814-0.505,2.27c-1.165,2.288-1.951,2.623-4.006,3.692h1.366c0.208-0.026,0.415-0.061,0.621-0.163
			c0.248-0.141,0.304-0.559,0.505-0.755c1.221-1.213,2.283-2.04,2.271-4.538c0.016-0.319,0.07-0.609,0.248-0.308
			c0.081,0.137,0.106,0.222,0.131,0.434c0.055,0.399,0.18,0.905-0.018,1.896c-0.151,0.866-1.163,2.162-2.513,3.435h0.648
			c0.585-0.612,1.09-1.226,1.504-1.802c1.884-2.626,0.068-5.525-1.711-6.755c-0.33-0.209-0.255-0.41,0.019-0.405
			c0.209,0.016,0.442,0.036,0.681,0.227c0.397,0.285,0.036,0.652,0.505,1.008c2.873,2.188,1.645,5.395-0.254,7.728h0.765
			c1.497-2.516,2.654-6.179-0.259-8.232c-0.283-0.19-0.307-0.302,0-0.252c1.975,0.357,1.844,2.292,2.273,4.287
			c0.031,0.139,0.252,0.677,0.127,1.009c-0.405,1.071-0.9,2.172-1.505,3.188h0.484c0.631-1.157,0.769-2.032,0.809-2.245
			c0.034-0.273,0.175-0.373,0.338-0.061c0.311,0.549-0.565,1.47-0.759,1.891c-0.064,0.142-0.114,0.279-0.157,0.415h0.599
			c0.05-0.173,0.107-0.351,0.19-0.541c0.447-1.029,0.737-4.259,0.041-5.435c-0.143-0.28-0.213-0.502-0.09-0.645
			c0.072-0.063,0.2-0.121,0.321,0.059c0.761,1.654,1.03,4.218,0.359,6.146c-0.049,0.141-0.111,0.277-0.18,0.415h0.428
			c0.251-0.773,0.397-1.609,0.385-2.18c-0.018-0.36,0.268-0.366,0.378,0c0.093,0.348-0.1,0.898,0.126,1.261
			c0.076,0.095,0.214,0.091,0.306-0.216c0.656-1.616,0.412-4.004-0.511-5.169c-0.1-0.147-0.1-0.256-0.174-0.415
			c-0.08-0.127-0.255-0.107-0.197,0.348c0.228,1.476,0.587,1.684,0.677,3.557c0.033,0.49-0.514,0.222-0.479-0.081
			c-0.006-1.469-0.001-2.848-0.676-3.73c-0.112-0.158-0.186-0.311-0.271-0.395c-0.295-0.227-0.459,0.174-0.58-0.09
			c-0.628-1.212-1.493-1.104-2.638-2.109c-0.064-0.051-0.115-0.102-0.158-0.145c-0.077-0.065-0.148-0.161,0.157-0.129
			c1.491,0.141,2.761,1.344,3.415,2.357c0.143,0.195,0.368,0.383,0.523,0.189c0.132-0.2,0.021-0.362-0.112-0.453
			c-1.531-0.907-1.97-2.241-4.205-2.47c-0.393-0.037,0.12,0.517-0.295,0.447c-0.682-0.066-0.534-0.296-0.841-0.7
			c-0.062-0.109,0.012-0.128,0.127-0.125c4.071,0.238,5.918,2.305,6.818,5.673c0.414,1.552-0.166,3.088-0.336,4.575h0.52
			c1.364-4.853-0.997-9.105-4.578-10.334c-0.629-0.182-0.555-0.539-0.168-0.488c3.747,0.923,6.174,5.048,5.192,9.652
			c-0.115,0.415,0.161,0.552,0,1.134c-0.002,0.013-0.006,0.024-0.009,0.037h0.437c0.042-0.31,0.068-0.616,0.077-0.919v-2.9
			c0-0.23,0.057-0.214,0.127,0c0.372,1.063,0.376,2.409,0.134,3.82h0.205c0.287-1.349,0.512-3.142,0.038-4.198
			C313.25,565.958,312.969,566.003,312.827,565.83z M303.61,559.275c0.259-0.101,0.376-0.064,0.507,0
			c0.238,0.212,0.202,0.513-0.001,0.549c-0.221,0.043-0.429-0.019-0.559-0.147C303.356,559.546,303.464,559.309,303.61,559.275z
			 M304.622,560.788c0.072,0.055,0.034,0.093,0,0.125c-0.1,0.088-0.254,0.083-0.38,0c-0.148-0.107-0.148-0.261,0-0.252
			C304.429,560.652,304.54,560.712,304.622,560.788z M303.989,560.788c-0.043,0.042-0.206,0.14-0.359,0.127
			c-0.581-0.008-0.498-0.066-0.737-0.122c-0.368-0.154-0.399-0.214-0.461-0.289c-0.168-0.283,0.071-0.417,0.424-0.374
			c0.295,0,0.503,0.006,0.871,0.061c0.152,0.03,0.284,0.168,0.326,0.294C304.096,560.528,304.036,560.725,303.989,560.788z
			 M296.539,563.437c-0.133,0.399,0.055,0.789-0.118,1.065c-0.055,0.066-0.087,0.148-0.037,0.294
			c0.141,0.416-0.183,0.154-0.223-0.101c-0.139-0.793,0.279-1.33,0.137-1.953c-0.086-0.368,0.225-0.191,0.639-0.901
			c0.228-0.295,0.522-0.319,0.488-0.171C297.323,562.43,296.746,562.823,296.539,563.437z M299.064,562.93
			c-0.152,0.218-0.233,0.985-0.505,1.261c-0.225,0.23-0.451,0.115-0.883,0.504c-0.273,0.192-0.807,0.107-0.757-0.125
			c0.03-1.015,0.972-2.855,1.514-3.405c0.36-0.364,0.741-0.375,1.071-0.778c0.159-0.183,0.33-0.006,0.571-0.104
			c0.289-0.164-0.066-0.422,0.301-0.471c1.303-0.161,1.18-0.451,2.357-0.497c0.517-0.03,0.454,0.257,0.044,0.392
			c-0.591,0.221-1.039,0.164-1.691,0.45c-0.304,0.164-0.096,0.513-0.632,0.631c-0.482,0.108-0.723-0.033-1.135,0.252
			c-0.961,0.618-0.984,2.334-1.933,2.995c-0.087,0.081-0.208,0.141-0.178,0.258c0.048,0.061,0.123,0.056,0.218,0.025
			c0.756-0.285,0.758-0.838,1.135-1.513c0.413-0.738,1.756-1.643,2.652-1.891c0.367-0.149,0.125,0.258,0.631,0.127
			c0.154-0.04,0.233-0.224,0.631-0.252c0.322-0.027,0.395,0.31,0,0.377C301.141,561.495,299.739,561.962,299.064,562.93z
			 M303.091,562.069c-1.563,0-2.39,0.627-3.268,1.367c-0.117,0.102-0.248,0.162-0.296,0.066c-0.131-0.132,0.005-0.448,0.047-0.491
			c0.838-1.136,2.079-1.495,3.409-1.552C303.63,561.425,303.655,562.034,303.091,562.069z M304.731,561.616
			c-0.336,0.117-0.22,0.199-0.358,0.287c-0.156,0.071-0.36,0.105-0.468,0.071c-0.293-0.045-0.371-0.299-0.275-0.466
			c0.062-0.102,0.151-0.141,0.228-0.168c0.393-0.144,0.453,0.027,0.831,0.07C304.857,561.434,304.899,561.566,304.731,561.616z
			 M305,559.654c-0.357,0.496-0.661,0.366-0.631-0.127c0.031-0.288,0.311-0.321,0.545-0.135
			C304.955,559.434,305.077,559.568,305,559.654z M305.901,559.824c-0.112,0.223-0.489,0.178-0.649-0.045
			c-0.129-0.192-0.1-0.364-0.032-0.405c0.043-0.042,0.169-0.079,0.225-0.079c0.102-0.005,0.177,0.012,0.313,0.107
			C305.911,559.54,305.946,559.66,305.901,559.824z M306.474,559.657c-0.252-0.057-0.243-0.125-0.339-0.255
			c-0.094-0.127-0.038-0.252,0.325-0.132c0.153,0.043,0.201,0.168,0.214,0.257C306.679,559.582,306.637,559.694,306.474,559.657z
			 M314.782,558.66h-0.425c0.146,0.117,0.296,0.229,0.454,0.335v-0.309C314.8,558.679,314.791,558.669,314.782,558.66z
			 M292.877,562.426c-0.084,0.12,0.014,0.223,0.177,0.13c0.621-0.479,1.464-2.009,2.221-2.65c0.397-0.336,1.021-0.779,1.776-1.245
			h-0.749c-0.502,0.331-0.972,0.666-1.405,0.994C293.976,560.349,293.652,561.582,292.877,562.426z M292.891,559.161
			c0.543-0.09,0.993-0.27,1.391-0.5h-0.964c-0.161,0.08-0.321,0.162-0.479,0.257C292.628,559.066,292.696,559.213,292.891,559.161z
			 M293.636,559.905c-0.049,0.048-0.094,0.124,0,0.127c0.644-0.141,1.409-0.737,2.152-1.372h-0.849
			C294.466,559.075,294.025,559.499,293.636,559.905z M287.459,559.965c-0.889,0.65-1.575,0.966-2.663,1.453
			c-0.315,0.142-0.178,0.547,0.126,0.504c0.713-0.155,1.009-0.674,1.515-1.009c0.495-0.326,1.047-0.397,1.514-0.756
			c0.403-0.308,0.643-0.912,1.011-1.26c0.067-0.063,0.164-0.144,0.283-0.237h-0.581c-0.226,0.211-0.429,0.422-0.586,0.615
			C287.871,559.504,287.893,559.669,287.459,559.965z M286.312,559.023c0.344-0.227,1.09-0.169,1.482-0.363h-1.413
			c-0.611,0.208-1.222,0.358-1.8,0.584v0.598c0.464-0.131,0.818-0.023,1.331-0.331C286.065,559.425,286.122,559.151,286.312,559.023
			z M285.68,562.93c0.76-0.409,1.862-1.741,2.652-2.269c0.346-0.231,0.835-0.228,1.137-0.504c0.341-0.311,0.504-0.856,0.883-1.134
			c0.138-0.101,0.349-0.224,0.589-0.363h-0.845c-0.107,0.172-0.008,0.294-0.25,0.489c-0.755,0.63-1.599,1.049-2.398,1.639
			c-0.691,0.455-0.857,1.027-1.263,1.26c-0.23,0.198-0.895,0.435-1.604,0.752v0.484c0.067-0.038,0.134-0.076,0.211-0.114
			C285.088,562.997,285.399,563.113,285.68,562.93z M287.481,558.984c-0.739,0.791-1.784,1.238-2.899,1.623v0.513
			c1.215-0.479,2.321-1.394,3.245-1.97C288.298,558.811,287.734,558.76,287.481,558.984z M292.168,559.382
			c-0.708,1.148-3.312,2.931-4.593,3.548c-0.31,0.102-0.368,0.456,0,0.379c0.386-0.113,0.817-0.337,1.263-0.624v-0.007
			c0.001,0.002,0.005,0.002,0.005,0.005c1.364-0.881,2.882-2.363,3.784-3.156C292.942,559.265,292.372,559.119,292.168,559.382z
			 M293.636,559.526c0.056-0.168-0.054-0.238-0.253-0.252c-0.183-0.007-0.394,0.195-0.252,0.379
			C293.284,559.776,293.554,559.738,293.636,559.526z M292.334,560.069c-0.099,0.31-0.14,0.275-0.34,0.467
			c-0.077,0.081-0.129,0.186,0,0.252c0.161,0.086,0.59-0.041,0.757-0.379c0.074-0.155,0.113-0.229,0.126-0.378
			C292.912,559.744,292.407,559.791,292.334,560.069z M292.864,560.692c-0.131,0.413,0.105,0.362-0.139,0.627
			c-0.093,0.102-0.055,0.19,0.026,0.226c0.336,0.104,0.788-0.179,0.759-0.505c0.013-0.318,0.015-0.467,0.126-0.63
			c0.146-0.2-0.182-0.299-0.382-0.241C293.071,560.249,292.941,560.39,292.864,560.692z M300.106,560.498
			c0.13,0.101,0.18,0.115,0.363,0.085c0.196-0.085,0.336-0.251,0.055-0.398c-0.184-0.073-0.186,0.051-0.448,0.097
			C299.959,560.357,300.038,560.412,300.106,560.498z M291.269,561.114c-0.367,0.476-0.825,0.58-1.17,1.06
			c-0.795,1.11-1.271,2.195-2.371,2.973c-0.471,0.282-0.216,0.731-0.027,0.936c0.043,0.042,0.265,0.104,0.46-0.314
			c0.55-1.433,0.514-1.02,1.434-1.955c0.303-0.308,0.229-0.777,0.505-1.135c0.428-0.552,1.132-0.619,1.452-1.276
			c0.078-0.187,0.216-0.194,0.332-0.273C292.42,560.845,291.522,560.602,291.269,561.114z M292.372,561.04
			c-0.308,0.446-1.601,1.322-1.389,1.766c0.055,0.055,0.069,0.087,0.193,0.055c0.756-0.273,0.738-1.133,1.323-1.568
			C292.904,560.947,292.527,560.782,292.372,561.04z M292.752,562.174c0.222-0.112,0.344-0.447,0.062-0.506
			c-0.057-0.01-0.238-0.069-0.323,0.076c-0.113,0.205-0.295-0.038-0.39,0.276c-0.03,0.057-0.034,0.112-0.075,0.188
			c-0.048,0.103,0.05,0.206,0.095,0.219C292.41,562.505,292.486,562.316,292.752,562.174z M292.752,564.823
			c0.264-0.7,0.478-1.584,1.009-2.017c0.143-0.13,0.296-0.548,0.02-0.412c-0.136,0.076-0.246,0.135-0.375,0.276
			c-0.349,0.319-0.921,1.533-0.971,1.967C292.387,565.005,292.67,565.084,292.752,564.823z M292.016,563.048
			c0.259-0.245,0.102-0.402-0.148-0.37c-0.264,0.052-0.279,0.356-0.127,0.506C291.838,563.246,291.973,563.091,292.016,563.048z
			 M291.615,565.579c-0.108-1.032,1.36-1.821,1.034-2.622c-0.102-0.227-1.347,1.618-1.299,2.388c0.062,1.71,0.725,2.455,1.38,3.551
			c0.181,0.323,0.382,0.253,0.344-0.031C292.842,567.659,291.765,567.014,291.615,565.579z M290.872,563.539
			c0.071-0.159,0.188-0.275,0.152-0.426c-0.052-0.101-0.109-0.116-0.276-0.071c-1.215,0.32-0.729,1.928-1.406,2.788
			c-0.12,0.152-0.523-0.012-0.505,0.378c0.041,0.505,0.084,1.009,0.126,1.513c0.037,0.198,0.398,0.234,0.379,0
			c-0.071-0.584-0.073-0.928,0-1.513c0.033-0.188,0.179-0.166,0.252,0.126c0.035,0.184,0.598,0.178,0.505-0.126
			c-0.146-0.469-0.478-0.216-0.378-0.504C289.982,564.91,290.569,564.249,290.872,563.539z M291.741,563.309
			c-0.07-0.045-0.173-0.073-0.359,0.012c-0.044,0.018-0.118,0.073-0.161,0.12c-0.119,0.144-0.219,0.418,0.014,0.498
			c0.129,0.041,0.311-0.098,0.534-0.219C291.907,563.641,291.929,563.431,291.741,563.309z M287.448,563.437
			c-0.851,0.173-1.827,0.952-2.526,1.386c-0.297,0.202-0.13,0.412,0,0.378c1.135-0.188,1.69-1.014,2.526-1.513
			C287.583,563.602,287.668,563.437,287.448,563.437z M288.206,564.066c0.44-0.269,0.339-0.577,0-0.379
			c-0.77,0.41-1.202,1.21-1.894,1.639c-0.613,0.38-1.127,0.634-1.731,0.794v0.421c0.986-0.289,1.858-0.779,2.741-1.467
			C287.67,564.802,287.805,564.334,288.206,564.066z M291.11,564.191c-0.22,0.035-0.379,0.137-0.505,0.252
			c-0.134,0.125-0.283,0.366,0,0.505c0.133,0.042,0.21,0.027,0.339-0.009c0.078-0.024,0.233-0.107,0.273-0.148
			C291.447,564.566,291.401,564.114,291.11,564.191z M298.139,566.719c-0.824,0.01-1.264-0.02-1.725-0.384
			c-0.926-0.611-1-2.594-1.262-2.143c-0.17,0.499-0.081,1.616,0.252,2.017c1.046,1.473,5.583,0.585,7.161-0.134
			c0.523-0.23,1.034-0.57,1.299-1.001c0.158-0.349-0.095-0.602-0.707-0.55c-1.865,0.253-2.685,1.14-4.711,0.718
			c-0.276-0.054-0.391-0.118-0.517,0.084c0,0.083-0.105,0.21,0.517,0.326c1.955,0.38,2.861-0.114,4.458-0.76
			c0.401-0.189,0.632-0.02,0.368,0.244c-0.612,0.57-2.721,1.365-3.981,1.276c-0.541-0.038-1.289-0.359-1.723-0.686
			c-0.4-0.252-1.035-0.326-0.771,0.18c0.359,0.488,0.804,0.486,1.606,0.612C298.73,566.581,298.92,566.738,298.139,566.719z
			 M289.594,564.57c0.157-0.209-0.262-0.369-0.378-0.127c-0.233,0.367-0.473,0.902-0.759,1.262c-0.03,0.064-0.058,0.114-0.023,0.202
			c0.043,0.111,0.218,0.05,0.276-0.076C288.969,565.37,289.225,564.917,289.594,564.57z M292.246,565.074
			c-0.265-0.145,0.121,0.82,0.254,1.26c0.585,1.971,0.755,2.254,2.652,2.901c0.445,0.149,1.514,0.463,2.02,0.124
			c0.222-0.205,0.624,0.053,1.011,0c0.173-0.037,0.279-0.174,0-0.252c-1.979-0.341-3.958,0.077-5.051-1.511
			C292.692,566.959,292.851,565.55,292.246,565.074z M290.479,565.452c-0.435,2.021,1.147,3.144,2.147,4.413
			c0.158,0.212,0.305,0.264,0.252,0c-0.179-0.796-0.746-0.737-1.136-1.261c-0.533-0.716-1.014-2.084-0.884-3.026
			C290.893,565.212,290.586,565.131,290.479,565.452z M293.636,565.579c-0.066,0.315-0.039,0.377-0.003,0.566
			c0.083,0.259,0.368,0.227,0.382-0.062C294.015,565.636,293.706,565.293,293.636,565.579z M287.07,565.956
			c0.065-0.085,0.063-0.267,0.021-0.267c-0.354-0.123-1.411,1.373-1.663,1.529c-0.208,0.127-0.582,0.114-0.846,0.184v0.418
			C285.884,567.656,286.591,566.966,287.07,565.956z M286.918,568.244c0.257-0.499,0.867-2.173,0.47-1.725
			c-0.303,0.504-0.445,0.85-0.822,1.33c-0.212,0.215-0.162,0.402,0,0.503C286.629,568.417,286.816,568.445,286.918,568.244z
			 M288.32,568.208c0.065,0.152,0.152,0.262,0.195,0.304c0.087,0.136,0.209,0.216,0.196,0.092c-0.192-0.805-0.373-1.207-0.253-2.142
			c0-0.348-0.361-0.317-0.379,0C288.1,567.399,287.92,567.328,288.32,568.208z M289.973,567.091v-0.252
			c-0.012-0.297-0.258-0.212-0.252,0c0.111,1.208,0.808,2.368,1.514,3.027c0.089,0.086,0.423,0.307,0.38,0.126
			c-0.17-0.803-0.899-1.145-1.264-1.765C290.171,567.941,289.969,567.552,289.973,567.091z M289.58,568.039
			c-0.017-0.185-0.234-0.213-0.252,0c0.013,0.487-0.053,0.518,0.17,0.761c0.066,0.078,0.082,0.206,0.082,0.247
			c-0.047,0.121,0.157,0.221,0.127,0C289.664,568.712,289.623,568.374,289.58,568.039z M286.06,568.226
			c-0.489-0.237-0.7,0.148-1.479,0.155v0.452c0.634,0.086,1.011-0.228,1.528,0.184c0.143,0.122,0.303,0.079,0.329-0.034
			C286.49,568.634,286.281,568.33,286.06,568.226z M301.591,568.479c-0.02-0.321-0.677,0.249-1.011,0.377
			c-0.532,0.202-1.485,0.045-1.92,0.125c-0.146,0.034-0.344,0.205-0.101,0.255c0.325,0.014,0.382-0.039,0.624-0.081
			c0.285-0.053,0.525-0.046,0.639-0.046c0.322-0.012,0.149,0.16-0.037,0.262c-1.379,0.734-5.489,0.683-6.403-0.262
			c-0.088-0.107-0.261-0.109-0.24,0.077c0.059,0.315,0.175,0.723,0.802,0.866C295.913,570.493,301.197,570.328,301.591,568.479z
			 M286.943,568.731c-0.343-0.082-0.337,0.299-0.126,0.504c0.39,0.39,0.781,0.78,1.172,1.171h0.422
			C288.172,570.006,287.16,568.816,286.943,568.731z M285.775,569.203c-0.1-0.095-0.325-0.093-0.473,0.032
			c-0.105,0.076-0.14,0.192,0,0.377c0.043,0.042,0.083,0.085,0.126,0.126c0.145,0.122,0.42,0.173,0.632,0
			C286.173,569.573,285.978,569.362,285.775,569.203z M290.857,570.117c-0.38-0.258-0.524-0.592-1.011-0.758
			c-0.454-0.116,0.347,0.603,0.632,1.009c0.013,0.013,0.026,0.027,0.041,0.037h0.291c0.016-0.011,0.031-0.023,0.045-0.037
			C290.946,570.303,290.972,570.198,290.857,570.117z M285.831,570.405c-0.485-0.233-0.882-0.484-1.25-0.784v0.784H285.831z
			 M287.004,570.405h0.322c-0.188-0.117-0.38-0.234-0.582-0.349C286.289,569.823,286.57,570.068,287.004,570.405z M310.556,569.991
			c-0.056,0.141-0.117,0.279-0.176,0.416h0.47c-0.027-0.116-0.045-0.248-0.041-0.416
			C310.834,569.634,310.665,569.66,310.556,569.991z"/>
		<path id="rect5" class="st4" d="M284.574,551.457v6.166h9.768v-6.166H284.574z M294.803,551.457v6.166h9.774v-6.166H294.803z
			 M305.038,551.457v6.166h9.768v-6.166H305.038z"/>
		<path id="path11" class="st1" d="M286.127,552.882l-0.006,3.299h2.45v-1.079h0.497l1.267,1.079h2.559l-1.613-1.14l0.066-0.006
			c0.52,0.012,1.02-0.448,1.019-1.037c0-0.791-0.59-1.116-1.128-1.116H286.127z M302.777,552.882l-6.294,0.006v0.77h1.855v2.523
			h2.607l0.006-2.523h1.825V552.882z M306.73,552.888v3.293h6.391v-0.764h-3.589v-2.529H306.73z M288.57,553.64h1.122
			c0.223,0,0.352,0.192,0.352,0.364c0,0.2-0.135,0.355-0.327,0.376l-1.146-0.006V553.64z"/>
		<rect id="rect21" x="284.572" y="551.455" class="st2" width="88" height="18.956"/>
	</g>
</g>
</svg>
