<?xml version="1.0" encoding="utf-8"?>
<!-- Generator: Adobe Illustrator 15.0.0, SVG Export Plug-In . SVG Version: 6.00 Build 0)  -->
<!DOCTYPE svg PUBLIC "-//W3C//DTD SVG 1.1//EN" "http://www.w3.org/Graphics/SVG/1.1/DTD/svg11.dtd">
<svg version="1.1"
	 id="svg2" inkscape:version="0.45.1" inkscape:output_extension="org.inkscape.output.svg.inkscape" xmlns:dc="http://purl.org/dc/elements/1.1/" xmlns:cc="http://web.resource.org/cc/" xmlns:rdf="http://www.w3.org/1999/02/22-rdf-syntax-ns#" xmlns:svg="http://www.w3.org/2000/svg" xmlns:sodipodi="http://sodipodi.sourceforge.net/DTD/sodipodi-0.dtd" xmlns:inkscape="http://www.inkscape.org/namespaces/inkscape" sodipodi:version="0.32"
	 xmlns="http://www.w3.org/2000/svg" xmlns:xlink="http://www.w3.org/1999/xlink" x="0px" y="0px" width="40.094px" height="28px"
	 viewBox="289.949 202.495 40.094 28" style="enable-background:new 289.949 202.495 40.094 28;" xml:space="preserve">
<style type="text/css">
<![CDATA[
	.st0{fill:#ED1487;}
	.st1{fill:#1F1A1C;}
	.st2{fill:#5D2790;}
	.st3{fill:#FFFFFF;}
]]>
</style>
<g id="layer1" transform="translate(-8.1710421,-614.49012)" inkscape:label="Layer 1" inkscape:groupmode="layer">
	<g>
		<g id="g23806" transform="matrix(33.252697,0,0,-33.252697,-12645.51,9731.9141)">
			<g id="g23808" transform="translate(387.1147,273.3027)">
				<path id="path23810" class="st0" d="M2.562-5.263c-0.081-0.055-0.131-0.14-0.143-0.23c0.033-0.016,0.06,0.003,0.098,0.011
					C2.525-5.48,2.534-5.479,2.542-5.48c0.023-0.002,0.041-0.012,0.053-0.022c0.012-0.011,0.053-0.056,0.053-0.056
					c-0.021,0.012-0.047,0.011-0.059,0.01C2.578-5.55,2.55-5.559,2.538-5.563c-0.011-0.004-0.04-0.01-0.072,0.017L2.417-5.499
					C2.408-5.576,2.425-5.657,2.472-5.726c0.103-0.152,0.31-0.193,0.463-0.09c0.152,0.103,0.193,0.31,0.09,0.463
					C2.921-5.2,2.714-5.16,2.562-5.263"/>
			</g>
		</g>
	</g>
	<g>
		<g id="g23812" transform="matrix(33.252697,0,0,-33.252697,-12645.51,9731.9141)">
			<g id="g23814" transform="translate(386.74541,268.6644)">
				<path id="path23816" class="st2" d="M2.907-0.925c0.012,0.004,0.041,0.014,0.051,0.014C2.97-0.909,2.996-0.908,3.017-0.92
					c0,0-0.041,0.045-0.053,0.056c-0.012,0.011-0.03,0.02-0.053,0.022c-0.008,0.001-0.017,0-0.026-0.003
					C2.847-0.853,2.821-0.871,2.787-0.855c0-0.002,0-0.004-0.001-0.006l0.048-0.047C2.867-0.935,2.896-0.929,2.907-0.925"/>
			</g>
			<g id="g23818" transform="translate(392.0127,271.7249)">
				<path id="path23820" class="st3" d="M-2.02-3.788L-2.02-3.788l-0.034-0.023l0.136-0.202l0.043,0.029l-0.087,0.129l0.031,0.021
					l-0.023,0.035C-1.976-3.815-1.998-3.817-2.02-3.788"/>
			</g>
			<g id="g23822" transform="translate(390.4803,269.9574)">
				<path id="path23824" class="st3" d="M-0.586-2.134L-0.586-2.134l-0.073,0.107l-0.043-0.029l0.187-0.277l0.043,0.029l-0.07,0.103
					c-0.016,0.023-0.022,0.051-0.001,0.064c0.03,0.02,0.048-0.011,0.067-0.041l0.06-0.089l0.018,0.012l-0.136,0.202
					C-0.542-2.054-0.551-2.058-0.56-2.065C-0.58-2.079-0.593-2.107-0.586-2.134"/>
			</g>
			<g id="g23826" transform="translate(389.6151,267.5103)">
				<path id="path23828" class="st3" d="M0.223,0.154L0.157,0.22C0.139,0.229,0.117,0.237,0.091,0.233
					c-0.012-0.002-0.017-0.002-0.036-0.01l0.191-0.18l0.062,0.042l-0.057,0.15l-0.1,0.147L0.133,0.37L0.223,0.154z"/>
			</g>
			<g id="g23830" transform="translate(390.33611,269.26179)">
				<path id="path23832" class="st0" d="M-0.451-1.484c0.008-0.012,0.005-0.028-0.007-0.037c-0.012-0.008-0.028-0.005-0.037,0.007
					C-0.503-1.501-0.5-1.485-0.488-1.477C-0.476-1.469-0.46-1.472-0.451-1.484"/>
			</g>
			<g id="g23834" transform="translate(380.5304,263.6615)">
				<path id="path23836" class="st1" d="M8.72,3.754c0-0.087,0.073-0.161,0.16-0.161c0.037,0,0.071,0.012,0.099,0.034v-0.03h0.284
					v0.015C9.281,3.6,9.302,3.593,9.324,3.593c0.032,0,0.061,0.014,0.082,0.038c0.02-0.024,0.05-0.038,0.083-0.038
					c0.023,0,0.046,0.008,0.065,0.022V3.599h0.097V3.64c0.03-0.03,0.071-0.047,0.114-0.047c0.089,0,0.161,0.072,0.161,0.161
					c0,0.089-0.072,0.161-0.161,0.161c-0.043,0-0.083-0.017-0.114-0.047v0.042H9.554V3.897c-0.017,0.013-0.037,0.02-0.06,0.02
					c-0.034,0-0.065-0.015-0.084-0.042C9.392,3.901,9.363,3.916,9.329,3.916c-0.025,0-0.048-0.009-0.066-0.024V3.91H9.176
					L9.129,3.842C9.096,3.868,9.07,3.896,9.06,3.91H8.979V3.883C8.951,3.905,8.917,3.916,8.88,3.916
					C8.79,3.916,8.72,3.845,8.72,3.754"/>
			</g>
			<g id="g23838" transform="translate(384.77451,262.67731)">
				<path id="path23840" class="st3" d="M4.75,4.675C4.726,4.633,4.684,4.608,4.636,4.608c-0.07,0-0.129,0.059-0.129,0.131
					c0,0.074,0.057,0.132,0.13,0.132c0.05,0,0.09-0.024,0.116-0.069H4.708C4.687,4.824,4.664,4.834,4.636,4.834
					c-0.052,0-0.093-0.042-0.093-0.095c0-0.051,0.043-0.094,0.094-0.094c0.027,0,0.05,0.01,0.069,0.031H4.75z"/>
			</g>
			<g id="g23842" transform="translate(390.44521,264.6078)">
				<path id="path23844" class="st3" d="M-0.554,2.869c-0.001,0.02-0.015,0.034-0.033,0.034c-0.02,0-0.034-0.015-0.034-0.034
					c0-0.021,0.009-0.028,0.041-0.036c0.024-0.005,0.036-0.012,0.047-0.024c0.013-0.015,0.02-0.032,0.02-0.052
					c0-0.044-0.035-0.08-0.078-0.08c-0.045,0-0.077,0.033-0.078,0.08h0.036c0.003-0.028,0.018-0.043,0.042-0.043
					c0.024,0,0.042,0.018,0.042,0.041c0,0.022-0.011,0.032-0.041,0.039c-0.026,0.007-0.035,0.01-0.045,0.018
					c-0.015,0.012-0.024,0.032-0.024,0.053c0,0.043,0.031,0.074,0.073,0.074c0.039,0,0.067-0.029,0.07-0.071H-0.554z"/>
			</g>
			<g id="g23846" transform="translate(392.9931,264.6078)">
				<path id="path23848" class="st3" d="M-2.937,2.869C-2.938,2.89-2.951,2.903-2.97,2.903c-0.02,0-0.034-0.015-0.034-0.034
					c0-0.021,0.009-0.028,0.041-0.036c0.024-0.005,0.036-0.012,0.048-0.024c0.013-0.015,0.02-0.032,0.02-0.052
					c0-0.044-0.035-0.08-0.078-0.08c-0.045,0-0.077,0.033-0.078,0.08h0.036c0.003-0.028,0.018-0.043,0.042-0.043
					c0.024,0,0.042,0.018,0.042,0.041c0,0.022-0.011,0.032-0.041,0.039c-0.026,0.007-0.035,0.01-0.045,0.018
					c-0.015,0.012-0.024,0.032-0.024,0.053c0,0.043,0.031,0.074,0.073,0.074c0.039,0,0.067-0.029,0.07-0.071H-2.937z"/>
			</g>
			<path id="path23850" class="st3" d="M390.115,267.543h0.036v-0.252h-0.036V267.543z"/>
			<g id="g23852" transform="translate(398.46671,262.67709)">
				<path id="path23854" class="st3" d="M-8.056,4.675C-8.08,4.633-8.123,4.608-8.171,4.608c-0.07,0-0.129,0.059-0.129,0.131
					c0,0.074,0.057,0.132,0.13,0.132c0.05,0,0.09-0.024,0.116-0.069h-0.044C-8.12,4.824-8.142,4.834-8.171,4.834
					c-0.052,0-0.093-0.042-0.093-0.095c0-0.051,0.043-0.094,0.094-0.094c0.026,0,0.05,0.01,0.069,0.031H-8.056z"/>
			</g>
			<g id="g23856" transform="translate(387.89391,263.377)">
				<path id="path23858" class="st3" d="M1.833,4.021H1.776l0.057,0.082V4.021z M1.833,4.164L1.692,3.965h0.046l0.014,0.02h0.081
					V3.912h0.036v0.252H1.833z"/>
			</g>
			<g id="g23860" transform="translate(385.5639,265.60049)">
				<path id="path23862" class="st3" d="M4.012,1.941H3.976V1.689h0.132v0.035H4.012L4.012,1.941z"/>
			</g>
		</g>
	</g>
</g>
</svg>
