<?xml version="1.0" encoding="utf-8"?>
<!-- Generator: Adobe Illustrator 15.0.0, SVG Export Plug-In . SVG Version: 6.00 Build 0)  -->
<!DOCTYPE svg PUBLIC "-//W3C//DTD SVG 1.1//EN" "http://www.w3.org/Graphics/SVG/1.1/DTD/svg11.dtd">
<svg version="1.1"
	 id="svg3596" inkscape:version="0.48.2 r9819" sodipodi:docname="CT1 HD.svg" xmlns:dc="http://purl.org/dc/elements/1.1/" xmlns:cc="http://creativecommons.org/ns#" xmlns:rdf="http://www.w3.org/1999/02/22-rdf-syntax-ns#" xmlns:svg="http://www.w3.org/2000/svg" xmlns:sodipodi="http://sodipodi.sourceforge.net/DTD/sodipodi-0.dtd" xmlns:inkscape="http://www.inkscape.org/namespaces/inkscape"
	 xmlns="http://www.w3.org/2000/svg" xmlns:xlink="http://www.w3.org/1999/xlink" x="0px" y="0px" width="110px" height="24.8px"
	 viewBox="337.8 76.7 110 24.8" style="enable-background:new 337.8 76.7 110 24.8;" xml:space="preserve">
<style type="text/css">
<![CDATA[
	.st0{fill:#00D700;}
]]>
</style>
<sodipodi:namedview  id="base" inkscape:current-layer="layer1" inkscape:window-y="-8" inkscape:window-x="-8" fit-margin-bottom="0.5" fit-margin-right="0.5" inkscape:window-height="1028" inkscape:window-width="1920" inkscape:pageshadow="2" inkscape:pageopacity="0.0" inkscape:window-maximized="1" inkscape:cy="1.4581715" borderopacity="1.0" inkscape:cx="832.83995" bordercolor="#666666" showgrid="false" pagecolor="#ffffff" inkscape:zoom="0.98994949" fit-margin-left="0.5" fit-margin-top="0.5" inkscape:document-units="px">
	</sodipodi:namedview>
<g>
	<g id="g3101" transform="translate(474.9367,488.2101)">
		<path id="path3103" inkscape:connector-curvature="0" class="st0" d="M-86.6-396.5c0,0.6-0.4,0.8-1.7,0.8c-1.5,0-3.1-0.2-5.2-0.8
			l-0.3,3c1.6,0.7,3.7,1,5.7,1c3.1,0,5.8-1.2,5.8-4.2c0-5.4-7.3-4-7.3-5.6c0-0.5,0.2-0.8,1.7-0.8c1,0,2.6,0.2,4.7,0.8l0.3-3
			c-1.6-0.7-3.4-1-5.2-1c-3.1,0-5.8,1-5.8,4.2C-93.9-396.6-86.6-398-86.6-396.5 M-80.1-388.2h4.4v-5.1c1.1,0.6,2.2,0.8,3.5,0.8
			c3,0,6.2-2.2,6.2-6.9s-2.9-6.9-5.9-6.9c-1.3,0-2.7,0.5-3.8,1.4l-0.2-1.1h-4.2V-388.2L-80.1-388.2z M-75.7-402
			c0.7-0.4,1.4-0.6,2.2-0.6c1.6,0,2.9,1,2.9,3.3s-1.4,3.3-2.9,3.3c-0.7,0-1.5-0.2-2.2-0.6V-402z M-64.4-399.3c0,4,2.8,6.9,7.3,6.9
			c4.5,0,7.3-2.9,7.3-6.9s-2.8-6.9-7.3-6.9C-61.6-406.2-64.4-403.3-64.4-399.3 M-59.7-399.3c0-2,1.1-3.5,2.7-3.5
			c1.5,0,2.7,1.4,2.7,3.5s-1.1,3.5-2.7,3.5C-58.6-395.9-59.7-397.3-59.7-399.3 M-37.7-406.2c-2.4-0.2-4.5,0.8-5.3,2.2l-0.3-1.9h-4.2
			v13.1h4.4v-7.4c1.3-1.7,2.5-2.2,5-1.9L-37.7-406.2L-37.7-406.2z M-30.3-405.9v-3.1h-3.9l-0.5,3.1l-2,0.2v2.9h2v6
			c0,4.6,4.1,4.9,7.6,3.7l-0.3-3.1c-2,0.3-2.8,0-2.8-1.1v-5.5h2.9v-3.2H-30.3L-30.3-405.9z"/>
	</g>
	<g id="g3105" transform="translate(432.5919,503.3594)">
		<path id="path3107" inkscape:connector-curvature="0" class="st0" d="M-85.5-426.4c2.4-0.2,5.1-0.3,7.3-0.3v3.2
			c-1,0-2.2,0.1-3.2,0.2c-3.8,0.4-4.5,1.2-4.9,4.8c-0.2,1.5-0.2,3.1-0.2,4.2c0,1.1,0.1,2.7,0.2,4.2c0.5,3.6,1.2,4.4,4.9,4.8
			c1.1,0.1,2.2,0.2,3.2,0.2v3.2c-2.2,0-4.8-0.1-7.3-0.3c-6.7-0.5-8-1.6-8.8-6.5c-0.3-2-0.4-4.2-0.4-5.6c0-1.5,0.1-3.6,0.4-5.6
			C-93.5-424.7-92.3-425.8-85.5-426.4"/>
	</g>
	<g id="g3109" transform="translate(460.7936,490.9371)">
		<path id="path3111" inkscape:connector-curvature="0" class="st0" d="M-86.3-401.8c0,1.5-0.1,3.6-0.4,5.6
			c-0.8,4.8-2.1,5.9-8.8,6.5c-2.4,0.2-5.1,0.3-7.3,0.3v-3.2c1,0,2.2-0.1,3.2-0.2c3.8-0.4,4.5-1.2,4.9-4.8c0.2-1.5,0.2-3.1,0.2-4.2
			c0-1.1-0.1-2.7-0.2-4.2c-0.5-3.6-1.2-4.4-4.9-4.8c-1.1-0.1-2.2-0.2-3.2-0.2v-3.2c2.2,0,4.8,0.1,7.3,0.3c6.7,0.5,8,1.6,8.8,6.5
			C-86.4-405.5-86.3-403.3-86.3-401.8"/>
	</g>
</g>
</svg>
