<?xml version="1.0" encoding="utf-8"?>
<!-- Generator: Adobe Illustrator 15.0.0, SVG Export Plug-In . SVG Version: 6.00 Build 0)  -->
<!DOCTYPE svg PUBLIC "-//W3C//DTD SVG 1.1//EN" "http://www.w3.org/Graphics/SVG/1.1/DTD/svg11.dtd">
<svg version="1.1" id="Layer_1" xmlns="http://www.w3.org/2000/svg" xmlns:xlink="http://www.w3.org/1999/xlink" x="0px" y="0px"
	 width="66.9px" height="28px" viewBox="0 0 66.9 28" style="enable-background:new 0 0 66.9 28;" xml:space="preserve">
<style type="text/css">
<![CDATA[
	.st0{fill:#4D9E45;}
	.st1{fill:#EA7736;}
	.st2{fill:#BBD132;}
	.st3{fill:#FAEB23;}
	.st4{fill:#9E759C;}
	.st5{fill:#6D3681;}
]]>
</style>
<g>
	<path class="st5" d="M0.2,13.6c0.2-0.2,2.4-2.1,6-3.1c3-0.8,5.7-0.7,5.7-0.7s0.8-0.1,1.5,1.6c0.6,1.4,0.4,2.4,0.4,2.4
		s-0.1,1-1.1,1.5c-1,0.5-1.4,0.5-1.5,0.7c0,0.4,1.5,2.6,1.2,5.6c-0.3,3-1.3,3.9-2.7,5c-1.4,1.1-5.9,1.9-7.5-0.1c0,0-2.9-3.1-0.3-6.4
		c0.3-0.4,2-1.4,3.2-0.7c1.6,1,1.3,2.9,0.5,3.5c-0.8,0.6-1.6,0.5-2,0.1c-0.2-0.2,0.5,1,1.6,0.7c0.7-0.2,1.5-0.7,1.5-2.3
		c0-2-1.5-3.7-1.6-3.8c0,0-2.6,1-3.6,0.6C0.5,18-0.4,15,0.2,13.6z"/>
	<path class="st4" d="M0.9,14.1C1,13.9,3,12.3,6.3,11.4c2.7-0.7,5.5-0.7,5.5-0.7s0.6,0,1,1.6s0.3,1.8,0.3,1.8s-0.2,0.5-1.1,0.9
		c-0.9,0.5-1.7,0.4-1.7,0.7c0,0.3,1.6,3,1.3,5.7c-0.3,2.7-0.8,3.5-2,4.5c-1.3,1-4.9,2.1-6.8-0.1c0,0-2.4-2.6,0.1-5.3
		c0,0,1.3-1,2.3-0.3c0,0,1,1,0.1,2.1c-0.3,0.3-0.9,0.2-1,0.1c0,0-0.2-0.1-0.2-0.4c0-0.3,0.2-0.7,0-0.8c0,0-1-0.4-1.2,1.6
		c-0.1,1.3,1.9,2.2,3,1.6c0,0,1.9-0.3,1.9-3.2c0-2.6-2.1-4.3-2.2-4.5c0,0-2.5,1.2-3.4,0.8C1,17.4,0.7,14.3,0.9,14.1z"/>
	<path class="st5" d="M13.2,16.1c-1.4,0.5-3.3,9.5-2.6,10.3c1.1,1.2,1.7,1,3.4,1c1.9,0,3.1-0.9,3.1-0.9l0.4-9.3c0,0-0.7-1.1-0.9-1.3
		C16.4,15.9,13.9,15.8,13.2,16.1z"/>
	<path class="st4" d="M13.8,16.8c-1.1,0.6-3.1,8.7-2.4,9.4c0.6,0.6,0.8,0.7,2.5,0.7s2.8-0.8,2.8-0.8l0.3-8.1c0,0-0.6-1.2-0.8-1.3
		C16.1,16.6,14.2,16.5,13.8,16.8z"/>
	<path class="st5" d="M23.9,18.1c0,0,1-1.1,2.9-1.4c1.6-0.2,2.3,0.2,2.8,0.5c0.6,0.4,1.1,2.4,1.6,4.8c0.4,1.9,0.3,4.1,0.1,4.6
		c-0.1,0.4-0.9,1-1.5,1.1c-1.4,0.4-2.7,0.2-3.1-0.3c-0.6-0.8-0.4-3.2-0.5-3.4c-0.3,0.5-1.3,1.5-1.9,1.5c-0.9,0-1.8-1.3-2.4-1.9
		c-0.1,0.5-0.1,2.2-0.7,3c-0.5,0.6-1.1,0.9-2.2,0.9c-1.2,0-1.8-0.5-2.1-0.8c-0.8-0.8-0.8-8.6,0.3-10c0.7-0.9,2.7-1.3,4.1-0.8
		C23.1,16.6,23.6,17.5,23.9,18.1L23.9,18.1z"/>
	<path class="st4" d="M17.4,26.2c-0.7-0.7-0.6-7.9,0.3-9c0.6-0.8,2.7-0.7,3.7-0.3c1.4,0.5,1.8,1.7,2.1,2.2H24c0,0,0.8-1.3,2.3-1.5
		c1.4-0.2,2.2,0.1,2.5,0.3c0.5,0.4,0.9,2.1,1.3,4.2c0.3,1.7,0.5,3.8,0.3,4.2c-0.1,0.4-0.5,0.6-1.3,0.8c-0.8,0.2-1.8,0-2-0.1
		c-0.4-0.4-0.4-2.3-0.3-3.4c0-0.4,0.2-0.9-0.2-1c-0.7-0.1-1.6,2.3-2.4,2.2c-1.1,0-2.4-2.8-3-2.6c-0.4,0.1-0.2,0.4-0.3,1.4
		c0,0.8-0.3,2.2-0.6,2.6c-0.4,0.5-1.1,0.5-1.7,0.5C18.1,26.6,17.7,26.4,17.4,26.2z"/>
	<path class="st0" d="M40.2,21.1L40,18.4c0,0,1.4-2.8,4.4-3.1c2.6-0.2,3.2,0.5,3.4,0.7c0.1-0.2,0.3-0.5,0.6-0.8
		c0.3-0.2,1.8-0.2,2.6-0.1c1.5,0.2,2.2,0.7,2.2,1.4c0,0,0.3,0.9,0,4.1c-0.4,3.2-0.7,4.7-1.2,5.6c-0.7,1.3-4.3,0.8-4.9-0.4
		c-0.7,0.7-3,1.2-4.6,0.7c-2.1-0.7-2.8-3-2.8-3L40.2,21.1z M46,18.6c-1.1,0.1-1.9,1.1-1.9,2.2s1,2,2.1,1.9c1.1-0.1,1.9-1.1,1.9-2.2
		C48.1,19.4,47.1,18.6,46,18.6z"/>
	<path class="st2" d="M41.1,21.1l-0.2-2.6c0,0,1.3-2.4,3.9-2.4c3,0,2.9,1.4,3.5,1.1c0.6-0.3,0.3-0.8,0.4-1.1
		c0.2-0.3,1.3-0.2,1.8-0.2c0.4,0,2.3,0.4,2.3,0.9c0,0-0.1,1.1-0.4,3.9c-0.3,2.7-0.5,4.4-1,5.1s-3,0.1-3.3-0.2
		c-0.3-0.3,0.1-1.1-0.3-1.3c-0.5-0.2-0.5,0.4-1,0.9c-0.5,0.5-2.5,0.9-3.5,0.5c-1.8-0.8-2.6-2.1-2.6-2.1L41.1,21.1z M46,18.6
		c-1.1,0.1-1.9,1.1-1.9,2.2s1,2,2.1,1.9c1.1-0.1,1.9-1.1,1.9-2.2C48.1,19.4,47.1,18.6,46,18.6z"/>
	<path class="st0" d="M47.4,20.7c0,0.7-0.5,1.3-1.1,1.4c-0.7,0-1.2-0.5-1.3-1.2c0-0.7,0.5-1.3,1.1-1.4
		C46.8,19.4,47.4,19.9,47.4,20.7z M46,18.7c-1.1,0.1-1.9,1.1-1.8,2.2c0.1,1.2,1,2,2.1,2c1.1-0.1,1.9-1.1,1.8-2.2
		C48,19.5,47.1,18.6,46,18.7z"/>
	<path class="st0" d="M29.6,13.5c0.2-0.2,2.4-2.1,6-3c3-0.8,5.7-0.7,5.7-0.7s0.8-0.1,1.5,1.6c0.6,1.4,0.4,2.4,0.4,2.4
		s-0.1,1-1.1,1.5c-1,0.5-1.4,0.5-1.5,0.7c0,0.4,1.5,2.6,1.2,5.6s-1.3,3.9-2.7,5c-1.4,1.1-5.9,1.9-7.5-0.1c0,0-2.9-3.1-0.3-6.4
		c0.3-0.4,2-1.4,3.2-0.7c1.6,1,1.3,2.9,0.5,3.5c-0.8,0.6-1.6,0.5-2,0.1c-0.2-0.2,0.5,1,1.6,0.7c0.7-0.2,1.5-0.7,1.5-2.3
		c0-2-1.5-3.7-1.6-3.8c0,0-2.6,1-3.6,0.6S28.9,14.8,29.6,13.5z"/>
	<path class="st2" d="M30.3,13.9c0.2-0.2,2.2-1.8,5.4-2.6c2.7-0.7,5.5-0.7,5.5-0.7s0.6,0,1,1.6c0.5,1.6,0.3,1.8,0.3,1.8
		c0,0-0.2,0.5-1.1,0.9c-0.9,0.5-1.7,0.4-1.7,0.7s1.6,3,1.3,5.7c-0.3,2.7-0.8,3.5-2,4.5c-1.3,1-4.9,2.1-6.8-0.1c0,0-2.4-2.6,0.1-5.3
		c0,0,1.3-1,2.3-0.3c0,0,1,1,0.1,2.1c-0.3,0.3-0.9,0.2-1,0.1c0,0-0.2-0.1-0.2-0.4c0-0.3,0.2-0.7,0-0.8c0,0-1-0.4-1.2,1.6
		c-0.1,1.3,1.9,2.2,3,1.6c0,0,1.9-0.3,1.9-3.2c0-2.6-2.1-4.3-2.2-4.5c0,0-2.5,1.2-3.4,0.8C30.3,17.2,30,14.1,30.3,13.9z"/>
	<g>
		<path class="st0" d="M59.4,17.9c0,0,1-1.1,2.9-1.4c1.6-0.2,2.3,0.2,2.8,0.5c0.6,0.4,1.1,2.4,1.6,4.8c0.4,1.9,0.3,4.1,0.1,4.6
			c-0.1,0.4-0.9,1-1.5,1.1c-1.4,0.4-2.7,0.1-3.1-0.3c-0.6-0.8-0.4-3.2-0.5-3.4c-0.3,0.5-1.3,1.5-1.9,1.5c-0.9,0-1.8-1.3-2.4-1.9
			c-0.1,0.5-0.1,2.2-0.7,3c-0.5,0.6-1.1,0.9-2.2,0.9c-1.2,0-1.8-0.5-2.1-0.8c-0.8-0.8-0.8-8.6,0.3-10c0.7-0.9,2.7-1.3,4.1-0.8
			C58.7,16.4,59.2,17.3,59.4,17.9L59.4,17.9z"/>
		<path class="st2" d="M53,26c-0.7-0.7-0.5-7.8,0.5-9c0.6-0.8,2.6-0.7,3.6-0.3c1.4,0.5,1.8,1.7,2.1,2.2h0.5c0,0,0.8-1.3,2.3-1.5
			c1.4-0.2,2.2,0.1,2.5,0.3c0.5,0.4,0.9,2.1,1.3,4.2c0.3,1.7,0.5,3.8,0.3,4.2c-0.1,0.4-0.5,0.6-1.3,0.8c-0.8,0.2-1.8,0-2-0.2
			c-0.4-0.4-0.4-2.3-0.3-3.4c0-0.4,0.2-0.9-0.2-1c-0.7-0.1-1.6,2.3-2.4,2.2c-1.1,0-2.4-2.8-3-2.6c-0.4,0.1-0.2,0.4-0.3,1.4
			c0,0.8-0.3,2.2-0.6,2.6c-0.4,0.5-1.1,0.5-1.7,0.5C53.7,26.4,53.2,26.2,53,26z"/>
	</g>
	<g>
		<path class="st1" d="M24.5,2.2c0,0,0.9-1.8,1.6-1.8c0.7,0,1.5,1.9,1.5,1.9s2.1,0,2.3,0.7c0.2,0.6-1.3,2.2-1.3,2.2s0.5,2.2,0,2.4
			c-0.9,0.4-2.8-0.9-2.8-0.9s-2.3,1.4-2.9,0.6C22.4,6.6,23.3,5,23.3,5S21.9,4,22,3.3C22.1,2.5,24.5,2.2,24.5,2.2z"/>
		<path class="st3" d="M24.9,2.7c0,0,0.7-1.6,1.3-1.7c0.3-0.1,1.2,1.8,1.2,1.8s2,0,2.1,0.4C29.5,3.5,28.1,5,28.1,5s0.4,2.1,0.1,2.2
			c-0.6,0.1-2.3-1.1-2.3-1.1s-2,1.3-2.5,0.8c-0.4-0.4,0.5-2,0.5-2s-1.4-1.2-1.3-1.5C22.9,2.8,24.9,2.7,24.9,2.7z"/>
	</g>
	<g>
		<path class="st1" d="M36,1.6c0,0,0.3-1.4,0.8-1.6c0.5-0.1,1.4,1,1.4,1s1.5-0.4,1.8,0c0.3,0.4-0.5,1.8-0.5,1.8s0.7,1.5,0.4,1.7
			c-0.6,0.5-2.1-0.1-2.1-0.1s-1.4,1.4-2,1c-0.5-0.3-0.2-1.7-0.2-1.7s-1.1-0.4-1.2-0.9C34.3,2.3,36,1.6,36,1.6z"/>
		<path class="st3" d="M36.3,1.9c0,0,0.2-1.3,0.6-1.4c0.2-0.1,1.2,1,1.2,1s1.4-0.4,1.6-0.1C39.8,1.5,39,2.8,39,2.8s0.7,1.4,0.4,1.5
			C39.1,4.5,37.6,4,37.6,4S36.4,5.3,36,5.1c-0.3-0.2-0.1-1.5-0.1-1.5S34.7,3,34.8,2.8C34.9,2.3,36.3,1.9,36.3,1.9z"/>
	</g>
	<g>
		<path class="st1" d="M45.3,4.5c0,0,0-1.3,0.4-1.5s1.5,0.6,1.5,0.6s1.2-0.7,1.5-0.4c0.3,0.3-0.1,1.7-0.1,1.7s0.9,1.1,0.7,1.4
			c-0.4,0.5-1.9,0.4-1.9,0.4S46.6,8.1,46,7.9c-0.5-0.2-0.5-1.4-0.5-1.4s-1.1-0.1-1.2-0.6C44,5.4,45.3,4.5,45.3,4.5z"/>
		<path class="st3" d="M45.7,4.7c0,0-0.1-1.1,0.2-1.4c0.2-0.1,1.2,0.6,1.2,0.6s1.2-0.6,1.4-0.4c0.2,0.1-0.2,1.5-0.2,1.5
			S49.2,6,49,6.1c-0.3,0.2-1.7,0.1-1.7,0.1s-0.8,1.4-1.2,1.3c-0.3-0.1-0.4-1.3-0.4-1.3S44.6,6,44.6,5.8C44.6,5.3,45.7,4.7,45.7,4.7z
			"/>
	</g>
	<g>
		<path class="st1" d="M52.8,8.7c0,0-0.2-1,0.1-1.3c0.3-0.2,1.2,0.2,1.2,0.2S55,7,55.3,7.2c0.3,0.2,0.2,1.3,0.2,1.3s0.9,0.7,0.8,1
			c-0.3,0.5-1.4,0.5-1.4,0.5s-0.5,1.3-1,1.2c-0.4-0.1-0.6-1.1-0.6-1.1s-0.9,0-1-0.3C51.9,9.6,52.8,8.7,52.8,8.7z"/>
		<path class="st3" d="M53.1,8.8c0,0-0.2-0.9,0-1.1C53.2,7.6,54.1,8,54.1,8s0.8-0.7,1-0.5c0.1,0.1,0,1.2,0,1.2s0.8,0.7,0.7,0.9
			c-0.2,0.2-1.3,0.3-1.3,0.3S54.2,11,53.9,11c-0.3,0-0.5-1-0.5-1s-1,0-1-0.2C52.3,9.5,53.1,8.8,53.1,8.8z"/>
	</g>
	<g>
		<path class="st1" d="M58,13.4c0,0-0.4-0.7-0.2-0.9c0.2-0.2,0.9-0.1,0.9-0.1s0.4-0.7,0.7-0.6c0.2,0.1,0.4,0.9,0.4,0.9
			s0.8,0.3,0.8,0.5c-0.1,0.4-0.9,0.7-0.9,0.7s0,1.1-0.4,1.1c-0.3,0-0.7-0.6-0.7-0.6s-0.6,0.2-0.8,0.1C57.6,14.3,58,13.4,58,13.4z"/>
		<path class="st3" d="M58.2,13.4c0,0-0.4-0.6-0.3-0.8c0-0.1,0.8,0,0.8,0s0.4-0.7,0.6-0.6c0.1,0,0.3,0.8,0.3,0.8s0.8,0.3,0.7,0.4
			c-0.1,0.2-0.8,0.5-0.8,0.5s0,1-0.3,1c-0.2,0-0.6-0.6-0.6-0.6s-0.7,0.2-0.8,0.1C57.8,14.1,58.2,13.4,58.2,13.4z"/>
	</g>
	<g>
		<path class="st1" d="M15,8c0,0,2-2,2.9-1.7c1,0.3,1.3,3.2,1.3,3.2s2.9,0.8,2.9,1.9c0,0.9-2.8,2.4-2.8,2.4s-0.3,3.1-1.1,3.2
			c-1.4,0.1-3.3-2.4-3.3-2.4s-3.7,0.9-4.2-0.4c-0.5-1.1,1.5-3,1.5-3s-1.4-1.9-0.9-2.8C11.6,7.4,15,8,15,8z"/>
		<path class="st3" d="M15.3,8.8c0,0,1.7-1.8,2.4-1.7c0.4,0,0.9,2.9,0.9,2.9s2.7,0.9,2.7,1.5c0,0.5-2.6,1.9-2.6,1.9s-0.3,3-0.9,2.9
			c-0.8-0.1-2.7-2.4-2.7-2.4s-3.3,0.8-3.7,0c-0.3-0.7,1.5-2.5,1.5-2.5s-1.4-2.2-1.1-2.5C12.5,8,15.3,8.8,15.3,8.8z"/>
	</g>
</g>
</svg>
