<?xml version="1.0" encoding="utf-8"?>
<!-- Generator: Adobe Illustrator 15.0.0, SVG Export Plug-In . SVG Version: 6.00 Build 0)  -->
<!DOCTYPE svg PUBLIC "-//W3C//DTD SVG 1.1//EN" "http://www.w3.org/Graphics/SVG/1.1/DTD/svg11.dtd">
<svg version="1.1"
	 id="svg2" xmlns:dc="http://purl.org/dc/elements/1.1/" xmlns:cc="http://creativecommons.org/ns#" xmlns:rdf="http://www.w3.org/1999/02/22-rdf-syntax-ns#" xmlns:svg="http://www.w3.org/2000/svg"
	 xmlns="http://www.w3.org/2000/svg" xmlns:xlink="http://www.w3.org/1999/xlink" x="0px" y="0px" width="110px" height="20.6px"
	 viewBox="270.7 50.7 110 20.6" style="enable-background:new 270.7 50.7 110 20.6;" xml:space="preserve">
<path id="path3801" d="M270.7,50.7v5.8h20.8v-5.8H270.7z M293.3,50.7v2.6l12.3,18h11.8l-14.1-20.6H293.3z M310.4,50.7l-3.2,4.7
	l10.9,15.9h1.1V50.7H310.4z M321.1,50.7l14.2,20.6H347l-14.1-20.6H321.1z M337,50.7l14.1,20.6H363l-14.1-20.6H337z M352.7,50.7
	l-1.7,2.6l5.4,7.7l7-10.3H352.7z M366,50.7l-5.9,8.5l8.3,12.1h11.8L366,50.7z M370,50.7l-1.7,2.5l5.3,7.7l7.1-10.3H370z M321.1,51.6
	v19.7h7.1l3.2-4.7L321.1,51.6z M293.3,54.2v17.1H305L293.3,54.2z M290.9,57.6c-0.3,0-0.6,0-0.9,0c-4.7,0.3-9.6,2.2-13.4,5.2
	c-2.7,2.1-4.9,5.2-5.8,8.5h20.6V57.6C291.5,57.6,291.2,57.6,290.9,57.6z M344.7,62.7l-1.5,2.1l4.4,6.5h2.9L344.7,62.7z M361.8,62.7
	l-2,3l3.8,5.6h4.2L361.8,62.7z"/>
</svg>
