<?xml version="1.0" encoding="UTF-8" standalone="no"?>
<!-- Created with Inkscape (http://www.inkscape.org/) -->
<svg xmlns:dc="http://purl.org/dc/elements/1.1/" xmlns:cc="http://creativecommons.org/ns#" xmlns:rdf="http://www.w3.org/1999/02/22-rdf-syntax-ns#" xmlns:svg="http://www.w3.org/2000/svg" xmlns="http://www.w3.org/2000/svg" xmlns:xlink="http://www.w3.org/1999/xlink" xmlns:sodipodi="http://sodipodi.sourceforge.net/DTD/sodipodi-0.dtd" xmlns:inkscape="http://www.inkscape.org/namespaces/inkscape" width="1000" height="308.18756" id="svg2" version="1.1" inkscape:version="0.48.2 r9819" sodipodi:docname="New document 1">
  <defs id="defs4">
    <linearGradient y2="0" x2="1" y1="0" x1="0" spreadMethod="pad" gradientTransform="matrix(0,-56,-56,0,231.8894,256.12634)" gradientUnits="userSpaceOnUse" id="linearGradient3172" xlink:href="#linearGradient84" inkscape:collect="always"/>
    <linearGradient y2="0" x2="1" y1="0" x1="0" spreadMethod="pad" gradientTransform="matrix(0,-56,-56,0,231.8894,256.12634)" gradientUnits="userSpaceOnUse" id="linearGradient3170" xlink:href="#linearGradient64" inkscape:collect="always"/>
    <linearGradient y2="0" x2="1" y1="0" x1="0" spreadMethod="pad" gradientTransform="matrix(0,-56,-56,0,231.88943,256.1263)" gradientUnits="userSpaceOnUse" id="linearGradient3168" xlink:href="#linearGradient44" inkscape:collect="always"/>
    <clipPath id="clipPath120" clipPathUnits="userSpaceOnUse">
      <path inkscape:connector-curvature="0" id="path122" d="m 0,0 595.276,0 0,595.276 L 0,595.276 0,0 z"/>
    </clipPath>
    <clipPath id="clipPath96" clipPathUnits="userSpaceOnUse">
      <path inkscape:connector-curvature="0" id="path98" d="m 0,0 595.276,0 0,595.276 L 0,595.276 0,0 z"/>
    </clipPath>
    <linearGradient id="linearGradient84" spreadMethod="pad" gradientTransform="matrix(0,-56,-56,0,231.8894,256.12634)" gradientUnits="userSpaceOnUse" y2="0" x2="1" y1="0" x1="0">
      <stop id="stop86" offset="0" style="stop-opacity:1;stop-color:#00c3ff"/>
      <stop id="stop88" offset="1" style="stop-opacity:1;stop-color:#0028e0"/>
    </linearGradient>
    <linearGradient id="linearGradient64" spreadMethod="pad" gradientTransform="matrix(0,-56,-56,0,231.8894,256.12634)" gradientUnits="userSpaceOnUse" y2="0" x2="1" y1="0" x1="0">
      <stop id="stop66" offset="0" style="stop-opacity:1;stop-color:#00c3ff"/>
      <stop id="stop68" offset="1" style="stop-opacity:1;stop-color:#0028e0"/>
    </linearGradient>
    <linearGradient id="linearGradient44" spreadMethod="pad" gradientTransform="matrix(0,-56,-56,0,231.88943,256.1263)" gradientUnits="userSpaceOnUse" y2="0" x2="1" y1="0" x1="0">
      <stop id="stop46" offset="0" style="stop-opacity:1;stop-color:#00c3ff"/>
      <stop id="stop48" offset="1" style="stop-opacity:1;stop-color:#0028e0"/>
    </linearGradient>
    <clipPath id="clipPath16" clipPathUnits="userSpaceOnUse">
      <path inkscape:connector-curvature="0" id="path18" d="m 0,0 595.276,0 0,595.276 L 0,595.276 0,0 z"/>
    </clipPath>
  </defs>
  <sodipodi:namedview id="base" pagecolor="#ffffff" bordercolor="#666666" borderopacity="1.0" inkscape:pageopacity="0.0" inkscape:pageshadow="2" inkscape:zoom="0.98994949" inkscape:cx="661.24189" inkscape:cy="81.127232" inkscape:document-units="px" inkscape:current-layer="layer1" showgrid="false" fit-margin-left="0.5" fit-margin-bottom="0.5" fit-margin-top="0.5" fit-margin-right="0.5" inkscape:window-width="1920" inkscape:window-height="1028" inkscape:window-x="-8" inkscape:window-y="-8" inkscape:window-maximized="1">
    <inkscape:grid type="xygrid" id="grid2996" empspacing="5" visible="true" enabled="true" snapvisiblegridlinesonly="true"/>
  </sodipodi:namedview>
  <metadata id="metadata7">
    <rdf:RDF>
      <cc:Work rdf:about="">
        <dc:format>image/svg+xml</dc:format>
        <dc:type rdf:resource="http://purl.org/dc/dcmitype/StillImage"/>
        <dc:title/>
      </cc:Work>
    </rdf:RDF>
  </metadata>
  <g inkscape:label="Layer 1" inkscape:groupmode="layer" id="layer1" transform="translate(0.35885347,-423.9692)">
    <g id="g3171" transform="matrix(1.227324,0,0,1.227324,-0.03208599,-166.32313)">
      <g style="fill:#979797;fill-opacity:1;stroke:none" id="g10" inkscape:label="manual" transform="matrix(7.9002598,0,0,-7.9002598,-379.11323,3283.4181)">
        <g style="fill:#979797;fill-opacity:1;stroke:none" id="g3141" transform="matrix(0.53055311,0,0,0.53055311,13.306942,42.582917)">
          <g style="fill:#979797;fill-opacity:1;stroke:none" transform="matrix(0.87774154,0,0,0.87774154,40.519719,180.19979)" id="g116">
            <g style="fill:#979797;fill-opacity:1;stroke:none" clip-path="url(#clipPath120)" id="g118">
              <g style="fill:#979797;fill-opacity:1;stroke:none" transform="translate(53.7052,463.9935)" id="g124">
                <path id="path126" style="fill:#979797;fill-opacity:1;fill-rule:nonzero;stroke:none" d="m 0,0 c 6.71,0.532 13.974,0.794 19.867,0.888 l 0,-8.729 c -2.794,-0.1 -5.912,-0.287 -8.839,-0.598 -10.294,-1.101 -12.216,-3.332 -13.461,-13.222 -0.52,-4.122 -0.674,-8.492 -0.674,-11.472 0,-2.968 0.154,-7.347 0.674,-11.456 1.245,-9.886 3.167,-12.119 13.461,-13.22 2.927,-0.314 6.045,-0.501 8.839,-0.601 l 0,-8.733 C 13.974,-67.049 6.71,-66.785 0,-66.251 c -18.466,1.476 -21.911,4.478 -24.152,17.736 -0.932,5.523 -1.207,11.399 -1.207,15.389 0,3.991 0.275,9.865 1.207,15.389 C -21.911,-4.477 -18.466,-1.48 0,0" inkscape:connector-curvature="0"/>
              </g>
              <g style="fill:#979797;fill-opacity:1;stroke:none" transform="translate(128.9098,430.8674)" id="g128">
                <path id="path130" style="fill:#979797;fill-opacity:1;fill-rule:nonzero;stroke:none" d="m 0,0 c 0,-3.99 -0.274,-9.866 -1.207,-15.389 -2.24,-13.258 -5.685,-16.26 -24.152,-17.736 -6.709,-0.534 -13.972,-0.798 -19.864,-0.892 l 0,8.733 c 2.793,0.1 5.911,0.287 8.835,0.602 10.296,1.1 12.217,3.333 13.461,13.219 0.52,4.109 0.675,8.488 0.675,11.456 0,2.98 -0.155,7.35 -0.675,11.472 -1.244,9.89 -3.165,12.121 -13.461,13.222 -2.924,0.311 -6.042,0.498 -8.835,0.598 l 0,8.729 c 5.892,-0.094 13.155,-0.356 19.864,-0.888 C -6.892,31.646 -3.447,28.649 -1.207,15.389 -0.274,9.865 0,3.991 0,0" inkscape:connector-curvature="0"/>
              </g>
            </g>
          </g>
          <path id="path3161" transform="matrix(0.23857765,0,0,-0.23857765,65.366682,703.08882)" d="m 508.9375,560.125 c -27.97358,0 -41.79782,5.937 -60.375,13.75 l 3.40625,30.90625 c 0,0 22.713,-9.65625 50.625,-9.65625 20.99613,0 26.4375,9.86331 26.4375,16.78125 l 0,6.875 c 0,0 -9.94553,-2.84375 -28.3125,-2.84375 -27.55327,0 -61.875,10.28933 -61.875,50.53125 0,21.43642 17.51776,41.78125 46.78125,41.78125 21.72044,0 35.61926,-9.14831 43.375,-16.125 l 2.75,12.28125 40.125,0 0,-97.03125 c 0,-33.76889 -29.42755,-47.25 -62.9375,-47.25 z m -1.15625,84.03125 c 11.00374,0 21.25,2.9375 21.25,2.9375 l 0,17.3125 c -5.74405,5.71059 -14.89324,12.40625 -26.625,12.40625 -10.67012,0 -18.84375,-5.27034 -18.84375,-14.71875 0,-10.5908 9.5022,-17.9375 24.21875,-17.9375 z" style="fill:#979797;fill-opacity:1;stroke:none" inkscape:connector-curvature="0"/>
          <path sodipodi:nodetypes="ccccccccc" transform="matrix(0.23857765,0,0,-0.23857765,65.366682,703.08882)" inkscape:connector-curvature="0" id="path3165" d="m 604.00809,704.4282 0,-140.09597 39.77476,0 3.67712,19.99833 c 14.72602,-21.65372 35.42807,-23.34446 56.74262,-23.34446 l -3.21986,39.58536 c -17.22388,-1.52048 -35.02391,-3.00946 -53.98002,21.33947 l 0,82.51727 z" style="fill:#979797;fill-opacity:1;stroke:none"/>
        </g>
      </g>
      <path sodipodi:nodetypes="ccccccccccccccccc" inkscape:connector-curvature="0" id="path3167" d="m 810.625,671.38004 3.48215,30.71428 c 0,0 -17.04282,6.16072 -34.10715,6.16072 -32.62354,0 -43.48214,-20.28293 -43.48214,-45.35714 l 0,-67.05358 -21.07143,0 0,-28.83928 20.89286,-2.5 5,-34.10714 38.30357,0 1.4e-4,34.01785 31.83339,0 0,31.42857 -31.83339,0 0,61.51786 c 0,9.77107 2.81863,15.89286 16.87486,15.89286 5.4106,0 14.10714,-1.875 14.10714,-1.875 z" style="fill:#979797;fill-opacity:1;stroke:none"/>
    </g>
  </g>
</svg>