<?xml version="1.0" encoding="utf-8"?>
<!-- Generator: Adobe Illustrator 15.0.0, SVG Export Plug-In . SVG Version: 6.00 Build 0)  -->
<!DOCTYPE svg PUBLIC "-//W3C//DTD SVG 1.1//EN" "http://www.w3.org/Graphics/SVG/1.1/DTD/svg11.dtd">
<svg version="1.1" id="Ebene_1" xmlns="http://www.w3.org/2000/svg" xmlns:xlink="http://www.w3.org/1999/xlink" x="0px" y="0px"
	 width="87.302px" height="29px" viewBox="431.495 135.155 87.302 29" style="enable-background:new 431.495 135.155 87.302 29;"
	 xml:space="preserve">
<style type="text/css">
<![CDATA[
	.st0{fill:#FFFFFF;}
	.st1{fill:url(#SVGID_1_);stroke:url(#SVGID_2_);stroke-miterlimit:10;}
]]>
</style>
<g>
	
		<linearGradient id="SVGID_1_" gradientUnits="userSpaceOnUse" x1="499.1357" y1="175.9631" x2="500.8355" y2="143.5301" gradientTransform="matrix(1 0 0 -1 -24.8398 309.4009)">
		<stop  offset="0" style="stop-color:#FF7CA0"/>
		<stop  offset="0.096" style="stop-color:#FF6C9B"/>
		<stop  offset="0.3937" style="stop-color:#E44674"/>
		<stop  offset="0.579" style="stop-color:#FFAFC7"/>
	</linearGradient>
	<linearGradient id="SVGID_2_" gradientUnits="userSpaceOnUse" x1="105.7344" y1="306.845" x2="1003.5583" y2="306.845">
		<stop  offset="0" style="stop-color:#000000;stop-opacity:0"/>
		<stop  offset="1" style="stop-color:#1D1D1B;stop-opacity:0"/>
	</linearGradient>
	<rect x="431.995" y="135.655" class="st1" width="86.302" height="28"/>
	<g id="_x23_ffffffff">
		<path class="st0" d="M489.219,138.796c0.815-0.27,1.791-0.27,2.521,0.229c0.608,0.426,0.786,1.306,0.43,1.948
			c-0.754,1.374-2.754,2.006-4.085,1.105c-0.659-0.417-0.79-1.343-0.44-2C487.97,139.46,488.572,139.027,489.219,138.796z"/>
		<path class="st0" d="M440.56,142.901c0.807-0.295,1.689-0.372,2.539-0.253c1.573,0.232,2.919,1.579,3.113,3.165
			c0.188,1.6-0.401,3.145-0.683,4.7c-0.466,1.954-0.603,4.059-1.68,5.808c-0.827,1.375-2.443,2.346-4.075,2.075
			c-1.011-0.098-1.818-0.754-2.563-1.387c-0.385,1.893-0.673,3.813-1.224,5.669c-1.327,0.138-2.662,0.056-3.993,0.044v-2.754
			c0.531-1.767,0.844-3.585,1.271-5.376c0.681-3.2,1.477-6.375,2.067-9.593c0.775-0.159,1.559-0.307,2.29-0.619
			C438.637,143.953,439.522,143.271,440.56,142.901 M440.679,146.082c-0.85,0.109-1.321,0.974-1.509,1.729
			c-0.355,1.463-0.633,2.946-0.955,4.417c-0.127,0.637-0.29,1.294-0.167,1.946c0.109,0.557,0.75,0.959,1.289,0.716
			c0.733-0.308,1.072-1.102,1.237-1.826c0.347-1.522,0.683-3.049,1.022-4.574c0.113-0.573,0.259-1.188,0.046-1.756
			C441.498,146.347,441.106,146.029,440.679,146.082z"/>
		<path class="st0" d="M449.998,144.839c1.908-2.487,5.934-3.034,8.389-1.047c0.767,0.658,1.726,0.994,2.713,1.153
			c-1.135,4.319-1.889,8.728-2.896,13.078c-1.043,0.044-2.089,0.038-3.134,0c-0.175-0.358-0.345-0.72-0.514-1.08
			c-0.83,0.648-1.735,1.277-2.815,1.387c-1.565,0.28-3.356-0.529-3.894-2.089c-0.784-2.146,0.088-4.386,0.527-6.505
			C448.816,148.08,448.931,146.249,449.998,144.839 M454.301,146.029c-0.671,0.366-0.901,1.162-1.08,1.851
			c-0.367,1.63-0.677,3.271-1.051,4.898c-0.115,0.6-0.297,1.336,0.173,1.837c0.381,0.47,1.108,0.412,1.555,0.071
			c0.715-0.479,0.913-1.379,1.089-2.166c0.288-1.421,0.633-2.83,0.947-4.246c0.113-0.637,0.288-1.36-0.061-1.956
			C455.548,145.8,454.804,145.793,454.301,146.029z"/>
		<path class="st0" d="M497.854,142.682c1.676-0.198,3.571-0.313,5.006,0.744c1.19,0.811,1.72,2.32,1.584,3.721
			c-0.143,1.405-0.535,2.773-0.792,4.159c-0.378,1.753-0.568,3.69-1.828,5.079c-1.477,1.735-3.954,2.257-6.127,1.906
			c-1.705-0.284-3.267-1.5-3.759-3.186c-0.53-1.621,0.149-3.271,0.456-4.86c0.441-1.784,0.603-3.717,1.667-5.271
			C494.918,143.704,496.351,142.901,497.854,142.682 M498.248,146.082c-0.61,0.372-0.754,1.135-0.909,1.778
			c-0.346,1.752-0.754,3.494-1.122,5.243c-0.144,0.591-0.092,1.337,0.487,1.683c0.772,0.408,1.812-0.075,1.996-0.935
			c0.481-1.695,0.744-3.446,1.184-5.153c0.134-0.73,0.454-1.511,0.175-2.242C499.753,145.772,498.823,145.789,498.248,146.082z"/>
		<path class="st0" d="M512.537,142.755c1.373-0.333,2.927-0.292,4.164,0.453c0.792,0.468,1.234,1.316,1.596,2.129v2.838
			c-0.871,3.247-1.37,6.58-2.183,9.84c-1.49,0.067-2.984,0.038-4.475,0.019c0.507-2.772,1.21-5.508,1.782-8.269
			c0.205-1.036,0.592-2.073,0.479-3.142c-0.226-1.003-1.752-0.865-2.175-0.077c-0.598,1.059-0.655,2.313-0.943,3.475
			c-0.6,2.66-1.075,5.353-1.749,7.996c-1.446,0.062-2.894,0.042-4.34,0.016c0.232-1.862,0.754-3.669,1.118-5.507
			c0.495-2.512,1.198-4.986,1.504-7.533c0.502-0.128,1.007-0.25,1.497-0.416C510.14,144.143,511.17,143.087,512.537,142.755z"/>
		<path class="st0" d="M464.268,144.141c1.085-0.936,2.58-1.18,3.972-1.156c1.459,0.023,2.921-0.029,4.38,0.023
			c-0.209,1.032-0.449,2.056-0.706,3.074c-1.083,0.119-2.183-0.063-3.26,0.107c-0.551,0.098-0.829,0.811-0.535,1.273
			c0.445,0.75,1.12,1.325,1.623,2.035c0.723,0.99,1.419,2.134,1.34,3.41c-0.096,2.031-1.287,4.02-3.13,4.929
			c-2.138,1.04-5.224,0.806-6.626-1.313c0.033-1.118,0.37-2.205,0.599-3.297c0.805,0.608,1.44,1.607,2.521,1.721
			c0.886,0.124,1.721-0.729,1.609-1.607c-0.107-0.812-0.667-1.455-1.139-2.087c-0.81-1.052-1.786-2.123-1.908-3.509
			C462.912,146.452,463.23,145.004,464.268,144.141z"/>
		<path class="st0" d="M475.579,144.135c1.041-0.88,2.449-1.158,3.78-1.149c1.519,0.014,3.038-0.015,4.559,0.01
			c-0.207,1.032-0.438,2.06-0.679,3.086c-1.032,0.105-2.071-0.029-3.102,0.077c-0.623,0.003-1.047,0.78-0.708,1.304
			c0.451,0.748,1.128,1.323,1.631,2.035c0.677,0.945,1.352,2.011,1.334,3.218c-0.022,2.098-1.227,4.183-3.125,5.122
			c-2.177,1.07-5.179,0.758-6.674-1.3c0.123-1.151,0.395-2.274,0.646-3.4c0.748,0.692,1.417,1.666,2.507,1.801
			c1.049,0.142,1.968-1.051,1.521-2.025c-0.729-1.739-2.51-2.896-2.897-4.806C474.158,146.713,474.44,145.077,475.579,144.135z"/>
		<path class="st0" d="M487.255,143.178c1.404-0.027,2.81-0.035,4.216,0.002c-0.15,1.187-0.467,2.346-0.712,3.516
			c-0.828,3.772-1.578,7.564-2.439,11.329c-1.446,0.046-2.894,0.021-4.34,0.013c0.802-4.151,1.821-8.263,2.694-12.404
			C486.849,144.811,487.01,143.984,487.255,143.178z"/>
	</g>
</g>
</svg>
