<?xml version="1.0" encoding="utf-8"?>
<!-- Generator: Adobe Illustrator 15.0.0, SVG Export Plug-In . SVG Version: 6.00 Build 0)  -->
<!DOCTYPE svg PUBLIC "-//W3C//DTD SVG 1.1//EN" "http://www.w3.org/Graphics/SVG/1.1/DTD/svg11.dtd">
<svg version="1.1" id="Layer_1" xmlns="http://www.w3.org/2000/svg" xmlns:xlink="http://www.w3.org/1999/xlink" x="0px" y="0px"
	 width="113.82px" height="50px" viewBox="0 0 113.82 50" style="enable-background:new 0 0 113.82 50;" xml:space="preserve">
<style type="text/css">
<![CDATA[
	.st0{fill-rule:evenodd;clip-rule:evenodd;fill:#50B748;}
	.st1{fill-rule:evenodd;clip-rule:evenodd;fill:none;stroke:#020202;stroke-width:0.25;stroke-miterlimit:10;}
	.st2{fill-rule:evenodd;clip-rule:evenodd;fill:#FFFFFF;}
	.st3{fill:#070707;}
	.st4{fill-rule:evenodd;clip-rule:evenodd;fill:#020202;}
]]>
</style>
<path class="st4" d="M6.01,14.57v-0.03H3.17v0H0v0v3.17v8.83v3.17h3.17h2.85v-0.03c4.71,0,8.52-3.38,8.52-7.55
	S10.72,14.57,6.01,14.57z M6.01,26.54H3.17v-8.83h2.85c2.75,0,4.98,1.98,4.98,4.42C10.99,24.56,8.76,26.54,6.01,26.54z"/>
<g>
	<path class="st0" d="M108.29,0C93.53,0,78.77,0,64.01,0c-0.08,0.03-0.13,0.08-0.13,0.2c0.04,14.69-0.09,29.56,0.06,44.15
		c16.49,1.87,33.57,3.86,49.87,5.66C111.96,33.24,110.1,16.51,108.29,0z"/>
	<g>
		<path class="st2" d="M86.31,14.5c4.09-0.44,6.99,1.9,8.13,4.68c2.31,5.62-2.38,10.67-7.28,10.66c-4.26-0.01-7.66-3.4-7.67-7.67
			c0-1.53,0.71-3.43,1.1-4.1C81.57,16.45,83.52,14.8,86.31,14.5z M82.8,23.86c1.73,4.56,9.11,3.82,9.3-1.56
			c0.11-3.08-2.38-5.32-5.53-4.88C83.95,17.79,81.56,20.59,82.8,23.86z"/>
		<path class="st2" d="M76.17,21.65c1.38,0.55,2.37,1.64,2.34,3.45c-0.02,1.18-0.68,2.35-1.3,2.99c-1.9,1.96-5.71,1.45-9.42,1.49
			c0-2.08,0-4.32,0-6.56c-0.65,0-1.3,0-1.95,0c-0.01-0.54,0.01-1.59,0-2.34c0.63,0,1.33,0,1.95,0c0-1.88,0-5.16,0-6.05
			c3.19,0.12,6.75-0.5,8.51,1.11C77.77,17.06,78.36,20.48,76.17,21.65z M74.87,18.66c-0.23-1.59-2.25-1.4-4.23-1.37
			c-0.15,1-0.02,2.28-0.07,3.38C72.83,20.84,75.17,20.68,74.87,18.66z M75.33,25.68c0.9-2.43-2.21-3.02-4.68-2.67
			c-0.15,1.17-0.02,2.62-0.07,3.9C72.58,26.95,74.78,27.15,75.33,25.68z"/>
		<path class="st2" d="M94.12,14.69c1.06,0,2.12,0,3.19,0c1,1.65,1.84,3.45,2.86,5.07c1.01-1.63,1.91-3.38,2.86-5.07
			c1.08,0,2.17,0,3.25,0c-1.47,2.48-3.03,4.86-4.55,7.28c1.47,2.54,3.31,5.06,4.62,7.54c-1.06,0-2.12,0-3.19,0
			c-0.96-1.75-2.02-3.4-2.92-5.2c-1.13,1.63-1.98,3.52-3.06,5.2c-1.06,0-2.12,0-3.19,0c1.49-2.56,3.14-4.97,4.68-7.48
			C97.22,19.52,95.55,17.23,94.12,14.69z"/>
		<path class="st2" d="M95.35,34.53c0,0.87-0.02,1.94,0,2.8c0.4,0.01,1.4-0.01,2.01,0c0-0.83,0-1.85,0-2.8c0.78,0,1.64,0,2.42,0
			c0,2.53-0.02,5.57-0.01,7.93c-0.8,0-1.6,0-2.41,0c0-0.93,0-1.86,0-2.8c-0.65,0-1.37,0-2.01,0c0,0.78-0.01,1.9,0,2.8
			c-0.82,0-1.65,0-2.47,0c0-2.58,0-5.62,0-7.93C93.64,34.53,94.59,34.53,95.35,34.53z"/>
		<path class="st2" d="M100.68,34.53c4.3-0.4,7.76,0.52,7.61,4.23c-0.15,3.58-3.47,3.99-7.61,3.71
			C100.68,39.88,100.68,35.96,100.68,34.53z M103.09,36.87c0,1.08,0,2.17,0,3.25C106.5,41.24,106.71,35.9,103.09,36.87z"/>
	</g>
</g>
<path class="st4" d="M44.33,24.63c-0.83,1.32-2.29,2.21-3.97,2.21c-2.59,0-4.69-2.1-4.69-4.69s2.1-4.69,4.69-4.69
	c1.45,0,2.75,0.66,3.61,1.7L47,18.33c-1.32-2.3-3.8-3.85-6.64-3.85c-4.23,0-7.66,3.43-7.66,7.66s3.43,7.66,7.66,7.66
	c3.06,0,5.7-1.79,6.92-4.38L44.33,24.63z"/>
<ellipse class="st1" cx="23.2" cy="22.08" rx="7.63" ry="7.59"/>
<path class="st3" d="M23.38,15.99c0.08-0.03,0.15-0.05,0.23-0.08c0,0.05,0,0.1,0,0.15c-0.45,0.28-0.04,0.42-0.23,0.84
	c-0.08,0.05-0.15,0.1-0.23,0.15c0,0.03,0,0.05,0,0.08c0.03,0,0.05,0,0.08,0c-0.03,0.13-0.05,0.26-0.08,0.38c-0.03,0-0.05,0-0.08,0
	c0,0.03,0,0.05,0,0.08c-0.15,0-0.31,0-0.46,0c-0.05,0.08-0.1,0.15-0.15,0.23c-0.05,0.03-0.1,0.05-0.15,0.08c0,0.1,0,0.21,0,0.31
	c-0.06,0.2-0.21,0.27-0.46,0.31c-0.15-0.28-0.16-0.45-0.15-0.92c-0.03,0-0.05,0-0.08,0c-0.02-0.1,0.23-0.31,0.23-0.31
	c-0.03-0.1-0.05-0.21-0.08-0.31c0.04-0.19,0.13-0.33,0.15-0.61c-0.03,0-0.05,0-0.08,0c0-0.03,0-0.05,0-0.08c-0.08,0-0.15,0-0.23,0
	c0-0.03,0-0.05,0-0.08c0.11-0.06,0.31-0.21,0.38-0.31c-0.26,0.05-0.64,0.19-0.77,0.38c-0.06,0.09-0.05-0.03-0.08,0.08
	c0.03,0,0.05,0,0.08,0c-0.03,0.13-0.05,0.26-0.08,0.38c0.03,0,0.05,0,0.08,0c0,0.1,0,0.21,0,0.31c0,0.01-0.11,0.03-0.08,0.15
	c0.05,0.03,0.1,0.05,0.15,0.08c-0.03,0.08-0.05,0.15-0.08,0.23c-0.1,0-0.21,0-0.31,0c0.08,0.23,0.08,0.16,0,0.38
	c-0.08,0.03-0.15,0.05-0.23,0.08c0-0.03,0-0.05,0-0.08c-0.03,0-0.05,0-0.08,0c0-0.08,0-0.15,0-0.23c-0.03,0-0.05,0-0.08,0
	c0-0.03,0-0.05,0-0.08c-0.03,0-0.05,0-0.08,0c0,0.08,0,0.15,0,0.23c0.03,0,0.05,0,0.08,0c0,0.18,0,0.36,0,0.54c0.03,0,0.05,0,0.08,0
	c0.07-0.12,0.11-0.16,0.23-0.23c0.03,0.23,0.05,0.46,0.08,0.69c0.05,0.03,0.1,0.05,0.15,0.08c0.03,0.13,0.05,0.26,0.08,0.38
	c-0.26,0.13-0.51,0.26-0.77,0.38c0.04,0.16-0.01,0.07,0.08,0.15c0,0.03,0,0.05,0,0.08c0.15-0.04,0.07,0.01,0.15-0.08
	c0.38-0.11,0.18-0.28,0.54-0.38c0.03,0.18,0.05,0.36,0.08,0.54c-0.33,0.08-0.67,0.15-1,0.23c0-0.05,0-0.1,0-0.15
	c-0.08,0.03-0.15,0.05-0.23,0.08c-0.08,0.18-0.18,0.33-0.31,0.46c-0.05,0.03-0.1,0.05-0.15,0.08c-0.03,0.1-0.05,0.21-0.08,0.31
	c-0.03,0-0.05,0-0.08,0c-0.19,0.35-0.34,0.76-0.38,1.23c-0.13-0.03-0.26-0.05-0.38-0.08c0-0.21,0-0.41,0-0.62
	c-0.34-0.03-0.45-0.14-0.85-0.15c-0.18,0.34-0.16,0.54-0.15,1.08c0.09,0.09,0.03,0,0.08,0.15c0.32-0.01,0.36-0.1,0.61-0.15
	c-0.05,0.18-0.1,0.36-0.15,0.54c0.13,0.08,0.26,0.15,0.38,0.23c0,0.05,0,0.1,0,0.15c0.03,0,0.05,0,0.08,0c0,0.18,0,0.36,0,0.54
	c0.03,0,0.05,0,0.08,0c0,0.03,0,0.05,0,0.08c0.28-0.05,0.56-0.1,0.84-0.15c0,0.03,0,0.05,0,0.08c0.05,0,0.1,0,0.15,0
	c0.03,0.05,0.05,0.1,0.08,0.15c0.23,0.05,0.46,0.1,0.69,0.15c0.06,0.14,0.11,0.2,0.15,0.38c0.22,0.05,0.67,0.36,0.77,0.54
	c0.03,0,0.05,0,0.08,0c0,0.13,0,0.26,0,0.38c0.03,0,0.05,0,0.08,0c0,0.03,0,0.05,0,0.08c0.15,0.03,0.31,0.05,0.46,0.08
	c0.05,0.08,0.1,0.15,0.15,0.23c0.18,0.03,0.36,0.05,0.54,0.08c0,0.03,0,0.05,0,0.08c0.1,0.08,0.21,0.15,0.31,0.23
	c0,0.03,0,0.05,0,0.08c-0.03,0-0.05,0-0.08,0c-0.08,0.1-0.15,0.21-0.23,0.31c-0.03,0-0.05,0-0.08,0c0,0.05,0,0.1,0,0.15
	c-0.05,0.03-0.1,0.05-0.15,0.08c0,0.05,0,0.1,0,0.15c-0.03,0-0.05,0-0.08,0c0,0.08,0,0.15,0,0.23c-0.03,0-0.05,0-0.08,0
	c-0.13,0.26,0.04,0.29-0.31,0.38c0,0.03,0,0.05,0,0.08c-0.13,0-0.26,0-0.38,0c0,0.03,0,0.05,0,0.08c-0.1,0.09-0.12,0.14-0.15,0.31
	c-0.25,0.06-0.17,0.12-0.46,0.15c0,0.05,0,0.1,0,0.15c-0.08,0-0.15,0-0.23,0c0,0.03,0,0.05,0,0.08c-0.03,0-0.05,0-0.08,0
	c0,0.1,0,0.21,0,0.31c0.1,0.06,0.09,0.05,0.15,0.15c-0.08,0-0.15,0-0.23,0c0-0.03,0-0.05,0-0.08c-0.08,0-0.15,0-0.23,0
	c-0.1-0.05,0.02-0.03-0.08-0.08c-0.08-0.14-0.25-0.32-0.31-0.46c0-0.13,0-0.26,0-0.38c-0.03,0-0.05,0-0.08,0c0-0.08,0-0.15,0-0.23
	c-0.03,0-0.05,0-0.08,0c0-0.26,0-0.51,0-0.77c-0.03,0-0.05,0-0.08,0c0-0.05,0-0.1,0-0.15c-0.18-0.15-0.36-0.31-0.54-0.46
	c0-0.05,0-0.1,0-0.15c-0.05-0.03-0.1-0.05-0.15-0.08c0-0.05,0-0.1,0-0.15c-0.03,0-0.05,0-0.08,0c-0.05-0.15-0.1-0.31-0.15-0.46
	c-0.03,0-0.05,0-0.08,0c-0.14-0.4,0.21-0.76,0.23-1.15c-0.08-0.07-0.11-0.13-0.15-0.23c-0.03,0-0.05,0-0.08,0c0,0.03,0,0.05,0,0.08
	c-0.08-0.03-0.15-0.05-0.23-0.08c-0.08-0.1-0.15-0.21-0.23-0.31c-0.03,0-0.05,0-0.08,0c0-0.08,0-0.15,0-0.23
	c-0.08-0.05-0.15-0.1-0.23-0.15c0-0.05,0-0.1,0-0.15c-0.03,0-0.05,0-0.08,0c0-0.05,0-0.1,0-0.15c-0.03,0-0.05,0-0.08,0
	c-0.13-0.21,0.07-0.14-0.23-0.23c0-0.03,0-0.05,0-0.08c-0.08,0-0.15,0-0.23,0c-0.05-0.27-0.22-0.46-0.31-0.69c0-0.1,0-0.21,0-0.31
	c-0.03,0-0.05,0-0.08,0c-0.09-0.28,0.04-0.42-0.15-0.61c0,0.18,0,0.36,0,0.54c-0.03,0-0.05,0-0.08,0c-0.07-0.65-0.1-1.11,0.08-1.69
	c0-0.18,0-0.36,0-0.54c0.03,0,0.05,0,0.08,0c0.03-0.1,0.05-0.21,0.08-0.31c0.03,0,0.05,0,0.08,0c0-0.05,0-0.1,0-0.15
	c0.05-0.03,0.1-0.05,0.15-0.08c0-0.05,0-0.1,0-0.15c0.03,0,0.05,0,0.08,0c0-0.05,0-0.1,0-0.15c0.03,0,0.05,0,0.08,0
	c0-0.1,0-0.2,0-0.31c0.05-0.03,0.1-0.05,0.15-0.08c0-0.05,0-0.1,0-0.15c0.03,0,0.05,0,0.08,0c0.18-0.41,0.36-0.82,0.54-1.23
	c-0.03,0-0.05,0-0.08,0c0-0.03,0-0.05,0-0.08c-0.08,0.03-0.15,0.05-0.23,0.08c0-0.03,0-0.05,0-0.08c0.03,0,0.05,0,0.08,0
	c0.14-0.24,0.24-0.23,0.46-0.38c0.03-0.05,0.05-0.1,0.08-0.15c0.05,0,0.1,0,0.15,0c0.05-0.08,0.1-0.15,0.15-0.23
	c0.1-0.03,0.21-0.05,0.31-0.08c0.03-0.05,0.05-0.1,0.08-0.15c0.05,0,0.1,0,0.15,0c0-0.03,0-0.05,0-0.08
	c0.13-0.03,0.26-0.05,0.38-0.08c0,0.03,0,0.05,0,0.08c-0.12,0.1-0.19,0.2-0.23,0.38c0.05-0.03,0.1-0.05,0.15-0.08
	c0.03,0.13,0.05,0.26,0.08,0.38c0.03,0,0.05,0,0.08,0c0-0.03,0-0.05,0-0.08c0.03,0,0.05,0,0.08,0c0.09-0.27-0.08-0.29,0.23-0.38
	c0-0.03,0-0.05,0-0.08c0.08,0,0.15,0,0.23,0c-0.03,0.08-0.05,0.15-0.08,0.23c0.05,0,0.1,0,0.15,0c0,0.03,0,0.05,0,0.08
	c0,0,0.48-0.2,0.54-0.23c0-0.03,0-0.05,0-0.08c0.08,0,0.15,0,0.23,0c0.03-0.05,0.05-0.1,0.08-0.15c0.13-0.07,1.19-0.37,1.38-0.31
	c0,0.03,0,0.05,0,0.08c0.05,0,0.1,0,0.15,0c0,0.03,0,0.05,0,0.08c0.08,0,0.15,0,0.23,0c0,0.03,0,0.05,0,0.08
	c0.12,0.03,0.15-0.08,0.15-0.08c0.13,0.03,0.26,0.05,0.38,0.08c0,0.03,0,0.05,0,0.08C23.41,15.85,23.43,15.81,23.38,15.99z"/>
<path class="st3" d="M29.69,21.83c0.05,0,0.1,0,0.15,0c0.01,0.47-0.08,0.5-0.23,0.77c0,0.05,0,0.1,0,0.15
	c-0.05,0.03-0.1,0.05-0.15,0.08c-0.15,0.21-0.09,0.31-0.38,0.38c0,0.03,0,0.05,0,0.08c-0.03,0-0.05,0-0.08,0c0-0.05,0-0.1,0-0.15
	c-0.28-0.3-0.09-0.91-0.46-1.15c0-0.03,0-0.05,0-0.08c-0.03,0-0.05,0-0.08,0c0,0.05,0,0.1,0,0.15c0.17,0.2,0.06,0.49,0.15,0.77
	c0.03,0,0.05,0,0.08,0c0,0.08,0,0.15,0,0.23c0.03,0,0.05,0,0.08,0c0,0.08,0,0.15,0,0.23c0.03,0,0.05,0,0.08,0c0,0.08,0,0.15,0,0.23
	c0.01,0.01,0.12,0.08,0.15,0.15c0.12-0.04,0.13-0.06,0.31-0.08c-0.02,0.73-0.61,1.08-0.84,1.61c-0.05,0.38-0.1,0.77-0.15,1.15
	c-0.05,0.03-0.1,0.05-0.15,0.08c0,0.05,0,0.1,0,0.15c-0.08,0.05-0.15,0.1-0.23,0.15c0,0.05,0,0.1,0,0.15
	c-0.08,0.05-0.15,0.1-0.23,0.15c0,0.05,0,0.1,0,0.15c-0.03,0-0.05,0-0.08,0c0,0.05,0,0.1,0,0.15c-0.03,0-0.05,0-0.08,0
	c0,0.05,0,0.1,0,0.15c-0.03,0-0.05,0-0.08,0c-0.03,0.08-0.05,0.15-0.08,0.23c-0.07,0.1-0.8,0.62-1,0.54c0-0.03,0-0.05,0-0.08
	c-0.03,0-0.05,0-0.08,0c0-0.05,0-0.1,0-0.15c-0.02,0-0.05,0-0.08,0c0-0.36,0-0.72,0-1.08c0.03,0,0.05,0,0.08,0c0-0.08,0-0.15,0-0.23
	c0.03,0,0.05,0,0.08,0c0-0.08,0-0.15,0-0.23c0.03,0,0.05,0,0.08,0c0.16-0.51-0.2-0.94-0.31-1.23C26.04,25,26.25,25.1,26,24.91
	c0-0.03,0-0.05,0-0.08c-0.18,0-0.36,0-0.54,0c0,0.03,0,0.05,0,0.08c-0.15,0.03-0.31,0.05-0.46,0.08c0,0.03,0,0.05,0,0.08
	c-0.05,0-0.1,0-0.15,0c0,0.03,0,0.05,0,0.08c-0.63,0.2-0.82-0.62-1.08-0.84c-0.01-1.79,1.07-3.31,2.84-3.31
	c0.05,0.13,0.07,0.24,0.08,0.46c0.21,0.03,0.41,0.05,0.62,0.08c0.03-0.05,0.05-0.1,0.08-0.15c0.05,0,0.1,0,0.15,0
	c0-0.03,0-0.05,0-0.08c0.38-0.17,0.63,0.09,0.69-0.46c-0.03,0-0.05,0-0.08,0c0-0.03,0-0.05,0-0.08c-0.15-0.03-0.31-0.05-0.46-0.08
	c0.03-0.13,0.05-0.26,0.08-0.38c0.08-0.05,0.15-0.1,0.23-0.15c0-0.03,0-0.05,0-0.08c0.15-0.05,0.31-0.1,0.46-0.15
	c-0.03-0.08-0.05-0.15-0.08-0.23c-0.05,0-0.1,0-0.15,0c0-0.05,0-0.1,0-0.15c-0.03,0-0.05,0-0.08,0c0,0.08,0,0.15,0,0.23
	c-0.21-0.05-0.17-0.1-0.38-0.15c-0.05,0.38-0.1,0.77-0.15,1.15c-0.14,0.07-0.12,0.11-0.31,0.15c-0.03-0.1-0.05-0.21-0.08-0.31
	c-0.03,0-0.05,0-0.08,0c0,0.03,0,0.05,0,0.08c-0.1,0.08-0.24,0.27-0.31,0.38c-0.03,0-0.05,0-0.08,0c0-0.03,0-0.05,0-0.08
	c-0.09-0.09-0.03,0-0.08-0.15c0.24-0.17,0.07-0.26,0-0.54c-0.05,0-0.1,0-0.15,0c0,0.15,0,0.31,0,0.46c-0.28-0.07-0.24-0.2-0.23-0.54
	c-0.08,0-0.15,0-0.23,0c-0.05,0.1-0.13,0.11-0.15,0.15c0,0.05,0,0.1,0,0.15c-0.03,0-0.05,0-0.08,0c0,0.08,0,0.15,0,0.23
	c-0.03,0-0.05,0-0.08,0c-0.16,0.29-0.16,0.38-0.62,0.38c0,0.03,0,0.05,0,0.08c-0.1,0-0.21,0-0.31,0c-0.01-0.44,0.09-0.67,0.15-1
	c0.13,0,0.26,0,0.38,0c0.05-0.13,0.07-0.24,0.08-0.46c-0.09-0.09-0.03,0-0.08-0.15c0.05,0,0.1,0,0.15,0
	c0.13-0.19,0.34-0.25,0.46-0.46c0.16-0.16,0.16-0.44,0.15-0.77c0.28,0.08,0.21,0.15,0.31,0.38c0.15-0.03,0.31-0.05,0.46-0.08
	c0-0.18,0-0.36,0-0.54c0.03,0,0.05,0,0.08,0c0-0.03,0-0.05,0-0.08c-0.03,0-0.05,0-0.08,0c0-0.03,0-0.05,0-0.08
	c0.05-0.03,0.1-0.05,0.15-0.08c0-0.05,0-0.1,0-0.15c-0.3-0.08-0.24-0.23-0.54-0.31c0.03,0.13,0.05,0.26,0.08,0.38
	c0.03,0,0.05,0,0.08,0c0,0.23,0,0.46,0,0.69c-0.08,0-0.15,0-0.23,0c-0.03-0.1-0.05-0.21-0.08-0.31c-0.13,0.03-0.26,0.05-0.38,0.08
	c-0.03-0.13-0.05-0.26-0.08-0.38c-0.03,0-0.05,0-0.08,0c-0.07-0.27,0.12-0.23,0.15-0.31c0-0.23,0-0.46,0-0.69c0.03,0,0.05,0,0.08,0
	c-0.03-0.08-0.05-0.15-0.08-0.23c0.03,0,0.05,0,0.08,0c0.03-0.1,0.05-0.21,0.08-0.31c0.37,0.07,0.56,0.3,0.92,0.38
	c0-0.03,0-0.05,0-0.08c-0.38-0.19-1.02-0.5-1.08-1c0.03,0,0.05,0,0.08,0c0.07,0.09,0.18,0.09,0.23,0.15c0.03,0.1,0.05,0.2,0.08,0.31
	c0.08,0.03,0.15,0.05,0.23,0.08c0.05,0.08,0.1,0.15,0.15,0.23c0.05-0.03,0.1-0.05,0.15-0.08c0.05,0.01,0.04,0.17,0.15,0.15
	c0-0.03,0-0.05,0-0.08c0.03,0,0.05,0,0.08,0c0-0.08,0-0.15,0-0.23c-0.03,0-0.05,0-0.08,0c0-0.08,0-0.15,0-0.23
	c-0.03,0-0.05,0-0.08,0c-0.09-0.09,0-0.03-0.15-0.08c-0.01-0.2-0.03-0.26-0.08-0.38c0.13,0,0.26,0,0.38,0
	c0.13,0.19,0.27,0.18,0.46,0.31c0.05,0.08,0.1,0.15,0.15,0.23c0.05,0,0.1,0,0.15,0c0.15,0.18,0.31,0.36,0.46,0.54
	c0.05,0,0.1,0,0.15,0c0.03,0.05,0.05,0.1,0.08,0.15c0.03,0,0.05,0,0.08,0c0,0.05,0,0.1,0,0.15c0.15,0.13,0.31,0.26,0.46,0.38
	c0,0.05,0,0.1,0,0.15c0.08,0.05,0.15,0.1,0.23,0.15c0,0.05,0,0.1,0,0.15c0.05,0.03,0.1,0.05,0.15,0.08c0.03,0.1,0.05,0.21,0.08,0.31
	c0.05,0.03,0.1,0.05,0.15,0.08c0.03,0.1,0.05,0.21,0.08,0.31c0.03,0,0.05,0,0.08,0c0.05,0.15,0.1,0.31,0.15,0.46
	c0.03,0,0.05,0,0.08,0c0,0.08,0,0.15,0,0.23c0.03,0,0.05,0,0.08,0c0,0.08,0,0.15,0,0.23c0.03,0,0.05,0,0.08,0c0,0.05,0,0.1,0,0.15
	c0.03,0,0.05,0,0.08,0c0,0.1,0,0.21,0,0.31c0.03,0,0.05,0,0.08,0c0,0.1,0,0.21,0,0.31c0.03,0,0.05,0,0.08,0
	c0.05,0.41,0.1,0.82,0.15,1.23c-0.05,0.03-0.1,0.05-0.15,0.08c-0.19,0.46,0.21,1.17-0.15,1.54c-0.01-0.48-0.15-0.99-0.23-1.38
	c-0.12-0.05-0.18-0.07-0.38-0.08C29.74,21.68,29.71,21.75,29.69,21.83z"/>
<path class="st3" d="M20.39,17.68c0.05-0.36,0.08-0.18,0.23-0.38c0.03,0,0.05,0,0.08,0c-0.11-0.39,0.06-0.17,0.15-0.54
	c-0.05,0-0.1,0-0.15,0c-0.18,0.29-0.56,0.42-0.85,0.62c-0.03,0.05-0.05,0.1-0.08,0.15c-0.05,0-0.1,0-0.15,0
	c-0.03,0.05-0.05,0.1-0.08,0.15c-0.08,0.03-0.15,0.05-0.23,0.08c0,0.1,0,0.21,0,0.31c0.18,0.11,0.26,0.21,0.31,0.46
	c0,0.08,0,0.15,0,0.23c0.03,0,0.05,0,0.08,0c0-0.05,0-0.1,0-0.15C19.99,18.34,19.94,17.8,20.39,17.68z"/>
<path class="st3" d="M24.31,17.84c0,0.08,0,0.15,0,0.23c-0.08,0-0.15,0-0.23,0c-0.07,0.03-0.11,0.3-0.31,0.23c0-0.03,0-0.05,0-0.08
	c-0.03,0-0.05,0-0.08,0c0-0.1,0-0.2,0-0.31c0.08-0.07,0.11-0.13,0.15-0.23C24.02,17.76,24.06,17.81,24.31,17.84z"/>
<path class="st3" d="M25.15,18.3c0.08,0.42,0.29,0.64,0.31,1.15c-0.26,0-0.35,0.04-0.54,0.08c0-0.03,0-0.05,0-0.08
	c0.05-0.03,0.1-0.05,0.15-0.08c0-0.05,0-0.1,0-0.15c0,0-0.1-0.05-0.08-0.15c0.03,0,0.05,0,0.08,0c0-0.1,0-0.21,0-0.31
	c-0.03,0-0.05,0-0.08,0c-0.08-0.13-0.1-0.13-0.15-0.31C24.98,18.38,24.97,18.34,25.15,18.3z"/>
<path class="st3" d="M24.84,18.76c0.03,0.19,0.07,0.28,0.08,0.54c-0.13,0-0.26,0-0.38,0c0.03-0.15,0.05-0.31,0.08-0.46
	c0.03,0,0.05,0,0.08,0C24.78,18.75,24.69,18.8,24.84,18.76z"/>
<path class="st4" d="M59.64,14.5v8.95c0,1.94-1.57,3.51-3.51,3.51c-1.94,0-3.51-1.57-3.51-3.51V14.5h-2.82v8.95
	c0,3.5,2.84,6.35,6.34,6.35c3.5,0,6.35-2.84,6.35-6.35V14.5H59.64z"/>
</svg>
