<?xml version="1.0" encoding="UTF-8" standalone="no"?>
<svg
   xmlns:dc="http://purl.org/dc/elements/1.1/"
   xmlns:cc="http://creativecommons.org/ns#"
   xmlns:rdf="http://www.w3.org/1999/02/22-rdf-syntax-ns#"
   xmlns:svg="http://www.w3.org/2000/svg"
   xmlns="http://www.w3.org/2000/svg"
   xmlns:sodipodi="http://sodipodi.sourceforge.net/DTD/sodipodi-0.dtd"
   xmlns:inkscape="http://www.inkscape.org/namespaces/inkscape"
   width="725pt"
   height="599pt"
   viewBox="0 0 725 599"
   version="1.1"
   id="svg3027"
   inkscape:version="0.48.1 "
   sodipodi:docname="Kabel_Eins_2011.svg">
  <metadata
     id="metadata3064">
    <rdf:RDF>
      <cc:Work
         rdf:about="">
        <dc:format>image/svg+xml</dc:format>
        <dc:type
           rdf:resource="http://purl.org/dc/dcmitype/StillImage" />
      </cc:Work>
    </rdf:RDF>
  </metadata>
  <defs
     id="defs3062" />
  <sodipodi:namedview
     pagecolor="#ffffff"
     bordercolor="#666666"
     borderopacity="1"
     objecttolerance="10"
     gridtolerance="10"
     guidetolerance="10"
     inkscape:pageopacity="0"
     inkscape:pageshadow="2"
     inkscape:window-width="1618"
     inkscape:window-height="1028"
     id="namedview3060"
     showgrid="false"
     inkscape:snap-global="false"
     inkscape:zoom="0.35355339"
     inkscape:cx="221.40186"
     inkscape:cy="348.60021"
     inkscape:window-x="-8"
     inkscape:window-y="-8"
     inkscape:window-maximized="1"
     inkscape:current-layer="svg3027">
    <inkscape:grid
       type="xygrid"
       id="grid3990" />
  </sodipodi:namedview>
  <g
     id="#cf6728ff">
    <path
       d="m 16.59,0 691.75,0 c 9.53,3.36 15.79,12.65 16.66,22.54 l 0,380.0096 -725,0 L 0,137.42 0,22.56 C 0.93,12.68 7.09,3.44 16.59,0 z"
       id="path3030"
       inkscape:connector-curvature="0"
       style="fill:#e75411;fill-opacity:1"
       sodipodi:nodetypes="cccccccc" />
    <path
       d="m 0,285.3296 54,200.36 -36.2,0 C 7.04,484.0296 0.74,472.57 0,462.48 z"
       id="path3032"
       inkscape:connector-curvature="0"
       style="fill:#e75411;fill-opacity:1"
       sodipodi:nodetypes="ccccc" />
  </g>
  <g
     id="#ffffffff">
    <path
       d="m 454.12,42.05 c 40.12,-6.73 80.15,-14.55 119.25,-25.9 7.72,19.1 14.84,38.47 20.17,58.38 5.39,19.8 9.27,40.06 10.77,60.53 3.88,76.69 -20.66,154.6 -68.51,214.75 -22.7,28.64 -50.44,53.29 -81.61,72.37 -46.37,28.55 -100.09,44.55 -154.37,47.63 -23.85,1.77 -47.96,0.53 -71.37,-4.51 -31.86,-6.64 -62.37,-18.73 -91.24,-33.6 C 127.1,426.38 116.87,421.14 107.59,414.42 79.18,394.79 52.68,371.77 32.34,343.68 19.86,326.72 10.03,308.01 1.6,288.76 1.09,287.61 0.53,286.47 0,285.33 L 0,137.42 c 1,21.65 2.47,43.36 6.67,64.67 6.67,35.09 19.77,69.73 42.77,97.47 21.33,26.17 51,44.72 82.91,55.2 34.81,11.91 72.7,15.07 108.9,8.26 29.67,-5.79 58.15,-18.37 81.68,-37.44 31.33,-25.11 53.44,-61.07 63.15,-99.91 l -86.8368,16.9828 c 0.93,-28.88001 1.8668,-58.5328 2.1368,-87.4328 32.54,-7.23 64.4,-20.92 89.15,-43.68 18.74,-17.03 32.53,-40.08 35.9,-65.41 9.21,-1.47 18.49,-2.51 27.69,-4.08 z"
       id="path3053"
       inkscape:connector-curvature="0"
       style="fill:#ffffff"
       sodipodi:nodetypes="ccccccccccccccccccccccccc" />
  </g>
  <g
     id="#9f1a1bff">
    <path
       d="M 593.54,74.53 725,402.55 l 0,60.92 c -1.08,10.46 -8.52,21.92 -19.97,22.22 L 53.91,485.6896 0,285.3296 c 8.43,19.25 19.86,41.3904 32.34,58.3504 20.34,28.09 46.84,51.11 75.25,70.74 9.28,6.72 19.51,11.96 29.62,17.28 28.87,14.87 59.38,26.96 91.24,33.6 23.41,5.04 47.52,6.28 71.37,4.51 54.28,-3.08 108,-19.08 154.37,-47.63 31.17,-19.08 58.91,-43.73 81.61,-72.37 47.85,-60.15 72.39,-138.06 68.51,-214.75 -1.5,-20.47 -5.38,-40.73 -10.77,-60.53 z"
       id="path3056"
       inkscape:connector-curvature="0"
       style="fill:#b40b1f;fill-opacity:1"
       sodipodi:nodetypes="ccccccccccccccc" />
    <path
       d="m 386.08,225.67 c -9.71,38.84 -31.82,74.8 -63.15,99.91 l -23.6868,-82.9272 z"
       id="path3058"
       inkscape:connector-curvature="0"
       style="fill:#b40b1f;fill-opacity:1"
       sodipodi:nodetypes="cccc" />
  </g>
  <path
     inkscape:connector-curvature="0"
     d="m 566.8507,598.09303 -10.78836,0 c -1.50187,0 -2.78907,-1.28723 -2.78907,-2.75847 l 0.0305,-46.61685 c 0,-15.23242 8.27526,-19.76857 35.49145,-19.76857 l 5.88458,0 c 27.24679,0 35.49131,4.53615 35.49131,19.79917 l -0.0305,46.58625 c 0,1.50186 -1.25664,2.78908 -2.75834,2.78908 l -10.8191,0 c -1.50185,0 -2.78907,-1.28722 -2.78907,-2.78908 l 0.0305,-46.61685 c 0,-3.03429 -0.73554,-3.83106 -2.78894,-4.44407 -2.91174,-0.85822 -7.84615,-0.88883 -16.33588,-0.88883 l -5.88458,0 c -8.48975,0 -13.42428,0.0307 -16.36649,0.88883 -2.02293,0.61301 -2.78908,1.40978 -2.78908,4.47467 l -0.0305,46.58625 c 0,1.47124 -1.2566,2.75847 -2.75845,2.75847 m -37.23839,-0.0919 -11.58527,0 c -1.50171,0 -2.78906,-1.28719 -2.78906,-2.78904 l 0,-63.44307 c 0,-1.50186 1.28735,-2.75848 2.78906,-2.75848 l 11.58527,0 c 1.50184,0 2.78907,1.25662 2.78907,2.75848 l 0,63.44307 c 0,1.50185 -1.28723,2.78904 -2.78907,2.78904 m -31.44564,-46.6476 c 0,15.47766 -5.7314,19.76857 -35.46071,19.76857 l -10.8191,0 c -8.45914,0 -13.39353,0.0307 -16.33588,0.88885 -2.02279,0.61288 -2.78908,1.37916 -2.78908,4.44405 l 0,2.60519 c 0,3.03417 0.76629,3.83105 2.78908,4.41333 2.94235,0.85823 7.87674,0.91944 16.33588,0.91944 l 39.10789,0 c 1.50185,0 2.78907,1.25663 2.78907,2.75848 l 0,8.06063 c 0,1.50185 -1.28722,2.78906 -2.78907,2.78906 l -39.10789,0 c -27.27754,0 -35.4607,-4.4748 -35.4607,-19.46201 l 0,-30.21976 c 0,-14.89537 8.33645,-19.37017 35.4607,-19.37017 l 10.8191,0 c 27.52264,0 35.46071,4.53613 35.46071,19.79917 l 0,2.60517 z m -35.46071,5.91531 c 8.4284,0 13.39353,-0.0307 16.30515,-0.88883 2.05351,-0.61303 2.81968,-1.37931 2.81968,-4.41347 l 0,-3.21818 c 0,-3.0649 -0.76617,-3.86167 -2.78908,-4.47467 -2.94222,-0.85822 -7.87673,-0.88885 -16.33575,-0.88885 l -10.8191,0 c -8.45914,0 -13.39353,0.0307 -16.33588,0.88885 -2.02279,0.613 -2.78908,1.40977 -2.78908,4.47467 l 0,9.40919 c 1.96155,-0.49032 4.62809,-0.88871 8.15271,-0.88871 l 21.79135,0 z m 257.02134,-25.5306 0,8.88828 c 0,1.50172 -1.2566,2.75832 -2.75845,2.75832 l -35.88985,0 c -8.459,0 -13.42414,0.0307 -16.33577,0.88885 -2.02289,0.613 -2.78904,1.40977 -2.78904,4.47467 l 0,2.17607 c 0,3.03429 0.76615,3.83117 2.78904,4.44419 2.94223,0.8581 7.87677,0.88871 16.33577,0.88871 l 6.9267,0 c 27.24681,0 35.46072,4.47479 35.46072,19.76857 l 0,2.51322 c 0,14.9566 -8.15257,19.4314 -35.24623,19.46201 l -37.26901,0 c -1.50169,0 -2.78906,-1.28721 -2.78906,-2.78906 l 0,-8.88815 c 0,-1.50184 1.28737,-2.75846 2.78906,-2.75846 l 37.05452,0 c 8.5817,0 13.45487,-0.0612 16.33589,-0.91944 2.02277,-0.58228 2.78894,-1.37916 2.78894,-4.41346 l 0,-2.20666 c 0,-3.06491 -0.76617,-3.83107 -2.78894,-4.44408 -2.94235,-0.85822 -7.87686,-0.88883 -16.33589,-0.88883 l -6.9267,0 c -29.72929,0 -35.46071,-4.26019 -35.46071,-19.73784 l 0,-2.20679 c 0,-15.26304 7.93809,-19.79917 35.46071,-19.79917 l 35.88985,0 c 1.50185,0 2.75845,1.28736 2.75845,2.78905 M 11.186835,557.85111 67.182301,529.28635 c 0.950121,-0.30643 2.390614,-0.27582 2.390614,1.8083 l 0,6.68148 c 0,0.6742 0.153296,1.77767 -1.501796,2.57444 l -45.053828,23.1399 c -0.337132,0.76628 0,0.88884 0,0.88884 l 48.578459,23.01736 c 1.624387,0.76614 1.501779,1.90021 1.501779,2.57443 l 0,7.07985 c 0,2.08411 -1.440492,2.11484 -2.390597,1.80829 l -59.520097,-27.85981 0.03059,25.10147 c 0,0.91944 -0.827512,1.74694 -1.7469791,1.74694 l -7.6928635,0 c -0.91946756,0 -1.7469865,-0.8275 -1.7469865,-1.74694 L 0,519.90773 c 0,-0.95006 0.82752074,-1.77755 1.7469862,-1.77755 l 7.6622161,0 c 0.9501197,0 1.7469887,0.82749 1.7469887,1.77755 l 0.03059,37.94333 z m 237.896435,-9.10276 c 0,-8.61229 -5.7313,-8.61229 -23.17051,-8.61229 l -9.62369,0 c -17.43922,0 -23.20125,0 -23.20125,8.61229 l -0.15334,31.44577 c 0,8.61231 5.76203,8.61231 23.20123,8.61231 l 9.62371,0 c 17.43921,0 23.17063,0 23.17063,-8.61231 l 0.15321,-31.44577 z m -67.33548,-28.77924 c 0,-0.95006 0.82749,-1.74694 1.74694,-1.74694 l 7.84615,0 c 0.91945,0 1.74694,0.79688 1.74694,1.74694 l 0,12.81128 c 5.21034,-1.40992 12.65797,-2.05352 23.20125,-2.05352 l 9.62369,0 c 29.17775,0 34.6026,4.78124 34.6026,18.02148 l -0.15333,31.90549 c 0,12.84189 -5.76203,17.56178 -34.60261,17.56178 l -9.62371,0 c -29.17775,0 -34.6026,-4.78124 -34.6026,-18.0215 l 0.21468,-60.22501 z m -29.20836,46.31042 c 0,0 -2.85042,2.35995 -11.55466,2.35995 l -23.04796,0 c -17.4085,0 -23.201172,0 -23.201172,8.5511 l 0,3.00354 c 0,8.61231 5.761952,8.61231 23.201172,8.61231 l 11.4321,0 c 17.40849,0 23.17052,0 23.17052,-8.61231 l 0,-13.91459 z m -34.60262,31.93609 c -29.208353,0 -34.633199,-4.78124 -34.633199,-18.0215 l 0,-3.00354 c 0,-13.54683 3.187475,-17.96029 34.633199,-17.96029 l 11.4321,0 c 17.40849,0 23.17052,0 23.17052,-8.61231 l 0,-2.32935 c 0,-8.55096 -5.76203,-8.55096 -23.17052,-8.55096 l -40.640453,0.0307 c -0.919455,0 -1.746983,-0.82749 -1.746983,-1.74694 l 0,-5.9459 c 0,-0.95019 0.827528,-1.74694 1.746983,-1.74694 l 40.640453,0 c 28.99374,0 34.60249,4.71989 34.60249,17.65371 l 0,32.67165 c 0,12.84187 -5.76203,17.56177 -34.60249,17.56177 l -11.4321,0 z m 171.26586,-36.22689 c 0,0 2.85027,-2.35994 11.58525,-2.35994 l 23.04796,0 c 17.37788,0 23.17053,0 23.17053,-8.5511 l 0,-2.32935 c 0,-8.61229 -5.7313,-8.61229 -23.17053,-8.61229 l -11.43197,0 c -17.43923,0 -23.20124,0 -23.20124,8.61229 l 0,13.24039 z m 34.63321,-31.26187 c 29.17776,0 34.60264,4.78124 34.60264,18.02148 l 0,2.32935 c 0,13.54682 -3.18761,17.96029 -34.60264,17.96029 l -11.43197,0 c -17.43923,0 -23.20124,0 -23.20124,8.61231 l 0,2.32932 c 0,8.55097 5.76201,8.55097 23.20124,8.55097 l 40.36451,0 c 1.25662,0.0307 2.05351,0.8275 2.05351,1.74708 l 0,5.91519 c 0,0.91944 -0.79689,1.71633 -1.74708,1.71633 l -40.67094,0.0307 c -29.02448,0 -34.63321,-4.7199 -34.63321,-17.65371 l 0,-31.99744 c 0,-12.81114 5.76189,-17.56178 34.63321,-17.56178 l 11.43197,0 z m 60.62342,49.43665 c 0,9.56235 9.07216,8.42841 18.20549,8.39779 1.50174,0 2.32924,0.79678 2.32924,1.71636 l 0,5.91519 c 0,0.91944 -0.8275,1.71633 -1.74694,1.71633 l -0.9808,0 c -17.92954,0 -29.02449,-0.88885 -29.02449,-16.06007 l -0.15319,-61.69613 c 0,-0.91944 0.82751,-1.74693 1.74693,-1.74693 l 7.81543,0 c 0.95016,0 1.74707,0.82749 1.74707,1.74693 l 0.0612,60.01053 z"
     id="path7688"
     style="fill:#e75411;fill-opacity:1;fill-rule:nonzero;stroke:none" />
</svg>
