<?xml version="1.0" encoding="utf-8"?>
<!-- Generator: Adobe Illustrator 15.0.0, SVG Export Plug-In . SVG Version: 6.00 Build 0)  -->
<!DOCTYPE svg PUBLIC "-//W3C//DTD SVG 1.1//EN" "http://www.w3.org/Graphics/SVG/1.1/DTD/svg11.dtd">
<svg version="1.1" id="Layer_1" xmlns="http://www.w3.org/2000/svg" xmlns:xlink="http://www.w3.org/1999/xlink" x="0px" y="0px"
	 width="62.7px" height="28px" viewBox="119 53.2 62.7 28" style="enable-background:new 119 53.2 62.7 28;" xml:space="preserve">
<style type="text/css">
<![CDATA[
	.st0{fill:#FFFFFF;}
	.st1{fill:#010101;}
	.st2{fill:none;stroke:#010101;stroke-width:2;stroke-miterlimit:10;}
]]>
</style>
<g>
	<rect x="119" y="53.2" class="st1" width="62.7" height="28"/>
	<rect x="120.3" y="54.4" class="st0" width="60.1" height="25.6"/>
	<polygon class="st1" points="177.8,66.1 167.3,66.1 167.3,56.3 177.8,56.3 177.8,58.3 169.5,58.3 169.5,60.2 177.2,60.2 
		177.2,62.1 169.5,62.1 169.5,64.1 177.8,64.1 	"/>
	<path class="st1" d="M177.9,77.9h-7.2c-1.4,0-2.5-0.5-3.2-1.7c-0.5-0.8-0.5-1.5-0.5-3.2c0-1.8,0.2-2.5,0.6-3.2
		c0.7-1.1,1.7-1.7,3.1-1.7h6.9v2h-6.8c-1.4,0-1.6,1.4-1.6,2.8c0,1.8,0.3,2.9,1.7,2.9h4.8v-1.8h-4.7v-1.9h6.9V77.9L177.9,77.9z"/>
	<polygon class="st1" points="165.7,66.1 162,66.1 155.8,58.3 155.7,58.3 155.7,66.1 153.4,66.1 153.4,56.3 157,56.3 163.3,64.1 
		163.4,64.1 163.4,56.3 165.7,56.3 	"/>
	<line class="st2" x1="150.6" y1="66.1" x2="150.6" y2="56.3"/>
	<polygon class="st1" points="165.7,77.9 162,77.9 155.9,70.2 155.7,70.2 155.7,77.9 153.4,77.9 153.4,68.1 157,68.1 163.2,75.9 
		163.4,75.9 163.4,68.1 165.7,68.1 	"/>
	<polygon class="st1" points="148.1,58.3 139.8,58.3 139.8,60.2 147.5,60.2 147.5,62.2 139.8,62.2 139.8,66.1 137.5,66.1 
		137.5,56.3 148.1,56.3 	"/>
	<line class="st2" x1="150.6" y1="77.9" x2="150.6" y2="68.1"/>
	<polygon class="st1" points="148.6,68.1 144.6,77.9 141.3,77.9 137.2,68.1 139.6,68.1 141.9,73.8 142.8,75.9 143,75.9 143.9,73.8 
		146.2,68.1 	"/>
	<line class="st2" x1="135.2" y1="77.9" x2="135.2" y2="68.1"/>
	<polygon class="st1" points="132.8,75.9 132.8,77.9 123,77.9 123,68.1 125.2,68.1 125.2,75.9 	"/>
</g>
</svg>
