<?xml version="1.0" encoding="utf-8"?>
<!-- Generator: Adobe Illustrator 15.0.0, SVG Export Plug-In . SVG Version: 6.00 Build 0)  -->
<!DOCTYPE svg PUBLIC "-//W3C//DTD SVG 1.1//EN" "http://www.w3.org/Graphics/SVG/1.1/DTD/svg11.dtd">
<svg version="1.1"
	 id="svg14315" inkscape:version="0.48.2 r9819" sodipodi:docname="Eurosport HD.svg" xmlns:dc="http://purl.org/dc/elements/1.1/" xmlns:cc="http://creativecommons.org/ns#" xmlns:rdf="http://www.w3.org/1999/02/22-rdf-syntax-ns#" xmlns:svg="http://www.w3.org/2000/svg" xmlns:sodipodi="http://sodipodi.sourceforge.net/DTD/sodipodi-0.dtd" xmlns:inkscape="http://www.inkscape.org/namespaces/inkscape"
	 xmlns="http://www.w3.org/2000/svg" xmlns:xlink="http://www.w3.org/1999/xlink" x="0px" y="0px" width="42.9px" height="28px"
	 viewBox="116 75.7 42.9 28" style="enable-background:new 116 75.7 42.9 28;" xml:space="preserve">
<style type="text/css">
<![CDATA[
	.st0{fill:#AA0C31;}
	.st1{fill:#B3B5B7;}
	.st2{fill:url(#path5625_1_);}
	.st3{fill:#FFFFFF;}
]]>
</style>
<g id="layer1" transform="translate(-325.50437,-622.97642)" inkscape:groupmode="layer" inkscape:label="Ebene 1">
	<g id="g5609" transform="matrix(15.706243,0,0,-15.706243,-377.24006,9335.4493)">
		<g id="g5611">
			<g id="g5617">
				
					<linearGradient id="path5625_1_" gradientUnits="userSpaceOnUse" x1="28.6524" y1="529.2917" x2="28.8086" y2="529.2917" gradientTransform="matrix(-55.721 -113.8137 -113.8137 55.721 61890.293 -25682.0625)">
					<stop  offset="0" style="stop-color:#2E4988"/>
					<stop  offset="1" style="stop-color:#0A0D0F"/>
				</linearGradient>
				<path id="path5625" inkscape:connector-curvature="0" class="st2" d="M52.3,549.2h1.2l-0.1-0.5h-1.2L52.3,549.2"/>
			</g>
		</g>
	</g>
	<g id="g5627" transform="matrix(15.706243,0,0,-15.706243,-377.24006,9335.4493)">
		<g id="g5629" transform="translate(53.564,550.516)">
			<g id="g5633" transform="translate(-7.544,-0.545)">
				<path id="path5635" inkscape:connector-curvature="0" class="st3" d="M6.3-0.8h0.2l0-0.1L6.3-0.8l0-0.1h0.1l0-0.1H6.3l0-0.1h0.1
					l0-0.1H6.2L6.3-0.8"/>
				<g id="g5637" transform="translate(1.195,-1.5)">
					<path id="path5639" inkscape:connector-curvature="0" class="st3" d="M5.3,0.4C5.3,0.5,5.3,0.5,5.3,0.4l0.1,0.2h0.1L5.3,0.4
						C5.4,0.5,5.4,0.5,5.3,0.4c0.1,0,0.1,0,0.1,0c0,0,0.1,0,0.1,0l0.1,0.2h0.1L5.5,0.5C5.5,0.4,5.5,0.4,5.3,0.4
						C5.3,0.4,5.3,0.4,5.3,0.4"/>
					<g id="g5641" transform="translate(3.155,0.891)">
						<path id="path5643" inkscape:connector-curvature="0" class="st3" d="M2.6-0.3C2.6-0.3,2.6-0.3,2.6-0.3
							C2.6-0.3,2.6-0.3,2.6-0.3L2.6-0.3L2.5-0.4L2.6-0.3C2.6-0.4,2.6-0.3,2.6-0.3L2.6-0.3z M2.6-0.4L2.6-0.4L2.6-0.4L2.4-0.5
							l0.1,0.3h0.1c0.1,0,0.1,0,0.1-0.1c0,0,0,0,0,0l0,0C2.7-0.4,2.7-0.4,2.6-0.4l0.1-0.1L2.6-0.4L2.6-0.4"/>
						<g id="g5645" transform="translate(1.915,0.059)">
							<path id="path5647" inkscape:connector-curvature="0" class="st3" d="M1-0.4C1-0.3,1-0.3,1-0.4c-0.1,0-0.1,0-0.1,0l0-0.1
								c0,0,0,0,0,0c0,0,0,0,0,0c0,0,0.1,0,0.1,0L1-0.4C1-0.4,1-0.4,1-0.4z M0.8-0.5C0.8-0.5,0.8-0.5,0.8-0.5l0,0.1
								c0,0.1,0.1,0.1,0.1,0.1c0.1,0,0.1,0,0.1-0.1c0,0,0,0,0,0l0-0.1C1-0.5,1-0.6,0.8-0.5C0.8-0.6,0.8-0.5,0.8-0.5"/>
							<g id="g5649" transform="translate(1.044,-1.32)">
								<path id="path5651" inkscape:connector-curvature="0" class="st0" d="M0.1,0.8L0.1,0.8c0,0,0.1,0,0.1,0c0,0,0,0,0.1,0
									c0,0,0,0,0,0c0,0,0,0,0,0c0,0-0.1,0-0.1,0.1c0,0,0,0,0,0c0,0.1,0,0.1,0.1,0.1c0,0,0.1,0,0.1,0l0-0.1c0,0-0.1,0-0.1,0
									c0,0,0,0,0,0c0,0,0,0,0,0c0,0,0,0,0,0c0.1,0,0.1,0,0.1-0.1c0,0,0,0,0,0C0.3,0.8,0.3,0.7,0.1,0.8C0.2,0.7,0.2,0.7,0.1,0.8"/>
								<g id="g5653" transform="translate(3.013,1.252)">
									<path id="path5655" inkscape:connector-curvature="0" class="st0" d="M-2.4-0.3C-2.4-0.3-2.4-0.3-2.4-0.3
										C-2.4-0.3-2.4-0.3-2.4-0.3L-2.4-0.3l-0.1-0.1L-2.4-0.3C-2.4-0.4-2.4-0.3-2.4-0.3L-2.4-0.3z M-2.5-0.4L-2.5-0.4L-2.5-0.4
										l0,0.2h0.1c0.1,0,0.1,0,0.1-0.1c0,0,0,0,0,0l0,0C-2.4-0.4-2.4-0.4-2.5-0.4L-2.5-0.4"/>
									<g id="g5657" transform="translate(1.83,0.068)">
										<path id="path5659" inkscape:connector-curvature="0" class="st0" d="M-3.9-0.4C-3.9-0.3-4-0.3-3.9-0.4
											c-0.1,0-0.1,0-0.1,0l0-0.1c0,0,0,0,0,0c0,0,0,0,0,0c0,0,0.1,0,0.1,0L-3.9-0.4C-3.9-0.4-3.9-0.4-3.9-0.4z M-4.2-0.5
											C-4.2-0.5-4.2-0.5-4.2-0.5l0,0.1c0,0.1,0.1,0.1,0.1,0.1c0.1,0,0.1,0,0.1-0.1c0,0,0,0,0,0l0-0.1C-3.9-0.5-4-0.6-4.2-0.5
											C-4.1-0.6-4.2-0.5-4.2-0.5"/>
										<g id="g5661" transform="translate(1.802,-0.059)">
											<path id="path5663" inkscape:connector-curvature="0" class="st0" d="M-5.5-0.3C-5.5-0.3-5.5-0.3-5.5-0.3
												C-5.5-0.3-5.5-0.3-5.5-0.3L-5.5-0.3l-0.1-0.1L-5.5-0.3C-5.5-0.4-5.5-0.3-5.5-0.3L-5.5-0.3z M-5.6-0.4L-5.6-0.4L-5.6-0.4
												l-0.1-0.1l0.1,0.3h0.1c0.1,0,0.1,0,0.1-0.1c0,0,0,0,0,0l0,0C-5.4-0.4-5.4-0.4-5.6-0.4l0.1-0.1L-5.6-0.4L-5.6-0.4"/>
											<g id="g5665" transform="translate(1.179,-1.362)">
												<path id="path5667" inkscape:connector-curvature="0" class="st0" d="M-6.5,0.8L-6.5,0.8l0,0.2h-0.1l0,0.1h0.2l0-0.1
													h-0.1L-6.5,0.8"/>
												<g id="g5669" transform="translate(-10.307,3.109)">
													<path id="path5671" inkscape:connector-curvature="0" class="st1" d="M2.2-1.8L2.2-1.8L2-1.8l0.1,0.1L2-1.6h0.1
														l0.1,0.1v-0.1h0.1L2.2-1.8L2.2-1.8"/>
													<g id="g5673" transform="translate(2.378,1.413)">
														<path id="path5675" inkscape:connector-curvature="0" class="st1" d="M0.2-3L0.2-3L0-3l0.1,0.1L0-2.8h0.1l0.1,0.1
															v-0.1h0.1L0.2-3L0.2-3"/>
														<g id="g5677" transform="translate(2.642,0.653)">
															<path id="path5679" inkscape:connector-curvature="0" class="st1" d="M-2-3.5L-2-3.5l-0.2,0l0.1,0.1l-0.1,0.1h0.1
																L-2-3.3v-0.1h0.1L-2-3.5L-2-3.5"/>
															<g id="g5681" transform="translate(2.414,-0.654)">
																<path id="path5683" inkscape:connector-curvature="0" class="st1" d="M-4-3L-4-3l-0.2,0l0.1,0.1l-0.1,0.1h0.1
																	L-4-2.7v-0.1h0.1L-4-3L-4-3"/>
																<g id="g5685" transform="translate(1.655,-1.412)">
																	<path id="path5687" inkscape:connector-curvature="0" class="st1" d="M-5.4-1.8L-5.4-1.8l-0.2,0l0.1,0.1l-0.1,0.1
																		h0.1l0.1,0.1v-0.1h0.1L-5.4-1.8L-5.4-1.8"/>
																	<g id="g5689" transform="translate(-2.168,-5.75)">
																		<path id="path5691" inkscape:connector-curvature="0" class="st1" d="M-3.6,3.1L-3.6,3.1l-0.2,0l0.1,0.1l-0.1,0.1
																			h0.1l0.1,0.1V3.2h0.1L-3.6,3.1L-3.6,3.1"/>
																		<g id="g5693" transform="translate(-5.055,-2.066)">
																			<path id="path5695" inkscape:connector-curvature="0" class="st1" d="M0.7,4.8L0.7,4.8l-0.2,0l0.1,0.1L0.5,5h0.1
																				l0.1,0.1V5h0.1L0.7,4.8L0.7,4.8"/>
																			<g id="g5697" transform="translate(-4.065,2.064)">
																				<path id="path5699" inkscape:connector-curvature="0" class="st1" d="M4.1,3.1L4.1,3.1l-0.2,0L4,3.2L3.9,3.2H4
																					l0.1,0.1V3.2h0.1L4.1,3.1L4.1,3.1"/>
																				<g id="g5701" transform="translate(6.71,-1.516)">
																					<path id="path5703" inkscape:connector-curvature="0" class="st1" d="M-1.6,4.4L-1.6,4.4l-0.2,0l0.1,0.1
																						l-0.1,0.1h0.1l0.1,0.1V4.5h0.1L-1.6,4.4L-1.6,4.4"/>
																					<g id="g5705" transform="translate(-5.083,0)">
																						<path id="path5707" inkscape:connector-curvature="0" class="st1" d="M2.7,4.4L2.7,4.4l-0.2,0l0.1,0.1
																							L2.5,4.5h0.1l0.1,0.1V4.5h0.1L2.7,4.4L2.7,4.4"/>
																					</g>
																				</g>
																			</g>
																		</g>
																	</g>
																</g>
															</g>
														</g>
													</g>
												</g>
											</g>
										</g>
									</g>
								</g>
							</g>
						</g>
					</g>
				</g>
			</g>
		</g>
	</g>
</g>
</svg>
