<?xml version="1.0" encoding="utf-8"?>
<!-- Generator: Adobe Illustrator 15.0.0, SVG Export Plug-In . SVG Version: 6.00 Build 0)  -->
<!DOCTYPE svg PUBLIC "-//W3C//DTD SVG 1.1//EN" "http://www.w3.org/Graphics/SVG/1.1/DTD/svg11.dtd">
<svg version="1.1"
	 id="svg3317" inkscape:version="0.46" sodipodi:docname="Goldstar TV Logo.svg" xmlns:inkscape="http://www.inkscape.org/namespaces/inkscape" xmlns:sodipodi="http://sodipodi.sourceforge.net/DTD/sodipodi-0.dtd" xmlns:svg="http://www.w3.org/2000/svg" xmlns:rdf="http://www.w3.org/1999/02/22-rdf-syntax-ns#" xmlns:cc="http://creativecommons.org/ns#" xmlns:dc="http://purl.org/dc/elements/1.1/" inkscape:output_extension="org.inkscape.output.svg.inkscape" sodipodi:version="0.32"
	 xmlns="http://www.w3.org/2000/svg" xmlns:xlink="http://www.w3.org/1999/xlink" x="0px" y="0px" width="82.23px" height="50px"
	 viewBox="4 440.86 82.23 50" style="enable-background:new 4 440.86 82.23 50;" xml:space="preserve">
<style type="text/css">
<![CDATA[
	.st0{fill:url(#path3265_1_);}
	.st1{fill:#0F4083;}
]]>
</style>
<defs>
	
	
		<inkscape:perspective  id="perspective3325" inkscape:vp_y="0 : 1000 : 0" inkscape:vp_z="744.09448 : 526.18109 : 1" sodipodi:type="inkscape:persp3d" inkscape:vp_x="0 : 526.18109 : 1" inkscape:persp3d-origin="372.04724 : 350.78739 : 1">
		</inkscape:perspective>
</defs>
<sodipodi:namedview  id="base" inkscape:current-layer="layer1" inkscape:window-y="-4" showgrid="false" borderopacity="1.0" pagecolor="#ffffff" inkscape:zoom="0.82892518" bordercolor="#666666" inkscape:cx="505" inkscape:cy="300" inkscape:pageopacity="0.0" inkscape:pageshadow="2" inkscape:window-width="1280" inkscape:window-height="1005" inkscape:window-x="-4" inkscape:document-units="px">
	</sodipodi:namedview>
<g>
	<g id="g3238" transform="translate(-220.30275,-284.36117)">
		<path id="path2485" sodipodi:nodetypes="ccsssccccccsc" class="st1" d="M233.82,766.3v-2.42c0,0-9.52-2.55-9.52,5.06
			c0,1.12,0.4,2.04,0.77,2.79c1.4,2.89,4.78,3.38,6.74,3.38c0.71,0,2.37,0,2.37,0v-7.34h-3.8v2.41h1.43v2.32
			c0,0-4.69,0.28-4.69-3.57C227.12,764.41,233.82,766.3,233.82,766.3z"/>
		<rect id="rect2487" x="245.19" y="763.48" class="st1" width="2.68" height="11.64"/>
		<path id="path3259" sodipodi:nodetypes="csssccsssc" class="st1" d="M239.71,766.61c-2.35,0-4.26,1.91-4.26,4.26
			s1.91,4.26,4.26,4.26s4.26-1.91,4.26-4.26S242.06,766.61,239.71,766.61z M239.68,769.1c0.99,0,1.8,0.81,1.8,1.8
			c0,0.99-0.81,1.8-1.8,1.8s-1.8-0.8-1.8-1.8C237.88,769.91,238.69,769.1,239.68,769.1z"/>
		<path id="path3266" sodipodi:nodetypes="cccsccccccsssc" class="st1" d="M255.34,763.53v3.77c-2.72-1.55-6.06,0.79-6.05,3.21
			c0,0.46-0.01,0.88,0.06,1.26c0.56,3.16,3.39,3.92,5.99,2.99v0.36h2.61v-11.59H255.34z M253.61,769.19c1.1,0,1.99,0.83,1.99,1.85
			c0,1.02-0.89,1.85-1.99,1.85c-1.1,0-1.99-0.83-1.99-1.85C251.62,770.02,252.51,769.19,253.61,769.19z"/>
		<path id="path3271" sodipodi:nodetypes="ccsssccsssc" class="st1" d="M265.66,765.99v-2.28c0,0-5.74-1.24-5.7,2.56
			c0,0.54,0.02,1.24,0.25,1.68c0.89,1.71,3.18,2.35,3.19,3.75c0.01,1.3-3.44,0.47-3.44,0.47v2.51c0,0,1.37,0.57,2.77,0.43
			c1.7-0.17,3.5-1.54,3.5-3.13c0-3.55-3.52-3.83-3.57-5.48C262.62,765.35,265.66,765.99,265.66,765.99z"/>
		<path id="path3281" sodipodi:nodetypes="ccccccsssccscccccc" class="st1" d="M270.27,764.89h-2.46v2.02h-0.66v2.19h0.66
			c0,0,0,3.07,0,4.34c0,0.34,0.12,0.81,0.32,1.09c0.17,0.24,0.52,0.58,1.24,0.58c0.67,0,1.86,0,1.86,0v-2.37
			c0,0-0.49,0.02-0.66-0.05c-0.31-0.13-0.31-0.39-0.31-0.39v-3.2h1.23v-2.19h-1.23V764.89z"/>
		<path id="path3283" class="st1" d="M276.99,766.75c-2.06,0-3.26,0.77-3.26,0.77v2.14c0,0,1.67-0.74,2.44-0.73
			c0.63,0.01,1.84,0.06,1.99,0.67c0.03,0.13-0.19,0.36-0.33,0.33c-2.69-0.59-4.66,0.65-4.74,2.4c-0.14,2.79,2.39,3.48,4.95,2.4
			l0.16,0.38h2.2c0,0,0-4.75,0-6.44C280.4,767.49,278.43,766.75,276.99,766.75z M276.75,771.67c0.7,0,1.27,0.36,1.27,0.8
			s-0.57,0.8-1.27,0.8c-0.7,0-1.27-0.36-1.27-0.8S276.05,771.67,276.75,771.67z"/>
		<path id="path3172" sodipodi:nodetypes="ccccscssccc" class="st1" d="M282.6,766.74v8.37h2.48v-3.75c0,0,0-0.74,0.73-1.23
			c0.41-0.27,1.6-0.33,1.6-0.33s0-2.48,0-2.6c0-0.06,0-0.46-0.71-0.46c-0.73,0-1.61,1.04-1.61,1.04v-1.04H282.6z"/>
		<path id="path3176" sodipodi:nodetypes="cccccccccccsscc" class="st1" d="M288.24,763.49v2.68h2.68v8.95h2.81v-8.95h4.39
			l2.06,8.95h3.82l2.54-11.63h-2.64c0,0-1.26,6.03-1.6,7.48c-0.02,0.09-0.26,0.09-0.29,0c-0.67-1.83-1.71-7.48-1.71-7.48H288.24z"/>
	</g>
	
		<radialGradient id="path3265_1_" cx="2636.1182" cy="2003.6477" r="10.6163" gradientTransform="matrix(-4.1187 -2.247 -1.55 2.8411 14017.4814 682.5173)" gradientUnits="userSpaceOnUse">
		<stop  offset="0" style="stop-color:#F7DF25"/>
		<stop  offset="1" style="stop-color:#DFA014"/>
	</radialGradient>
	
		<path id="path3265" sodipodi:type="star" sodipodi:cy="-1239.0181" sodipodi:cx="2455.8193" sodipodi:r1="105.22789" sodipodi:sides="9" sodipodi:arg1="0.59475926" sodipodi:arg2="0.93227132" sodipodi:r2="40.588844" inkscape:randomized="0" inkscape:flatsided="false" inkscape:rounded="0" class="st0" d="
		M60.39,469.97l-11.18-4.68l0.83,12.18l-5.56-10.78l-7.2,9.87l2.67-11.83l-11.86,2.93l9.65-7.34l-10.97-5.37l12.11,0.58l-4.95-11.17
		l8.91,8.23l3.39-11.73l1.54,12.03l10.14-6.81l-6.55,10.2l12.14,1.3l-11.58,3.6L60.39,469.97z"/>
</g>
</svg>
