<?xml version="1.0" encoding="utf-8"?>
<!-- Generator: Adobe Illustrator 15.0.0, SVG Export Plug-In . SVG Version: 6.00 Build 0)  -->
<!DOCTYPE svg PUBLIC "-//W3C//DTD SVG 1.1//EN" "http://www.w3.org/Graphics/SVG/1.1/DTD/svg11.dtd">
<svg version="1.1"
	 id="svg2" xmlns:dc="http://purl.org/dc/elements/1.1/" xmlns:cc="http://creativecommons.org/ns#" xmlns:rdf="http://www.w3.org/1999/02/22-rdf-syntax-ns#" xmlns:svg="http://www.w3.org/2000/svg" xmlns:sodipodi="http://sodipodi.sourceforge.net/DTD/sodipodi-0.dtd" xmlns:inkscape="http://www.inkscape.org/namespaces/inkscape"
	 xmlns="http://www.w3.org/2000/svg" xmlns:xlink="http://www.w3.org/1999/xlink" x="0px" y="0px" width="28.6px" height="28px"
	 viewBox="187.7 184 28.6 28" style="enable-background:new 187.7 184 28.6 28;" xml:space="preserve">
<style type="text/css">
<![CDATA[
	.st0{fill:#F58A83;}
	.st1{fill:#F68B1F;}
	.st2{fill:#FFFFFF;}
	.st3{fill:#9A4F24;}
	.st4{fill:#CAD12C;}
	.st5{fill-rule:evenodd;clip-rule:evenodd;fill:#004282;}
]]>
</style>
<g>
	<path id="path9665" class="st4" d="M212.8,188.9c-1.7-2-3.8-3.4-6.2-4.1c-1.1-0.4-2.3-0.6-3.6-0.7c-3.9-0.3-7.4,0.8-10.4,3.3
		c-2.4,2-3.9,4.4-4.6,7.2c-0.1,0.4-0.2,0.9-0.3,1.4c0,0.3-0.1,0.6-0.1,1c-0.1,1.1,0,2.2,0.1,3.2c0.1,0.4,0.2,0.9,0.3,1.3
		c0.5,2,1.5,3.9,3,5.6c2.6,2.9,5.8,4.5,9.8,4.8c2,0.2,3.9-0.1,5.7-0.7c1.7-0.6,3.2-1.5,4.7-2.7c3-2.5,4.6-5.7,4.9-9.6
		C216.5,195.2,215.4,191.8,212.8,188.9 M208.4,196c1.3,0.1,2.5,0.5,3.4,1.2c1.3,0.6,2.7,0.6,3.9,0.2h0.1l0.1,0.1l0,0.1l0,0.1
		c-1.2,1-2,2.1-2.4,3.2c-0.2,1.1-0.8,1.9-1.8,2.6c-0.6,0.4-1.2,0.7-1.9,0.8c-0.4,0.4-0.5,0.8-0.5,1.2c0,0.4,0.3,0.8,0.7,1.1
		c0.3,0.2,0.4,0.4,0.5,0.6c0.1,0.2,0,0.4-0.1,0.5c-0.3,0.2-0.9,0.3-2,0.4c-0.6,0.1-1.1,0.2-1.7,0.3c-0.9,0.1-1.7,0.1-2.5,0.1
		c-1.4-0.1-2.3-0.3-2.9-0.8l0,0c-0.3-0.3-0.4-0.6-0.5-0.9c-0.1-0.3,0-0.5,0.1-0.8c0.1-0.2,0.3-0.4,0.5-0.5c0.2-0.1,0.3-0.1,0.5,0
		c0.2,0.1,0.3,0.2,0.5,0.5c0.2,0.3,0.4,0.6,0.6,0.7c0.3,0.2,0.7,0.3,1.3,0.3l2.7-0.5c0-0.5-0.1-1-0.3-1.5c-0.1-0.3-0.3-0.6-0.6-0.9
		c-0.8-0.3-1.5-0.6-2.1-1.2c-0.7-0.7-1.2-1.4-1.3-2.2l0-0.2v0c-0.7-4.2-1.8-6.5-3.5-6.9c-0.2,0-0.5,0-0.7,0h0
		c-1-0.1-1.8-0.4-2.4-0.8c-0.1,0-0.2-0.1-0.3-0.1c-1.1,0.6-2,1-2.9,1c-1,0.1-1.7-0.2-2.1-0.8c-0.2-0.3-0.3-0.6-0.3-0.9v0
		c0-0.3,0-0.5,0.2-0.7c0.1-0.2,0.3-0.3,0.5-0.4c0.2,0,0.4,0.1,0.6,0.3c0.3,0.4,0.7,0.6,1.3,0.5c0.6-0.1,1.4-0.4,2.4-1v-0.1
		c-0.1-1.3,0.2-2.2,0.9-2.8c0.8-0.6,1.7-0.9,2.7-0.8c1,0.1,1.9,0.5,2.6,1.2c0.7,0.7,1,1.5,0.9,2.4c0,0.6-0.2,1.1-0.5,1.5
		c0.4,2.3,1.9,3.5,4.7,3.8c0.3,0,0.6,0,0.9,0C207.8,195.9,208.1,195.9,208.4,196"/>
</g>
<path id="path9667" d="M207.6,196.2L207.6,196.2c-0.3,0-0.6,0-0.9,0c-2.9-0.3-4.6-1.6-4.9-4.1l0-0.1v0c0.3-0.4,0.4-0.9,0.5-1.4
	c0.1-0.8-0.2-1.6-0.9-2.2c-0.6-0.7-1.4-1-2.4-1.1c-1-0.1-1.8,0.2-2.5,0.8c-0.7,0.6-1,1.5-0.9,2.6l0,0.1v0l0,0l0,0.1
	c-1,0.7-1.9,1-2.6,1.1c-0.7,0.1-1.2-0.1-1.5-0.6c-0.1-0.1-0.2-0.2-0.3-0.2c-0.1,0-0.2,0.1-0.3,0.2c-0.1,0.2-0.1,0.4-0.1,0.6
	c0,0.3,0.1,0.5,0.3,0.8c0.4,0.5,1,0.8,1.9,0.7c0.8-0.1,1.8-0.4,2.9-1.1l0,0h0l0.1,0c0.1,0.1,0.1,0.1,0.3,0.2l0,0
	c0.5,0.3,1.3,0.6,2.3,0.7c0.2,0,0.4,0,0.6,0l0.1,0h0c1.4,0.2,2.4,1.7,3.1,4.4h-0.3c-0.7-2.5-1.7-3.8-2.9-4.1c-0.2,0-0.5,0-0.7,0h0
	c-1-0.1-1.8-0.4-2.4-0.8c-0.1,0-0.2-0.1-0.3-0.1c-1.1,0.6-2,1-2.9,1c-1,0.1-1.7-0.2-2.1-0.8c-0.2-0.3-0.3-0.6-0.3-0.9v0
	c0-0.3,0-0.5,0.2-0.7c0.1-0.2,0.3-0.3,0.5-0.4c0.2,0,0.4,0.1,0.6,0.3c0.3,0.4,0.7,0.6,1.3,0.5c0.6-0.1,1.4-0.4,2.4-1v-0.1
	c-0.1-1.3,0.2-2.2,0.9-2.8c0.8-0.6,1.7-0.9,2.7-0.8c1,0.1,1.9,0.5,2.6,1.2c0.7,0.7,1,1.5,0.9,2.4c0,0.6-0.2,1.1-0.5,1.5
	c0.4,2.3,1.9,3.5,4.7,3.8c0.3,0,0.6,0,0.9,0c0.3,0,0.5,0,0.8,0c1.3,0.1,2.5,0.5,3.4,1.2c1.3,0.6,2.7,0.6,3.9,0.2h0.1l0.1,0.1l0,0.1
	l0,0.1l-0.1,0.1h-3.2c-0.3-0.1-0.6-0.2-0.8-0.3l0,0c-0.9-0.7-2-1.1-3.3-1.2C208.1,196.2,207.8,196.2,207.6,196.2 M215.8,197.7
	c-1.1,1-1.9,2-2.3,3.1c-0.2,1.1-0.8,1.9-1.8,2.6c-0.6,0.4-1.2,0.7-1.9,0.8c-0.4,0.4-0.5,0.8-0.5,1.2c0,0.4,0.3,0.8,0.7,1.1
	c0.3,0.2,0.4,0.4,0.5,0.6c0.1,0.2,0,0.4-0.1,0.5c-0.3,0.2-0.9,0.3-2,0.4c-0.6,0.1-1.1,0.2-1.7,0.3c-0.9,0.1-1.7,0.1-2.5,0.1
	c-1.4-0.1-2.3-0.3-2.9-0.8l0,0c-0.3-0.3-0.4-0.6-0.5-0.9c-0.1-0.3,0-0.5,0.1-0.8c0.1-0.2,0.3-0.4,0.5-0.5c0.2-0.1,0.3-0.1,0.5,0
	c0.2,0.1,0.3,0.2,0.5,0.5c0.2,0.3,0.4,0.6,0.6,0.7c0.3,0.2,0.7,0.3,1.3,0.3l2.7-0.5c0-0.5-0.1-1-0.3-1.5c-0.1-0.3-0.3-0.6-0.6-0.9
	c-0.8-0.3-1.5-0.6-2.1-1.2c-0.7-0.6-1.2-1.4-1.3-2.2l0-0.2v0c-0.2-1-0.4-2-0.6-2.8h0.3c0.2,0.8,0.4,1.7,0.6,2.7v0l0.1,0.2
	c0.1,0.7,0.6,1.4,1.2,2c0.6,0.5,1.2,0.9,2,1.1l0,0c0.1,0,0.3,0.1,0.4,0.1c0.3,0.1,0.5,0.1,0.8,0.1c0.1,0,0.2,0,0.3,0
	c0.7,0,1.3,0,1.9-0.1h0c0.7-0.2,1.3-0.4,1.9-0.8c1-0.7,1.5-1.5,1.7-2.5l0,0c0.4-1,1.1-2,2.1-3c-0.9,0.2-1.8,0.2-2.7-0.1H215.8
	 M201.5,205.7c-0.2,0.1-0.3,0.2-0.4,0.4c-0.1,0.2-0.1,0.4-0.1,0.6c0,0.2,0.2,0.5,0.4,0.8c0.6,0.4,1.5,0.7,2.8,0.8
	c0.8,0,1.6,0,2.5-0.1c0.5-0.1,1.1-0.2,1.6-0.3l0,0c1,0,1.6-0.1,1.8-0.3l0.1-0.2c-0.1-0.1-0.2-0.3-0.4-0.5c-0.5-0.4-0.8-0.8-0.8-1.3
	c0-0.4,0.1-0.8,0.4-1.2c-0.5,0.1-1,0.1-1.6,0.1h0c0.6,0.8,0.8,1.5,0.7,1.9l0,0.1l-0.1,0l-4,0.7h0c-0.6,0-1.1-0.1-1.4-0.3
	c-0.3-0.2-0.5-0.4-0.7-0.8c-0.1-0.2-0.2-0.3-0.4-0.4C201.7,205.6,201.6,205.6,201.5,205.7 M208.2,206.2c0.1-0.5-0.2-1.1-0.8-1.8
	c-0.3,0-0.5-0.1-0.7-0.1l-0.1,0l0.1,0.2c0.4,0.6,0.6,1.3,0.6,2L208.2,206.2"/>
<path id="path9669" class="st2" d="M211.7,197.4c-0.9-0.7-2-1.1-3.3-1.2c-0.3,0-0.5,0-0.8,0h0c-0.3,0-0.6,0-0.9,0
	c-2.9-0.3-4.6-1.6-4.9-4.1l0-0.1v0c0.3-0.4,0.4-0.9,0.5-1.4c0.1-0.8-0.2-1.6-0.9-2.2c-0.6-0.7-1.4-1-2.4-1.1c-1-0.1-1.8,0.2-2.5,0.8
	c-0.7,0.6-1,1.5-0.9,2.6l0,0.1v0c0.2,0.6,0.3,1.1,0.2,1.7h0l0.1,0c0.1,0.1,0.1,0.1,0.3,0.2l0,0c0.5,0.3,1.3,0.6,2.3,0.7
	c0.2,0,0.4,0,0.6,0l0.1,0h0c1.8,0.3,3,2.7,3.7,7.1v0l0,0.2c0.1,0.7,0.6,1.4,1.2,2c0.6,0.5,1.2,0.9,2,1.1l0,0c0.1,0,0.3,0.1,0.4,0.1
	c0.3,0.1,0.5,0.1,0.8,0.1c0.1,0,0.2,0,0.3,0c0.7,0,1.3,0,1.9-0.1h0c0.7-0.2,1.3-0.4,1.9-0.8c1-0.7,1.5-1.5,1.7-2.5l0,0
	c0.4-1,1.1-2,2.1-3C214.1,198.1,212.9,198,211.7,197.4L211.7,197.4 M204.7,198.6l0-0.1l0.1-0.1l0.1,0l0.1,0.1c0.3,1,0.9,1.7,1.7,2.2
	c0.6,0.3,1.4,0.5,2.3,0.5c0.6,0,0.9-0.1,1.1-0.4c0.2-0.3,0.2-0.8,0-1.4c-0.6-1.3-1.7-2-3.3-2.1l-0.3,0l-0.1,0l0-0.1l0-0.1l0.1,0
	c0.1,0,0.2,0,0.3,0c1.7,0.1,2.9,0.9,3.6,2.3l0,0c0.2,0.7,0.2,1.3,0,1.6c-0.2,0.4-0.7,0.6-1.3,0.6h0c-0.9,0-1.6-0.2-2.2-0.5
	C205.6,200.5,205,199.7,204.7,198.6 M196.9,188.4c0.2,0,0.3,0.2,0.3,0.4c0,0.2,0,0.4-0.1,0.6c-0.1,0.2-0.2,0.4-0.4,0.5
	c-0.2,0.1-0.4,0.2-0.5,0.1c-0.2,0-0.3-0.2-0.3-0.4c0-0.2,0-0.4,0.1-0.6c0.1-0.2,0.2-0.4,0.4-0.5
	C196.5,188.4,196.7,188.3,196.9,188.4"/>
<path id="path9671" d="M204.7,198.5l0,0.1c0.3,1.1,1,1.9,2,2.4c0.6,0.3,1.4,0.4,2.2,0.5h0c0.7,0,1.1-0.2,1.3-0.6
	c0.2-0.4,0.2-0.9,0-1.6l0,0c-0.6-1.4-1.8-2.2-3.6-2.3c-0.1,0-0.2,0-0.3,0l-0.1,0l0,0.1l0,0.1l0.1,0l0.3,0c1.6,0.1,2.7,0.8,3.3,2.1
	c0.2,0.6,0.2,1.1,0,1.4c-0.2,0.3-0.6,0.4-1.1,0.4c-0.9,0-1.6-0.2-2.3-0.5c-0.9-0.4-1.5-1.2-1.7-2.2l-0.1-0.1L204.7,198.5
	L204.7,198.5"/>
<path id="path9673" d="M197.2,188.8c0-0.2-0.2-0.4-0.3-0.4c-0.2-0.1-0.3,0-0.5,0.1c-0.2,0.1-0.3,0.3-0.4,0.5
	c-0.1,0.2-0.1,0.4-0.1,0.6c0,0.2,0.2,0.4,0.3,0.4c0.2,0.1,0.3,0,0.5-0.1c0.2-0.1,0.3-0.3,0.4-0.5C197.2,189.2,197.2,189,197.2,188.8
	"/>
<path id="path9677" class="st1" d="M195.6,190.8L195.6,190.8c-1.1,0.7-1.9,1.1-2.6,1.2c-0.7,0.1-1.2-0.1-1.5-0.6
	c-0.1-0.1-0.2-0.2-0.3-0.2c-0.1,0-0.2,0.1-0.3,0.2c-0.1,0.2-0.1,0.4-0.1,0.6c0,0.3,0.1,0.5,0.3,0.8c0.4,0.5,1,0.8,1.9,0.7
	c0.8-0.1,1.8-0.4,2.9-1.1l0,0C195.9,191.9,195.8,191.4,195.6,190.8L195.6,190.8"/>
<path id="path9679" class="st3" d="M206.5,204.2l0.1,0.2c0.4,0.6,0.6,1.3,0.6,2l0.9-0.2c0.1-0.5-0.2-1.1-0.8-1.8
	c-0.3,0-0.5-0.1-0.7-0.1L206.5,204.2"/>
<path id="path9681" class="st1" d="M207.8,204.4L207.8,204.4c0.6,0.8,0.8,1.5,0.6,1.9l0,0.1l-0.1,0l-4,0.7h0c-0.6,0-1.1-0.1-1.4-0.3
	c-0.3-0.2-0.5-0.4-0.7-0.8c-0.1-0.2-0.2-0.3-0.4-0.4c-0.1-0.1-0.2-0.1-0.3,0c-0.2,0.1-0.3,0.2-0.4,0.4c-0.1,0.2-0.1,0.4-0.1,0.6
	c0,0.2,0.2,0.5,0.4,0.8c0.6,0.4,1.5,0.7,2.8,0.8c0.8,0,1.6,0,2.5-0.1c0.5-0.1,1.1-0.2,1.6-0.3l0,0c1,0,1.6-0.1,1.8-0.3l0.1-0.2
	c-0.1-0.1-0.2-0.3-0.4-0.5c-0.5-0.4-0.8-0.8-0.8-1.3c0-0.4,0.1-0.8,0.4-1.2C208.8,204.5,208.3,204.5,207.8,204.4"/>
<path id="path9683" class="st0" d="M201.6,198.6l-0.1,0.1c-0.3,0.5-0.6,1-0.6,1.5c-0.3-0.2-0.4-0.5-0.4-0.8l-0.1-0.1l-0.1-0.1
	l-0.2,0l-0.1,0.1c0,0.3,0,0.5,0.1,0.7l-0.1,0l-0.2,0c-0.3,0.2-0.5,0.3-0.7,0.3l0,0l0-0.1v0l0.1-0.9c0.3-0.1,0.9-0.3,1.7-0.4l0.1-0.1
	l0-0.2l-0.1-0.1l-0.2,0c-0.7,0.1-1.2,0.3-1.5,0.4l0-0.4l0-0.2l-0.1-0.1l-0.2,0l-0.1,0.1L199,199c-0.4,0.2-0.6,0.4-0.7,0.6l0,0.2
	l0.1,0.1l0.2,0l0.1-0.1c0.1-0.1,0.2-0.2,0.3-0.3l-0.1,0.7v0c0,0.2,0,0.3,0.1,0.4c0.1,0.1,0.2,0.2,0.4,0.2c0.2,0,0.5-0.1,0.9-0.4
	l0.1-0.1v0c0.1,0.2,0.4,0.4,0.7,0.5l0.1,0l0.1-0.1l0-0.1c0-0.5,0.2-1,0.6-1.6l0-0.2l-0.1-0.1L201.6,198.6"/>
<path id="path50394" d="M207.6,196.2L207.6,196.2c-0.3,0-0.6,0-0.9,0c-2.9-0.3-4.6-1.6-4.9-4.1l0-0.1v0c0.3-0.4,0.4-0.9,0.5-1.4
	c0.1-0.8-0.2-1.6-0.9-2.2c-0.6-0.7-1.4-1-2.4-1.1c-1-0.1-1.8,0.2-2.5,0.8c-0.7,0.6-1,1.5-0.9,2.6l0,0.1v0l0,0l0,0.1
	c-1,0.6-1.9,1-2.6,1.1c-0.7,0.1-1.2-0.1-1.5-0.6c-0.1-0.1-0.2-0.2-0.3-0.2c-0.1,0-0.2,0.1-0.3,0.2c-0.1,0.2-0.1,0.4-0.1,0.6
	c0,0.3,0.1,0.5,0.3,0.8c0.4,0.5,1,0.8,1.9,0.7c0.8-0.1,1.8-0.4,2.9-1.1l0,0h0l0.1,0c0.1,0.1,0.1,0.1,0.3,0.2l0,0
	c0.5,0.3,1.3,0.6,2.3,0.7c0.2,0,0.4,0,0.6,0l0.1,0h0c1.4,0.2,2.4,1.7,3.1,4.4h-0.3c-0.7-2.5-1.7-3.8-2.9-4.1c-0.3,0-0.5,0-0.7,0h0
	c-1-0.1-1.8-0.4-2.4-0.8c-0.1,0-0.2-0.1-0.3-0.1c-1.1,0.6-2,1-2.9,1c-1,0.1-1.7-0.2-2.1-0.8c-0.2-0.3-0.3-0.6-0.3-0.9v0
	c0-0.3,0-0.5,0.2-0.7c0.1-0.2,0.3-0.3,0.5-0.4c0.2,0,0.4,0.1,0.6,0.3c0.3,0.4,0.7,0.6,1.3,0.5c0.6-0.1,1.4-0.4,2.4-1v-0.1
	c-0.1-1.3,0.2-2.2,0.9-2.8c0.8-0.6,1.7-0.9,2.7-0.8c1,0.1,1.9,0.5,2.6,1.2c0.7,0.7,1,1.5,0.9,2.4c0,0.6-0.2,1.1-0.5,1.5
	c0.4,2.3,1.9,3.5,4.7,3.8c0.3,0,0.6,0,0.9,0c0.3,0,0.5,0,0.8,0c1.3,0.1,2.5,0.5,3.4,1.2c1.3,0.6,2.7,0.6,3.9,0.2h0.1l0.1,0.1l0,0.1
	l0,0.1l-0.1,0.1h-3.2c-0.3-0.1-0.6-0.2-0.8-0.3l0,0c-0.9-0.7-2-1.1-3.3-1.2C208.1,196.2,207.8,196.2,207.6,196.2 M215.8,197.7
	c-1.1,1-1.9,2-2.3,3.1c-0.2,1.1-0.8,1.9-1.8,2.6c-0.6,0.4-1.2,0.7-1.9,0.8c-0.4,0.4-0.5,0.8-0.5,1.2c0,0.4,0.3,0.8,0.7,1.1
	c0.3,0.2,0.4,0.4,0.5,0.6c0.1,0.2,0,0.4-0.1,0.5c-0.3,0.2-0.9,0.3-2,0.4c-0.6,0.1-1.1,0.2-1.7,0.3c-0.9,0.1-1.7,0.1-2.5,0.1
	c-1.4-0.1-2.3-0.3-2.9-0.8l0,0c-0.3-0.3-0.4-0.6-0.5-0.9c-0.1-0.3,0-0.5,0.1-0.8c0.1-0.2,0.3-0.4,0.5-0.5c0.2-0.1,0.3-0.1,0.5,0
	c0.2,0.1,0.3,0.2,0.5,0.5c0.2,0.3,0.4,0.6,0.6,0.7c0.3,0.2,0.7,0.3,1.3,0.3l2.7-0.5c0-0.5-0.1-1-0.3-1.5c-0.1-0.3-0.3-0.6-0.6-0.9
	c-0.8-0.3-1.5-0.7-2.1-1.2c-0.7-0.7-1.2-1.4-1.3-2.2l0-0.2v0c-0.2-1-0.4-2-0.6-2.8h0.3c0.2,0.8,0.4,1.7,0.6,2.7v0l0,0.2
	c0.1,0.7,0.6,1.4,1.2,2c0.6,0.5,1.2,0.9,2,1.1l0,0c0.1,0,0.3,0.1,0.4,0.1c0.3,0.1,0.5,0.1,0.8,0.1c0.1,0,0.2,0,0.3,0
	c0.7,0,1.3,0,1.9-0.1h0c0.7-0.2,1.3-0.4,1.9-0.8c1-0.7,1.5-1.5,1.7-2.5l0,0c0.4-1,1.1-2,2.1-3c-0.9,0.2-1.8,0.2-2.7-0.1H215.8
	L215.8,197.7z M201.5,205.7c-0.2,0.1-0.3,0.2-0.4,0.4c-0.1,0.2-0.1,0.4-0.1,0.6c0,0.2,0.2,0.5,0.4,0.8c0.6,0.4,1.5,0.7,2.8,0.8
	c0.8,0,1.6,0,2.5-0.1c0.5-0.1,1.1-0.2,1.6-0.3l0,0c1,0,1.6-0.1,1.8-0.3l0.1-0.2c-0.1-0.1-0.2-0.3-0.4-0.5c-0.5-0.4-0.8-0.8-0.8-1.3
	c0-0.4,0.1-0.8,0.4-1.2c-0.5,0.1-1,0.1-1.6,0.1h0c0.6,0.8,0.8,1.5,0.7,1.9l0,0.1l-0.1,0l-4,0.7h0c-0.6,0-1.1-0.1-1.4-0.3
	c-0.3-0.2-0.5-0.4-0.7-0.8c-0.1-0.2-0.2-0.3-0.4-0.4C201.7,205.6,201.6,205.6,201.5,205.7 M208.2,206.2c0.1-0.5-0.2-1.1-0.8-1.8
	c-0.3,0-0.5-0.1-0.7-0.1l-0.1,0l0.1,0.2c0.4,0.6,0.6,1.3,0.6,2L208.2,206.2z"/>
<path id="path50398" d="M204.7,198.5l0,0.1c0.3,1.1,1,1.9,2,2.4c0.6,0.3,1.4,0.4,2.2,0.5h0c0.7,0,1.1-0.2,1.3-0.6
	c0.2-0.4,0.2-0.9,0-1.6l0,0c-0.6-1.4-1.8-2.2-3.6-2.3c-0.1,0-0.2,0-0.3,0l-0.1,0l0,0.1l0,0.1l0.1,0l0.3,0c1.6,0.1,2.7,0.8,3.3,2.1
	c0.2,0.6,0.2,1.1,0,1.4c-0.2,0.3-0.6,0.4-1.1,0.4c-0.9,0-1.6-0.2-2.3-0.5c-0.9-0.4-1.5-1.2-1.7-2.2l-0.1-0.1L204.7,198.5
	L204.7,198.5"/>
<path class="st5" d="M189.8,198c0.2,0,0.5,0,0.7,0c0,1,0,1.9,0,2.9c-0.2-0.1-0.8,0.2-0.7-0.2c-1.7,1.4-1.9-2.9-0.1-1.8
	C189.8,198.6,189.8,198.3,189.8,198z M189.5,200.4c0.4,0,0.4-0.6,0.2-0.9C189,199.2,189.1,200.3,189.5,200.4z"/>
<path class="st5" d="M195.8,198c0.3,0,0.5,0,0.8,0c0,0.4,0,0.9,0,1.3c0.2,0,0.3-0.4,0.5-0.5c0.3,0,0.6,0,0.9,0
	c-0.2,0.3-0.4,0.5-0.6,0.7c0.2,0.5,0.5,0.9,0.7,1.4c-0.3,0-0.6,0-0.9,0c-0.1-0.3-0.2-0.5-0.3-0.8c-0.3,0.1-0.3,0.4-0.3,0.8
	c-0.3,0-0.5,0-0.8,0C195.8,200,195.8,199,195.8,198z"/>
<path class="st5" d="M195.5,199.5c-0.2,0-0.4,0.1-0.6,0.1c-0.3-0.1-0.2-0.3-0.5-0.3c-0.8,0.1-0.1,1.8,0.4,0.7c0.2,0,0.5,0,0.7,0.1
	c-0.4,1.5-2.8,0.8-2.2-0.9C193.6,198.6,195.3,198.4,195.5,199.5z"/>
<path class="st5" d="M191,198.8c0.2,0,0.5,0,0.7,0c0.1,0.5-0.2,1.3,0.2,1.5c0.5-0.1,0.2-1,0.3-1.5c0.2,0,0.5,0,0.7,0
	c0,0.7,0,1.4,0,2.1c-0.3-0.1-0.8,0.2-0.7-0.2c-0.3,0.3-0.8,0.4-1.1,0.2C190.7,200.5,191.1,199.5,191,198.8z"/>
</svg>
