<?xml version="1.0" encoding="utf-8"?>
<!-- Generator: Adobe Illustrator 15.0.0, SVG Export Plug-In . SVG Version: 6.00 Build 0)  -->
<!DOCTYPE svg PUBLIC "-//W3C//DTD SVG 1.1//EN" "http://www.w3.org/Graphics/SVG/1.1/DTD/svg11.dtd">
<svg version="1.1"
	 id="svg3887" inkscape:version="0.48.2 r9819" sodipodi:docname="AJAX1.svg" xmlns:dc="http://purl.org/dc/elements/1.1/" xmlns:cc="http://creativecommons.org/ns#" xmlns:rdf="http://www.w3.org/1999/02/22-rdf-syntax-ns#" xmlns:svg="http://www.w3.org/2000/svg" xmlns:sodipodi="http://sodipodi.sourceforge.net/DTD/sodipodi-0.dtd" xmlns:inkscape="http://www.inkscape.org/namespaces/inkscape"
	 xmlns="http://www.w3.org/2000/svg" xmlns:xlink="http://www.w3.org/1999/xlink" x="0px" y="0px" width="29.6px" height="28px"
	 viewBox="144 136 29.6 28" style="enable-background:new 144 136 29.6 28;" xml:space="preserve">
<style type="text/css">
<![CDATA[
	.st0{fill:#FFFFFF;}
	.st1{fill:#6F2895;}
]]>
</style>
<g>
	<g id="g3581" transform="translate(140.29739,41.490707)">
		<path id="path3583" inkscape:connector-curvature="0" class="st1" d="M18.4,94.5C12.6,94.5,8,99.2,8,105c0,5.8,4.7,10.4,10.4,10.4
			c5.8,0,10.4-4.7,10.4-10.4C28.9,99.2,24.2,94.5,18.4,94.5"/>
	</g>
	<g id="g3585" transform="translate(134.0706,28.213303)">
		<path id="path3587" inkscape:connector-curvature="0" class="st1" d="M13.2,132.1v1.1h1.4c0,0,0.6,0,0.6-0.6
			c0-0.5-0.5-0.5-0.5-0.5H13.2z M17,131.2c1.4,0,1.3,1.5,1.3,1.5c0,1.5-1.6,1.6-1.6,1.6l2,1.5h-2.9l-1.6-1.7h-0.9l0,1.7H9.9v-4.6
			C9.9,131.2,15.6,131.2,17,131.2C17,131.2,15.6,131.2,17,131.2"/>
	</g>
	<g id="g3589" transform="translate(138.13,28.712494)">
		<path id="path3591" inkscape:connector-curvature="0" class="st1" d="M16.6,130.7h8.1v0.9h-2.4v3.7H19v-3.7h-2.4L16.6,130.7z"/>
	</g>
	<g id="g3593" transform="translate(144.3342,26.209701)">
		<path id="path3595" inkscape:connector-curvature="0" class="st1" d="M21.8,137.8h7.5v-0.9h-4.1v-3.7h-3.3V137.8z"/>
	</g>
	<path id="path3597" inkscape:connector-curvature="0" class="st0" d="M157.7,150.8h-3.3v-8.7h3.3V150.8z"/>
	<path id="path3599" inkscape:connector-curvature="0" class="st0" d="M163.1,150.8h-3.3v-8.7h3.3V150.8z"/>
</g>
</svg>
