<?xml version="1.0" encoding="utf-8"?>
<!-- Generator: Adobe Illustrator 15.0.0, SVG Export Plug-In . SVG Version: 6.00 Build 0)  -->
<!DOCTYPE svg PUBLIC "-//W3C//DTD SVG 1.1//EN" "http://www.w3.org/Graphics/SVG/1.1/DTD/svg11.dtd">
<svg version="1.1"
	 id="svg3596" inkscape:version="0.48.2 r9819" sodipodi:docname="CT1 HD.svg" xmlns:dc="http://purl.org/dc/elements/1.1/" xmlns:cc="http://creativecommons.org/ns#" xmlns:rdf="http://www.w3.org/1999/02/22-rdf-syntax-ns#" xmlns:svg="http://www.w3.org/2000/svg" xmlns:sodipodi="http://sodipodi.sourceforge.net/DTD/sodipodi-0.dtd" xmlns:inkscape="http://www.inkscape.org/namespaces/inkscape"
	 xmlns="http://www.w3.org/2000/svg" xmlns:xlink="http://www.w3.org/1999/xlink" x="0px" y="0px" width="110px" height="19.5px"
	 viewBox="445 79.3 110 19.5" style="enable-background:new 445 79.3 110 19.5;" xml:space="preserve">
<style type="text/css">
<![CDATA[
	.st0{fill:#00D700;}
]]>
</style>
<sodipodi:namedview  id="base" inkscape:current-layer="layer1" inkscape:window-y="-8" inkscape:window-x="-8" fit-margin-bottom="0.5" fit-margin-right="0.5" inkscape:window-height="1028" inkscape:window-width="1920" inkscape:pageshadow="2" inkscape:pageopacity="0.0" inkscape:window-maximized="1" inkscape:cy="1.4581715" borderopacity="1.0" inkscape:cx="832.83995" bordercolor="#666666" showgrid="false" pagecolor="#ffffff" inkscape:zoom="0.98994949" fit-margin-left="0.5" fit-margin-top="0.5" inkscape:document-units="px">
	</sodipodi:namedview>
<g id="layer1" transform="translate(-234.21917,-153.14633)" inkscape:label="Layer 1" inkscape:groupmode="layer">
	<g id="g3726" transform="matrix(6.9448645,0,0,-6.9448645,-2703.5273,3651.7218)">
		<g id="g3093" transform="translate(549.8372,494.1534)">
			<path id="path3095" inkscape:connector-curvature="0" class="st0" d="M-48.8-2.9v-0.6h0.3v1.3h-0.3v-0.5h-0.5v0.5h-0.3v-1.3h0.3
				v0.6H-48.8z M-48.1-3.4h0.5c0.5,0,0.8,0.2,0.8,0.7c0,0.4-0.3,0.7-0.8,0.7h-0.5V-3.4z M-47.8-2.4h0.2c0.2,0,0.4-0.2,0.4-0.4
				s-0.1-0.4-0.4-0.4h-0.2V-2.4z"/>
		</g>
		<g id="g3101" transform="translate(474.9367,488.2101)">
			<path id="path3103" inkscape:connector-curvature="0" class="st0" d="M17.9,2.4c0-0.1,0-0.1-0.2-0.1c-0.2,0-0.3,0-0.6,0.1l0-0.3
				C17.2,2,17.5,2,17.7,2c0.4,0,0.7,0.1,0.7,0.5c0,0.6-0.8,0.5-0.8,0.6c0,0.1,0,0.1,0.2,0.1c0.1,0,0.3,0,0.5-0.1l0,0.3
				c-0.2,0.1-0.4,0.1-0.6,0.1c-0.4,0-0.7-0.1-0.7-0.5C17,2.4,17.9,2.6,17.9,2.4 M18.6,1.5h0.5v0.6C19.2,2,19.3,2,19.5,2
				c0.3,0,0.7,0.3,0.7,0.8s-0.3,0.8-0.7,0.8c-0.1,0-0.3-0.1-0.4-0.2l0,0.1h-0.5V1.5L18.6,1.5z M19.1,3.1c0.1,0,0.2,0.1,0.2,0.1
				c0.2,0,0.3-0.1,0.3-0.4c0-0.3-0.2-0.4-0.3-0.4c-0.1,0-0.2,0-0.2,0.1V3.1z M20.4,2.7c0-0.5,0.3-0.8,0.8-0.8C21.7,2,22,2.3,22,2.7
				c0,0.5-0.3,0.8-0.8,0.8C20.7,3.5,20.4,3.2,20.4,2.7 M20.9,2.7c0,0.2,0.1,0.4,0.3,0.4c0.2,0,0.3-0.2,0.3-0.4
				c0-0.2-0.1-0.4-0.3-0.4C21,2.4,20.9,2.5,20.9,2.7 M23.4,3.5c-0.3,0-0.5-0.1-0.6-0.3l0,0.2h-0.5V2h0.5v0.8
				c0.1,0.2,0.3,0.3,0.6,0.2L23.4,3.5L23.4,3.5z M24.2,3.5v0.4h-0.4l-0.1-0.4l-0.2,0V3.1h0.2V2.5c0-0.5,0.5-0.6,0.9-0.4l0,0.4
				c-0.2,0-0.3,0-0.3,0.1v0.6h0.3v0.4H24.2L24.2,3.5z"/>
		</g>
		<g id="g3105" transform="translate(432.5919,503.3594)">
			<path id="path3107" inkscape:connector-curvature="0" class="st0" d="M55.5-11.1c0.3,0,0.6,0,0.8,0v-0.4c-0.1,0-0.2,0-0.4,0
				c-0.4,0-0.5-0.1-0.6-0.5c0-0.2,0-0.4,0-0.5c0-0.1,0-0.3,0-0.5c0.1-0.4,0.1-0.5,0.6-0.5c0.1,0,0.2,0,0.4,0v-0.4
				c-0.2,0-0.5,0-0.8,0c-0.8,0.1-0.9,0.2-1,0.7c0,0.2,0,0.5,0,0.6c0,0.2,0,0.4,0,0.6C54.6-11.2,54.8-11.1,55.5-11.1"/>
		</g>
		<g id="g3109" transform="translate(460.7936,490.9371)">
			<path id="path3111" inkscape:connector-curvature="0" class="st0" d="M30.4,0c0-0.2,0-0.4,0-0.6c-0.1-0.5-0.2-0.7-1-0.7
				c-0.3,0-0.6,0-0.8,0V-1c0.1,0,0.2,0,0.4,0c0.4,0,0.5,0.1,0.6,0.5c0,0.2,0,0.4,0,0.5c0,0.1,0,0.3,0,0.5C29.4,0.9,29.4,1,28.9,1
				c-0.1,0-0.2,0-0.4,0v0.4c0.2,0,0.5,0,0.8,0c0.8-0.1,0.9-0.2,1-0.7C30.4,0.4,30.4,0.2,30.4,0"/>
		</g>
	</g>
</g>
</svg>
