<?xml version="1.0" encoding="utf-8"?>
<!-- Generator: Adobe Illustrator 15.0.0, SVG Export Plug-In . SVG Version: 6.00 Build 0)  -->
<!DOCTYPE svg PUBLIC "-//W3C//DTD SVG 1.1//EN" "http://www.w3.org/Graphics/SVG/1.1/DTD/svg11.dtd">
<svg version="1.1"
	 id="svg3596" inkscape:version="0.48.2 r9819" sodipodi:docname="CT1 HD.svg" xmlns:sodipodi="http://sodipodi.sourceforge.net/DTD/sodipodi-0.dtd" xmlns:svg="http://www.w3.org/2000/svg" xmlns:rdf="http://www.w3.org/1999/02/22-rdf-syntax-ns#" xmlns:inkscape="http://www.inkscape.org/namespaces/inkscape" xmlns:dc="http://purl.org/dc/elements/1.1/" xmlns:cc="http://creativecommons.org/ns#"
	 xmlns="http://www.w3.org/2000/svg" xmlns:xlink="http://www.w3.org/1999/xlink" x="0px" y="0px" width="110px" height="19.51px"
	 viewBox="445 79.33 110 19.51" style="enable-background:new 445 79.33 110 19.51;" xml:space="preserve">
<style type="text/css">
<![CDATA[
	.st0{fill:#00D700;}
]]>
</style>
<sodipodi:namedview  id="base" inkscape:current-layer="layer1" inkscape:window-y="-8" inkscape:window-x="-8" fit-margin-right="0.5" inkscape:pageopacity="0.0" inkscape:pageshadow="2" inkscape:window-width="1920" inkscape:window-height="1028" inkscape:document-units="px" fit-margin-bottom="0.5" borderopacity="1.0" inkscape:cx="832.83995" fit-margin-top="0.5" bordercolor="#666666" fit-margin-left="0.5" pagecolor="#ffffff" inkscape:cy="1.4581715" showgrid="false" inkscape:zoom="0.98994949" inkscape:window-maximized="1">
	</sodipodi:namedview>
<g id="layer1" transform="translate(-234.21917,-153.14633)" inkscape:groupmode="layer" inkscape:label="Layer 1">
	<g id="g3726" transform="matrix(6.9448645,0,0,-6.9448645,-2703.5273,3651.7218)">
		<g id="g3093" transform="translate(549.8372,494.1534)">
			<path id="path3095" inkscape:connector-curvature="0" class="st0" d="M-48.79-2.86v-0.58h0.35v1.35h-0.35v-0.5h-0.53v0.5h-0.35
				v-1.35h0.35v0.58H-48.79z M-48.15-3.45h0.48c0.46,0,0.76,0.24,0.76,0.67c0,0.44-0.3,0.67-0.76,0.67h-0.48V-3.45z M-47.8-2.36
				h0.15c0.24,0,0.38-0.15,0.38-0.41s-0.14-0.41-0.38-0.41h-0.15V-2.36z"/>
		</g>
		<g id="g3101" transform="translate(474.9367,488.2101)">
			<path id="path3103" inkscape:connector-curvature="0" class="st0" d="M17.86,2.43c0-0.07-0.05-0.09-0.19-0.09
				c-0.17,0-0.35,0.02-0.58,0.09l-0.04-0.33c0.18-0.07,0.42-0.11,0.64-0.11c0.35,0,0.66,0.13,0.66,0.47c0,0.61-0.82,0.45-0.82,0.63
				c0,0.06,0.02,0.09,0.19,0.09c0.11,0,0.29-0.02,0.53-0.09l0.04,0.33c-0.18,0.07-0.39,0.11-0.59,0.11c-0.35,0-0.66-0.11-0.66-0.47
				C17.04,2.44,17.86,2.6,17.86,2.43 M18.6,1.49h0.5v0.58c0.12-0.07,0.25-0.09,0.4-0.09c0.34,0,0.7,0.25,0.7,0.78
				s-0.33,0.78-0.67,0.78c-0.15,0-0.3-0.06-0.43-0.16l-0.03,0.12H18.6V1.49L18.6,1.49z M19.1,3.05c0.08,0.05,0.16,0.07,0.24,0.07
				c0.18,0,0.33-0.11,0.33-0.38c0-0.26-0.15-0.38-0.33-0.38c-0.08,0-0.17,0.02-0.24,0.07V3.05z M20.38,2.75
				c0-0.45,0.32-0.78,0.83-0.78c0.51,0,0.83,0.33,0.83,0.78c0,0.45-0.32,0.78-0.83,0.78C20.69,3.53,20.38,3.2,20.38,2.75 M20.9,2.75
				c0,0.23,0.13,0.39,0.3,0.39c0.17,0,0.3-0.16,0.3-0.39c0-0.23-0.13-0.39-0.3-0.39C21.03,2.36,20.9,2.52,20.9,2.75 M23.4,3.52
				c-0.27,0.02-0.51-0.09-0.59-0.25l-0.04,0.22H22.3V2.01h0.5v0.84c0.15,0.19,0.29,0.25,0.56,0.22L23.4,3.52L23.4,3.52z M24.23,3.49
				v0.35h-0.44l-0.06-0.35l-0.22-0.03V3.13h0.22V2.45c0-0.52,0.46-0.55,0.86-0.41l-0.04,0.35c-0.23-0.04-0.32-0.01-0.32,0.12v0.62
				h0.33v0.36H24.23L24.23,3.49z"/>
		</g>
		<g id="g3105" transform="translate(432.5919,503.3594)">
			<path id="path3107" inkscape:connector-curvature="0" class="st0" d="M55.54-11.06c0.28,0.02,0.58,0.03,0.82,0.04v-0.36
				c-0.12,0-0.24-0.01-0.37-0.02c-0.43-0.05-0.5-0.14-0.56-0.55c-0.02-0.17-0.03-0.35-0.03-0.47c0-0.12,0.01-0.3,0.03-0.47
				c0.05-0.41,0.13-0.5,0.56-0.55c0.12-0.01,0.25-0.02,0.37-0.02v-0.36c-0.24,0-0.54,0.01-0.82,0.04c-0.76,0.06-0.9,0.18-1,0.73
				c-0.04,0.23-0.05,0.47-0.05,0.64c0,0.16,0.01,0.41,0.05,0.64C54.64-11.24,54.78-11.12,55.54-11.06"/>
		</g>
		<g id="g3109" transform="translate(460.7936,490.9371)">
			<path id="path3111" inkscape:connector-curvature="0" class="st0" d="M30.44,0c0-0.16-0.01-0.41-0.05-0.64
				c-0.09-0.55-0.23-0.67-1-0.73c-0.28-0.02-0.58-0.03-0.82-0.04v0.36c0.12,0,0.24,0.01,0.36,0.02c0.43,0.05,0.5,0.14,0.56,0.55
				C29.52-0.3,29.53-0.12,29.53,0c0,0.12-0.01,0.3-0.03,0.47c-0.05,0.41-0.13,0.5-0.56,0.55c-0.12,0.01-0.25,0.02-0.36,0.02V1.4
				c0.24,0,0.54-0.01,0.82-0.04c0.76-0.06,0.9-0.18,1-0.73C30.43,0.41,30.44,0.16,30.44,0"/>
		</g>
	</g>
</g>
</svg>
