<?xml version="1.0" encoding="utf-8"?>
<!-- Generator: Adobe Illustrator 15.0.0, SVG Export Plug-In . SVG Version: 6.00 Build 0)  -->
<!DOCTYPE svg PUBLIC "-//W3C//DTD SVG 1.1//EN" "http://www.w3.org/Graphics/SVG/1.1/DTD/svg11.dtd">
<svg version="1.1" id="Layer_1" xmlns="http://www.w3.org/2000/svg" xmlns:xlink="http://www.w3.org/1999/xlink" x="0px" y="0px"
	 width="160.8px" height="50px" viewBox="0 0 160.8 50" style="enable-background:new 0 0 160.8 50;" xml:space="preserve">
<style type="text/css">
<![CDATA[
	.st0{fill-rule:evenodd;clip-rule:evenodd;fill:#E21A84;}
	.st1{fill-rule:evenodd;clip-rule:evenodd;fill:#FFFFFF;}
]]>
</style>
<g>
	<path class="st0" d="M5.5,0c3.2,0,6.5,0,9.7,0c-3.6,0.8-3.4,9.6,1,9.4c0.1-0.9,0-2,0-3c-0.4-0.3-0.8-0.3-1.1-0.7
		c-0.6-1,0-3.3,1.4-2.5c0.6,0.3,0.6,1.8,0.7,2.7c0.2,1.5,0.6,3,1.7,3.6c1.2,0.7,3.1,0.4,4-0.6c0,0.5,0,1,0,1.5
		c-3.5,0.3-8.4-0.9-9.7,1.5c-0.9,1.7-0.2,4.4,1.3,5c-1.1,0.5-1.8,1.6-1.7,3.2c0.1,1.2,1,2.1,1.6,2.6c-0.4,0-0.9,0-1.3,0
		c0,1,0,2.1,0,3.1c3.2,0,6.8,0,9.8,0c0,0.3,0,0.6,0,0.9c-3.3,0-6.5,0-9.8,0c-0.2,0.7-0.3,1.6-0.4,2.4c3.3,0.1,6.8,0,10.1,0
		c0,1.2,0,2.3,0,3.5c-3.1-0.3-8.3,1.3-7.3-3c-0.9-0.1-2.1,0-3.1-0.1c-0.5,1.4,0.2,2.8,1.5,3c-0.4,0.2-1.3-0.1-1.9,0.1
		c-0.2,0.9-0.3,1.8-0.4,2.7c3.6,0.1,7.5,0,11.2,0.1c0,2.5,0,4.9,0,7.4c-1.3,0-3,0-4.5,0c0.3-2.5,0.4-5.1-1.3-6.1
		c-1-0.6-2.4-0.7-3.6-0.7c-1.8,0.1-3.2,1-3.9,2.1c-0.7,1.1-0.8,2.6-1,3.9c-0.2,1.4-0.4,2.8-0.7,4.2c4.9,0.1,10,0,15,0.1
		c0,1,0,2.1,0,3.1c-7.4,0-15.3,0-22.9,0c0-0.5,0-0.9,0-1.4c1.6-6,3.2-12.5,4.8-18.7c0.2-0.9,0.6-1.8,0.7-2.7c0.1-1.1,0-2.2,0-3.3
		C5.5,15.6,5.5,7.8,5.5,0z M9.6,26.7c-0.2,0.7-0.3,1.6-0.5,2.4c0.9,0,1.7,0,2.6,0c0.1-0.8,0.2-1.6,0.4-2.4
		C11.3,26.7,10.5,26.7,9.6,26.7z"/>
	<path class="st1" d="M19.9,6.5c1.8,0.6,2-1.9,1.2-2.8c-0.7-0.7-1.3-0.5-2.5-0.6C19.1,4.2,18.8,6.1,19.9,6.5z"/>
	<path class="st0" d="M83.7,12c5,12.5,9.8,25,14.9,37.4c4,0,7.9,0,11.9,0c4.7-12.1,9.8-24.4,14.4-36.4c0.1-0.4,0.4-0.7,0.4-1.1
		c-4.5,0-9,0-13.5,0c-2.4,7.2-4.7,14.6-7.2,21.7c-2.3-7.3-4.8-14.5-7.1-21.7c-4.6,0-9.1,0-13.7,0C83.6,11.9,83.6,12,83.7,12z"/>
	<path class="st1" d="M15.7,14.1c-0.3,0.5-0.3,1.3,0.1,1.8c0.3,0.3,0.9,0.5,1.5,0.5c1.7,0.1,3.8-0.1,5.5,0c0-1,0-2,0-2.9
		C21,13.9,16.6,12.8,15.7,14.1z"/>
	<path class="st1" d="M17.4,19.7c-0.6,0-1.3,0.1-1.6,0.5c-0.3,0.4-0.3,1.3,0,1.7c1,1.4,5.1,0.3,7.1,0.7c0-1,0-1.9,0-2.9
		C21.8,19.7,19.1,19.7,17.4,19.7z"/>
	<path class="st0" d="M15.3,39.6c-0.7-0.9-2.7-0.5-3.2,0.3c-0.6,0.9-0.2,2-0.6,3c1.3,0,2.6,0,3.8,0C15.4,41.7,15.9,40.3,15.3,39.6z"
		/>
	<path class="st0" d="M27.7,0c4.4,0,8.7,0,13.1,0c0,16.4,0.1,33-0.1,49.4c-4.3,0-8.8,0.1-13.1-0.1C27.7,32.9,27.7,16.4,27.7,0z"/>
	<path class="st0" d="M18.6,3.1c1.2,0.1,1.9-0.1,2.5,0.6c0.8,0.8,0.6,3.4-1.2,2.8C18.8,6.1,19.1,4.2,18.6,3.1z"/>
	<path class="st0" d="M64.8,11c6.2-0.3,11.3,2.3,14.7,5.3c3.5,3.1,6,7.5,6.2,13.7c0.2,6.3-2.5,11.1-5.8,14.2
		c-3.4,3.2-8.1,5.8-14.3,5.8c-6.7,0-11.1-2-14.8-5.2c-3.3-2.9-6.3-7.6-6.3-13.8c0-6.7,2.6-10.9,5.9-14.2c1.6-1.6,3.7-3,6.1-4
		C58.8,11.7,61.5,11.2,64.8,11z M59.2,24.7c-1.1,1.3-2,3.4-2,5.8c0,2.8,1.1,4.7,2.5,6.1c1.5,1.5,3.7,2.5,6.4,2.3
		c2.9-0.2,5.1-2.2,6.2-4.6c1.2-2.8,0.8-6.4-0.7-8.6C70.4,24,68,22,64.6,22.2C62.2,22.4,60.4,23.3,59.2,24.7z"/>
	<path class="st0" d="M160.8,33.1C160.8,33.1,160.8,33.1,160.8,33.1c-0.1,0.3,0,0.8-0.2,1c-8.3,0-16.6,0-24.9,0
		c0.8,3.5,3.1,5.7,7,6.1c4.3,0.4,7.2-1.7,9.3-3.7c2.1,1.7,4.2,3.5,6.3,5.2c0.2,0.2,0.9,0.6,0.9,0.8c0,0-0.4,0.5-0.5,0.6
		c-2.5,3-6,5.4-10.3,6.4c-5.3,1.2-11.4,0.3-15.1-1.6c-3.9-1.9-6.9-4.9-8.7-9.1c-1.8-4.1-2.1-10.4-0.5-15.1c1.5-4.3,4.2-7.7,7.9-9.9
		c3.6-2.2,9.2-3.4,14.6-2.2c4.8,1.1,8.3,3.7,10.6,7.2C159.7,22.3,160.9,26.9,160.8,33.1z M141.7,20.6c-3.9,0.2-5.4,3.3-6.1,6.8
		c4.3,0,8.6,0,12.9,0C148.1,23.7,146,20.4,141.7,20.6z"/>
	<path class="st0" d="M83.7,11.9c4.6,0,9.1,0,13.7,0c2.3,7.3,4.8,14.5,7.1,21.7c2.5-7.2,4.8-14.5,7.2-21.7c4.5,0,9,0,13.5,0
		c0,0.4-0.2,0.8-0.4,1.1c-4.7,12.1-9.7,24.3-14.4,36.4c-4,0-7.9,0-11.9,0C93.5,37,88.6,24.5,83.7,12C83.6,12,83.6,11.9,83.7,11.9z"
		/>
	<path class="st0" d="M22.9,13.5c0,1,0,2,0,2.9c-1.7-0.1-3.8,0.1-5.5,0c-0.6,0-1.2-0.2-1.5-0.5c-0.4-0.5-0.4-1.3-0.1-1.8
		C16.6,12.8,21,13.9,22.9,13.5z"/>
	<path class="st0" d="M22.9,19.7c0,1,0,1.9,0,2.9c-2.1-0.4-6.1,0.8-7.1-0.7c-0.3-0.5-0.3-1.3,0-1.7c0.3-0.4,1-0.5,1.6-0.5
		C19.1,19.7,21.8,19.7,22.9,19.7z"/>
	<path class="st0" d="M15.4,42.8c-1.3,0-2.6,0-3.8,0c0.3-1,0-2.1,0.6-3c0.5-0.8,2.5-1.2,3.2-0.3C15.9,40.3,15.4,41.7,15.4,42.8z"/>
</g>
</svg>
