<?xml version="1.0" encoding="utf-8"?>
<!-- Generator: Adobe Illustrator 15.0.0, SVG Export Plug-In . SVG Version: 6.00 Build 0)  -->
<!DOCTYPE svg PUBLIC "-//W3C//DTD SVG 1.1//EN" "http://www.w3.org/Graphics/SVG/1.1/DTD/svg11.dtd">
<svg version="1.1" id="Layer_1" xmlns="http://www.w3.org/2000/svg" xmlns:xlink="http://www.w3.org/1999/xlink" x="0px" y="0px"
	 width="83.7px" height="50px" viewBox="0 0 83.7 50" style="enable-background:new 0 0 83.7 50;" xml:space="preserve">
<style type="text/css">
<![CDATA[
	.st0{fill-rule:evenodd;clip-rule:evenodd;}
	.st1{fill-rule:evenodd;clip-rule:evenodd;fill:#FF1400;}
	.st2{fill-rule:evenodd;clip-rule:evenodd;fill:#FFDE31;}
]]>
</style>
<g>
	<polygon class="st2" points="67.2,0 0,0 0,33.5 16.5,50 83.7,50 83.7,16.5 	"/>
	<path class="st0" d="M46,11c0,1.7,0,3.4,0,5.1c-1.4,0-2.8,0-4.3,0c0-1.7,0-3.4,0-5.1C43.2,11,44.6,11,46,11z"/>
	<path class="st1" d="M51.5,11c0,1.9,0,3.9,0,5.8c1.9,0,3,0,4.3,0c0,1.3,0,3,0,4.4c-1.3,0-2.9,0-4.3,0c0,2.8,0,5.7,0,8.5
		c1.4,0,2.8,0,4.3,0c0,1.4,0,2.8,0,4.3c-2.8,0-5.9,0-8.7,0c0-7.3,0-19,0-22.9C48.5,11,50.2,11,51.5,11z"/>
	<path class="st0" d="M40.8,17c0,5.7,0,11.3,0,17c-4.3,0-8.6,0-12.9,0c0-4,0-7.9,0-11.9c2.8,0,6,0,8.6,0c0-0.5,0-0.8,0-0.8
		s-6.6,0-8.6,0c0-1.4,0-3,0-4.3C32.2,17,36.5,17,40.8,17z M32.3,26.4c0,1.1,0,2.2,0,3.3c1.4,0,2.8,0,4.3,0c0-1.3,0-2.3,0-3.3
		C35.2,26.4,33.4,26.4,32.3,26.4z"/>
	<path class="st1" d="M69.6,21.2l-4.4-4.4c0,0,0,0-0.1,0c-2.6,0-5.4,0-8.3,0c0,1.1,0,11.6,0,17.2c4.3,0,8.5,0,12.8,0
		c0-2.1,0-4.2,0-6.3C69.6,25.8,69.6,22,69.6,21.2z M65.3,29.7c-1.4,0-2.7,0-4.1,0c0-2.9,0-5.7,0-8.5c1.4,0,2.8,0,4.1,0
		C65.3,24,65.3,26.9,65.3,29.7z"/>
	<path class="st0" d="M46,39.3c0-6.6,0-14.7,0-22.3c-1.4,0-2.9,0-4.3,0c0,3.3,0,16.5,0,18.1L46,39.3z"/>
	<path class="st0" d="M18.1,34c2.5,0,6,0,8.9,0c0-7.6,0-18.5,0-22.9c-1.4,0-3,0-4.3,0c0,1.8,0,3.9,0,5.9c-2.8,0-5.9,0-8.7,0
		c0,2.1,0,12.8,0,12.8s0,0,0,0.1L18.1,34z M18.4,21.2h4.3c0,0,0,5.7,0,8.5c-1.4,0-2.8,0-4.3,0C18.4,26.9,18.4,21.2,18.4,21.2z"/>
</g>
</svg>
