<?xml version="1.0" encoding="utf-8"?>
<!-- Generator: Adobe Illustrator 15.0.0, SVG Export Plug-In . SVG Version: 6.00 Build 0)  -->
<!DOCTYPE svg PUBLIC "-//W3C//DTD SVG 1.1//EN" "http://www.w3.org/Graphics/SVG/1.1/DTD/svg11.dtd">
<svg version="1.1" id="Layer_1" xmlns="http://www.w3.org/2000/svg" xmlns:xlink="http://www.w3.org/1999/xlink" x="0px" y="0px"
	 width="92.2px" height="50px" viewBox="0 0 92.2 50" style="enable-background:new 0 0 92.2 50;" xml:space="preserve">
<style type="text/css">
<![CDATA[
	.st0{fill:#2D3382;}
]]>
</style>
<path class="st0" d="M78.3,40.3c-3.9,0-6.9-2.4-9.8-5.1c1.8-3.3,2.8-6.8,2.8-10.4C71.3,9.8,58.8,0,43.9,0c-13,0-26.3,9-26.3,22.7
	c0,4.7,1.1,9.6,5.3,12.5l10.2-15.5l10.6,17c0,0,3.8-3.6,9.7-3.6c3.2,0,6.3,2.6,9.6,5.4c-5,5.8-13.2,9.6-21.3,9.6
	c-14.1,0-22.6-7.1-27-11.8c-2.5-2.7-5.6-6.1-8.2-8.5c-2.8-2.6-4.4-3.7-5-4c-0.5-0.2-1.2-0.4-1.4-0.1c-0.3,0.4,0,0.7,0.3,1
	C0.7,25,3.2,26.3,5.8,29c1.3,1.3,4.7,5.8,10,10.5c5.7,5,11.6,10.5,27.8,10.5c8.5,0,16.3-4,21.4-9.8c3,2.5,6.1,4.7,9.3,4.7
	c9.7,0,17.8-10.3,17.8-10.3S84.6,40.3,78.3,40.3z M54.6,27.4c-6.4,0-8.2,3.2-8.2,3.2L33.8,9.8L21.7,30.2c-1-1-1.4-2.7-1.4-5.4
	c0-9.6,10.9-20.5,23.9-20.5C58.1,4.2,68,13.9,68,25.9c0,2.6-0.6,5-1.7,7.4C63,30.2,59.5,27.4,54.6,27.4z"/>
</svg>
