<?xml version="1.0" encoding="utf-8"?>
<!-- Generator: Adobe Illustrator 15.0.0, SVG Export Plug-In . SVG Version: 6.00 Build 0)  -->
<!DOCTYPE svg PUBLIC "-//W3C//DTD SVG 1.1//EN" "http://www.w3.org/Graphics/SVG/1.1/DTD/svg11.dtd">
<svg version="1.1"
	 id="svg111821" inkscape:version="0.48.4 r9939" sodipodi:docname="glitzhd.svg" xmlns:dc="http://purl.org/dc/elements/1.1/" xmlns:cc="http://creativecommons.org/ns#" xmlns:rdf="http://www.w3.org/1999/02/22-rdf-syntax-ns#" xmlns:svg="http://www.w3.org/2000/svg" xmlns:sodipodi="http://sodipodi.sourceforge.net/DTD/sodipodi-0.dtd" xmlns:inkscape="http://www.inkscape.org/namespaces/inkscape"
	 xmlns="http://www.w3.org/2000/svg" xmlns:xlink="http://www.w3.org/1999/xlink" x="0px" y="0px" width="23.7px" height="28px"
	 viewBox="128.2 150.9 23.7 28" style="enable-background:new 128.2 150.9 23.7 28;" xml:space="preserve">
<style type="text/css">
<![CDATA[
	.st0{fill:#C75FA4;}
]]>
</style>
<sodipodi:namedview  units="mm" id="base" inkscape:current-layer="layer1" inkscape:window-y="-8" inkscape:window-x="1358" fit-margin-bottom="1" fit-margin-right="1" inkscape:window-height="1028" inkscape:window-width="1920" inkscape:pageshadow="2" inkscape:pageopacity="0.0" inkscape:window-maximized="1" inkscape:document-units="mm" inkscape:cy="-72.332857" inkscape:cx="169.7508" bordercolor="#666666" inkscape:zoom="0.35" pagecolor="#ffffff" fit-margin-left="1" fit-margin-top="1" borderopacity="1.0" showgrid="false">
	</sodipodi:namedview>
<g id="layer1" transform="translate(-180.24919,-130.31894)" inkscape:groupmode="layer" inkscape:label="Layer 1">
	<g id="g111854">
		<path id="path111305" inkscape:connector-curvature="0" class="st0" d="M317.7,296.6v-6h1.6l2.2,3.7l-0.1-3.7h1.4v6h-1.6l-2.1-3.5
			l0,3.5"/>
		<path id="path111309" inkscape:connector-curvature="0" class="st0" d="M325.4,296.6l0-4.6h-1.8l0-1.4h5.1l0,1.4h-1.8l0,4.6"/>
		<path id="path111313" inkscape:connector-curvature="0" class="st0" d="M313.7,296.6l0-4.6h-1.8l0-1.4h5.1l0,1.4h-1.8l0,4.6"/>
		<path id="path111317" inkscape:connector-curvature="0" class="st0" d="M310.3,293c0,2.8,1.1,5.3,2.9,7.1c1.8,1.8,4.3,2.9,7.1,2.9
			c2.8,0,5.3-1.1,7.1-2.9c1.8-1.8,2.9-4.3,2.9-7.1c0-2.8-1.1-5.3-2.9-7.1c-1.8-1.8-4.3-2.9-7.1-2.9c-2.8,0-5.3,1.1-7.1,2.9
			C311.4,287.7,310.3,290.2,310.3,293 M308.5,293c0-6.5,5.3-11.9,11.9-11.9c6.5,0,11.9,5.3,11.9,11.9c0,6.5-5.3,11.8-11.9,11.9
			C313.8,304.9,308.5,299.6,308.5,293"/>
		<path id="path111329" inkscape:connector-curvature="0" class="st0" d="M316.5,308.7c-0.2,0.3-0.6,0.4-0.9,0.4
			c-1,0-1.5-0.7-1.5-1.6c0-0.9,0.6-1.7,1.5-1.7c0.6,0,1.2,0.4,1.3,1.1h-0.7c-0.1-0.3-0.3-0.5-0.7-0.5c-0.6,0-0.9,0.5-0.9,1.1
			c0,0.5,0.2,1,0.9,1c0.4,0,0.7-0.2,0.7-0.7h-0.7v-0.5h1.3v1.7h-0.4"/>
		<path id="path111333" inkscape:connector-curvature="0" class="st0" d="M317.5,306h0.7v2.6h1.5v0.6h-2.2"/>
		<path id="path111335" inkscape:connector-curvature="0" class="st0" d="M320,309.1h0.7V306H320V309.1z"/>
		<path id="path111339" inkscape:connector-curvature="0" class="st0" d="M322,306.5h-0.9V306h2.6v0.6h-0.9v2.6H322"/>
		<path id="path111343" inkscape:connector-curvature="0" class="st0" d="M323.8,308.6l1.7-2h-1.5V306h2.5v0.5l-1.7,2h1.7v0.6h-2.6"
			/>
	</g>
</g>
</svg>
