<?xml version="1.0" encoding="utf-8"?>
<!-- Generator: Adobe Illustrator 15.0.0, SVG Export Plug-In . SVG Version: 6.00 Build 0)  -->
<!DOCTYPE svg PUBLIC "-//W3C//DTD SVG 1.1//EN" "http://www.w3.org/Graphics/SVG/1.1/DTD/svg11.dtd">
<svg version="1.1" id="Layer_1" xmlns="http://www.w3.org/2000/svg" xmlns:xlink="http://www.w3.org/1999/xlink" x="0px" y="0px"
	 width="69.25px" height="50px" viewBox="0 0 69.25 50" style="enable-background:new 0 0 69.25 50;" xml:space="preserve">
<style type="text/css">
<![CDATA[
	.st0{fill-rule:evenodd;clip-rule:evenodd;fill:#81CC29;}
	.st1{fill:#FFFFFF;}
]]>
</style>
<g>
	<path class="st0" d="M64.28,44.83c0.49,1.67,1.07,3.48,1.53,5.17c0.64,0,1.27,0,1.91,0c0.34-1.17,1.24-4.26,1.52-5.17
		c-0.43,0-0.79,0-1.22,0c-0.11,0.36-1.14,3.86-1.22,4.16c-0.41-1.33-0.88-2.83-1.29-4.16C65.11,44.83,64.53,44.83,64.28,44.83z"/>
	<polygon class="st0" points="63.68,44.82 60.06,44.82 60.06,45.93 61.25,45.93 61.25,49.99 62.48,49.99 62.48,45.93 63.68,45.93 	
		"/>
	<polygon class="st0" points="57.2,44.82 53.57,44.82 53.57,45.93 54.77,45.93 54.77,49.99 56,49.99 56,45.93 57.2,45.93 	"/>
	<path class="st0" d="M34.79,45.88c0.78,0,1.5,0,2.28,0c0-0.37,0-0.74,0-1.11c-0.46,0-3.38,0-3.38,0c-0.13,0-0.24,0.11-0.24,0.24
		c0,0.19,0,2.31,0,2.65c0,0.13,0.11,0.24,0.24,0.24h2.03c0.07,0,0.12,0.05,0.12,0.12c0,0.22,0,0.61,0,0.74
		c0,0.07-0.05,0.12-0.12,0.12c-0.8,0-1.48,0-2.28,0c0,0.37,0,0.74,0,1.11c0.56,0,3.38,0,3.38,0c0.13,0,0.24-0.11,0.24-0.24
		c0-0.79,0-1.82,0-2.71c0-0.13-0.11-0.24-0.24-0.24c0,0-1.47,0-2.1,0h0.06c-0.07,0-0.12-0.05-0.12-0.12c0-0.21,0-0.55,0-0.68
		C34.67,45.93,34.73,45.88,34.79,45.88z"/>
	<path class="st0" d="M47.07,44.83L47.07,44.83h-3.69l0,0c-0.13,0-0.24,0.11-0.24,0.24v4.68c0,0.13,0.11,0.24,0.24,0.24l0,0h3.69
		l0,0c0.13,0,0.24-0.11,0.24-0.24v-4.68C47.32,44.94,47.21,44.83,47.07,44.83z M46.09,48.77c0,0.07-0.05,0.12-0.12,0.12l0,0h-1.48
		c-0.07,0-0.12-0.05-0.12-0.12v-2.71c0-0.07,0.05-0.12,0.12-0.12h1.48c0.07,0,0.12,0.05,0.12,0.12V48.77z"/>
	<path class="st0" d="M1.47,45.88c0.78,0,1.5,0,2.28,0c0-0.37,0-0.74,0-1.11c-0.46,0-3.38,0-3.38,0c-0.13,0-0.24,0.11-0.24,0.24
		c0,0.19,0,2.31,0,2.65c0,0.13,0.11,0.24,0.24,0.24H2.4c0.07,0,0.12,0.05,0.12,0.12c0,0.22,0,0.61,0,0.74
		c0,0.07-0.05,0.12-0.12,0.12c-0.8,0-1.48,0-2.28,0c0,0.37,0,0.74,0,1.11c0.56,0,3.38,0,3.38,0c0.13,0,0.24-0.11,0.24-0.24
		c0-0.79,0-1.82,0-2.71c0-0.13-0.11-0.24-0.24-0.24c0,0-1.47,0-2.1,0h0.06c-0.07,0-0.12-0.05-0.12-0.12c0-0.21,0-0.55,0-0.68
		C1.35,45.93,1.41,45.88,1.47,45.88z"/>
	<rect class="st0" width="69.25" height="41.64"/>
	<path class="st0" d="M4.67,44.83c0,1.72,0,3.44,0,5.17c1.17,0,2.34,0,3.51,0c0-0.37,0-0.74,0-1.11c-0.76,0-1.52,0-2.28,0
		c0-1.35,0-2.71,0-4.06C5.49,44.83,5.08,44.83,4.67,44.83z"/>
	<path class="st0" d="M13.97,44.83c0.49,1.67,1.07,3.48,1.53,5.17c0.64,0,1.27,0,1.91,0c0.34-1.17,1.24-4.26,1.52-5.17
		c-0.43,0-0.79,0-1.22,0c-0.1,0.36-1.14,3.86-1.22,4.16c-0.41-1.33-0.88-2.83-1.29-4.16C14.8,44.83,14.22,44.83,13.97,44.83z"/>
	<path class="st0" d="M24.48,50c0.35,0,0.68,0,1.03,0c0.27-0.39,0.96-1.38,1.03-1.49c0.34,0.5,0.67,0.98,1.01,1.49
		c0.53,0,1.19,0,1.72,0c-0.16-0.24-1.7-2.49-1.87-2.74c0.25-0.36,1.12-1.61,1.68-2.43c-0.57,0-1.15,0-1.72,0
		c-0.17,0.25-1.6,2.33-1.66,2.41c0-0.78,0-1.63,0-2.41c-0.41,0-0.82,0-1.23,0C24.48,46.56,24.48,48.28,24.48,50z"/>
	<path class="st0" d="M58.12,49.99c0.33,0,0.66,0,0.98,0c0-0.37,0-0.74,0-1.11c-0.33,0-0.66,0-0.98,0
		C58.12,49.25,58.12,49.62,58.12,49.99z"/>
	<g>
		<path class="st1" d="M62.24,7.07c0,0.64,0,5.23,0,6.95c-4.61,0-9.23,0-13.84,0c0,2.32,0,4.57,0,6.89c-2.3,0-4.59,0-6.89,0
			c0-4.57,0-9.27,0-13.84C42.15,7.07,60.47,7.07,62.24,7.07z"/>
		<path class="st1" d="M62.24,20.91c0,4.61,0,9.23,0,13.84c-6.91,0-13.82,0-20.73,0c0-2.32,0-4.63,0-6.95c4.57,0,9.2,0,13.77,0
			c0-0.51,0-5.46,0-6.89C56.39,20.91,59.96,20.91,62.24,20.91z"/>
	</g>
	<path class="st0" d="M22.26,44.83c-0.64,0-1.27,0-1.91,0C20.3,45,18.84,49.55,18.7,50c0.41,0,0.82,0,1.23,0
		c0.15-0.46,0.31-0.96,0.4-1.23c0.61,0,1.36,0,1.98,0c0.13,0.41,0.26,0.8,0.4,1.23c0.41,0,0.82,0,1.23,0
		C23.79,49.6,22.39,45.22,22.26,44.83z M20.68,47.66c0.17-0.57,0.45-1.4,0.63-1.96c0.13,0.39,0.45,1.39,0.63,1.96
		C21.55,47.66,21.07,47.66,20.68,47.66z"/>
	<path class="st0" d="M12.89,44.83L12.89,44.83H9.19l0,0c-0.13,0-0.24,0.11-0.24,0.24v4.68c0,0.13,0.11,0.24,0.24,0.24l0,0h3.69l0,0
		c0.13,0,0.24-0.11,0.24-0.24v-4.68C13.13,44.94,13.02,44.83,12.89,44.83z M11.9,48.77c0,0.07-0.05,0.12-0.12,0.12l0,0H10.3
		c-0.07,0-0.12-0.05-0.12-0.12v-2.71c0-0.07,0.05-0.12,0.12-0.12h1.48c0.07,0,0.12,0.05,0.12,0.12V48.77z"/>
	<path class="st0" d="M41.95,44.83c-0.2,0-2.99,0-3.88,0c0,1.72,0,3.44,0,5.17c0.39,0,0.84,0,1.23,0c0-0.58,0-1.29,0-1.78
		c0.44,0,2.16,0,2.65,0c0.13,0,0.24-0.11,0.24-0.24c0-0.43,0-2.89,0-2.89C42.2,44.94,42.09,44.83,41.95,44.83z M40.96,47.11
		c-0.57,0-1.09,0-1.66,0c0-0.42,0-0.79,0-1.17c0.55,0,1.11,0,1.67,0C40.97,46.35,40.96,46.7,40.96,47.11z"/>
	<path class="st0" d="M52.35,44.82c-0.2,0-2.99,0-3.88,0c0,1.72,0,3.44,0,5.17c0.39,0,0.84,0,1.23,0c0-0.58,0-1.29,0-1.78
		c0.19,0,1.07,0,1.07,0l1.14,1.78h1.23l-1.11-1.78c0,0,0.25,0,0.33,0c0.13,0,0.24-0.11,0.24-0.24c0-0.43,0-2.89,0-2.89
		C52.59,44.93,52.48,44.82,52.35,44.82z M51.35,47.1c-0.57,0-1.09,0-1.66,0c0-0.42,0-0.79,0-1.17c0.55,0,1.11,0,1.67,0
		C51.36,46.34,51.35,46.69,51.35,47.1z"/>
</g>
</svg>
