<?xml version="1.0" encoding="utf-8"?>
<!-- Generator: Adobe Illustrator 15.0.0, SVG Export Plug-In . SVG Version: 6.00 Build 0)  -->
<!DOCTYPE svg PUBLIC "-//W3C//DTD SVG 1.1//EN" "http://www.w3.org/Graphics/SVG/1.1/DTD/svg11.dtd">
<svg version="1.1" id="svg2" xmlns="http://www.w3.org/2000/svg" xmlns:xlink="http://www.w3.org/1999/xlink" x="0px" y="0px"
	 width="52.8px" height="50px" viewBox="62.5 562 52.8 50" style="enable-background:new 62.5 562 52.8 50;" xml:space="preserve">
<style type="text/css">
<![CDATA[
	.st0{fill:#ED008C;}
]]>
</style>
<g id="g3109">
	<path id="path3777" class="st0" d="M62.5,610.6c0-4.1,0-8.3,0-12.4c0.2-1.4,1.7-1.4,2.8-1.3c16.2,0,32.4,0,48.6,0
		c1.5,0,1.5,1.6,1.4,2.7c0,3.8,0.1,7.5,0,11.3c-0.5,1.5-2.2,1-3.4,1.1c-16,0-32.1,0-48.1,0C63.1,612,62.5,611.3,62.5,610.6
		L62.5,610.6z"/>
	<path id="path2994" d="M78.2,608.1c0-2.5,0-5,0-7.6c0.1-0.4,0.6-0.4,0.9-0.3c0.3,0,0.5,0.3,0.4,0.5c0,0.9,0,1.9,0,2.8
		c0.1,0.2,0.4,0.2,0.6,0.2c0.4,0,0.9,0,1.3,0c0.3,0,0.2-0.3,0.2-0.5c0-0.9,0-1.7,0-2.6c0.1-0.3,0.5-0.4,0.8-0.3
		c0.3,0,0.4,0.3,0.4,0.5c0,2.5,0,5,0,7.4c-0.1,0.3-0.5,0.4-0.8,0.4c-0.3,0-0.4-0.3-0.4-0.5c0-1,0-2,0-3c0-0.3-0.3-0.2-0.5-0.2
		c-0.5,0-1,0-1.4,0c-0.3,0-0.2,0.3-0.2,0.5c0,0.9,0,1.8,0,2.8c-0.1,0.4-0.6,0.5-0.9,0.3C78.4,608.5,78.2,608.3,78.2,608.1
		L78.2,608.1z"/>
	<path id="path3764" d="M85.5,608.1c0-2.5,0-5,0-7.6c0.1-0.3,0.5-0.3,0.8-0.3c0.2,0,0.5,0.1,0.4,0.4c0,2.5,0,5,0,7.5
		c0,0.4-0.5,0.5-0.8,0.4C85.7,608.5,85.5,608.4,85.5,608.1L85.5,608.1z"/>
	<path id="path3766" d="M90.2,608.1c0-2.2,0-4.4,0-6.5c-0.1-0.2-0.4-0.2-0.6-0.2c-0.3,0-0.6,0-0.9-0.1c-0.5-0.2-0.4-1.1,0.1-1.1
		c1.3,0,2.5,0,3.8,0c0.6,0.1,0.6,1,0.1,1.2c-0.4,0-0.8,0-1.2,0c-0.2,0-0.2,0.3-0.2,0.5c0,2.1,0,4.2,0,6.3c-0.1,0.4-0.6,0.5-1,0.4
		C90.3,608.5,90.2,608.3,90.2,608.1L90.2,608.1z"/>
	<path id="path3768" d="M95.3,608.1c-0.4-0.2-0.3-0.8,0-1.1c0.3-0.3,0.6,0,0.9,0.2c0.4,0.3,1,0.6,1.6,0.3c0.4-0.2,0.7-0.6,0.6-1.1
		c0-0.6-0.5-1-1-1.2c-0.7-0.3-1.5-0.8-2-1.4c-0.3-0.3-0.5-0.7-0.4-1.1c0-1.1,0.7-2.2,1.8-2.5c0.4-0.1,0.8,0,1.2,0
		c0.5,0.1,1.1,0.3,1.4,0.8c0.3,0.4-0.1,1-0.6,0.9c-0.4-0.1-0.7-0.6-1.1-0.6c-0.5-0.1-1.1,0.1-1.3,0.6c-0.1,0.3-0.2,0.7,0,1
		c0.3,0.5,0.9,0.7,1.3,1c0.6,0.3,1.4,0.7,1.7,1.3c0.4,0.6,0.3,1.4,0,2.1c-0.3,0.8-1.1,1.4-2,1.4C96.6,608.7,95.9,608.5,95.3,608.1
		L95.3,608.1z"/>
</g>
<g id="g3" transform="translate(-12.75,-6.84)">
	<path id="path5" inkscape:connector-curvature="0" d="M75.3,568.9c6,0,12,0,18,0c2,2.2,4.1,4.3,6.2,6.5c2-2.2,4.1-4.3,6.2-6.5
		c6,0,12.1,0,18.1,0c0,4.5,0,8.9,0,13.4c0,0.2,0,0.4-0.1,0.6c-1.5,2.4-2.8,5-3.8,7.7c-0.1,0.3-0.2,0.6-0.5,0.8
		c-0.2,0.1-0.6,0.1-0.7-0.2c-0.2-0.3-0.2-0.7-0.2-1c-0.2-1.4-0.3-2.7-0.5-4.1c-0.1-0.7-0.3-1.4-0.8-2c-0.5-0.5-1.2-0.5-1.8-0.4
		c-0.6,0.1-1.1,0.5-1.4,1c-0.4,0.6-0.4,1.4-0.2,2.2c0.2,1.3,0.7,2.5,1.1,3.7c0.9,2.3,1.7,4.5,2.6,6.8c0.2,0.6,0.6,1.2,1.1,1.4
		c0.5,0.2,1.1,0.2,1.6,0.1c0.5-0.1,0.9-0.4,1.1-0.8c0.4-0.7,0.6-1.6,0.9-2.4c0.5-1.7,1-3.3,1.7-4.9c0,3.5,0,7.1,0,10.6
		c-3.8,0-7.5,0-11.3,0c-0.1-1.3-0.3-2.6-0.2-4c0-1.3,0.1-2.6,0.1-3.9c0-1.9-0.2-3.7-0.3-5.6c-0.1-1.4,0-2.9-0.1-4.3
		c1.1-0.7,2.2-1.3,3.3-1.9c0.7-0.4,1.5-0.8,2.1-1.4c0.3-0.3,0.6-0.8,0.4-1.3c-0.4-0.9-1.6-1.4-2.5-1c-0.8,0.3-1.2,1.1-1.9,1.5
		c-0.9,0.5-1.7,1.1-2.6,1.5c-0.7-0.3-1.5-0.5-2.2-0.2c-0.4,0.1-0.8,0.4-0.9,0.8c-0.2,0.4,0,0.9-0.1,1.3c-0.1,0.3-0.3,0.5-0.5,0.6
		c-1,0.6-2,1.1-2.9,1.7c-1,0.6-2,1.3-3.1,1.6c-0.7,0.2-1.5,0.4-1.8,1.1c-0.3,0.7,0.1,1.5,0.6,1.9c0.5,0.4,1.1,0.5,1.7,0.3
		c0.8-0.3,1.4-0.8,2-1.2c0.8-0.6,1.6-1.2,2.4-1.7c0.4-0.3,0.9-0.6,1.4-0.8c0.3-0.1,0.8,0,0.9,0.4c0.3,0.8,0.2,1.6,0.3,2.5
		c0,2.7-0.2,5.5-0.3,8.2c0,1.3,0,2.6,0,3.9c-1,0-2,0-3,0c0-3,0-6.1,0-9.1c-1.9,1.6-3.8,3.2-5.7,4.8c-1.9-1.6-3.8-3.2-5.7-4.8
		c0,3,0,6.1,0,9.1c-6.2,0-12.3,0-18.5,0C75.3,590.6,75.3,579.7,75.3,568.9L75.3,568.9z"/>
	<path id="path7" inkscape:connector-curvature="0" d="M94.9,568.9c1.8,0.8,3.6,1.6,5.5,2.4c0.3,0.1,0.5,0.4,0.7,0.6
		c-0.5,0.6-1.1,1.2-1.7,1.8C97.9,572,96.4,570.5,94.9,568.9z"/>
	<path id="path9" inkscape:connector-curvature="0" d="M124.9,568.8c1,0.6,2,1.2,3,1.8c0,2.2,0,4.4,0,6.6c-1.1,1.2-2.1,2.4-3,3.7
		C124.9,576.9,124.9,572.9,124.9,568.8z"/>
	<path id="path11" inkscape:connector-curvature="0" d="M125.1,587.7c0.8-1.5,1.7-3,2.8-4.4c0,6,0,12.1,0,18.1c-1,0-2,0-3,0
		c0-4.3,0-8.7,0-13C124.9,588.2,125,587.9,125.1,587.7L125.1,587.7z"/>
	<path id="path13" inkscape:connector-curvature="0" d="M95,594.9c0.8,0.7,1.6,1.4,2.5,2.1c0,1.5,0,2.9,0,4.4c-0.8,0-1.7,0-2.5,0
		C95,599.2,95,597.1,95,594.9z"/>
	<path id="path15" inkscape:connector-curvature="0" d="M101.2,597.2c0.9-0.7,1.8-1.5,2.6-2.2c0,0.6,0,1.2,0,1.8
		c-0.2,0.1-0.4,0.3-0.5,0.4C102.6,597.2,101.9,597.2,101.2,597.2z"/>
</g>
</svg>
