<?xml version="1.0" encoding="utf-8"?>
<!-- Generator: Adobe Illustrator 15.0.0, SVG Export Plug-In . SVG Version: 6.00 Build 0)  -->
<!DOCTYPE svg PUBLIC "-//W3C//DTD SVG 1.1//EN" "http://www.w3.org/Graphics/SVG/1.1/DTD/svg11.dtd">
<svg version="1.1" id="svg2" xmlns="http://www.w3.org/2000/svg" xmlns:xlink="http://www.w3.org/1999/xlink" x="0px" y="0px"
	 width="52.8px" height="50px" viewBox="62.5 562 52.8 50" style="enable-background:new 62.5 562 52.8 50;" xml:space="preserve">
<style type="text/css">
<![CDATA[
	.st0{fill:#ED008C;}
]]>
</style>
<path id="path2848" d="M62.5,578.3V562h8.9h8.9l3.1,3.3l3.1,3.3l2.6-2.6c1.4-1.4,2.8-2.9,3.1-3.3l0.5-0.6l9,0.1l9,0.1l0.1,6.9
	l0.1,6.9l-0.7,1.1c-0.8,1.4-2.9,5.7-3.1,6.6c-0.1,0.3-0.3,0.7-0.5,0.9c-0.6,0.5-0.9-0.3-1.2-2.9c-0.5-4-1.1-5-2.8-4.6
	c-1.5,0.3-2.1,1.6-1.7,3.7c0.4,2,3.7,10.5,4.3,11.1c0.7,0.7,2.4,0.7,3,0c0.2-0.3,0.9-2,1.5-3.9c0.6-1.8,1.1-3.4,1.2-3.4
	c0.1,0,0.1,2.3,0.1,5.1v5.1h-5.6h-5.6l-0.1-1.2c-0.1-0.7-0.2-4.7-0.3-8.9l-0.1-7.7l2.4-1.4c2.9-1.7,3.5-2.3,3.3-3.1
	c-0.2-0.7-1.4-1.4-2.2-1.2c-0.3,0.1-1,0.5-1.4,0.9c-0.5,0.4-1.3,1.1-2,1.4c-0.9,0.5-1.3,0.6-2.4,0.6c-1.6-0.1-2.3,0.4-2.3,1.7
	c0,0.8-0.1,0.8-2.7,2.4c-1.5,0.9-3.3,1.8-3.9,2c-0.7,0.2-1.3,0.5-1.5,0.7c-0.4,0.5-0.3,1.5,0.3,2.1c0.8,0.8,2,0.8,3.3-0.2
	c4-3.1,5.1-3.5,5.4-2.3c0.1,0.3,0.1,3.6,0,7.4l-0.2,6.8h-1.5h-1.5l-0.1-4.5l-0.1-4.5l-2.7,2.3c-1.5,1.3-2.8,2.2-2.9,2.2
	c-0.1-0.1-1.4-1.1-2.8-2.3l-2.6-2.2L81,590l-0.1,4.5h-9.2h-9.2L62.5,578.3L62.5,578.3L62.5,578.3z M82.1,591.4
	c0-1.7,0.1-3.1,0.1-3.1s0.6,0.4,1.3,0.9l1.1,0.9v2.2v2.2h-1.3h-1.3V591.4L82.1,591.4z M112.1,587.9v-6.7l1.3-2.1
	c0.7-1.1,1.4-2.2,1.5-2.3c0.1-0.1,0.2,3.2,0.2,8.7v8.9h-1.5h-1.5V587.9L112.1,587.9z M89.6,589.4c0.6-0.6,1.5-1.3,1.5-1.2
	c0,0.5,0.1,2.2-0.1,2.2c-0.4,0-0.9,0-1.4,0h-1L89.6,589.4L89.6,589.4L89.6,589.4z M112.1,568.2c0-3.3,0.1-5.9,0.1-5.9
	s0.8,0.4,1.5,0.8l1.4,0.8v3.2v3.2l-1.3,1.6c-0.7,0.9-1.4,1.7-1.5,1.9C112.2,574,112.1,571.4,112.1,568.2L112.1,568.2z M84.4,564.4
	c-1.2-1.2-2.1-2.2-2-2.2c0.2,0,5.6,2.5,5.8,2.7c0.2,0.2-1.2,1.7-1.5,1.7C86.7,566.6,85.6,565.6,84.4,564.4z"/>
<g id="g3109">
	<path id="path3777" class="st0" d="M62.5,610.6c0-4.1,0-8.3,0-12.4c0.2-1.4,1.7-1.4,2.8-1.3c16.2,0,32.4,0,48.6,0
		c1.5,0,1.5,1.6,1.4,2.7c0,3.8,0.1,7.5,0,11.3c-0.5,1.5-2.2,1-3.4,1.1c-16,0-32.1,0-48.1,0C63.1,612,62.5,611.3,62.5,610.6
		L62.5,610.6z"/>
	<path id="path2994" d="M78.2,608.1c0-2.5,0-5,0-7.6c0.1-0.4,0.6-0.4,0.9-0.3c0.3,0,0.5,0.3,0.4,0.5c0,0.9,0,1.9,0,2.8
		c0.1,0.2,0.4,0.2,0.6,0.2c0.4,0,0.9,0,1.3,0c0.3,0,0.2-0.3,0.2-0.5c0-0.9,0-1.7,0-2.6c0.1-0.3,0.5-0.4,0.8-0.3
		c0.3,0,0.4,0.3,0.4,0.5c0,2.5,0,5,0,7.4c-0.1,0.3-0.5,0.4-0.8,0.4c-0.3,0-0.4-0.3-0.4-0.5c0-1,0-2,0-3c0-0.3-0.3-0.2-0.5-0.2
		c-0.5,0-1,0-1.4,0c-0.3,0-0.2,0.3-0.2,0.5c0,0.9,0,1.8,0,2.8c-0.1,0.4-0.6,0.5-0.9,0.3C78.4,608.5,78.2,608.3,78.2,608.1
		L78.2,608.1z"/>
	<path id="path3764" d="M85.5,608.1c0-2.5,0-5,0-7.6c0.1-0.3,0.5-0.3,0.8-0.3c0.2,0,0.5,0.1,0.4,0.4c0,2.5,0,5,0,7.5
		c0,0.4-0.5,0.5-0.8,0.4C85.7,608.5,85.5,608.4,85.5,608.1L85.5,608.1z"/>
	<path id="path3766" d="M90.2,608.1c0-2.2,0-4.4,0-6.5c-0.1-0.2-0.4-0.2-0.6-0.2c-0.3,0-0.6,0-0.9-0.1c-0.5-0.2-0.4-1.1,0.1-1.1
		c1.3,0,2.5,0,3.8,0c0.6,0.1,0.6,1,0.1,1.2c-0.4,0-0.8,0-1.2,0c-0.2,0-0.2,0.3-0.2,0.5c0,2.1,0,4.2,0,6.3c-0.1,0.4-0.6,0.5-1,0.4
		C90.3,608.5,90.2,608.3,90.2,608.1L90.2,608.1z"/>
	<path id="path3768" d="M95.3,608.1c-0.4-0.2-0.3-0.8,0-1.1c0.3-0.3,0.6,0,0.9,0.2c0.4,0.3,1,0.6,1.6,0.3c0.4-0.2,0.7-0.6,0.6-1.1
		c0-0.6-0.5-1-1-1.2c-0.7-0.3-1.5-0.8-2-1.4c-0.3-0.3-0.5-0.7-0.4-1.1c0-1.1,0.7-2.2,1.8-2.5c0.4-0.1,0.8,0,1.2,0
		c0.5,0.1,1.1,0.3,1.4,0.8c0.3,0.4-0.1,1-0.6,0.9c-0.4-0.1-0.7-0.6-1.1-0.6c-0.5-0.1-1.1,0.1-1.3,0.6c-0.1,0.3-0.2,0.7,0,1
		c0.3,0.5,0.9,0.7,1.3,1c0.6,0.3,1.4,0.7,1.7,1.3c0.4,0.6,0.3,1.4,0,2.1c-0.3,0.8-1.1,1.4-2,1.4C96.6,608.7,95.9,608.5,95.3,608.1
		L95.3,608.1z"/>
</g>
</svg>
