<?xml version="1.0" encoding="utf-8"?>
<!-- Generator: Adobe Illustrator 15.0.0, SVG Export Plug-In . SVG Version: 6.00 Build 0)  -->
<!DOCTYPE svg PUBLIC "-//W3C//DTD SVG 1.1//EN" "http://www.w3.org/Graphics/SVG/1.1/DTD/svg11.dtd">
<svg version="1.1" id="svg3153" xmlns:svg="http://www.w3.org/2000/svg"
	 xmlns="http://www.w3.org/2000/svg" xmlns:xlink="http://www.w3.org/1999/xlink" x="0px" y="0px" width="89.5px" height="50px"
	 viewBox="-8.6 -5.2 89.5 50" style="enable-background:new -8.6 -5.2 89.5 50;" xml:space="preserve">
<style type="text/css">
<![CDATA[
	.st0{fill:url(#SVGID_1_);}
]]>
</style>
<radialGradient id="SVGID_1_" cx="37.5579" cy="-2.543" r="62.5293" gradientUnits="userSpaceOnUse">
	<stop  offset="0" style="stop-color:#F6F4A1"/>
	<stop  offset="0.2002" style="stop-color:#F2EE9D"/>
	<stop  offset="0.4609" style="stop-color:#E6DE92"/>
	<stop  offset="0.7539" style="stop-color:#D2C381"/>
	<stop  offset="1" style="stop-color:#BDA76E"/>
</radialGradient>
<rect x="-8.6" y="-5.2" class="st0" width="89.5" height="50"/>
<path id="path2964" d="M39.8,9.5c0,0-3.5,13.1-3.8,14.5L32.3,9.5h-7.2v20.2h4.7V14.8l4.1,14.8h4.3c0,0,4-14.4,4.1-14.8v14.8h4.7V9.5
	H39.8z"/>
<path id="path2968" d="M22.6,26.4V15.9c0-2.1,0-4-2.4-5.4c-1.7-1-4-1.3-5.9-1.3c-1.3,0-6,0-7.9,3.4c-0.6,1.1-0.7,1.9-0.8,2.9h0h0v0
	l4.9,0l0,0c0-0.4,0.1-0.9,0.5-1.4c0.5-0.6,1.5-1.3,3.5-1.3c3.9,0,3.3,3.9,3.3,3.9s-2,0-6.1,0.5c-1.9,0.2-5,1-6.4,3.8
	c-0.4,0.8-0.6,1.7-0.6,2.7c0,3.4,2.7,6.2,7.2,6.2c2.7,0,4.8-1.1,5.9-2c0,0.3,0.1,1.1,0.1,1.5h4.8C22.6,26.4,22.6,27.9,22.6,26.4
	 M17.8,21.9c0,0.6,0,1.2-0.3,1.8C17,24.9,15.3,26,12.9,26c-1.9,0-3.2-0.8-3.2-2.3c0-2.1,2-2.6,3.7-2.8c2.1-0.3,4.5-0.3,4.5-0.3V21.9
	z"/>
<path id="path2972" d="M67.9,21.8l-4.6,0c-0.1,0.6-1.1,4.2-4.7,4.2c-0.1,0-0.6,0-0.7,0c-2.6-0.1-4.8-2.3-4.8-6.6
	c0-3.3,1.7-6.3,4.9-6.4h0.6c3.3,0,4.4,3.4,4.5,3.7l4.6,0c-0.9-4.3-4.3-7.8-9.3-7.8c-5.7,0-9.8,4.7-9.8,10.7c0,6.8,4.3,10.7,9.7,10.7
	C64.2,30.2,67.3,25.7,67.9,21.8"/>
</svg>
