<?xml version="1.0" encoding="utf-8"?>
<!-- Generator: Adobe Illustrator 15.0.0, SVG Export Plug-In . SVG Version: 6.00 Build 0)  -->
<!DOCTYPE svg PUBLIC "-//W3C//DTD SVG 1.1//EN" "http://www.w3.org/Graphics/SVG/1.1/DTD/svg11.dtd">
<svg version="1.1"
	 id="svg2985" xmlns:svg="http://www.w3.org/2000/svg" xmlns:rdf="http://www.w3.org/1999/02/22-rdf-syntax-ns#" xmlns:cc="http://creativecommons.org/ns#" xmlns:dc="http://purl.org/dc/elements/1.1/"
	 xmlns="http://www.w3.org/2000/svg" xmlns:xlink="http://www.w3.org/1999/xlink" x="0px" y="0px" width="110px" height="40.29px"
	 viewBox="5 159.39 110 40.29" style="enable-background:new 5 159.39 110 40.29;" xml:space="preserve">
<style type="text/css">
<![CDATA[
	.st0{fill:#3CADE2;}
]]>
</style>
<g id="g2999">
	<path id="path3005" class="st0" d="M89.82,185.17c-2.19-0.27-2.46-2.46-2.19-3.56c0-0.82,0.27-3.01,0.82-3.56
		c0.27-0.55,1.37-1.64,1.91-1.64c0,0-0.27,1.92,0.27,3.01c0.27,1.09,1.64,3.01,1.64,3.01S91.73,185.17,89.82,185.17z M62.74,178.06
		c0.82-1.09,1.64-1.92,2.74-1.37c0.82,0.55,0,2.46-0.55,3.01c-0.82,0.55-3.01,1.64-3.01,1.64S61.92,179.43,62.74,178.06z
		 M15.15,192.83c-1.09,2.19-2.73,5.74-5.47,3.01c0,0-2.19-3.28,0.55-5.47c2.46-2.46,6.56-3.83,6.56-3.83S16.24,190.91,15.15,192.83z
		 M49.61,165.75c1.09,0.27-1.09,7.38-2.19,8.48C47.42,174.23,48.24,165.48,49.61,165.75z M75.05,170.67
		c0.27-1.91,1.09-4.92,1.92-4.65c1.09,0,0.82,2.19,0,4.92c-1.09,2.74-2.74,5.2-2.74,5.2S74.5,172.59,75.05,170.67z M114.98,178.88
		c-0.55-1.09-0.82-0.82-1.09-0.27c0,0.82-2.74,6.56-4.92,6.84c-2.19,0-4.1-3.01-4.65-3.56c0.82-2.74,7.66-8.21,7.66-8.21
		s-1.09-1.37-2.19-1.92c-1.09-0.55-1.64,0-2.19,0.55c-0.55,0.55-4.65,7.38-4.65,7.38s-1.37-2.46-1.37-3.01
		c0.82-1.91,0.82-3.56-0.55-4.1c-1.09-0.27-2.19,0.55-3.01,1.64c-0.82,0.82,0.82,4.92,0.82,4.92s-1.91,2.46-3.83,1.92
		c0.27-3.28-0.55-6.02-1.64-6.56c-2.19-0.82-1.09,0-2.46,0.27c-4.1,0.27-4.92,3.56-6.02,5.2c-1.09,1.92-3.01,1.09-3.01,1.09
		c0-0.27-0.27-9.03-3.83-6.29c-4.1,3.28,1.09,7.66,1.09,7.66s-0.82,3.01-2.46,3.28c-1.64,0-2.74-4.1-2.46-6.02
		c1.91-1.91,9.03-15.86,3.01-17.78c-5.2-0.55-6.56,18.87-6.56,18.87s-3.28,4.65-6.02,5.2c-2.74,0.27-2.46-2.19-2.46-3.01
		c0.82,0,0.82-0.27,1.91-0.55c3.83-1.64,7.39-8.21,2.19-8.75c-5.47-0.55-7.66,8.21-7.66,8.48c-0.27,0.27-1.37,2.74-3.28,3.01
		c-1.91,0-2.74-3.56-2.74-3.56s1.09-0.82,2.19-1.92c0.82-1.09,3.01-6.02-0.82-6.29c-3.56-0.55-6.84,5.74-6.84,5.74s0-1.09,0-1.37
		c2.46-2.74,7.93-15.32,2.19-15.87c-5.2,0-5.74,18.05-5.74,18.05s-3.01,5.74-4.65,5.74s-1.91-6.56-1.64-6.84s3.01-5.74-0.27-5.74
		c-3.01-0.27-3.28,7.66-3.28,7.93c0,0-2.19,4.65-3.56,4.65c-1.64,0-1.37-4.1-0.82-5.74c0.55-1.91,2.19-5.74,0.27-6.29
		c-2.19-0.27-3.56,4.38-3.56,5.47c-0.55,0.82-4.38,2.74-4.38,2.74c1.09-9.3,0.55-18.05,0.55-19.15c1.09-0.55,2.74-2.74,0-3.28
		c-2.46-0.55-3.56,2.19-3.56,2.19s-1.92,0.82-5.74,1.37c-3.56,0.82-6.29,0.55-6.29,0.55c0,2.19,2.19,4.38,2.74,4.92
		c0.55,0.27,1.09,0,1.37,0c0.27,0,4.65-1.92,7.38-3.56c0.27,0.27,0,16.96-0.82,18.87c-1.91,0.82-10.94,4.1-12.04,7.93
		c-0.82,3.01-0.27,8.21,5.74,7.93c8.21-0.27,10.12-15.04,10.12-15.04l4.65-2.74c0,0-0.82,6.02,2.19,6.56
		c3.01,0.82,6.02-4.1,6.02-4.1s1.09,4.92,3.83,5.2c2.74,0,5.47-5.47,5.47-5.47s0,2.46,0,3.01c0,0.55,0,1.37,1.09,1.37
		c1.09-0.27,2.73-1.64,2.73-1.64s0-2.46,0.27-3.56c0-1.09,3.01-7.11,4.65-6.84c1.92,0.27-0.55,4.1-1.09,4.1
		c-0.55,0-1.91,0.27-2.46,1.37c-0.27,0.82,1.09,1.09,1.09,1.09s0.82,5.2,3.56,5.74c2.74,0.82,5.47-3.56,5.47-3.56
		s0.27,3.83,4.38,3.83c4.38,0,7.93-5.74,7.93-5.74s0,5.47,5.2,5.47c4.92,0.27,4.65-5.47,5.2-5.47c3.28,0,3.01-1.09,3.01-0.27
		c0,0.82-0.55,5.47,4.65,5.47c4.92-0.27,4.92-4.92,5.47-5.2c3.56,0.27,4.92-2.46,4.92-2.46l1.37,2.19c0,0-1.91,4.92-2.19,5.74
		c0,1.09,1.64,1.64,1.64,1.64l2.19-4.92c0,0,2.19,3.83,5.2,3.56C112.25,189,115.26,179.7,114.98,178.88"/>
	<path id="path3007" class="st0" d="M20.62,195.84c1.37-1.92,55.8-8.75,80.69-3.28c4.65,1.37,2.73,6.02,0.27,5.2
		c-18.87-6.56-65.65-4.38-78.78-0.55C22.26,197.2,20.34,196.38,20.62,195.84"/>
</g>
</svg>
