<?xml version="1.0" encoding="utf-8"?>
<!-- Generator: Adobe Illustrator 15.0.0, SVG Export Plug-In . SVG Version: 6.00 Build 0)  -->
<!DOCTYPE svg PUBLIC "-//W3C//DTD SVG 1.1//EN" "http://www.w3.org/Graphics/SVG/1.1/DTD/svg11.dtd">
<svg version="1.1"
	 id="Super-RTL_logo2007" inkscape:version="0.48.2 r9819" sodipodi:docname="AJAX1.svg" xmlns:dc="http://purl.org/dc/elements/1.1/" xmlns:cc="http://creativecommons.org/ns#" xmlns:rdf="http://www.w3.org/1999/02/22-rdf-syntax-ns#" xmlns:svg="http://www.w3.org/2000/svg" xmlns:sodipodi="http://sodipodi.sourceforge.net/DTD/sodipodi-0.dtd" xmlns:inkscape="http://www.inkscape.org/namespaces/inkscape"
	 xmlns="http://www.w3.org/2000/svg" xmlns:xlink="http://www.w3.org/1999/xlink" x="0px" y="0px" width="110px" height="19px"
	 viewBox="384.3 66.4 110 19" style="enable-background:new 384.3 66.4 110 19;" xml:space="preserve">
<style type="text/css">
<![CDATA[
	.st0{fill:#E04D04;}
	.st1{fill:#FFFFFF;}
	.st2{fill:url(#box_links_bg_1_);}
]]>
</style>
<sodipodi:namedview  id="namedview15" inkscape:current-layer="g3926" inkscape:window-y="-8" inkscape:window-x="-8" fit-margin-bottom="0" fit-margin-right="0" inkscape:window-height="1004" inkscape:window-width="1280" inkscape:pageshadow="2" inkscape:pageopacity="0" inkscape:window-maximized="1" inkscape:cy="131.33288" inkscape:cx="788.34804" bordercolor="#666666" inkscape:zoom="0.87925607" pagecolor="#ffffff" guidetolerance="10" gridtolerance="10" fit-margin-left="0" objecttolerance="10" fit-margin-top="0" borderopacity="1" showgrid="false">
	</sodipodi:namedview>
<defs>
	
	
		<inkscape:perspective  id="perspective3893-0" inkscape:persp3d-origin="0.5 : 0.33333333 : 1" inkscape:vp_x="0 : 0.5 : 1" inkscape:vp_y="0 : 1000 : 0" sodipodi:type="inkscape:persp3d" inkscape:vp_z="1 : 0.5 : 1">
		</inkscape:perspective>
	
		<inkscape:perspective  id="perspective3893" inkscape:persp3d-origin="0.5 : 0.33333333 : 1" inkscape:vp_x="0 : 0.5 : 1" inkscape:vp_y="0 : 1000 : 0" sodipodi:type="inkscape:persp3d" inkscape:vp_z="1 : 0.5 : 1">
		</inkscape:perspective>
	
		<inkscape:perspective  id="perspective3266" inkscape:persp3d-origin="0.5 : 0.33333333 : 1" inkscape:vp_x="0 : 0.5 : 1" inkscape:vp_y="0 : 1000 : 0" sodipodi:type="inkscape:persp3d" inkscape:vp_z="1 : 0.5 : 1">
		</inkscape:perspective>
	
		<inkscape:perspective  id="perspective5584" inkscape:persp3d-origin="372.04724 : 350.78739 : 1" inkscape:vp_x="0 : 526.18109 : 1" inkscape:vp_y="0 : 1000 : 0" sodipodi:type="inkscape:persp3d" inkscape:vp_z="744.09448 : 526.18109 : 1">
		</inkscape:perspective>
</defs>
<g>
	<g id="box_links" transform="translate(0,7.3242188e-6)">
		
			<linearGradient id="box_links_bg_1_" gradientUnits="userSpaceOnUse" x1="334.4653" y1="137.052" x2="355.7113" y2="137.052" gradientTransform="matrix(1.25 0 0 1.25 -4.0209 -95.4114)">
			<stop  offset="0" style="stop-color:#FB8C01"/>
			<stop  offset="1" style="stop-color:#E35202"/>
		</linearGradient>
		<path id="box_links_bg" inkscape:connector-curvature="0" class="st2" d="M388.9,66.4c-2.6,0-4.6,2.1-4.6,4.6v9.7
			c0,2.6,2.1,4.6,4.6,4.6h46.5c3,0,5.5-2.4,5.5-5.5v-8.1c0-2.3,1.2-4.3,2.9-5.5H388.9"/>
		<path id="text_SUPER" inkscape:connector-curvature="0" class="st1" d="M429.9,75l-1,0v-1.9l1.2,0c0.6,0,0.9,0.4,0.9,1
			C431,74.6,430.7,75,429.9,75 M432.2,77.3c-0.2-0.2-0.5-0.5-0.7-0.5c1.4-0.4,2.3-1.4,2.3-2.9c0-1.9-1.6-3.2-3.6-3.1l-3.9,0V81h2.7
			v-0.9c0-0.2,0-2.2,0-2.6c0.1,0.1,0.3,0.2,0.6,0.5L431,80c0.3,0.4,0.7,0.6,0.8,0.8c0.3,0.2,0.7,0.3,1.1,0.3h2.4L432.2,77.3 M417,81
			h7.4v-2.4l-4.7,0v-1.7l2.3,0c1,0,1.8-0.5,1.8-1.5l0-1l-4,0v-1.4l2.8,0c1.1,0,1.8-0.5,1.8-1.5v-1H417V81 M411.4,75.2
			c-0.2,0-0.4,0-0.6,0c0-0.4,0-1.3,0-1.5V73l0.7,0c0.8,0,1.5,0,1.5,1C413,74.9,412.7,75.2,411.4,75.2 M413.9,71.2
			c-0.6-0.3-1.1-0.4-2.1-0.4l-3.7,0V81h2.7v-1.7c0-0.9,0-1.4-0.1-1.8c0.3,0,0.6,0,0.8,0c2.4,0,4.1-1.3,4.1-3.5
			C415.6,72.7,415,71.7,413.9,71.2 M402,81.2c2.5,0,4.1-1.3,4.1-3.6v-6.8h-2.7v6.8c0,0.8-0.4,1.2-1.4,1.2c-0.9,0-1.4-0.5-1.4-1.2
			v-5.1c0-1.1-0.5-1.8-1.5-1.8h-1.2v6.8C397.9,79.8,399.5,81.2,402,81.2 M392.1,81.2c2.4,0,4.2-1.1,4.2-3.1c0-1.2-0.7-2.2-2.1-3
			l-1.5-0.9c-0.6-0.4-0.8-0.6-0.8-0.8c0-0.2,0.2-0.6,1.1-0.6c0.6,0,1.2,0.1,2.2,0.5l0.6-2.4c-1.3-0.3-2.1-0.4-2.9-0.4
			c-2.1,0-3.8,1.1-3.8,3c0,1.1,0.6,1.9,1.7,2.6l1.8,1.1c0.6,0.4,0.8,0.7,0.8,1c0,0.3-0.3,0.6-1.4,0.6c-0.6,0-1.2-0.1-2.4-0.4
			l-0.6,2.3C390.5,81.1,391.3,81.2,392.1,81.2"/>
	</g>
	<g id="box_rechts" transform="translate(0,7.3242188e-6)">
		<path id="box_rechts_bg_orange" inkscape:connector-curvature="0" class="st0" d="M489.2,66.4h-40.6c-3,0-5.5,2.4-5.5,5.5V80
			c0,2.3-1.2,4.3-2.9,5.5h49c2.8,0,5.1-2.3,5.1-5.1v-8.5C494.3,68.9,492,66.4,489.2,66.4"/>
		<path id="box_rechts_bg_weiss" inkscape:connector-curvature="0" class="st1" d="M441.8,84.8c1.2-1.3,1.9-3,1.9-4.8v-8.1
			c0-1.3,0.5-2.5,1.4-3.4c0.9-0.9,2.1-1.4,3.4-1.4h40.6c1.2,0,2.3,0.5,3.2,1.4c0.9,0.9,1.3,2.1,1.3,3.3v8.5c0,1.2-0.5,2.3-1.3,3.2
			c-0.9,0.9-2,1.3-3.2,1.3H441.8"/>
		<path id="text_RTL" inkscape:connector-curvature="0" class="st0" d="M482.9,72.8V78h7.4v1.6h-13.2v-6.9H482.9 M475.4,72.8l0,1.6
			h-3.8v5.2h-5.4l0-5.2h-3.8v-1.6H475.4 M455.4,75.9l-2.4,0l0-1.5l2.3,0c0.5,0,0.7,0.4,0.7,0.7C456.1,75.5,455.8,75.8,455.4,75.9
			 M458.6,77.2l0.1,0c1.1,0,2.1-0.9,2.1-2.1c0-1.6-1.2-2.3-2.3-2.3H448l0,6.9h5v-2.2l1,0l2.6,2.3h5.3L458.6,77.2"/>
	</g>
</g>
</svg>
