<?xml version="1.0" encoding="utf-8"?>
<!-- Generator: Adobe Illustrator 15.0.0, SVG Export Plug-In . SVG Version: 6.00 Build 0)  -->
<!DOCTYPE svg PUBLIC "-//W3C//DTD SVG 1.1//EN" "http://www.w3.org/Graphics/SVG/1.1/DTD/svg11.dtd">
<svg version="1.1" id="Layer_1" xmlns="http://www.w3.org/2000/svg" xmlns:xlink="http://www.w3.org/1999/xlink" x="0px" y="0px"
	 width="113.8px" height="50px" viewBox="0 0 113.8 50" style="enable-background:new 0 0 113.8 50;" xml:space="preserve">
<style type="text/css">
<![CDATA[
	.st0{fill:url(#SVGID_2_);}
	.st1{fill:#FFFFFF;}
	.st2{fill-rule:evenodd;clip-rule:evenodd;fill:url(#SVGID_1_);enable-background:new    ;}
]]>
</style>
<g>
	<g>
		<linearGradient id="SVGID_1_" gradientUnits="userSpaceOnUse" x1="3.2861" y1="24.9653" x2="113.5894" y2="24.9653">
			<stop  offset="0" style="stop-color:#F15928"/>
			<stop  offset="0.5894" style="stop-color:#DD4D27"/>
			<stop  offset="1" style="stop-color:#D64827"/>
		</linearGradient>
		<polygon class="st2" points="3.3,0 52.1,11.5 113.6,11.8 113.6,49.6 3.3,49.9 		"/>
		<path class="st1" d="M9.5,17.4v32.5l8.4,0.1l0.1-8.9l5.5,0.1c9.1,0.1,9.8-4.9,9.8-9.8c0-6.3-2.1-11-10.3-12.1L9.5,17.4L9.5,17.4z
			 M18.1,25.7l3.4,0.4c3.9,0.4,4.7,2.1,4.8,3.6c0.2,2.6-0.4,4.5-2.5,4.5l-5.7,0V25.7L18.1,25.7z M34.3,49.9l6.6,0V38.5
			c0-3.9,3.2-4.3,6.8-3.6v-7.7c-0.6-0.1-1.7-0.1-2.5-0.1c-2.1,0.2-4.2,1.6-4.5,3.8l-0.1,0v-4.2l-6.3-0.8V49.9L34.3,49.9z M48.5,28.2
			l5.6,0.8v20.9h-5.6V28.2L48.5,28.2z M48.5,20l5.7,0.9v6.4l-5.7-0.9V20L48.5,20z M62.9,31.7v-3.1h-7.1V50h7.5V38.1
			c0.4-4.4,5.6-4.7,6.1-1.1v13h7.5V37.9c0.3-3.8,5.6-4.8,6.1-0.8V50h7.5V35c-1.2-9.7-11.8-8.2-14.6-3.3
			C73.1,27.1,67.4,25.9,62.9,31.7L62.9,31.7z M113.8,33.7c-0.5-2.8-2.5-4.8-6.6-5.5c-4.4-0.3-7.9,0-10.4,1.1c-3.3,1.7-4.5,4-4.2,6.9
			h6.9c0.6-2,1.8-3,3.6-3.1c0.9,0,2,0.2,2.7,0.7c1.3,1,1.7,2.8-0.3,3.6c-1.9,0.5-5.8,0.7-7.5,1.1c-0.5,0.1-0.9,0.2-1.2,0.4
			c-1.9,0.7-3.6,1.7-4.7,3.4c-0.9,1.5-1.1,3.2-0.4,5.3c0.4,1.2,1,2,1.8,2.5h20.4V33.7L113.8,33.7z M106.4,41c0.2,2.2,0,4-0.8,5.2
			c-0.8,1.3-2,1.5-3.4,1.5c-2.4-0.1-3.3-1.1-3.3-3C99.8,41.2,104.7,43,106.4,41z"/>
	</g>
	<linearGradient id="SVGID_2_" gradientUnits="userSpaceOnUse" x1="1.6431" y1="34.2974" x2="1.6431" y2="13.936">
		<stop  offset="0" style="stop-color:#F15928"/>
		<stop  offset="0.5894" style="stop-color:#DD4D27"/>
		<stop  offset="1" style="stop-color:#D64827"/>
	</linearGradient>
	<rect class="st0" width="3.3" height="49.9"/>
</g>
</svg>
