<?xml version="1.0" encoding="utf-8"?>
<!-- Generator: Adobe Illustrator 15.0.0, SVG Export Plug-In . SVG Version: 6.00 Build 0)  -->
<!DOCTYPE svg PUBLIC "-//W3C//DTD SVG 1.1//EN" "http://www.w3.org/Graphics/SVG/1.1/DTD/svg11.dtd">
<svg version="1.1" id="svg2" xmlns:svg="http://www.w3.org/2000/svg"
	 xmlns="http://www.w3.org/2000/svg" xmlns:xlink="http://www.w3.org/1999/xlink" x="0px" y="0px" width="110px" height="25px"
	 viewBox="251 57 110 25" style="enable-background:new 251 57 110 25;" xml:space="preserve">
<style type="text/css">
<![CDATA[
	.st0{fill:#FFFFFF;}
	.st1{fill:#CE1F37;}
]]>
</style>
<g id="g3618">
	<path id="polygon42" class="st1" d="M351.9,82h-24.3l9.1-25H361L351.9,82z"/>
	<path id="polygon40" class="st1" d="M325.5,82H251l9.1-25h74.5L325.5,82z"/>
	<path id="path52" class="st0" d="M339.3,60.8h14.6l-1.2,3.2h-10.9l-1.3,3.4c1.3-0.7,3.7-1,5-1c3.6,0,7.6,1.3,6.7,5.8
		c-0.9,4.4-5.4,6.3-10,6.3c-3.6,0-7.8-1-7.1-5.6h4.8c0.1,1.8,0.9,2.3,2.9,2.3c2.8,0,4.3-1,4.7-2.9c0.5-2.5-2.1-3-3.5-3
		c-1.2,0-2.7,0.3-3.8,1.2h-4.5L339.3,60.8z"/>
	<path id="polygon44" class="st0" d="M267.3,64.4h-6l1.3-3.6h17l-1.3,3.6h-5.9l-5,13.9h-5.1L267.3,64.4z"/>
	<path id="polygon46" class="st0" d="M281.9,74.7h9.4l-1.3,3.6h-14.6l6.3-17.4h14.6l-1.2,3.6h-9.5l-1.1,3.2h9l-1.3,3.6h-9
		L281.9,74.7z"/>
	<path id="polygon48" class="st0" d="M299.2,74.7h8.4l-1.2,3.6h-13.7l6.3-17.4h5.2L299.2,74.7z"/>
	<path id="polygon50" class="st0" d="M314.8,74.7h9.4l-1.2,3.6h-14.7l6.3-17.4h14.7l-1.2,3.6h-9.5l-1.1,3.2h9l-1.3,3.6h-9
		L314.8,74.7z"/>
</g>
</svg>
