<?xml version="1.0" encoding="utf-8"?>
<!-- Generator: Adobe Illustrator 15.0.0, SVG Export Plug-In . SVG Version: 6.00 Build 0)  -->
<!DOCTYPE svg PUBLIC "-//W3C//DTD SVG 1.1//EN" "http://www.w3.org/Graphics/SVG/1.1/DTD/svg11.dtd">
<svg version="1.1" id="Layer_3" xmlns="http://www.w3.org/2000/svg" xmlns:xlink="http://www.w3.org/1999/xlink" x="0px" y="0px"
	 width="209.7px" height="300px" viewBox="72.8 100.3 209.7 300" style="enable-background:new 72.8 100.3 209.7 300;"
	 xml:space="preserve">
<style type="text/css">
<![CDATA[
	.st0{fill:#52602B;}
	.st1{fill:url(#SVGID_1_);}
	.st2{fill:#949599;}
	.st3{fill:#FFFFFF;}
]]>
</style>
<linearGradient id="SVGID_1_" gradientUnits="userSpaceOnUse" x1="94.9399" y1="207.325" x2="308.3022" y2="399.0309" gradientTransform="matrix(1 0 0 -1 -24.8398 509.4009)">
	<stop  offset="8.060000e-002" style="stop-color:#52602B"/>
	<stop  offset="1" style="stop-color:#B9C932"/>
</linearGradient>
<polygon class="st1" points="73,100.3 73,310.1 142.1,310.1 142.1,214.9 219.7,310.4 282.5,310.4 282.5,100.3 213,100.3 213,171.6 
	229.6,213.1 138,100.3 "/>
<rect x="72.8" y="317.3" class="st2" width="209.6" height="40.6"/>
<g>
	<path class="st0" d="M72.8,365.9h6.9l15.9,20.9v-20.9h7.4v33.9h-6.3l-16.4-21.5v21.5h-7.4V365.9z"/>
	<path class="st0" d="M124.4,365.7h6.9l14.5,34.1H138l-3.1-7.6h-14.3l-3.1,7.6h-7.6L124.4,365.7z M132.2,385.6l-4.5-11l-4.5,11
		H132.2z"/>
	<path class="st0" d="M156.3,372.8H146v-6.9h28.1v6.9h-10.3v27h-7.5V372.8z"/>
	<path class="st0" d="M181,385.3v-19.4h7.5v19.2c0,5.5,2.8,8.4,7.3,8.4s7.3-2.8,7.3-8.1v-19.4h7.5V385c0,10.3-5.8,15.3-14.9,15.3
		C186.5,400.3,181,395.3,181,385.3z"/>
	<path class="st0" d="M219.8,365.9h15.5c4.3,0,7.6,1.2,9.9,3.4c1.9,1.9,2.9,4.5,2.9,7.7v0.1c0,5.5-3,8.9-7.3,10.5l8.3,12.1h-8.7
		l-7.3-10.8h-5.9v10.8h-7.5V365.9z M234.9,382.4c3.6,0,5.7-1.9,5.7-4.8v-0.1c0-3.2-2.2-4.8-5.9-4.8h-7.4v9.7H234.9L234.9,382.4z"/>
	<path class="st0" d="M256.6,365.9h25.6v6.6H264v6.9h16v6.6h-16v7.1h18.4v6.6h-25.8V365.9L256.6,365.9z"/>
</g>
<g>
	<path class="st3" d="M124.9,325.3c-0.2,0.4-5.9,15.8-5.9,15.8s-5.8-15.3-5.9-15.8c-0.4,0-6.3,0-7.1,0c0.4,0.9,10.4,24.2,10.6,24.6
		c0.4,0,4.5,0,4.9,0c0.2-0.4,10.2-23.7,10.6-24.6C131.1,325.3,125.3,325.3,124.9,325.3z"/>
	<path class="st3" d="M136.4,325.3c0,0.7,0,23.9,0,24.5c0.6,0,6.3,0,6.9,0c0-0.7,0-23.9,0-24.5C142.7,325.3,137,325.3,136.4,325.3z"
		/>
	<path class="st3" d="M158.2,325.3c-0.2,0.4-10.2,23.7-10.6,24.6c0.9,0,6.7,0,7.1,0c0.1-0.4,1-2.8,1-2.8h9.8c0,0,0.9,2.4,1,2.8
		c0.4,0,6.2,0,7.1,0c-0.4-0.9-10.4-24.2-10.6-24.6C162.7,325.3,158.6,325.3,158.2,325.3z M160.7,334.1l3.2,8.4h-6.3L160.7,334.1z"/>
	<path class="st3" d="M211.3,325.3c-0.2,0.4-10.2,23.7-10.6,24.6c0.9,0,6.7,0,7.1,0c0.1-0.4,1-2.8,1-2.8h9.8c0,0,0.9,2.4,1,2.8
		c0.4,0,6.2,0,7.1,0c-0.4-0.9-10.4-24.2-10.6-24.6C215.8,325.3,211.7,325.3,211.3,325.3z M213.8,334.1l3.2,8.4h-6.3L213.8,334.1z"/>
	<path class="st3" d="M185.4,325c-6.2,0-9.2,2.1-9.2,6.3v2.9c0,2.2,0.9,3.9,2.5,4.7c1.2,0.6,2.7,0.8,6.4,0.8h4.8
		c1.5,0,2.2,0.6,2.2,2.1v0.3c0,1.5-0.6,2.1-2.2,2.1h-5.3c-0.8,0-1.3-0.2-1.7-0.5c-0.3-0.3-0.4-0.7-0.4-1.2c-0.6,0-5.6,0.2-6.3,0.3
		c0.8,5.1,3.3,7,9.2,7h3.8c6.2,0,9.2-2.1,9.2-6.4v-2.9c0-2.2-0.9-3.9-2.5-4.7c-1.2-0.6-2.7-0.8-6.4-0.8h-4.8c-1.5,0-2.2-0.6-2.2-2.1
		v-0.3c0-1.5,0.7-2.1,2.2-2.1h5.3c0.8,0,1.3,0.2,1.7,0.5c0.3,0.3,0.4,0.7,0.4,1.2c0.6-0.1,5.6-0.5,6.3-0.5c-1-4.9-3.4-6.7-9.2-6.7
		L185.4,325L185.4,325z"/>
	<path class="st3" d="M224.9,325.3c0,0.6,0,5.3,0,5.9c0.6,0,8.8,0,8.8,0v9.5c0,0,0,0,0,0v0c0,0,0,8.4,0,9c0.6,0,6.3,0,6.9,0
		c0-0.7,0-18.6,0-18.6s8.2,0,8.8,0c0-0.6,0-5.3,0-5.9C248.8,325.3,225.5,325.3,224.9,325.3z"/>
</g>
</svg>
