<?xml version="1.0" encoding="utf-8"?>
<!-- Generator: Adobe Illustrator 15.0.0, SVG Export Plug-In . SVG Version: 6.00 Build 0)  -->
<!DOCTYPE svg PUBLIC "-//W3C//DTD SVG 1.1//EN" "http://www.w3.org/Graphics/SVG/1.1/DTD/svg11.dtd">
<svg version="1.1"
	 id="svg5115" inkscape:version="0.48.4 r9939" sodipodi:docname="Logo Universal Channel mit Claim.svg" xmlns:dc="http://purl.org/dc/elements/1.1/" xmlns:cc="http://creativecommons.org/ns#" xmlns:rdf="http://www.w3.org/1999/02/22-rdf-syntax-ns#" xmlns:svg="http://www.w3.org/2000/svg" xmlns:sodipodi="http://sodipodi.sourceforge.net/DTD/sodipodi-0.dtd" xmlns:inkscape="http://www.inkscape.org/namespaces/inkscape"
	 xmlns="http://www.w3.org/2000/svg" xmlns:xlink="http://www.w3.org/1999/xlink" x="0px" y="0px" width="39.4px" height="28px"
	 viewBox="383 272.5 39.4 28" style="enable-background:new 383 272.5 39.4 28;" xml:space="preserve">
<style type="text/css">
<![CDATA[
	.st0{fill:url(#path4523_1_);}
	.st1{fill:#54276C;}
	.st2{fill:#311345;}
	.st3{fill:url(#path4519_1_);}
]]>
</style>
<sodipodi:namedview  units="px" id="base" inkscape:window-y="-8" inkscape:window-x="1358" inkscape:window-height="1028" inkscape:window-width="1920" fit-margin-right="1" fit-margin-bottom="1" inkscape:current-layer="layer1" inkscape:document-units="mm" inkscape:pageshadow="2" inkscape:pageopacity="0.0" inkscape:window-maximized="1" inkscape:cy="-60.20475" inkscape:cx="86.503576" inkscape:zoom="0.49497475" fit-margin-top="1" borderopacity="1.0" fit-margin-left="1" bordercolor="#666666" showgrid="false" pagecolor="#ffffff">
	</sodipodi:namedview>
<g>
	<linearGradient id="path4519_1_" gradientUnits="userSpaceOnUse" x1="401.5854" y1="296.5364" x2="403.2841" y2="280.577">
		<stop  offset="0.2243" style="stop-color:#351849"/>
		<stop  offset="1" style="stop-color:#FFFFFF"/>
	</linearGradient>
	<path id="path4519" inkscape:connector-curvature="0" class="st3" d="M414,289.4h-0.2c-1.3,5.1-6,8.9-11.5,8.9
		c-5.5,0-10.2-3.8-11.5-8.9h-2.2c0.5,2.2,1.5,4.3,2.9,6l1.9-0.1l-0.2,1.9c2.4,2.1,5.6,3.3,9.1,3.3c6.7,0,12.4-4.8,13.7-11.1H414"/>
	<linearGradient id="path4523_1_" gradientUnits="userSpaceOnUse" x1="397.1309" y1="274.2195" x2="409.5116" y2="293.3171">
		<stop  offset="0" style="stop-color:#351849"/>
		<stop  offset="1" style="stop-color:#FFFFFF"/>
	</linearGradient>
	<path id="path4523" inkscape:connector-curvature="0" class="st0" d="M391,282.9c1.5-4.8,6-8.3,11.3-8.3c5.3,0,9.8,3.5,11.3,8.3
		h2.2c-1.6-6-7-10.4-13.5-10.4c-6.6,0-12,4.4-13.6,10.4H391"/>
	<path id="path4527" inkscape:connector-curvature="0" class="st1" d="M392.7,290.7L392.7,290.7c0-0.7,0.5-1.3,1.3-1.3
		c0.5,0,0.8,0.2,1,0.4l-0.4,0.4c-0.2-0.2-0.4-0.3-0.7-0.3c-0.4,0-0.7,0.4-0.7,0.8v0c0,0.4,0.3,0.8,0.7,0.8c0.3,0,0.5-0.1,0.7-0.3
		l0.4,0.4c-0.3,0.3-0.6,0.5-1,0.5C393.2,292,392.7,291.4,392.7,290.7"/>
	<path id="path4531" inkscape:connector-curvature="0" class="st1" d="M395.6,289.4h0.6v1h1v-1h0.6v2.6h-0.6v-1h-1v1h-0.6V289.4"/>
	<path id="path4535" inkscape:connector-curvature="0" class="st1" d="M400,290.9l-0.3-0.8l-0.3,0.8H400L400,290.9z M399.4,289.4
		h0.5l1.1,2.6h-0.6l-0.2-0.6h-1.1l-0.2,0.6h-0.6L399.4,289.4"/>
	<path id="path4539" inkscape:connector-curvature="0" class="st1" d="M401.4,289.4h0.5l1.2,1.6v-1.6h0.6v2.6h-0.5l-1.2-1.6v1.6
		h-0.6V289.4"/>
	<path id="path4543" inkscape:connector-curvature="0" class="st1" d="M404.5,289.4h0.5l1.2,1.6v-1.6h0.6v2.6h-0.5l-1.2-1.6v1.6
		h-0.6V289.4"/>
	<path id="path4547" inkscape:connector-curvature="0" class="st1" d="M407.6,289.4h1.9v0.5h-1.4v0.5h1.2v0.5h-1.2v0.5h1.4v0.5h-1.9
		V289.4"/>
	<path id="path4551" inkscape:connector-curvature="0" class="st1" d="M410.2,289.4h0.6v2h1.3v0.5h-1.8V289.4"/>
	<path id="path4555" inkscape:connector-curvature="0" class="st2" d="M386.1,286.4c0,0.2,0,0.3-0.1,0.4c-0.1,0.4-0.4,0.6-0.8,0.6
		c-0.3,0-0.5-0.1-0.6-0.2c-0.2-0.2-0.3-0.4-0.3-0.8v-2.7H383v2.7c0,0.4,0.1,0.8,0.2,1.1c0.3,0.7,0.9,1,1.8,1.1h0.4
		c1.2-0.1,2-0.7,2.1-2c0-0.1,0-0.1,0-0.2v-2.7h-1.3V286.4"/>
	<path id="path4559" inkscape:connector-curvature="0" class="st2" d="M391.2,286.1v0.2l-0.1-0.2l-1.8-2.3H388v4.8h1.3v-2.6l0.3,0.4
		l1.8,2.3h1.2v-4.8h-1.3V286.1"/>
	<path id="path4563" inkscape:connector-curvature="0" class="st2" d="M393.1,285.9v2.7h1.3v-4.8h-1.3V285.9"/>
	<path id="path4567" inkscape:connector-curvature="0" class="st2" d="M397.8,285.6l-0.4,1.2l-1.1-3h-1.5l1.9,4.8h1.2l1.9-4.8h-1.5
		L397.8,285.6"/>
	<path id="path4571" inkscape:connector-curvature="0" class="st2" d="M401.6,286.6h2.3v-1h-2.3v-0.7h2.5v-1.1h-3.9v4.8h3.9v-1.1
		h-2.6V286.6"/>
	<path id="path4575" inkscape:connector-curvature="0" class="st2" d="M406.9,286H406v-1.2h0.9c0.4,0,0.7,0.2,0.7,0.6v0
		c0,0.1,0,0.2,0,0.2C407.4,285.9,407.2,286,406.9,286L406.9,286z M408.9,285.8c0-0.1,0-0.3,0-0.4v0c0-0.5-0.1-0.8-0.4-1.1
		c-0.3-0.3-0.8-0.5-1.6-0.5h-2.3v4.8h1.3v-1.5h0.6l1,1.5h1.5l-1.1-1.7C408.4,286.7,408.7,286.3,408.9,285.8"/>
	<path id="path4579" inkscape:connector-curvature="0" class="st2" d="M413.2,287c0-0.4-0.1-0.7-0.4-0.9c-0.3-0.3-0.8-0.5-1.4-0.6
		c-0.7-0.2-0.8-0.2-0.8-0.5v0c0-0.2,0.2-0.3,0.5-0.3c0.4,0,0.9,0.2,1.3,0.5l0.7-0.9c-0.5-0.4-1.2-0.6-2-0.6c-1.2,0-1.9,0.6-1.9,1.5
		v0c0,0.2,0,0.4,0.1,0.6c0.3,0.5,0.9,0.7,1.7,0.9c0.7,0.2,0.8,0.3,0.8,0.5v0c0,0.2-0.2,0.3-0.6,0.3c-0.6,0-1.1-0.2-1.6-0.6l-0.7,0.9
		c0.6,0.5,1.4,0.8,2.2,0.8C412.4,288.6,413.2,288,413.2,287L413.2,287"/>
	<path id="path4583" inkscape:connector-curvature="0" class="st2" d="M415.2,286.6l0.1-0.2l0.5-1.1l0.5,1.3l0,0.1H415.2z
		 M416.4,283.7h-1.3l-1.1,2.6l-1,2.3h1.4l0.3-0.9h1.9l0.3,0.9h1.4l-0.7-1.8L416.4,283.7"/>
	<path id="path4587" inkscape:connector-curvature="0" class="st2" d="M421.1,287.4h-1v-3.6h-1.3v4.8h3.6v-1.2H421.1"/>
</g>
</svg>
