<?xml version="1.0" encoding="utf-8"?>
<!-- Generator: Adobe Illustrator 15.0.0, SVG Export Plug-In . SVG Version: 6.00 Build 0)  -->
<!DOCTYPE svg PUBLIC "-//W3C//DTD SVG 1.1//EN" "http://www.w3.org/Graphics/SVG/1.1/DTD/svg11.dtd">
<svg version="1.1" id="svg2" xmlns="http://www.w3.org/2000/svg" xmlns:xlink="http://www.w3.org/1999/xlink" x="0px" y="0px"
	 width="52.8px" height="50px" viewBox="62.2 562 52.8 50" style="enable-background:new 62.2 562 52.8 50;" xml:space="preserve">
<style type="text/css">
<![CDATA[
	.st0{fill:#61BC47;}
]]>
</style>
<path id="path2848" d="M62.2,578.3V562h8.9h8.9l3.1,3.3l3.1,3.3l2.6-2.6c1.4-1.4,2.8-2.9,3.1-3.3l0.5-0.6l9,0.1l9,0.1l0.1,6.9
	l0.1,6.9L110,577c-0.8,1.4-2.9,5.7-3.1,6.6c-0.1,0.3-0.3,0.7-0.5,0.9c-0.6,0.5-0.9-0.3-1.2-2.9c-0.5-4-1.1-5-2.8-4.6
	c-1.5,0.3-2.1,1.6-1.7,3.7c0.4,2,3.7,10.5,4.3,11.1c0.7,0.7,2.4,0.7,3,0c0.2-0.3,0.9-2,1.5-3.9c0.6-1.8,1.1-3.4,1.2-3.4
	c0.1,0,0.1,2.3,0.1,5.1v5.1h-5.6h-5.6l-0.1-1.2c-0.1-0.7-0.2-4.7-0.3-8.9l-0.1-7.7l2.4-1.4c2.9-1.7,3.5-2.3,3.3-3.1
	c-0.2-0.7-1.4-1.4-2.2-1.2c-0.3,0.1-1,0.5-1.4,0.9c-0.5,0.4-1.4,1.1-2,1.4c-0.9,0.5-1.3,0.6-2.4,0.6c-1.6-0.1-2.3,0.4-2.3,1.7
	c0,0.8-0.1,0.8-2.7,2.4c-1.5,0.9-3.3,1.8-3.9,2c-0.7,0.2-1.3,0.5-1.5,0.7c-0.4,0.5-0.3,1.5,0.3,2.1c0.8,0.8,2,0.8,3.3-0.2
	c4-3.1,5.1-3.5,5.4-2.3c0.1,0.3,0.1,3.6,0,7.4l-0.2,6.8h-1.5H92l-0.1-4.5l-0.1-4.5l-2.7,2.3c-1.5,1.3-2.8,2.2-2.9,2.2
	c-0.1-0.1-1.4-1.1-2.8-2.3l-2.6-2.2l-0.1,4.5l-0.1,4.5h-9.2h-9.2L62.2,578.3L62.2,578.3L62.2,578.3z M81.9,591.4
	c0-1.7,0.1-3.1,0.1-3.1s0.6,0.4,1.3,0.9l1.1,0.9v2.2v2.2h-1.3h-1.3V591.4L81.9,591.4z M111.9,587.9v-6.7l1.3-2.1
	c0.7-1.1,1.4-2.2,1.5-2.3c0.1-0.1,0.2,3.2,0.2,8.7v8.9h-1.5h-1.5V587.9L111.9,587.9z M89.4,589.4c0.6-0.6,1.5-1.3,1.5-1.2
	c0,0.5,0.1,2.2-0.1,2.2c-0.4,0-0.9,0-1.4,0h-1L89.4,589.4L89.4,589.4L89.4,589.4z M111.9,568.2c0-3.3,0.1-5.9,0.1-5.9
	s0.8,0.4,1.5,0.8l1.4,0.8v3.2v3.2l-1.3,1.6c-0.7,0.9-1.4,1.7-1.5,1.9C112,574,111.9,571.4,111.9,568.2L111.9,568.2z M84.2,564.4
	c-1.2-1.2-2.1-2.2-2-2.2c0.2,0,5.6,2.5,5.8,2.7c0.2,0.2-1.2,1.7-1.5,1.7C86.4,566.6,85.4,565.6,84.2,564.4z"/>
<g id="g2989">
	<path id="path3790" class="st0" d="M62.2,610.6v-12.4c0-0.9,0.8-1.3,1.3-1.3h50.4c0.6,0,1.2,0.5,1.2,1.2v12.6
		c0,0.7-0.6,1.3-1.3,1.3H63.3C62.8,612,62.2,611.3,62.2,610.6z"/>
	<path id="path3768" d="M100.6,608.1c-0.4-0.2-0.3-0.8,0-1.1c0.3-0.3,0.6,0,0.9,0.2c0.4,0.3,1,0.6,1.6,0.3c0.4-0.2,0.7-0.6,0.6-1.1
		c0-0.6-0.5-1-1-1.2c-0.7-0.3-1.5-0.8-2-1.4c-0.3-0.3-0.5-0.7-0.4-1.1c0-1.1,0.7-2.2,1.8-2.5c0.4-0.1,0.8,0,1.2,0
		c0.5,0.1,1.1,0.3,1.4,0.8c0.3,0.4-0.1,1-0.6,0.9c-0.4-0.1-0.7-0.6-1.1-0.6c-0.5-0.1-1.1,0.1-1.3,0.6c-0.1,0.3-0.2,0.7,0,1
		c0.3,0.5,0.9,0.7,1.3,1c0.6,0.3,1.4,0.7,1.7,1.3c0.4,0.6,0.3,1.4,0.1,2.1c-0.3,0.8-1.1,1.4-2,1.4
		C101.9,608.7,101.2,608.5,100.6,608.1L100.6,608.1z"/>
	<path id="path3773" d="M86.8,606.5v-4.4c0.3-1.5,1.6-2,2-2c0.2,0,0.5,0,0.8,0c1.1,0.2,1.5,0.5,1.9,1c0.2,0.2-0.3,1.1-0.9,0.7
		c-0.6-0.4-0.8-0.6-1.4-0.6c-0.6-0.1-1.1,0.6-1.1,1v4.3c0.1,0.5,0.2,0.9,1.1,1.1c0.9,0.1,1.1-0.6,1.6-0.7c0.4,0,0.7,0.5,0.7,0.7
		c0,0.7-1.6,1.1-2.1,1.1c-0.2,0-0.5,0-0.6,0C87,608.5,86.8,606.6,86.8,606.5L86.8,606.5z"/>
	<path id="path3778" d="M72.8,600.3c-0.4,0-0.5,0.2-0.5,0.5v7.3c0,0.7,1.2,0.7,1.2,0v-1.9c0-0.1,0-0.3,0.3-0.3h0.5
		c0.2,0,0.2,0.1,0.3,0.2l1.3,2.4c0.3,0.5,1.3-0.1,1-0.7l-1.1-2c-0.1-0.1-0.1-0.2,0-0.2c0.3,0,1.4-1.1,1.4-1.9v-1.3
		c0-0.7-0.9-2.1-2.4-2.1L72.8,600.3L72.8,600.3z M73.9,601.4h1c0.7,0,1,0.8,1,1.3v0.7c0,0.8-0.6,1.3-1.2,1.3h-0.7
		c-0.4,0-0.6-0.1-0.6-0.4v-2.6C73.5,601.4,73.8,601.4,73.9,601.4L73.9,601.4z"/>
	<path id="path3782" d="M81.8,600.1c-1.3,0-2.2,1.5-2.2,2.3l0,3.9c0,0.9,0.9,2.4,2.1,2.4h0.7c1.2,0,2.2-1.3,2.2-2.3v-4.1
		c-0.1-1.2-1.3-2.2-2.3-2.2H81.8L81.8,600.1z M82,601.3c0.6,0,1.2,0.3,1.2,1.2v3.9c0,0.6-0.5,1.2-1.2,1.2c-0.6,0-1.2-0.4-1.2-1.4
		v-3.6C80.8,601.6,81.4,601.3,82,601.3L82,601.3z"/>
	<path id="path3786" d="M93.8,608.1v-7.4c0-0.6,1.3-0.6,1.3,0v2.8c0,0.1,0.1,0.3,0.3,0.3h0.2c0.1,0,0.2-0.1,0.3-0.3l1.5-3.2
		c0.2-0.4,1.2,0,1,0.5l-1.5,3.4c0,0.1-0.1,0.2,0,0.3l1.6,3.4c0.2,0.5-0.8,1-1,0.6l-1.6-3.4c-0.1-0.1-0.2-0.2-0.3-0.2
		c-0.4,0-0.4,0.1-0.4,0.2v3C95.1,608.8,93.8,608.9,93.8,608.1L93.8,608.1z"/>
</g>
</svg>
