<?xml version="1.0" encoding="utf-8"?>
<!-- Generator: Adobe Illustrator 15.0.0, SVG Export Plug-In . SVG Version: 6.00 Build 0)  -->
<!DOCTYPE svg PUBLIC "-//W3C//DTD SVG 1.1//EN" "http://www.w3.org/Graphics/SVG/1.1/DTD/svg11.dtd">
<svg version="1.1"
	 id="svg14734" inkscape:version="0.48.2 r9819" sodipodi:docname="AJAX1.svg" xmlns:dc="http://purl.org/dc/elements/1.1/" xmlns:cc="http://creativecommons.org/ns#" xmlns:rdf="http://www.w3.org/1999/02/22-rdf-syntax-ns#" xmlns:svg="http://www.w3.org/2000/svg" xmlns:sodipodi="http://sodipodi.sourceforge.net/DTD/sodipodi-0.dtd" xmlns:inkscape="http://www.inkscape.org/namespaces/inkscape"
	 xmlns="http://www.w3.org/2000/svg" xmlns:xlink="http://www.w3.org/1999/xlink" x="0px" y="0px" width="428.1px" height="300px"
	 viewBox="297.9 208.8 428.1 300" style="enable-background:new 297.9 208.8 428.1 300;" xml:space="preserve">
<style type="text/css">
<![CDATA[
	.st0{fill:url(#path2620_1_);}
	.st1{fill:#E7262F;}
	.st2{fill:url(#path2558_1_);}
	.st3{fill:#EFE34B;}
	.st4{fill:url(#path2730_1_);}
	.st5{fill:url(#path2664_1_);}
	.st6{fill:url(#path2490_1_);}
	.st7{fill:url(#path2706_1_);}
	.st8{fill:url(#path2600_1_);}
	.st9{fill:url(#path2538_1_);}
	.st10{fill:url(#path2642_1_);}
	.st11{fill:url(#path2512_1_);}
	.st12{fill:url(#path2684_1_);}
	.st13{fill:url(#path2754_1_);}
	.st14{fill:url(#path2580_1_);}
]]>
</style>
<g id="g2470" transform="matrix(1.25,0,0,-1.25,-66.33875,1102.8347)">
	<g id="g2472">
		<g id="g2474">
			<g id="g2480">
				
					<linearGradient id="path2490_1_" gradientUnits="userSpaceOnUse" x1="146.5956" y1="350.0019" x2="147.0129" y2="350.0019" gradientTransform="matrix(377.9541 1407.6841 1407.6841 -377.9541 -547736.5625 -73783.6641)">
					<stop  offset="0" style="stop-color:#5E161A"/>
					<stop  offset="0.4481" style="stop-color:#E8262F"/>
					<stop  offset="1" style="stop-color:#5E161A"/>
				</linearGradient>
				<path id="path2490" inkscape:connector-curvature="0" class="st6" d="M541.9,609.7l-4-27.4h-17.8l4.1,27.4h-23l-9.2-60.7H311.6
					c-0.5,0-1.1-0.3-1.4-0.6L297.9,536c-0.3-0.3-0.2-0.6,0.3-0.6h215l4.3,29h17.8l-4.2-29h23.1l10.7,74.3H541.9"/>
			</g>
		</g>
	</g>
</g>
<g id="g2492" transform="matrix(1.25,0,0,-1.25,-66.33875,1102.8347)">
	<g id="g2494">
		<g id="g2496">
			<g id="g2502">
				
					<linearGradient id="path2512_1_" gradientUnits="userSpaceOnUse" x1="146.5964" y1="349.8504" x2="147.0145" y2="349.8504" gradientTransform="matrix(375.7091 1399.3191 1399.3191 -375.7091 -544118.3125 -73440.3203)">
					<stop  offset="0" style="stop-color:#5E161A"/>
					<stop  offset="0.9508" style="stop-color:#E8262F"/>
					<stop  offset="1" style="stop-color:#E8262F"/>
				</linearGradient>
				<path id="path2512" inkscape:connector-curvature="0" class="st11" d="M590.2,552.6c1.5,0,2.9,0,4,0.1c1.1,0,2.5,0.4,4.1,1.2
					c2.2,1.2,4.1,2.8,5.6,4.9c1.6,2.2,2.9,4.5,3.7,6.9c0.9,2.4,1.5,4.9,1.8,7.4c0.3,2.5,0.4,5.3,0,8.1c-0.3,2.9-1.1,5.4-2.5,7.5
					c-0.7,1.1-1.5,1.9-2.3,2.5c-0.8,0.6-1.7,1-2.7,1.2c-1,0.3-2,0.4-3.1,0.4c-1.1,0-2.3,0.1-3.7,0.1h-2.6l-5.7-40.4H590.2
					L590.2,552.6z M571.8,609.7h27.7c2.7,0,5.3-0.1,7.7-0.3c2.4-0.2,4.7-0.6,6.9-1.3c2.2-0.7,4.2-1.6,6.2-2.8c2-1.2,3.8-2.8,5.6-4.7
					c3.4-3.7,5.8-8,7-12.8c1.2-4.9,1.4-10,0.7-15.3c-0.7-4.9-2.2-9.7-4.6-14.5c-2.4-4.8-5.6-8.9-9.6-12.4c-4.3-3.8-8.8-6.5-13.6-7.9
					c-4.8-1.4-9.9-2.2-15.1-2.2h-29.4L571.8,609.7"/>
			</g>
		</g>
	</g>
</g>
<path id="path2514" inkscape:connector-curvature="0" class="st1" d="M344.6,380.1c0.4-0.4,0.4-1.1,0-1.5l-18.1-18.1
	c-0.4-0.4-0.7-0.3-0.7,0.3v37.1c0,0.6,0.3,0.7,0.7,0.3L344.6,380.1"/>
<path id="path2516" inkscape:connector-curvature="0" class="st1" d="M297.9,425.6c0,0.6,0.3,0.7,0.8,0.3l16.5-16.5
	c0.4-0.4,0.8-1.3,0.8-1.9v-56.4c0-0.6-0.4-1.4-0.8-1.9l-16.5-16.5c-0.4-0.4-0.8-0.3-0.8,0.3V425.6"/>
<g id="g2518" transform="matrix(1.25,0,0,-1.25,-66.33875,1102.8347)">
	<g id="g2520">
		<g id="g2522">
			<g id="g2528">
				
					<linearGradient id="path2538_1_" gradientUnits="userSpaceOnUse" x1="146.5011" y1="350.1988" x2="146.9194" y2="350.1988" gradientTransform="matrix(227.9653 -429.2611 -429.2611 -227.9653 117351.2266 143448.2656)">
					<stop  offset="0" style="stop-color:#B17023"/>
					<stop  offset="0.52" style="stop-color:#955A1E"/>
					<stop  offset="1" style="stop-color:#F0CC29"/>
				</linearGradient>
				<path id="path2538" inkscape:connector-curvature="0" class="st9" d="M484.6,557.1l-38.4,17.7l0,122.7l38.4,17.8L467,697.5
					l0-122.8L484.6,557.1"/>
			</g>
		</g>
	</g>
</g>
<g id="g2540" transform="matrix(1.25,0,0,-1.25,-66.33875,1102.8347)">
	<g id="g2542">
		<g id="g2544">
			<g id="g2550">
				
					<linearGradient id="path2558_1_" gradientUnits="userSpaceOnUse" x1="146.2788" y1="350.5019" x2="146.6968" y2="350.5019" gradientTransform="matrix(227.9218 0 0 -227.9218 -32931.5039 80593.3125)">
					<stop  offset="0" style="stop-color:#F0D524"/>
					<stop  offset="1" style="stop-color:#F2EEA4"/>
				</linearGradient>
				<path id="path2558" inkscape:connector-curvature="0" class="st2" d="M484.6,715.2l-38.4-17.8l-37.9,17.8H484.6"/>
			</g>
		</g>
	</g>
</g>
<g id="g2560" transform="matrix(1.25,0,0,-1.25,-66.33875,1102.8347)">
	<g id="g2562">
		<g id="g2564">
			<g id="g2570">
				
					<linearGradient id="path2580_1_" gradientUnits="userSpaceOnUse" x1="146.3898" y1="350.2488" x2="146.808" y2="350.2488" gradientTransform="matrix(-101.8905 457.2804 457.2804 101.8905 -144895.8906 -102051.8281)">
					<stop  offset="0" style="stop-color:#EDEA64"/>
					<stop  offset="0.51" style="stop-color:#D26D1B"/>
					<stop  offset="1" style="stop-color:#F5CC1C"/>
				</linearGradient>
				<path id="path2580" inkscape:connector-curvature="0" class="st14" d="M319.5,557.1l38.3,17.7l0,122.7l-38.3,17.8l17.7-17.8
					l0-122.6L319.5,557.1"/>
			</g>
		</g>
	</g>
</g>
<g id="g2582" transform="matrix(1.25,0,0,-1.25,-66.33875,1102.8347)">
	<g id="g2584">
		<g id="g2586">
			<g id="g2592">
				
					<linearGradient id="path2600_1_" gradientUnits="userSpaceOnUse" x1="146.8202" y1="350.5004" x2="147.2382" y2="350.5004" gradientTransform="matrix(228.647 0 0 -228.647 -33250.2617 80847.1328)">
					<stop  offset="0" style="stop-color:#F0D524"/>
					<stop  offset="1" style="stop-color:#F2EEA4"/>
				</linearGradient>
				<path id="path2600" inkscape:connector-curvature="0" class="st8" d="M357.9,697.5l-38.3,17.8l76.5,0L357.9,697.5"/>
			</g>
		</g>
	</g>
</g>
<g id="g2602" transform="matrix(1.25,0,0,-1.25,-66.33875,1102.8347)">
	<g id="g2604">
		<g id="g2606">
			<g id="g2612">
				
					<linearGradient id="path2620_1_" gradientUnits="userSpaceOnUse" x1="147.1495" y1="348.9441" x2="147.5676" y2="348.9441" gradientTransform="matrix(82.2833 0 0 -82.2833 -11749.9287 29278.2266)">
					<stop  offset="0" style="stop-color:#986721"/>
					<stop  offset="1" style="stop-color:#F4C51A"/>
				</linearGradient>
				<path id="path2620" inkscape:connector-curvature="0" class="st0" d="M357.9,574.8l-38.3-17.7l76.5,0L357.9,574.8"/>
			</g>
		</g>
	</g>
</g>
<g id="g2622" transform="matrix(1.25,0,0,-1.25,-66.33875,1102.8347)">
	<g id="g2624">
		<g id="g2626">
			<g id="g2632">
				
					<linearGradient id="path2642_1_" gradientUnits="userSpaceOnUse" x1="249.1378" y1="156.2355" x2="245.9146" y2="156.2355" gradientTransform="matrix(44.3602 -44.3602 -44.3602 -44.3602 -3632.6072 18610.502)">
					<stop  offset="0" style="stop-color:#EDEA64"/>
					<stop  offset="0.51" style="stop-color:#D26D1B"/>
					<stop  offset="1" style="stop-color:#F5CC1C"/>
				</linearGradient>
				<path id="path2642" inkscape:connector-curvature="0" class="st10" d="M446.3,648.4v49l-37.9,17.8l17.7-17.8v-34L446.3,648.4"/>
			</g>
		</g>
	</g>
</g>
<g id="g2644" transform="matrix(1.25,0,0,-1.25,-66.33875,1102.8347)">
	<g id="g2646">
		<g id="g2648">
			<g id="g2654">
				
					<linearGradient id="path2664_1_" gradientUnits="userSpaceOnUse" x1="249.1198" y1="157.2105" x2="245.9362" y2="157.2105" gradientTransform="matrix(44.3602 -44.3602 -44.3602 -44.3602 -3632.6072 18610.502)">
					<stop  offset="0" style="stop-color:#EDEA64"/>
					<stop  offset="0.51" style="stop-color:#D26D1B"/>
					<stop  offset="1" style="stop-color:#F5CC1C"/>
				</linearGradient>
				<path id="path2664" inkscape:connector-curvature="0" class="st5" d="M446.3,648.4l0-73.7l-37.9-17.6l17.7,17.7l0,54.3
					L446.3,648.4"/>
			</g>
		</g>
	</g>
</g>
<g id="g2666" transform="matrix(1.25,0,0,-1.25,-66.33875,1102.8347)">
	<g id="g2668">
		<g id="g2670">
			<g id="g2676">
				
					<linearGradient id="path2684_1_" gradientUnits="userSpaceOnUse" x1="145.6495" y1="348.9441" x2="146.0676" y2="348.9441" gradientTransform="matrix(82.215 0 0 -82.215 -11527.8955 29254.2891)">
					<stop  offset="0" style="stop-color:#986721"/>
					<stop  offset="1" style="stop-color:#F4C51A"/>
				</linearGradient>
				<path id="path2684" inkscape:connector-curvature="0" class="st12" d="M484.6,557.1l-38.4,17.7l-37.9-17.7L484.6,557.1"/>
			</g>
		</g>
	</g>
</g>
<g id="g2686" transform="matrix(1.25,0,0,-1.25,-66.33875,1102.8347)">
	<g id="g2688">
		<g id="g2690">
			<g id="g2696">
				
					<linearGradient id="path2706_1_" gradientUnits="userSpaceOnUse" x1="146.5089" y1="350.0246" x2="146.926" y2="350.0246" gradientTransform="matrix(221.6151 -417.3065 -417.3065 -221.6151 113966.3359 139409.3125)">
					<stop  offset="0" style="stop-color:#B17023"/>
					<stop  offset="0.52" style="stop-color:#955A1E"/>
					<stop  offset="1" style="stop-color:#F0CC29"/>
				</linearGradient>
				<path id="path2706" inkscape:connector-curvature="0" class="st7" d="M357.9,697.5l38.2,17.8l-17.7-17.7v-34l-20.5-15.1V697.5"
					/>
			</g>
		</g>
	</g>
</g>
<g id="g2708" transform="matrix(1.25,0,0,-1.25,-66.33875,1102.8347)">
	<g id="g2710">
		<g id="g2712">
			<g id="g2718">
				
					<linearGradient id="path2730_1_" gradientUnits="userSpaceOnUse" x1="146.503" y1="349.898" x2="146.921" y2="349.898" gradientTransform="matrix(233.3373 -439.3792 -439.3792 -233.3373 119880.0703 146694.8594)">
					<stop  offset="0" style="stop-color:#B17023"/>
					<stop  offset="0.43" style="stop-color:#A35E28"/>
					<stop  offset="0.92" style="stop-color:#F0CC29"/>
					<stop  offset="1" style="stop-color:#F0CC29"/>
				</linearGradient>
				<path id="path2730" inkscape:connector-curvature="0" class="st4" d="M357.9,648.4l0-73.6l38.2-17.7l-17.7,17.7l0,54.3
					L357.9,648.4"/>
			</g>
		</g>
	</g>
</g>
<g id="g2732" transform="matrix(1.25,0,0,-1.25,-66.33875,1102.8347)">
	<g id="g2734">
		<g id="g2736">
			<g id="g2742">
				
					<radialGradient id="path2754_1_" cx="146.2843" cy="349.6793" r="0.4147" gradientTransform="matrix(597.8193 0 0 -598.5276 -87047.2969 209770.7031)" gradientUnits="userSpaceOnUse">
					<stop  offset="0" style="stop-color:#9E671E"/>
					<stop  offset="0.95" style="stop-color:#E7B40F"/>
					<stop  offset="0.95" style="stop-color:#E7B40F"/>
					<stop  offset="1" style="stop-color:#E7B40F"/>
				</radialGradient>
				<path id="path2754" inkscape:connector-curvature="0" class="st13" d="M446.3,648.4l-88.4,0l20.5-19.3l47.8,0L446.3,648.4"/>
			</g>
		</g>
	</g>
</g>
<path id="path2756" inkscape:connector-curvature="0" class="st3" d="M491.5,292.3l-25.2-18.8h-59.7L381,292.3L491.5,292.3"/>
<path id="path2758" inkscape:connector-curvature="0" d="M307.1,449.3h17.8v22.2h17.7v-22.2h17.8v58.4h-17.8v-23.3h-17.7v23.3h-17.8
	V449.3"/>
<path id="path2760" inkscape:connector-curvature="0" d="M372.5,507.7h17.8v-58.4h-17.8V507.7z"/>
<path id="path2762" inkscape:connector-curvature="0" d="M439.2,465.4c-3.5-3.7-7.6-5.2-13-5.2c-4.5,0-7.5,1.5-7.5,4.2
	c0,9.4,34.2,1.1,34.2,24.9c0,9.7-8.3,19.5-26.5,19.5c-11.1,0-21-2.5-27.6-11.3l10.7-7.8c3.9,4.5,9.3,7.1,15.7,7.1
	c7,0,9.8-2.6,9.8-5.1c0-8.9-33.8-2.1-33.8-24.2c0-11.4,10.1-19.3,25.1-19.3c8.7,0,17.6,2.5,23.2,9.2L439.2,465.4"/>
<path id="path2764" inkscape:connector-curvature="0" d="M472.2,460.9h-17.2v-11.6h52.1v11.6h-17.2v46.8h-17.8V460.9"/>
<path id="path2766" inkscape:connector-curvature="0" d="M528.1,478.5c0,15.7,4.9,18.7,11,18.7c6,0,11-3,11-18.7
	c0-14.8-4-18.7-11-18.7C531.9,459.8,528.1,464.3,528.1,478.5z M539.1,508.8c-18.6,0-29.8-11.7-29.8-30.3c0-18.6,11.2-30.3,29.8-30.3
	s29.8,11.7,29.8,30.3C568.8,497.1,557.6,508.8,539.1,508.8"/>
<path id="path2768" inkscape:connector-curvature="0" d="M594,472.6h9.2c5.1,0,8.8-2.1,8.8-5.9c0-3.7-2.6-6.3-8.1-6.3h-10V472.6z
	 M576.2,449.3H606c20.8,0,24.8,9.3,24.8,16.9c0,7.3-4.9,12.1-11.8,14.7l11.6,26.9h-19.8l-8.8-24H594v24h-17.8V449.3"/>
<path id="path2770" inkscape:connector-curvature="0" d="M652.9,482.9l-22.6-33.6h20.2l13,19.9l12.4-19.9h16.2l-21.4,32.2v26.2
	h-17.8L652.9,482.9"/>
</svg>
