<?xml version="1.0" encoding="UTF-8" standalone="no"?>
<!-- Created with Inkscape (http://www.inkscape.org/) -->

<svg
   xmlns:dc="http://purl.org/dc/elements/1.1/"
   xmlns:cc="http://creativecommons.org/ns#"
   xmlns:rdf="http://www.w3.org/1999/02/22-rdf-syntax-ns#"
   xmlns:svg="http://www.w3.org/2000/svg"
   xmlns="http://www.w3.org/2000/svg"
   xmlns:sodipodi="http://sodipodi.sourceforge.net/DTD/sodipodi-0.dtd"
   xmlns:inkscape="http://www.inkscape.org/namespaces/inkscape"
   id="svg2985"
   version="1.1"
   inkscape:version="0.48.2 r9819"
   width="1000"
   height="1429.14"
   xml:space="preserve"
   sodipodi:docname="Viasat_Explore_HD.pdf"><metadata
     id="metadata2991"><rdf:RDF><cc:Work
         rdf:about=""><dc:format>image/svg+xml</dc:format><dc:type
           rdf:resource="http://purl.org/dc/dcmitype/StillImage" /><dc:title></dc:title></cc:Work></rdf:RDF></metadata><defs
     id="defs2989"><linearGradient
       x1="0"
       y1="0"
       x2="1"
       y2="0"
       gradientUnits="userSpaceOnUse"
       gradientTransform="matrix(341.32767,341.32767,341.32767,-341.32767,7.2592773,152.33105)"
       spreadMethod="pad"
       id="linearGradient3007"><stop
         style="stop-opacity:1;stop-color:#2d1111"
         offset="0"
         id="stop3009" /><stop
         style="stop-opacity:1;stop-color:#a62523"
         offset="0.375763"
         id="stop3011" /><stop
         style="stop-opacity:1;stop-color:#ee272b"
         offset="0.994263"
         id="stop3013" /><stop
         style="stop-opacity:1;stop-color:#ee272b"
         offset="1"
         id="stop3015" /></linearGradient><clipPath
       clipPathUnits="userSpaceOnUse"
       id="clipPath3029"><path
         d="M 0,500 354,500 354,0 0,0 0,500 z"
         id="path3031"
         inkscape:connector-curvature="0" /></clipPath></defs><sodipodi:namedview
     pagecolor="#ffffff"
     bordercolor="#666666"
     borderopacity="1"
     objecttolerance="10"
     gridtolerance="10"
     guidetolerance="10"
     inkscape:pageopacity="0"
     inkscape:pageshadow="2"
     inkscape:window-width="1051"
     inkscape:window-height="1034"
     id="namedview2987"
     showgrid="false"
     fit-margin-left="0.5"
     fit-margin-bottom="0.5"
     fit-margin-top="0.5"
     fit-margin-right="0.5"
     inkscape:zoom="0.3776"
     inkscape:cx="670.10439"
     inkscape:cy="645.247"
     inkscape:window-x="859"
     inkscape:window-y="-17"
     inkscape:window-maximized="0"
     inkscape:current-layer="g2993" /><g
     id="g2993"
     inkscape:groupmode="layer"
     inkscape:label="Viasat_Explore_HD"
     transform="matrix(1.25,0,0,-1.25,-8.2481253,1435.4322)"><g
       id="g2995"
       transform="matrix(2.3392943,0,0,2.3392943,-9.3730509,-7.2773232)"><g
         id="g2997"><g
           id="g3003"><g
             id="g3005"><path
               d="m 7.256,493.834 0,-341.5 341.069,-0.442 -50.658,95.442 -163,0 0,36 129.5,0 0,83.5 -129.5,0 0,33 163,0 50.745,94 -341.156,0 z"
               style="fill:url(#linearGradient3007);fill-rule:evenodd;stroke:none"
               id="path3017"
               inkscape:connector-curvature="0" /></g></g></g></g><path
       d="m 805.41952,167.26444 -798.3075642,0 0,154.58524 798.3075642,0 0,-154.58524 z"
       style="fill:#949599;fill-opacity:1;fill-rule:nonzero;stroke:none"
       id="path3019"
       inkscape:connector-curvature="0" /><g
       id="g3021"
       transform="matrix(2.3392943,0,0,2.3392943,20.439149,482.49861)"><path
         d="m 0,0 14.538,0 0,-19.638 18.661,0 0,19.638 14.539,0 0,-52.46 -14.539,0 0,19.935 -18.661,0 0,-19.935 L 0,-52.46 0,0 z"
         style="fill:#ffffff;fill-opacity:1;fill-rule:nonzero;stroke:none"
         id="path3023"
         inkscape:connector-curvature="0" /></g><g
       id="g3025"
       transform="matrix(2.3392943,0,0,2.3392943,-9.3730509,-7.2773232)"><g
         id="g3027"
         clip-path="url(#clipPath3029)"><g
           id="g3033"
           transform="translate(80.3452,196.5537)"><path
             d="m 0,0 0,-26.757 5.918,0 c 8.77,0 14.542,4.796 14.542,13.266 l 0,0.153 C 20.46,-4.948 14.688,0 5.918,0 L 0,0 z m -14.54,12.815 20.31,0 c 18.66,0 29.528,-10.794 29.528,-25.929 l 0,-0.152 c 0,-15.139 -11.018,-26.379 -29.828,-26.379 l -20.01,0 0,52.46 z"
             style="fill:#ffffff;fill-opacity:1;fill-rule:nonzero;stroke:none"
             id="path3035"
             inkscape:connector-curvature="0" /></g><g
           id="g3037"
           transform="translate(91.7188,127.7002)"><path
             d="m 0,0 c -0.268,-0.709 -9.617,-25.68 -9.617,-25.68 0,0 -9.376,24.971 -9.638,25.68 l -11.621,0 c 0.631,-1.489 16.948,-39.433 17.225,-40.081 l 7.972,0 C -5.404,-39.433 10.913,-1.489 11.548,0 L 0,0 z"
             style="fill:#ffffff;fill-opacity:1;fill-rule:nonzero;stroke:none"
             id="path3039"
             inkscape:connector-curvature="0" /></g><path
           d="m 110.516,87.773 11.204,0 0,39.927 -11.204,0 0,-39.927 z"
           style="fill:#ffffff;fill-opacity:1;fill-rule:nonzero;stroke:none"
           id="path3041"
           inkscape:connector-curvature="0" /><g
           id="g3043"
           transform="translate(150.0308,113.292)"><path
             d="m 0,0 5.147,-13.738 -10.295,0 L 0,0 z m -4.015,14.402 c -0.285,-0.65 -16.602,-38.59 -17.234,-40.075 l 11.622,0 c 0.227,0.61 1.682,4.495 1.682,4.495 l 15.89,0 c 0,0 1.457,-3.885 1.69,-4.495 l 11.546,0 C 20.536,-24.188 4.23,13.752 3.949,14.402 l -7.964,0 z"
             style="fill:#ffffff;fill-opacity:1;fill-rule:nonzero;stroke:none"
             id="path3045"
             inkscape:connector-curvature="0" /></g><g
           id="g3047"
           transform="translate(236.4702,113.292)"><path
             d="m 0,0 5.159,-13.738 -10.296,0 L 0,0 z m -4.017,14.402 c -0.276,-0.65 -16.587,-38.59 -17.226,-40.075 l 11.621,0 c 0.226,0.61 1.687,4.495 1.687,4.495 l 15.889,0 c 0,0 1.45,-3.885 1.683,-4.495 l 11.542,0 C 20.54,-24.188 4.236,13.752 3.958,14.402 l -7.975,0 z"
             style="fill:#ffffff;fill-opacity:1;fill-rule:nonzero;stroke:none"
             id="path3049"
             inkscape:connector-curvature="0" /></g><g
           id="g3051"
           transform="translate(190.3306,128.0557)"><path
             d="m 0,0 c -10.111,0 -15.028,-3.362 -15.028,-10.275 l 0,-4.759 c 0,-3.654 1.47,-6.388 4.133,-7.676 2.014,-1.044 4.341,-1.346 10.351,-1.346 l 7.875,0 c 2.514,0 3.53,-0.977 3.53,-3.368 l 0,-0.551 c 0,-2.419 -1.05,-3.447 -3.53,-3.447 l -8.58,0 c -1.277,0 -2.15,0.269 -2.717,0.859 -0.433,0.448 -0.653,1.096 -0.714,1.921 -0.973,-0.044 -9.182,-0.384 -10.249,-0.419 1.239,-8.265 5.345,-11.37 14.929,-11.37 l 6.244,0 c 10.112,0 15.027,3.389 15.027,10.352 l 0,4.751 c 0,3.656 -1.463,6.386 -4.127,7.683 -2.023,1.045 -4.337,1.339 -10.36,1.339 l -7.876,0 c -2.504,0 -3.527,0.981 -3.527,3.377 l 0,0.543 c 0,2.423 1.058,3.454 3.527,3.454 l 8.584,0 c 1.283,0 2.15,-0.273 2.715,-0.867 0.435,-0.452 0.659,-1.085 0.711,-1.89 1.018,0.082 9.158,0.748 10.238,0.835 C 19.569,-2.87 15.604,0 6.244,0 L 0,0 z"
             style="fill:#ffffff;fill-opacity:1;fill-rule:nonzero;stroke:none"
             id="path3053"
             inkscape:connector-curvature="0" /></g><g
           id="g3055"
           transform="translate(254.5483,127.7002)"><path
             d="m 0,0 0,-9.584 14.361,0 0,-15.506 0,-0.058 0,-0.074 0,-14.705 11.207,0 0,30.343 14.378,0 0,9.584 L 0,0 z"
             style="fill:#ffffff;fill-opacity:1;fill-rule:nonzero;stroke:none"
             id="path3057"
             inkscape:connector-curvature="0" /></g><g
           id="g3059"
           transform="translate(6.9985,60.9707)"><path
             d="m 0,0 41.186,0 0,-10.686 -29.251,0 0,-11.077 25.74,0 0,-10.686 -25.74,0 0,-11.466 29.641,0 0,-10.687 L 0,-54.602 0,0 z"
             style="fill:#b52025;fill-opacity:1;fill-rule:nonzero;stroke:none"
             id="path3061"
             inkscape:connector-curvature="0" /></g><g
           id="g3063"
           transform="translate(101.458,60.9707)"><path
             d="m 0,0 -18.252,-26.677 19.032,-27.925 -14.04,0 -12.247,18.721 -12.324,-18.721 -13.651,0 19.033,27.77 L -50.702,0 -36.661,0 -25.273,-17.706 -13.65,0 0,0 z"
             style="fill:#b52025;fill-opacity:1;fill-rule:nonzero;stroke:none"
             id="path3065"
             inkscape:connector-curvature="0" /></g><g
           id="g3067"
           transform="translate(127.5869,33.4365)"><path
             d="m 0,0 c 6.006,0 9.517,3.588 9.517,8.268 l 0,0.156 c 0,5.382 -3.745,8.268 -9.751,8.268 l -9.283,0 L -9.517,0 0,0 z m -21.529,27.534 22.309,0 c 13.027,0 20.905,-7.721 20.905,-18.876 l 0,-0.156 c 0,-12.637 -9.829,-19.189 -22.075,-19.189 l -9.127,0 0,-16.38 -12.012,0 0,54.601 z"
             style="fill:#b52025;fill-opacity:1;fill-rule:nonzero;stroke:none"
             id="path3069"
             inkscape:connector-curvature="0" /></g><g
           id="g3071"
           transform="translate(153.0142,60.9707)"><path
             d="m 0,0 12.012,0 0,-43.682 27.223,0 0,-10.92 L 0,-54.602 0,0 z"
             style="fill:#b52025;fill-opacity:1;fill-rule:nonzero;stroke:none"
             id="path3073"
             inkscape:connector-curvature="0" /></g><g
           id="g3075"
           transform="translate(237.7241,33.5137)"><path
             d="m 0,0 0,0.156 c 0,9.361 -6.863,17.161 -16.536,17.161 -9.673,0 -16.38,-7.644 -16.38,-17.004 l 0,-0.157 c 0,-9.36 6.863,-17.16 16.535,-17.16 C -6.707,-17.004 0,-9.359 0,0 m -45.475,0 0,0.156 c 0,15.523 12.246,28.238 29.094,28.238 16.85,0 28.94,-12.559 28.94,-28.081 l 0,-0.157 c 0,-15.522 -12.246,-28.236 -29.095,-28.236 -16.849,0 -28.939,12.558 -28.939,28.08"
             style="fill:#b52025;fill-opacity:1;fill-rule:nonzero;stroke:none"
             id="path3077"
             inkscape:connector-curvature="0" /></g><g
           id="g3079"
           transform="translate(279.9995,34.4502)"><path
             d="m 0,0 c 5.85,0 9.204,3.12 9.204,7.723 l 0,0.155 c 0,5.148 -3.589,7.801 -9.438,7.801 l -11.934,0 L -12.168,0 0,0 z m -24.182,26.521 24.961,0 c 6.944,0 12.325,-1.95 15.913,-5.539 3.042,-3.042 4.681,-7.332 4.681,-12.48 l 0,-0.155 c 0,-8.815 -4.759,-14.353 -11.701,-16.927 l 13.339,-19.501 -14.04,0 -11.701,17.473 -9.438,0 0,-17.473 -12.014,0 0,54.602 z"
             style="fill:#b52025;fill-opacity:1;fill-rule:nonzero;stroke:none"
             id="path3081"
             inkscape:connector-curvature="0" /></g><g
           id="g3083"
           transform="translate(307.064,60.9707)"><path
             d="m 0,0 41.186,0 0,-10.686 -29.251,0 0,-11.077 25.741,0 0,-10.686 -25.741,0 0,-11.466 29.641,0 0,-10.687 L 0,-54.602 0,0 z"
             style="fill:#b52025;fill-opacity:1;fill-rule:nonzero;stroke:none"
             id="path3085"
             inkscape:connector-curvature="0" /></g></g></g></g></svg>