<?xml version="1.0" encoding="utf-8"?>
<!-- Generator: Adobe Illustrator 15.0.0, SVG Export Plug-In . SVG Version: 6.00 Build 0)  -->
<!DOCTYPE svg PUBLIC "-//W3C//DTD SVG 1.1//EN" "http://www.w3.org/Graphics/SVG/1.1/DTD/svg11.dtd">
<svg version="1.1" id="Layer_1" xmlns="http://www.w3.org/2000/svg" xmlns:xlink="http://www.w3.org/1999/xlink" x="0px" y="0px"
	 width="183.4px" height="50px" viewBox="0 0 183.4 50" style="enable-background:new 0 0 183.4 50;" xml:space="preserve">
<style type="text/css">
<![CDATA[
	.st0{fill-rule:evenodd;clip-rule:evenodd;}
	.st1{fill-rule:evenodd;clip-rule:evenodd;fill:#FCC31F;}
]]>
</style>
<g>
	<path class="st0" d="M69.6,6.3c-1.8,7.5-6.5,12.2-14.9,13.2c3.1,15.3-7.3,27.8-19.5,30c-8.4,1.5-15.8-1.3-20.5-5.1
		c-0.5-0.4-1.6-1.3-1.6-1.3s-4.4,0-6.4,0c0.3-2.2,1.1-4,2.1-5.5c-1-2-2.1-3.9-2.5-6.4c-2.1,0-4.2,0-6.2,0c0.9-4.2,3.1-7.2,5.6-9.7
		C7.8,9.8,15.8,1,29,0.1c7.8-0.5,13.4,2.8,18,6.2C54.5,6.3,62.1,6.3,69.6,6.3z"/>
	<path class="st0" d="M33.9,8.1c-6,0.6-9.7,4.6-11.7,9.2c5.2,0,10.9,0,16.5,0c5.7,0,11.5,0.5,16.5,0c5.9-0.6,9.7-4.6,11.6-9.2
		C56.5,8.8,43.9,7.1,33.9,8.1z"/>
	<path class="st0" d="M30.8,20.1c-5.8,0-11.6-0.5-16.7,0c-5.7,0.6-9.5,4.7-11.3,9.2c9.9-0.5,22.9,0.7,32.3,0
		c6.5-0.5,10.2-4.5,12.3-9.2C42.2,20.1,36.5,20.1,30.8,20.1z"/>
	<path class="st0" d="M20.5,32c-5.7,0.6-9.2,4.8-11.2,9.1c4-0.3,7.6,0.4,11,0c5.7-0.6,9.1-4.8,11.2-9.1C27.5,32.3,23.9,31.7,20.5,32
		z"/>
	<path class="st1" d="M66.8,8.1c-1.9,4.6-5.7,8.7-11.6,9.2c-5,0.5-10.8,0-16.5,0c-5.6,0-11.3,0-16.5,0c2-4.6,5.7-8.7,11.7-9.2
		C43.9,7.1,56.5,8.8,66.8,8.1z"/>
	<path class="st0" d="M95.8,17.1c-0.9,3,0,0-0.9,3c-3.7,0-8.9,0-12.6,0c-1.4,3.6,0,0-1.4,3.6c2.7,0,5.1,0,7.6,0c-1,3,0,0-1,3
		c-2.5,0-5.1,0-7.6,0c-2.4,6.7,0,0-2.4,6.7c-2.5,0-5,0-7.4,0c0.9-3.4,2.4-7.3,3.7-11.2c0.9-2.7,1.1-4.5,4.5-4.9
		c0.5-0.1,1.1-0.2,1.8-0.2C84.9,17.1,91.7,17.1,95.8,17.1z"/>
	<path class="st0" d="M111.5,33.4c-2.7,0-5.4,0-8,0c-0.3-2.1,0,0-0.3-2.1c-9.5,0-9.5,0-9.5,0s0,0-2.1,2.1c-1.3,0-2.7,0-4,0
		c2.7-3.3,6.3-7.7,9.5-11.3c1.1-1.2,2.2-2.8,3.3-3.6c2-1.4,7.4-2.1,8.6,0.3c0.4,0.8,0.5,2.4,0.7,3.6C110.4,26,110.9,29.6,111.5,33.4
		z M96.2,28.5c2.1,0,4.1,0,6.3,0c-1.2-6.2,0,0-1.2-6.2C96.2,28.5,101.3,22.2,96.2,28.5z"/>
	<path class="st0" d="M138.8,17.1c-2.3,7.3,0,0-2.3,7.3c-0.8,2.5-1.5,5.7-2.8,7.1c-1.3,1.5-5,2.6-7.3,1.3c-1.3-0.7-2.4-2.6-3.5-3.8
		c-3.2-3.8,0,0-3.2-3.8c-0.9,2.7-1.8,5.3-2.7,8c-1.6,0-3.2,0-4.8,0c1-3.6,2.3-7,3.6-10.7c0.4-1.1,0.6-2.6,1.2-3.4
		c1.2-1.7,4.7-2.7,7.3-1.8c1.2,0.4,2.5,2.6,3.6,3.9c1.2,1.5,2.3,2.8,3.4,3.9c2.9-8.1,0,0,2.9-8.1C135.7,17.1,136.9,17.1,138.8,17.1z
		"/>
	<path class="st0" d="M161.8,20.1c-3.3-3.9-11.9-2.8-19.1-3c-5.5,16.2,0,0-5.5,16.2c13.2,0.7,20.8-0.3,24.7-6.4
		C163.4,24.7,163.1,21.7,161.8,20.1z M150.9,30.1c-1.3,0.6-2.7,0.4-4.2,0.4c3.6-10.6,0,0,3.6-10.6c2.1-0.1,4.3-0.2,4.6,1.8
		C155.3,23.9,153.4,28.9,150.9,30.1z"/>
	<path class="st1" d="M47.4,20.1c-2.1,4.7-5.9,8.7-12.3,9.2c-9.4,0.7-22.4-0.5-32.3,0c1.8-4.5,5.6-8.6,11.3-9.2c5-0.5,10.9,0,16.7,0
		C36.5,20.1,42.2,20.1,47.4,20.1z"/>
	<path class="st1" d="M31.5,32c-2,4.3-5.5,8.4-11.2,9.1c-3.4,0.4-7-0.3-11,0c1.9-4.3,5.5-8.5,11.2-9.1C23.9,31.7,27.5,32.3,31.5,32z
		"/>
	<path class="st0" d="M183.4,33.4c-2.7,0-5.4,0-8,0c-0.3-2.1,0,0-0.3-2.1c-9.5,0-9.5,0-9.5,0s0,0-2.1,2.1c-1.3,0-2.7,0-4,0
		c2.7-3.3,6.3-7.7,9.5-11.3c1.1-1.2,2.2-2.8,3.3-3.6c2-1.4,7.4-2.1,8.6,0.3c0.4,0.8,0.5,2.4,0.7,3.6C182.3,26,182.8,29.6,183.4,33.4
		z M168.1,28.5c2.1,0,4.1,0,6.3,0c-1.2-6.2,0,0-1.2-6.2C168.1,28.5,173.1,22.2,168.1,28.5z"/>
</g>
</svg>
