<?xml version="1.0" encoding="utf-8"?>
<!-- Generator: Adobe Illustrator 15.0.0, SVG Export Plug-In . SVG Version: 6.00 Build 0)  -->
<!DOCTYPE svg PUBLIC "-//W3C//DTD SVG 1.1//EN" "http://www.w3.org/Graphics/SVG/1.1/DTD/svg11.dtd">
<svg version="1.1" id="Layer_3" xmlns="http://www.w3.org/2000/svg" xmlns:xlink="http://www.w3.org/1999/xlink" x="0px" y="0px"
	 width="210px" height="300px" viewBox="72.5 100.4 210 300" style="enable-background:new 72.5 100.4 210 300;"
	 xml:space="preserve">
<style type="text/css">
<![CDATA[
	.st0{fill:#17539D;}
	.st1{fill:url(#SVGID_1_);}
	.st2{fill:#949599;}
	.st3{fill:#FFFFFF;}
]]>
</style>
<g>
	
		<linearGradient id="SVGID_1_" gradientUnits="userSpaceOnUse" x1="96.1255" y1="197.6282" x2="305.7841" y2="407.2867" gradientTransform="matrix(1 0 0 -1 -24.8398 509.4009)">
		<stop  offset="0" style="stop-color:#262962"/>
		<stop  offset="0.1191" style="stop-color:#242E68"/>
		<stop  offset="0.2845" style="stop-color:#203A7A"/>
		<stop  offset="0.4761" style="stop-color:#184F98"/>
		<stop  offset="0.5065" style="stop-color:#17539D"/>
		<stop  offset="0.9943" style="stop-color:#94CDEB"/>
	</linearGradient>
	<polygon class="st1" points="72.9,100.4 72.9,310.1 144.8,310.1 144.8,277.6 210.8,277.6 210.8,310.4 282.4,310.4 282.5,100.4 
		210.8,132.3 210.8,215.5 144.8,215.5 144.8,131.7 	"/>
	<rect x="72.8" y="317.3" class="st2" width="209.6" height="40.6"/>
	<g>
		<path class="st3" d="M124.8,325.3c-0.2,0.4-5.9,15.8-5.9,15.8s-5.8-15.3-5.9-15.8c-0.4,0-6.3,0-7.1,0c0.4,0.9,10.4,24.2,10.6,24.6
			c0.4,0,4.5,0,4.9,0c0.2-0.4,10.2-23.7,10.6-24.6C131,325.3,125.2,325.3,124.8,325.3z"/>
		<path class="st3" d="M136.3,325.3c0,0.7,0,23.9,0,24.5c0.6,0,6.3,0,6.9,0c0-0.7,0-23.9,0-24.5
			C142.6,325.3,136.9,325.3,136.3,325.3z"/>
		<path class="st3" d="M158.2,325.3c-0.2,0.4-10.2,23.7-10.6,24.6c0.9,0,6.7,0,7.1,0c0.1-0.4,1-2.8,1-2.8h9.8c0,0,0.9,2.4,1,2.8
			c0.4,0,6.2,0,7.1,0c-0.4-0.9-10.4-24.2-10.6-24.6C162.6,325.3,158.6,325.3,158.2,325.3z M160.6,334.1l3.2,8.4h-6.3L160.6,334.1z"
			/>
		<path class="st3" d="M211.2,325.3c-0.2,0.4-10.2,23.7-10.6,24.6c0.9,0,6.7,0,7.1,0c0.1-0.4,1-2.8,1-2.8h9.8c0,0,0.9,2.4,1,2.8
			c0.4,0,6.2,0,7.1,0c-0.4-0.9-10.4-24.2-10.6-24.6C215.7,325.3,211.6,325.3,211.2,325.3z M213.7,334.1l3.2,8.4h-6.3L213.7,334.1z"
			/>
		<path class="st3" d="M185.4,325c-6.2,0-9.2,2.1-9.2,6.3v2.9c0,2.2,0.9,3.9,2.5,4.7c1.2,0.6,2.7,0.8,6.4,0.8h4.8
			c1.5,0,2.2,0.6,2.2,2.1v0.3c0,1.5-0.6,2.1-2.2,2.1h-5.3c-0.8,0-1.3-0.2-1.7-0.5c-0.3-0.3-0.4-0.7-0.4-1.2c-0.6,0-5.6,0.2-6.3,0.3
			c0.8,5.1,3.3,7,9.2,7h3.8c6.2,0,9.2-2.1,9.2-6.4v-2.9c0-2.2-0.9-3.9-2.5-4.7c-1.2-0.6-2.7-0.8-6.4-0.8h-4.8
			c-1.5,0-2.2-0.6-2.2-2.1v-0.3c0-1.5,0.7-2.1,2.2-2.1h5.3c0.8,0,1.3,0.2,1.7,0.5c0.3,0.3,0.4,0.7,0.4,1.2c0.6-0.1,5.6-0.5,6.3-0.5
			c-1-4.9-3.4-6.7-9.2-6.7H185.4L185.4,325z"/>
		<path class="st3" d="M224.8,325.3c0,0.6,0,5.3,0,5.9c0.6,0,8.8,0,8.8,0v9.5c0,0,0,0,0,0v0c0,0,0,8.4,0,9c0.6,0,6.3,0,6.9,0
			c0-0.7,0-18.6,0-18.6s8.2,0,8.8,0c0-0.6,0-5.3,0-5.9C248.7,325.3,225.5,325.3,224.8,325.3z"/>
	</g>
	<g>
		<path class="st0" d="M72.5,366h7.4v13.4h13.7V366h7.4v33.8h-7.4v-13.6H79.9v13.6h-7.4V366z"/>
		<path class="st0" d="M108.2,366h7.4v33.8h-7.4V366z"/>
		<path class="st0" d="M120.4,394.9l4.4-5.3c3,2.5,6.2,4.1,10.1,4.1c3,0,4.9-1.2,4.9-3.2v-0.1c0-1.9-1.2-2.8-6.8-4.3
			c-6.8-1.7-11.2-3.6-11.2-10.3v-0.1c0-6.1,4.9-10.2,11.8-10.2c4.9,0,9.1,1.5,12.5,4.3l-3.9,5.6c-3-2.1-5.9-3.3-8.8-3.3
			s-4.3,1.3-4.3,2.9v0.1c0,2.2,1.4,2.9,7.3,4.4c6.9,1.8,10.7,4.2,10.7,10.1v0.1c0,6.7-5.1,10.5-12.4,10.5
			C129.6,400.3,124.5,398.5,120.4,394.9z"/>
		<path class="st0" d="M159.5,372.9h-10.3V366h28v6.9h-10.3v26.9h-7.4V372.9z"/>
		<path class="st0" d="M178.6,383L178.6,383c0-9.7,7.6-17.6,18-17.6c10.4,0,17.9,7.8,17.9,17.4v0.1c0,9.6-7.6,17.5-18,17.5
			C186.1,400.4,178.6,392.6,178.6,383z M206.7,383L206.7,383c0-5.9-4.2-10.7-10.2-10.7s-10.1,4.7-10.1,10.5v0.1
			c0,5.8,4.2,10.6,10.2,10.6C202.6,393.5,206.7,388.8,206.7,383z"/>
		<path class="st0" d="M219.8,366h15.4c4.3,0,7.6,1.2,9.8,3.4c1.9,1.9,2.9,4.5,2.9,7.7v0.1c0,5.5-2.9,8.9-7.2,10.5l8.2,12.1h-8.7
			l-7.2-10.8h-5.8v10.8h-7.4V366L219.8,366z M234.8,382.4c3.6,0,5.7-1.9,5.7-4.8v-0.1c0-3.2-2.2-4.8-5.8-4.8h-7.4v9.7H234.8z"/>
		<path class="st0" d="M261.7,386.5l-13-20.5h8.7l8.1,13.6l8.2-13.6h8.4l-13,20.3v13.5h-7.4V386.5z"/>
	</g>
</g>
</svg>
