<?xml version="1.0" encoding="utf-8"?>
<!-- Generator: Adobe Illustrator 15.0.0, SVG Export Plug-In . SVG Version: 6.00 Build 0)  -->
<!DOCTYPE svg PUBLIC "-//W3C//DTD SVG 1.1//EN" "http://www.w3.org/Graphics/SVG/1.1/DTD/svg11.dtd">
<svg version="1.1"
	 id="svg2" inkscape:version="0.45.1" inkscape:output_extension="org.inkscape.output.svg.inkscape" sodipodi:version="0.32" xmlns:dc="http://purl.org/dc/elements/1.1/" xmlns:cc="http://web.resource.org/cc/" xmlns:rdf="http://www.w3.org/1999/02/22-rdf-syntax-ns#" xmlns:svg="http://www.w3.org/2000/svg" xmlns:sodipodi="http://sodipodi.sourceforge.net/DTD/sodipodi-0.dtd" xmlns:inkscape="http://www.inkscape.org/namespaces/inkscape"
	 xmlns="http://www.w3.org/2000/svg" xmlns:xlink="http://www.w3.org/1999/xlink" x="0px" y="0px" width="57.3px" height="28px"
	 viewBox="78.8 38.5 57.3 28" style="enable-background:new 78.8 38.5 57.3 28;" xml:space="preserve">
<style type="text/css">
<![CDATA[
	.st0{fill:#80CB28;}
	.st1{fill:#2C7C41;}
	.st2{fill:#37A73E;}
]]>
</style>
<g id="layer1" transform="translate(-5.3047585,-942.00059)" inkscape:groupmode="layer" inkscape:label="Layer 1">
	<g>
		<g id="g11042" transform="matrix(1,0,0,-1,-47.827906,1225.5253)">
		</g>
	</g>
	<g id="g77664" transform="matrix(8.2120622,0,0,-8.2120622,94.356361,1003.2611)">
		<path id="path77666" class="st2" d="M1.6,0.8l0,2H1.1v-2H1.6z M-0.5,0.5l0.1,1.1l0.1-1.1H-0.5z M-0.8,2.8l-0.5-3.4h0.6l0.1,0.5
			h0.3l0-0.5h0.7L0,2.8H-0.8z M5.4,1.2v1.6H4.9v-2h0.8v0.4H5.4z M0.6,0.8v1.1l0.2-1.1H1l0,2H0.8V1.7L0.6,2.8H0.4v-2H0.6z M4.5,2.2
			l0.1-0.8H4.5L4.5,2.2z M4.4,1.1h0.1l0-0.4h0.2l-0.2,2H4.4l-0.2-2h0.2L4.4,1.1z M5.6,1.2L5.6,1.2L5.6,1.2L5.6,1.2L5.6,1.2L5.6,1.2
			L5.6,1.2L5.6,1.2L5.6,1.2L5.5,1.3h0L5.6,1.2l0,0.1h0L5.6,1.2L5.6,1.2z M5.5,1.3L5.5,1.3L5.5,1.3L5.5,1.3L5.5,1.3L5.5,1.3L5.5,1.3
			L5.5,1.3L5.5,1.3z"/>
	</g>
	<g>
		<g id="g77668" transform="matrix(8.2120622,0,0,-8.2120622,-796.38972,4359.0502)">
			<g id="g77670" transform="translate(111.7666,404.9742)">
				<path id="path77672" class="st1" d="M-0.8,3.5l0.1,0.5l0.1-0.5H-0.8z M-0.9,4.4L-1.2,3h0.3l0,0.2h0.2l0-0.2h0.4l-0.2,1.3H-0.9z
					 M-1.5,4.4h-0.4V3h0.7v0.3h-0.3V4.4z M1.6,4.1h0.2V3h0.4v1.1h0.2v0.3H1.6V4.1z M-2.3,3.8C-2.3,3.8-2.3,3.8-2.3,3.8l-0.1-0.1v0.3
					h0.1c0,0,0.1,0,0.1-0.1V3.8z M-2.3,4.4h-0.5V3h0.4v0.5h0.1c0.2,0,0.3,0.1,0.3,0.3v0.3C-1.9,4.2-2.1,4.4-2.3,4.4 M1.2,3.6h0.3
					v0.3H1.2v0.3h0.3v0.3H0.8V3h0.7v0.3H1.2V3.6z M0.5,3.7L0.1,4.4h-0.3V3h0.3v0.6L0.5,3h0.3v1.3H0.5V3.7z"/>
			</g>
			<g id="g77674" transform="translate(117.8412,413.0581)">
				<path id="path77676" class="st0" d="M-5.2-2.5v0.8h-2.4v-0.5h1.5l-1.5-0.3l0-0.3l1.5-0.3h-1.5v-0.5h2.4v0.8l-1.1,0.2L-5.2-2.5z"
					/>
			</g>
		</g>
	</g>
</g>
</svg>
