<?xml version="1.0" encoding="utf-8"?>
<!-- Generator: Adobe Illustrator 15.0.0, SVG Export Plug-In . SVG Version: 6.00 Build 0)  -->
<!DOCTYPE svg PUBLIC "-//W3C//DTD SVG 1.1//EN" "http://www.w3.org/Graphics/SVG/1.1/DTD/svg11.dtd">
<svg version="1.1"
	 id="svg2" inkscape:version="0.47 r22583" xmlns:dc="http://purl.org/dc/elements/1.1/" xmlns:cc="http://creativecommons.org/ns#" xmlns:rdf="http://www.w3.org/1999/02/22-rdf-syntax-ns#" xmlns:svg="http://www.w3.org/2000/svg" xmlns:sodipodi="http://sodipodi.sourceforge.net/DTD/sodipodi-0.dtd" xmlns:inkscape="http://www.inkscape.org/namespaces/inkscape"
	 xmlns="http://www.w3.org/2000/svg" xmlns:xlink="http://www.w3.org/1999/xlink" x="0px" y="0px" width="86px" height="28px"
	 viewBox="287 93.5 86 28" style="enable-background:new 287 93.5 86 28;" xml:space="preserve">
<style type="text/css">
<![CDATA[
	.st0{fill:#1B5BAA;}
	.st1{fill:#ED1C24;}
]]>
</style>
<g id="layer1" transform="translate(-15.50414,-320.1331)" inkscape:groupmode="layer" inkscape:label="Layer 1">
	<path id="path21764" class="st0" d="M308.1,436.6h-5.6v-17.7c0,0,10.6,0,13.8,0s3.6,2.2,3.6,3.6c0,1.4,0,14.2,0,14.2h-5.8v-13.1
		h-5.9L308.1,436.6"/>
	<path id="path21768" class="st0" d="M363.7,418.3l-3.7,13.3h-0.1l-3.7-13.3h-6.9l6.7,18.5h7.6l6.1-16.5l0.7-2H363.7"/>
	<path id="path21772" class="st0" d="M376.9,429.4c-1.3,0-1.2,3.1,0,3.1c1.3,0,5.9,0,5.9,0v-3.1
		C382.9,429.4,378.2,429.4,376.9,429.4z M371.7,422.6l1.2-4c0,0,9.5,0,12,0c3,0,3.6,1.4,3.6,3.9c0,2.5,0,13.9,0,13.9s-9.7,0-13.4,0
		c-3.8,0-4.7-1.9-4.7-4.7s0.9-6.5,3.8-6.5c2.8,0,8.8,0,8.8,0v-2.4L371.7,422.6"/>
	<path id="path21776" class="st0" d="M323,421.7c-0.4,1.1-1.1,3-1.3,4.2l0,0.4c0,0,7.7,2.8,12.6,6.3c4.8,3.4,6.4,4.2,7.4,7.6
		c1.1-0.5,2.1-1.2,3-1.9c0-0.2,1.2-0.9,1.1-1.1c-0.5-1.8-6.6-5.1-12.6-8.9C328.8,425.6,325,422.9,323,421.7"/>
	<path id="path21782" class="st0" d="M321.8,429.4c0.1,0.5,0.3,1.7,0.5,2.2c0.1,0.4,0.2,0.9,0.4,1.3c1,0.6,2.4,1.4,4.1,2.6
		c4.7,3.1,6,3.3,7,6.1c1.4,0.2,2.7,0.2,4.2,0c-1.3-1.7-4.8-4.3-8.9-6.9C326.4,432.8,323.7,430.5,321.8,429.4"/>
	<path id="path21786" class="st0" d="M349.1,423.7c0,0-0.8-2-1.3-3c-1.8-1.6-4.4-3.8-8.2-5.8c-0.8-0.4-1.7-0.7-2.7-1.1
		c-1.7-0.3-3.1,0.1-4.9,0.5c3.5,1.3,9.9,4.3,12.8,6.1c3.7,2.3,4.5,3.9,4.5,3.9L349.1,423.7"/>
	<path id="path21790" class="st0" d="M331.6,417.6c-1.3-0.8-2.4-1.2-3.3-1.8c-1.1,0.7-2.1,1.5-3,2.5c2,1,9,4.3,14.6,7.8
		c5.9,3.7,7.1,4.2,8.3,8.1c0.6-1.1,1-2.3,1.3-3.5c-0.4-0.8-1.4-2.4-2.9-3.5C341.9,423.7,334.8,419.5,331.6,417.6"/>
	<path id="path21794" class="st1" d="M328.3,415.8C328.3,415.8,328.3,415.8,328.3,415.8C328.3,415.8,328.3,415.8,328.3,415.8
		c-1.4,0.9-2.8,2-3.8,3.4l0,0c0,0,0,0,0,0c1.6,1.7,5.1,5.3,8.5,9.1c4.7,5.2,8.5,10.2,8.5,12.1c0,0,0,0.1,0,0.1
		c1.7-0.7,3.3-1.8,4.5-3.1c-0.1-3.7-1.6-4.2-6-9.4L328.3,415.8z M347,424.5c-2.3-2.6-8-8.4-10.3-10.8l-1-0.1c-1.2,0-2.5,0.2-3.8,0.6
		c0,0,0,0,0,0c0.7,0.9,1.6,2,2.6,3.2c2.4,2.8,8.4,8.5,11.9,13.1c1,1.3,1.5,2.8,1.7,3.8c0.8-1.5,1.3-3.1,1.5-4.8
		C349.6,428.2,349,426.9,347,424.5L347,424.5z M349.3,424.2c-1-4-3.6-7.2-7.2-9l-0.3-0.1c0.5,0.5,0.9,1,1.4,1.5
		C345.8,419.5,348,422.1,349.3,424.2L349.3,424.2z M323,421.7l-0.1,0.1c-0.7,1.3-1.1,3-1.3,4.5c1.5,1.6,3.6,3.7,5.7,6.1
		c3.1,3.5,5.5,6.1,6.5,9.1c0.6,0.1,1.2,0.1,1.8,0.1c0.8,0,1.7-0.1,2.5-0.2c-0.1-3.3-1.6-4.6-5.2-9.1
		C329.1,427.6,323,421.7,323,421.7L323,421.7z M321.8,429.4c0.6,4.9,3.6,9,8,11c-0.2-2.7-1.5-3.3-4.9-7.5
		C323.9,431.7,323,430.6,321.8,429.4"/>
</g>
</svg>
