<?xml version="1.0" encoding="utf-8"?>
<!-- Generator: Adobe Illustrator 15.0.0, SVG Export Plug-In . SVG Version: 6.00 Build 0)  -->
<!DOCTYPE svg PUBLIC "-//W3C//DTD SVG 1.1//EN" "http://www.w3.org/Graphics/SVG/1.1/DTD/svg11.dtd">
<svg version="1.1"
	 id="svg14734" inkscape:version="0.48.2 r9819" sodipodi:docname="AJAX1.svg" xmlns:dc="http://purl.org/dc/elements/1.1/" xmlns:cc="http://creativecommons.org/ns#" xmlns:rdf="http://www.w3.org/1999/02/22-rdf-syntax-ns#" xmlns:svg="http://www.w3.org/2000/svg" xmlns:sodipodi="http://sodipodi.sourceforge.net/DTD/sodipodi-0.dtd" xmlns:inkscape="http://www.inkscape.org/namespaces/inkscape"
	 xmlns="http://www.w3.org/2000/svg" xmlns:xlink="http://www.w3.org/1999/xlink" x="0px" y="0px" width="39.957px" height="28px"
	 viewBox="492.022 344.782 39.957 28" style="enable-background:new 492.022 344.782 39.957 28;" xml:space="preserve">
<style type="text/css">
<![CDATA[
	.st0{fill:url(#path2620_1_);}
	.st1{fill:#E7262F;}
	.st2{fill:url(#path2558_1_);}
	.st3{fill:#EFE34B;}
	.st4{fill:url(#path2730_1_);}
	.st5{fill:url(#path2664_1_);}
	.st6{fill:url(#path2490_1_);}
	.st7{fill:url(#path2706_1_);}
	.st8{fill:url(#path2600_1_);}
	.st9{fill:url(#path2538_1_);}
	.st10{fill:url(#path2642_1_);}
	.st11{fill:url(#path2512_1_);}
	.st12{fill:url(#path2684_1_);}
	.st13{fill:url(#path2754_1_);}
	.st14{fill:url(#path2580_1_);}
]]>
</style>
<sodipodi:namedview  id="namedview133" inkscape:current-layer="g14655" inkscape:window-y="-8" inkscape:window-x="-8" fit-margin-bottom="0" fit-margin-right="0" inkscape:window-height="1004" inkscape:window-width="1280" inkscape:pageshadow="2" inkscape:pageopacity="0" inkscape:window-maximized="1" inkscape:cy="309.58834" borderopacity="1" inkscape:cx="489.95767" bordercolor="#666666" showgrid="false" pagecolor="#ffffff" inkscape:zoom="0.62890625" guidetolerance="10" gridtolerance="10" fit-margin-left="0" objecttolerance="10" fit-margin-top="0">
	</sodipodi:namedview>
<g id="layer1" transform="translate(-335.57229,21.883256)">
	<g id="g14655" transform="matrix(35.488156,0,0,35.488156,-13307.938,-33860.894)">
		<g id="g2470" transform="matrix(1.25,0,0,-1.25,-66.33875,1102.8347)">
			<g id="g2472">
				<g id="g2474">
					<g id="g2480">
						
							<linearGradient id="path2490_1_" gradientUnits="userSpaceOnUse" x1="363.274" y1="104.4459" x2="363.3129" y2="104.4459" gradientTransform="matrix(377.9542 1407.6842 1407.6842 -377.9542 -283955.8438 -471788.7813)">
							<stop  offset="0" style="stop-color:#5E161A"/>
							<stop  offset="0.4481" style="stop-color:#E8262F"/>
							<stop  offset="1" style="stop-color:#5E161A"/>
						</linearGradient>
						<path id="path2490" inkscape:connector-curvature="0" class="st6" d="M372.383,111.394l-0.011-0.072h-0.047l0.011,0.072h-0.06
							l-0.024-0.16h-0.474c-0.001,0-0.003-0.001-0.004-0.002l-0.033-0.033c-0.001-0.001-0.001-0.002,0.001-0.002h0.566l0.011,0.076
							h0.047l-0.011-0.076h0.061l0.028,0.195H372.383"/>
					</g>
				</g>
			</g>
		</g>
		<g id="g2492" transform="matrix(1.25,0,0,-1.25,-66.33875,1102.8347)">
			<g id="g2494">
				<g id="g2496">
					<g id="g2502">
						
							<linearGradient id="path2512_1_" gradientUnits="userSpaceOnUse" x1="363.274" y1="104.4389" x2="363.3136" y2="104.4389" gradientTransform="matrix(375.7091 1399.3193 1399.3193 -375.7091 -282256.4063 -468987.3125)">
							<stop  offset="0" style="stop-color:#5E161A"/>
							<stop  offset="0.9508" style="stop-color:#E8262F"/>
							<stop  offset="1" style="stop-color:#E8262F"/>
						</linearGradient>
						<path id="path2512" inkscape:connector-curvature="0" class="st11" d="M372.51,111.244c0.004,0,0.008,0,0.011,0
							c0.003,0,0.007,0.001,0.011,0.003c0.006,0.003,0.011,0.007,0.015,0.013c0.004,0.006,0.008,0.012,0.01,0.018
							c0.002,0.006,0.004,0.013,0.005,0.02c0.001,0.007,0.001,0.014,0,0.021c-0.001,0.008-0.003,0.014-0.006,0.02
							c-0.002,0.003-0.004,0.005-0.006,0.007s-0.005,0.003-0.007,0.003c-0.003,0.001-0.005,0.001-0.008,0.001
							c-0.003,0-0.006,0-0.01,0h-0.007l-0.015-0.106H372.51L372.51,111.244z M372.462,111.394h0.073c0.007,0,0.014,0,0.02-0.001
							c0.006-0.001,0.012-0.002,0.018-0.003c0.006-0.002,0.011-0.004,0.016-0.007c0.005-0.003,0.01-0.007,0.015-0.012
							c0.009-0.01,0.015-0.021,0.018-0.034c0.003-0.013,0.004-0.026,0.002-0.04c-0.002-0.013-0.006-0.026-0.012-0.038
							c-0.006-0.013-0.015-0.023-0.025-0.033c-0.011-0.01-0.023-0.017-0.036-0.021s-0.026-0.006-0.04-0.006h-0.077L372.462,111.394"
							/>
					</g>
				</g>
			</g>
		</g>
		<path id="path2514" inkscape:connector-curvature="0" class="st1" d="M398.44,963.696c0.001-0.001,0.001-0.003,0-0.004
			l-0.048-0.048c-0.001-0.001-0.002-0.001-0.002,0.001v0.098c0,0.002,0.001,0.002,0.002,0.001L398.44,963.696"/>
		<path id="path2516" inkscape:connector-curvature="0" class="st1" d="M398.317,963.815c0,0.002,0.001,0.002,0.002,0.001
			l0.043-0.044c0.001-0.001,0.002-0.003,0.002-0.005v-0.148c0-0.002-0.001-0.004-0.002-0.005l-0.043-0.043
			c-0.001-0.001-0.002-0.001-0.002,0.001V963.815"/>
		<g id="g2518" transform="matrix(1.25,0,0,-1.25,-66.33875,1102.8347)">
			<g id="g2520">
				<g id="g2522">
					<g id="g2528">
						
							<linearGradient id="path2538_1_" gradientUnits="userSpaceOnUse" x1="363.2729" y1="104.4525" x2="363.3121" y2="104.4525" gradientTransform="matrix(227.9653 -429.2612 -429.2612 -227.9653 -37604.1563 179862.2188)">
							<stop  offset="0" style="stop-color:#B17023"/>
							<stop  offset="0.52" style="stop-color:#955A1E"/>
							<stop  offset="1" style="stop-color:#F0CC29"/>
						</linearGradient>
						<path id="path2538" inkscape:connector-curvature="0" class="st9" d="M372.233,111.256l-0.101,0.047l0,0.323l0.101,0.047
							l-0.046-0.047l0-0.323L372.233,111.256"/>
					</g>
				</g>
			</g>
		</g>
		<g id="g2540" transform="matrix(1.25,0,0,-1.25,-66.33875,1102.8347)">
			<g id="g2542">
				<g id="g2544">
					<g id="g2550">
						
							<linearGradient id="path2558_1_" gradientUnits="userSpaceOnUse" x1="363.2655" y1="104.4721" x2="363.3046" y2="104.4721" gradientTransform="matrix(227.9218 0 0 -227.9218 -82424.1094 23923.1152)">
							<stop  offset="0" style="stop-color:#F0D524"/>
							<stop  offset="1" style="stop-color:#F2EEA4"/>
						</linearGradient>
						<path id="path2558" inkscape:connector-curvature="0" class="st2" d="M372.233,111.672l-0.101-0.047l-0.1,0.047H372.233"/>
					</g>
				</g>
			</g>
		</g>
		<g id="g2560" transform="matrix(1.25,0,0,-1.25,-66.33875,1102.8347)">
			<g id="g2562">
				<g id="g2564">
					<g id="g2570">
						
							<linearGradient id="path2580_1_" gradientUnits="userSpaceOnUse" x1="363.2623" y1="104.4587" x2="363.3015" y2="104.4587" gradientTransform="matrix(-101.8905 457.2804 457.2804 101.8905 -10382.0732 -176644.7813)">
							<stop  offset="0" style="stop-color:#EDEA64"/>
							<stop  offset="0.51" style="stop-color:#D26D1B"/>
							<stop  offset="1" style="stop-color:#F5CC1C"/>
						</linearGradient>
						<path id="path2580" inkscape:connector-curvature="0" class="st14" d="M371.798,111.256l0.101,0.047l0,0.323l-0.101,0.047
							l0.047-0.047l0-0.323L371.798,111.256"/>
					</g>
				</g>
			</g>
		</g>
		<g id="g2582" transform="matrix(1.25,0,0,-1.25,-66.33875,1102.8347)">
			<g id="g2584">
				<g id="g2586">
					<g id="g2592">
						
							<linearGradient id="path2600_1_" gradientUnits="userSpaceOnUse" x1="363.2907" y1="104.472" x2="363.3298" y2="104.472" gradientTransform="matrix(228.6471 0 0 -228.6471 -82693.5625 23998.8672)">
							<stop  offset="0" style="stop-color:#F0D524"/>
							<stop  offset="1" style="stop-color:#F2EEA4"/>
						</linearGradient>
						<path id="path2600" inkscape:connector-curvature="0" class="st8" d="M371.899,111.625l-0.101,0.047l0.201,0L371.899,111.625"
							/>
					</g>
				</g>
			</g>
		</g>
		<g id="g2602" transform="matrix(1.25,0,0,-1.25,-66.33875,1102.8347)">
			<g id="g2604">
				<g id="g2606">
					<g id="g2612">
						
							<linearGradient id="path2620_1_" gradientUnits="userSpaceOnUse" x1="363.3165" y1="104.4067" x2="363.3555" y2="104.4067" gradientTransform="matrix(82.2833 0 0 -82.2833 -29522.9766 8702.2012)">
							<stop  offset="0" style="stop-color:#986721"/>
							<stop  offset="1" style="stop-color:#F4C51A"/>
						</linearGradient>
						<path id="path2620" inkscape:connector-curvature="0" class="st0" d="M371.899,111.302l-0.101-0.047l0.201,0L371.899,111.302"
							/>
					</g>
				</g>
			</g>
		</g>
		<g id="g2622" transform="matrix(1.25,0,0,-1.25,-66.33875,1102.8347)">
			<g id="g2624">
				<g id="g2626">
					<g id="g2632">
						
							<linearGradient id="path2642_1_" gradientUnits="userSpaceOnUse" x1="366.1599" y1="99.0024" x2="365.8589" y2="99.0024" gradientTransform="matrix(44.3602 -44.3602 -44.3602 -44.3602 -11478.915 20746.1348)">
							<stop  offset="0" style="stop-color:#EDEA64"/>
							<stop  offset="0.51" style="stop-color:#D26D1B"/>
							<stop  offset="1" style="stop-color:#F5CC1C"/>
						</linearGradient>
						<path id="path2642" inkscape:connector-curvature="0" class="st10" d="M372.132,111.496v0.129l-0.1,0.047l0.046-0.047v-0.089
							L372.132,111.496"/>
					</g>
				</g>
			</g>
		</g>
		<g id="g2644" transform="matrix(1.25,0,0,-1.25,-66.33875,1102.8347)">
			<g id="g2646">
				<g id="g2648">
					<g id="g2654">
						
							<linearGradient id="path2664_1_" gradientUnits="userSpaceOnUse" x1="366.1599" y1="99.005" x2="365.8621" y2="99.005" gradientTransform="matrix(44.3602 -44.3602 -44.3602 -44.3602 -11478.915 20746.1348)">
							<stop  offset="0" style="stop-color:#EDEA64"/>
							<stop  offset="0.51" style="stop-color:#D26D1B"/>
							<stop  offset="1" style="stop-color:#F5CC1C"/>
						</linearGradient>
						<path id="path2664" inkscape:connector-curvature="0" class="st5" d="M372.132,111.496l0-0.194l-0.1-0.046l0.046,0.047
							l0,0.143L372.132,111.496"/>
					</g>
				</g>
			</g>
		</g>
		<g id="g2666" transform="matrix(1.25,0,0,-1.25,-66.33875,1102.8347)">
			<g id="g2668">
				<g id="g2670">
					<g id="g2676">
						
							<linearGradient id="path2684_1_" gradientUnits="userSpaceOnUse" x1="363.2467" y1="104.4066" x2="363.2858" y2="104.4066" gradientTransform="matrix(82.215 0 0 -82.215 -29492.1855 8695.0654)">
							<stop  offset="0" style="stop-color:#986721"/>
							<stop  offset="1" style="stop-color:#F4C51A"/>
						</linearGradient>
						<path id="path2684" inkscape:connector-curvature="0" class="st12" d="M372.233,111.256l-0.101,0.047l-0.1-0.046
							L372.233,111.256"/>
					</g>
				</g>
			</g>
		</g>
		<g id="g2686" transform="matrix(1.25,0,0,-1.25,-66.33875,1102.8347)">
			<g id="g2688">
				<g id="g2690">
					<g id="g2696">
						
							<linearGradient id="path2706_1_" gradientUnits="userSpaceOnUse" x1="363.2734" y1="104.4443" x2="363.3126" y2="104.4443" gradientTransform="matrix(221.6151 -417.3066 -417.3066 -221.6151 -36549.6602 174854.4375)">
							<stop  offset="0" style="stop-color:#B17023"/>
							<stop  offset="0.52" style="stop-color:#955A1E"/>
							<stop  offset="1" style="stop-color:#F0CC29"/>
						</linearGradient>
						<path id="path2706" inkscape:connector-curvature="0" class="st7" d="M371.899,111.625l0.1,0.047l-0.047-0.047v-0.089
							l-0.054-0.04V111.625"/>
					</g>
				</g>
			</g>
		</g>
		<g id="g2708" transform="matrix(1.25,0,0,-1.25,-66.33875,1102.8347)">
			<g id="g2710">
				<g id="g2712">
					<g id="g2718">
						
							<linearGradient id="path2730_1_" gradientUnits="userSpaceOnUse" x1="363.2729" y1="104.4385" x2="363.3125" y2="104.4385" gradientTransform="matrix(233.3373 -439.3793 -439.3793 -233.3373 -38505.1836 184095.5938)">
							<stop  offset="0" style="stop-color:#B17023"/>
							<stop  offset="0.43" style="stop-color:#A35E28"/>
							<stop  offset="0.92" style="stop-color:#F0CC29"/>
							<stop  offset="1" style="stop-color:#F0CC29"/>
						</linearGradient>
						<path id="path2730" inkscape:connector-curvature="0" class="st4" d="M371.899,111.496l0-0.194l0.1-0.047l-0.047,0.047
							l0,0.143L371.899,111.496"/>
					</g>
				</g>
			</g>
		</g>
		<g id="g2732" transform="matrix(1.25,0,0,-1.25,-66.33875,1102.8347)">
			<g id="g2734">
				<g id="g2736">
					<g id="g2742">
						
							<radialGradient id="path2754_1_" cx="363.2621" cy="104.4315" r="0.0399" gradientTransform="matrix(597.8193 0 0 -598.5278 -216793.1094 62616.1758)" gradientUnits="userSpaceOnUse">
							<stop  offset="0" style="stop-color:#9E671E"/>
							<stop  offset="0.95" style="stop-color:#E7B40F"/>
							<stop  offset="0.95" style="stop-color:#E7B40F"/>
							<stop  offset="1" style="stop-color:#E7B40F"/>
						</radialGradient>
						<path id="path2754" inkscape:connector-curvature="0" class="st13" d="M372.132,111.496l-0.233,0l0.054-0.051l0.126,0
							L372.132,111.496"/>
					</g>
				</g>
			</g>
		</g>
		<path id="path2756" inkscape:connector-curvature="0" class="st3" d="M398.826,963.465l-0.066-0.049h-0.157l-0.067,0.05
			L398.826,963.465"/>
		<path id="path2758" inkscape:connector-curvature="0" d="M398.341,963.878h0.047v0.058h0.046v-0.058h0.047v0.154h-0.047v-0.061
			h-0.046v0.061h-0.047V963.878"/>
		<path id="path2760" inkscape:connector-curvature="0" d="M398.513,964.031h0.047v-0.154h-0.047V964.031z"/>
		<path id="path2762" inkscape:connector-curvature="0" d="M398.688,963.92c-0.009-0.01-0.02-0.014-0.034-0.014
			c-0.012,0-0.02,0.004-0.02,0.011c0,0.025,0.09,0.003,0.09,0.065c0,0.025-0.022,0.051-0.07,0.051c-0.029,0-0.055-0.006-0.072-0.03
			l0.028-0.021c0.01,0.012,0.025,0.019,0.041,0.019c0.018,0,0.026-0.007,0.026-0.013c0-0.023-0.089-0.005-0.089-0.064
			c0-0.03,0.027-0.051,0.066-0.051c0.023,0,0.046,0.007,0.061,0.024L398.688,963.92"/>
		<path id="path2764" inkscape:connector-curvature="0" d="M398.775,963.908h-0.045v-0.031h0.137v0.031h-0.045v0.123h-0.047V963.908
			"/>
		<path id="path2766" inkscape:connector-curvature="0" d="M398.922,963.954c0,0.041,0.013,0.049,0.029,0.049
			c0.016,0,0.029-0.008,0.029-0.049c0-0.039-0.011-0.049-0.029-0.049C398.932,963.905,398.922,963.917,398.922,963.954z
			 M398.951,964.034c-0.049,0-0.078-0.031-0.078-0.08s0.029-0.08,0.078-0.08c0.049,0,0.078,0.031,0.078,0.08
			S399,964.034,398.951,964.034"/>
		<path id="path2768" inkscape:connector-curvature="0" d="M399.096,963.939h0.024c0.013,0,0.023-0.005,0.023-0.015
			c0-0.01-0.007-0.017-0.021-0.017h-0.026V963.939z M399.049,963.878h0.079c0.055,0,0.065,0.024,0.065,0.044
			c0,0.019-0.013,0.032-0.031,0.039l0.031,0.071h-0.052l-0.023-0.063h-0.021v0.063h-0.047V963.878"/>
		<path id="path2770" inkscape:connector-curvature="0" d="M399.25,963.966l-0.059-0.088h0.053l0.034,0.052l0.033-0.052h0.043
			l-0.056,0.085v0.069h-0.047V963.966"/>
	</g>
</g>
</svg>
