<?xml version="1.0" encoding="utf-8"?>
<!-- Generator: Adobe Illustrator 15.0.0, SVG Export Plug-In . SVG Version: 6.00 Build 0)  -->
<!DOCTYPE svg PUBLIC "-//W3C//DTD SVG 1.1//EN" "http://www.w3.org/Graphics/SVG/1.1/DTD/svg11.dtd">
<svg version="1.1" id="Layer_1" xmlns="http://www.w3.org/2000/svg" xmlns:xlink="http://www.w3.org/1999/xlink" x="0px" y="0px"
	 width="42.5px" height="50.2px" viewBox="0 0 42.5 50.2" style="enable-background:new 0 0 42.5 50.2;" xml:space="preserve">
<style type="text/css">
<![CDATA[
	.st0{fill-rule:evenodd;clip-rule:evenodd;fill:url(#SVGID_1_);stroke:#C90323;stroke-width:0.35;stroke-miterlimit:10;}
	.st1{fill-rule:evenodd;clip-rule:evenodd;}
	.st2{fill-rule:evenodd;clip-rule:evenodd;fill:#006837;}
	.st3{fill-rule:evenodd;clip-rule:evenodd;fill:#010101;}
]]>
</style>
<radialGradient id="SVGID_1_" cx="26.5073" cy="14.6748" r="21.06" gradientUnits="userSpaceOnUse">
	<stop  offset="0" style="stop-color:#F16391"/>
	<stop  offset="0.9916" style="stop-color:#E2012D"/>
</radialGradient>
<path class="st0" d="M24.1,0.2C17.4,2,12.8,5.2,9.8,8.8c-5.9,7.1-5.7,15.9-2.6,20.8c5.2,8.2,17.3,8.1,23.9,1.4
	c6.9-7,6-15.4,1.3-18.4C23.9,7.2,13.5,14.8,15.2,24c0.6,3.3,8.1,8.2,14.7-1.5c0.1-0.2,0.3-0.4,0.6-0.3c0.4,0.1,0.2,0.7,0.2,0.9
	C26.7,36.2,8,31.7,10.4,18.8C12.4,7.8,26,1.7,34.6,6.4C46.5,12.8,42.4,28,34,36.2c-4,3.9-9.4,5.7-14.8,5.8c-5.4,0-10.8-1.7-14.7-6.1
	C-2.1,28.3-2.3,6.5,18.2,0.2h-18v42.1h42.1V0.2H24.1z"/>
<path class="st3" d="M0.2,44.2c2.3,0,4.5,0,6.8,0c0,0.5,0,0.9,0,1.4c-0.8,0-1.7,0-2.5,0c0,1.5,0,3,0,4.5c-0.6,0-1.2,0-1.8,0
	c0-1.5,0-3,0-4.5c-0.8,0-1.6,0-2.5,0C0.2,45.2,0.2,44.7,0.2,44.2z"/>
<path class="st3" d="M13.8,44.2c-0.7,1.4-1.6,3-2.2,4.2c-0.7-1.2-1.5-2.9-2.2-4.2c-0.7,0-1.3,0-2,0c1,2,2.1,3.9,3.1,5.9
	c0.4,0,0.7,0,1.1,0s0.7,0,1.1,0c1-2,2.1-4,3.1-5.9C15.1,44.2,14.4,44.2,13.8,44.2z"/>
<polygon class="st2" points="18.2,47.7 18.2,47.7 18.2,47.7 18.2,47.7 18.2,47.7 18.2,47.7 18.2,47.7 18.2,47.7 "/>
<path class="st1" d="M26,44.2c-0.6,0-1.2,0-1.8,0c0,1.3,0,2.5,0,3.7c0,0.4-0.4,0.8-0.8,0.8c-0.3,0-0.6,0-0.9,0
	c-0.4,0-0.8-0.3-0.8-0.8c0,0,0-0.1,0-0.4c-0.6,0-1.2,0-1.8,0c0,0.3,0,0.2,0,0.6c0,1.1,0.9,2,2,2c1.3,0,1.2,0,2,0c1.1,0,2-0.9,2-2
	C26,48.2,26,45.4,26,44.2z"/>
<path class="st1" d="M42,44.2c-0.6,0-1.2,0-1.8,0c0,1.3,0,2.5,0,3.7c0,0.4-0.4,0.8-0.8,0.8c-0.3,0-0.6,0-0.9,0
	c-0.4,0-0.8-0.3-0.8-0.8c0,0,0-0.1,0-0.4c-0.6,0-1.2,0-1.8,0c0,0.3,0,0.2,0,0.6c0,1.1,0.9,2,2,2c1.3,0,1.2,0,2,0c1.1,0,2-0.9,2-2
	C42,48.2,42,45.4,42,44.2z"/>
<path class="st1" d="M33.5,44.2L33.5,44.2l-4.5,0v0c-1,0.1-1.8,1-1.8,2v2h0c0,1,0.8,1.8,1.8,1.9v0h4.5v0c1-0.1,1.8-0.9,1.8-1.9h0v-2
	C35.2,45.2,34.5,44.3,33.5,44.2z M33.5,48c0,0.4-0.4,0.8-0.8,0.8h-2.9c-0.4,0-0.8-0.3-0.8-0.8v-1.5c0-0.4,0.4-0.8,0.8-0.8h2.9
	c0.4,0,0.8,0.4,0.8,0.8V48z"/>
</svg>
