<?xml version="1.0" encoding="utf-8"?>
<!-- Generator: Adobe Illustrator 15.0.0, SVG Export Plug-In . SVG Version: 6.00 Build 0)  -->
<!DOCTYPE svg PUBLIC "-//W3C//DTD SVG 1.1//EN" "http://www.w3.org/Graphics/SVG/1.1/DTD/svg11.dtd">
<svg version="1.1" id="Layer_1" xmlns="http://www.w3.org/2000/svg" xmlns:xlink="http://www.w3.org/1999/xlink" x="0px" y="0px"
	 width="46.7px" height="28px" viewBox="0 0 46.7 28" style="enable-background:new 0 0 46.7 28;" xml:space="preserve">
<style type="text/css">
<![CDATA[
	.st0{display:none;fill-rule:evenodd;clip-rule:evenodd;fill:#B2C3CD;}
	.st1{display:none;fill-rule:evenodd;clip-rule:evenodd;fill:#555555;}
	.st2{display:none;fill-rule:evenodd;clip-rule:evenodd;fill:#5DB7E7;}
	.st3{display:none;fill-rule:evenodd;clip-rule:evenodd;fill:#FFFFFF;}
	.st4{fill-rule:evenodd;clip-rule:evenodd;fill:#3992CF;}
	.st5{fill-rule:evenodd;clip-rule:evenodd;fill:#010101;}
]]>
</style>
<g>
	<path class="st5" d="M35.3,2c1.4-1.3,4.2-1.9,6.4-0.9c1.9,0.8,3.2,2.6,3.3,5c0,0.2,0,0.4,0,0.7c-0.1,1.6-0.7,2.7-1.5,3.6
		c-0.1,0.1-0.3,0.2-0.4,0.4c-0.9,0.8-2.3,1.5-4,1.5c-1.7,0-3.1-0.7-4-1.5c-0.1-0.1-0.2-0.3-0.4-0.4c-0.8-0.9-1.4-2-1.5-3.5
		c0-0.1,0-0.3,0-0.3c0-0.1,0-0.1,0-0.2c0.1-0.1,0-0.2,0-0.3c0.1-1.5,0.6-2.5,1.3-3.4C34.8,2.4,35,2.2,35.3,2z M38.9,2.4
		c-2.2,0.2-3.4,1.5-3.6,3.8c-0.1,0.1-0.1,0.3,0,0.4c0.2,2.2,1.3,3.5,3.4,3.8c0.2,0.1,0.6,0.1,0.8,0c0.9-0.1,1.5-0.4,2.1-0.9
		c0.1-0.1,0.2-0.2,0.3-0.3c0.5-0.6,0.9-1.4,1-2.6c0-0.1,0-0.2,0-0.3c-0.2-2.3-1.4-3.6-3.6-3.9C39.3,2.3,39,2.3,38.9,2.4z"/>
	<path class="st1" d="M20.1,0.8c2.7-0.1,5.7-0.1,8.4,0C25.7,0.8,22.9,0.8,20.1,0.8z"/>
	<path class="st2" d="M4.6,0.8c1.6-0.1,3.3,0,5,0C8,0.9,6.3,0.8,4.6,0.8z"/>
	<path class="st5" d="M20,2.5c-0.9-0.1-0.9-1.7,0.1-1.7c2.8,0,5.6,0,8.4,0c0.6,0.1,0.9,0.7,0.7,1.4c-0.1,0.4-0.6,0.8-0.9,1.1
		c-2.1,2.3-4.6,4.9-6.5,7c1.4,0,3.5,0,5.1,0c1.1,0,2.3-0.2,2.3,0.9c0,0.5-0.3,0.7-0.7,0.8c-2.9,0-5.8,0-8.7,0
		c-0.5-0.2-0.9-0.5-0.7-1.2c0.1-0.4,0.6-0.8,0.9-1.1c2.1-2.3,4.6-5,6.5-7.2c0,0,0,0,0,0C24.4,2.5,22.2,2.5,20,2.5z"/>
	<path class="st1" d="M38.9,2.4c0.1-0.1,0.4-0.1,0.4,0C39.2,2.4,39,2.4,38.9,2.4z"/>
	<path class="st2" d="M11.6,2.5c0.1-0.1,0.4-0.1,0.5,0C11.9,2.5,11.7,2.5,11.6,2.5z"/>
	<path class="st1" d="M26.5,2.5c-2.2,0-4.4,0-6.5,0C22.2,2.5,24.4,2.5,26.5,2.5C26.5,2.5,26.5,2.5,26.5,2.5z"/>
	<path class="st2" d="M8.5,2.8c0,0.2,0,0.5,0,0.7C8.4,3.4,8.4,3,8.5,2.8z"/>
	<path class="st2" d="M13.9,5.5c0.1,0.2,0.1,0.6,0,0.7C13.9,6,13.9,5.8,13.9,5.5z"/>
	<path class="st1" d="M33.2,6.3c0-0.1,0-0.3,0-0.3C33.2,6.1,33.3,6.3,33.2,6.3z"/>
	<path class="st0" d="M45,6.1c0.1,0.1,0.1,0.5,0,0.7C45,6.5,45,6.3,45,6.1z"/>
	<path class="st1" d="M35.3,6.2c0,0.1,0,0.2,0,0.4C35.3,6.5,35.3,6.2,35.3,6.2z"/>
	<path class="st1" d="M43,6.6c-0.1,0-0.1-0.3,0-0.3C43,6.4,43,6.5,43,6.6z"/>
	<path class="st0" d="M10.6,6.3c1.1,0,2.2,0,3.3,0C12.9,6.3,11.6,6.3,10.6,6.3z"/>
	<path class="st1" d="M33.2,6.5c0.1,0.1,0,0.2,0,0.3C33.2,6.8,33.2,6.6,33.2,6.5z"/>
	<path class="st2" d="M8.5,7.9c0,0.2,0,0.3,0,0.5C8.4,8.3,8.4,8,8.5,7.9z"/>
	<path class="st2" d="M8.5,11.1c0,0.1,0,0.3,0,0.4C8.4,11.4,8.4,11.1,8.5,11.1z"/>
	<path class="st2" d="M10.8,11.3c1-0.1,2.1,0,3.1,0c0,0.5,0,1.1,0,1.6c-0.9,0-1.8,0-2.6,0c0.9,0,1.7,0,2.6,0c0.1-0.4,0-1,0-1.5
		C12.9,11.3,11.8,11.3,10.8,11.3z"/>
	<path class="st0" d="M9.4,12.8c0,0.1-0.5,0-0.7,0.1c0,0,0,0,0,0C8.9,12.8,9.2,12.9,9.4,12.8z"/>
	<path class="st0" d="M23.7,15.7c0.1-0.1,0.5-0.1,0.6,0C24.1,15.7,23.9,15.7,23.7,15.7z"/>
	<path class="st5" d="M18.1,21.3C18.1,21.3,18.1,21.3,18.1,21.3c0.3-3.4,2.4-5.2,5.6-5.6c0.2,0,0.4,0,0.6,0c3.4,0.4,5.3,2.2,5.6,5.6
		c0,0.1,0,0.2,0,0.4c-0.1,1.6-0.6,2.7-1.4,3.7c-0.2,0.2-0.4,0.4-0.6,0.6c-0.9,0.8-2.1,1.3-3.7,1.4c-0.1,0-0.2,0-0.3,0
		c-3.5-0.3-5.3-2.2-5.7-5.5C18.1,21.7,18.1,21.5,18.1,21.3z M26.4,18.4c-1-1.1-3.1-1.1-4.3-0.5c-1.1,0.6-2,1.9-2,3.6
		c0,2.2,1.5,3.9,3.6,4c0.1,0.1,0.4,0.1,0.4,0c1,0,1.7-0.4,2.3-0.9c0.1-0.1,0.2-0.2,0.3-0.3c0.5-0.6,0.9-1.3,1-2.3
		c0.1-0.2,0.1-0.6,0-0.8c-0.1-1-0.5-1.7-1-2.3C26.7,18.7,26.6,18.5,26.4,18.4z"/>
	<path class="st0" d="M34.7,15.8c0.1-0.1,0.4-0.1,0.5,0C35,15.8,34.8,15.8,34.7,15.8z"/>
	<path class="st0" d="M43.1,15.8c0.1-0.1,0.4-0.1,0.5,0C43.5,15.8,43.3,15.8,43.1,15.8z"/>
	<path class="st5" d="M35.7,26.4c0,0.9-1.4,1.2-1.8,0.4c-0.2-0.5-0.1-1.7-0.1-2.6c0-1.8,0-3.5,0-5.3c0-1.3-0.3-3,0.9-3.1
		c0.2,0,0.3,0,0.5,0c0.7,0.1,1,0.9,1.3,1.4c0.9,1.4,1.8,2.9,2.7,4.2c0.8-1.2,1.8-2.8,2.6-4.2c0.3-0.5,0.7-1.3,1.3-1.4
		c0.2,0,0.3,0,0.5,0c0.5,0.1,0.8,0.4,0.8,0.9c0,3.2,0,6.5,0,9.7c-0.1,1.1-1.6,1-1.9,0.3c-0.2-0.4-0.1-1.1-0.1-1.7c0-1.8,0-3.8,0-5.4
		c-0.8,1.1-1.5,2.2-2.3,3.5c-0.3,0.4-0.5,0.9-1.1,0.9c-0.5,0-0.8-0.5-1.1-0.9c-0.6-0.9-1-1.4-1.6-2.3c-0.2-0.3-0.5-1-0.8-1.1
		C35.7,21.9,35.7,24.1,35.7,26.4z"/>
	<path class="st2" d="M6.7,16.3c0.4-0.1,0.9-0.1,1.3,0C7.5,16.3,7.1,16.3,6.7,16.3z"/>
	<path class="st0" d="M8.4,16.6c0.5-0.1,1.2-0.1,1.6,0C9.5,16.6,8.9,16.6,8.4,16.6z"/>
	<path class="st1" d="M44.5,16.7c0.1,3.2,0.1,6.5,0,9.7C44.5,23.2,44.5,19.9,44.5,16.7z"/>
	<path class="st2" d="M8.3,16.9c0,0.1,0,0.2,0,0.3C8.3,17.2,8.3,16.9,8.3,16.9z"/>
	<path class="st1" d="M35.7,19.6c0.1,2.2,0.1,4.6,0,6.8C35.7,24.1,35.7,21.9,35.7,19.6z"/>
	<path class="st2" d="M13.9,19.8c0.1,1.2,0.1,2.6,0,3.8C13.9,22.3,13.9,21.1,13.9,19.8z"/>
	<path class="st0" d="M18.1,21.3c0,0.2,0,0.4,0,0.6C18.1,21.7,18.1,21.4,18.1,21.3z"/>
	<path class="st0" d="M29.9,21.3c0.1,0.1,0.1,0.3,0,0.4C29.9,21.6,29.9,21.5,29.9,21.3z"/>
	<path class="st2" d="M13.9,25.4c0.1,0.5,0,1.1,0,1.6c0,0,0,0,0,0C13.9,26.5,13.9,26,13.9,25.4z"/>
	<path class="st1" d="M23.8,25.5c0.1,0,0.3,0,0.4,0C24.2,25.6,23.9,25.6,23.8,25.5z"/>
	<path class="st2" d="M1.7,27.1c0-0.2,0-0.5,0-0.7C1.7,26.6,1.7,26.9,1.7,27.1C1.7,27.1,1.7,27.1,1.7,27.1z"/>
	<path class="st0" d="M1.7,27.1C1.7,27.1,1.7,27.1,1.7,27.1c4.1,0,8.1,0,12.2,0c0,0,0,0,0,0C9.9,27.1,5.7,27.1,1.7,27.1z"/>
	<path class="st0" d="M23.8,27.4c0.1,0,0.2,0,0.3,0C24.1,27.4,23.9,27.4,23.8,27.4z"/>
	<path class="st0" d="M34.6,2.6C34.8,2.4,35,2.1,35.3,2C35,2.2,34.8,2.4,34.6,2.6z"/>
	<path class="st0" d="M34.7,10.4c0.1,0.1,0.3,0.2,0.4,0.4C35,10.7,34.8,10.5,34.7,10.4z"/>
	<path class="st1" d="M43.2,10.7c0.1-0.1,0.2-0.3,0.4-0.4C43.4,10.5,43.3,10.6,43.2,10.7z"/>
	<path class="st3" d="M0,0c15.5,0,31.1,0,46.6,0c0,9.3,0,18.7,0,28C31.1,28,15.6,28,0,28C0,18.7,0,9.4,0,0C0,0,0,0,0,0z M26.5,2.5
		c-1.9,2.2-4.4,4.8-6.5,7.2c-0.3,0.3-0.8,0.7-0.9,1.1c-0.2,0.7,0.2,1.1,0.7,1.2c2.8,0.1,5.9,0.1,8.7,0c0.4-0.1,0.7-0.4,0.7-0.8
		c0-1.1-1.2-0.9-2.3-0.9c-1.7,0-3.7,0-5.1,0c1.9-2.2,4.4-4.8,6.5-7c0.3-0.3,0.7-0.7,0.9-1.1c0.3-0.7,0-1.3-0.7-1.4
		c-2.7-0.1-5.7-0.1-8.4,0c-1,0-1,1.6-0.1,1.7C22.1,2.6,24.4,2.5,26.5,2.5z M45,6.1c-0.2-2.3-1.5-4.2-3.3-5c-2.2-1-5.1-0.4-6.4,0.9
		c-0.3,0.2-0.5,0.4-0.7,0.7c-0.7,0.9-1.2,1.9-1.3,3.4c-0.1,0.1,0,0.2,0,0.3c0,0.1,0,0.1,0,0.2c0,0.1,0,0.3,0,0.3
		c0.1,1.6,0.7,2.6,1.5,3.5c0.1,0.1,0.2,0.3,0.4,0.4c0.9,0.8,2.3,1.5,4,1.5c1.7,0,3.1-0.7,4-1.5c0.1-0.1,0.3-0.2,0.4-0.4
		c0.8-0.9,1.4-2,1.5-3.6C45.1,6.6,45.1,6.2,45,6.1z M4.6,0.8c0,3.6,0,7.1,0,10.7c0,1.2,0.1,2.4,0,3.6c-0.1,0.4-0.3,0.9-0.4,1.4
		c-0.9,3.3-1.7,6.8-2.5,10c-0.1,0.2,0,0.5,0,0.7c4,0.1,8.2,0.1,12.2,0c0-0.5,0-1.2,0-1.6c-2.7,0-5.4,0-8,0c0.4-1.5,0.2-3.6,1.2-4.7
		c0.8-0.9,3.2-1.1,4.1-0.1c0.6,0.6,0.4,2,0.4,3c0.8,0,1.6,0,2.4,0c0.1-1.2,0.1-2.6,0-3.8c0,0,0,0,0-0.1c0-0.2-1.1-0.1-1.4-0.1
		c-1.5,0-3.2,0-4.5,0c0,0,0,0,0,0c0-0.5,0.1-0.9,0.2-1.3c0,0,0,0,0,0c0.2-0.1,0.9,0.1,1-0.1c-0.4-0.1-0.7-0.4-0.8-0.9
		c0-0.1,0-0.2,0-0.3c0-0.1,0-0.2,0.1-0.3c0.5,0,1.1,0,1.6,0c-0.6,2.3,2.2,1.4,3.9,1.6c0-0.1,0-0.1,0-0.1c0.1-0.2,0-0.5,0-0.9
		c0-0.1,0.1-0.8,0-0.9c0,0-0.5,0-0.7,0c-1.6,0-3.4,0-4.8,0c0.1-0.4,0.1-0.7,0.2-1.2c0,0,0,0,0,0c1.2-0.1,2.6-0.1,4-0.1
		c0.3,0,1.3,0.1,1.3-0.1c0-0.1,0-0.3,0-0.4c-1.8,0-3.5,0-5.3,0c0-0.5,0-1.1,0-1.6c0.2,0,0.7,0.1,0.7-0.1c-0.5-0.3-0.8-0.7-0.9-1.3
		c0-0.1,0-0.3,0-0.4c0-0.7,0.4-1,0.9-1.3C8.9,9.5,8.6,9,8.5,8.3c0-0.2,0-0.3,0-0.5c0.1-1.1,0.9-1.6,2.1-1.6c1,0.1,2.3,0.1,3.3,0
		c0.1-0.2,0.1-0.6,0-0.7c0,0,0,0,0-0.1c-0.6,0.8-2.1,0.8-2.6-0.2c-0.2-0.4-0.3-0.8-0.4-1.4c-0.1-0.6-0.1-1.6-0.8-1.4
		c-0.6,0.2-0.5,1.8,0.3,1.7c0,0.6,0,1.2,0,1.7C9.1,5.7,8.6,4.7,8.5,3.6c0-0.2,0-0.5,0-0.7c0-0.6,0.3-1.5,0.7-1.8
		c0,0,0.7-0.3,0.3-0.2C7.9,0.8,6.2,0.7,4.6,0.8z M11.6,2.5C11.9,3,11.8,4,12.3,4.2c0.8,0.3,1.1-0.6,0.8-1.3c-0.2-0.4-0.6-0.4-1-0.5
		C12,2.4,11.7,2.4,11.6,2.5z M10.8,8C9.6,7.9,9.7,9.8,11,9.5c0.9,0.1,2,0,2.9,0c0-0.5,0-1,0-1.6C13,7.9,11.8,7.9,10.8,8z M10.8,11.3
		c-0.4,0-0.7,0.1-0.8,0.3c-0.4,0.7,0.4,1.3,1.3,1.2c0.8,0.1,1.8,0,2.6,0c0-0.5,0-1.1,0-1.6C12.9,11.3,11.8,11.2,10.8,11.3z
		 M23.7,15.7c-3.2,0.4-5.3,2.2-5.6,5.6c0,0,0,0,0,0c-0.1,0.1-0.1,0.4,0,0.6c0.4,3.4,2.3,5.3,5.7,5.5c0,0.1,0.3,0.1,0.3,0
		c1.6-0.1,2.8-0.6,3.7-1.4c0.2-0.2,0.4-0.4,0.6-0.6c0.8-0.9,1.3-2.1,1.4-3.7c0.1-0.1,0.1-0.3,0-0.4c-0.3-3.4-2.2-5.3-5.6-5.6
		C24.2,15.7,23.8,15.7,23.7,15.7z M34.7,15.8c-1.1,0.1-0.9,1.7-0.9,3.1c0,1.8,0,3.5,0,5.3c0,0.8-0.1,2.1,0.1,2.6
		c0.4,0.8,1.9,0.5,1.8-0.4c0.1-2.2,0.1-4.6,0-6.8c0.2,0.1,0.6,0.8,0.8,1.1c0.6,0.9,1,1.4,1.6,2.3c0.3,0.4,0.5,0.9,1.1,0.9
		c0.5,0,0.8-0.5,1.1-0.9c0.8-1.2,1.5-2.3,2.3-3.5c0,1.6,0,3.7,0,5.4c0,0.6-0.1,1.3,0.1,1.7c0.3,0.7,1.8,0.8,1.9-0.3
		c0.1-3.2,0.1-6.5,0-9.7c-0.1-0.5-0.4-0.8-0.8-0.9c-0.1-0.1-0.4-0.1-0.5,0c-0.6,0.1-1,0.9-1.3,1.4c-0.9,1.4-1.8,3-2.6,4.2
		c-0.9-1.3-1.8-2.8-2.7-4.2c-0.3-0.5-0.7-1.3-1.3-1.4C35,15.8,34.7,15.8,34.7,15.8z M9.9,21.9c-0.3-0.6-1.6-0.5-1.9,0.2
		c-0.2,0.5-0.1,1-0.2,1.5c0.7,0,1.4,0,2.1,0C9.8,23.1,10.2,22.5,9.9,21.9z"/>
	<path class="st2" d="M8,19.6C8,19.6,8,19.6,8,19.6c1.3,0.1,2.9,0.1,4.5,0.1c0.3,0,1.4-0.1,1.4,0.1c-0.3-0.1-0.9-0.1-1.4-0.1
		c-1,0-2,0-2.9,0C9,19.7,8.4,19.8,8,19.6C8,19.7,7.9,19.7,8,19.6C7.9,19.6,8,19.6,8,19.6z"/>
	<path class="st2" d="M8.1,18.3c0.1-0.2,0.7,0,1-0.1C9,18.3,8.4,18.1,8.1,18.3C8.2,18.3,8.1,18.3,8.1,18.3z"/>
	<path class="st0" d="M8.6,15.1C8.7,14.9,9.5,15,9.9,15c1,0,1.7,0,2.7,0c0.4,0,1.1,0.1,1.3,0c0,0,0-0.1,0-0.1c0,0,0,0,0,0
		c0,0.2-0.9,0.1-1.3,0.1C11.3,15,9.9,15,8.6,15.1C8.7,15.1,8.6,15.1,8.6,15.1z"/>
	<path class="st2" d="M8.7,12.8C8.7,12.9,8.7,12.9,8.7,12.8c0,0.6,0,1.1,0,1.6c1.8,0,3.5,0,5.3,0c0,0.1,0,0.3,0,0.4c0,0,0,0,0,0
		c0-0.1,0-0.2,0-0.4c-1.7,0-3.5,0-5.2,0C8.6,14,8.6,13.3,8.7,12.8z"/>
	<path class="st2" d="M10.3,5.8c0.1-0.5,0-1.1,0-1.7C10.4,4.6,10.4,5.4,10.3,5.8z"/>
	<path class="st4" d="M8.5,3.6c0.1,1.2,0.6,2.1,1.8,2.2c0.1-0.4,0.1-1.2,0-1.7c-0.8,0.1-0.9-1.5-0.3-1.7c0.7-0.2,0.8,0.8,0.8,1.4
		c0.1,0.6,0.2,1.1,0.4,1.4c0.5,0.9,2,0.9,2.6,0.2c0,0,0,0,0,0.1c0,0.2,0,0.5,0,0.7c-1.1,0-2.2,0-3.3,0c-1.2,0-2,0.4-2.1,1.6
		C8.4,8,8.4,8.3,8.5,8.3C8.6,9,8.9,9.5,9.4,9.8c-0.4,0.3-0.8,0.6-0.9,1.3c-0.1,0.1-0.1,0.3,0,0.4c0.1,0.6,0.4,1.1,0.9,1.3
		c-0.2,0.1-0.5,0-0.7,0c-0.1,0.5-0.1,1.2,0,1.7c1.7,0,3.5,0,5.2,0c0,0.1,0,0.2,0,0.4c0,0,0,0.1,0,0.1c-0.2,0.1-0.9,0-1.3,0
		c-0.9,0-1.7,0-2.7,0c-0.4,0-1.2-0.1-1.2,0.1c0,0.4-0.1,0.8-0.2,1.2c0,0,0,0,0,0c1.8,0,3.6,0,5.4,0c0,0.6,0,1.1,0,1.7
		c0,0,0,0.1,0,0.1c-1.7-0.2-4.4,0.7-3.9-1.6c-0.5-0.1-1.2-0.1-1.6,0c0,0.1-0.1,0.2-0.1,0.3c-0.1,0-0.1,0.3,0,0.3
		c0.1,0.5,0.4,0.8,0.8,0.9c-0.2,0.1-0.8-0.1-1,0.1c0,0.5-0.1,0.9-0.2,1.3c0,0,0,0,0,0c0,0.1,0,0.1,0.1,0.1c0.4,0.1,1,0,1.5,0
		c1,0,1.9,0,2.9,0c0.5,0,1.1,0,1.4,0.1c0,0,0,0,0,0.1c0,1.3,0,2.5,0,3.8c-0.8,0-1.6,0-2.4,0c0-1,0.2-2.4-0.4-3
		c-0.9-1-3.2-0.7-4.1,0.1c-1,1.1-0.8,3.1-1.2,4.7c2.6,0.1,5.3,0,8,0c0,0.5,0,1.1,0,1.6c-4.1,0-8.1,0-12.2,0c0-0.2,0-0.5,0-0.7
		c0.8-3.2,1.7-6.7,2.5-10c0.1-0.5,0.3-0.9,0.4-1.4c0.1-1.1,0-2.4,0-3.6c0-3.5,0-7.1,0-10.7c1.6,0,3.4,0,5,0C9.9,0.7,9.3,1,9.2,1
		C8.8,1.4,8.5,2.2,8.5,2.8C8.4,3,8.4,3.4,8.5,3.6z M7.9,16.3C8,16.3,8,16.3,7.9,16.3C8,15.8,8.1,15.5,8.2,15c-0.5,0-0.9,0-1.4,0
		c-0.1,0.4-0.1,0.8-0.2,1.2c0,0,0.1,0,0.1,0C7.1,16.3,7.5,16.3,7.9,16.3z"/>
	<path class="st2" d="M8.5,16.3c1.4,0,3.2,0,4.8,0c0.2,0,0.6,0,0.7,0c0.1,0.1,0,0.7,0,0.9c0,0.4,0,0.6,0,0.9c0-0.6,0-1.1,0-1.7
		C12.1,16.3,10.3,16.3,8.5,16.3C8.5,16.3,8.5,16.3,8.5,16.3z"/>
	<path class="st3" d="M38.7,10.4c-2.1-0.3-3.2-1.6-3.4-3.8c0-0.1,0-0.2,0-0.4c0.2-2.3,1.4-3.6,3.6-3.8c0.1,0,0.3,0,0.4,0
		C41.6,2.6,42.7,4,43,6.3c-0.1,0-0.1,0.3,0,0.3c-0.1,1.1-0.4,1.9-1,2.6c-0.1,0.1-0.2,0.2-0.3,0.3c-0.5,0.4-1.2,0.8-2.1,0.9
		C39.3,10.4,39,10.4,38.7,10.4z"/>
	<path class="st1" d="M41.6,9.5c0.1-0.1,0.2-0.2,0.3-0.3C41.9,9.3,41.8,9.4,41.6,9.5z"/>
	<path class="st2" d="M10.8,8c1-0.1,2.1-0.1,3.1,0c0,0.5,0,1,0,1.6c-1,0-2,0-2.9,0c1,0,1.9,0,2.9,0c0-0.5,0-1,0-1.5
		C12.9,8,11.8,8,10.8,8z"/>
	<path class="st0" d="M27.9,26c0.2-0.2,0.4-0.4,0.6-0.6C28.3,25.6,28.1,25.8,27.9,26z"/>
	<path class="st3" d="M23.8,25.5c-2.1-0.1-3.6-1.8-3.6-4c0-1.7,0.9-2.9,2-3.6c1.2-0.6,3.3-0.6,4.3,0.5c0.1,0.1,0.3,0.3,0.4,0.4
		c0.5,0.6,0.9,1.3,1,2.3c0,0.3,0,0.5,0,0.8c-0.1,1-0.4,1.7-1,2.3c-0.1,0.1-0.2,0.2-0.3,0.3c-0.6,0.5-1.2,0.9-2.3,0.9
		C24.1,25.5,23.9,25.5,23.8,25.5z"/>
	<path class="st0" d="M26.5,24.6c0.1-0.1,0.2-0.2,0.3-0.3C26.7,24.4,26.6,24.5,26.5,24.6z"/>
	<path class="st0" d="M26.4,18.4c0.1,0.1,0.3,0.3,0.4,0.4C26.7,18.7,26.6,18.6,26.4,18.4z"/>
	<path class="st0" d="M19.8,12c2.9,0,5.8,0,8.7,0C25.7,12.1,22.6,12.1,19.8,12z"/>
	<path class="st3" d="M6.7,16.3C6.6,16.3,6.6,16.3,6.7,16.3c0-0.4,0.1-0.9,0.1-1.3c0.5,0,0.9,0,1.4,0c0,0.4-0.1,0.8-0.2,1.2
		c0,0,0,0-0.1,0C7.6,16.3,7,16.3,6.7,16.3z"/>
	<path class="st4" d="M11.6,2.5c0.2,0,0.3,0,0.5,0c0.4,0,0.8,0.1,1,0.5c0.3,0.6,0,1.6-0.8,1.3C11.8,4,11.9,3,11.6,2.5z"/>
	<path class="st4" d="M11,9.5C9.7,9.8,9.6,7.9,10.8,8c1,0,2,0,3,0c0,0.5,0,1,0,1.5C12.9,9.5,11.9,9.5,11,9.5z"/>
	<path class="st4" d="M11.3,12.8c-0.8,0.2-1.6-0.5-1.3-1.2c0.1-0.2,0.4-0.3,0.8-0.3c1,0,2,0,3,0c0,0.5,0,1.1,0,1.5
		C13,12.8,12.1,12.8,11.3,12.8z"/>
	<path class="st4" d="M9.9,23.6c-0.7,0-1.4,0-2.1,0c0.1-0.5,0-1,0.2-1.5c0.3-0.7,1.6-0.8,1.9-0.2C10.2,22.5,9.8,23.1,9.9,23.6z"/>
	<path class="st1" d="M38.7,10.4c0.3,0,0.6,0,0.8,0C39.4,10.4,38.9,10.4,38.7,10.4z"/>
	<path class="st0" d="M27.8,21.2c0.1,0.2,0.1,0.6,0,0.8C27.8,21.7,27.8,21.4,27.8,21.2z"/>
</g>
</svg>
