<?xml version="1.0" encoding="utf-8"?>
<!-- Generator: Adobe Illustrator 15.0.0, SVG Export Plug-In . SVG Version: 6.00 Build 0)  -->
<!DOCTYPE svg PUBLIC "-//W3C//DTD SVG 1.1//EN" "http://www.w3.org/Graphics/SVG/1.1/DTD/svg11.dtd">
<svg version="1.1" id="Layer_1" xmlns="http://www.w3.org/2000/svg" xmlns:xlink="http://www.w3.org/1999/xlink" x="0px" y="0px"
	 width="83.3px" height="50px" viewBox="0 0 83.3 50" style="enable-background:new 0 0 83.3 50;" xml:space="preserve">
<style type="text/css">
<![CDATA[
	.st0{display:none;fill-rule:evenodd;clip-rule:evenodd;fill:#B2C3CD;}
	.st1{display:none;fill-rule:evenodd;clip-rule:evenodd;fill:#555555;}
	.st2{display:none;fill-rule:evenodd;clip-rule:evenodd;fill:#5DB7E7;}
	.st3{display:none;fill-rule:evenodd;clip-rule:evenodd;fill:#FFFFFF;}
	.st4{fill-rule:evenodd;clip-rule:evenodd;fill:#3992CF;}
	.st5{fill-rule:evenodd;clip-rule:evenodd;fill:#010101;}
]]>
</style>
<path class="st1" d="M35.8,1.4c4.9-0.1,10.1-0.1,15,0C45.8,1.4,40.8,1.4,35.8,1.4z"/>
<path class="st2" d="M8.2,1.4c2.9-0.1,5.9,0,8.9-0.1C14.3,1.5,11.2,1.4,8.2,1.4z"/>
<path class="st1" d="M69.4,4.3c0.1-0.1,0.6-0.1,0.8,0C70,4.3,69.7,4.3,69.4,4.3z"/>
<path class="st2" d="M20.7,4.4c0.2-0.1,0.7-0.1,0.9,0C21.3,4.4,21,4.4,20.7,4.4z"/>
<path class="st1" d="M47.4,4.5c-3.9,0-7.9,0.1-11.7-0.1C39.6,4.4,43.5,4.4,47.4,4.5C47.4,4.5,47.4,4.5,47.4,4.5z"/>
<path class="st2" d="M15.2,5.1c0,0.4,0,0.9,0,1.3C15.1,6.1,15.1,5.4,15.2,5.1z"/>
<path class="st2" d="M24.8,9.9c0.1,0.3,0.1,1,0,1.3C24.8,10.8,24.8,10.3,24.8,9.9z"/>
<path class="st1" d="M59.3,11.3c0-0.2-0.1-0.5,0.1-0.6C59.4,10.9,59.5,11.2,59.3,11.3z"/>
<path class="st0" d="M80.4,10.8c0.1,0.3,0.1,0.9,0,1.2C80.4,11.6,80.4,11.2,80.4,10.8z"/>
<path class="st1" d="M63.1,11.1c0,0.2,0,0.4,0,0.7C63,11.6,63,11.2,63.1,11.1z"/>
<path class="st1" d="M76.7,11.8c-0.1-0.1-0.1-0.5,0-0.6C76.7,11.4,76.7,11.6,76.7,11.8z"/>
<path class="st0" d="M18.9,11.2c2,0,3.9,0,5.9,0C22.9,11.3,20.7,11.3,18.9,11.2z"/>
<path class="st1" d="M59.3,11.6c0.1,0.1,0,0.4,0.1,0.6C59.3,12.1,59.4,11.8,59.3,11.6z"/>
<path class="st2" d="M15.2,14.1c0,0.3,0,0.6,0,0.8C15.1,14.7,15.1,14.2,15.2,14.1z"/>
<path class="st2" d="M15.2,19.8c0,0.2,0,0.5,0,0.7C15.1,20.4,15.1,19.9,15.2,19.8z"/>
<path class="st2" d="M19.3,20.1c1.7-0.1,3.7,0,5.5-0.1c0,0.9,0,1.9,0,2.8c-1.5,0-3.2,0.1-4.7-0.1c1.5,0,3,0,4.6,0
	c0.1-0.8,0-1.8,0.1-2.7C23,20.1,21.1,20.1,19.3,20.1z"/>
<path class="st0" d="M16.7,22.9c0,0.2-0.9,0.1-1.3,0.1c0,0,0,0,0-0.1C15.9,22.9,16.4,23,16.7,22.9z"/>
<path class="st0" d="M42.3,28.1c0.2-0.1,0.9-0.1,1.1,0C43.1,28.1,42.7,28.1,42.3,28.1z"/>
<path class="st0" d="M61.9,28.3c0.1-0.1,0.7-0.1,0.8,0C62.4,28.3,62.2,28.3,61.9,28.3z"/>
<path class="st0" d="M77,28.3c0.2-0.1,0.7-0.1,0.9,0C77.6,28.3,77.3,28.3,77,28.3z"/>
<path class="st2" d="M11.9,29.1c0.6-0.1,1.6-0.1,2.3,0C13.4,29.1,12.7,29.1,11.9,29.1z"/>
<path class="st0" d="M14.9,29.6c0.9-0.1,2.1-0.1,2.9,0C16.9,29.6,15.9,29.6,14.9,29.6z"/>
<path class="st1" d="M79.4,29.8c0.1,5.6,0.1,11.7,0,17.3C79.4,41.4,79.4,35.6,79.4,29.8z"/>
<path class="st2" d="M14.8,30.1c0,0.2,0,0.4,0,0.6C14.7,30.6,14.7,30.2,14.8,30.1z"/>
<path class="st1" d="M63.8,35c0.1,3.9,0.1,8.2,0,12.1C63.8,43.1,63.8,39,63.8,35z"/>
<path class="st2" d="M24.8,35.4c0.1,2.1,0.1,4.6,0,6.8C24.8,39.9,24.8,37.6,24.8,35.4z"/>
<path class="st0" d="M32.3,38c0,0.3,0,0.7,0,1C32.2,38.8,32.2,38.2,32.3,38z"/>
<path class="st0" d="M53.4,38.1c0.1,0.1,0.1,0.6,0,0.7C53.4,38.6,53.4,38.3,53.4,38.1z"/>
<path class="st2" d="M24.8,45.4c0.1,0.9,0,2,0.1,2.9c0,0,0,0-0.1,0C24.8,47.4,24.8,46.4,24.8,45.4z"/>
<path class="st1" d="M42.5,45.6c0.3,0,0.5,0,0.8,0C43.1,45.7,42.6,45.7,42.5,45.6z"/>
<path class="st2" d="M3,48.4c0-0.4-0.1-1,0.1-1.3C3.1,47.5,3.1,48,3,48.4C3,48.4,3,48.4,3,48.4z"/>
<path class="st0" d="M3,48.4C3,48.4,3,48.4,3,48.4c7.3,0,14.5,0,21.8,0c0,0,0,0,0.1,0C17.7,48.5,10.2,48.5,3,48.4z"/>
<path class="st0" d="M42.6,48.9c0.2,0,0.4,0,0.6,0C43.1,49,42.6,49,42.6,48.9z"/>
<path class="st0" d="M61.7,4.7c0.4-0.5,0.7-0.9,1.2-1.2C62.5,3.9,62.1,4.3,61.7,4.7z"/>
<path class="st0" d="M62,18.6c0.2,0.2,0.5,0.4,0.7,0.7C62.4,19,62.2,18.8,62,18.6z"/>
<path class="st1" d="M77.1,19.2c0.2-0.2,0.4-0.5,0.7-0.7C77.5,18.7,77.3,19,77.1,19.2z"/>
<path class="st3" d="M0.1,0c27.8,0,55.5,0,83.3,0c0,16.7,0,33.3,0,50C55.6,50,27.8,50,0,50C0,33.4,0,16.8,0,0.2C0,0.1,0,0,0.1,0z
	 M47.4,4.5c-3.4,3.9-7.9,8.6-11.7,12.8c-0.5,0.6-1.4,1.3-1.6,2c-0.3,1.3,0.3,1.9,1.2,2.2c5,0.1,10.5,0.1,15.5,0
	c0.8-0.2,1.3-0.7,1.3-1.5c0-1.9-2.1-1.6-4.1-1.6c-3,0-6.6,0-9.2,0c3.4-3.9,7.8-8.5,11.6-12.6c0.6-0.6,1.3-1.3,1.6-1.9
	c0.5-1.2-0.1-2.4-1.2-2.5c-4.9-0.1-10.1-0.1-15,0c-1.7,0-1.8,2.9-0.1,3.1C39.5,4.6,43.5,4.5,47.4,4.5z M80.4,10.8
	c-0.3-4.2-2.6-7.4-5.9-8.9c-4-1.8-9.1-0.7-11.5,1.6c-0.5,0.3-0.9,0.8-1.2,1.2c-1.2,1.6-2.2,3.4-2.3,6c-0.1,0.1,0,0.4-0.1,0.6
	c0,0.1,0,0.2,0,0.3c0,0.2-0.1,0.5,0.1,0.6c0.2,2.8,1.3,4.7,2.6,6.3c0.2,0.2,0.4,0.5,0.7,0.7c1.7,1.4,4.2,2.7,7.2,2.7
	c3,0,5.5-1.3,7.2-2.7c0.2-0.2,0.5-0.4,0.7-0.7c1.4-1.6,2.5-3.6,2.7-6.5C80.5,11.7,80.5,11.1,80.4,10.8z M8.2,1.4
	c0,6.4,0,12.7,0,19.1c0,2.1,0.2,4.3,0,6.4c-0.1,0.8-0.4,1.6-0.7,2.4c-1.5,5.9-3,12.1-4.5,17.8C2.9,47.4,3,48,3,48.4
	c7.1,0.1,14.7,0.1,21.8,0c0-1,0.1-2.1-0.1-2.9c-4.7,0-9.6,0.1-14.3-0.1c0.8-2.7,0.3-6.5,2.1-8.3c1.5-1.5,5.6-2,7.3-0.2
	c1,1.1,0.7,3.5,0.7,5.3c1.4,0,2.8,0,4.2,0c0.1-2.1,0.1-4.6,0-6.8c0,0,0-0.1,0-0.1c0-0.3-2-0.2-2.6-0.2c-2.7,0-5.7,0-8-0.1
	c0,0,0,0,0-0.1c0.1-0.8,0.2-1.5,0.3-2.4c0,0,0.1,0,0.1-0.1c0.4-0.2,1.6,0.1,1.7-0.2c-0.8-0.3-1.3-0.8-1.4-1.7c0-0.2,0-0.4,0-0.6
	c0-0.2,0-0.4,0.1-0.6c1,0,2,0,2.9,0c-1,4,3.9,2.6,6.9,2.8c0-0.1,0-0.2-0.1-0.2c0.1-0.4,0.1-0.9,0.1-1.6c0-0.2,0.2-1.4-0.1-1.6
	c-0.1,0-0.9,0-1.2,0c-2.8,0-6.1,0-8.5,0c0.1-0.7,0.2-1.3,0.3-2.1c0,0,0.1,0,0.1-0.1c2.2-0.2,4.7-0.1,7.1-0.1c0.6,0,2.2,0.2,2.3-0.2
	c0-0.2,0-0.5,0-0.7c-3.1,0-6.3,0-9.4,0c0-1,0-1.9,0-2.9c0.4-0.1,1.3,0.1,1.3-0.1c-0.8-0.5-1.4-1.2-1.6-2.4c0-0.2,0-0.5,0-0.7
	c0-1.2,0.8-1.8,1.6-2.3c-0.9-0.5-1.4-1.3-1.6-2.6c0-0.3,0-0.6,0-0.8c0.1-2,1.6-2.8,3.7-2.8c1.8,0.1,4.1,0.1,5.9,0
	c0.1-0.3,0.1-1,0-1.3c0-0.1,0-0.1,0.1-0.1c-1.2,1.3-3.8,1.4-4.7-0.3c-0.4-0.7-0.5-1.5-0.7-2.6c-0.2-1.1-0.2-2.9-1.5-2.6
	c-1.2,0.3-0.9,3.3,0.5,3.1c0,1,0.1,2.1-0.1,3c-2.2-0.2-3.1-1.9-3.2-4c0-0.4,0-0.9,0-1.3c0-1.1,0.5-2.6,1.3-3.2
	c0.1-0.1,1.2-0.5,0.6-0.4C14.2,1.4,11.1,1.3,8.2,1.4z M20.7,4.4c0.5,1,0.3,2.7,1.2,3.1c1.4,0.6,2-1.2,1.4-2.3
	c-0.4-0.7-1.1-0.8-1.8-0.8C21.4,4.3,20.8,4.3,20.7,4.4z M19.3,14.3c-2.2-0.2-1.9,3.2,0.3,2.7c1.6,0.1,3.5,0,5.2,0.1
	c0-0.9,0-1.9,0-2.8C23.1,14.2,21,14.2,19.3,14.3z M19.3,20.1c-0.7,0-1.2,0.2-1.4,0.6c-0.6,1.3,0.8,2.4,2.3,2.1
	c1.4,0.1,3.1,0,4.7,0.1c0-0.9,0-1.9,0-2.8C23,20.1,21.1,20,19.3,20.1z M42.3,28.1c-5.8,0.6-9.4,3.9-9.9,9.9c0,0,0,0-0.1,0
	c-0.1,0.2-0.1,0.8,0,1c0.7,6,4,9.4,10.2,9.9c0.1,0.1,0.5,0.1,0.6,0c2.9-0.1,5-1.1,6.7-2.5c0.4-0.3,0.8-0.6,1.1-1.1
	c1.4-1.7,2.4-3.7,2.5-6.6c0.1-0.1,0.1-0.6,0-0.7c-0.6-6.1-3.9-9.4-9.9-10.1C43.2,28,42.6,28,42.3,28.1z M61.9,28.3
	c-2,0.1-1.6,3.1-1.6,5.5c0,3.2,0,6.3,0,9.4c0,1.5-0.2,3.7,0.2,4.6c0.7,1.5,3.3,0.9,3.3-0.7c0.1-3.9,0.1-8.2,0-12.1
	c0.4,0.2,1,1.4,1.4,1.9c1,1.6,1.8,2.6,2.8,4.1c0.5,0.7,1,1.6,1.9,1.6c0.9,0,1.4-0.8,1.9-1.6c1.5-2.2,2.7-4.1,4.2-6.2
	c0,2.9,0,6.5,0,9.7c0,1.1-0.1,2.4,0.2,3.1c0.6,1.3,3.1,1.4,3.3-0.5c0.1-5.6,0.1-11.7,0-17.3c-0.1-0.9-0.7-1.4-1.5-1.6
	c-0.2-0.1-0.7-0.1-0.9,0c-1.1,0.2-1.8,1.6-2.4,2.5c-1.6,2.5-3.3,5.3-4.7,7.4c-1.6-2.3-3.3-5-4.8-7.5c-0.6-0.9-1.2-2.3-2.3-2.4
	C62.6,28.2,62,28.2,61.9,28.3z M17.7,39.2c-0.5-1-2.8-0.9-3.3,0.3c-0.4,0.8-0.1,1.7-0.4,2.7c1.2,0,2.4,0,3.7,0
	C17.5,41.2,18.2,40.1,17.7,39.2z"/>
<path class="st2" d="M14.2,35C14.2,35,14.2,35,14.2,35c2.3,0.2,5.3,0.1,8,0.1c0.6,0,2.6-0.1,2.6,0.2c-0.6-0.2-1.6-0.1-2.6-0.1
	c-1.8,0-3.5,0-5.2,0c-1,0-2,0.2-2.7,0C14.2,35.1,14.2,35.2,14.2,35C14.2,35,14.2,35,14.2,35z"/>
<path class="st2" d="M14.5,32.6c0.3-0.4,1.3,0,1.8-0.2C16.1,32.7,15,32.4,14.5,32.6C14.6,32.6,14.5,32.6,14.5,32.6z"/>
<path class="st0" d="M15.4,27c0.1-0.4,1.6-0.2,2.2-0.2c1.8,0,3.1,0,4.8,0c0.8,0,1.9,0.2,2.4-0.1c0,0,0-0.1,0-0.1c0,0,0,0,0.1,0
	c0,0.4-1.7,0.2-2.3,0.2C20.1,26.8,17.7,26.7,15.4,27C15.5,27,15.4,27,15.4,27z"/>
<path class="st2" d="M15.4,22.9C15.4,23,15.4,23,15.4,22.9c0,1,0,2,0,2.9c3.1,0,6.3,0,9.4,0c0,0.2,0,0.5,0,0.7c0,0,0,0-0.1,0
	c0-0.2,0-0.4,0-0.7c-3.1,0-6.2,0-9.3,0C15.4,25.1,15.4,23.8,15.4,22.9z"/>
<path class="st2" d="M18.4,10.4c0.1-0.9,0-2,0.1-3C18.5,8.2,18.6,9.6,18.4,10.4z"/>
<path class="st2" d="M15.1,29.1c2.4,0,5.7,0,8.5,0c0.3,0,1.1,0,1.2,0c0.2,0.2,0.1,1.3,0.1,1.6c0,0.7,0,1.1-0.1,1.6c0-1,0-2,0-3.1
	C21.6,29.1,18.3,29.1,15.1,29.1C15.1,29.1,15.1,29.1,15.1,29.1z"/>
<path class="st3" d="M69.2,18.6c-3.7-0.6-5.8-2.8-6.1-6.8c0-0.2,0-0.4,0-0.7c0.4-4,2.4-6.3,6.4-6.8c0.3,0,0.5,0,0.8,0
	c4,0.4,6.1,2.8,6.5,6.9c-0.1,0.1-0.1,0.5,0,0.6c-0.1,2-0.8,3.5-1.8,4.6c-0.2,0.2-0.4,0.4-0.6,0.6c-1,0.8-2.1,1.4-3.7,1.6
	C70.2,18.6,69.7,18.6,69.2,18.6z"/>
<path class="st1" d="M74.3,17c0.2-0.2,0.4-0.4,0.6-0.6C74.8,16.6,74.6,16.8,74.3,17z"/>
<path class="st2" d="M19.3,14.3c1.7-0.1,3.8-0.1,5.5,0c0,0.9,0,1.9,0,2.8c-1.7,0-3.6,0.1-5.2-0.1c1.7,0,3.4,0,5.2,0
	c0-0.9,0-1.8,0-2.7C23,14.3,21.1,14.3,19.3,14.3z"/>
<path class="st0" d="M49.8,46.4c0.4-0.3,0.7-0.7,1.1-1.1C50.6,45.7,50.2,46.1,49.8,46.4z"/>
<path class="st3" d="M42.5,45.6c-3.8-0.2-6.5-3.2-6.5-7.2c0-2.9,1.6-5.3,3.6-6.4c2.1-1.1,5.8-1.1,7.6,0.8c0.2,0.3,0.5,0.5,0.7,0.7
	c0.9,1.1,1.6,2.3,1.7,4.2c0,0.5,0,1,0,1.4c-0.1,1.8-0.8,3.1-1.7,4.2c-0.2,0.2-0.4,0.4-0.6,0.6c-1,0.9-2.2,1.5-4.1,1.6
	C43,45.6,42.8,45.6,42.5,45.6z"/>
<path class="st0" d="M47.3,44c0.2-0.2,0.4-0.4,0.6-0.6C47.8,43.6,47.6,43.8,47.3,44z"/>
<path class="st0" d="M47.2,32.9c0.3,0.2,0.5,0.5,0.7,0.7C47.7,33.4,47.4,33.2,47.2,32.9z"/>
<path class="st0" d="M35.4,21.5c5.2,0,10.3,0,15.5,0C45.9,21.6,40.4,21.6,35.4,21.5z"/>
<path class="st3" d="M11.9,29.1c0,0-0.1-0.1-0.2-0.1c0.1-0.7,0.3-1.5,0.4-2.2c0.8,0,1.6,0,2.4,0c0,0.8-0.2,1.4-0.3,2.2
	c0,0-0.1,0.1-0.1,0.1C13.5,29,12.5,29,11.9,29.1z"/>
<path class="st1" d="M69.2,18.6c0.5,0,1,0,1.5,0C70.3,18.6,69.5,18.6,69.2,18.6z"/>
<path class="st0" d="M49.7,37.8c0.1,0.4,0.1,1.1,0,1.4C49.7,38.7,49.7,38.3,49.7,37.8z"/>
<g>
	<path class="st5" d="M62.9,3.5c2.4-2.3,7.5-3.3,11.5-1.6c3.3,1.5,5.6,4.7,5.9,8.9c0,0.4,0,0.8,0,1.2c-0.2,2.9-1.3,4.9-2.7,6.5
		c-0.2,0.2-0.5,0.4-0.7,0.7c-1.7,1.5-4.1,2.7-7.2,2.7c-3,0-5.5-1.2-7.2-2.7c-0.2-0.2-0.4-0.5-0.7-0.7c-1.3-1.6-2.4-3.5-2.6-6.3
		c0-0.2,0.1-0.5-0.1-0.6c0-0.1,0-0.2,0-0.3c0.1-0.1,0-0.4,0.1-0.6c0.2-2.6,1.1-4.4,2.3-6C62.1,4.3,62.5,3.9,62.9,3.5z M69.4,4.3
		c-4,0.4-6,2.8-6.4,6.8c-0.1,0.1-0.1,0.6,0,0.7c0.3,4,2.4,6.2,6.1,6.8c0.4,0.1,1.1,0.1,1.5,0c1.6-0.1,2.7-0.8,3.7-1.6
		c0.2-0.2,0.4-0.4,0.6-0.6c1-1.1,1.7-2.6,1.8-4.6c0-0.2,0-0.4,0-0.6c-0.4-4.1-2.5-6.5-6.5-6.9C70.1,4.2,69.6,4.2,69.4,4.3z"/>
	<path class="st5" d="M35.7,4.4c-1.7-0.1-1.6-3,0.1-3.1c5,0,10,0,15,0c1.2,0.1,1.7,1.3,1.2,2.5c-0.2,0.7-1,1.3-1.6,1.9
		c-3.7,4-8.2,8.7-11.6,12.6c2.6,0,6.2,0,9.2,0c2,0,4.1-0.3,4.1,1.6c0,0.8-0.6,1.3-1.3,1.5c-5.2,0-10.3,0-15.5,0
		c-0.9-0.3-1.5-0.9-1.2-2.2c0.2-0.7,1-1.4,1.6-2c3.8-4.1,8.2-8.9,11.7-12.8c0,0,0,0,0-0.1C43.5,4.4,39.6,4.4,35.7,4.4z"/>
	<path class="st5" d="M32.3,38C32.4,38,32.4,38,32.3,38c0.6-6.1,4.2-9.3,10-9.9c0.4,0,0.7,0,1.1,0c6,0.7,9.4,4,9.9,10.1
		c0,0.2,0,0.4,0,0.7c-0.1,2.9-1.1,4.9-2.5,6.6c-0.3,0.4-0.7,0.7-1.1,1.1c-1.7,1.4-3.7,2.4-6.7,2.5c-0.2,0-0.4,0-0.6,0
		C36.4,48.4,33,45,32.3,39C32.3,38.7,32.3,38.3,32.3,38z M47.2,32.9c-1.8-1.9-5.6-2-7.6-0.8c-2.1,1.1-3.6,3.4-3.6,6.4
		c0,4,2.7,6.9,6.5,7.2c0.1,0.1,0.6,0.1,0.8,0c1.8-0.1,3-0.7,4.1-1.6c0.2-0.2,0.4-0.4,0.6-0.6c0.9-1,1.6-2.3,1.7-4.2
		c0.1-0.4,0.1-1.1,0-1.4c-0.1-1.8-0.8-3.1-1.7-4.2C47.7,33.3,47.5,33.1,47.2,32.9z"/>
	<path class="st5" d="M63.8,47.1c0,1.6-2.6,2.2-3.3,0.7c-0.4-0.8-0.2-3.1-0.2-4.6c0-3.1,0-6.3,0-9.4c0-2.4-0.5-5.4,1.6-5.5
		c0.3,0,0.6,0,0.8,0c1.2,0.1,1.8,1.5,2.3,2.4c1.6,2.5,3.3,5.2,4.8,7.5c1.5-2.1,3.1-5,4.7-7.4c0.6-0.9,1.3-2.3,2.4-2.5
		c0.3,0,0.6,0,0.9,0c0.8,0.2,1.4,0.7,1.5,1.6c0,5.8,0,11.6,0,17.3c-0.2,1.9-2.8,1.8-3.3,0.5c-0.3-0.7-0.2-2-0.2-3.1
		c0-3.1,0-6.8,0-9.7c-1.5,2-2.7,4-4.2,6.2c-0.5,0.7-1,1.6-1.9,1.6c-0.9,0-1.4-0.8-1.9-1.6c-1-1.5-1.7-2.6-2.8-4.1
		c-0.4-0.6-1-1.7-1.4-1.9C63.8,39,63.8,43.1,63.8,47.1z"/>
	<g>
		<path class="st4" d="M8.3,1.4c3.1,0,6.1,0,9.2,0c-3.4,0.8-3.2,9.1,1,9c0.1-0.9,0-1.9,0-2.9c-0.4-0.3-0.8-0.3-1-0.7
			c-0.6-0.9,0-3.1,1.3-2.4c0.5,0.3,0.5,1.7,0.7,2.6c0.2,1.4,0.5,2.8,1.6,3.4c1.1,0.6,2.9,0.4,3.8-0.6c0,0.5,0,0.9,0,1.4
			c-3.4,0.3-8-0.9-9.3,1.4c-0.9,1.6-0.2,4.1,1.2,4.8c-1.1,0.5-1.7,1.5-1.6,3c0.1,1.2,0.9,2,1.5,2.4c-0.4,0-0.8,0-1.2,0c0,1,0,2,0,3
			c3.1,0,6.4,0,9.4,0c0,0.3,0,0.6,0,0.9c-3.1,0-6.2,0-9.3,0c-0.2,0.7-0.3,1.5-0.3,2.3c3.1,0.1,6.4,0,9.6,0c0,1.1,0,2.2,0,3.3
			c-3-0.3-7.9,1.2-6.9-2.8c-0.9-0.1-2,0-2.9,0c-0.5,1.4,0.2,2.7,1.4,2.9c-0.4,0.2-1.3-0.1-1.8,0.1c-0.2,0.8-0.2,1.7-0.4,2.6
			c3.4,0.1,7.1,0,10.6,0c0,2.3,0,4.7,0,7c-1.2,0-2.9,0-4.3,0c0.3-2.4,0.3-4.8-1.2-5.8c-0.9-0.6-2.3-0.7-3.5-0.6
			c-1.7,0.1-3.1,1-3.7,2c-0.6,1-0.8,2.4-1,3.7c-0.2,1.4-0.4,2.7-0.6,4c4.7,0.1,9.6,0,14.3,0c0,1,0,2,0,2.9c-7.1,0-14.6,0-21.8,0
			c0-0.4,0-0.9,0-1.3c1.5-5.7,3-11.9,4.6-17.8c0.2-0.9,0.6-1.7,0.7-2.5c0.1-1,0-2.1,0-3.2C8.3,16.2,8.3,8.8,8.3,1.4z M12.3,26.8
			c-0.2,0.7-0.3,1.5-0.4,2.3c0.8,0,1.7,0,2.5,0c0.1-0.7,0.2-1.5,0.3-2.3C13.9,26.8,13.1,26.8,12.3,26.8z"/>
		<path class="st4" d="M22.1,7.5c1.7,0.6,1.9-1.8,1.1-2.6c-0.6-0.6-1.2-0.5-2.4-0.5C21.3,5.3,21,7.2,22.1,7.5z"/>
		<path class="st4" d="M18.1,14.8c-0.3,0.5-0.3,1.3,0.1,1.7c0.3,0.3,0.9,0.4,1.4,0.5c1.7,0.1,3.6-0.1,5.3,0c0-0.9,0-1.9,0-2.8
			C23.1,14.6,18.9,13.6,18.1,14.8z"/>
		<path class="st4" d="M19.6,20.1c-0.6,0-1.3,0.1-1.5,0.5c-0.3,0.4-0.3,1.2,0,1.6c1,1.4,4.8,0.3,6.8,0.6c0-0.9,0-1.8,0-2.7
			C23.8,20.1,21.3,20.1,19.6,20.1z"/>
		<path class="st4" d="M17.7,39c-0.6-0.9-2.6-0.5-3.1,0.2c-0.6,0.9-0.2,1.9-0.5,2.9c1.2,0,2.4,0,3.6,0C17.7,41.1,18.2,39.8,17.7,39z
			"/>
		<path class="st4" d="M20.8,4.4c1.2,0.1,1.8-0.1,2.4,0.5c0.8,0.8,0.6,3.2-1.1,2.6C21,7.2,21.3,5.3,20.8,4.4z"/>
		<path class="st4" d="M24.9,14.3c0,0.9,0,1.9,0,2.8c-1.7-0.1-3.6,0.1-5.3,0c-0.6,0-1.2-0.2-1.4-0.5c-0.4-0.4-0.4-1.3-0.1-1.7
			C18.9,13.6,23.1,14.6,24.9,14.3z"/>
		<path class="st4" d="M24.9,20.1c0,0.9,0,1.8,0,2.7c-2-0.4-5.8,0.7-6.8-0.6c-0.3-0.4-0.3-1.3,0-1.6c0.3-0.3,1-0.5,1.5-0.5
			C21.3,20.1,23.8,20.1,24.9,20.1z"/>
		<path class="st4" d="M17.7,42.1c-1.2,0-2.4,0-3.6,0c0.3-0.9,0-2,0.5-2.9c0.5-0.8,2.4-1.1,3.1-0.2C18.2,39.8,17.7,41.1,17.7,42.1z"
			/>
	</g>
</g>
</svg>
