<?xml version="1.0" encoding="utf-8"?>
<!-- Generator: Adobe Illustrator 15.0.0, SVG Export Plug-In . SVG Version: 6.00 Build 0)  -->
<!DOCTYPE svg PUBLIC "-//W3C//DTD SVG 1.1//EN" "http://www.w3.org/Graphics/SVG/1.1/DTD/svg11.dtd">
<svg version="1.1" id="Layer_1" xmlns="http://www.w3.org/2000/svg" xmlns:xlink="http://www.w3.org/1999/xlink" x="0px" y="0px"
	 width="110px" height="19.7px" viewBox="0 0 110 19.7" style="enable-background:new 0 0 110 19.7;" xml:space="preserve">
<style type="text/css">
<![CDATA[
	.st0{fill:#252525;}
	.st1{fill:#FE0000;}
	.st2{fill:#FFFFFF;}
]]>
</style>
<path class="st0" d="M15.1,0L15.1,0l-4.8,0v0c-0.1,0-0.1,0-0.2,0C4.7,0,0.3,4.3,0,9.6h0v0.3C0,10,0,10,0,10.1c0,0.1,0,0.1,0,0.2v1
	l0,0v8.4h84.1h15.8h4c4.1,0,6.1-2.1,6.1-6.1v-2.7V9.6V0H15.1z"/>
<path class="st1" d="M90.4,19.7h9.5h4c4.1,0,6.1-2.1,6.1-6.1v-2.7V9.6V0H90.4V19.7z"/>
<path class="st2" d="M102.6,6h1.7v12h1.9c1.2-0.5,2-1.4,2.4-2.7V6V1.7h-6V6z"/>
<rect x="79.2" y="1.7" class="st2" width="9.7" height="5"/>
<circle class="st1" cx="9.8" cy="10" r="2"/>
<g>
	<path class="st2" d="M9.7,1.7L9.7,1.7C5.2,1.8,1.6,5.5,1.6,10c0,0.6,0.1,1.1,0.2,1.6H7c-0.3-0.5-0.4-1-0.4-1.6
		c0-1.8,1.5-3.3,3.3-3.3h7.5h0.7v-5H9.7z"/>
	<path class="st2" d="M12.6,8.3c0.3,0.5,0.5,1.1,0.5,1.8c0,1.8-1.4,3.2-3.2,3.3v0H1.6v5H10v0c4.5-0.1,8.1-3.7,8.1-8.3
		c0-0.6-0.1-1.2-0.2-1.8H12.6z"/>
</g>
<path class="st2" d="M45.9,1.7c-4.6,0-8.3,3.7-8.3,8.3c0,4.6,3.7,8.3,8.3,8.3c4.6,0,8.3-3.7,8.3-8.3C54.1,5.4,50.4,1.7,45.9,1.7z
	 M45.9,13.3c-1.8,0-3.3-1.5-3.3-3.3s1.5-3.3,3.3-3.3c1.8,0,3.3,1.5,3.3,3.3S47.7,13.3,45.9,13.3z"/>
<path class="st2" d="M28,1.7c-4.4,0-8,3.5-8.3,7.9h0v8.7h5v-0.7v-8h0.1C24.9,8,26.3,6.8,28,6.8c1.8,0,3.3,1.5,3.3,3.3
	s-1.5,3.3-3.3,3.3c-0.6,0-1.2-0.2-1.7-0.5v5.3c0.6,0.1,1.1,0.2,1.7,0.2c4.6,0,8.3-3.7,8.3-8.3C36.3,5.4,32.5,1.7,28,1.7z"/>
<path class="st2" d="M70.9,5.9V3.4V1.7h-7.2c0,0,0,0,0,0c-4.6,0-8.3,3.7-8.3,8.3c0,0.2,0,0.4,0,0.6v7.6h5v-0.7V10
	c0-1.8,1.5-3.3,3.3-3.3h7.2V5.9z"/>
<path class="st2" d="M80.9,13.3c-1.8,0-3.3-1.5-3.3-3.3V2.4V1.7h-5V10c0,4.6,3.7,8.3,8.3,8.3c3.4,0,6.3-2.1,7.6-5H80.9z"/>
</svg>
